%TF.GenerationSoftware,KiCad,Pcbnew,9.0.7*%
%TF.CreationDate,2026-03-03T16:21:43+01:00*%
%TF.ProjectId,ESP32_Shield,45535033-325f-4536-9869-656c642e6b69,rev?*%
%TF.SameCoordinates,Original*%
%TF.FileFunction,Copper,L2,Bot*%
%TF.FilePolarity,Positive*%
%FSLAX46Y46*%
G04 Gerber Fmt 4.6, Leading zero omitted, Abs format (unit mm)*
G04 Created by KiCad (PCBNEW 9.0.7) date 2026-03-03 16:21:43*
%MOMM*%
%LPD*%
G01*
G04 APERTURE LIST*
%TA.AperFunction,ComponentPad*%
%ADD10C,1.500000*%
%TD*%
%TA.AperFunction,ComponentPad*%
%ADD11R,1.500000X1.500000*%
%TD*%
%TA.AperFunction,ComponentPad*%
%ADD12R,1.700000X1.700000*%
%TD*%
%TA.AperFunction,ComponentPad*%
%ADD13C,1.700000*%
%TD*%
%TA.AperFunction,ViaPad*%
%ADD14C,0.600000*%
%TD*%
%TA.AperFunction,Conductor*%
%ADD15C,0.200000*%
%TD*%
G04 APERTURE END LIST*
D10*
%TO.P,U2,30,IO23*%
%TO.N,MOSI*%
X135430000Y-64755000D03*
%TO.P,U2,29,IO23*%
%TO.N,SCL*%
X135430000Y-67295000D03*
%TO.P,U2,28,IO1*%
%TO.N,unconnected-(U2-IO1-Pad28)*%
X135430000Y-69835000D03*
%TO.P,U2,27,IO3*%
%TO.N,unconnected-(U2-IO3-Pad27)*%
X135430000Y-72375000D03*
%TO.P,U2,26,IO21*%
%TO.N,SDA*%
X135430000Y-74915000D03*
%TO.P,U2,25,IO19*%
%TO.N,MISO*%
X135430000Y-77455000D03*
%TO.P,U2,24,IO18*%
%TO.N,unconnected-(U2-IO18-Pad24)*%
X135430000Y-79995000D03*
%TO.P,U2,23,IO5*%
%TO.N,en_meas*%
X135430000Y-82535000D03*
%TO.P,U2,22,IO17*%
%TO.N,!EN_DMS*%
X135430000Y-85075000D03*
%TO.P,U2,21,IO16*%
%TO.N,unconnected-(U2-IO16-Pad21)*%
X135430000Y-87615000D03*
%TO.P,U2,20,IO4*%
%TO.N,unconnected-(U2-IO4-Pad20)*%
X135430000Y-90155000D03*
%TO.P,U2,19,IO2*%
%TO.N,D_RDY_OUT*%
X135430000Y-92695000D03*
%TO.P,U2,18,IO15*%
%TO.N,SCLK*%
X135430000Y-95235000D03*
%TO.P,U2,17,GND*%
%TO.N,GND*%
X135430000Y-97775000D03*
%TO.P,U2,16,3V3*%
%TO.N,+3.3V*%
X135430000Y-100315000D03*
%TO.P,U2,15,5V*%
%TO.N,+5V*%
X112570000Y-100315000D03*
%TO.P,U2,14,GND*%
%TO.N,GND*%
X112570000Y-97775000D03*
%TO.P,U2,13,IO13*%
%TO.N,TARA_PD*%
X112570000Y-95235000D03*
%TO.P,U2,12,IO12*%
%TO.N,bat_adc*%
X112570000Y-92695000D03*
%TO.P,U2,11,IO14*%
%TO.N,SPI_CLK*%
X112570000Y-90155000D03*
%TO.P,U2,10,IO27*%
%TO.N,CS_Display*%
X112570000Y-87615000D03*
%TO.P,U2,9,IO26*%
%TO.N,!PWDN*%
X112570000Y-85075000D03*
%TO.P,U2,8,IO33*%
%TO.N,MODE_PD*%
X112570000Y-82535000D03*
%TO.P,U2,7,IO32*%
%TO.N,unconnected-(U2-IO32-Pad7)*%
X112570000Y-79995000D03*
%TO.P,U2,6,IO35*%
%TO.N,unconnected-(U2-IO35-Pad6)*%
X112570000Y-77455000D03*
%TO.P,U2,5,IO34*%
%TO.N,unconnected-(U2-IO34-Pad5)*%
X112570000Y-74915000D03*
%TO.P,U2,4,IO39*%
%TO.N,unconnected-(U2-IO39-Pad4)*%
X112570000Y-72375000D03*
%TO.P,U2,3,IO39*%
%TO.N,unconnected-(U2-IO39-Pad3)*%
X112570000Y-69835000D03*
%TO.P,U2,2,IO36*%
%TO.N,unconnected-(U2-IO36-Pad2)*%
X112570000Y-67295000D03*
D11*
%TO.P,U2,1,EN*%
%TO.N,unconnected-(U2-EN-Pad1)*%
X112570000Y-64755000D03*
%TD*%
D12*
%TO.P,PWR_MON1,1,Pin_1*%
%TO.N,Net-(PWR1-Pin_1)*%
X115525000Y-110000000D03*
D13*
%TO.P,PWR_MON1,2,Pin_2*%
%TO.N,+5V*%
X112985000Y-110000000D03*
%TD*%
D12*
%TO.P,BAT_VOLT1,1,Pin_1*%
%TO.N,+BATT*%
X131975000Y-110500000D03*
D13*
%TO.P,BAT_VOLT1,2,Pin_2*%
%TO.N,GND*%
X134515000Y-110500000D03*
%TD*%
D12*
%TO.P,J1,1,Pin_1*%
%TO.N,GND*%
X112570000Y-104500000D03*
D13*
%TO.P,J1,2,Pin_2*%
%TO.N,Net-(J1-Pin_2)*%
X115110000Y-104500000D03*
%TO.P,J1,3,Pin_3*%
%TO.N,Net-(J1-Pin_3)*%
X117650000Y-104500000D03*
%TO.P,J1,4,Pin_4*%
%TO.N,Net-(J1-Pin_4)*%
X120190000Y-104500000D03*
%TO.P,J1,5,Pin_5*%
%TO.N,Net-(J1-Pin_5)*%
X122730000Y-104500000D03*
%TO.P,J1,6,Pin_6*%
%TO.N,Net-(J1-Pin_6)*%
X125270000Y-104500000D03*
%TO.P,J1,7,Pin_7*%
%TO.N,Net-(J1-Pin_7)*%
X127810000Y-104500000D03*
%TO.P,J1,8,Pin_8*%
%TO.N,Net-(J1-Pin_8)*%
X130350000Y-104500000D03*
%TO.P,J1,9,Pin_9*%
%TO.N,Net-(J1-Pin_9)*%
X132890000Y-104500000D03*
%TO.P,J1,10,Pin_10*%
%TO.N,Net-(J1-Pin_10)*%
X135430000Y-104500000D03*
%TD*%
D12*
%TO.P,PWR1,1,Pin_1*%
%TO.N,Net-(PWR1-Pin_1)*%
X122225000Y-110250000D03*
D13*
%TO.P,PWR1,2,Pin_2*%
%TO.N,GND*%
X124765000Y-110250000D03*
%TD*%
D14*
%TO.N,en_meas*%
X126299265Y-83450735D03*
X125450735Y-84299265D03*
%TO.N,+3.3V*%
X115120735Y-88510735D03*
%TO.N,!EN_DMS*%
X132025735Y-85374265D03*
%TO.N,GND*%
X121000000Y-87000000D03*
X130750000Y-101000000D03*
%TO.N,Net-(J1-Pin_2)*%
X118500000Y-97500000D03*
X119789000Y-97000000D03*
%TO.N,+3.3V*%
X115833578Y-89514952D03*
%TO.N,GND*%
X115750000Y-80650000D03*
%TO.N,+3.3V*%
X132290000Y-99700000D03*
%TO.N,GND*%
X130300000Y-80400000D03*
X126300000Y-90900000D03*
X128600000Y-99400000D03*
X123800000Y-99500000D03*
X128300000Y-90800000D03*
X112600000Y-102400000D03*
X126900000Y-90900000D03*
X128100000Y-83200000D03*
X129000000Y-90700000D03*
X125800000Y-81000000D03*
X127500000Y-90900000D03*
X125356985Y-99343015D03*
X130300000Y-81000000D03*
X130800000Y-77000000D03*
%TO.N,Net-(J1-Pin_9)*%
X121100000Y-88700000D03*
X121100000Y-89900000D03*
%TO.N,Net-(J1-Pin_10)*%
X133900000Y-90700000D03*
X132290000Y-90700000D03*
X121900000Y-89900000D03*
X122100000Y-88700000D03*
%TO.N,Net-(J1-Pin_6)*%
X122300000Y-96300000D03*
X121855000Y-99558085D03*
%TO.N,!EN_DMS*%
X120299997Y-89900000D03*
X120300000Y-88700000D03*
%TO.N,SDA*%
X126400000Y-75500000D03*
X125200000Y-75500000D03*
%TO.N,D_RDY_OUT*%
X132290000Y-92800000D03*
%TO.N,SCLK*%
X132290000Y-96800000D03*
%TO.N,!PWDN*%
X116399265Y-88949265D03*
X114822500Y-87327500D03*
%TD*%
D15*
%TO.N,en_meas*%
X125450735Y-84299265D02*
X126299265Y-83450735D01*
%TO.N,+3.3V*%
X115833578Y-89223578D02*
X115120735Y-88510735D01*
X115833578Y-89514952D02*
X115833578Y-89223578D01*
%TO.N,Net-(J1-Pin_2)*%
X119000000Y-97000000D02*
X118500000Y-97500000D01*
X119789000Y-97000000D02*
X119000000Y-97000000D01*
%TO.N,+3.3V*%
X134815000Y-99700000D02*
X135430000Y-100315000D01*
X132290000Y-99700000D02*
X134815000Y-99700000D01*
%TO.N,SCLK*%
X134750000Y-96500000D02*
X135430000Y-95820000D01*
X132590000Y-96500000D02*
X134750000Y-96500000D01*
X132290000Y-96800000D02*
X132590000Y-96500000D01*
X135430000Y-95820000D02*
X135430000Y-95235000D01*
%TO.N,D_RDY_OUT*%
X135325000Y-92800000D02*
X135430000Y-92695000D01*
X132290000Y-92800000D02*
X135325000Y-92800000D01*
%TO.N,Net-(J1-Pin_9)*%
X121100000Y-89900000D02*
X121100000Y-88700000D01*
%TO.N,Net-(J1-Pin_10)*%
X122100000Y-89700000D02*
X121900000Y-89900000D01*
X133900000Y-90700000D02*
X132290000Y-90700000D01*
X122100000Y-88700000D02*
X122100000Y-89700000D01*
%TO.N,Net-(J1-Pin_6)*%
X121855000Y-96745000D02*
X122300000Y-96300000D01*
X121855000Y-99558085D02*
X121855000Y-96745000D01*
%TO.N,!EN_DMS*%
X120299997Y-89900000D02*
X120299997Y-88700003D01*
X120299997Y-88700003D02*
X120300000Y-88700000D01*
%TO.N,SDA*%
X125200000Y-75500000D02*
X126400000Y-75500000D01*
%TO.N,!PWDN*%
X115600735Y-88105735D02*
X115600735Y-88150735D01*
X115600735Y-88150735D02*
X116399265Y-88949265D01*
X114822500Y-87327500D02*
X115600735Y-88105735D01*
%TO.N,!EN_DMS*%
X133554321Y-85075000D02*
X135430000Y-85075000D01*
X132025735Y-85374265D02*
X133255056Y-85374265D01*
X133255056Y-85374265D02*
X133554321Y-85075000D01*
%TD*%
%TA.AperFunction,Conductor*%
%TO.N,GND*%
G36*
X136912130Y-104680676D02*
G01*
X136970363Y-104719286D01*
X136998477Y-104783249D01*
X136999500Y-104799142D01*
X136999500Y-111940242D01*
X136997973Y-111959639D01*
X136997973Y-111959641D01*
X136987913Y-112023154D01*
X136975925Y-112060049D01*
X136951217Y-112108542D01*
X136928413Y-112139929D01*
X136889929Y-112178413D01*
X136858542Y-112201217D01*
X136810049Y-112225925D01*
X136773154Y-112237913D01*
X136735734Y-112243840D01*
X136709639Y-112247973D01*
X136690243Y-112249500D01*
X111309757Y-112249500D01*
X111290360Y-112247973D01*
X111249549Y-112241509D01*
X111226845Y-112237913D01*
X111189950Y-112225925D01*
X111141457Y-112201217D01*
X111110070Y-112178413D01*
X111071586Y-112139929D01*
X111048782Y-112108542D01*
X111024073Y-112060046D01*
X111012086Y-112023152D01*
X111002027Y-111959639D01*
X111000500Y-111940242D01*
X111000500Y-109893713D01*
X111634500Y-109893713D01*
X111634500Y-110106287D01*
X111667754Y-110316243D01*
X111727460Y-110499999D01*
X111733444Y-110518414D01*
X111829951Y-110707820D01*
X111954890Y-110879786D01*
X112105213Y-111030109D01*
X112277179Y-111155048D01*
X112277181Y-111155049D01*
X112277184Y-111155051D01*
X112466588Y-111251557D01*
X112668757Y-111317246D01*
X112878713Y-111350500D01*
X112878714Y-111350500D01*
X113091286Y-111350500D01*
X113091287Y-111350500D01*
X113301243Y-111317246D01*
X113503412Y-111251557D01*
X113692816Y-111155051D01*
X113837899Y-111049643D01*
X113864784Y-111030110D01*
X113864784Y-111030109D01*
X113864792Y-111030104D01*
X113978329Y-110916566D01*
X114039648Y-110883084D01*
X114109340Y-110888068D01*
X114165274Y-110929939D01*
X114182189Y-110960917D01*
X114231202Y-111092328D01*
X114231206Y-111092335D01*
X114317452Y-111207544D01*
X114317455Y-111207547D01*
X114432664Y-111293793D01*
X114432671Y-111293797D01*
X114567517Y-111344091D01*
X114567516Y-111344091D01*
X114574444Y-111344835D01*
X114627127Y-111350500D01*
X116422872Y-111350499D01*
X116482483Y-111344091D01*
X116617331Y-111293796D01*
X116732546Y-111207546D01*
X116818796Y-111092331D01*
X116869091Y-110957483D01*
X116875500Y-110897873D01*
X116875499Y-109352135D01*
X120874500Y-109352135D01*
X120874500Y-111147870D01*
X120874501Y-111147876D01*
X120880908Y-111207483D01*
X120931202Y-111342328D01*
X120931206Y-111342335D01*
X121017452Y-111457544D01*
X121017455Y-111457547D01*
X121132664Y-111543793D01*
X121132671Y-111543797D01*
X121267517Y-111594091D01*
X121267516Y-111594091D01*
X121274444Y-111594835D01*
X121327127Y-111600500D01*
X123122872Y-111600499D01*
X123182483Y-111594091D01*
X123317331Y-111543796D01*
X123432546Y-111457546D01*
X123518796Y-111342331D01*
X123569091Y-111207483D01*
X123575500Y-111147873D01*
X123575499Y-111123979D01*
X123578330Y-111110963D01*
X123588940Y-111091525D01*
X123595179Y-111070275D01*
X123611803Y-111049643D01*
X123611808Y-111049636D01*
X123611811Y-111049634D01*
X123611818Y-111049626D01*
X124282037Y-110379408D01*
X124299075Y-110442993D01*
X124364901Y-110557007D01*
X124457993Y-110650099D01*
X124572007Y-110715925D01*
X124635590Y-110732962D01*
X124003282Y-111365269D01*
X124003282Y-111365270D01*
X124057449Y-111404624D01*
X124246782Y-111501095D01*
X124448870Y-111566757D01*
X124658754Y-111600000D01*
X124871246Y-111600000D01*
X125081127Y-111566757D01*
X125081130Y-111566757D01*
X125283217Y-111501095D01*
X125472554Y-111404622D01*
X125526716Y-111365270D01*
X125526717Y-111365270D01*
X124894408Y-110732962D01*
X124957993Y-110715925D01*
X125072007Y-110650099D01*
X125165099Y-110557007D01*
X125230925Y-110442993D01*
X125247962Y-110379408D01*
X125880270Y-111011717D01*
X125880270Y-111011716D01*
X125919622Y-110957554D01*
X126016095Y-110768217D01*
X126081757Y-110566130D01*
X126081757Y-110566127D01*
X126115000Y-110356246D01*
X126115000Y-110143753D01*
X126081757Y-109933872D01*
X126081757Y-109933869D01*
X126016095Y-109731782D01*
X125977024Y-109655101D01*
X125950036Y-109602135D01*
X130624500Y-109602135D01*
X130624500Y-111397870D01*
X130624501Y-111397876D01*
X130630908Y-111457483D01*
X130681202Y-111592328D01*
X130681206Y-111592335D01*
X130767452Y-111707544D01*
X130767455Y-111707547D01*
X130882664Y-111793793D01*
X130882671Y-111793797D01*
X131017517Y-111844091D01*
X131017516Y-111844091D01*
X131024444Y-111844835D01*
X131077127Y-111850500D01*
X132872872Y-111850499D01*
X132932483Y-111844091D01*
X133067331Y-111793796D01*
X133182546Y-111707546D01*
X133268796Y-111592331D01*
X133319091Y-111457483D01*
X133325500Y-111397873D01*
X133325499Y-111373979D01*
X133328330Y-111360963D01*
X133338940Y-111341525D01*
X133345179Y-111320275D01*
X133361803Y-111299643D01*
X133361808Y-111299636D01*
X133361811Y-111299634D01*
X133361818Y-111299626D01*
X134032037Y-110629408D01*
X134049075Y-110692993D01*
X134114901Y-110807007D01*
X134207993Y-110900099D01*
X134322007Y-110965925D01*
X134385590Y-110982962D01*
X133753282Y-111615269D01*
X133753282Y-111615270D01*
X133807449Y-111654624D01*
X133996782Y-111751095D01*
X134198870Y-111816757D01*
X134408754Y-111850000D01*
X134621246Y-111850000D01*
X134831127Y-111816757D01*
X134831130Y-111816757D01*
X135033217Y-111751095D01*
X135222554Y-111654622D01*
X135276716Y-111615270D01*
X135276717Y-111615270D01*
X134644408Y-110982962D01*
X134707993Y-110965925D01*
X134822007Y-110900099D01*
X134915099Y-110807007D01*
X134980925Y-110692993D01*
X134997962Y-110629408D01*
X135630270Y-111261717D01*
X135630270Y-111261716D01*
X135669622Y-111207554D01*
X135766095Y-111018217D01*
X135831757Y-110816130D01*
X135831757Y-110816127D01*
X135865000Y-110606246D01*
X135865000Y-110393753D01*
X135831757Y-110183872D01*
X135831757Y-110183869D01*
X135766095Y-109981782D01*
X135669624Y-109792449D01*
X135630270Y-109738282D01*
X135630269Y-109738282D01*
X134997962Y-110370590D01*
X134980925Y-110307007D01*
X134915099Y-110192993D01*
X134822007Y-110099901D01*
X134707993Y-110034075D01*
X134644409Y-110017037D01*
X135276716Y-109384728D01*
X135222550Y-109345375D01*
X135033217Y-109248904D01*
X134831129Y-109183242D01*
X134621246Y-109150000D01*
X134408754Y-109150000D01*
X134198872Y-109183242D01*
X134198869Y-109183242D01*
X133996782Y-109248904D01*
X133807439Y-109345380D01*
X133753282Y-109384727D01*
X133753282Y-109384728D01*
X134385591Y-110017037D01*
X134322007Y-110034075D01*
X134207993Y-110099901D01*
X134114901Y-110192993D01*
X134049075Y-110307007D01*
X134032037Y-110370591D01*
X133361818Y-109700372D01*
X133328333Y-109639049D01*
X133328330Y-109639036D01*
X133325499Y-109626015D01*
X133325499Y-109602128D01*
X133319091Y-109542517D01*
X133284723Y-109450372D01*
X133268798Y-109407673D01*
X133268793Y-109407664D01*
X133182547Y-109292455D01*
X133182544Y-109292452D01*
X133067335Y-109206206D01*
X133067328Y-109206202D01*
X132932482Y-109155908D01*
X132932483Y-109155908D01*
X132872883Y-109149501D01*
X132872881Y-109149500D01*
X132872873Y-109149500D01*
X132872864Y-109149500D01*
X131077129Y-109149500D01*
X131077123Y-109149501D01*
X131017516Y-109155908D01*
X130882671Y-109206202D01*
X130882664Y-109206206D01*
X130767455Y-109292452D01*
X130767452Y-109292455D01*
X130681206Y-109407664D01*
X130681202Y-109407671D01*
X130630908Y-109542517D01*
X130624501Y-109602116D01*
X130624500Y-109602135D01*
X125950036Y-109602135D01*
X125919624Y-109542449D01*
X125880270Y-109488282D01*
X125880269Y-109488282D01*
X125247962Y-110120590D01*
X125230925Y-110057007D01*
X125165099Y-109942993D01*
X125072007Y-109849901D01*
X124957993Y-109784075D01*
X124894409Y-109767037D01*
X125526716Y-109134728D01*
X125472550Y-109095375D01*
X125283217Y-108998904D01*
X125081129Y-108933242D01*
X124871246Y-108900000D01*
X124658754Y-108900000D01*
X124448872Y-108933242D01*
X124448869Y-108933242D01*
X124246782Y-108998904D01*
X124057439Y-109095380D01*
X124003282Y-109134727D01*
X124003282Y-109134728D01*
X124635591Y-109767037D01*
X124572007Y-109784075D01*
X124457993Y-109849901D01*
X124364901Y-109942993D01*
X124299075Y-110057007D01*
X124282037Y-110120591D01*
X123611818Y-109450372D01*
X123578333Y-109389049D01*
X123578330Y-109389036D01*
X123575499Y-109376015D01*
X123575499Y-109352128D01*
X123569091Y-109292517D01*
X123536899Y-109206206D01*
X123518798Y-109157673D01*
X123518793Y-109157664D01*
X123432547Y-109042455D01*
X123432544Y-109042452D01*
X123317335Y-108956206D01*
X123317328Y-108956202D01*
X123182482Y-108905908D01*
X123182483Y-108905908D01*
X123122883Y-108899501D01*
X123122881Y-108899500D01*
X123122873Y-108899500D01*
X123122864Y-108899500D01*
X121327129Y-108899500D01*
X121327123Y-108899501D01*
X121267516Y-108905908D01*
X121132671Y-108956202D01*
X121132664Y-108956206D01*
X121017455Y-109042452D01*
X121017452Y-109042455D01*
X120931206Y-109157664D01*
X120931202Y-109157671D01*
X120880908Y-109292517D01*
X120874501Y-109352116D01*
X120874500Y-109352135D01*
X116875499Y-109352135D01*
X116875499Y-109102128D01*
X116869091Y-109042517D01*
X116867810Y-109039083D01*
X116818797Y-108907671D01*
X116818793Y-108907664D01*
X116732547Y-108792455D01*
X116732544Y-108792452D01*
X116617335Y-108706206D01*
X116617328Y-108706202D01*
X116482482Y-108655908D01*
X116482483Y-108655908D01*
X116422883Y-108649501D01*
X116422881Y-108649500D01*
X116422873Y-108649500D01*
X116422864Y-108649500D01*
X114627129Y-108649500D01*
X114627123Y-108649501D01*
X114567516Y-108655908D01*
X114432671Y-108706202D01*
X114432664Y-108706206D01*
X114317455Y-108792452D01*
X114317452Y-108792455D01*
X114231206Y-108907664D01*
X114231203Y-108907669D01*
X114182189Y-109039083D01*
X114140317Y-109095016D01*
X114074853Y-109119433D01*
X114006580Y-109104581D01*
X113978326Y-109083430D01*
X113864786Y-108969890D01*
X113692820Y-108844951D01*
X113503414Y-108748444D01*
X113503413Y-108748443D01*
X113503412Y-108748443D01*
X113301243Y-108682754D01*
X113301241Y-108682753D01*
X113301240Y-108682753D01*
X113139957Y-108657208D01*
X113091287Y-108649500D01*
X112878713Y-108649500D01*
X112830042Y-108657208D01*
X112668760Y-108682753D01*
X112466585Y-108748444D01*
X112277179Y-108844951D01*
X112105213Y-108969890D01*
X111954890Y-109120213D01*
X111829951Y-109292179D01*
X111733444Y-109481585D01*
X111667753Y-109683760D01*
X111659118Y-109738282D01*
X111634500Y-109893713D01*
X111000500Y-109893713D01*
X111000500Y-105538996D01*
X111020185Y-105471957D01*
X111072989Y-105426202D01*
X111142147Y-105416258D01*
X111205703Y-105445283D01*
X111240682Y-105495663D01*
X111276645Y-105592086D01*
X111276649Y-105592093D01*
X111362809Y-105707187D01*
X111362812Y-105707190D01*
X111477906Y-105793350D01*
X111477913Y-105793354D01*
X111612620Y-105843596D01*
X111612627Y-105843598D01*
X111672155Y-105849999D01*
X111672172Y-105850000D01*
X112320000Y-105850000D01*
X112320000Y-104933012D01*
X112377007Y-104965925D01*
X112504174Y-105000000D01*
X112635826Y-105000000D01*
X112762993Y-104965925D01*
X112820000Y-104933012D01*
X112820000Y-105850000D01*
X113467828Y-105850000D01*
X113467844Y-105849999D01*
X113527372Y-105843598D01*
X113527379Y-105843596D01*
X113662086Y-105793354D01*
X113662093Y-105793350D01*
X113777187Y-105707190D01*
X113777190Y-105707187D01*
X113863350Y-105592093D01*
X113863354Y-105592086D01*
X113912422Y-105460529D01*
X113954293Y-105404595D01*
X114019757Y-105380178D01*
X114088030Y-105395030D01*
X114116285Y-105416181D01*
X114230213Y-105530109D01*
X114402179Y-105655048D01*
X114402181Y-105655049D01*
X114402184Y-105655051D01*
X114591588Y-105751557D01*
X114793757Y-105817246D01*
X115003713Y-105850500D01*
X115003714Y-105850500D01*
X115216286Y-105850500D01*
X115216287Y-105850500D01*
X115426243Y-105817246D01*
X115628412Y-105751557D01*
X115817816Y-105655051D01*
X115904471Y-105592093D01*
X115989786Y-105530109D01*
X115989788Y-105530106D01*
X115989792Y-105530104D01*
X116140104Y-105379792D01*
X116140106Y-105379788D01*
X116140109Y-105379786D01*
X116265048Y-105207820D01*
X116265047Y-105207820D01*
X116265051Y-105207816D01*
X116269514Y-105199054D01*
X116317488Y-105148259D01*
X116385308Y-105131463D01*
X116451444Y-105153999D01*
X116490486Y-105199056D01*
X116494951Y-105207820D01*
X116619890Y-105379786D01*
X116770213Y-105530109D01*
X116942179Y-105655048D01*
X116942181Y-105655049D01*
X116942184Y-105655051D01*
X117131588Y-105751557D01*
X117333757Y-105817246D01*
X117543713Y-105850500D01*
X117543714Y-105850500D01*
X117756286Y-105850500D01*
X117756287Y-105850500D01*
X117966243Y-105817246D01*
X118168412Y-105751557D01*
X118357816Y-105655051D01*
X118444471Y-105592093D01*
X118529786Y-105530109D01*
X118529788Y-105530106D01*
X118529792Y-105530104D01*
X118680104Y-105379792D01*
X118680106Y-105379788D01*
X118680109Y-105379786D01*
X118805048Y-105207820D01*
X118805047Y-105207820D01*
X118805051Y-105207816D01*
X118809514Y-105199054D01*
X118857488Y-105148259D01*
X118925308Y-105131463D01*
X118991444Y-105153999D01*
X119030486Y-105199056D01*
X119034951Y-105207820D01*
X119159890Y-105379786D01*
X119310213Y-105530109D01*
X119482179Y-105655048D01*
X119482181Y-105655049D01*
X119482184Y-105655051D01*
X119671588Y-105751557D01*
X119873757Y-105817246D01*
X120083713Y-105850500D01*
X120083714Y-105850500D01*
X120296286Y-105850500D01*
X120296287Y-105850500D01*
X120506243Y-105817246D01*
X120708412Y-105751557D01*
X120897816Y-105655051D01*
X120984471Y-105592093D01*
X121069786Y-105530109D01*
X121069788Y-105530106D01*
X121069792Y-105530104D01*
X121220104Y-105379792D01*
X121220106Y-105379788D01*
X121220109Y-105379786D01*
X121345048Y-105207820D01*
X121345047Y-105207820D01*
X121345051Y-105207816D01*
X121349514Y-105199054D01*
X121397488Y-105148259D01*
X121465308Y-105131463D01*
X121531444Y-105153999D01*
X121570486Y-105199056D01*
X121574951Y-105207820D01*
X121699890Y-105379786D01*
X121850213Y-105530109D01*
X122022179Y-105655048D01*
X122022181Y-105655049D01*
X122022184Y-105655051D01*
X122211588Y-105751557D01*
X122413757Y-105817246D01*
X122623713Y-105850500D01*
X122623714Y-105850500D01*
X122836286Y-105850500D01*
X122836287Y-105850500D01*
X123046243Y-105817246D01*
X123248412Y-105751557D01*
X123437816Y-105655051D01*
X123524471Y-105592093D01*
X123609786Y-105530109D01*
X123609788Y-105530106D01*
X123609792Y-105530104D01*
X123760104Y-105379792D01*
X123760106Y-105379788D01*
X123760109Y-105379786D01*
X123885048Y-105207820D01*
X123885047Y-105207820D01*
X123885051Y-105207816D01*
X123889514Y-105199054D01*
X123937488Y-105148259D01*
X124005308Y-105131463D01*
X124071444Y-105153999D01*
X124110486Y-105199056D01*
X124114951Y-105207820D01*
X124239890Y-105379786D01*
X124390213Y-105530109D01*
X124562179Y-105655048D01*
X124562181Y-105655049D01*
X124562184Y-105655051D01*
X124751588Y-105751557D01*
X124953757Y-105817246D01*
X125163713Y-105850500D01*
X125163714Y-105850500D01*
X125376286Y-105850500D01*
X125376287Y-105850500D01*
X125586243Y-105817246D01*
X125788412Y-105751557D01*
X125977816Y-105655051D01*
X126064471Y-105592093D01*
X126149786Y-105530109D01*
X126149788Y-105530106D01*
X126149792Y-105530104D01*
X126300104Y-105379792D01*
X126300106Y-105379788D01*
X126300109Y-105379786D01*
X126425048Y-105207820D01*
X126425047Y-105207820D01*
X126425051Y-105207816D01*
X126429514Y-105199054D01*
X126477488Y-105148259D01*
X126545308Y-105131463D01*
X126611444Y-105153999D01*
X126650486Y-105199056D01*
X126654951Y-105207820D01*
X126779890Y-105379786D01*
X126930213Y-105530109D01*
X127102179Y-105655048D01*
X127102181Y-105655049D01*
X127102184Y-105655051D01*
X127291588Y-105751557D01*
X127493757Y-105817246D01*
X127703713Y-105850500D01*
X127703714Y-105850500D01*
X127916286Y-105850500D01*
X127916287Y-105850500D01*
X128126243Y-105817246D01*
X128328412Y-105751557D01*
X128517816Y-105655051D01*
X128604471Y-105592093D01*
X128689786Y-105530109D01*
X128689788Y-105530106D01*
X128689792Y-105530104D01*
X128840104Y-105379792D01*
X128840106Y-105379788D01*
X128840109Y-105379786D01*
X128965048Y-105207820D01*
X128965047Y-105207820D01*
X128965051Y-105207816D01*
X128969514Y-105199054D01*
X129017488Y-105148259D01*
X129085308Y-105131463D01*
X129151444Y-105153999D01*
X129190486Y-105199056D01*
X129194951Y-105207820D01*
X129319890Y-105379786D01*
X129470213Y-105530109D01*
X129642179Y-105655048D01*
X129642181Y-105655049D01*
X129642184Y-105655051D01*
X129831588Y-105751557D01*
X130033757Y-105817246D01*
X130243713Y-105850500D01*
X130243714Y-105850500D01*
X130456286Y-105850500D01*
X130456287Y-105850500D01*
X130666243Y-105817246D01*
X130868412Y-105751557D01*
X131057816Y-105655051D01*
X131144471Y-105592093D01*
X131229786Y-105530109D01*
X131229788Y-105530106D01*
X131229792Y-105530104D01*
X131380104Y-105379792D01*
X131380106Y-105379788D01*
X131380109Y-105379786D01*
X131505048Y-105207820D01*
X131505047Y-105207820D01*
X131505051Y-105207816D01*
X131509514Y-105199054D01*
X131557488Y-105148259D01*
X131625308Y-105131463D01*
X131691444Y-105153999D01*
X131730486Y-105199056D01*
X131734951Y-105207820D01*
X131859890Y-105379786D01*
X132010213Y-105530109D01*
X132182179Y-105655048D01*
X132182181Y-105655049D01*
X132182184Y-105655051D01*
X132371588Y-105751557D01*
X132573757Y-105817246D01*
X132783713Y-105850500D01*
X132783714Y-105850500D01*
X132996286Y-105850500D01*
X132996287Y-105850500D01*
X133206243Y-105817246D01*
X133408412Y-105751557D01*
X133597816Y-105655051D01*
X133684471Y-105592093D01*
X133769786Y-105530109D01*
X133769788Y-105530106D01*
X133769792Y-105530104D01*
X133920104Y-105379792D01*
X133920106Y-105379788D01*
X133920109Y-105379786D01*
X134045048Y-105207820D01*
X134045047Y-105207820D01*
X134045051Y-105207816D01*
X134049514Y-105199054D01*
X134097488Y-105148259D01*
X134165308Y-105131463D01*
X134231444Y-105153999D01*
X134270486Y-105199056D01*
X134274951Y-105207820D01*
X134399890Y-105379786D01*
X134550213Y-105530109D01*
X134722179Y-105655048D01*
X134722181Y-105655049D01*
X134722184Y-105655051D01*
X134911588Y-105751557D01*
X135113757Y-105817246D01*
X135323713Y-105850500D01*
X135323714Y-105850500D01*
X135536286Y-105850500D01*
X135536287Y-105850500D01*
X135746243Y-105817246D01*
X135948412Y-105751557D01*
X136137816Y-105655051D01*
X136224471Y-105592093D01*
X136309786Y-105530109D01*
X136309788Y-105530106D01*
X136309792Y-105530104D01*
X136460104Y-105379792D01*
X136460106Y-105379788D01*
X136460109Y-105379786D01*
X136585048Y-105207820D01*
X136585047Y-105207820D01*
X136585051Y-105207816D01*
X136681557Y-105018412D01*
X136747246Y-104816243D01*
X136753027Y-104779744D01*
X136782956Y-104716609D01*
X136842268Y-104679678D01*
X136912130Y-104680676D01*
G37*
%TD.AperFunction*%
%TA.AperFunction,Conductor*%
G36*
X136709640Y-63002027D02*
G01*
X136725080Y-63004472D01*
X136773154Y-63012086D01*
X136810046Y-63024073D01*
X136858544Y-63048783D01*
X136860450Y-63050168D01*
X136861675Y-63050435D01*
X136889929Y-63071586D01*
X136928413Y-63110070D01*
X136951217Y-63141457D01*
X136975925Y-63189950D01*
X136987913Y-63226845D01*
X136997973Y-63290358D01*
X136999500Y-63309757D01*
X136999500Y-104200857D01*
X136979815Y-104267896D01*
X136927011Y-104313651D01*
X136857853Y-104323595D01*
X136794297Y-104294570D01*
X136756523Y-104235792D01*
X136753027Y-104220255D01*
X136747246Y-104183760D01*
X136747246Y-104183757D01*
X136681557Y-103981588D01*
X136585051Y-103792184D01*
X136585049Y-103792181D01*
X136585048Y-103792179D01*
X136460109Y-103620213D01*
X136309786Y-103469890D01*
X136137820Y-103344951D01*
X135948414Y-103248444D01*
X135948413Y-103248443D01*
X135948412Y-103248443D01*
X135746243Y-103182754D01*
X135746241Y-103182753D01*
X135746240Y-103182753D01*
X135584957Y-103157208D01*
X135536287Y-103149500D01*
X135323713Y-103149500D01*
X135275042Y-103157208D01*
X135113760Y-103182753D01*
X134911585Y-103248444D01*
X134722179Y-103344951D01*
X134550213Y-103469890D01*
X134399890Y-103620213D01*
X134274949Y-103792182D01*
X134270484Y-103800946D01*
X134222509Y-103851742D01*
X134154688Y-103868536D01*
X134088553Y-103845998D01*
X134049516Y-103800946D01*
X134045050Y-103792182D01*
X133920109Y-103620213D01*
X133769786Y-103469890D01*
X133597820Y-103344951D01*
X133408414Y-103248444D01*
X133408413Y-103248443D01*
X133408412Y-103248443D01*
X133206243Y-103182754D01*
X133206241Y-103182753D01*
X133206240Y-103182753D01*
X133044957Y-103157208D01*
X132996287Y-103149500D01*
X132783713Y-103149500D01*
X132735042Y-103157208D01*
X132573760Y-103182753D01*
X132371585Y-103248444D01*
X132182179Y-103344951D01*
X132010213Y-103469890D01*
X131859890Y-103620213D01*
X131734949Y-103792182D01*
X131730484Y-103800946D01*
X131682509Y-103851742D01*
X131614688Y-103868536D01*
X131548553Y-103845998D01*
X131509516Y-103800946D01*
X131505050Y-103792182D01*
X131380109Y-103620213D01*
X131229786Y-103469890D01*
X131057820Y-103344951D01*
X130868414Y-103248444D01*
X130868413Y-103248443D01*
X130868412Y-103248443D01*
X130666243Y-103182754D01*
X130666241Y-103182753D01*
X130666240Y-103182753D01*
X130504957Y-103157208D01*
X130456287Y-103149500D01*
X130243713Y-103149500D01*
X130195042Y-103157208D01*
X130033760Y-103182753D01*
X129831585Y-103248444D01*
X129642179Y-103344951D01*
X129470213Y-103469890D01*
X129319890Y-103620213D01*
X129194949Y-103792182D01*
X129190484Y-103800946D01*
X129142509Y-103851742D01*
X129074688Y-103868536D01*
X129008553Y-103845998D01*
X128969516Y-103800946D01*
X128965050Y-103792182D01*
X128840109Y-103620213D01*
X128689786Y-103469890D01*
X128517820Y-103344951D01*
X128328414Y-103248444D01*
X128328413Y-103248443D01*
X128328412Y-103248443D01*
X128126243Y-103182754D01*
X128126241Y-103182753D01*
X128126240Y-103182753D01*
X127964957Y-103157208D01*
X127916287Y-103149500D01*
X127703713Y-103149500D01*
X127655042Y-103157208D01*
X127493760Y-103182753D01*
X127291585Y-103248444D01*
X127102179Y-103344951D01*
X126930213Y-103469890D01*
X126779890Y-103620213D01*
X126654949Y-103792182D01*
X126650484Y-103800946D01*
X126602509Y-103851742D01*
X126534688Y-103868536D01*
X126468553Y-103845998D01*
X126429516Y-103800946D01*
X126425050Y-103792182D01*
X126300109Y-103620213D01*
X126149786Y-103469890D01*
X125977820Y-103344951D01*
X125788414Y-103248444D01*
X125788413Y-103248443D01*
X125788412Y-103248443D01*
X125586243Y-103182754D01*
X125586241Y-103182753D01*
X125586240Y-103182753D01*
X125424957Y-103157208D01*
X125376287Y-103149500D01*
X125163713Y-103149500D01*
X125115042Y-103157208D01*
X124953760Y-103182753D01*
X124751585Y-103248444D01*
X124562179Y-103344951D01*
X124390213Y-103469890D01*
X124239890Y-103620213D01*
X124114949Y-103792182D01*
X124110484Y-103800946D01*
X124062509Y-103851742D01*
X123994688Y-103868536D01*
X123928553Y-103845998D01*
X123889516Y-103800946D01*
X123885050Y-103792182D01*
X123760109Y-103620213D01*
X123609786Y-103469890D01*
X123437820Y-103344951D01*
X123248414Y-103248444D01*
X123248413Y-103248443D01*
X123248412Y-103248443D01*
X123046243Y-103182754D01*
X123046241Y-103182753D01*
X123046240Y-103182753D01*
X122884957Y-103157208D01*
X122836287Y-103149500D01*
X122623713Y-103149500D01*
X122575042Y-103157208D01*
X122413760Y-103182753D01*
X122211585Y-103248444D01*
X122022179Y-103344951D01*
X121850213Y-103469890D01*
X121699890Y-103620213D01*
X121574949Y-103792182D01*
X121570484Y-103800946D01*
X121522509Y-103851742D01*
X121454688Y-103868536D01*
X121388553Y-103845998D01*
X121349516Y-103800946D01*
X121345050Y-103792182D01*
X121220109Y-103620213D01*
X121069786Y-103469890D01*
X120897820Y-103344951D01*
X120708414Y-103248444D01*
X120708413Y-103248443D01*
X120708412Y-103248443D01*
X120506243Y-103182754D01*
X120506241Y-103182753D01*
X120506240Y-103182753D01*
X120344957Y-103157208D01*
X120296287Y-103149500D01*
X120083713Y-103149500D01*
X120035042Y-103157208D01*
X119873760Y-103182753D01*
X119671585Y-103248444D01*
X119482179Y-103344951D01*
X119310213Y-103469890D01*
X119159890Y-103620213D01*
X119034949Y-103792182D01*
X119030484Y-103800946D01*
X118982509Y-103851742D01*
X118914688Y-103868536D01*
X118848553Y-103845998D01*
X118809516Y-103800946D01*
X118805050Y-103792182D01*
X118680109Y-103620213D01*
X118529786Y-103469890D01*
X118357820Y-103344951D01*
X118168414Y-103248444D01*
X118168413Y-103248443D01*
X118168412Y-103248443D01*
X117966243Y-103182754D01*
X117966241Y-103182753D01*
X117966240Y-103182753D01*
X117804957Y-103157208D01*
X117756287Y-103149500D01*
X117543713Y-103149500D01*
X117495042Y-103157208D01*
X117333760Y-103182753D01*
X117131585Y-103248444D01*
X116942179Y-103344951D01*
X116770213Y-103469890D01*
X116619890Y-103620213D01*
X116494949Y-103792182D01*
X116490484Y-103800946D01*
X116442509Y-103851742D01*
X116374688Y-103868536D01*
X116308553Y-103845998D01*
X116269516Y-103800946D01*
X116265050Y-103792182D01*
X116140109Y-103620213D01*
X115989786Y-103469890D01*
X115817820Y-103344951D01*
X115628414Y-103248444D01*
X115628413Y-103248443D01*
X115628412Y-103248443D01*
X115426243Y-103182754D01*
X115426241Y-103182753D01*
X115426240Y-103182753D01*
X115264957Y-103157208D01*
X115216287Y-103149500D01*
X115003713Y-103149500D01*
X114955042Y-103157208D01*
X114793760Y-103182753D01*
X114591585Y-103248444D01*
X114402179Y-103344951D01*
X114230215Y-103469889D01*
X114116285Y-103583819D01*
X114054962Y-103617303D01*
X113985270Y-103612319D01*
X113929337Y-103570447D01*
X113912422Y-103539470D01*
X113863354Y-103407913D01*
X113863350Y-103407906D01*
X113777190Y-103292812D01*
X113777187Y-103292809D01*
X113662093Y-103206649D01*
X113662086Y-103206645D01*
X113527379Y-103156403D01*
X113527372Y-103156401D01*
X113467844Y-103150000D01*
X112820000Y-103150000D01*
X112820000Y-104066988D01*
X112762993Y-104034075D01*
X112635826Y-104000000D01*
X112504174Y-104000000D01*
X112377007Y-104034075D01*
X112320000Y-104066988D01*
X112320000Y-103150000D01*
X111672155Y-103150000D01*
X111612627Y-103156401D01*
X111612620Y-103156403D01*
X111477913Y-103206645D01*
X111477906Y-103206649D01*
X111362812Y-103292809D01*
X111362809Y-103292812D01*
X111276649Y-103407906D01*
X111276645Y-103407913D01*
X111240682Y-103504336D01*
X111198811Y-103560270D01*
X111133346Y-103584687D01*
X111065073Y-103569835D01*
X111015668Y-103520430D01*
X111000500Y-103461003D01*
X111000500Y-63957135D01*
X111319500Y-63957135D01*
X111319500Y-65552870D01*
X111319501Y-65552876D01*
X111325908Y-65612483D01*
X111376202Y-65747328D01*
X111376206Y-65747335D01*
X111462452Y-65862544D01*
X111462455Y-65862547D01*
X111577664Y-65948793D01*
X111577671Y-65948797D01*
X111712517Y-65999091D01*
X111712516Y-65999091D01*
X111719444Y-65999835D01*
X111772127Y-66005500D01*
X111835733Y-66005499D01*
X111902770Y-66025183D01*
X111948526Y-66077986D01*
X111958470Y-66147144D01*
X111929446Y-66210700D01*
X111908619Y-66229816D01*
X111755354Y-66341171D01*
X111616174Y-66480351D01*
X111616174Y-66480352D01*
X111616172Y-66480354D01*
X111566485Y-66548741D01*
X111500476Y-66639594D01*
X111411117Y-66814970D01*
X111350290Y-67002173D01*
X111319500Y-67196577D01*
X111319500Y-67393422D01*
X111350290Y-67587826D01*
X111411117Y-67775029D01*
X111500476Y-67950405D01*
X111616172Y-68109646D01*
X111755354Y-68248828D01*
X111914595Y-68364524D01*
X112037992Y-68427397D01*
X112091213Y-68454515D01*
X112142009Y-68502489D01*
X112158804Y-68570310D01*
X112136267Y-68636445D01*
X112091213Y-68675485D01*
X111914594Y-68765476D01*
X111823741Y-68831485D01*
X111755354Y-68881172D01*
X111755352Y-68881174D01*
X111755351Y-68881174D01*
X111616174Y-69020351D01*
X111616174Y-69020352D01*
X111616172Y-69020354D01*
X111566485Y-69088741D01*
X111500476Y-69179594D01*
X111411117Y-69354970D01*
X111350290Y-69542173D01*
X111319500Y-69736577D01*
X111319500Y-69933422D01*
X111350290Y-70127826D01*
X111411117Y-70315029D01*
X111500476Y-70490405D01*
X111616172Y-70649646D01*
X111755354Y-70788828D01*
X111914595Y-70904524D01*
X112037992Y-70967397D01*
X112091213Y-70994515D01*
X112142009Y-71042489D01*
X112158804Y-71110310D01*
X112136267Y-71176445D01*
X112091213Y-71215485D01*
X111914594Y-71305476D01*
X111823741Y-71371485D01*
X111755354Y-71421172D01*
X111755352Y-71421174D01*
X111755351Y-71421174D01*
X111616174Y-71560351D01*
X111616174Y-71560352D01*
X111616172Y-71560354D01*
X111566485Y-71628741D01*
X111500476Y-71719594D01*
X111411117Y-71894970D01*
X111350290Y-72082173D01*
X111319500Y-72276577D01*
X111319500Y-72473422D01*
X111350290Y-72667826D01*
X111411117Y-72855029D01*
X111500476Y-73030405D01*
X111616172Y-73189646D01*
X111755354Y-73328828D01*
X111914595Y-73444524D01*
X112037992Y-73507397D01*
X112091213Y-73534515D01*
X112142009Y-73582489D01*
X112158804Y-73650310D01*
X112136267Y-73716445D01*
X112091213Y-73755485D01*
X111914594Y-73845476D01*
X111823741Y-73911485D01*
X111755354Y-73961172D01*
X111755352Y-73961174D01*
X111755351Y-73961174D01*
X111616174Y-74100351D01*
X111616174Y-74100352D01*
X111616172Y-74100354D01*
X111566485Y-74168741D01*
X111500476Y-74259594D01*
X111411117Y-74434970D01*
X111350290Y-74622173D01*
X111319500Y-74816577D01*
X111319500Y-75013422D01*
X111350290Y-75207826D01*
X111411117Y-75395029D01*
X111500476Y-75570405D01*
X111616172Y-75729646D01*
X111755354Y-75868828D01*
X111914595Y-75984524D01*
X111965168Y-76010292D01*
X112091213Y-76074515D01*
X112142009Y-76122489D01*
X112158804Y-76190310D01*
X112136267Y-76256445D01*
X112091213Y-76295485D01*
X111914594Y-76385476D01*
X111823741Y-76451485D01*
X111755354Y-76501172D01*
X111755352Y-76501174D01*
X111755351Y-76501174D01*
X111616174Y-76640351D01*
X111616174Y-76640352D01*
X111616172Y-76640354D01*
X111566485Y-76708741D01*
X111500476Y-76799594D01*
X111411117Y-76974970D01*
X111350290Y-77162173D01*
X111319500Y-77356577D01*
X111319500Y-77553422D01*
X111350290Y-77747826D01*
X111411117Y-77935029D01*
X111500476Y-78110405D01*
X111616172Y-78269646D01*
X111755354Y-78408828D01*
X111914595Y-78524524D01*
X112037992Y-78587397D01*
X112091213Y-78614515D01*
X112142009Y-78662489D01*
X112158804Y-78730310D01*
X112136267Y-78796445D01*
X112091213Y-78835485D01*
X111914594Y-78925476D01*
X111823741Y-78991485D01*
X111755354Y-79041172D01*
X111755352Y-79041174D01*
X111755351Y-79041174D01*
X111616174Y-79180351D01*
X111616174Y-79180352D01*
X111616172Y-79180354D01*
X111566485Y-79248741D01*
X111500476Y-79339594D01*
X111411117Y-79514970D01*
X111350290Y-79702173D01*
X111319500Y-79896577D01*
X111319500Y-80093422D01*
X111350290Y-80287826D01*
X111411117Y-80475029D01*
X111500476Y-80650405D01*
X111616172Y-80809646D01*
X111755354Y-80948828D01*
X111914595Y-81064524D01*
X112037992Y-81127397D01*
X112091213Y-81154515D01*
X112142009Y-81202489D01*
X112158804Y-81270310D01*
X112136267Y-81336445D01*
X112091213Y-81375485D01*
X111914594Y-81465476D01*
X111823741Y-81531485D01*
X111755354Y-81581172D01*
X111755352Y-81581174D01*
X111755351Y-81581174D01*
X111616174Y-81720351D01*
X111616174Y-81720352D01*
X111616172Y-81720354D01*
X111566485Y-81788741D01*
X111500476Y-81879594D01*
X111411117Y-82054970D01*
X111350290Y-82242173D01*
X111319500Y-82436577D01*
X111319500Y-82633422D01*
X111350290Y-82827826D01*
X111411117Y-83015029D01*
X111500476Y-83190405D01*
X111616172Y-83349646D01*
X111755354Y-83488828D01*
X111914595Y-83604524D01*
X112037992Y-83667397D01*
X112091213Y-83694515D01*
X112142009Y-83742489D01*
X112158804Y-83810310D01*
X112136267Y-83876445D01*
X112091213Y-83915485D01*
X111914594Y-84005476D01*
X111831611Y-84065768D01*
X111755354Y-84121172D01*
X111755352Y-84121174D01*
X111755351Y-84121174D01*
X111616174Y-84260351D01*
X111616174Y-84260352D01*
X111616172Y-84260354D01*
X111598042Y-84285308D01*
X111500476Y-84419594D01*
X111411117Y-84594970D01*
X111350290Y-84782173D01*
X111319500Y-84976577D01*
X111319500Y-85173422D01*
X111350290Y-85367826D01*
X111411117Y-85555029D01*
X111491004Y-85711816D01*
X111500476Y-85730405D01*
X111616172Y-85889646D01*
X111755354Y-86028828D01*
X111914595Y-86144524D01*
X111973945Y-86174764D01*
X112091213Y-86234515D01*
X112142009Y-86282489D01*
X112158804Y-86350310D01*
X112136267Y-86416445D01*
X112091213Y-86455485D01*
X111914594Y-86545476D01*
X111823741Y-86611485D01*
X111755354Y-86661172D01*
X111755352Y-86661174D01*
X111755351Y-86661174D01*
X111616174Y-86800351D01*
X111616174Y-86800352D01*
X111616172Y-86800354D01*
X111603928Y-86817207D01*
X111500476Y-86959594D01*
X111411117Y-87134970D01*
X111350290Y-87322173D01*
X111319500Y-87516577D01*
X111319500Y-87713422D01*
X111350290Y-87907826D01*
X111411117Y-88095029D01*
X111484916Y-88239867D01*
X111500476Y-88270405D01*
X111616172Y-88429646D01*
X111755354Y-88568828D01*
X111914595Y-88684524D01*
X111975929Y-88715775D01*
X112091213Y-88774515D01*
X112142009Y-88822489D01*
X112158804Y-88890310D01*
X112136267Y-88956445D01*
X112091213Y-88995485D01*
X111914594Y-89085476D01*
X111849843Y-89132521D01*
X111755354Y-89201172D01*
X111755352Y-89201174D01*
X111755351Y-89201174D01*
X111616174Y-89340351D01*
X111616174Y-89340352D01*
X111616172Y-89340354D01*
X111585035Y-89383210D01*
X111500476Y-89499594D01*
X111411117Y-89674970D01*
X111350290Y-89862173D01*
X111319500Y-90056577D01*
X111319500Y-90253422D01*
X111350290Y-90447826D01*
X111411117Y-90635029D01*
X111484394Y-90778842D01*
X111500476Y-90810405D01*
X111616172Y-90969646D01*
X111755354Y-91108828D01*
X111914595Y-91224524D01*
X112037992Y-91287397D01*
X112091213Y-91314515D01*
X112142009Y-91362489D01*
X112158804Y-91430310D01*
X112136267Y-91496445D01*
X112091213Y-91535485D01*
X111914594Y-91625476D01*
X111823741Y-91691485D01*
X111755354Y-91741172D01*
X111755352Y-91741174D01*
X111755351Y-91741174D01*
X111616174Y-91880351D01*
X111616174Y-91880352D01*
X111616172Y-91880354D01*
X111566485Y-91948741D01*
X111500476Y-92039594D01*
X111411117Y-92214970D01*
X111350290Y-92402173D01*
X111319500Y-92596577D01*
X111319500Y-92793422D01*
X111350290Y-92987826D01*
X111411117Y-93175029D01*
X111500476Y-93350405D01*
X111616172Y-93509646D01*
X111755354Y-93648828D01*
X111914595Y-93764524D01*
X112037992Y-93827397D01*
X112091213Y-93854515D01*
X112142009Y-93902489D01*
X112158804Y-93970310D01*
X112136267Y-94036445D01*
X112091213Y-94075485D01*
X111914594Y-94165476D01*
X111823741Y-94231485D01*
X111755354Y-94281172D01*
X111755352Y-94281174D01*
X111755351Y-94281174D01*
X111616174Y-94420351D01*
X111616174Y-94420352D01*
X111616172Y-94420354D01*
X111566485Y-94488741D01*
X111500476Y-94579594D01*
X111411117Y-94754970D01*
X111350290Y-94942173D01*
X111319500Y-95136577D01*
X111319500Y-95333422D01*
X111350290Y-95527826D01*
X111411117Y-95715029D01*
X111500476Y-95890405D01*
X111616172Y-96049646D01*
X111755354Y-96188828D01*
X111864989Y-96268483D01*
X111914596Y-96304525D01*
X112091763Y-96394795D01*
X112142560Y-96442769D01*
X112159355Y-96510590D01*
X112136818Y-96576725D01*
X112091764Y-96615765D01*
X111914859Y-96705902D01*
X111879873Y-96731320D01*
X111879872Y-96731320D01*
X112481415Y-97332861D01*
X112396306Y-97355667D01*
X112293694Y-97414910D01*
X112209910Y-97498694D01*
X112150667Y-97601306D01*
X112127861Y-97686414D01*
X111526320Y-97084872D01*
X111526320Y-97084873D01*
X111500902Y-97119859D01*
X111500899Y-97119863D01*
X111411582Y-97295161D01*
X111350778Y-97482294D01*
X111320000Y-97676617D01*
X111320000Y-97873382D01*
X111350778Y-98067705D01*
X111411581Y-98254835D01*
X111500905Y-98430145D01*
X111526319Y-98465125D01*
X111526320Y-98465125D01*
X112127861Y-97863584D01*
X112150667Y-97948694D01*
X112209910Y-98051306D01*
X112293694Y-98135090D01*
X112396306Y-98194333D01*
X112481414Y-98217137D01*
X111879873Y-98818677D01*
X111879873Y-98818678D01*
X111914858Y-98844096D01*
X112091764Y-98934234D01*
X112142560Y-98982209D01*
X112159355Y-99050030D01*
X112136818Y-99116164D01*
X112091764Y-99155204D01*
X111914594Y-99245476D01*
X111823741Y-99311485D01*
X111755354Y-99361172D01*
X111755352Y-99361174D01*
X111755351Y-99361174D01*
X111616174Y-99500351D01*
X111616174Y-99500352D01*
X111616172Y-99500354D01*
X111616170Y-99500357D01*
X111500476Y-99659594D01*
X111411117Y-99834970D01*
X111350290Y-100022173D01*
X111319500Y-100216577D01*
X111319500Y-100413422D01*
X111350290Y-100607826D01*
X111411117Y-100795029D01*
X111500476Y-100970405D01*
X111616172Y-101129646D01*
X111755354Y-101268828D01*
X111914595Y-101384524D01*
X111997455Y-101426743D01*
X112089970Y-101473882D01*
X112089972Y-101473882D01*
X112089975Y-101473884D01*
X112190317Y-101506487D01*
X112277173Y-101534709D01*
X112471578Y-101565500D01*
X112471583Y-101565500D01*
X112668422Y-101565500D01*
X112862826Y-101534709D01*
X113050025Y-101473884D01*
X113225405Y-101384524D01*
X113384646Y-101268828D01*
X113523828Y-101129646D01*
X113639524Y-100970405D01*
X113728884Y-100795025D01*
X113789709Y-100607826D01*
X113811580Y-100469737D01*
X113820500Y-100413422D01*
X113820500Y-100216577D01*
X113789709Y-100022173D01*
X113728882Y-99834970D01*
X113639523Y-99659594D01*
X113523828Y-99500354D01*
X113502712Y-99479238D01*
X121054500Y-99479238D01*
X121054500Y-99636931D01*
X121085261Y-99791574D01*
X121085264Y-99791586D01*
X121145602Y-99937257D01*
X121145609Y-99937270D01*
X121233210Y-100068373D01*
X121233213Y-100068377D01*
X121344707Y-100179871D01*
X121344711Y-100179874D01*
X121475814Y-100267475D01*
X121475827Y-100267482D01*
X121606938Y-100321789D01*
X121621503Y-100327822D01*
X121776153Y-100358584D01*
X121776156Y-100358585D01*
X121776158Y-100358585D01*
X121933844Y-100358585D01*
X121933845Y-100358584D01*
X122088497Y-100327822D01*
X122234179Y-100267479D01*
X122365289Y-100179874D01*
X122476789Y-100068374D01*
X122564394Y-99937264D01*
X122624737Y-99791582D01*
X122655500Y-99636927D01*
X122655500Y-99479243D01*
X122655500Y-99479240D01*
X122655499Y-99479238D01*
X122624738Y-99324595D01*
X122624737Y-99324588D01*
X122568868Y-99189707D01*
X122564397Y-99178912D01*
X122564390Y-99178899D01*
X122476398Y-99047210D01*
X122455520Y-98980532D01*
X122455500Y-98978319D01*
X122455500Y-97184898D01*
X122475185Y-97117859D01*
X122527989Y-97072104D01*
X122532048Y-97070337D01*
X122558026Y-97059577D01*
X122679179Y-97009394D01*
X122810289Y-96921789D01*
X122921789Y-96810289D01*
X123009394Y-96679179D01*
X123014877Y-96665943D01*
X123035661Y-96615765D01*
X123069737Y-96533497D01*
X123100500Y-96378842D01*
X123100500Y-96221158D01*
X123100500Y-96221155D01*
X123100499Y-96221153D01*
X123094069Y-96188828D01*
X123069737Y-96066503D01*
X123069735Y-96066498D01*
X123009397Y-95920827D01*
X123009390Y-95920814D01*
X122921789Y-95789711D01*
X122921786Y-95789707D01*
X122810292Y-95678213D01*
X122810288Y-95678210D01*
X122679185Y-95590609D01*
X122679172Y-95590602D01*
X122533501Y-95530264D01*
X122533489Y-95530261D01*
X122378845Y-95499500D01*
X122378842Y-95499500D01*
X122221158Y-95499500D01*
X122221155Y-95499500D01*
X122066510Y-95530261D01*
X122066498Y-95530264D01*
X121920827Y-95590602D01*
X121920814Y-95590609D01*
X121789711Y-95678210D01*
X121789707Y-95678213D01*
X121678213Y-95789707D01*
X121678210Y-95789711D01*
X121590609Y-95920814D01*
X121590602Y-95920827D01*
X121530264Y-96066498D01*
X121530261Y-96066508D01*
X121499362Y-96221848D01*
X121492830Y-96235439D01*
X121491267Y-96247542D01*
X121476949Y-96268483D01*
X121472614Y-96277505D01*
X121469185Y-96281578D01*
X121374480Y-96376284D01*
X121347200Y-96423535D01*
X121329202Y-96454709D01*
X121296939Y-96510590D01*
X121295423Y-96513215D01*
X121254499Y-96665943D01*
X121254499Y-96665945D01*
X121254499Y-96834046D01*
X121254500Y-96834059D01*
X121254500Y-98978319D01*
X121234815Y-99045358D01*
X121233602Y-99047210D01*
X121145609Y-99178899D01*
X121145602Y-99178912D01*
X121085264Y-99324583D01*
X121085261Y-99324595D01*
X121054500Y-99479238D01*
X113502712Y-99479238D01*
X113384646Y-99361172D01*
X113225405Y-99245476D01*
X113050025Y-99156116D01*
X113050024Y-99156115D01*
X113048235Y-99155204D01*
X112997439Y-99107230D01*
X112980644Y-99039409D01*
X113003181Y-98973274D01*
X113048236Y-98934234D01*
X113225141Y-98844097D01*
X113260125Y-98818678D01*
X113260126Y-98818678D01*
X112658585Y-98217137D01*
X112743694Y-98194333D01*
X112846306Y-98135090D01*
X112930090Y-98051306D01*
X112989333Y-97948694D01*
X113012137Y-97863585D01*
X113613678Y-98465126D01*
X113613678Y-98465125D01*
X113639095Y-98430143D01*
X113728418Y-98254835D01*
X113789221Y-98067705D01*
X113820000Y-97873382D01*
X113820000Y-97676617D01*
X113789221Y-97482296D01*
X113779828Y-97453385D01*
X113779827Y-97453383D01*
X113769355Y-97421153D01*
X117699500Y-97421153D01*
X117699500Y-97578846D01*
X117730261Y-97733489D01*
X117730264Y-97733501D01*
X117790602Y-97879172D01*
X117790609Y-97879185D01*
X117878210Y-98010288D01*
X117878213Y-98010292D01*
X117989707Y-98121786D01*
X117989711Y-98121789D01*
X118120814Y-98209390D01*
X118120827Y-98209397D01*
X118230526Y-98254835D01*
X118266503Y-98269737D01*
X118421153Y-98300499D01*
X118421156Y-98300500D01*
X118421158Y-98300500D01*
X118578844Y-98300500D01*
X118578845Y-98300499D01*
X118733497Y-98269737D01*
X118879179Y-98209394D01*
X119010289Y-98121789D01*
X119121789Y-98010289D01*
X119209394Y-97879179D01*
X119251321Y-97777955D01*
X119295160Y-97723555D01*
X119361453Y-97701489D01*
X119413333Y-97710849D01*
X119555498Y-97769735D01*
X119555503Y-97769737D01*
X119710153Y-97800499D01*
X119710156Y-97800500D01*
X119710158Y-97800500D01*
X119867844Y-97800500D01*
X119867845Y-97800499D01*
X120022497Y-97769737D01*
X120152820Y-97715756D01*
X120168172Y-97709397D01*
X120168172Y-97709396D01*
X120168179Y-97709394D01*
X120299289Y-97621789D01*
X120410789Y-97510289D01*
X120498394Y-97379179D01*
X120558737Y-97233497D01*
X120589500Y-97078842D01*
X120589500Y-96921158D01*
X120589500Y-96921155D01*
X120589499Y-96921153D01*
X120558737Y-96766503D01*
X120544164Y-96731320D01*
X120498397Y-96620827D01*
X120498390Y-96620814D01*
X120410789Y-96489711D01*
X120410786Y-96489707D01*
X120299292Y-96378213D01*
X120299288Y-96378210D01*
X120168185Y-96290609D01*
X120168172Y-96290602D01*
X120022501Y-96230264D01*
X120022489Y-96230261D01*
X119867845Y-96199500D01*
X119867842Y-96199500D01*
X119710158Y-96199500D01*
X119710155Y-96199500D01*
X119555510Y-96230261D01*
X119555498Y-96230264D01*
X119409827Y-96290602D01*
X119409814Y-96290609D01*
X119278125Y-96378602D01*
X119260078Y-96384252D01*
X119244169Y-96394477D01*
X119213207Y-96398928D01*
X119211447Y-96399480D01*
X119209234Y-96399500D01*
X119086670Y-96399500D01*
X119086654Y-96399499D01*
X119079058Y-96399499D01*
X118920943Y-96399499D01*
X118844579Y-96419961D01*
X118768214Y-96440423D01*
X118768209Y-96440426D01*
X118631290Y-96519475D01*
X118631286Y-96519478D01*
X118485337Y-96665427D01*
X118424014Y-96698911D01*
X118421848Y-96699362D01*
X118266508Y-96730261D01*
X118266498Y-96730264D01*
X118120827Y-96790602D01*
X118120814Y-96790609D01*
X117989711Y-96878210D01*
X117989707Y-96878213D01*
X117878213Y-96989707D01*
X117878210Y-96989711D01*
X117790609Y-97120814D01*
X117790602Y-97120827D01*
X117730264Y-97266498D01*
X117730261Y-97266510D01*
X117699500Y-97421153D01*
X113769355Y-97421153D01*
X113728418Y-97295164D01*
X113639096Y-97119858D01*
X113613678Y-97084873D01*
X113613677Y-97084873D01*
X113012137Y-97686413D01*
X112989333Y-97601306D01*
X112930090Y-97498694D01*
X112846306Y-97414910D01*
X112743694Y-97355667D01*
X112658584Y-97332861D01*
X113260125Y-96731320D01*
X113260125Y-96731319D01*
X113225145Y-96705905D01*
X113048235Y-96615765D01*
X112997439Y-96567790D01*
X112980644Y-96499969D01*
X113003182Y-96433834D01*
X113048236Y-96394795D01*
X113050022Y-96393884D01*
X113050025Y-96393884D01*
X113225405Y-96304524D01*
X113384646Y-96188828D01*
X113523828Y-96049646D01*
X113639524Y-95890405D01*
X113728884Y-95715025D01*
X113789709Y-95527826D01*
X113794195Y-95499500D01*
X113820500Y-95333422D01*
X113820500Y-95136577D01*
X113789709Y-94942173D01*
X113728882Y-94754970D01*
X113639523Y-94579594D01*
X113523828Y-94420354D01*
X113384646Y-94281172D01*
X113305025Y-94223324D01*
X113225403Y-94165474D01*
X113048787Y-94075485D01*
X112997990Y-94027511D01*
X112981195Y-93959690D01*
X113003732Y-93893555D01*
X113048787Y-93854515D01*
X113225403Y-93764525D01*
X113225402Y-93764525D01*
X113225405Y-93764524D01*
X113384646Y-93648828D01*
X113523828Y-93509646D01*
X113639524Y-93350405D01*
X113728884Y-93175025D01*
X113789709Y-92987826D01*
X113806970Y-92878846D01*
X113820500Y-92793422D01*
X113820500Y-92596577D01*
X113789709Y-92402173D01*
X113728882Y-92214970D01*
X113665513Y-92090602D01*
X113639524Y-92039595D01*
X113523828Y-91880354D01*
X113384646Y-91741172D01*
X113305025Y-91683324D01*
X113225403Y-91625474D01*
X113048787Y-91535485D01*
X112997990Y-91487511D01*
X112981195Y-91419690D01*
X113003732Y-91353555D01*
X113048787Y-91314515D01*
X113225403Y-91224525D01*
X113225402Y-91224525D01*
X113225405Y-91224524D01*
X113384646Y-91108828D01*
X113523828Y-90969646D01*
X113639524Y-90810405D01*
X113728884Y-90635025D01*
X113789709Y-90447826D01*
X113795654Y-90410289D01*
X113820500Y-90253422D01*
X113820500Y-90056577D01*
X113789709Y-89862173D01*
X113753645Y-89751182D01*
X113728884Y-89674975D01*
X113728882Y-89674972D01*
X113728882Y-89674970D01*
X113650339Y-89520821D01*
X113639524Y-89499595D01*
X113523828Y-89340354D01*
X113384646Y-89201172D01*
X113290157Y-89132521D01*
X113225403Y-89085474D01*
X113048787Y-88995485D01*
X112997990Y-88947511D01*
X112981195Y-88879690D01*
X113003732Y-88813555D01*
X113048787Y-88774515D01*
X113225403Y-88684525D01*
X113225402Y-88684525D01*
X113225405Y-88684524D01*
X113384646Y-88568828D01*
X113523828Y-88429646D01*
X113639524Y-88270405D01*
X113728884Y-88095025D01*
X113789709Y-87907826D01*
X113816762Y-87737021D01*
X113820500Y-87713422D01*
X113820500Y-87623654D01*
X113840185Y-87556615D01*
X113892989Y-87510860D01*
X113962147Y-87500916D01*
X114025703Y-87529941D01*
X114059061Y-87576202D01*
X114113102Y-87706672D01*
X114113109Y-87706685D01*
X114200710Y-87837788D01*
X114200713Y-87837792D01*
X114312207Y-87949286D01*
X114312211Y-87949289D01*
X114364370Y-87984141D01*
X114409175Y-88037753D01*
X114417882Y-88107078D01*
X114410040Y-88134695D01*
X114350999Y-88277233D01*
X114350996Y-88277245D01*
X114320235Y-88431888D01*
X114320235Y-88589581D01*
X114350996Y-88744224D01*
X114350999Y-88744236D01*
X114411337Y-88889907D01*
X114411344Y-88889920D01*
X114498945Y-89021023D01*
X114498948Y-89021027D01*
X114610442Y-89132521D01*
X114610446Y-89132524D01*
X114741549Y-89220125D01*
X114741562Y-89220132D01*
X114875922Y-89275785D01*
X114887238Y-89280472D01*
X114910309Y-89285061D01*
X114935689Y-89290110D01*
X114997600Y-89322495D01*
X115032174Y-89383210D01*
X115033011Y-89429981D01*
X115033675Y-89430047D01*
X115033114Y-89435733D01*
X115033118Y-89435905D01*
X115033078Y-89436103D01*
X115033078Y-89593798D01*
X115063839Y-89748441D01*
X115063842Y-89748453D01*
X115124180Y-89894124D01*
X115124187Y-89894137D01*
X115211788Y-90025240D01*
X115211791Y-90025244D01*
X115323285Y-90136738D01*
X115323289Y-90136741D01*
X115454392Y-90224342D01*
X115454405Y-90224349D01*
X115586793Y-90279185D01*
X115600081Y-90284689D01*
X115754731Y-90315451D01*
X115754734Y-90315452D01*
X115754736Y-90315452D01*
X115912422Y-90315452D01*
X115912423Y-90315451D01*
X116067075Y-90284689D01*
X116212757Y-90224346D01*
X116343867Y-90136741D01*
X116455367Y-90025241D01*
X116542972Y-89894131D01*
X116542973Y-89894128D01*
X116542975Y-89894125D01*
X116573199Y-89821153D01*
X119499497Y-89821153D01*
X119499497Y-89978846D01*
X119530258Y-90133489D01*
X119530261Y-90133501D01*
X119590599Y-90279172D01*
X119590606Y-90279185D01*
X119678207Y-90410288D01*
X119678210Y-90410292D01*
X119789704Y-90521786D01*
X119789708Y-90521789D01*
X119920811Y-90609390D01*
X119920824Y-90609397D01*
X120066495Y-90669735D01*
X120066500Y-90669737D01*
X120221150Y-90700499D01*
X120221153Y-90700500D01*
X120221155Y-90700500D01*
X120378841Y-90700500D01*
X120378842Y-90700499D01*
X120533494Y-90669737D01*
X120652547Y-90620423D01*
X120722014Y-90612955D01*
X120747447Y-90620422D01*
X120866503Y-90669737D01*
X121021153Y-90700499D01*
X121021156Y-90700500D01*
X121021158Y-90700500D01*
X121178844Y-90700500D01*
X121178845Y-90700499D01*
X121333497Y-90669737D01*
X121452548Y-90620425D01*
X121522017Y-90612956D01*
X121547453Y-90620425D01*
X121666503Y-90669737D01*
X121821153Y-90700499D01*
X121821156Y-90700500D01*
X121821158Y-90700500D01*
X121978844Y-90700500D01*
X121978845Y-90700499D01*
X122133497Y-90669737D01*
X122279179Y-90609394D01*
X122410289Y-90521789D01*
X122521789Y-90410289D01*
X122609394Y-90279179D01*
X122669737Y-90133497D01*
X122700500Y-89978842D01*
X122700500Y-89821158D01*
X122700500Y-89821156D01*
X122699903Y-89815098D01*
X122700276Y-89815061D01*
X122698781Y-89799137D01*
X122698911Y-89784987D01*
X122700501Y-89779057D01*
X122700501Y-89620942D01*
X122700500Y-89620938D01*
X122700500Y-89279765D01*
X122720185Y-89212726D01*
X122721398Y-89210874D01*
X122809390Y-89079185D01*
X122809390Y-89079184D01*
X122809394Y-89079179D01*
X122869737Y-88933497D01*
X122900500Y-88778842D01*
X122900500Y-88621158D01*
X122900500Y-88621155D01*
X122900499Y-88621153D01*
X122869738Y-88466510D01*
X122869737Y-88466503D01*
X122858335Y-88438976D01*
X122809397Y-88320827D01*
X122809390Y-88320814D01*
X122721789Y-88189711D01*
X122721786Y-88189707D01*
X122610292Y-88078213D01*
X122610288Y-88078210D01*
X122479185Y-87990609D01*
X122479172Y-87990602D01*
X122333501Y-87930264D01*
X122333489Y-87930261D01*
X122178845Y-87899500D01*
X122178842Y-87899500D01*
X122021158Y-87899500D01*
X122021155Y-87899500D01*
X121866510Y-87930261D01*
X121866498Y-87930264D01*
X121720827Y-87990602D01*
X121720814Y-87990609D01*
X121668891Y-88025304D01*
X121602214Y-88046182D01*
X121534833Y-88027698D01*
X121531109Y-88025304D01*
X121479185Y-87990609D01*
X121479172Y-87990602D01*
X121333501Y-87930264D01*
X121333489Y-87930261D01*
X121178845Y-87899500D01*
X121178842Y-87899500D01*
X121021158Y-87899500D01*
X121021155Y-87899500D01*
X120866510Y-87930261D01*
X120866498Y-87930264D01*
X120747452Y-87979574D01*
X120677982Y-87987043D01*
X120652548Y-87979574D01*
X120533501Y-87930264D01*
X120533489Y-87930261D01*
X120378845Y-87899500D01*
X120378842Y-87899500D01*
X120221158Y-87899500D01*
X120221155Y-87899500D01*
X120066510Y-87930261D01*
X120066498Y-87930264D01*
X119920827Y-87990602D01*
X119920814Y-87990609D01*
X119789711Y-88078210D01*
X119789707Y-88078213D01*
X119678213Y-88189707D01*
X119678210Y-88189711D01*
X119590609Y-88320814D01*
X119590602Y-88320827D01*
X119530264Y-88466498D01*
X119530261Y-88466510D01*
X119499500Y-88621153D01*
X119499500Y-88778846D01*
X119530261Y-88933489D01*
X119530264Y-88933501D01*
X119590602Y-89079172D01*
X119590609Y-89079185D01*
X119678599Y-89210870D01*
X119684249Y-89228916D01*
X119694474Y-89244826D01*
X119698925Y-89275785D01*
X119699477Y-89277547D01*
X119699497Y-89279761D01*
X119699497Y-89320234D01*
X119679812Y-89387273D01*
X119678599Y-89389125D01*
X119590606Y-89520814D01*
X119590599Y-89520827D01*
X119530261Y-89666498D01*
X119530258Y-89666510D01*
X119499497Y-89821153D01*
X116573199Y-89821153D01*
X116580438Y-89803676D01*
X116592284Y-89775079D01*
X116611541Y-89751182D01*
X116629040Y-89725980D01*
X116634424Y-89722785D01*
X116636124Y-89720676D01*
X116659384Y-89707974D01*
X116778444Y-89658659D01*
X116909554Y-89571054D01*
X117021054Y-89459554D01*
X117108659Y-89328444D01*
X117169002Y-89182762D01*
X117199765Y-89028107D01*
X117199765Y-88870423D01*
X117199765Y-88870420D01*
X117199764Y-88870418D01*
X117181549Y-88778846D01*
X117169002Y-88715768D01*
X117156061Y-88684525D01*
X117108662Y-88570092D01*
X117108655Y-88570079D01*
X117021054Y-88438976D01*
X117021051Y-88438972D01*
X116909557Y-88327478D01*
X116909553Y-88327475D01*
X116778450Y-88239874D01*
X116778437Y-88239867D01*
X116632766Y-88179529D01*
X116632756Y-88179526D01*
X116477414Y-88148626D01*
X116415503Y-88116241D01*
X116413925Y-88114690D01*
X116154270Y-87855035D01*
X116134565Y-87829355D01*
X116081255Y-87737019D01*
X115969451Y-87625215D01*
X115969450Y-87625214D01*
X115965120Y-87620884D01*
X115965109Y-87620874D01*
X115657074Y-87312839D01*
X115623589Y-87251516D01*
X115623138Y-87249349D01*
X115592238Y-87094010D01*
X115592237Y-87094003D01*
X115536564Y-86959595D01*
X115531897Y-86948327D01*
X115531890Y-86948314D01*
X115444289Y-86817211D01*
X115444286Y-86817207D01*
X115332792Y-86705713D01*
X115332788Y-86705710D01*
X115201685Y-86618109D01*
X115201672Y-86618102D01*
X115056001Y-86557764D01*
X115055989Y-86557761D01*
X114901345Y-86527000D01*
X114901342Y-86527000D01*
X114743658Y-86527000D01*
X114743655Y-86527000D01*
X114589010Y-86557761D01*
X114588998Y-86557764D01*
X114443327Y-86618102D01*
X114443314Y-86618109D01*
X114312211Y-86705710D01*
X114312207Y-86705713D01*
X114200713Y-86817207D01*
X114200710Y-86817211D01*
X114113109Y-86948314D01*
X114113102Y-86948327D01*
X114052764Y-87093998D01*
X114052761Y-87094010D01*
X114022000Y-87248653D01*
X114022000Y-87254185D01*
X114002315Y-87321224D01*
X113949511Y-87366979D01*
X113880353Y-87376923D01*
X113816797Y-87347898D01*
X113780069Y-87292504D01*
X113728882Y-87134970D01*
X113639523Y-86959594D01*
X113631333Y-86948321D01*
X113523828Y-86800354D01*
X113384646Y-86661172D01*
X113242314Y-86557761D01*
X113225403Y-86545474D01*
X113048787Y-86455485D01*
X112997990Y-86407511D01*
X112981195Y-86339690D01*
X113003732Y-86273555D01*
X113048787Y-86234515D01*
X113225403Y-86144525D01*
X113225402Y-86144525D01*
X113225405Y-86144524D01*
X113384646Y-86028828D01*
X113523828Y-85889646D01*
X113639524Y-85730405D01*
X113728884Y-85555025D01*
X113789709Y-85367826D01*
X113801178Y-85295418D01*
X131225235Y-85295418D01*
X131225235Y-85453111D01*
X131255996Y-85607754D01*
X131255999Y-85607766D01*
X131316337Y-85753437D01*
X131316344Y-85753450D01*
X131403945Y-85884553D01*
X131403948Y-85884557D01*
X131515442Y-85996051D01*
X131515446Y-85996054D01*
X131646549Y-86083655D01*
X131646562Y-86083662D01*
X131792233Y-86144000D01*
X131792238Y-86144002D01*
X131946888Y-86174764D01*
X131946891Y-86174765D01*
X131946893Y-86174765D01*
X132104579Y-86174765D01*
X132104580Y-86174764D01*
X132259232Y-86144002D01*
X132404914Y-86083659D01*
X132404920Y-86083655D01*
X132536610Y-85995663D01*
X132603288Y-85974785D01*
X132605501Y-85974765D01*
X133168387Y-85974765D01*
X133168403Y-85974766D01*
X133175999Y-85974766D01*
X133334110Y-85974766D01*
X133334113Y-85974766D01*
X133486841Y-85933842D01*
X133563390Y-85889646D01*
X133623772Y-85854785D01*
X133735576Y-85742981D01*
X133735576Y-85742980D01*
X133753011Y-85725545D01*
X133753020Y-85725535D01*
X133766740Y-85711816D01*
X133828064Y-85678333D01*
X133854418Y-85675500D01*
X134257404Y-85675500D01*
X134324443Y-85695185D01*
X134357722Y-85726614D01*
X134360475Y-85730403D01*
X134360476Y-85730405D01*
X134476172Y-85889646D01*
X134615354Y-86028828D01*
X134774595Y-86144524D01*
X134833945Y-86174764D01*
X134951213Y-86234515D01*
X135002009Y-86282489D01*
X135018804Y-86350310D01*
X134996267Y-86416445D01*
X134951213Y-86455485D01*
X134774594Y-86545476D01*
X134683741Y-86611485D01*
X134615354Y-86661172D01*
X134615352Y-86661174D01*
X134615351Y-86661174D01*
X134476174Y-86800351D01*
X134476174Y-86800352D01*
X134476172Y-86800354D01*
X134463928Y-86817207D01*
X134360476Y-86959594D01*
X134271117Y-87134970D01*
X134210290Y-87322173D01*
X134179500Y-87516577D01*
X134179500Y-87713422D01*
X134210290Y-87907826D01*
X134271117Y-88095029D01*
X134344916Y-88239867D01*
X134360476Y-88270405D01*
X134476172Y-88429646D01*
X134615354Y-88568828D01*
X134774595Y-88684524D01*
X134835929Y-88715775D01*
X134951213Y-88774515D01*
X135002009Y-88822489D01*
X135018804Y-88890310D01*
X134996267Y-88956445D01*
X134951213Y-88995485D01*
X134774594Y-89085476D01*
X134709843Y-89132521D01*
X134615354Y-89201172D01*
X134615352Y-89201174D01*
X134615351Y-89201174D01*
X134476174Y-89340351D01*
X134476174Y-89340352D01*
X134476172Y-89340354D01*
X134445035Y-89383210D01*
X134360476Y-89499594D01*
X134271118Y-89674970D01*
X134271117Y-89674972D01*
X134271116Y-89674975D01*
X134246355Y-89751182D01*
X134218899Y-89835682D01*
X134179461Y-89893357D01*
X134115102Y-89920555D01*
X134076777Y-89918980D01*
X133978845Y-89899500D01*
X133978842Y-89899500D01*
X133821158Y-89899500D01*
X133821155Y-89899500D01*
X133666510Y-89930261D01*
X133666498Y-89930264D01*
X133520827Y-89990602D01*
X133520814Y-89990609D01*
X133389125Y-90078602D01*
X133322447Y-90099480D01*
X133320234Y-90099500D01*
X132869766Y-90099500D01*
X132802727Y-90079815D01*
X132800875Y-90078602D01*
X132669185Y-89990609D01*
X132669172Y-89990602D01*
X132523501Y-89930264D01*
X132523489Y-89930261D01*
X132368845Y-89899500D01*
X132368842Y-89899500D01*
X132211158Y-89899500D01*
X132211155Y-89899500D01*
X132056510Y-89930261D01*
X132056498Y-89930264D01*
X131910827Y-89990602D01*
X131910814Y-89990609D01*
X131779711Y-90078210D01*
X131779707Y-90078213D01*
X131668213Y-90189707D01*
X131668210Y-90189711D01*
X131580609Y-90320814D01*
X131580602Y-90320827D01*
X131520264Y-90466498D01*
X131520261Y-90466510D01*
X131489500Y-90621153D01*
X131489500Y-90778846D01*
X131520261Y-90933489D01*
X131520264Y-90933501D01*
X131580602Y-91079172D01*
X131580609Y-91079185D01*
X131668210Y-91210288D01*
X131668213Y-91210292D01*
X131779707Y-91321786D01*
X131779711Y-91321789D01*
X131910814Y-91409390D01*
X131910827Y-91409397D01*
X132056498Y-91469735D01*
X132056503Y-91469737D01*
X132211153Y-91500499D01*
X132211156Y-91500500D01*
X132211158Y-91500500D01*
X132368844Y-91500500D01*
X132368845Y-91500499D01*
X132523497Y-91469737D01*
X132669179Y-91409394D01*
X132721089Y-91374709D01*
X132800875Y-91321398D01*
X132867553Y-91300520D01*
X132869766Y-91300500D01*
X133320234Y-91300500D01*
X133387273Y-91320185D01*
X133389125Y-91321398D01*
X133520814Y-91409390D01*
X133520827Y-91409397D01*
X133666498Y-91469735D01*
X133666503Y-91469737D01*
X133821153Y-91500499D01*
X133821156Y-91500500D01*
X133821158Y-91500500D01*
X133978844Y-91500500D01*
X133978845Y-91500499D01*
X134133497Y-91469737D01*
X134279179Y-91409394D01*
X134410289Y-91321789D01*
X134521789Y-91210289D01*
X134526352Y-91203458D01*
X134579959Y-91158653D01*
X134649284Y-91149942D01*
X134702342Y-91172029D01*
X134774590Y-91224521D01*
X134774592Y-91224522D01*
X134774595Y-91224524D01*
X134894937Y-91285841D01*
X134951213Y-91314515D01*
X135002009Y-91362489D01*
X135018804Y-91430310D01*
X134996267Y-91496445D01*
X134951213Y-91535485D01*
X134774594Y-91625476D01*
X134683741Y-91691485D01*
X134615354Y-91741172D01*
X134615352Y-91741174D01*
X134615351Y-91741174D01*
X134476174Y-91880351D01*
X134476174Y-91880352D01*
X134476172Y-91880354D01*
X134441413Y-91928195D01*
X134360474Y-92039596D01*
X134313499Y-92131794D01*
X134265525Y-92182590D01*
X134203014Y-92199500D01*
X132869766Y-92199500D01*
X132802727Y-92179815D01*
X132800875Y-92178602D01*
X132669185Y-92090609D01*
X132669172Y-92090602D01*
X132523501Y-92030264D01*
X132523489Y-92030261D01*
X132368845Y-91999500D01*
X132368842Y-91999500D01*
X132211158Y-91999500D01*
X132211155Y-91999500D01*
X132056510Y-92030261D01*
X132056498Y-92030264D01*
X131910827Y-92090602D01*
X131910814Y-92090609D01*
X131779711Y-92178210D01*
X131779707Y-92178213D01*
X131668213Y-92289707D01*
X131668210Y-92289711D01*
X131580609Y-92420814D01*
X131580602Y-92420827D01*
X131520264Y-92566498D01*
X131520261Y-92566510D01*
X131489500Y-92721153D01*
X131489500Y-92878846D01*
X131520261Y-93033489D01*
X131520264Y-93033501D01*
X131580602Y-93179172D01*
X131580609Y-93179185D01*
X131668210Y-93310288D01*
X131668213Y-93310292D01*
X131779707Y-93421786D01*
X131779711Y-93421789D01*
X131910814Y-93509390D01*
X131910827Y-93509397D01*
X132056498Y-93569735D01*
X132056503Y-93569737D01*
X132211153Y-93600499D01*
X132211156Y-93600500D01*
X132211158Y-93600500D01*
X132368844Y-93600500D01*
X132368845Y-93600499D01*
X132523497Y-93569737D01*
X132669179Y-93509394D01*
X132755653Y-93451614D01*
X132800875Y-93421398D01*
X132867553Y-93400520D01*
X132869766Y-93400500D01*
X134333691Y-93400500D01*
X134400730Y-93420185D01*
X134434008Y-93451614D01*
X134472358Y-93504396D01*
X134476172Y-93509646D01*
X134615354Y-93648828D01*
X134774595Y-93764524D01*
X134897992Y-93827397D01*
X134951213Y-93854515D01*
X135002009Y-93902489D01*
X135018804Y-93970310D01*
X134996267Y-94036445D01*
X134951213Y-94075485D01*
X134774594Y-94165476D01*
X134683741Y-94231485D01*
X134615354Y-94281172D01*
X134615352Y-94281174D01*
X134615351Y-94281174D01*
X134476174Y-94420351D01*
X134476174Y-94420352D01*
X134476172Y-94420354D01*
X134426485Y-94488741D01*
X134360476Y-94579594D01*
X134271117Y-94754970D01*
X134210290Y-94942173D01*
X134179500Y-95136577D01*
X134179500Y-95333422D01*
X134210290Y-95527826D01*
X134271118Y-95715030D01*
X134273244Y-95719202D01*
X134286142Y-95787871D01*
X134259868Y-95852612D01*
X134202763Y-95892871D01*
X134162761Y-95899500D01*
X132669057Y-95899500D01*
X132510943Y-95899500D01*
X132358215Y-95940423D01*
X132358214Y-95940423D01*
X132358212Y-95940424D01*
X132358209Y-95940425D01*
X132308100Y-95969356D01*
X132308097Y-95969358D01*
X132308095Y-95969360D01*
X132284664Y-95982887D01*
X132222666Y-95999500D01*
X132211155Y-95999500D01*
X132056510Y-96030261D01*
X132056498Y-96030264D01*
X131910827Y-96090602D01*
X131910814Y-96090609D01*
X131779711Y-96178210D01*
X131779707Y-96178213D01*
X131668213Y-96289707D01*
X131668210Y-96289711D01*
X131580609Y-96420814D01*
X131580602Y-96420827D01*
X131520264Y-96566498D01*
X131520261Y-96566510D01*
X131489500Y-96721153D01*
X131489500Y-96878846D01*
X131520261Y-97033489D01*
X131520264Y-97033501D01*
X131580602Y-97179172D01*
X131580609Y-97179185D01*
X131668210Y-97310288D01*
X131668213Y-97310292D01*
X131779707Y-97421786D01*
X131779711Y-97421789D01*
X131910814Y-97509390D01*
X131910827Y-97509397D01*
X132056498Y-97569735D01*
X132056503Y-97569737D01*
X132211153Y-97600499D01*
X132211156Y-97600500D01*
X132211158Y-97600500D01*
X132368844Y-97600500D01*
X132368845Y-97600499D01*
X132523497Y-97569737D01*
X132669179Y-97509394D01*
X132800289Y-97421789D01*
X132911789Y-97310289D01*
X132999394Y-97179179D01*
X133000275Y-97177049D01*
X133001035Y-97176106D01*
X133002264Y-97173809D01*
X133002699Y-97174041D01*
X133044115Y-97122646D01*
X133110408Y-97100579D01*
X133114838Y-97100500D01*
X134168418Y-97100500D01*
X134235457Y-97120185D01*
X134281212Y-97172989D01*
X134291156Y-97242147D01*
X134278902Y-97280796D01*
X134271581Y-97295162D01*
X134210778Y-97482294D01*
X134180000Y-97676617D01*
X134180000Y-97873382D01*
X134210778Y-98067705D01*
X134271581Y-98254835D01*
X134360905Y-98430145D01*
X134386319Y-98465125D01*
X134386320Y-98465125D01*
X134987861Y-97863584D01*
X135010667Y-97948694D01*
X135069910Y-98051306D01*
X135153694Y-98135090D01*
X135256306Y-98194333D01*
X135341414Y-98217137D01*
X134739873Y-98818677D01*
X134739873Y-98818678D01*
X134774858Y-98844096D01*
X134815912Y-98865014D01*
X134820542Y-98869386D01*
X134826653Y-98871181D01*
X134845636Y-98893087D01*
X134866708Y-98912989D01*
X134868238Y-98919170D01*
X134872410Y-98923984D01*
X134876535Y-98952675D01*
X134883503Y-98980810D01*
X134881448Y-98986838D01*
X134882355Y-98993142D01*
X134870316Y-99019505D01*
X134860966Y-99046945D01*
X134855978Y-99050905D01*
X134853333Y-99056699D01*
X134828946Y-99072371D01*
X134806250Y-99090396D01*
X134798569Y-99091895D01*
X134794556Y-99094475D01*
X134759632Y-99099496D01*
X134759621Y-99099499D01*
X134735943Y-99099499D01*
X134735939Y-99099499D01*
X134728335Y-99099500D01*
X134728334Y-99099499D01*
X134728331Y-99099500D01*
X132869766Y-99099500D01*
X132802727Y-99079815D01*
X132800875Y-99078602D01*
X132669185Y-98990609D01*
X132669172Y-98990602D01*
X132523501Y-98930264D01*
X132523489Y-98930261D01*
X132368845Y-98899500D01*
X132368842Y-98899500D01*
X132211158Y-98899500D01*
X132211155Y-98899500D01*
X132056510Y-98930261D01*
X132056498Y-98930264D01*
X131910827Y-98990602D01*
X131910814Y-98990609D01*
X131779711Y-99078210D01*
X131779707Y-99078213D01*
X131668213Y-99189707D01*
X131668210Y-99189711D01*
X131580609Y-99320814D01*
X131580602Y-99320827D01*
X131520264Y-99466498D01*
X131520261Y-99466510D01*
X131489500Y-99621153D01*
X131489500Y-99778846D01*
X131520261Y-99933489D01*
X131520264Y-99933501D01*
X131580602Y-100079172D01*
X131580609Y-100079185D01*
X131668210Y-100210288D01*
X131668213Y-100210292D01*
X131779707Y-100321786D01*
X131779711Y-100321789D01*
X131910814Y-100409390D01*
X131910827Y-100409397D01*
X132056498Y-100469735D01*
X132056503Y-100469737D01*
X132211153Y-100500499D01*
X132211156Y-100500500D01*
X132211158Y-100500500D01*
X132368844Y-100500500D01*
X132368845Y-100500499D01*
X132523497Y-100469737D01*
X132636166Y-100423067D01*
X132669172Y-100409397D01*
X132669172Y-100409396D01*
X132669179Y-100409394D01*
X132745220Y-100358585D01*
X132800875Y-100321398D01*
X132867553Y-100300520D01*
X132869766Y-100300500D01*
X134055988Y-100300500D01*
X134123027Y-100320185D01*
X134168782Y-100372989D01*
X134178038Y-100408715D01*
X134178737Y-100408605D01*
X134210290Y-100607826D01*
X134271117Y-100795029D01*
X134360476Y-100970405D01*
X134476172Y-101129646D01*
X134615354Y-101268828D01*
X134774595Y-101384524D01*
X134857455Y-101426743D01*
X134949970Y-101473882D01*
X134949972Y-101473882D01*
X134949975Y-101473884D01*
X135050317Y-101506487D01*
X135137173Y-101534709D01*
X135331578Y-101565500D01*
X135331583Y-101565500D01*
X135528422Y-101565500D01*
X135722826Y-101534709D01*
X135910025Y-101473884D01*
X136085405Y-101384524D01*
X136244646Y-101268828D01*
X136383828Y-101129646D01*
X136499524Y-100970405D01*
X136588884Y-100795025D01*
X136649709Y-100607826D01*
X136671580Y-100469737D01*
X136680500Y-100413422D01*
X136680500Y-100216577D01*
X136649709Y-100022173D01*
X136588882Y-99834970D01*
X136499523Y-99659594D01*
X136383828Y-99500354D01*
X136244646Y-99361172D01*
X136085405Y-99245476D01*
X135910025Y-99156116D01*
X135910024Y-99156115D01*
X135908235Y-99155204D01*
X135857439Y-99107230D01*
X135840644Y-99039409D01*
X135863181Y-98973274D01*
X135908236Y-98934234D01*
X136085141Y-98844097D01*
X136120125Y-98818678D01*
X136120126Y-98818678D01*
X135518585Y-98217137D01*
X135603694Y-98194333D01*
X135706306Y-98135090D01*
X135790090Y-98051306D01*
X135849333Y-97948694D01*
X135872137Y-97863585D01*
X136473678Y-98465126D01*
X136473678Y-98465125D01*
X136499095Y-98430143D01*
X136588418Y-98254835D01*
X136649221Y-98067705D01*
X136680000Y-97873382D01*
X136680000Y-97676617D01*
X136649221Y-97482294D01*
X136588418Y-97295164D01*
X136499096Y-97119858D01*
X136473678Y-97084873D01*
X136473677Y-97084873D01*
X135872137Y-97686413D01*
X135849333Y-97601306D01*
X135790090Y-97498694D01*
X135706306Y-97414910D01*
X135603694Y-97355667D01*
X135518583Y-97332861D01*
X136120125Y-96731320D01*
X136120125Y-96731319D01*
X136085145Y-96705905D01*
X135908235Y-96615765D01*
X135857439Y-96567790D01*
X135840644Y-96499969D01*
X135863182Y-96433834D01*
X135908236Y-96394795D01*
X135910022Y-96393884D01*
X135910025Y-96393884D01*
X136085405Y-96304524D01*
X136244646Y-96188828D01*
X136383828Y-96049646D01*
X136499524Y-95890405D01*
X136588884Y-95715025D01*
X136649709Y-95527826D01*
X136654195Y-95499500D01*
X136680500Y-95333422D01*
X136680500Y-95136577D01*
X136649709Y-94942173D01*
X136588882Y-94754970D01*
X136499523Y-94579594D01*
X136383828Y-94420354D01*
X136244646Y-94281172D01*
X136165025Y-94223324D01*
X136085403Y-94165474D01*
X135908787Y-94075485D01*
X135857990Y-94027511D01*
X135841195Y-93959690D01*
X135863732Y-93893555D01*
X135908787Y-93854515D01*
X136085403Y-93764525D01*
X136085402Y-93764525D01*
X136085405Y-93764524D01*
X136244646Y-93648828D01*
X136383828Y-93509646D01*
X136499524Y-93350405D01*
X136588884Y-93175025D01*
X136649709Y-92987826D01*
X136666970Y-92878846D01*
X136680500Y-92793422D01*
X136680500Y-92596577D01*
X136649709Y-92402173D01*
X136588882Y-92214970D01*
X136525513Y-92090602D01*
X136499524Y-92039595D01*
X136383828Y-91880354D01*
X136244646Y-91741172D01*
X136165025Y-91683324D01*
X136085403Y-91625474D01*
X135908787Y-91535485D01*
X135857990Y-91487511D01*
X135841195Y-91419690D01*
X135863732Y-91353555D01*
X135908787Y-91314515D01*
X136085403Y-91224525D01*
X136085402Y-91224525D01*
X136085405Y-91224524D01*
X136244646Y-91108828D01*
X136383828Y-90969646D01*
X136499524Y-90810405D01*
X136588884Y-90635025D01*
X136649709Y-90447826D01*
X136655654Y-90410289D01*
X136680500Y-90253422D01*
X136680500Y-90056577D01*
X136649709Y-89862173D01*
X136613645Y-89751182D01*
X136588884Y-89674975D01*
X136588882Y-89674972D01*
X136588882Y-89674970D01*
X136510339Y-89520821D01*
X136499524Y-89499595D01*
X136383828Y-89340354D01*
X136244646Y-89201172D01*
X136150157Y-89132521D01*
X136085403Y-89085474D01*
X135908787Y-88995485D01*
X135857990Y-88947511D01*
X135841195Y-88879690D01*
X135863732Y-88813555D01*
X135908787Y-88774515D01*
X136085403Y-88684525D01*
X136085402Y-88684525D01*
X136085405Y-88684524D01*
X136244646Y-88568828D01*
X136383828Y-88429646D01*
X136499524Y-88270405D01*
X136588884Y-88095025D01*
X136649709Y-87907826D01*
X136676762Y-87737021D01*
X136680500Y-87713422D01*
X136680500Y-87516577D01*
X136649709Y-87322173D01*
X136588882Y-87134970D01*
X136499523Y-86959594D01*
X136491333Y-86948321D01*
X136383828Y-86800354D01*
X136244646Y-86661172D01*
X136102314Y-86557761D01*
X136085403Y-86545474D01*
X135908787Y-86455485D01*
X135857990Y-86407511D01*
X135841195Y-86339690D01*
X135863732Y-86273555D01*
X135908787Y-86234515D01*
X136085403Y-86144525D01*
X136085402Y-86144525D01*
X136085405Y-86144524D01*
X136244646Y-86028828D01*
X136383828Y-85889646D01*
X136499524Y-85730405D01*
X136588884Y-85555025D01*
X136649709Y-85367826D01*
X136680500Y-85173422D01*
X136680500Y-84976577D01*
X136649709Y-84782173D01*
X136588882Y-84594970D01*
X136523194Y-84466051D01*
X136499524Y-84419595D01*
X136383828Y-84260354D01*
X136244646Y-84121172D01*
X136165025Y-84063324D01*
X136085403Y-84005474D01*
X135908787Y-83915485D01*
X135857990Y-83867511D01*
X135841195Y-83799690D01*
X135863732Y-83733555D01*
X135908787Y-83694515D01*
X136085403Y-83604525D01*
X136085402Y-83604525D01*
X136085405Y-83604524D01*
X136244646Y-83488828D01*
X136383828Y-83349646D01*
X136499524Y-83190405D01*
X136588884Y-83015025D01*
X136649709Y-82827826D01*
X136680500Y-82633422D01*
X136680500Y-82436577D01*
X136649709Y-82242173D01*
X136588882Y-82054970D01*
X136499523Y-81879594D01*
X136383828Y-81720354D01*
X136244646Y-81581172D01*
X136165025Y-81523324D01*
X136085403Y-81465474D01*
X135908787Y-81375485D01*
X135857990Y-81327511D01*
X135841195Y-81259690D01*
X135863732Y-81193555D01*
X135908787Y-81154515D01*
X136085403Y-81064525D01*
X136085402Y-81064525D01*
X136085405Y-81064524D01*
X136244646Y-80948828D01*
X136383828Y-80809646D01*
X136499524Y-80650405D01*
X136588884Y-80475025D01*
X136649709Y-80287826D01*
X136680500Y-80093422D01*
X136680500Y-79896577D01*
X136649709Y-79702173D01*
X136588882Y-79514970D01*
X136499523Y-79339594D01*
X136383828Y-79180354D01*
X136244646Y-79041172D01*
X136165025Y-78983324D01*
X136085403Y-78925474D01*
X135908787Y-78835485D01*
X135857990Y-78787511D01*
X135841195Y-78719690D01*
X135863732Y-78653555D01*
X135908787Y-78614515D01*
X136085403Y-78524525D01*
X136085402Y-78524525D01*
X136085405Y-78524524D01*
X136244646Y-78408828D01*
X136383828Y-78269646D01*
X136499524Y-78110405D01*
X136588884Y-77935025D01*
X136649709Y-77747826D01*
X136680500Y-77553422D01*
X136680500Y-77356577D01*
X136649709Y-77162173D01*
X136588882Y-76974970D01*
X136499523Y-76799594D01*
X136383828Y-76640354D01*
X136244646Y-76501172D01*
X136165025Y-76443324D01*
X136085403Y-76385474D01*
X135908787Y-76295485D01*
X135857990Y-76247511D01*
X135841195Y-76179690D01*
X135863732Y-76113555D01*
X135908787Y-76074515D01*
X136085403Y-75984525D01*
X136085402Y-75984525D01*
X136085405Y-75984524D01*
X136244646Y-75868828D01*
X136383828Y-75729646D01*
X136499524Y-75570405D01*
X136588884Y-75395025D01*
X136649709Y-75207826D01*
X136663489Y-75120821D01*
X136680500Y-75013422D01*
X136680500Y-74816577D01*
X136649709Y-74622173D01*
X136588882Y-74434970D01*
X136499523Y-74259594D01*
X136383828Y-74100354D01*
X136244646Y-73961172D01*
X136165025Y-73903324D01*
X136085403Y-73845474D01*
X135908787Y-73755485D01*
X135857990Y-73707511D01*
X135841195Y-73639690D01*
X135863732Y-73573555D01*
X135908787Y-73534515D01*
X136085403Y-73444525D01*
X136085402Y-73444525D01*
X136085405Y-73444524D01*
X136244646Y-73328828D01*
X136383828Y-73189646D01*
X136499524Y-73030405D01*
X136588884Y-72855025D01*
X136649709Y-72667826D01*
X136680500Y-72473422D01*
X136680500Y-72276577D01*
X136649709Y-72082173D01*
X136588882Y-71894970D01*
X136499523Y-71719594D01*
X136383828Y-71560354D01*
X136244646Y-71421172D01*
X136165025Y-71363324D01*
X136085403Y-71305474D01*
X135908787Y-71215485D01*
X135857990Y-71167511D01*
X135841195Y-71099690D01*
X135863732Y-71033555D01*
X135908787Y-70994515D01*
X136085403Y-70904525D01*
X136085402Y-70904525D01*
X136085405Y-70904524D01*
X136244646Y-70788828D01*
X136383828Y-70649646D01*
X136499524Y-70490405D01*
X136588884Y-70315025D01*
X136649709Y-70127826D01*
X136680500Y-69933422D01*
X136680500Y-69736577D01*
X136649709Y-69542173D01*
X136588882Y-69354970D01*
X136499523Y-69179594D01*
X136383828Y-69020354D01*
X136244646Y-68881172D01*
X136165025Y-68823324D01*
X136085403Y-68765474D01*
X135908787Y-68675485D01*
X135857990Y-68627511D01*
X135841195Y-68559690D01*
X135863732Y-68493555D01*
X135908787Y-68454515D01*
X136085403Y-68364525D01*
X136085402Y-68364525D01*
X136085405Y-68364524D01*
X136244646Y-68248828D01*
X136383828Y-68109646D01*
X136499524Y-67950405D01*
X136588884Y-67775025D01*
X136649709Y-67587826D01*
X136680500Y-67393422D01*
X136680500Y-67196577D01*
X136649709Y-67002173D01*
X136588882Y-66814970D01*
X136499523Y-66639594D01*
X136383828Y-66480354D01*
X136244646Y-66341172D01*
X136165025Y-66283324D01*
X136085403Y-66225474D01*
X135908787Y-66135485D01*
X135857990Y-66087511D01*
X135841195Y-66019690D01*
X135863732Y-65953555D01*
X135908787Y-65914515D01*
X136085403Y-65824525D01*
X136085402Y-65824525D01*
X136085405Y-65824524D01*
X136244646Y-65708828D01*
X136383828Y-65569646D01*
X136499524Y-65410405D01*
X136588884Y-65235025D01*
X136649709Y-65047826D01*
X136680500Y-64853422D01*
X136680500Y-64656577D01*
X136649709Y-64462173D01*
X136588882Y-64274970D01*
X136499523Y-64099594D01*
X136383828Y-63940354D01*
X136244646Y-63801172D01*
X136085405Y-63685476D01*
X135910029Y-63596117D01*
X135722826Y-63535290D01*
X135528422Y-63504500D01*
X135528417Y-63504500D01*
X135331583Y-63504500D01*
X135331578Y-63504500D01*
X135137173Y-63535290D01*
X134949970Y-63596117D01*
X134774594Y-63685476D01*
X134683741Y-63751485D01*
X134615354Y-63801172D01*
X134615352Y-63801174D01*
X134615351Y-63801174D01*
X134476174Y-63940351D01*
X134476174Y-63940352D01*
X134476172Y-63940354D01*
X134463980Y-63957135D01*
X134360476Y-64099594D01*
X134271117Y-64274970D01*
X134210290Y-64462173D01*
X134179500Y-64656577D01*
X134179500Y-64853422D01*
X134210290Y-65047826D01*
X134271117Y-65235029D01*
X134360476Y-65410405D01*
X134476172Y-65569646D01*
X134615354Y-65708828D01*
X134774595Y-65824524D01*
X134849214Y-65862544D01*
X134951213Y-65914515D01*
X135002009Y-65962489D01*
X135018804Y-66030310D01*
X134996267Y-66096445D01*
X134951213Y-66135485D01*
X134774594Y-66225476D01*
X134683741Y-66291485D01*
X134615354Y-66341172D01*
X134615352Y-66341174D01*
X134615351Y-66341174D01*
X134476174Y-66480351D01*
X134476174Y-66480352D01*
X134476172Y-66480354D01*
X134426485Y-66548741D01*
X134360476Y-66639594D01*
X134271117Y-66814970D01*
X134210290Y-67002173D01*
X134179500Y-67196577D01*
X134179500Y-67393422D01*
X134210290Y-67587826D01*
X134271117Y-67775029D01*
X134360476Y-67950405D01*
X134476172Y-68109646D01*
X134615354Y-68248828D01*
X134774595Y-68364524D01*
X134897992Y-68427397D01*
X134951213Y-68454515D01*
X135002009Y-68502489D01*
X135018804Y-68570310D01*
X134996267Y-68636445D01*
X134951213Y-68675485D01*
X134774594Y-68765476D01*
X134683741Y-68831485D01*
X134615354Y-68881172D01*
X134615352Y-68881174D01*
X134615351Y-68881174D01*
X134476174Y-69020351D01*
X134476174Y-69020352D01*
X134476172Y-69020354D01*
X134426485Y-69088741D01*
X134360476Y-69179594D01*
X134271117Y-69354970D01*
X134210290Y-69542173D01*
X134179500Y-69736577D01*
X134179500Y-69933422D01*
X134210290Y-70127826D01*
X134271117Y-70315029D01*
X134360476Y-70490405D01*
X134476172Y-70649646D01*
X134615354Y-70788828D01*
X134774595Y-70904524D01*
X134897992Y-70967397D01*
X134951213Y-70994515D01*
X135002009Y-71042489D01*
X135018804Y-71110310D01*
X134996267Y-71176445D01*
X134951213Y-71215485D01*
X134774594Y-71305476D01*
X134683741Y-71371485D01*
X134615354Y-71421172D01*
X134615352Y-71421174D01*
X134615351Y-71421174D01*
X134476174Y-71560351D01*
X134476174Y-71560352D01*
X134476172Y-71560354D01*
X134426485Y-71628741D01*
X134360476Y-71719594D01*
X134271117Y-71894970D01*
X134210290Y-72082173D01*
X134179500Y-72276577D01*
X134179500Y-72473422D01*
X134210290Y-72667826D01*
X134271117Y-72855029D01*
X134360476Y-73030405D01*
X134476172Y-73189646D01*
X134615354Y-73328828D01*
X134774595Y-73444524D01*
X134897992Y-73507397D01*
X134951213Y-73534515D01*
X135002009Y-73582489D01*
X135018804Y-73650310D01*
X134996267Y-73716445D01*
X134951213Y-73755485D01*
X134774594Y-73845476D01*
X134683741Y-73911485D01*
X134615354Y-73961172D01*
X134615352Y-73961174D01*
X134615351Y-73961174D01*
X134476174Y-74100351D01*
X134476174Y-74100352D01*
X134476172Y-74100354D01*
X134426485Y-74168741D01*
X134360476Y-74259594D01*
X134271117Y-74434970D01*
X134210290Y-74622173D01*
X134179500Y-74816577D01*
X134179500Y-75013422D01*
X134210290Y-75207826D01*
X134271117Y-75395029D01*
X134360476Y-75570405D01*
X134476172Y-75729646D01*
X134615354Y-75868828D01*
X134774595Y-75984524D01*
X134825168Y-76010292D01*
X134951213Y-76074515D01*
X135002009Y-76122489D01*
X135018804Y-76190310D01*
X134996267Y-76256445D01*
X134951213Y-76295485D01*
X134774594Y-76385476D01*
X134683741Y-76451485D01*
X134615354Y-76501172D01*
X134615352Y-76501174D01*
X134615351Y-76501174D01*
X134476174Y-76640351D01*
X134476174Y-76640352D01*
X134476172Y-76640354D01*
X134426485Y-76708741D01*
X134360476Y-76799594D01*
X134271117Y-76974970D01*
X134210290Y-77162173D01*
X134179500Y-77356577D01*
X134179500Y-77553422D01*
X134210290Y-77747826D01*
X134271117Y-77935029D01*
X134360476Y-78110405D01*
X134476172Y-78269646D01*
X134615354Y-78408828D01*
X134774595Y-78524524D01*
X134897992Y-78587397D01*
X134951213Y-78614515D01*
X135002009Y-78662489D01*
X135018804Y-78730310D01*
X134996267Y-78796445D01*
X134951213Y-78835485D01*
X134774594Y-78925476D01*
X134683741Y-78991485D01*
X134615354Y-79041172D01*
X134615352Y-79041174D01*
X134615351Y-79041174D01*
X134476174Y-79180351D01*
X134476174Y-79180352D01*
X134476172Y-79180354D01*
X134426485Y-79248741D01*
X134360476Y-79339594D01*
X134271117Y-79514970D01*
X134210290Y-79702173D01*
X134179500Y-79896577D01*
X134179500Y-80093422D01*
X134210290Y-80287826D01*
X134271117Y-80475029D01*
X134360476Y-80650405D01*
X134476172Y-80809646D01*
X134615354Y-80948828D01*
X134774595Y-81064524D01*
X134897992Y-81127397D01*
X134951213Y-81154515D01*
X135002009Y-81202489D01*
X135018804Y-81270310D01*
X134996267Y-81336445D01*
X134951213Y-81375485D01*
X134774594Y-81465476D01*
X134683741Y-81531485D01*
X134615354Y-81581172D01*
X134615352Y-81581174D01*
X134615351Y-81581174D01*
X134476174Y-81720351D01*
X134476174Y-81720352D01*
X134476172Y-81720354D01*
X134426485Y-81788741D01*
X134360476Y-81879594D01*
X134271117Y-82054970D01*
X134210290Y-82242173D01*
X134179500Y-82436577D01*
X134179500Y-82633422D01*
X134210290Y-82827826D01*
X134271117Y-83015029D01*
X134360476Y-83190405D01*
X134476172Y-83349646D01*
X134615354Y-83488828D01*
X134774595Y-83604524D01*
X134897992Y-83667397D01*
X134951213Y-83694515D01*
X135002009Y-83742489D01*
X135018804Y-83810310D01*
X134996267Y-83876445D01*
X134951213Y-83915485D01*
X134774594Y-84005476D01*
X134691611Y-84065768D01*
X134615354Y-84121172D01*
X134615352Y-84121174D01*
X134615351Y-84121174D01*
X134476174Y-84260351D01*
X134476174Y-84260352D01*
X134476172Y-84260354D01*
X134390619Y-84378107D01*
X134357722Y-84423386D01*
X134302392Y-84466051D01*
X134257404Y-84474500D01*
X133640991Y-84474500D01*
X133640975Y-84474499D01*
X133633379Y-84474499D01*
X133475264Y-84474499D01*
X133398900Y-84494961D01*
X133322535Y-84515423D01*
X133322530Y-84515426D01*
X133185611Y-84594475D01*
X133185603Y-84594481D01*
X133042639Y-84737446D01*
X132981316Y-84770931D01*
X132954958Y-84773765D01*
X132605501Y-84773765D01*
X132538462Y-84754080D01*
X132536610Y-84752867D01*
X132404920Y-84664874D01*
X132404907Y-84664867D01*
X132259236Y-84604529D01*
X132259224Y-84604526D01*
X132104580Y-84573765D01*
X132104577Y-84573765D01*
X131946893Y-84573765D01*
X131946890Y-84573765D01*
X131792245Y-84604526D01*
X131792233Y-84604529D01*
X131646562Y-84664867D01*
X131646549Y-84664874D01*
X131515446Y-84752475D01*
X131515442Y-84752478D01*
X131403948Y-84863972D01*
X131403945Y-84863976D01*
X131316344Y-84995079D01*
X131316337Y-84995092D01*
X131255999Y-85140763D01*
X131255996Y-85140775D01*
X131225235Y-85295418D01*
X113801178Y-85295418D01*
X113805214Y-85269933D01*
X113820500Y-85173422D01*
X113820500Y-84976577D01*
X113789709Y-84782173D01*
X113728882Y-84594970D01*
X113663194Y-84466051D01*
X113639524Y-84419595D01*
X113523828Y-84260354D01*
X113483892Y-84220418D01*
X124650235Y-84220418D01*
X124650235Y-84378111D01*
X124680996Y-84532754D01*
X124680999Y-84532766D01*
X124741337Y-84678437D01*
X124741344Y-84678450D01*
X124828945Y-84809553D01*
X124828948Y-84809557D01*
X124940442Y-84921051D01*
X124940446Y-84921054D01*
X125071549Y-85008655D01*
X125071562Y-85008662D01*
X125217233Y-85069000D01*
X125217238Y-85069002D01*
X125371888Y-85099764D01*
X125371891Y-85099765D01*
X125371893Y-85099765D01*
X125529579Y-85099765D01*
X125529580Y-85099764D01*
X125684232Y-85069002D01*
X125829914Y-85008659D01*
X125961024Y-84921054D01*
X126072524Y-84809554D01*
X126160129Y-84678444D01*
X126220472Y-84532762D01*
X126251235Y-84378107D01*
X126251235Y-84378105D01*
X126251372Y-84377417D01*
X126260137Y-84360660D01*
X126264157Y-84342181D01*
X126282897Y-84317146D01*
X126283756Y-84315506D01*
X126285308Y-84313927D01*
X126313928Y-84285307D01*
X126375250Y-84251823D01*
X126377417Y-84251372D01*
X126378106Y-84251235D01*
X126378107Y-84251235D01*
X126532762Y-84220472D01*
X126678444Y-84160129D01*
X126809554Y-84072524D01*
X126921054Y-83961024D01*
X127008659Y-83829914D01*
X127069002Y-83684232D01*
X127099765Y-83529577D01*
X127099765Y-83371893D01*
X127099765Y-83371890D01*
X127099764Y-83371888D01*
X127069003Y-83217245D01*
X127069003Y-83217243D01*
X127069002Y-83217238D01*
X127069000Y-83217233D01*
X127008662Y-83071562D01*
X127008655Y-83071549D01*
X126921054Y-82940446D01*
X126921051Y-82940442D01*
X126809557Y-82828948D01*
X126809553Y-82828945D01*
X126678450Y-82741344D01*
X126678437Y-82741337D01*
X126532766Y-82680999D01*
X126532754Y-82680996D01*
X126378110Y-82650235D01*
X126378107Y-82650235D01*
X126220423Y-82650235D01*
X126220420Y-82650235D01*
X126065775Y-82680996D01*
X126065763Y-82680999D01*
X125920092Y-82741337D01*
X125920079Y-82741344D01*
X125788976Y-82828945D01*
X125788972Y-82828948D01*
X125677478Y-82940442D01*
X125677475Y-82940446D01*
X125589874Y-83071549D01*
X125589867Y-83071562D01*
X125529529Y-83217233D01*
X125529526Y-83217243D01*
X125498627Y-83372583D01*
X125489861Y-83389339D01*
X125485842Y-83407818D01*
X125467099Y-83432854D01*
X125466242Y-83434494D01*
X125464691Y-83436072D01*
X125436072Y-83464691D01*
X125374749Y-83498176D01*
X125372583Y-83498627D01*
X125217243Y-83529526D01*
X125217233Y-83529529D01*
X125071562Y-83589867D01*
X125071549Y-83589874D01*
X124940446Y-83677475D01*
X124940442Y-83677478D01*
X124828948Y-83788972D01*
X124828945Y-83788976D01*
X124741344Y-83920079D01*
X124741337Y-83920092D01*
X124680999Y-84065763D01*
X124680996Y-84065775D01*
X124650235Y-84220418D01*
X113483892Y-84220418D01*
X113384646Y-84121172D01*
X113305025Y-84063324D01*
X113225403Y-84005474D01*
X113048787Y-83915485D01*
X112997990Y-83867511D01*
X112981195Y-83799690D01*
X113003732Y-83733555D01*
X113048787Y-83694515D01*
X113225403Y-83604525D01*
X113225402Y-83604525D01*
X113225405Y-83604524D01*
X113384646Y-83488828D01*
X113523828Y-83349646D01*
X113639524Y-83190405D01*
X113728884Y-83015025D01*
X113789709Y-82827826D01*
X113820500Y-82633422D01*
X113820500Y-82436577D01*
X113789709Y-82242173D01*
X113728882Y-82054970D01*
X113639523Y-81879594D01*
X113523828Y-81720354D01*
X113384646Y-81581172D01*
X113305025Y-81523324D01*
X113225403Y-81465474D01*
X113048787Y-81375485D01*
X112997990Y-81327511D01*
X112981195Y-81259690D01*
X113003732Y-81193555D01*
X113048787Y-81154515D01*
X113225403Y-81064525D01*
X113225402Y-81064525D01*
X113225405Y-81064524D01*
X113384646Y-80948828D01*
X113523828Y-80809646D01*
X113639524Y-80650405D01*
X113728884Y-80475025D01*
X113789709Y-80287826D01*
X113820500Y-80093422D01*
X113820500Y-79896577D01*
X113789709Y-79702173D01*
X113728882Y-79514970D01*
X113639523Y-79339594D01*
X113523828Y-79180354D01*
X113384646Y-79041172D01*
X113305025Y-78983324D01*
X113225403Y-78925474D01*
X113048787Y-78835485D01*
X112997990Y-78787511D01*
X112981195Y-78719690D01*
X113003732Y-78653555D01*
X113048787Y-78614515D01*
X113225403Y-78524525D01*
X113225402Y-78524525D01*
X113225405Y-78524524D01*
X113384646Y-78408828D01*
X113523828Y-78269646D01*
X113639524Y-78110405D01*
X113728884Y-77935025D01*
X113789709Y-77747826D01*
X113820500Y-77553422D01*
X113820500Y-77356577D01*
X113789709Y-77162173D01*
X113728882Y-76974970D01*
X113639523Y-76799594D01*
X113523828Y-76640354D01*
X113384646Y-76501172D01*
X113305025Y-76443324D01*
X113225403Y-76385474D01*
X113048787Y-76295485D01*
X112997990Y-76247511D01*
X112981195Y-76179690D01*
X113003732Y-76113555D01*
X113048787Y-76074515D01*
X113225403Y-75984525D01*
X113225402Y-75984525D01*
X113225405Y-75984524D01*
X113384646Y-75868828D01*
X113523828Y-75729646D01*
X113639524Y-75570405D01*
X113715571Y-75421153D01*
X124399500Y-75421153D01*
X124399500Y-75578846D01*
X124430261Y-75733489D01*
X124430264Y-75733501D01*
X124490602Y-75879172D01*
X124490609Y-75879185D01*
X124578210Y-76010288D01*
X124578213Y-76010292D01*
X124689707Y-76121786D01*
X124689711Y-76121789D01*
X124820814Y-76209390D01*
X124820827Y-76209397D01*
X124883342Y-76235291D01*
X124966503Y-76269737D01*
X125121153Y-76300499D01*
X125121156Y-76300500D01*
X125121158Y-76300500D01*
X125278844Y-76300500D01*
X125278845Y-76300499D01*
X125433497Y-76269737D01*
X125579179Y-76209394D01*
X125644871Y-76165500D01*
X125710875Y-76121398D01*
X125728921Y-76115747D01*
X125744831Y-76105523D01*
X125775792Y-76101071D01*
X125777553Y-76100520D01*
X125779766Y-76100500D01*
X125820234Y-76100500D01*
X125887273Y-76120185D01*
X125889125Y-76121398D01*
X126020814Y-76209390D01*
X126020827Y-76209397D01*
X126083342Y-76235291D01*
X126166503Y-76269737D01*
X126321153Y-76300499D01*
X126321156Y-76300500D01*
X126321158Y-76300500D01*
X126478844Y-76300500D01*
X126478845Y-76300499D01*
X126633497Y-76269737D01*
X126779179Y-76209394D01*
X126910289Y-76121789D01*
X127021789Y-76010289D01*
X127109394Y-75879179D01*
X127113682Y-75868828D01*
X127169735Y-75733501D01*
X127169737Y-75733497D01*
X127200500Y-75578842D01*
X127200500Y-75421158D01*
X127200500Y-75421155D01*
X127200499Y-75421153D01*
X127169738Y-75266510D01*
X127169737Y-75266503D01*
X127169735Y-75266498D01*
X127109397Y-75120827D01*
X127109390Y-75120814D01*
X127021789Y-74989711D01*
X127021786Y-74989707D01*
X126910292Y-74878213D01*
X126910288Y-74878210D01*
X126779185Y-74790609D01*
X126779172Y-74790602D01*
X126633501Y-74730264D01*
X126633489Y-74730261D01*
X126478845Y-74699500D01*
X126478842Y-74699500D01*
X126321158Y-74699500D01*
X126321155Y-74699500D01*
X126166510Y-74730261D01*
X126166498Y-74730264D01*
X126020827Y-74790602D01*
X126020814Y-74790609D01*
X125889125Y-74878602D01*
X125871078Y-74884252D01*
X125855169Y-74894477D01*
X125824207Y-74898928D01*
X125822447Y-74899480D01*
X125820234Y-74899500D01*
X125779766Y-74899500D01*
X125712727Y-74879815D01*
X125710875Y-74878602D01*
X125579185Y-74790609D01*
X125579172Y-74790602D01*
X125433501Y-74730264D01*
X125433489Y-74730261D01*
X125278845Y-74699500D01*
X125278842Y-74699500D01*
X125121158Y-74699500D01*
X125121155Y-74699500D01*
X124966510Y-74730261D01*
X124966498Y-74730264D01*
X124820827Y-74790602D01*
X124820814Y-74790609D01*
X124689711Y-74878210D01*
X124689707Y-74878213D01*
X124578213Y-74989707D01*
X124578210Y-74989711D01*
X124490609Y-75120814D01*
X124490602Y-75120827D01*
X124430264Y-75266498D01*
X124430261Y-75266510D01*
X124399500Y-75421153D01*
X113715571Y-75421153D01*
X113728884Y-75395025D01*
X113789709Y-75207826D01*
X113803489Y-75120821D01*
X113820500Y-75013422D01*
X113820500Y-74816577D01*
X113789709Y-74622173D01*
X113728882Y-74434970D01*
X113639523Y-74259594D01*
X113523828Y-74100354D01*
X113384646Y-73961172D01*
X113305025Y-73903324D01*
X113225403Y-73845474D01*
X113048787Y-73755485D01*
X112997990Y-73707511D01*
X112981195Y-73639690D01*
X113003732Y-73573555D01*
X113048787Y-73534515D01*
X113225403Y-73444525D01*
X113225402Y-73444525D01*
X113225405Y-73444524D01*
X113384646Y-73328828D01*
X113523828Y-73189646D01*
X113639524Y-73030405D01*
X113728884Y-72855025D01*
X113789709Y-72667826D01*
X113820500Y-72473422D01*
X113820500Y-72276577D01*
X113789709Y-72082173D01*
X113728882Y-71894970D01*
X113639523Y-71719594D01*
X113523828Y-71560354D01*
X113384646Y-71421172D01*
X113305025Y-71363324D01*
X113225403Y-71305474D01*
X113048787Y-71215485D01*
X112997990Y-71167511D01*
X112981195Y-71099690D01*
X113003732Y-71033555D01*
X113048787Y-70994515D01*
X113225403Y-70904525D01*
X113225402Y-70904525D01*
X113225405Y-70904524D01*
X113384646Y-70788828D01*
X113523828Y-70649646D01*
X113639524Y-70490405D01*
X113728884Y-70315025D01*
X113789709Y-70127826D01*
X113820500Y-69933422D01*
X113820500Y-69736577D01*
X113789709Y-69542173D01*
X113728882Y-69354970D01*
X113639523Y-69179594D01*
X113523828Y-69020354D01*
X113384646Y-68881172D01*
X113305025Y-68823324D01*
X113225403Y-68765474D01*
X113048787Y-68675485D01*
X112997990Y-68627511D01*
X112981195Y-68559690D01*
X113003732Y-68493555D01*
X113048787Y-68454515D01*
X113225403Y-68364525D01*
X113225402Y-68364525D01*
X113225405Y-68364524D01*
X113384646Y-68248828D01*
X113523828Y-68109646D01*
X113639524Y-67950405D01*
X113728884Y-67775025D01*
X113789709Y-67587826D01*
X113820500Y-67393422D01*
X113820500Y-67196577D01*
X113789709Y-67002173D01*
X113728882Y-66814970D01*
X113639523Y-66639594D01*
X113523828Y-66480354D01*
X113384646Y-66341172D01*
X113231377Y-66229815D01*
X113188714Y-66174487D01*
X113182735Y-66104873D01*
X113215341Y-66043078D01*
X113276180Y-66008721D01*
X113304264Y-66005499D01*
X113367872Y-66005499D01*
X113427483Y-65999091D01*
X113562331Y-65948796D01*
X113677546Y-65862546D01*
X113763796Y-65747331D01*
X113814091Y-65612483D01*
X113820500Y-65552873D01*
X113820499Y-63957128D01*
X113814091Y-63897517D01*
X113778157Y-63801174D01*
X113763797Y-63762671D01*
X113763793Y-63762664D01*
X113677547Y-63647455D01*
X113677544Y-63647452D01*
X113562335Y-63561206D01*
X113562328Y-63561202D01*
X113427482Y-63510908D01*
X113427483Y-63510908D01*
X113367883Y-63504501D01*
X113367881Y-63504500D01*
X113367873Y-63504500D01*
X113367864Y-63504500D01*
X111772129Y-63504500D01*
X111772123Y-63504501D01*
X111712516Y-63510908D01*
X111577671Y-63561202D01*
X111577664Y-63561206D01*
X111462455Y-63647452D01*
X111462452Y-63647455D01*
X111376206Y-63762664D01*
X111376202Y-63762671D01*
X111325908Y-63897517D01*
X111321303Y-63940354D01*
X111319501Y-63957123D01*
X111319500Y-63957135D01*
X111000500Y-63957135D01*
X111000500Y-63309757D01*
X111002027Y-63290360D01*
X111003933Y-63278320D01*
X111012087Y-63226843D01*
X111024072Y-63189955D01*
X111048785Y-63141452D01*
X111050168Y-63139548D01*
X111050435Y-63138324D01*
X111071583Y-63110073D01*
X111110073Y-63071583D01*
X111141452Y-63048785D01*
X111189955Y-63024072D01*
X111226843Y-63012087D01*
X111278320Y-63003933D01*
X111290360Y-63002027D01*
X111309757Y-63000500D01*
X111365892Y-63000500D01*
X136634108Y-63000500D01*
X136690243Y-63000500D01*
X136709640Y-63002027D01*
G37*
%TD.AperFunction*%
%TD*%
M02*
