M48
; DRILL file {KiCad 9.0.0} date 2026-03-02T15:59:31+0100
; FORMAT={-:-/ absolute / metric / decimal}
; #@! TF.CreationDate,2026-03-02T15:59:31+01:00
; #@! TF.GenerationSoftware,Kicad,Pcbnew,9.0.0
; #@! TF.FileFunction,Plated,1,2,PTH
FMAT,2
METRIC
; #@! TA.AperFunction,Plated,PTH,ViaDrill
T1C0.300
; #@! TA.AperFunction,Plated,PTH,ComponentDrill
T2C0.900
; #@! TA.AperFunction,Plated,PTH,ComponentDrill
T3C1.000
%
G90
G05
T1
X112.6Y-102.4
X113.235Y-108.2
X114.4Y-97.8
X114.822Y-87.328
X114.95Y-108.45
X116.399Y-88.949
X116.926Y-86.726
X118.2Y-96.9
X118.591Y-86.757
X119.189Y-100.5
X119.9Y-96.9
X120.3Y-89.9
X120.3Y-88.7
X120.79Y-101.5
X121.1Y-88.7
X121.1Y-89.9
X121.855Y-99.558
X121.9Y-89.9
X122.1Y-88.7
X122.3Y-96.3
X123.8Y-99.5
X125.0Y-100.8
X125.2Y-75.5
X125.357Y-99.343
X125.8Y-81.0
X126.3Y-90.9
X126.4Y-75.5
X126.9Y-90.9
X127.1Y-110.2
X127.5Y-90.9
X128.1Y-83.2
X128.3Y-90.8
X128.6Y-99.4
X129.0Y-90.7
X129.0Y-101.4
X129.0Y-103.4
X129.1Y-83.499
X129.1Y-85.501
X129.7Y-88.2
X130.2Y-90.201
X130.3Y-80.4
X130.3Y-81.0
X130.8Y-77.0
X132.026Y-85.374
X132.29Y-90.7
X132.29Y-92.8
X132.29Y-96.8
X132.29Y-99.7
X133.489Y-85.14
X133.9Y-90.7
X134.301Y-92.8
X134.301Y-96.5
X134.301Y-99.7
X134.4Y-98.8
T2
X112.57Y-64.755
X112.57Y-67.295
X112.57Y-69.835
X112.57Y-72.375
X112.57Y-74.915
X112.57Y-77.455
X112.57Y-79.995
X112.57Y-82.535
X112.57Y-85.075
X112.57Y-87.615
X112.57Y-90.155
X112.57Y-92.695
X112.57Y-95.235
X112.57Y-97.775
X112.57Y-100.315
X135.43Y-64.755
X135.43Y-67.295
X135.43Y-69.835
X135.43Y-72.375
X135.43Y-74.915
X135.43Y-77.455
X135.43Y-79.995
X135.43Y-82.535
X135.43Y-85.075
X135.43Y-87.615
X135.43Y-90.155
X135.43Y-92.695
X135.43Y-95.235
X135.43Y-97.775
X135.43Y-100.315
T3
X112.57Y-104.5
X112.985Y-110.0
X115.11Y-104.5
X115.525Y-110.0
X117.65Y-104.5
X120.19Y-104.5
X122.225Y-110.25
X122.73Y-104.5
X124.765Y-110.25
X125.27Y-104.5
X127.81Y-104.5
X130.35Y-104.5
X131.975Y-110.5
X132.89Y-104.5
X134.515Y-110.5
X135.43Y-104.5
M30
