M48
; DRILL file {KiCad 9.0.7} date 2026-03-03T16:21:47+0100
; FORMAT={-:-/ absolute / metric / decimal}
; #@! TF.CreationDate,2026-03-03T16:21:47+01:00
; #@! TF.GenerationSoftware,Kicad,Pcbnew,9.0.7
; #@! TF.FileFunction,Plated,1,2,PTH
FMAT,2
METRIC
; #@! TA.AperFunction,Plated,PTH,ViaDrill
T1C0.300
; #@! TA.AperFunction,Plated,PTH,ComponentDrill
T2C0.900
; #@! TA.AperFunction,Plated,PTH,ComponentDrill
T3C1.000
%
G90
G05
T1
X112.6Y-102.4
X114.822Y-87.328
X115.121Y-88.511
X115.75Y-80.65
X115.834Y-89.515
X116.399Y-88.949
X118.5Y-97.5
X119.789Y-97.0
X120.3Y-89.9
X120.3Y-88.7
X121.0Y-87.0
X121.1Y-88.7
X121.1Y-89.9
X121.855Y-99.558
X121.9Y-89.9
X122.1Y-88.7
X122.3Y-96.3
X123.8Y-99.5
X125.2Y-75.5
X125.357Y-99.343
X125.451Y-84.299
X125.8Y-81.0
X126.299Y-83.451
X126.3Y-90.9
X126.4Y-75.5
X126.9Y-90.9
X127.5Y-90.9
X128.1Y-83.2
X128.3Y-90.8
X128.6Y-99.4
X129.0Y-90.7
X130.3Y-80.4
X130.3Y-81.0
X130.75Y-101.0
X130.8Y-77.0
X132.026Y-85.374
X132.29Y-90.7
X132.29Y-92.8
X132.29Y-96.8
X132.29Y-99.7
X133.9Y-90.7
T2
X112.57Y-64.755
X112.57Y-67.295
X112.57Y-69.835
X112.57Y-72.375
X112.57Y-74.915
X112.57Y-77.455
X112.57Y-79.995
X112.57Y-82.535
X112.57Y-85.075
X112.57Y-87.615
X112.57Y-90.155
X112.57Y-92.695
X112.57Y-95.235
X112.57Y-97.775
X112.57Y-100.315
X135.43Y-64.755
X135.43Y-67.295
X135.43Y-69.835
X135.43Y-72.375
X135.43Y-74.915
X135.43Y-77.455
X135.43Y-79.995
X135.43Y-82.535
X135.43Y-85.075
X135.43Y-87.615
X135.43Y-90.155
X135.43Y-92.695
X135.43Y-95.235
X135.43Y-97.775
X135.43Y-100.315
T3
X112.57Y-104.5
X112.985Y-110.0
X115.11Y-104.5
X115.525Y-110.0
X117.65Y-104.5
X120.19Y-104.5
X122.225Y-110.25
X122.73Y-104.5
X124.765Y-110.25
X125.27Y-104.5
X127.81Y-104.5
X130.35Y-104.5
X131.975Y-110.5
X132.89Y-104.5
X134.515Y-110.5
X135.43Y-104.5
M30
