%TF.GenerationSoftware,KiCad,Pcbnew,9.0.0*%
%TF.CreationDate,2026-03-02T16:00:47+01:00*%
%TF.ProjectId,ESP32_Shield,45535033-325f-4536-9869-656c642e6b69,rev?*%
%TF.SameCoordinates,Original*%
%TF.FileFunction,Copper,L2,Bot*%
%TF.FilePolarity,Positive*%
%FSLAX46Y46*%
G04 Gerber Fmt 4.6, Leading zero omitted, Abs format (unit mm)*
G04 Created by KiCad (PCBNEW 9.0.0) date 2026-03-02 16:00:47*
%MOMM*%
%LPD*%
G01*
G04 APERTURE LIST*
%TA.AperFunction,ComponentPad*%
%ADD10R,1.700000X1.700000*%
%TD*%
%TA.AperFunction,ComponentPad*%
%ADD11C,1.700000*%
%TD*%
%TA.AperFunction,ComponentPad*%
%ADD12R,1.500000X1.500000*%
%TD*%
%TA.AperFunction,ComponentPad*%
%ADD13C,1.500000*%
%TD*%
%TA.AperFunction,ViaPad*%
%ADD14C,0.600000*%
%TD*%
%TA.AperFunction,Conductor*%
%ADD15C,0.200000*%
%TD*%
G04 APERTURE END LIST*
D10*
%TO.P,PWR1,1,Pin_1*%
%TO.N,Net-(PWR1-Pin_1)*%
X122225000Y-110250000D03*
D11*
%TO.P,PWR1,2,Pin_2*%
%TO.N,GND*%
X124765000Y-110250000D03*
%TD*%
D10*
%TO.P,PWR_MON1,1,Pin_1*%
%TO.N,Net-(PWR1-Pin_1)*%
X115525000Y-110000000D03*
D11*
%TO.P,PWR_MON1,2,Pin_2*%
%TO.N,+5V*%
X112985000Y-110000000D03*
%TD*%
D10*
%TO.P,BAT_VOLT1,1,Pin_1*%
%TO.N,-BATT*%
X131975000Y-110500000D03*
D11*
%TO.P,BAT_VOLT1,2,Pin_2*%
%TO.N,+BATT*%
X134515000Y-110500000D03*
%TD*%
D12*
%TO.P,U2,1,EN*%
%TO.N,unconnected-(U2-EN-Pad1)*%
X112570000Y-64755000D03*
D13*
%TO.P,U2,2,IO36*%
%TO.N,unconnected-(U2-IO36-Pad2)*%
X112570000Y-67295000D03*
%TO.P,U2,3,IO39*%
%TO.N,unconnected-(U2-IO39-Pad3)*%
X112570000Y-69835000D03*
%TO.P,U2,4,IO39*%
%TO.N,unconnected-(U2-IO39-Pad4)*%
X112570000Y-72375000D03*
%TO.P,U2,5,IO34*%
%TO.N,unconnected-(U2-IO34-Pad5)*%
X112570000Y-74915000D03*
%TO.P,U2,6,IO35*%
%TO.N,unconnected-(U2-IO35-Pad6)*%
X112570000Y-77455000D03*
%TO.P,U2,7,IO32*%
%TO.N,unconnected-(U2-IO32-Pad7)*%
X112570000Y-79995000D03*
%TO.P,U2,8,IO33*%
%TO.N,MODE_PD*%
X112570000Y-82535000D03*
%TO.P,U2,9,IO26*%
%TO.N,!PWDN*%
X112570000Y-85075000D03*
%TO.P,U2,10,IO27*%
%TO.N,CS_Display*%
X112570000Y-87615000D03*
%TO.P,U2,11,IO14*%
%TO.N,SPI_CLK*%
X112570000Y-90155000D03*
%TO.P,U2,12,IO12*%
%TO.N,bat_adc*%
X112570000Y-92695000D03*
%TO.P,U2,13,IO13*%
%TO.N,TARA_PD*%
X112570000Y-95235000D03*
%TO.P,U2,14,GND*%
%TO.N,GND*%
X112570000Y-97775000D03*
%TO.P,U2,15,5V*%
%TO.N,+5V*%
X112570000Y-100315000D03*
%TO.P,U2,16,3V3*%
%TO.N,+3.3V*%
X135430000Y-100315000D03*
%TO.P,U2,17,GND*%
%TO.N,GND*%
X135430000Y-97775000D03*
%TO.P,U2,18,IO15*%
%TO.N,SCLK*%
X135430000Y-95235000D03*
%TO.P,U2,19,IO2*%
%TO.N,D_RDY_OUT*%
X135430000Y-92695000D03*
%TO.P,U2,20,IO4*%
%TO.N,unconnected-(U2-IO4-Pad20)*%
X135430000Y-90155000D03*
%TO.P,U2,21,IO16*%
%TO.N,unconnected-(U2-IO16-Pad21)*%
X135430000Y-87615000D03*
%TO.P,U2,22,IO17*%
%TO.N,!EN_DMS*%
X135430000Y-85075000D03*
%TO.P,U2,23,IO5*%
%TO.N,!en_meas*%
X135430000Y-82535000D03*
%TO.P,U2,24,IO18*%
%TO.N,unconnected-(U2-IO18-Pad24)*%
X135430000Y-79995000D03*
%TO.P,U2,25,IO19*%
%TO.N,MISO*%
X135430000Y-77455000D03*
%TO.P,U2,26,IO21*%
%TO.N,SDA*%
X135430000Y-74915000D03*
%TO.P,U2,27,IO3*%
%TO.N,unconnected-(U2-IO3-Pad27)*%
X135430000Y-72375000D03*
%TO.P,U2,28,IO1*%
%TO.N,unconnected-(U2-IO1-Pad28)*%
X135430000Y-69835000D03*
%TO.P,U2,29,IO23*%
%TO.N,SCL*%
X135430000Y-67295000D03*
%TO.P,U2,30,IO23*%
%TO.N,MOSI*%
X135430000Y-64755000D03*
%TD*%
D10*
%TO.P,J1,1,Pin_1*%
%TO.N,GND*%
X112570000Y-104500000D03*
D11*
%TO.P,J1,2,Pin_2*%
%TO.N,Net-(J1-Pin_2)*%
X115110000Y-104500000D03*
%TO.P,J1,3,Pin_3*%
%TO.N,Net-(J1-Pin_3)*%
X117650000Y-104500000D03*
%TO.P,J1,4,Pin_4*%
%TO.N,Net-(J1-Pin_4)*%
X120190000Y-104500000D03*
%TO.P,J1,5,Pin_5*%
%TO.N,Net-(J1-Pin_5)*%
X122730000Y-104500000D03*
%TO.P,J1,6,Pin_6*%
%TO.N,Net-(J1-Pin_6)*%
X125270000Y-104500000D03*
%TO.P,J1,7,Pin_7*%
%TO.N,Net-(J1-Pin_7)*%
X127810000Y-104500000D03*
%TO.P,J1,8,Pin_8*%
%TO.N,Net-(J1-Pin_8)*%
X130350000Y-104500000D03*
%TO.P,J1,9,Pin_9*%
%TO.N,Net-(J1-Pin_9)*%
X132890000Y-104500000D03*
%TO.P,J1,10,Pin_10*%
%TO.N,Net-(J1-Pin_10)*%
X135430000Y-104500000D03*
%TD*%
D14*
%TO.N,+3.3V*%
X129100000Y-83499000D03*
X132290000Y-99700000D03*
X130200000Y-90201000D03*
X129700000Y-88200000D03*
X118200000Y-96900000D03*
X119900000Y-96900000D03*
X134301000Y-99700000D03*
X129100000Y-85501000D03*
%TO.N,GND*%
X130300000Y-80400000D03*
X126300000Y-90900000D03*
X128600000Y-99400000D03*
X114400000Y-97800000D03*
X123800000Y-99500000D03*
X128300000Y-90800000D03*
X112600000Y-102400000D03*
X126900000Y-90900000D03*
X127100000Y-110200000D03*
X128100000Y-83200000D03*
X129000000Y-90700000D03*
X125800000Y-81000000D03*
X127500000Y-90900000D03*
X125356985Y-99343015D03*
X130300000Y-81000000D03*
X134400000Y-98800000D03*
X130800000Y-77000000D03*
X125000000Y-100800000D03*
%TO.N,Net-(J1-Pin_2)*%
X129000000Y-101400000D03*
X129000000Y-103400000D03*
%TO.N,Net-(J1-Pin_9)*%
X121100000Y-88700000D03*
X121100000Y-89900000D03*
%TO.N,Net-(J1-Pin_10)*%
X133900000Y-90700000D03*
X132290000Y-90700000D03*
X121900000Y-89900000D03*
X122100000Y-88700000D03*
%TO.N,Net-(J1-Pin_6)*%
X122300000Y-96300000D03*
X121855000Y-99558085D03*
%TO.N,Net-(J1-Pin_5)*%
X120790000Y-101500000D03*
X119189000Y-100500000D03*
%TO.N,!EN_DMS*%
X120299997Y-89900000D03*
X132025735Y-85374265D03*
X133488925Y-85140396D03*
X120300000Y-88700000D03*
%TO.N,-BATT*%
X113235000Y-108200000D03*
X118591060Y-86757470D03*
X116925735Y-86725735D03*
X114950000Y-108450000D03*
%TO.N,SDA*%
X126400000Y-75500000D03*
X125200000Y-75500000D03*
%TO.N,D_RDY_OUT*%
X132290000Y-92800000D03*
X134301000Y-92800000D03*
%TO.N,SCLK*%
X134301000Y-96500000D03*
X132290000Y-96800000D03*
%TO.N,!PWDN*%
X116399265Y-88949265D03*
X114822500Y-87327500D03*
%TD*%
D15*
%TO.N,+3.3V*%
X129700000Y-89701000D02*
X130200000Y-90201000D01*
X118200000Y-96900000D02*
X119900000Y-96900000D01*
X132290000Y-99700000D02*
X134301000Y-99700000D01*
X129700000Y-88200000D02*
X129700000Y-89701000D01*
X129100000Y-83499000D02*
X129100000Y-85501000D01*
%TO.N,Net-(J1-Pin_2)*%
X129000000Y-103400000D02*
X129000000Y-101400000D01*
%TO.N,Net-(J1-Pin_9)*%
X121100000Y-89900000D02*
X121100000Y-88700000D01*
%TO.N,Net-(J1-Pin_10)*%
X122100000Y-89700000D02*
X121900000Y-89900000D01*
X133900000Y-90700000D02*
X132290000Y-90700000D01*
X122100000Y-88700000D02*
X122100000Y-89700000D01*
%TO.N,Net-(J1-Pin_6)*%
X121855000Y-96745000D02*
X122300000Y-96300000D01*
X121855000Y-99558085D02*
X121855000Y-96745000D01*
%TO.N,Net-(J1-Pin_5)*%
X119689000Y-101000000D02*
X119189000Y-100500000D01*
X119189000Y-100500000D02*
X119189000Y-100469530D01*
X120290000Y-101000000D02*
X119689000Y-101000000D01*
X120790000Y-101500000D02*
X120290000Y-101000000D01*
%TO.N,!EN_DMS*%
X120299997Y-89900000D02*
X120299997Y-88700003D01*
X133255056Y-85374265D02*
X133488925Y-85140396D01*
X132025735Y-85374265D02*
X133255056Y-85374265D01*
X120299997Y-88700003D02*
X120300000Y-88700000D01*
%TO.N,-BATT*%
X114950000Y-108450000D02*
X113485000Y-108450000D01*
X113485000Y-108450000D02*
X113235000Y-108200000D01*
X118559325Y-86725735D02*
X118591060Y-86757470D01*
X116925735Y-86725735D02*
X118559325Y-86725735D01*
%TO.N,SDA*%
X125200000Y-75500000D02*
X126400000Y-75500000D01*
%TO.N,D_RDY_OUT*%
X132290000Y-92800000D02*
X134301000Y-92800000D01*
%TO.N,SCLK*%
X134301000Y-96500000D02*
X132590000Y-96500000D01*
X132590000Y-96500000D02*
X132290000Y-96800000D01*
%TO.N,!PWDN*%
X115600735Y-88105735D02*
X115600735Y-88150735D01*
X114822500Y-87327500D02*
X115600735Y-88105735D01*
X115600735Y-88150735D02*
X116399265Y-88949265D01*
%TD*%
%TA.AperFunction,Conductor*%
%TO.N,GND*%
G36*
X112820000Y-105850000D02*
G01*
X113467828Y-105850000D01*
X113467844Y-105849999D01*
X113527372Y-105843598D01*
X113527379Y-105843596D01*
X113662086Y-105793354D01*
X113662093Y-105793350D01*
X113777187Y-105707190D01*
X113777190Y-105707187D01*
X113863350Y-105592093D01*
X113863354Y-105592086D01*
X113912422Y-105460529D01*
X113954293Y-105404595D01*
X114019757Y-105380178D01*
X114088030Y-105395030D01*
X114116285Y-105416181D01*
X114230213Y-105530109D01*
X114402179Y-105655048D01*
X114402181Y-105655049D01*
X114402184Y-105655051D01*
X114591588Y-105751557D01*
X114793757Y-105817246D01*
X115003713Y-105850500D01*
X115003714Y-105850500D01*
X115216286Y-105850500D01*
X115216287Y-105850500D01*
X115426243Y-105817246D01*
X115628412Y-105751557D01*
X115817816Y-105655051D01*
X115904471Y-105592093D01*
X115989786Y-105530109D01*
X115989788Y-105530106D01*
X115989792Y-105530104D01*
X116140104Y-105379792D01*
X116140106Y-105379788D01*
X116140109Y-105379786D01*
X116265048Y-105207820D01*
X116265047Y-105207820D01*
X116265051Y-105207816D01*
X116269514Y-105199054D01*
X116317488Y-105148259D01*
X116385308Y-105131463D01*
X116451444Y-105153999D01*
X116490486Y-105199056D01*
X116494951Y-105207820D01*
X116619890Y-105379786D01*
X116770213Y-105530109D01*
X116942179Y-105655048D01*
X116942181Y-105655049D01*
X116942184Y-105655051D01*
X117131588Y-105751557D01*
X117333757Y-105817246D01*
X117543713Y-105850500D01*
X117543714Y-105850500D01*
X117756286Y-105850500D01*
X117756287Y-105850500D01*
X117966243Y-105817246D01*
X118168412Y-105751557D01*
X118357816Y-105655051D01*
X118444471Y-105592093D01*
X118529786Y-105530109D01*
X118529788Y-105530106D01*
X118529792Y-105530104D01*
X118680104Y-105379792D01*
X118680106Y-105379788D01*
X118680109Y-105379786D01*
X118805048Y-105207820D01*
X118805047Y-105207820D01*
X118805051Y-105207816D01*
X118809514Y-105199054D01*
X118857488Y-105148259D01*
X118925308Y-105131463D01*
X118991444Y-105153999D01*
X119030486Y-105199056D01*
X119034951Y-105207820D01*
X119159890Y-105379786D01*
X119310213Y-105530109D01*
X119482179Y-105655048D01*
X119482181Y-105655049D01*
X119482184Y-105655051D01*
X119671588Y-105751557D01*
X119873757Y-105817246D01*
X120083713Y-105850500D01*
X120083714Y-105850500D01*
X120296286Y-105850500D01*
X120296287Y-105850500D01*
X120506243Y-105817246D01*
X120708412Y-105751557D01*
X120897816Y-105655051D01*
X120984471Y-105592093D01*
X121069786Y-105530109D01*
X121069788Y-105530106D01*
X121069792Y-105530104D01*
X121220104Y-105379792D01*
X121220106Y-105379788D01*
X121220109Y-105379786D01*
X121345048Y-105207820D01*
X121345047Y-105207820D01*
X121345051Y-105207816D01*
X121349514Y-105199054D01*
X121397488Y-105148259D01*
X121465308Y-105131463D01*
X121531444Y-105153999D01*
X121570486Y-105199056D01*
X121574951Y-105207820D01*
X121699890Y-105379786D01*
X121850213Y-105530109D01*
X122022179Y-105655048D01*
X122022181Y-105655049D01*
X122022184Y-105655051D01*
X122211588Y-105751557D01*
X122413757Y-105817246D01*
X122623713Y-105850500D01*
X122623714Y-105850500D01*
X122836286Y-105850500D01*
X122836287Y-105850500D01*
X123046243Y-105817246D01*
X123248412Y-105751557D01*
X123437816Y-105655051D01*
X123524471Y-105592093D01*
X123609786Y-105530109D01*
X123609788Y-105530106D01*
X123609792Y-105530104D01*
X123760104Y-105379792D01*
X123760106Y-105379788D01*
X123760109Y-105379786D01*
X123885048Y-105207820D01*
X123885047Y-105207820D01*
X123885051Y-105207816D01*
X123889514Y-105199054D01*
X123937488Y-105148259D01*
X124005308Y-105131463D01*
X124071444Y-105153999D01*
X124110486Y-105199056D01*
X124114951Y-105207820D01*
X124239890Y-105379786D01*
X124390213Y-105530109D01*
X124562179Y-105655048D01*
X124562181Y-105655049D01*
X124562184Y-105655051D01*
X124751588Y-105751557D01*
X124953757Y-105817246D01*
X125163713Y-105850500D01*
X125163714Y-105850500D01*
X125376286Y-105850500D01*
X125376287Y-105850500D01*
X125586243Y-105817246D01*
X125788412Y-105751557D01*
X125977816Y-105655051D01*
X126064471Y-105592093D01*
X126149786Y-105530109D01*
X126149788Y-105530106D01*
X126149792Y-105530104D01*
X126300104Y-105379792D01*
X126300106Y-105379788D01*
X126300109Y-105379786D01*
X126425048Y-105207820D01*
X126425047Y-105207820D01*
X126425051Y-105207816D01*
X126429514Y-105199054D01*
X126477488Y-105148259D01*
X126545308Y-105131463D01*
X126611444Y-105153999D01*
X126650486Y-105199056D01*
X126654951Y-105207820D01*
X126779890Y-105379786D01*
X126930213Y-105530109D01*
X127102179Y-105655048D01*
X127102181Y-105655049D01*
X127102184Y-105655051D01*
X127291588Y-105751557D01*
X127493757Y-105817246D01*
X127703713Y-105850500D01*
X127703714Y-105850500D01*
X127916286Y-105850500D01*
X127916287Y-105850500D01*
X128126243Y-105817246D01*
X128328412Y-105751557D01*
X128517816Y-105655051D01*
X128604471Y-105592093D01*
X128689786Y-105530109D01*
X128689788Y-105530106D01*
X128689792Y-105530104D01*
X128840104Y-105379792D01*
X128840106Y-105379788D01*
X128840109Y-105379786D01*
X128965048Y-105207820D01*
X128965047Y-105207820D01*
X128965051Y-105207816D01*
X128969514Y-105199054D01*
X129017488Y-105148259D01*
X129085308Y-105131463D01*
X129151444Y-105153999D01*
X129190486Y-105199056D01*
X129194951Y-105207820D01*
X129319890Y-105379786D01*
X129470213Y-105530109D01*
X129642179Y-105655048D01*
X129642181Y-105655049D01*
X129642184Y-105655051D01*
X129831588Y-105751557D01*
X130033757Y-105817246D01*
X130243713Y-105850500D01*
X130243714Y-105850500D01*
X130456286Y-105850500D01*
X130456287Y-105850500D01*
X130666243Y-105817246D01*
X130868412Y-105751557D01*
X131057816Y-105655051D01*
X131144471Y-105592093D01*
X131229786Y-105530109D01*
X131229788Y-105530106D01*
X131229792Y-105530104D01*
X131380104Y-105379792D01*
X131380106Y-105379788D01*
X131380109Y-105379786D01*
X131505048Y-105207820D01*
X131505047Y-105207820D01*
X131505051Y-105207816D01*
X131509514Y-105199054D01*
X131557488Y-105148259D01*
X131625308Y-105131463D01*
X131691444Y-105153999D01*
X131730486Y-105199056D01*
X131734951Y-105207820D01*
X131859890Y-105379786D01*
X132010213Y-105530109D01*
X132182179Y-105655048D01*
X132182181Y-105655049D01*
X132182184Y-105655051D01*
X132371588Y-105751557D01*
X132573757Y-105817246D01*
X132783713Y-105850500D01*
X132783714Y-105850500D01*
X132996286Y-105850500D01*
X132996287Y-105850500D01*
X133206243Y-105817246D01*
X133408412Y-105751557D01*
X133597816Y-105655051D01*
X133684471Y-105592093D01*
X133769786Y-105530109D01*
X133769788Y-105530106D01*
X133769792Y-105530104D01*
X133920104Y-105379792D01*
X133920106Y-105379788D01*
X133920109Y-105379786D01*
X134045048Y-105207820D01*
X134045047Y-105207820D01*
X134045051Y-105207816D01*
X134049514Y-105199054D01*
X134097488Y-105148259D01*
X134165308Y-105131463D01*
X134231444Y-105153999D01*
X134270486Y-105199056D01*
X134274951Y-105207820D01*
X134399890Y-105379786D01*
X134550213Y-105530109D01*
X134722179Y-105655048D01*
X134722181Y-105655049D01*
X134722184Y-105655051D01*
X134911588Y-105751557D01*
X135113757Y-105817246D01*
X135323713Y-105850500D01*
X135323714Y-105850500D01*
X135536286Y-105850500D01*
X135536287Y-105850500D01*
X135746243Y-105817246D01*
X135948412Y-105751557D01*
X136137816Y-105655051D01*
X136224471Y-105592093D01*
X136309786Y-105530109D01*
X136309788Y-105530106D01*
X136309792Y-105530104D01*
X136388319Y-105451577D01*
X136449642Y-105418092D01*
X136519334Y-105423076D01*
X136575267Y-105464948D01*
X136599684Y-105530412D01*
X136600000Y-105539258D01*
X136600000Y-111768731D01*
X136595709Y-111783341D01*
X136596360Y-111798553D01*
X136586066Y-111816182D01*
X136580315Y-111835770D01*
X136568265Y-111846670D01*
X136561130Y-111858891D01*
X136532281Y-111879223D01*
X136529132Y-111880827D01*
X136492251Y-111892808D01*
X136479663Y-111894801D01*
X136459638Y-111897973D01*
X136440244Y-111899500D01*
X135259555Y-111899500D01*
X135192516Y-111879815D01*
X135146761Y-111827011D01*
X135136817Y-111757853D01*
X135165842Y-111694297D01*
X135203261Y-111665015D01*
X135209796Y-111661684D01*
X135222816Y-111655051D01*
X135309138Y-111592335D01*
X135394786Y-111530109D01*
X135394788Y-111530106D01*
X135394792Y-111530104D01*
X135545104Y-111379792D01*
X135545106Y-111379788D01*
X135545109Y-111379786D01*
X135670048Y-111207820D01*
X135670047Y-111207820D01*
X135670051Y-111207816D01*
X135766557Y-111018412D01*
X135832246Y-110816243D01*
X135865500Y-110606287D01*
X135865500Y-110393713D01*
X135832246Y-110183757D01*
X135766557Y-109981588D01*
X135670051Y-109792184D01*
X135670049Y-109792181D01*
X135670048Y-109792179D01*
X135545109Y-109620213D01*
X135394786Y-109469890D01*
X135222820Y-109344951D01*
X135033414Y-109248444D01*
X135033413Y-109248443D01*
X135033412Y-109248443D01*
X134831243Y-109182754D01*
X134831241Y-109182753D01*
X134831240Y-109182753D01*
X134669957Y-109157208D01*
X134621287Y-109149500D01*
X134408713Y-109149500D01*
X134360042Y-109157208D01*
X134198760Y-109182753D01*
X133996585Y-109248444D01*
X133807179Y-109344951D01*
X133635215Y-109469889D01*
X133521673Y-109583431D01*
X133460350Y-109616915D01*
X133390658Y-109611931D01*
X133334725Y-109570059D01*
X133317810Y-109539082D01*
X133268797Y-109407671D01*
X133268793Y-109407664D01*
X133182547Y-109292455D01*
X133182544Y-109292452D01*
X133067335Y-109206206D01*
X133067328Y-109206202D01*
X132932482Y-109155908D01*
X132932483Y-109155908D01*
X132872883Y-109149501D01*
X132872881Y-109149500D01*
X132872873Y-109149500D01*
X132872864Y-109149500D01*
X131077129Y-109149500D01*
X131077123Y-109149501D01*
X131017516Y-109155908D01*
X130882671Y-109206202D01*
X130882664Y-109206206D01*
X130767455Y-109292452D01*
X130767452Y-109292455D01*
X130681206Y-109407664D01*
X130681202Y-109407671D01*
X130630908Y-109542517D01*
X130624501Y-109602116D01*
X130624500Y-109602135D01*
X130624500Y-111397870D01*
X130624501Y-111397876D01*
X130630908Y-111457483D01*
X130681202Y-111592328D01*
X130681206Y-111592335D01*
X130762695Y-111701189D01*
X130787113Y-111766653D01*
X130772262Y-111834926D01*
X130722857Y-111884332D01*
X130663429Y-111899500D01*
X111323080Y-111899500D01*
X111256041Y-111879815D01*
X111210286Y-111827011D01*
X111199082Y-111776012D01*
X111191367Y-109893713D01*
X111634500Y-109893713D01*
X111634500Y-110106286D01*
X111667753Y-110316239D01*
X111733444Y-110518414D01*
X111829951Y-110707820D01*
X111954890Y-110879786D01*
X112105213Y-111030109D01*
X112277179Y-111155048D01*
X112277181Y-111155049D01*
X112277184Y-111155051D01*
X112466588Y-111251557D01*
X112668757Y-111317246D01*
X112878713Y-111350500D01*
X112878714Y-111350500D01*
X113091286Y-111350500D01*
X113091287Y-111350500D01*
X113301243Y-111317246D01*
X113503412Y-111251557D01*
X113692816Y-111155051D01*
X113837899Y-111049643D01*
X113864784Y-111030110D01*
X113864784Y-111030109D01*
X113864792Y-111030104D01*
X113978329Y-110916566D01*
X114039648Y-110883084D01*
X114109340Y-110888068D01*
X114165274Y-110929939D01*
X114182189Y-110960917D01*
X114231202Y-111092328D01*
X114231206Y-111092335D01*
X114317452Y-111207544D01*
X114317455Y-111207547D01*
X114432664Y-111293793D01*
X114432671Y-111293797D01*
X114567517Y-111344091D01*
X114567516Y-111344091D01*
X114574444Y-111344835D01*
X114627127Y-111350500D01*
X116422872Y-111350499D01*
X116482483Y-111344091D01*
X116617331Y-111293796D01*
X116732546Y-111207546D01*
X116818796Y-111092331D01*
X116869091Y-110957483D01*
X116875500Y-110897873D01*
X116875499Y-109352135D01*
X120874500Y-109352135D01*
X120874500Y-111147870D01*
X120874501Y-111147876D01*
X120880908Y-111207483D01*
X120931202Y-111342328D01*
X120931206Y-111342335D01*
X121017452Y-111457544D01*
X121017455Y-111457547D01*
X121132664Y-111543793D01*
X121132671Y-111543797D01*
X121267517Y-111594091D01*
X121267516Y-111594091D01*
X121274444Y-111594835D01*
X121327127Y-111600500D01*
X123122872Y-111600499D01*
X123182483Y-111594091D01*
X123317331Y-111543796D01*
X123432546Y-111457546D01*
X123518796Y-111342331D01*
X123569091Y-111207483D01*
X123575500Y-111147873D01*
X123575499Y-111123979D01*
X123578330Y-111110963D01*
X123588940Y-111091525D01*
X123595179Y-111070275D01*
X123611803Y-111049643D01*
X123611808Y-111049636D01*
X123611811Y-111049634D01*
X123611818Y-111049626D01*
X124282037Y-110379408D01*
X124299075Y-110442993D01*
X124364901Y-110557007D01*
X124457993Y-110650099D01*
X124572007Y-110715925D01*
X124635590Y-110732962D01*
X124003282Y-111365269D01*
X124003282Y-111365270D01*
X124057449Y-111404624D01*
X124246782Y-111501095D01*
X124448870Y-111566757D01*
X124658754Y-111600000D01*
X124871246Y-111600000D01*
X125081127Y-111566757D01*
X125081130Y-111566757D01*
X125283217Y-111501095D01*
X125472554Y-111404622D01*
X125526716Y-111365270D01*
X125526717Y-111365270D01*
X124894408Y-110732962D01*
X124957993Y-110715925D01*
X125072007Y-110650099D01*
X125165099Y-110557007D01*
X125230925Y-110442993D01*
X125247962Y-110379408D01*
X125880270Y-111011717D01*
X125880270Y-111011716D01*
X125919622Y-110957554D01*
X126016095Y-110768217D01*
X126081757Y-110566130D01*
X126081757Y-110566127D01*
X126115000Y-110356246D01*
X126115000Y-110143753D01*
X126081757Y-109933872D01*
X126081757Y-109933869D01*
X126016095Y-109731782D01*
X125919624Y-109542449D01*
X125880270Y-109488282D01*
X125880269Y-109488282D01*
X125247962Y-110120590D01*
X125230925Y-110057007D01*
X125165099Y-109942993D01*
X125072007Y-109849901D01*
X124957993Y-109784075D01*
X124894409Y-109767037D01*
X125526716Y-109134728D01*
X125472550Y-109095375D01*
X125283217Y-108998904D01*
X125081129Y-108933242D01*
X124871246Y-108900000D01*
X124658754Y-108900000D01*
X124448872Y-108933242D01*
X124448869Y-108933242D01*
X124246782Y-108998904D01*
X124057439Y-109095380D01*
X124003282Y-109134727D01*
X124003282Y-109134728D01*
X124635591Y-109767037D01*
X124572007Y-109784075D01*
X124457993Y-109849901D01*
X124364901Y-109942993D01*
X124299075Y-110057007D01*
X124282037Y-110120591D01*
X123611818Y-109450372D01*
X123578333Y-109389049D01*
X123578330Y-109389036D01*
X123575499Y-109376015D01*
X123575499Y-109352128D01*
X123569091Y-109292517D01*
X123536899Y-109206206D01*
X123518798Y-109157673D01*
X123518793Y-109157664D01*
X123432547Y-109042455D01*
X123432544Y-109042452D01*
X123317335Y-108956206D01*
X123317328Y-108956202D01*
X123182482Y-108905908D01*
X123182483Y-108905908D01*
X123122883Y-108899501D01*
X123122881Y-108899500D01*
X123122873Y-108899500D01*
X123122864Y-108899500D01*
X121327129Y-108899500D01*
X121327123Y-108899501D01*
X121267516Y-108905908D01*
X121132671Y-108956202D01*
X121132664Y-108956206D01*
X121017455Y-109042452D01*
X121017452Y-109042455D01*
X120931206Y-109157664D01*
X120931202Y-109157671D01*
X120880908Y-109292517D01*
X120874501Y-109352116D01*
X120874500Y-109352135D01*
X116875499Y-109352135D01*
X116875499Y-109102128D01*
X116869091Y-109042517D01*
X116852824Y-108998904D01*
X116818797Y-108907671D01*
X116818793Y-108907664D01*
X116732547Y-108792455D01*
X116732544Y-108792452D01*
X116617335Y-108706206D01*
X116617328Y-108706202D01*
X116482482Y-108655908D01*
X116482483Y-108655908D01*
X116422883Y-108649501D01*
X116422881Y-108649500D01*
X116422873Y-108649500D01*
X116422865Y-108649500D01*
X115874500Y-108649500D01*
X115807461Y-108629815D01*
X115761706Y-108577011D01*
X115750500Y-108525500D01*
X115750500Y-108371155D01*
X115750499Y-108371153D01*
X115719738Y-108216510D01*
X115719737Y-108216503D01*
X115680242Y-108121153D01*
X115659397Y-108070827D01*
X115659390Y-108070814D01*
X115571789Y-107939711D01*
X115571786Y-107939707D01*
X115460292Y-107828213D01*
X115460288Y-107828210D01*
X115329185Y-107740609D01*
X115329172Y-107740602D01*
X115183501Y-107680264D01*
X115183489Y-107680261D01*
X115028845Y-107649500D01*
X115028842Y-107649500D01*
X114871158Y-107649500D01*
X114871155Y-107649500D01*
X114716510Y-107680261D01*
X114716498Y-107680264D01*
X114570827Y-107740602D01*
X114570814Y-107740609D01*
X114439125Y-107828602D01*
X114372447Y-107849480D01*
X114370234Y-107849500D01*
X114029836Y-107849500D01*
X113962797Y-107829815D01*
X113926734Y-107794391D01*
X113856789Y-107689710D01*
X113745292Y-107578213D01*
X113745288Y-107578210D01*
X113614185Y-107490609D01*
X113614172Y-107490602D01*
X113468501Y-107430264D01*
X113468489Y-107430261D01*
X113313845Y-107399500D01*
X113313842Y-107399500D01*
X113156158Y-107399500D01*
X113156155Y-107399500D01*
X113001510Y-107430261D01*
X113001498Y-107430264D01*
X112855827Y-107490602D01*
X112855814Y-107490609D01*
X112724711Y-107578210D01*
X112724707Y-107578213D01*
X112613213Y-107689707D01*
X112613210Y-107689711D01*
X112525609Y-107820814D01*
X112525602Y-107820827D01*
X112465264Y-107966498D01*
X112465261Y-107966510D01*
X112434500Y-108121153D01*
X112434500Y-108278846D01*
X112465261Y-108433489D01*
X112465264Y-108433501D01*
X112527937Y-108584807D01*
X112526244Y-108585507D01*
X112538727Y-108645511D01*
X112513716Y-108710751D01*
X112470015Y-108744438D01*
X112470929Y-108746231D01*
X112277179Y-108844951D01*
X112105213Y-108969890D01*
X111954890Y-109120213D01*
X111829951Y-109292179D01*
X111733444Y-109481585D01*
X111667753Y-109683760D01*
X111634500Y-109893713D01*
X111191367Y-109893713D01*
X111174649Y-105814557D01*
X111194059Y-105747441D01*
X111246675Y-105701470D01*
X111315792Y-105691243D01*
X111372960Y-105714786D01*
X111477910Y-105793352D01*
X111477913Y-105793354D01*
X111612620Y-105843596D01*
X111612627Y-105843598D01*
X111672155Y-105849999D01*
X111672172Y-105850000D01*
X112320000Y-105850000D01*
X112320000Y-104933012D01*
X112377007Y-104965925D01*
X112504174Y-105000000D01*
X112635826Y-105000000D01*
X112762993Y-104965925D01*
X112820000Y-104933012D01*
X112820000Y-105850000D01*
G37*
%TD.AperFunction*%
%TA.AperFunction,Conductor*%
G36*
X134846245Y-63386298D02*
G01*
X134913126Y-63406505D01*
X134958467Y-63459665D01*
X134967870Y-63528899D01*
X134938350Y-63592226D01*
X134901569Y-63620779D01*
X134774594Y-63685476D01*
X134683741Y-63751485D01*
X134615354Y-63801172D01*
X134615352Y-63801174D01*
X134615351Y-63801174D01*
X134476174Y-63940351D01*
X134476174Y-63940352D01*
X134476172Y-63940354D01*
X134454534Y-63970136D01*
X134360476Y-64099594D01*
X134271117Y-64274970D01*
X134210290Y-64462173D01*
X134179500Y-64656577D01*
X134179500Y-64853422D01*
X134210290Y-65047826D01*
X134271117Y-65235029D01*
X134360476Y-65410405D01*
X134476172Y-65569646D01*
X134615354Y-65708828D01*
X134774595Y-65824524D01*
X134849214Y-65862544D01*
X134951213Y-65914515D01*
X135002009Y-65962489D01*
X135018804Y-66030310D01*
X134996267Y-66096445D01*
X134951213Y-66135485D01*
X134774594Y-66225476D01*
X134683741Y-66291485D01*
X134615354Y-66341172D01*
X134615352Y-66341174D01*
X134615351Y-66341174D01*
X134476174Y-66480351D01*
X134476174Y-66480352D01*
X134476172Y-66480354D01*
X134454534Y-66510136D01*
X134360476Y-66639594D01*
X134271117Y-66814970D01*
X134210290Y-67002173D01*
X134179500Y-67196577D01*
X134179500Y-67393422D01*
X134210290Y-67587826D01*
X134271117Y-67775029D01*
X134360476Y-67950405D01*
X134476172Y-68109646D01*
X134615354Y-68248828D01*
X134774595Y-68364524D01*
X134897992Y-68427397D01*
X134951213Y-68454515D01*
X135002009Y-68502489D01*
X135018804Y-68570310D01*
X134996267Y-68636445D01*
X134951213Y-68675485D01*
X134774594Y-68765476D01*
X134683741Y-68831485D01*
X134615354Y-68881172D01*
X134615352Y-68881174D01*
X134615351Y-68881174D01*
X134476174Y-69020351D01*
X134476174Y-69020352D01*
X134476172Y-69020354D01*
X134454534Y-69050136D01*
X134360476Y-69179594D01*
X134271117Y-69354970D01*
X134210290Y-69542173D01*
X134179500Y-69736577D01*
X134179500Y-69933422D01*
X134210290Y-70127826D01*
X134271117Y-70315029D01*
X134360476Y-70490405D01*
X134476172Y-70649646D01*
X134615354Y-70788828D01*
X134774595Y-70904524D01*
X134897992Y-70967397D01*
X134951213Y-70994515D01*
X135002009Y-71042489D01*
X135018804Y-71110310D01*
X134996267Y-71176445D01*
X134951213Y-71215485D01*
X134774594Y-71305476D01*
X134683741Y-71371485D01*
X134615354Y-71421172D01*
X134615352Y-71421174D01*
X134615351Y-71421174D01*
X134476174Y-71560351D01*
X134476174Y-71560352D01*
X134476172Y-71560354D01*
X134454534Y-71590136D01*
X134360476Y-71719594D01*
X134271117Y-71894970D01*
X134210290Y-72082173D01*
X134179500Y-72276577D01*
X134179500Y-72473422D01*
X134210290Y-72667826D01*
X134271117Y-72855029D01*
X134360476Y-73030405D01*
X134476172Y-73189646D01*
X134615354Y-73328828D01*
X134774595Y-73444524D01*
X134897992Y-73507397D01*
X134951213Y-73534515D01*
X135002009Y-73582489D01*
X135018804Y-73650310D01*
X134996267Y-73716445D01*
X134951213Y-73755485D01*
X134774594Y-73845476D01*
X134683741Y-73911485D01*
X134615354Y-73961172D01*
X134615352Y-73961174D01*
X134615351Y-73961174D01*
X134476174Y-74100351D01*
X134476174Y-74100352D01*
X134476172Y-74100354D01*
X134454534Y-74130136D01*
X134360476Y-74259594D01*
X134271117Y-74434970D01*
X134210290Y-74622173D01*
X134179500Y-74816577D01*
X134179500Y-75013422D01*
X134210290Y-75207826D01*
X134271117Y-75395029D01*
X134360476Y-75570405D01*
X134476172Y-75729646D01*
X134615354Y-75868828D01*
X134774595Y-75984524D01*
X134825168Y-76010292D01*
X134951213Y-76074515D01*
X135002009Y-76122489D01*
X135018804Y-76190310D01*
X134996267Y-76256445D01*
X134951213Y-76295485D01*
X134774594Y-76385476D01*
X134683741Y-76451485D01*
X134615354Y-76501172D01*
X134615352Y-76501174D01*
X134615351Y-76501174D01*
X134476174Y-76640351D01*
X134476174Y-76640352D01*
X134476172Y-76640354D01*
X134454534Y-76670136D01*
X134360476Y-76799594D01*
X134271117Y-76974970D01*
X134210290Y-77162173D01*
X134179500Y-77356577D01*
X134179500Y-77553422D01*
X134210290Y-77747826D01*
X134271117Y-77935029D01*
X134360476Y-78110405D01*
X134476172Y-78269646D01*
X134615354Y-78408828D01*
X134774595Y-78524524D01*
X134897992Y-78587397D01*
X134951213Y-78614515D01*
X135002009Y-78662489D01*
X135018804Y-78730310D01*
X134996267Y-78796445D01*
X134951213Y-78835485D01*
X134774594Y-78925476D01*
X134683741Y-78991485D01*
X134615354Y-79041172D01*
X134615352Y-79041174D01*
X134615351Y-79041174D01*
X134476174Y-79180351D01*
X134476174Y-79180352D01*
X134476172Y-79180354D01*
X134454534Y-79210136D01*
X134360476Y-79339594D01*
X134271117Y-79514970D01*
X134210290Y-79702173D01*
X134179500Y-79896577D01*
X134179500Y-80093422D01*
X134210290Y-80287826D01*
X134271117Y-80475029D01*
X134360476Y-80650405D01*
X134476172Y-80809646D01*
X134615354Y-80948828D01*
X134774595Y-81064524D01*
X134897992Y-81127397D01*
X134951213Y-81154515D01*
X135002009Y-81202489D01*
X135018804Y-81270310D01*
X134996267Y-81336445D01*
X134951213Y-81375485D01*
X134774594Y-81465476D01*
X134683741Y-81531485D01*
X134615354Y-81581172D01*
X134615352Y-81581174D01*
X134615351Y-81581174D01*
X134476174Y-81720351D01*
X134476174Y-81720352D01*
X134476172Y-81720354D01*
X134454534Y-81750136D01*
X134360476Y-81879594D01*
X134271117Y-82054970D01*
X134210290Y-82242173D01*
X134179500Y-82436577D01*
X134179500Y-82633422D01*
X134210290Y-82827826D01*
X134271117Y-83015029D01*
X134324515Y-83119827D01*
X134360476Y-83190405D01*
X134476172Y-83349646D01*
X134615354Y-83488828D01*
X134774595Y-83604524D01*
X134897992Y-83667397D01*
X134951213Y-83694515D01*
X135002009Y-83742489D01*
X135018804Y-83810310D01*
X134996267Y-83876445D01*
X134951213Y-83915485D01*
X134774594Y-84005476D01*
X134740045Y-84030578D01*
X134615354Y-84121172D01*
X134615352Y-84121174D01*
X134615351Y-84121174D01*
X134476174Y-84260351D01*
X134476174Y-84260352D01*
X134476172Y-84260354D01*
X134454534Y-84290136D01*
X134360476Y-84419594D01*
X134282598Y-84572438D01*
X134234623Y-84623234D01*
X134166802Y-84640029D01*
X134100667Y-84617491D01*
X134084432Y-84603824D01*
X133999217Y-84518609D01*
X133999213Y-84518606D01*
X133868110Y-84431005D01*
X133868097Y-84430998D01*
X133722426Y-84370660D01*
X133722414Y-84370657D01*
X133567770Y-84339896D01*
X133567767Y-84339896D01*
X133410083Y-84339896D01*
X133410080Y-84339896D01*
X133255435Y-84370657D01*
X133255423Y-84370660D01*
X133109752Y-84430998D01*
X133109739Y-84431005D01*
X132978636Y-84518606D01*
X132978632Y-84518609D01*
X132867138Y-84630103D01*
X132867135Y-84630107D01*
X132807969Y-84718656D01*
X132801877Y-84723746D01*
X132798580Y-84730968D01*
X132775452Y-84745831D01*
X132754357Y-84763461D01*
X132744982Y-84765412D01*
X132739802Y-84768742D01*
X132704867Y-84773765D01*
X132605501Y-84773765D01*
X132538462Y-84754080D01*
X132536610Y-84752867D01*
X132404920Y-84664874D01*
X132404907Y-84664867D01*
X132259236Y-84604529D01*
X132259224Y-84604526D01*
X132104580Y-84573765D01*
X132104577Y-84573765D01*
X131946893Y-84573765D01*
X131946890Y-84573765D01*
X131792245Y-84604526D01*
X131792233Y-84604529D01*
X131646562Y-84664867D01*
X131646549Y-84664874D01*
X131515446Y-84752475D01*
X131515442Y-84752478D01*
X131403948Y-84863972D01*
X131403945Y-84863976D01*
X131316344Y-84995079D01*
X131316337Y-84995092D01*
X131255999Y-85140763D01*
X131255996Y-85140775D01*
X131225235Y-85295418D01*
X131225235Y-85453111D01*
X131255996Y-85607754D01*
X131255999Y-85607766D01*
X131316337Y-85753437D01*
X131316344Y-85753450D01*
X131403945Y-85884553D01*
X131403948Y-85884557D01*
X131515442Y-85996051D01*
X131515446Y-85996054D01*
X131646549Y-86083655D01*
X131646562Y-86083662D01*
X131772149Y-86135681D01*
X131792238Y-86144002D01*
X131946888Y-86174764D01*
X131946891Y-86174765D01*
X131946893Y-86174765D01*
X132104579Y-86174765D01*
X132104580Y-86174764D01*
X132259232Y-86144002D01*
X132404914Y-86083659D01*
X132404920Y-86083655D01*
X132536610Y-85995663D01*
X132603288Y-85974785D01*
X132605501Y-85974765D01*
X133168387Y-85974765D01*
X133168403Y-85974766D01*
X133175999Y-85974766D01*
X133334111Y-85974766D01*
X133334113Y-85974766D01*
X133430138Y-85949035D01*
X133444749Y-85945121D01*
X133476842Y-85940896D01*
X133567769Y-85940896D01*
X133567770Y-85940895D01*
X133722422Y-85910133D01*
X133868104Y-85849790D01*
X133999214Y-85762185D01*
X134110714Y-85650685D01*
X134111833Y-85649009D01*
X134112647Y-85648329D01*
X134114578Y-85645977D01*
X134115024Y-85646343D01*
X134165444Y-85604205D01*
X134234769Y-85595496D01*
X134297797Y-85625650D01*
X134325420Y-85661604D01*
X134360476Y-85730405D01*
X134476172Y-85889646D01*
X134615354Y-86028828D01*
X134774595Y-86144524D01*
X134833945Y-86174764D01*
X134951213Y-86234515D01*
X135002009Y-86282489D01*
X135018804Y-86350310D01*
X134996267Y-86416445D01*
X134951213Y-86455485D01*
X134774594Y-86545476D01*
X134683741Y-86611485D01*
X134615354Y-86661172D01*
X134615352Y-86661174D01*
X134615351Y-86661174D01*
X134476174Y-86800351D01*
X134476174Y-86800352D01*
X134476172Y-86800354D01*
X134450044Y-86836316D01*
X134360476Y-86959594D01*
X134271117Y-87134970D01*
X134210290Y-87322173D01*
X134179500Y-87516577D01*
X134179500Y-87713422D01*
X134210290Y-87907826D01*
X134271117Y-88095029D01*
X134319361Y-88189712D01*
X134360476Y-88270405D01*
X134476172Y-88429646D01*
X134615354Y-88568828D01*
X134774595Y-88684524D01*
X134897992Y-88747397D01*
X134951213Y-88774515D01*
X135002009Y-88822489D01*
X135018804Y-88890310D01*
X134996267Y-88956445D01*
X134951213Y-88995485D01*
X134774594Y-89085476D01*
X134683741Y-89151485D01*
X134615354Y-89201172D01*
X134615352Y-89201174D01*
X134615351Y-89201174D01*
X134476174Y-89340351D01*
X134476174Y-89340352D01*
X134476172Y-89340354D01*
X134454534Y-89370136D01*
X134360476Y-89499594D01*
X134271118Y-89674970D01*
X134271117Y-89674972D01*
X134271116Y-89674975D01*
X134246815Y-89749765D01*
X134218899Y-89835682D01*
X134179461Y-89893357D01*
X134115102Y-89920555D01*
X134076777Y-89918980D01*
X133978845Y-89899500D01*
X133978842Y-89899500D01*
X133821158Y-89899500D01*
X133821155Y-89899500D01*
X133666510Y-89930261D01*
X133666498Y-89930264D01*
X133520827Y-89990602D01*
X133520814Y-89990609D01*
X133389125Y-90078602D01*
X133322447Y-90099480D01*
X133320234Y-90099500D01*
X132869766Y-90099500D01*
X132802727Y-90079815D01*
X132800875Y-90078602D01*
X132669185Y-89990609D01*
X132669172Y-89990602D01*
X132523501Y-89930264D01*
X132523489Y-89930261D01*
X132368845Y-89899500D01*
X132368842Y-89899500D01*
X132211158Y-89899500D01*
X132211155Y-89899500D01*
X132056510Y-89930261D01*
X132056498Y-89930264D01*
X131910827Y-89990602D01*
X131910814Y-89990609D01*
X131779711Y-90078210D01*
X131779707Y-90078213D01*
X131668213Y-90189707D01*
X131668210Y-90189711D01*
X131580609Y-90320814D01*
X131580602Y-90320827D01*
X131520264Y-90466498D01*
X131520261Y-90466510D01*
X131489500Y-90621153D01*
X131489500Y-90778846D01*
X131520261Y-90933489D01*
X131520264Y-90933501D01*
X131580602Y-91079172D01*
X131580609Y-91079185D01*
X131668210Y-91210288D01*
X131668213Y-91210292D01*
X131779707Y-91321786D01*
X131779711Y-91321789D01*
X131910814Y-91409390D01*
X131910827Y-91409397D01*
X132056498Y-91469735D01*
X132056503Y-91469737D01*
X132211153Y-91500499D01*
X132211156Y-91500500D01*
X132211158Y-91500500D01*
X132368844Y-91500500D01*
X132368845Y-91500499D01*
X132523497Y-91469737D01*
X132669179Y-91409394D01*
X132721089Y-91374709D01*
X132800875Y-91321398D01*
X132867553Y-91300520D01*
X132869766Y-91300500D01*
X133320234Y-91300500D01*
X133387273Y-91320185D01*
X133389125Y-91321398D01*
X133520814Y-91409390D01*
X133520827Y-91409397D01*
X133666498Y-91469735D01*
X133666503Y-91469737D01*
X133821153Y-91500499D01*
X133821156Y-91500500D01*
X133821158Y-91500500D01*
X133978844Y-91500500D01*
X133978845Y-91500499D01*
X134133497Y-91469737D01*
X134279179Y-91409394D01*
X134410289Y-91321789D01*
X134521789Y-91210289D01*
X134526352Y-91203458D01*
X134579959Y-91158653D01*
X134649284Y-91149942D01*
X134702342Y-91172029D01*
X134774590Y-91224521D01*
X134774592Y-91224522D01*
X134774595Y-91224524D01*
X134894937Y-91285841D01*
X134951213Y-91314515D01*
X135002009Y-91362489D01*
X135018804Y-91430310D01*
X134996267Y-91496445D01*
X134951213Y-91535485D01*
X134774594Y-91625476D01*
X134683741Y-91691485D01*
X134615354Y-91741172D01*
X134615352Y-91741174D01*
X134615351Y-91741174D01*
X134476171Y-91880354D01*
X134426742Y-91948387D01*
X134371412Y-91991052D01*
X134326425Y-91999500D01*
X134222155Y-91999500D01*
X134067510Y-92030261D01*
X134067498Y-92030264D01*
X133921827Y-92090602D01*
X133921814Y-92090609D01*
X133790125Y-92178602D01*
X133723447Y-92199480D01*
X133721234Y-92199500D01*
X132869766Y-92199500D01*
X132802727Y-92179815D01*
X132800875Y-92178602D01*
X132669185Y-92090609D01*
X132669172Y-92090602D01*
X132523501Y-92030264D01*
X132523489Y-92030261D01*
X132368845Y-91999500D01*
X132368842Y-91999500D01*
X132211158Y-91999500D01*
X132211155Y-91999500D01*
X132056510Y-92030261D01*
X132056498Y-92030264D01*
X131910827Y-92090602D01*
X131910814Y-92090609D01*
X131779711Y-92178210D01*
X131779707Y-92178213D01*
X131668213Y-92289707D01*
X131668210Y-92289711D01*
X131580609Y-92420814D01*
X131580602Y-92420827D01*
X131520264Y-92566498D01*
X131520261Y-92566510D01*
X131489500Y-92721153D01*
X131489500Y-92878846D01*
X131520261Y-93033489D01*
X131520264Y-93033501D01*
X131580602Y-93179172D01*
X131580609Y-93179185D01*
X131668210Y-93310288D01*
X131668213Y-93310292D01*
X131779707Y-93421786D01*
X131779711Y-93421789D01*
X131910814Y-93509390D01*
X131910827Y-93509397D01*
X132055252Y-93569219D01*
X132056503Y-93569737D01*
X132171729Y-93592657D01*
X132211153Y-93600499D01*
X132211156Y-93600500D01*
X132211158Y-93600500D01*
X132368844Y-93600500D01*
X132368845Y-93600499D01*
X132523497Y-93569737D01*
X132669179Y-93509394D01*
X132722244Y-93473937D01*
X132800875Y-93421398D01*
X132867553Y-93400520D01*
X132869766Y-93400500D01*
X133721234Y-93400500D01*
X133788273Y-93420185D01*
X133790125Y-93421398D01*
X133921814Y-93509390D01*
X133921827Y-93509397D01*
X134066252Y-93569219D01*
X134067503Y-93569737D01*
X134182729Y-93592657D01*
X134222153Y-93600499D01*
X134222156Y-93600500D01*
X134222158Y-93600500D01*
X134379844Y-93600500D01*
X134379845Y-93600499D01*
X134402596Y-93595973D01*
X134470965Y-93582375D01*
X134540556Y-93588602D01*
X134582837Y-93616311D01*
X134615354Y-93648828D01*
X134774595Y-93764524D01*
X134897992Y-93827397D01*
X134951213Y-93854515D01*
X135002009Y-93902489D01*
X135018804Y-93970310D01*
X134996267Y-94036445D01*
X134951213Y-94075485D01*
X134774594Y-94165476D01*
X134683741Y-94231485D01*
X134615354Y-94281172D01*
X134615352Y-94281174D01*
X134615351Y-94281174D01*
X134476174Y-94420351D01*
X134476174Y-94420352D01*
X134476172Y-94420354D01*
X134454534Y-94450136D01*
X134360476Y-94579594D01*
X134271117Y-94754970D01*
X134210290Y-94942173D01*
X134179500Y-95136577D01*
X134179500Y-95333422D01*
X134210290Y-95527822D01*
X134210290Y-95527824D01*
X134220285Y-95558586D01*
X134222278Y-95628427D01*
X134186197Y-95688259D01*
X134126545Y-95718518D01*
X134067508Y-95730261D01*
X134067498Y-95730264D01*
X133921827Y-95790602D01*
X133921814Y-95790609D01*
X133790125Y-95878602D01*
X133723447Y-95899480D01*
X133721234Y-95899500D01*
X132669057Y-95899500D01*
X132510943Y-95899500D01*
X132358215Y-95940423D01*
X132358214Y-95940423D01*
X132358212Y-95940424D01*
X132358209Y-95940425D01*
X132308100Y-95969356D01*
X132308097Y-95969358D01*
X132308095Y-95969360D01*
X132284664Y-95982887D01*
X132222666Y-95999500D01*
X132211155Y-95999500D01*
X132056510Y-96030261D01*
X132056498Y-96030264D01*
X131910827Y-96090602D01*
X131910814Y-96090609D01*
X131779711Y-96178210D01*
X131779707Y-96178213D01*
X131668213Y-96289707D01*
X131668210Y-96289711D01*
X131580609Y-96420814D01*
X131580602Y-96420827D01*
X131520264Y-96566498D01*
X131520261Y-96566510D01*
X131489500Y-96721153D01*
X131489500Y-96878846D01*
X131520261Y-97033489D01*
X131520264Y-97033501D01*
X131580602Y-97179172D01*
X131580609Y-97179185D01*
X131668210Y-97310288D01*
X131668213Y-97310292D01*
X131779707Y-97421786D01*
X131779711Y-97421789D01*
X131910814Y-97509390D01*
X131910827Y-97509397D01*
X132056498Y-97569735D01*
X132056503Y-97569737D01*
X132211153Y-97600499D01*
X132211156Y-97600500D01*
X132211158Y-97600500D01*
X132368844Y-97600500D01*
X132368845Y-97600499D01*
X132523497Y-97569737D01*
X132669179Y-97509394D01*
X132800289Y-97421789D01*
X132911789Y-97310289D01*
X132999394Y-97179179D01*
X133000275Y-97177049D01*
X133001035Y-97176106D01*
X133002264Y-97173809D01*
X133002699Y-97174041D01*
X133044115Y-97122646D01*
X133110408Y-97100579D01*
X133114838Y-97100500D01*
X133721234Y-97100500D01*
X133788273Y-97120185D01*
X133790125Y-97121398D01*
X133921814Y-97209390D01*
X133921827Y-97209397D01*
X134067498Y-97269735D01*
X134067503Y-97269737D01*
X134098950Y-97275992D01*
X134130091Y-97282187D01*
X134192002Y-97314572D01*
X134226576Y-97375287D01*
X134223831Y-97442122D01*
X134210778Y-97482293D01*
X134210778Y-97482294D01*
X134180000Y-97676617D01*
X134180000Y-97873382D01*
X134210778Y-98067705D01*
X134271581Y-98254835D01*
X134360905Y-98430145D01*
X134386319Y-98465125D01*
X134386320Y-98465125D01*
X134987861Y-97863583D01*
X135010667Y-97948694D01*
X135069910Y-98051306D01*
X135153694Y-98135090D01*
X135256306Y-98194333D01*
X135341414Y-98217137D01*
X134739872Y-98818678D01*
X134739995Y-98820234D01*
X134725630Y-98888611D01*
X134676579Y-98938368D01*
X134608413Y-98953706D01*
X134568925Y-98944523D01*
X134534501Y-98930264D01*
X134534489Y-98930261D01*
X134379845Y-98899500D01*
X134379842Y-98899500D01*
X134222158Y-98899500D01*
X134222155Y-98899500D01*
X134067510Y-98930261D01*
X134067498Y-98930264D01*
X133921827Y-98990602D01*
X133921814Y-98990609D01*
X133790125Y-99078602D01*
X133723447Y-99099480D01*
X133721234Y-99099500D01*
X132869766Y-99099500D01*
X132802727Y-99079815D01*
X132800875Y-99078602D01*
X132669185Y-98990609D01*
X132669172Y-98990602D01*
X132523501Y-98930264D01*
X132523489Y-98930261D01*
X132368845Y-98899500D01*
X132368842Y-98899500D01*
X132211158Y-98899500D01*
X132211155Y-98899500D01*
X132056510Y-98930261D01*
X132056498Y-98930264D01*
X131910827Y-98990602D01*
X131910814Y-98990609D01*
X131779711Y-99078210D01*
X131779707Y-99078213D01*
X131668213Y-99189707D01*
X131668210Y-99189711D01*
X131580609Y-99320814D01*
X131580602Y-99320827D01*
X131520264Y-99466498D01*
X131520261Y-99466510D01*
X131489500Y-99621153D01*
X131489500Y-99778846D01*
X131520261Y-99933489D01*
X131520264Y-99933501D01*
X131580602Y-100079172D01*
X131580609Y-100079185D01*
X131668210Y-100210288D01*
X131668213Y-100210292D01*
X131779707Y-100321786D01*
X131779711Y-100321789D01*
X131910814Y-100409390D01*
X131910827Y-100409397D01*
X131985732Y-100440423D01*
X132056503Y-100469737D01*
X132211153Y-100500499D01*
X132211156Y-100500500D01*
X132211158Y-100500500D01*
X132368844Y-100500500D01*
X132368845Y-100500499D01*
X132523497Y-100469737D01*
X132640790Y-100421153D01*
X132669172Y-100409397D01*
X132669172Y-100409396D01*
X132669179Y-100409394D01*
X132669185Y-100409390D01*
X132800875Y-100321398D01*
X132867553Y-100300520D01*
X132869766Y-100300500D01*
X133721234Y-100300500D01*
X133788273Y-100320185D01*
X133790125Y-100321398D01*
X133921814Y-100409390D01*
X133921827Y-100409397D01*
X133989961Y-100437618D01*
X134067503Y-100469737D01*
X134107590Y-100477710D01*
X134169501Y-100510095D01*
X134204075Y-100570811D01*
X134205872Y-100579928D01*
X134210290Y-100607824D01*
X134217913Y-100631284D01*
X134271116Y-100795025D01*
X134360476Y-100970405D01*
X134476172Y-101129646D01*
X134615354Y-101268828D01*
X134774595Y-101384524D01*
X134846484Y-101421153D01*
X134949970Y-101473882D01*
X134949972Y-101473882D01*
X134949975Y-101473884D01*
X135050317Y-101506487D01*
X135137173Y-101534709D01*
X135331578Y-101565500D01*
X135331583Y-101565500D01*
X135528422Y-101565500D01*
X135722826Y-101534709D01*
X135910025Y-101473884D01*
X136085405Y-101384524D01*
X136244646Y-101268828D01*
X136383828Y-101129646D01*
X136383828Y-101129645D01*
X136387273Y-101126201D01*
X136388662Y-101127590D01*
X136440203Y-101093937D01*
X136510070Y-101093429D01*
X136569121Y-101130776D01*
X136598607Y-101194120D01*
X136600000Y-101212657D01*
X136600000Y-103460742D01*
X136580315Y-103527781D01*
X136527511Y-103573536D01*
X136458353Y-103583480D01*
X136394797Y-103554455D01*
X136388319Y-103548423D01*
X136309786Y-103469890D01*
X136137820Y-103344951D01*
X135948414Y-103248444D01*
X135948413Y-103248443D01*
X135948412Y-103248443D01*
X135746243Y-103182754D01*
X135746241Y-103182753D01*
X135746240Y-103182753D01*
X135584957Y-103157208D01*
X135536287Y-103149500D01*
X135323713Y-103149500D01*
X135275042Y-103157208D01*
X135113760Y-103182753D01*
X134911585Y-103248444D01*
X134722179Y-103344951D01*
X134550213Y-103469890D01*
X134399890Y-103620213D01*
X134274949Y-103792182D01*
X134270484Y-103800946D01*
X134222509Y-103851742D01*
X134154688Y-103868536D01*
X134088553Y-103845998D01*
X134049516Y-103800946D01*
X134045050Y-103792182D01*
X133920109Y-103620213D01*
X133769786Y-103469890D01*
X133597820Y-103344951D01*
X133408414Y-103248444D01*
X133408413Y-103248443D01*
X133408412Y-103248443D01*
X133206243Y-103182754D01*
X133206241Y-103182753D01*
X133206240Y-103182753D01*
X133044957Y-103157208D01*
X132996287Y-103149500D01*
X132783713Y-103149500D01*
X132735042Y-103157208D01*
X132573760Y-103182753D01*
X132371585Y-103248444D01*
X132182179Y-103344951D01*
X132010213Y-103469890D01*
X131859890Y-103620213D01*
X131734949Y-103792182D01*
X131730484Y-103800946D01*
X131682509Y-103851742D01*
X131614688Y-103868536D01*
X131548553Y-103845998D01*
X131509516Y-103800946D01*
X131505050Y-103792182D01*
X131380109Y-103620213D01*
X131229786Y-103469890D01*
X131057820Y-103344951D01*
X130868414Y-103248444D01*
X130868413Y-103248443D01*
X130868412Y-103248443D01*
X130666243Y-103182754D01*
X130666241Y-103182753D01*
X130666240Y-103182753D01*
X130504957Y-103157208D01*
X130456287Y-103149500D01*
X130243713Y-103149500D01*
X130204202Y-103155757D01*
X130033759Y-103182753D01*
X130033755Y-103182754D01*
X129916001Y-103221014D01*
X129846160Y-103223009D01*
X129786327Y-103186928D01*
X129763123Y-103150535D01*
X129709397Y-103020827D01*
X129709390Y-103020814D01*
X129621398Y-102889125D01*
X129600520Y-102822447D01*
X129600500Y-102820234D01*
X129600500Y-101979765D01*
X129620185Y-101912726D01*
X129621398Y-101910874D01*
X129709390Y-101779185D01*
X129709390Y-101779184D01*
X129709394Y-101779179D01*
X129769737Y-101633497D01*
X129800500Y-101478842D01*
X129800500Y-101321158D01*
X129800500Y-101321155D01*
X129800499Y-101321153D01*
X129789627Y-101266498D01*
X129769737Y-101166503D01*
X129754471Y-101129647D01*
X129709397Y-101020827D01*
X129709390Y-101020814D01*
X129621789Y-100889711D01*
X129621786Y-100889707D01*
X129510292Y-100778213D01*
X129510288Y-100778210D01*
X129379185Y-100690609D01*
X129379172Y-100690602D01*
X129233501Y-100630264D01*
X129233489Y-100630261D01*
X129078845Y-100599500D01*
X129078842Y-100599500D01*
X128921158Y-100599500D01*
X128921155Y-100599500D01*
X128766510Y-100630261D01*
X128766498Y-100630264D01*
X128620827Y-100690602D01*
X128620814Y-100690609D01*
X128489711Y-100778210D01*
X128489707Y-100778213D01*
X128378213Y-100889707D01*
X128378210Y-100889711D01*
X128290609Y-101020814D01*
X128290602Y-101020827D01*
X128230264Y-101166498D01*
X128230261Y-101166510D01*
X128199500Y-101321153D01*
X128199500Y-101478846D01*
X128230261Y-101633489D01*
X128230264Y-101633501D01*
X128290602Y-101779172D01*
X128290609Y-101779185D01*
X128378602Y-101910874D01*
X128399480Y-101977551D01*
X128399500Y-101979765D01*
X128399500Y-102820234D01*
X128379815Y-102887273D01*
X128378602Y-102889125D01*
X128290609Y-103020814D01*
X128290604Y-103020823D01*
X128254950Y-103106902D01*
X128211109Y-103161305D01*
X128144815Y-103183370D01*
X128120991Y-103181922D01*
X127990820Y-103161305D01*
X127916287Y-103149500D01*
X127703713Y-103149500D01*
X127655042Y-103157208D01*
X127493760Y-103182753D01*
X127291585Y-103248444D01*
X127102179Y-103344951D01*
X126930213Y-103469890D01*
X126779890Y-103620213D01*
X126654949Y-103792182D01*
X126650484Y-103800946D01*
X126602509Y-103851742D01*
X126534688Y-103868536D01*
X126468553Y-103845998D01*
X126429516Y-103800946D01*
X126425050Y-103792182D01*
X126300109Y-103620213D01*
X126149786Y-103469890D01*
X125977820Y-103344951D01*
X125788414Y-103248444D01*
X125788413Y-103248443D01*
X125788412Y-103248443D01*
X125586243Y-103182754D01*
X125586241Y-103182753D01*
X125586240Y-103182753D01*
X125424957Y-103157208D01*
X125376287Y-103149500D01*
X125163713Y-103149500D01*
X125115042Y-103157208D01*
X124953760Y-103182753D01*
X124751585Y-103248444D01*
X124562179Y-103344951D01*
X124390213Y-103469890D01*
X124239890Y-103620213D01*
X124114949Y-103792182D01*
X124110484Y-103800946D01*
X124062509Y-103851742D01*
X123994688Y-103868536D01*
X123928553Y-103845998D01*
X123889516Y-103800946D01*
X123885050Y-103792182D01*
X123760109Y-103620213D01*
X123609786Y-103469890D01*
X123437820Y-103344951D01*
X123248414Y-103248444D01*
X123248413Y-103248443D01*
X123248412Y-103248443D01*
X123046243Y-103182754D01*
X123046241Y-103182753D01*
X123046240Y-103182753D01*
X122884957Y-103157208D01*
X122836287Y-103149500D01*
X122623713Y-103149500D01*
X122575042Y-103157208D01*
X122413760Y-103182753D01*
X122211585Y-103248444D01*
X122022179Y-103344951D01*
X121850213Y-103469890D01*
X121699890Y-103620213D01*
X121574949Y-103792182D01*
X121570484Y-103800946D01*
X121522509Y-103851742D01*
X121454688Y-103868536D01*
X121388553Y-103845998D01*
X121349516Y-103800946D01*
X121345050Y-103792182D01*
X121220109Y-103620213D01*
X121069786Y-103469890D01*
X120897820Y-103344951D01*
X120708414Y-103248444D01*
X120708413Y-103248443D01*
X120708412Y-103248443D01*
X120506243Y-103182754D01*
X120506241Y-103182753D01*
X120506240Y-103182753D01*
X120344957Y-103157208D01*
X120296287Y-103149500D01*
X120083713Y-103149500D01*
X120035042Y-103157208D01*
X119873760Y-103182753D01*
X119671585Y-103248444D01*
X119482179Y-103344951D01*
X119310213Y-103469890D01*
X119159890Y-103620213D01*
X119034949Y-103792182D01*
X119030484Y-103800946D01*
X118982509Y-103851742D01*
X118914688Y-103868536D01*
X118848553Y-103845998D01*
X118809516Y-103800946D01*
X118805050Y-103792182D01*
X118680109Y-103620213D01*
X118529786Y-103469890D01*
X118357820Y-103344951D01*
X118168414Y-103248444D01*
X118168413Y-103248443D01*
X118168412Y-103248443D01*
X117966243Y-103182754D01*
X117966241Y-103182753D01*
X117966240Y-103182753D01*
X117804957Y-103157208D01*
X117756287Y-103149500D01*
X117543713Y-103149500D01*
X117495042Y-103157208D01*
X117333760Y-103182753D01*
X117131585Y-103248444D01*
X116942179Y-103344951D01*
X116770213Y-103469890D01*
X116619890Y-103620213D01*
X116494949Y-103792182D01*
X116490484Y-103800946D01*
X116442509Y-103851742D01*
X116374688Y-103868536D01*
X116308553Y-103845998D01*
X116269516Y-103800946D01*
X116265050Y-103792182D01*
X116140109Y-103620213D01*
X115989786Y-103469890D01*
X115817820Y-103344951D01*
X115628414Y-103248444D01*
X115628413Y-103248443D01*
X115628412Y-103248443D01*
X115426243Y-103182754D01*
X115426241Y-103182753D01*
X115426240Y-103182753D01*
X115264957Y-103157208D01*
X115216287Y-103149500D01*
X115003713Y-103149500D01*
X114955042Y-103157208D01*
X114793760Y-103182753D01*
X114591585Y-103248444D01*
X114402179Y-103344951D01*
X114230215Y-103469889D01*
X114116285Y-103583819D01*
X114054962Y-103617303D01*
X113985270Y-103612319D01*
X113929337Y-103570447D01*
X113912422Y-103539470D01*
X113863354Y-103407913D01*
X113863350Y-103407906D01*
X113777190Y-103292812D01*
X113777187Y-103292809D01*
X113662093Y-103206649D01*
X113662086Y-103206645D01*
X113527379Y-103156403D01*
X113527372Y-103156401D01*
X113467844Y-103150000D01*
X112820000Y-103150000D01*
X112820000Y-104066988D01*
X112762993Y-104034075D01*
X112635826Y-104000000D01*
X112504174Y-104000000D01*
X112377007Y-104034075D01*
X112320000Y-104066988D01*
X112320000Y-103150000D01*
X111672155Y-103150000D01*
X111612627Y-103156401D01*
X111612620Y-103156403D01*
X111477913Y-103206645D01*
X111477911Y-103206646D01*
X111362221Y-103293253D01*
X111296757Y-103317670D01*
X111228484Y-103302819D01*
X111179078Y-103253414D01*
X111163911Y-103194497D01*
X111154046Y-100787249D01*
X111173455Y-100720134D01*
X111226071Y-100674163D01*
X111295188Y-100663936D01*
X111358862Y-100692700D01*
X111395974Y-100748423D01*
X111409681Y-100790609D01*
X111411118Y-100795030D01*
X111500476Y-100970405D01*
X111616172Y-101129646D01*
X111755354Y-101268828D01*
X111914595Y-101384524D01*
X111986484Y-101421153D01*
X112089970Y-101473882D01*
X112089972Y-101473882D01*
X112089975Y-101473884D01*
X112190317Y-101506487D01*
X112277173Y-101534709D01*
X112471578Y-101565500D01*
X112471583Y-101565500D01*
X112668422Y-101565500D01*
X112862826Y-101534709D01*
X113050025Y-101473884D01*
X113225405Y-101384524D01*
X113384646Y-101268828D01*
X113523828Y-101129646D01*
X113639524Y-100970405D01*
X113728884Y-100795025D01*
X113789709Y-100607826D01*
X113795572Y-100570811D01*
X113819276Y-100421153D01*
X118388500Y-100421153D01*
X118388500Y-100578846D01*
X118419261Y-100733489D01*
X118419264Y-100733501D01*
X118479602Y-100879172D01*
X118479609Y-100879185D01*
X118567210Y-101010288D01*
X118567213Y-101010292D01*
X118678707Y-101121786D01*
X118678711Y-101121789D01*
X118809814Y-101209390D01*
X118809827Y-101209397D01*
X118947683Y-101266498D01*
X118955503Y-101269737D01*
X119110158Y-101300500D01*
X119110847Y-101300637D01*
X119172758Y-101333022D01*
X119174337Y-101334573D01*
X119320284Y-101480520D01*
X119320286Y-101480521D01*
X119320290Y-101480524D01*
X119414143Y-101534709D01*
X119457216Y-101559577D01*
X119609943Y-101600501D01*
X119609945Y-101600501D01*
X119775654Y-101600501D01*
X119775670Y-101600500D01*
X119892044Y-101600500D01*
X119959083Y-101620185D01*
X120004838Y-101672989D01*
X120013661Y-101700309D01*
X120020261Y-101733489D01*
X120020264Y-101733501D01*
X120080602Y-101879172D01*
X120080609Y-101879185D01*
X120168210Y-102010288D01*
X120168213Y-102010292D01*
X120279707Y-102121786D01*
X120279711Y-102121789D01*
X120410814Y-102209390D01*
X120410827Y-102209397D01*
X120556498Y-102269735D01*
X120556503Y-102269737D01*
X120711153Y-102300499D01*
X120711156Y-102300500D01*
X120711158Y-102300500D01*
X120868844Y-102300500D01*
X120868845Y-102300499D01*
X121023497Y-102269737D01*
X121169179Y-102209394D01*
X121300289Y-102121789D01*
X121411789Y-102010289D01*
X121499394Y-101879179D01*
X121559737Y-101733497D01*
X121590500Y-101578842D01*
X121590500Y-101421158D01*
X121590500Y-101421155D01*
X121590499Y-101421153D01*
X121573277Y-101334573D01*
X121559737Y-101266503D01*
X121559735Y-101266498D01*
X121499397Y-101120827D01*
X121499390Y-101120814D01*
X121411789Y-100989711D01*
X121411786Y-100989707D01*
X121300292Y-100878213D01*
X121300288Y-100878210D01*
X121169185Y-100790609D01*
X121169172Y-100790602D01*
X121023501Y-100730264D01*
X121023491Y-100730261D01*
X120868151Y-100699362D01*
X120851394Y-100690596D01*
X120832916Y-100686577D01*
X120807875Y-100667831D01*
X120806241Y-100666977D01*
X120804664Y-100665428D01*
X120804660Y-100665425D01*
X120803171Y-100663936D01*
X120770521Y-100631285D01*
X120770520Y-100631284D01*
X120658716Y-100519480D01*
X120571904Y-100469360D01*
X120571904Y-100469359D01*
X120571900Y-100469358D01*
X120521785Y-100440423D01*
X120369057Y-100399499D01*
X120210943Y-100399499D01*
X120203347Y-100399499D01*
X120203331Y-100399500D01*
X120086956Y-100399500D01*
X120019917Y-100379815D01*
X119974162Y-100327011D01*
X119965339Y-100299691D01*
X119961874Y-100282274D01*
X119958737Y-100266503D01*
X119935452Y-100210288D01*
X119898397Y-100120827D01*
X119898390Y-100120814D01*
X119810789Y-99989711D01*
X119810786Y-99989707D01*
X119699292Y-99878213D01*
X119699288Y-99878210D01*
X119568185Y-99790609D01*
X119568172Y-99790602D01*
X119422501Y-99730264D01*
X119422489Y-99730261D01*
X119267845Y-99699500D01*
X119267842Y-99699500D01*
X119110158Y-99699500D01*
X119110155Y-99699500D01*
X118955510Y-99730261D01*
X118955498Y-99730264D01*
X118809827Y-99790602D01*
X118809814Y-99790609D01*
X118678711Y-99878210D01*
X118678707Y-99878213D01*
X118567213Y-99989707D01*
X118567210Y-99989711D01*
X118479609Y-100120814D01*
X118479602Y-100120827D01*
X118419264Y-100266498D01*
X118419261Y-100266510D01*
X118388500Y-100421153D01*
X113819276Y-100421153D01*
X113820500Y-100413422D01*
X113820500Y-100216577D01*
X113789709Y-100022173D01*
X113728882Y-99834970D01*
X113639523Y-99659594D01*
X113523828Y-99500354D01*
X113502712Y-99479238D01*
X121054500Y-99479238D01*
X121054500Y-99636931D01*
X121085261Y-99791574D01*
X121085264Y-99791586D01*
X121145602Y-99937257D01*
X121145609Y-99937270D01*
X121233210Y-100068373D01*
X121233213Y-100068377D01*
X121344707Y-100179871D01*
X121344711Y-100179874D01*
X121475814Y-100267475D01*
X121475827Y-100267482D01*
X121606938Y-100321789D01*
X121621503Y-100327822D01*
X121776153Y-100358584D01*
X121776156Y-100358585D01*
X121776158Y-100358585D01*
X121933844Y-100358585D01*
X121933845Y-100358584D01*
X122088497Y-100327822D01*
X122234179Y-100267479D01*
X122365289Y-100179874D01*
X122476789Y-100068374D01*
X122564394Y-99937264D01*
X122624737Y-99791582D01*
X122655500Y-99636927D01*
X122655500Y-99479243D01*
X122655500Y-99479240D01*
X122655499Y-99479238D01*
X122624738Y-99324595D01*
X122624737Y-99324588D01*
X122568868Y-99189707D01*
X122564397Y-99178912D01*
X122564390Y-99178899D01*
X122476398Y-99047210D01*
X122455520Y-98980532D01*
X122455500Y-98978319D01*
X122455500Y-97184898D01*
X122475185Y-97117859D01*
X122527989Y-97072104D01*
X122532048Y-97070337D01*
X122679172Y-97009397D01*
X122679172Y-97009396D01*
X122679179Y-97009394D01*
X122810289Y-96921789D01*
X122921789Y-96810289D01*
X123009394Y-96679179D01*
X123014877Y-96665943D01*
X123035661Y-96615765D01*
X123069737Y-96533497D01*
X123100500Y-96378842D01*
X123100500Y-96221158D01*
X123100500Y-96221155D01*
X123100499Y-96221153D01*
X123094069Y-96188828D01*
X123069737Y-96066503D01*
X123063223Y-96050776D01*
X123009397Y-95920827D01*
X123009390Y-95920814D01*
X122921789Y-95789711D01*
X122921786Y-95789707D01*
X122810292Y-95678213D01*
X122810288Y-95678210D01*
X122679185Y-95590609D01*
X122679172Y-95590602D01*
X122533501Y-95530264D01*
X122533489Y-95530261D01*
X122378845Y-95499500D01*
X122378842Y-95499500D01*
X122221158Y-95499500D01*
X122221155Y-95499500D01*
X122066510Y-95530261D01*
X122066498Y-95530264D01*
X121920827Y-95590602D01*
X121920814Y-95590609D01*
X121789711Y-95678210D01*
X121789707Y-95678213D01*
X121678213Y-95789707D01*
X121678210Y-95789711D01*
X121590609Y-95920814D01*
X121590602Y-95920827D01*
X121530264Y-96066498D01*
X121530261Y-96066508D01*
X121499362Y-96221848D01*
X121493030Y-96235141D01*
X121491615Y-96246744D01*
X121477828Y-96267061D01*
X121473173Y-96276836D01*
X121469493Y-96281270D01*
X121374480Y-96376284D01*
X121342726Y-96431284D01*
X121337476Y-96440375D01*
X121337475Y-96440378D01*
X121295424Y-96513213D01*
X121295423Y-96513215D01*
X121254499Y-96665943D01*
X121254499Y-96665945D01*
X121254499Y-96834046D01*
X121254500Y-96834059D01*
X121254500Y-98978319D01*
X121234815Y-99045358D01*
X121233602Y-99047210D01*
X121145609Y-99178899D01*
X121145602Y-99178912D01*
X121085264Y-99324583D01*
X121085261Y-99324595D01*
X121054500Y-99479238D01*
X113502712Y-99479238D01*
X113384646Y-99361172D01*
X113225405Y-99245476D01*
X113050025Y-99156116D01*
X113050024Y-99156115D01*
X113048235Y-99155204D01*
X112997439Y-99107230D01*
X112980644Y-99039409D01*
X113003181Y-98973274D01*
X113048236Y-98934234D01*
X113225141Y-98844097D01*
X113260125Y-98818678D01*
X113260126Y-98818678D01*
X112658585Y-98217137D01*
X112743694Y-98194333D01*
X112846306Y-98135090D01*
X112930090Y-98051306D01*
X112989333Y-97948694D01*
X113012137Y-97863585D01*
X113613678Y-98465126D01*
X113613678Y-98465125D01*
X113639095Y-98430143D01*
X113728418Y-98254835D01*
X113789221Y-98067705D01*
X113820000Y-97873382D01*
X113820000Y-97676617D01*
X113789221Y-97482294D01*
X113728418Y-97295164D01*
X113639096Y-97119858D01*
X113613678Y-97084873D01*
X113613677Y-97084873D01*
X113012137Y-97686413D01*
X112989333Y-97601306D01*
X112930090Y-97498694D01*
X112846306Y-97414910D01*
X112743694Y-97355667D01*
X112658584Y-97332861D01*
X113170292Y-96821153D01*
X117399500Y-96821153D01*
X117399500Y-96978846D01*
X117430261Y-97133489D01*
X117430264Y-97133501D01*
X117490602Y-97279172D01*
X117490609Y-97279185D01*
X117578210Y-97410288D01*
X117578213Y-97410292D01*
X117689707Y-97521786D01*
X117689711Y-97521789D01*
X117820814Y-97609390D01*
X117820827Y-97609397D01*
X117966498Y-97669735D01*
X117966503Y-97669737D01*
X118121153Y-97700499D01*
X118121156Y-97700500D01*
X118121158Y-97700500D01*
X118278844Y-97700500D01*
X118278845Y-97700499D01*
X118433497Y-97669737D01*
X118579179Y-97609394D01*
X118592491Y-97600499D01*
X118710875Y-97521398D01*
X118777553Y-97500520D01*
X118779766Y-97500500D01*
X119320234Y-97500500D01*
X119387273Y-97520185D01*
X119389125Y-97521398D01*
X119520814Y-97609390D01*
X119520827Y-97609397D01*
X119666498Y-97669735D01*
X119666503Y-97669737D01*
X119821153Y-97700499D01*
X119821156Y-97700500D01*
X119821158Y-97700500D01*
X119978844Y-97700500D01*
X119978845Y-97700499D01*
X120133497Y-97669737D01*
X120279179Y-97609394D01*
X120410289Y-97521789D01*
X120521789Y-97410289D01*
X120609394Y-97279179D01*
X120669737Y-97133497D01*
X120700500Y-96978842D01*
X120700500Y-96821158D01*
X120700500Y-96821155D01*
X120700499Y-96821153D01*
X120682630Y-96731319D01*
X120669737Y-96666503D01*
X120628314Y-96566498D01*
X120609397Y-96520827D01*
X120609390Y-96520814D01*
X120521789Y-96389711D01*
X120521786Y-96389707D01*
X120410292Y-96278213D01*
X120410288Y-96278210D01*
X120279185Y-96190609D01*
X120279172Y-96190602D01*
X120133501Y-96130264D01*
X120133489Y-96130261D01*
X119978845Y-96099500D01*
X119978842Y-96099500D01*
X119821158Y-96099500D01*
X119821155Y-96099500D01*
X119666510Y-96130261D01*
X119666498Y-96130264D01*
X119520827Y-96190602D01*
X119520814Y-96190609D01*
X119389125Y-96278602D01*
X119322447Y-96299480D01*
X119320234Y-96299500D01*
X118779766Y-96299500D01*
X118712727Y-96279815D01*
X118710875Y-96278602D01*
X118579185Y-96190609D01*
X118579172Y-96190602D01*
X118433501Y-96130264D01*
X118433489Y-96130261D01*
X118278845Y-96099500D01*
X118278842Y-96099500D01*
X118121158Y-96099500D01*
X118121155Y-96099500D01*
X117966510Y-96130261D01*
X117966498Y-96130264D01*
X117820827Y-96190602D01*
X117820814Y-96190609D01*
X117689711Y-96278210D01*
X117689707Y-96278213D01*
X117578213Y-96389707D01*
X117578210Y-96389711D01*
X117490609Y-96520814D01*
X117490602Y-96520827D01*
X117430264Y-96666498D01*
X117430261Y-96666510D01*
X117399500Y-96821153D01*
X113170292Y-96821153D01*
X113260125Y-96731320D01*
X113260125Y-96731319D01*
X113225145Y-96705905D01*
X113048235Y-96615765D01*
X112997439Y-96567790D01*
X112980644Y-96499969D01*
X113003182Y-96433834D01*
X113048236Y-96394795D01*
X113050022Y-96393884D01*
X113050025Y-96393884D01*
X113225405Y-96304524D01*
X113384646Y-96188828D01*
X113523828Y-96049646D01*
X113639524Y-95890405D01*
X113728884Y-95715025D01*
X113789709Y-95527826D01*
X113794195Y-95499500D01*
X113820500Y-95333422D01*
X113820500Y-95136577D01*
X113789709Y-94942173D01*
X113728882Y-94754970D01*
X113639523Y-94579594D01*
X113523828Y-94420354D01*
X113384646Y-94281172D01*
X113305025Y-94223324D01*
X113225403Y-94165474D01*
X113048787Y-94075485D01*
X112997990Y-94027511D01*
X112981195Y-93959690D01*
X113003732Y-93893555D01*
X113048787Y-93854515D01*
X113225403Y-93764525D01*
X113225402Y-93764525D01*
X113225405Y-93764524D01*
X113384646Y-93648828D01*
X113523828Y-93509646D01*
X113639524Y-93350405D01*
X113728884Y-93175025D01*
X113789709Y-92987826D01*
X113806970Y-92878846D01*
X113820500Y-92793422D01*
X113820500Y-92596577D01*
X113789709Y-92402173D01*
X113728882Y-92214970D01*
X113639523Y-92039594D01*
X113523828Y-91880354D01*
X113384646Y-91741172D01*
X113305025Y-91683324D01*
X113225403Y-91625474D01*
X113048787Y-91535485D01*
X112997990Y-91487511D01*
X112981195Y-91419690D01*
X113003732Y-91353555D01*
X113048787Y-91314515D01*
X113225403Y-91224525D01*
X113225402Y-91224525D01*
X113225405Y-91224524D01*
X113384646Y-91108828D01*
X113523828Y-90969646D01*
X113639524Y-90810405D01*
X113728884Y-90635025D01*
X113789709Y-90447826D01*
X113820500Y-90253422D01*
X113820500Y-90056577D01*
X113789709Y-89862173D01*
X113776381Y-89821153D01*
X119499497Y-89821153D01*
X119499497Y-89978846D01*
X119530258Y-90133489D01*
X119530261Y-90133501D01*
X119590599Y-90279172D01*
X119590606Y-90279185D01*
X119678207Y-90410288D01*
X119678210Y-90410292D01*
X119789704Y-90521786D01*
X119789708Y-90521789D01*
X119920811Y-90609390D01*
X119920824Y-90609397D01*
X120066495Y-90669735D01*
X120066500Y-90669737D01*
X120221150Y-90700499D01*
X120221153Y-90700500D01*
X120221155Y-90700500D01*
X120378841Y-90700500D01*
X120378842Y-90700499D01*
X120533494Y-90669737D01*
X120652547Y-90620423D01*
X120722014Y-90612955D01*
X120747447Y-90620422D01*
X120866503Y-90669737D01*
X121021153Y-90700499D01*
X121021156Y-90700500D01*
X121021158Y-90700500D01*
X121178844Y-90700500D01*
X121178845Y-90700499D01*
X121333497Y-90669737D01*
X121452548Y-90620425D01*
X121522017Y-90612956D01*
X121547453Y-90620425D01*
X121666503Y-90669737D01*
X121821153Y-90700499D01*
X121821156Y-90700500D01*
X121821158Y-90700500D01*
X121978844Y-90700500D01*
X121978845Y-90700499D01*
X122133497Y-90669737D01*
X122279179Y-90609394D01*
X122410289Y-90521789D01*
X122521789Y-90410289D01*
X122609394Y-90279179D01*
X122669737Y-90133497D01*
X122700500Y-89978842D01*
X122700500Y-89821158D01*
X122700500Y-89821156D01*
X122699903Y-89815098D01*
X122700276Y-89815061D01*
X122698781Y-89799137D01*
X122698911Y-89784987D01*
X122700501Y-89779057D01*
X122700501Y-89620942D01*
X122700500Y-89620938D01*
X122700500Y-89279765D01*
X122720185Y-89212726D01*
X122721398Y-89210874D01*
X122809390Y-89079185D01*
X122809390Y-89079184D01*
X122809394Y-89079179D01*
X122869737Y-88933497D01*
X122900500Y-88778842D01*
X122900500Y-88621158D01*
X122900500Y-88621155D01*
X122900499Y-88621153D01*
X122880268Y-88519447D01*
X122869737Y-88466503D01*
X122858335Y-88438976D01*
X122809397Y-88320827D01*
X122809390Y-88320814D01*
X122721790Y-88189712D01*
X122721784Y-88189705D01*
X122653232Y-88121153D01*
X128899500Y-88121153D01*
X128899500Y-88278846D01*
X128930261Y-88433489D01*
X128930264Y-88433501D01*
X128990602Y-88579172D01*
X128990609Y-88579185D01*
X129078602Y-88710874D01*
X129099480Y-88777551D01*
X129099500Y-88779765D01*
X129099500Y-89614330D01*
X129099499Y-89614348D01*
X129099499Y-89780054D01*
X129099498Y-89780054D01*
X129108878Y-89815061D01*
X129139747Y-89930264D01*
X129140424Y-89932787D01*
X129158484Y-89964067D01*
X129158485Y-89964070D01*
X129219475Y-90069709D01*
X129219481Y-90069717D01*
X129331284Y-90181520D01*
X129365425Y-90215660D01*
X129398911Y-90276983D01*
X129399362Y-90279151D01*
X129430261Y-90434491D01*
X129430264Y-90434501D01*
X129490602Y-90580172D01*
X129490609Y-90580185D01*
X129578210Y-90711288D01*
X129578213Y-90711292D01*
X129689707Y-90822786D01*
X129689711Y-90822789D01*
X129820814Y-90910390D01*
X129820827Y-90910397D01*
X129955552Y-90966201D01*
X129966503Y-90970737D01*
X130121153Y-91001499D01*
X130121156Y-91001500D01*
X130121158Y-91001500D01*
X130278844Y-91001500D01*
X130278845Y-91001499D01*
X130433497Y-90970737D01*
X130579179Y-90910394D01*
X130710289Y-90822789D01*
X130821789Y-90711289D01*
X130909394Y-90580179D01*
X130969737Y-90434497D01*
X131000500Y-90279842D01*
X131000500Y-90122158D01*
X131000500Y-90122155D01*
X131000499Y-90122153D01*
X130990069Y-90069717D01*
X130969737Y-89967503D01*
X130964940Y-89955921D01*
X130909397Y-89821827D01*
X130909390Y-89821814D01*
X130821789Y-89690711D01*
X130821786Y-89690707D01*
X130710292Y-89579213D01*
X130710288Y-89579210D01*
X130579185Y-89491609D01*
X130579172Y-89491602D01*
X130433501Y-89431264D01*
X130433489Y-89431261D01*
X130400309Y-89424661D01*
X130338398Y-89392276D01*
X130303824Y-89331561D01*
X130300500Y-89303044D01*
X130300500Y-88779765D01*
X130320185Y-88712726D01*
X130321398Y-88710874D01*
X130381347Y-88621155D01*
X130409394Y-88579179D01*
X130413682Y-88568828D01*
X130423067Y-88546166D01*
X130469737Y-88433497D01*
X130500500Y-88278842D01*
X130500500Y-88121158D01*
X130500500Y-88121155D01*
X130500499Y-88121153D01*
X130483738Y-88036890D01*
X130469737Y-87966503D01*
X130462606Y-87949286D01*
X130409397Y-87820827D01*
X130409390Y-87820814D01*
X130321789Y-87689711D01*
X130321786Y-87689707D01*
X130210292Y-87578213D01*
X130210288Y-87578210D01*
X130079185Y-87490609D01*
X130079172Y-87490602D01*
X129933501Y-87430264D01*
X129933489Y-87430261D01*
X129778845Y-87399500D01*
X129778842Y-87399500D01*
X129621158Y-87399500D01*
X129621155Y-87399500D01*
X129466510Y-87430261D01*
X129466498Y-87430264D01*
X129320827Y-87490602D01*
X129320814Y-87490609D01*
X129189711Y-87578210D01*
X129189707Y-87578213D01*
X129078213Y-87689707D01*
X129078210Y-87689711D01*
X128990609Y-87820814D01*
X128990602Y-87820827D01*
X128930264Y-87966498D01*
X128930261Y-87966510D01*
X128899500Y-88121153D01*
X122653232Y-88121153D01*
X122610292Y-88078213D01*
X122610288Y-88078210D01*
X122479185Y-87990609D01*
X122479172Y-87990602D01*
X122333501Y-87930264D01*
X122333489Y-87930261D01*
X122178845Y-87899500D01*
X122178842Y-87899500D01*
X122021158Y-87899500D01*
X122021155Y-87899500D01*
X121866510Y-87930261D01*
X121866498Y-87930264D01*
X121720827Y-87990602D01*
X121720814Y-87990609D01*
X121668891Y-88025304D01*
X121602214Y-88046182D01*
X121534833Y-88027698D01*
X121531109Y-88025304D01*
X121479185Y-87990609D01*
X121479172Y-87990602D01*
X121333501Y-87930264D01*
X121333489Y-87930261D01*
X121178845Y-87899500D01*
X121178842Y-87899500D01*
X121021158Y-87899500D01*
X121021155Y-87899500D01*
X120866510Y-87930261D01*
X120866498Y-87930264D01*
X120747452Y-87979574D01*
X120677982Y-87987043D01*
X120652548Y-87979574D01*
X120533501Y-87930264D01*
X120533489Y-87930261D01*
X120378845Y-87899500D01*
X120378842Y-87899500D01*
X120221158Y-87899500D01*
X120221155Y-87899500D01*
X120066510Y-87930261D01*
X120066498Y-87930264D01*
X119920827Y-87990602D01*
X119920814Y-87990609D01*
X119789711Y-88078210D01*
X119789707Y-88078213D01*
X119678213Y-88189707D01*
X119678210Y-88189711D01*
X119590609Y-88320814D01*
X119590602Y-88320827D01*
X119530264Y-88466498D01*
X119530261Y-88466510D01*
X119499500Y-88621153D01*
X119499500Y-88778846D01*
X119530261Y-88933489D01*
X119530264Y-88933501D01*
X119590602Y-89079172D01*
X119590609Y-89079185D01*
X119678599Y-89210870D01*
X119684249Y-89228916D01*
X119694474Y-89244826D01*
X119698925Y-89275785D01*
X119699477Y-89277547D01*
X119699497Y-89279761D01*
X119699497Y-89320234D01*
X119679812Y-89387273D01*
X119678599Y-89389125D01*
X119590606Y-89520814D01*
X119590599Y-89520827D01*
X119530261Y-89666498D01*
X119530258Y-89666510D01*
X119499497Y-89821153D01*
X113776381Y-89821153D01*
X113753185Y-89749765D01*
X113728884Y-89674975D01*
X113728882Y-89674972D01*
X113728882Y-89674970D01*
X113650339Y-89520821D01*
X113639524Y-89499595D01*
X113523828Y-89340354D01*
X113384646Y-89201172D01*
X113305025Y-89143324D01*
X113225403Y-89085474D01*
X113048787Y-88995485D01*
X112997990Y-88947511D01*
X112981195Y-88879690D01*
X113003732Y-88813555D01*
X113048787Y-88774515D01*
X113225403Y-88684525D01*
X113225402Y-88684525D01*
X113225405Y-88684524D01*
X113384646Y-88568828D01*
X113523828Y-88429646D01*
X113639524Y-88270405D01*
X113728884Y-88095025D01*
X113789709Y-87907826D01*
X113803489Y-87820821D01*
X113820500Y-87713422D01*
X113820500Y-87623654D01*
X113840185Y-87556615D01*
X113892989Y-87510860D01*
X113962147Y-87500916D01*
X114025703Y-87529941D01*
X114059061Y-87576202D01*
X114113102Y-87706672D01*
X114113109Y-87706685D01*
X114200710Y-87837788D01*
X114200713Y-87837792D01*
X114312207Y-87949286D01*
X114312211Y-87949289D01*
X114443314Y-88036890D01*
X114443327Y-88036897D01*
X114583663Y-88095025D01*
X114589003Y-88097237D01*
X114653647Y-88110095D01*
X114744349Y-88128138D01*
X114806260Y-88160523D01*
X114807839Y-88162074D01*
X115047198Y-88401433D01*
X115066904Y-88427114D01*
X115120212Y-88519447D01*
X115120216Y-88519452D01*
X115239084Y-88638320D01*
X115239090Y-88638325D01*
X115564690Y-88963925D01*
X115598175Y-89025248D01*
X115598626Y-89027414D01*
X115629526Y-89182756D01*
X115629529Y-89182766D01*
X115689867Y-89328437D01*
X115689874Y-89328450D01*
X115777475Y-89459553D01*
X115777478Y-89459557D01*
X115888972Y-89571051D01*
X115888976Y-89571054D01*
X116020079Y-89658655D01*
X116020092Y-89658662D01*
X116165763Y-89719000D01*
X116165768Y-89719002D01*
X116320418Y-89749764D01*
X116320421Y-89749765D01*
X116320423Y-89749765D01*
X116478109Y-89749765D01*
X116478110Y-89749764D01*
X116632762Y-89719002D01*
X116653552Y-89710390D01*
X116677419Y-89700505D01*
X116778437Y-89658662D01*
X116778437Y-89658661D01*
X116778444Y-89658659D01*
X116909554Y-89571054D01*
X117021054Y-89459554D01*
X117108659Y-89328444D01*
X117169002Y-89182762D01*
X117199765Y-89028107D01*
X117199765Y-88870423D01*
X117199765Y-88870420D01*
X117199764Y-88870418D01*
X117181549Y-88778846D01*
X117169002Y-88715768D01*
X117156061Y-88684525D01*
X117108662Y-88570092D01*
X117108655Y-88570079D01*
X117021054Y-88438976D01*
X117021051Y-88438972D01*
X116909557Y-88327478D01*
X116909553Y-88327475D01*
X116778450Y-88239874D01*
X116778437Y-88239867D01*
X116632766Y-88179529D01*
X116632756Y-88179526D01*
X116477414Y-88148626D01*
X116415503Y-88116241D01*
X116413925Y-88114690D01*
X116154270Y-87855035D01*
X116134565Y-87829355D01*
X116081255Y-87737019D01*
X115969451Y-87625215D01*
X115969450Y-87625214D01*
X115965120Y-87620884D01*
X115965109Y-87620874D01*
X115657074Y-87312839D01*
X115623589Y-87251516D01*
X115623138Y-87249349D01*
X115600386Y-87134970D01*
X115592237Y-87094003D01*
X115549560Y-86990971D01*
X115531897Y-86948327D01*
X115531890Y-86948314D01*
X115444289Y-86817211D01*
X115444286Y-86817207D01*
X115332792Y-86705713D01*
X115332788Y-86705710D01*
X115244755Y-86646888D01*
X116125235Y-86646888D01*
X116125235Y-86804581D01*
X116155996Y-86959224D01*
X116155999Y-86959236D01*
X116216337Y-87104907D01*
X116216344Y-87104920D01*
X116303945Y-87236023D01*
X116303948Y-87236027D01*
X116415442Y-87347521D01*
X116415446Y-87347524D01*
X116546549Y-87435125D01*
X116546562Y-87435132D01*
X116692233Y-87495470D01*
X116692238Y-87495472D01*
X116846888Y-87526234D01*
X116846891Y-87526235D01*
X116846893Y-87526235D01*
X117004579Y-87526235D01*
X117004580Y-87526234D01*
X117159232Y-87495472D01*
X117304914Y-87435129D01*
X117312195Y-87430264D01*
X117436610Y-87347133D01*
X117503288Y-87326255D01*
X117505501Y-87326235D01*
X117976384Y-87326235D01*
X118043423Y-87345920D01*
X118064065Y-87362554D01*
X118080767Y-87379256D01*
X118080771Y-87379259D01*
X118211874Y-87466860D01*
X118211887Y-87466867D01*
X118331914Y-87516583D01*
X118357563Y-87527207D01*
X118505406Y-87556615D01*
X118512213Y-87557969D01*
X118512216Y-87557970D01*
X118512218Y-87557970D01*
X118669904Y-87557970D01*
X118669905Y-87557969D01*
X118824557Y-87527207D01*
X118970239Y-87466864D01*
X119101349Y-87379259D01*
X119212849Y-87267759D01*
X119300454Y-87136649D01*
X119301150Y-87134970D01*
X119314127Y-87103636D01*
X119360797Y-86990967D01*
X119391560Y-86836312D01*
X119391560Y-86678628D01*
X119391560Y-86678625D01*
X119391559Y-86678623D01*
X119379521Y-86618106D01*
X119360797Y-86523973D01*
X119316258Y-86416445D01*
X119300457Y-86378297D01*
X119300450Y-86378284D01*
X119212849Y-86247181D01*
X119212846Y-86247177D01*
X119101352Y-86135683D01*
X119101348Y-86135680D01*
X118970245Y-86048079D01*
X118970232Y-86048072D01*
X118824561Y-85987734D01*
X118824549Y-85987731D01*
X118669905Y-85956970D01*
X118669902Y-85956970D01*
X118512218Y-85956970D01*
X118512215Y-85956970D01*
X118357570Y-85987731D01*
X118357558Y-85987734D01*
X118211887Y-86048072D01*
X118211880Y-86048076D01*
X118171716Y-86074913D01*
X118127679Y-86104337D01*
X118061004Y-86125215D01*
X118058790Y-86125235D01*
X117505501Y-86125235D01*
X117438462Y-86105550D01*
X117436610Y-86104337D01*
X117304920Y-86016344D01*
X117304907Y-86016337D01*
X117159236Y-85955999D01*
X117159224Y-85955996D01*
X117004580Y-85925235D01*
X117004577Y-85925235D01*
X116846893Y-85925235D01*
X116846890Y-85925235D01*
X116692245Y-85955996D01*
X116692233Y-85955999D01*
X116546562Y-86016337D01*
X116546549Y-86016344D01*
X116415446Y-86103945D01*
X116415442Y-86103948D01*
X116303948Y-86215442D01*
X116303945Y-86215446D01*
X116216344Y-86346549D01*
X116216337Y-86346562D01*
X116155999Y-86492233D01*
X116155996Y-86492245D01*
X116125235Y-86646888D01*
X115244755Y-86646888D01*
X115201685Y-86618109D01*
X115201672Y-86618102D01*
X115056001Y-86557764D01*
X115055989Y-86557761D01*
X114901345Y-86527000D01*
X114901342Y-86527000D01*
X114743658Y-86527000D01*
X114743655Y-86527000D01*
X114589010Y-86557761D01*
X114588998Y-86557764D01*
X114443327Y-86618102D01*
X114443314Y-86618109D01*
X114312211Y-86705710D01*
X114312207Y-86705713D01*
X114200713Y-86817207D01*
X114200710Y-86817211D01*
X114113109Y-86948314D01*
X114113102Y-86948327D01*
X114052764Y-87093998D01*
X114052761Y-87094010D01*
X114022000Y-87248653D01*
X114022000Y-87254185D01*
X114002315Y-87321224D01*
X113949511Y-87366979D01*
X113880353Y-87376923D01*
X113816797Y-87347898D01*
X113780069Y-87292504D01*
X113729428Y-87136649D01*
X113728884Y-87134975D01*
X113728882Y-87134972D01*
X113728882Y-87134970D01*
X113681743Y-87042455D01*
X113639524Y-86959595D01*
X113523828Y-86800354D01*
X113384646Y-86661172D01*
X113242314Y-86557761D01*
X113225403Y-86545474D01*
X113048787Y-86455485D01*
X112997990Y-86407511D01*
X112981195Y-86339690D01*
X113003732Y-86273555D01*
X113048787Y-86234515D01*
X113225403Y-86144525D01*
X113225402Y-86144525D01*
X113225405Y-86144524D01*
X113384646Y-86028828D01*
X113523828Y-85889646D01*
X113639524Y-85730405D01*
X113728884Y-85555025D01*
X113789709Y-85367826D01*
X113795488Y-85331341D01*
X113820500Y-85173422D01*
X113820500Y-84976577D01*
X113789709Y-84782173D01*
X113728882Y-84594970D01*
X113681743Y-84502455D01*
X113639524Y-84419595D01*
X113523828Y-84260354D01*
X113384646Y-84121172D01*
X113259955Y-84030578D01*
X113225403Y-84005474D01*
X113048787Y-83915485D01*
X112997990Y-83867511D01*
X112981195Y-83799690D01*
X113003732Y-83733555D01*
X113048787Y-83694515D01*
X113225403Y-83604525D01*
X113225402Y-83604525D01*
X113225405Y-83604524D01*
X113384646Y-83488828D01*
X113453321Y-83420153D01*
X128299500Y-83420153D01*
X128299500Y-83577846D01*
X128330261Y-83732489D01*
X128330264Y-83732501D01*
X128390602Y-83878172D01*
X128390609Y-83878185D01*
X128478602Y-84009874D01*
X128499480Y-84076551D01*
X128499500Y-84078765D01*
X128499500Y-84921234D01*
X128479815Y-84988273D01*
X128478602Y-84990125D01*
X128390609Y-85121814D01*
X128390602Y-85121827D01*
X128330264Y-85267498D01*
X128330261Y-85267510D01*
X128299500Y-85422153D01*
X128299500Y-85579846D01*
X128330261Y-85734489D01*
X128330264Y-85734501D01*
X128390602Y-85880172D01*
X128390609Y-85880185D01*
X128478210Y-86011288D01*
X128478213Y-86011292D01*
X128589707Y-86122786D01*
X128589711Y-86122789D01*
X128720814Y-86210390D01*
X128720827Y-86210397D01*
X128809633Y-86247181D01*
X128866503Y-86270737D01*
X128987018Y-86294709D01*
X129021153Y-86301499D01*
X129021156Y-86301500D01*
X129021158Y-86301500D01*
X129178844Y-86301500D01*
X129178845Y-86301499D01*
X129333497Y-86270737D01*
X129479179Y-86210394D01*
X129610289Y-86122789D01*
X129721789Y-86011289D01*
X129809394Y-85880179D01*
X129869737Y-85734497D01*
X129900500Y-85579842D01*
X129900500Y-85422158D01*
X129900500Y-85422155D01*
X129900499Y-85422153D01*
X129869737Y-85267503D01*
X129863929Y-85253482D01*
X129809397Y-85121827D01*
X129809390Y-85121814D01*
X129721398Y-84990125D01*
X129700520Y-84923447D01*
X129700500Y-84921234D01*
X129700500Y-84078765D01*
X129720185Y-84011726D01*
X129721398Y-84009874D01*
X129809390Y-83878185D01*
X129809390Y-83878184D01*
X129809394Y-83878179D01*
X129869737Y-83732497D01*
X129900500Y-83577842D01*
X129900500Y-83420158D01*
X129900500Y-83420155D01*
X129900499Y-83420153D01*
X129886699Y-83350776D01*
X129869737Y-83265503D01*
X129838631Y-83190405D01*
X129809397Y-83119827D01*
X129809390Y-83119814D01*
X129721789Y-82988711D01*
X129721786Y-82988707D01*
X129610292Y-82877213D01*
X129610288Y-82877210D01*
X129479185Y-82789609D01*
X129479172Y-82789602D01*
X129333501Y-82729264D01*
X129333489Y-82729261D01*
X129178845Y-82698500D01*
X129178842Y-82698500D01*
X129021158Y-82698500D01*
X129021155Y-82698500D01*
X128866510Y-82729261D01*
X128866498Y-82729264D01*
X128720827Y-82789602D01*
X128720814Y-82789609D01*
X128589711Y-82877210D01*
X128589707Y-82877213D01*
X128478213Y-82988707D01*
X128478210Y-82988711D01*
X128390609Y-83119814D01*
X128390602Y-83119827D01*
X128330264Y-83265498D01*
X128330261Y-83265510D01*
X128299500Y-83420153D01*
X113453321Y-83420153D01*
X113523828Y-83349646D01*
X113639524Y-83190405D01*
X113728884Y-83015025D01*
X113789709Y-82827826D01*
X113795762Y-82789609D01*
X113820500Y-82633422D01*
X113820500Y-82436577D01*
X113789709Y-82242173D01*
X113728882Y-82054970D01*
X113639523Y-81879594D01*
X113523828Y-81720354D01*
X113384646Y-81581172D01*
X113305025Y-81523324D01*
X113225403Y-81465474D01*
X113048787Y-81375485D01*
X112997990Y-81327511D01*
X112981195Y-81259690D01*
X113003732Y-81193555D01*
X113048787Y-81154515D01*
X113225403Y-81064525D01*
X113225402Y-81064525D01*
X113225405Y-81064524D01*
X113384646Y-80948828D01*
X113523828Y-80809646D01*
X113639524Y-80650405D01*
X113728884Y-80475025D01*
X113789709Y-80287826D01*
X113795488Y-80251341D01*
X113820500Y-80093422D01*
X113820500Y-79896577D01*
X113789709Y-79702173D01*
X113728882Y-79514970D01*
X113639523Y-79339594D01*
X113523828Y-79180354D01*
X113384646Y-79041172D01*
X113305025Y-78983324D01*
X113225403Y-78925474D01*
X113048787Y-78835485D01*
X112997990Y-78787511D01*
X112981195Y-78719690D01*
X113003732Y-78653555D01*
X113048787Y-78614515D01*
X113225403Y-78524525D01*
X113225402Y-78524525D01*
X113225405Y-78524524D01*
X113384646Y-78408828D01*
X113523828Y-78269646D01*
X113639524Y-78110405D01*
X113728884Y-77935025D01*
X113789709Y-77747826D01*
X113795488Y-77711341D01*
X113820500Y-77553422D01*
X113820500Y-77356577D01*
X113789709Y-77162173D01*
X113728882Y-76974970D01*
X113639523Y-76799594D01*
X113523828Y-76640354D01*
X113384646Y-76501172D01*
X113305025Y-76443324D01*
X113225403Y-76385474D01*
X113048787Y-76295485D01*
X112997990Y-76247511D01*
X112981195Y-76179690D01*
X113003732Y-76113555D01*
X113048787Y-76074515D01*
X113225403Y-75984525D01*
X113225402Y-75984525D01*
X113225405Y-75984524D01*
X113384646Y-75868828D01*
X113523828Y-75729646D01*
X113639524Y-75570405D01*
X113715571Y-75421153D01*
X124399500Y-75421153D01*
X124399500Y-75578846D01*
X124430261Y-75733489D01*
X124430264Y-75733501D01*
X124490602Y-75879172D01*
X124490609Y-75879185D01*
X124578210Y-76010288D01*
X124578213Y-76010292D01*
X124689707Y-76121786D01*
X124689711Y-76121789D01*
X124820814Y-76209390D01*
X124820827Y-76209397D01*
X124883342Y-76235291D01*
X124966503Y-76269737D01*
X125121153Y-76300499D01*
X125121156Y-76300500D01*
X125121158Y-76300500D01*
X125278844Y-76300500D01*
X125278845Y-76300499D01*
X125433497Y-76269737D01*
X125579179Y-76209394D01*
X125644871Y-76165500D01*
X125710875Y-76121398D01*
X125728921Y-76115747D01*
X125744831Y-76105523D01*
X125775792Y-76101071D01*
X125777553Y-76100520D01*
X125779766Y-76100500D01*
X125820234Y-76100500D01*
X125887273Y-76120185D01*
X125889125Y-76121398D01*
X126020814Y-76209390D01*
X126020827Y-76209397D01*
X126083342Y-76235291D01*
X126166503Y-76269737D01*
X126321153Y-76300499D01*
X126321156Y-76300500D01*
X126321158Y-76300500D01*
X126478844Y-76300500D01*
X126478845Y-76300499D01*
X126633497Y-76269737D01*
X126779179Y-76209394D01*
X126910289Y-76121789D01*
X127021789Y-76010289D01*
X127109394Y-75879179D01*
X127113682Y-75868828D01*
X127169735Y-75733501D01*
X127169737Y-75733497D01*
X127200500Y-75578842D01*
X127200500Y-75421158D01*
X127200500Y-75421155D01*
X127200499Y-75421153D01*
X127169738Y-75266510D01*
X127169737Y-75266503D01*
X127169735Y-75266498D01*
X127109397Y-75120827D01*
X127109390Y-75120814D01*
X127021789Y-74989711D01*
X127021786Y-74989707D01*
X126910292Y-74878213D01*
X126910288Y-74878210D01*
X126779185Y-74790609D01*
X126779172Y-74790602D01*
X126633501Y-74730264D01*
X126633489Y-74730261D01*
X126478845Y-74699500D01*
X126478842Y-74699500D01*
X126321158Y-74699500D01*
X126321155Y-74699500D01*
X126166510Y-74730261D01*
X126166498Y-74730264D01*
X126020827Y-74790602D01*
X126020814Y-74790609D01*
X125889125Y-74878602D01*
X125871078Y-74884252D01*
X125855169Y-74894477D01*
X125824207Y-74898928D01*
X125822447Y-74899480D01*
X125820234Y-74899500D01*
X125779766Y-74899500D01*
X125712727Y-74879815D01*
X125710875Y-74878602D01*
X125579185Y-74790609D01*
X125579172Y-74790602D01*
X125433501Y-74730264D01*
X125433489Y-74730261D01*
X125278845Y-74699500D01*
X125278842Y-74699500D01*
X125121158Y-74699500D01*
X125121155Y-74699500D01*
X124966510Y-74730261D01*
X124966498Y-74730264D01*
X124820827Y-74790602D01*
X124820814Y-74790609D01*
X124689711Y-74878210D01*
X124689707Y-74878213D01*
X124578213Y-74989707D01*
X124578210Y-74989711D01*
X124490609Y-75120814D01*
X124490602Y-75120827D01*
X124430264Y-75266498D01*
X124430261Y-75266510D01*
X124399500Y-75421153D01*
X113715571Y-75421153D01*
X113728884Y-75395025D01*
X113789709Y-75207826D01*
X113795488Y-75171341D01*
X113820500Y-75013422D01*
X113820500Y-74816577D01*
X113789709Y-74622173D01*
X113728882Y-74434970D01*
X113639523Y-74259594D01*
X113523828Y-74100354D01*
X113384646Y-73961172D01*
X113305025Y-73903324D01*
X113225403Y-73845474D01*
X113048787Y-73755485D01*
X112997990Y-73707511D01*
X112981195Y-73639690D01*
X113003732Y-73573555D01*
X113048787Y-73534515D01*
X113225403Y-73444525D01*
X113225402Y-73444525D01*
X113225405Y-73444524D01*
X113384646Y-73328828D01*
X113523828Y-73189646D01*
X113639524Y-73030405D01*
X113728884Y-72855025D01*
X113789709Y-72667826D01*
X113795488Y-72631341D01*
X113820500Y-72473422D01*
X113820500Y-72276577D01*
X113789709Y-72082173D01*
X113728882Y-71894970D01*
X113639523Y-71719594D01*
X113523828Y-71560354D01*
X113384646Y-71421172D01*
X113305025Y-71363324D01*
X113225403Y-71305474D01*
X113048787Y-71215485D01*
X112997990Y-71167511D01*
X112981195Y-71099690D01*
X113003732Y-71033555D01*
X113048787Y-70994515D01*
X113225403Y-70904525D01*
X113225402Y-70904525D01*
X113225405Y-70904524D01*
X113384646Y-70788828D01*
X113523828Y-70649646D01*
X113639524Y-70490405D01*
X113728884Y-70315025D01*
X113789709Y-70127826D01*
X113795488Y-70091341D01*
X113820500Y-69933422D01*
X113820500Y-69736577D01*
X113789709Y-69542173D01*
X113728882Y-69354970D01*
X113639523Y-69179594D01*
X113523828Y-69020354D01*
X113384646Y-68881172D01*
X113305025Y-68823324D01*
X113225403Y-68765474D01*
X113048787Y-68675485D01*
X112997990Y-68627511D01*
X112981195Y-68559690D01*
X113003732Y-68493555D01*
X113048787Y-68454515D01*
X113225403Y-68364525D01*
X113225402Y-68364525D01*
X113225405Y-68364524D01*
X113384646Y-68248828D01*
X113523828Y-68109646D01*
X113639524Y-67950405D01*
X113728884Y-67775025D01*
X113789709Y-67587826D01*
X113795488Y-67551341D01*
X113820500Y-67393422D01*
X113820500Y-67196577D01*
X113789709Y-67002173D01*
X113728882Y-66814970D01*
X113639523Y-66639594D01*
X113523828Y-66480354D01*
X113384646Y-66341172D01*
X113231377Y-66229815D01*
X113188714Y-66174487D01*
X113182735Y-66104873D01*
X113215341Y-66043078D01*
X113276180Y-66008721D01*
X113304264Y-66005499D01*
X113367872Y-66005499D01*
X113427483Y-65999091D01*
X113562331Y-65948796D01*
X113677546Y-65862546D01*
X113763796Y-65747331D01*
X113814091Y-65612483D01*
X113820500Y-65552873D01*
X113820499Y-63957128D01*
X113814091Y-63897517D01*
X113799317Y-63857907D01*
X113763797Y-63762671D01*
X113763793Y-63762664D01*
X113677547Y-63647455D01*
X113677544Y-63647452D01*
X113562335Y-63561206D01*
X113562328Y-63561202D01*
X113427482Y-63510908D01*
X113427483Y-63510908D01*
X113367883Y-63504501D01*
X113367881Y-63504500D01*
X113367873Y-63504500D01*
X113367864Y-63504500D01*
X111772129Y-63504500D01*
X111772123Y-63504501D01*
X111712516Y-63510908D01*
X111577671Y-63561202D01*
X111577664Y-63561206D01*
X111462455Y-63647452D01*
X111462452Y-63647455D01*
X111376206Y-63762664D01*
X111376202Y-63762671D01*
X111340682Y-63857907D01*
X111298811Y-63913841D01*
X111233346Y-63938258D01*
X111165074Y-63923406D01*
X111115668Y-63874001D01*
X111100500Y-63814574D01*
X111100500Y-63325757D01*
X111120185Y-63258718D01*
X111172989Y-63212963D01*
X111225466Y-63201761D01*
X134846245Y-63386298D01*
G37*
%TD.AperFunction*%
%TA.AperFunction,Conductor*%
G36*
X112150667Y-97948694D02*
G01*
X112209910Y-98051306D01*
X112293694Y-98135090D01*
X112396306Y-98194333D01*
X112481414Y-98217137D01*
X111879873Y-98818677D01*
X111879873Y-98818678D01*
X111914858Y-98844096D01*
X112091764Y-98934234D01*
X112142560Y-98982209D01*
X112159355Y-99050030D01*
X112136818Y-99116164D01*
X112091764Y-99155204D01*
X111914594Y-99245476D01*
X111823741Y-99311485D01*
X111755354Y-99361172D01*
X111755352Y-99361174D01*
X111755351Y-99361174D01*
X111616174Y-99500351D01*
X111616174Y-99500352D01*
X111616172Y-99500354D01*
X111594534Y-99530136D01*
X111500476Y-99659594D01*
X111411117Y-99834970D01*
X111392157Y-99893325D01*
X111352719Y-99951000D01*
X111288360Y-99978198D01*
X111219514Y-99966283D01*
X111168038Y-99919038D01*
X111150227Y-99855515D01*
X111143496Y-98213163D01*
X111162906Y-98146046D01*
X111215522Y-98100075D01*
X111284639Y-98089848D01*
X111348313Y-98118612D01*
X111385426Y-98174339D01*
X111411581Y-98254835D01*
X111500905Y-98430145D01*
X111526319Y-98465125D01*
X111526320Y-98465125D01*
X112127861Y-97863584D01*
X112150667Y-97948694D01*
G37*
%TD.AperFunction*%
%TA.AperFunction,Conductor*%
G36*
X136476384Y-98467832D02*
G01*
X136534646Y-98480071D01*
X136584404Y-98529122D01*
X136600000Y-98589326D01*
X136600000Y-99417342D01*
X136580315Y-99484381D01*
X136527511Y-99530136D01*
X136458353Y-99540080D01*
X136394797Y-99511055D01*
X136387432Y-99503639D01*
X136387273Y-99503799D01*
X136244648Y-99361174D01*
X136244646Y-99361172D01*
X136085405Y-99245476D01*
X135910025Y-99156116D01*
X135910024Y-99156115D01*
X135908235Y-99155204D01*
X135857439Y-99107230D01*
X135840644Y-99039409D01*
X135863181Y-98973274D01*
X135908236Y-98934234D01*
X136085141Y-98844097D01*
X136120125Y-98818678D01*
X136120126Y-98818678D01*
X135518585Y-98217137D01*
X135603694Y-98194333D01*
X135706306Y-98135090D01*
X135790090Y-98051306D01*
X135849333Y-97948694D01*
X135872137Y-97863585D01*
X136476384Y-98467832D01*
G37*
%TD.AperFunction*%
%TA.AperFunction,Conductor*%
G36*
X111337777Y-95547807D02*
G01*
X111374890Y-95603533D01*
X111411117Y-95715029D01*
X111494263Y-95878211D01*
X111500476Y-95890405D01*
X111616172Y-96049646D01*
X111755354Y-96188828D01*
X111863032Y-96267061D01*
X111914596Y-96304525D01*
X112091763Y-96394795D01*
X112142560Y-96442769D01*
X112159355Y-96510590D01*
X112136818Y-96576725D01*
X112091764Y-96615765D01*
X111914859Y-96705902D01*
X111879873Y-96731320D01*
X111879872Y-96731320D01*
X112481415Y-97332861D01*
X112396306Y-97355667D01*
X112293694Y-97414910D01*
X112209910Y-97498694D01*
X112150667Y-97601306D01*
X112127861Y-97686414D01*
X111526320Y-97084872D01*
X111526320Y-97084873D01*
X111500902Y-97119859D01*
X111500899Y-97119863D01*
X111411582Y-97295160D01*
X111381883Y-97386564D01*
X111342445Y-97444239D01*
X111278086Y-97471437D01*
X111209240Y-97459522D01*
X111157764Y-97412277D01*
X111139953Y-97348756D01*
X111132960Y-95642358D01*
X111152370Y-95575241D01*
X111204986Y-95529270D01*
X111274103Y-95519043D01*
X111337777Y-95547807D01*
G37*
%TD.AperFunction*%
%TA.AperFunction,Conductor*%
G36*
X136569121Y-96050776D02*
G01*
X136598607Y-96114120D01*
X136600000Y-96132657D01*
X136600000Y-96960672D01*
X136580315Y-97027711D01*
X136527511Y-97073466D01*
X136475976Y-97082574D01*
X135872137Y-97686413D01*
X135849333Y-97601306D01*
X135790090Y-97498694D01*
X135706306Y-97414910D01*
X135603694Y-97355667D01*
X135518583Y-97332861D01*
X136120125Y-96731320D01*
X136120125Y-96731319D01*
X136085145Y-96705905D01*
X135908235Y-96615765D01*
X135857439Y-96567790D01*
X135840644Y-96499969D01*
X135863182Y-96433834D01*
X135908236Y-96394795D01*
X135910022Y-96393884D01*
X135910025Y-96393884D01*
X136085405Y-96304524D01*
X136244646Y-96188828D01*
X136383828Y-96049646D01*
X136383828Y-96049645D01*
X136387273Y-96046201D01*
X136388662Y-96047590D01*
X136440203Y-96013937D01*
X136510070Y-96013429D01*
X136569121Y-96050776D01*
G37*
%TD.AperFunction*%
%TD*%
M02*
