%TF.GenerationSoftware,KiCad,Pcbnew,9.0.0*%
%TF.CreationDate,2026-03-10T17:38:38+01:00*%
%TF.ProjectId,ESP32_Shield,45535033-325f-4536-9869-656c642e6b69,rev?*%
%TF.SameCoordinates,Original*%
%TF.FileFunction,Copper,L2,Bot*%
%TF.FilePolarity,Positive*%
%FSLAX46Y46*%
G04 Gerber Fmt 4.6, Leading zero omitted, Abs format (unit mm)*
G04 Created by KiCad (PCBNEW 9.0.0) date 2026-03-10 17:38:38*
%MOMM*%
%LPD*%
G01*
G04 APERTURE LIST*
%TA.AperFunction,ComponentPad*%
%ADD10C,1.600000*%
%TD*%
%TA.AperFunction,ComponentPad*%
%ADD11R,1.700000X1.700000*%
%TD*%
%TA.AperFunction,ComponentPad*%
%ADD12O,1.700000X1.700000*%
%TD*%
%TA.AperFunction,ComponentPad*%
%ADD13C,1.700000*%
%TD*%
%TA.AperFunction,ComponentPad*%
%ADD14R,1.500000X1.500000*%
%TD*%
%TA.AperFunction,ComponentPad*%
%ADD15C,1.500000*%
%TD*%
%TA.AperFunction,ViaPad*%
%ADD16C,0.600000*%
%TD*%
%TA.AperFunction,Conductor*%
%ADD17C,0.400000*%
%TD*%
%TA.AperFunction,Conductor*%
%ADD18C,0.800000*%
%TD*%
%TA.AperFunction,Conductor*%
%ADD19C,0.200000*%
%TD*%
G04 APERTURE END LIST*
D10*
%TO.P,J1,6,Pin_6*%
%TO.N,Net-(J1-Pin_6)*%
X125270000Y-104500000D03*
%TO.P,J1,10,Pin_10*%
%TO.N,Net-(J1-Pin_10)*%
X135430000Y-104500000D03*
%TO.P,J1,9,Pin_9*%
%TO.N,Net-(J1-Pin_9)*%
X132890000Y-104500000D03*
%TO.P,J1,8,Pin_8*%
%TO.N,Net-(J1-Pin_8)*%
X130350000Y-104500000D03*
%TO.P,J1,7,Pin_7*%
%TO.N,Net-(J1-Pin_7)*%
X127810000Y-104500000D03*
%TO.P,J1,2,Pin_2*%
%TO.N,Net-(J1-Pin_2)*%
X115110000Y-104500000D03*
%TO.P,J1,5,Pin_5*%
%TO.N,Net-(J1-Pin_5)*%
X122730000Y-104500000D03*
%TO.P,J1,4,Pin_4*%
%TO.N,Net-(J1-Pin_4)*%
X120190000Y-104500000D03*
%TO.P,J1,3,Pin_3*%
%TO.N,Net-(J1-Pin_3)*%
X117650000Y-104500000D03*
D11*
%TO.P,J1,1,Pin_1*%
%TO.N,GND*%
X112570000Y-104500000D03*
%TD*%
D12*
%TO.P,ESP5V1,2,Pin_2*%
%TO.N,Net-(ESP5V1-Pin_2)*%
X125500000Y-110000000D03*
D11*
%TO.P,ESP5V1,1,Pin_1*%
%TO.N,5V LDO*%
X122960000Y-110000000D03*
%TD*%
%TO.P,ESP3.3V1,1,Pin_1*%
%TO.N,+3.3V*%
X135325000Y-121550000D03*
D12*
%TO.P,ESP3.3V1,2,Pin_2*%
%TO.N,Net-(ESP3.3V1-Pin_2)*%
X132785000Y-121550000D03*
%TD*%
D11*
%TO.P,6V_IN1,1,Pin_1*%
%TO.N,Net-(6V_IN1-Pin_1)*%
X112710000Y-116000000D03*
D13*
%TO.P,6V_IN1,2,Pin_2*%
%TO.N,GND*%
X115250000Y-116000000D03*
%TD*%
D11*
%TO.P,ADC1,1,Pin_1*%
%TO.N,+3.3V*%
X128800000Y-86700000D03*
D12*
%TO.P,ADC1,2,Pin_2*%
%TO.N,Net-(ADC1-Pin_2)*%
X126260000Y-86700000D03*
%TD*%
D11*
%TO.P,THRM1,1,Pin_1*%
%TO.N,+3.3V*%
X124475000Y-66700000D03*
D12*
%TO.P,THRM1,2,Pin_2*%
%TO.N,Net-(THRM1-Pin_2)*%
X121935000Y-66700000D03*
%TD*%
D11*
%TO.P,PWR1,1,Pin_1*%
%TO.N,Net-(6V_IN1-Pin_1)*%
X112700000Y-110000000D03*
D13*
%TO.P,PWR1,2,Pin_2*%
%TO.N,+5V*%
X115240000Y-110000000D03*
%TD*%
D11*
%TO.P,BAT1,1,Pin_1*%
%TO.N,+BATT*%
X132250000Y-110000000D03*
D13*
%TO.P,BAT1,2,Pin_2*%
%TO.N,GND*%
X134790000Y-110000000D03*
%TD*%
D14*
%TO.P,U2,1,EN*%
%TO.N,unconnected-(U2-EN-Pad1)*%
X112570000Y-64755000D03*
D15*
%TO.P,U2,2,IO36*%
%TO.N,unconnected-(U2-IO36-Pad2)*%
X112570000Y-67295000D03*
%TO.P,U2,3,IO39*%
%TO.N,unconnected-(U2-IO39-Pad3)*%
X112570000Y-69835000D03*
%TO.P,U2,4,IO39*%
%TO.N,unconnected-(U2-IO39-Pad4)*%
X112570000Y-72375000D03*
%TO.P,U2,5,IO34*%
%TO.N,unconnected-(U2-IO34-Pad5)*%
X112570000Y-74915000D03*
%TO.P,U2,6,IO35*%
%TO.N,unconnected-(U2-IO35-Pad6)*%
X112570000Y-77455000D03*
%TO.P,U2,7,IO32*%
%TO.N,unconnected-(U2-IO32-Pad7)*%
X112570000Y-79995000D03*
%TO.P,U2,8,IO33*%
%TO.N,MODE_PD*%
X112570000Y-82535000D03*
%TO.P,U2,9,IO26*%
%TO.N,!PWDN*%
X112570000Y-85075000D03*
%TO.P,U2,10,IO27*%
%TO.N,CS_Display*%
X112570000Y-87615000D03*
%TO.P,U2,11,IO14*%
%TO.N,SPI_CLK*%
X112570000Y-90155000D03*
%TO.P,U2,12,IO12*%
%TO.N,bat_adc*%
X112570000Y-92695000D03*
%TO.P,U2,13,IO13*%
%TO.N,TARA_PD*%
X112570000Y-95235000D03*
%TO.P,U2,14,GND*%
%TO.N,GND*%
X112570000Y-97775000D03*
%TO.P,U2,15,5V*%
%TO.N,Net-(ESP5V1-Pin_2)*%
X112570000Y-100315000D03*
%TO.P,U2,16,3V3*%
%TO.N,Net-(ESP3.3V1-Pin_2)*%
X135430000Y-100315000D03*
%TO.P,U2,17,GND*%
%TO.N,GND*%
X135430000Y-97775000D03*
%TO.P,U2,18,IO15*%
%TO.N,SCLK*%
X135430000Y-95235000D03*
%TO.P,U2,19,IO2*%
%TO.N,D_RDY_OUT*%
X135430000Y-92695000D03*
%TO.P,U2,20,IO4*%
%TO.N,unconnected-(U2-IO4-Pad20)*%
X135430000Y-90155000D03*
%TO.P,U2,21,IO16*%
%TO.N,unconnected-(U2-IO16-Pad21)*%
X135430000Y-87615000D03*
%TO.P,U2,22,IO17*%
%TO.N,!EN_DMS*%
X135430000Y-85075000D03*
%TO.P,U2,23,IO5*%
%TO.N,en_meas*%
X135430000Y-82535000D03*
%TO.P,U2,24,IO18*%
%TO.N,unconnected-(U2-IO18-Pad24)*%
X135430000Y-79995000D03*
%TO.P,U2,25,IO19*%
%TO.N,MISO*%
X135430000Y-77455000D03*
%TO.P,U2,26,IO21*%
%TO.N,SDA*%
X135430000Y-74915000D03*
%TO.P,U2,27,IO3*%
%TO.N,unconnected-(U2-IO3-Pad27)*%
X135430000Y-72375000D03*
%TO.P,U2,28,IO1*%
%TO.N,unconnected-(U2-IO1-Pad28)*%
X135430000Y-69835000D03*
%TO.P,U2,29,IO23*%
%TO.N,SCL*%
X135430000Y-67295000D03*
%TO.P,U2,30,IO23*%
%TO.N,MOSI*%
X135430000Y-64755000D03*
%TD*%
D11*
%TO.P,DMS1,1,Pin_1*%
%TO.N,+3.3V*%
X135275000Y-116000000D03*
D12*
%TO.P,DMS1,2,Pin_2*%
%TO.N,Net-(DMS1-Pin_2)*%
X132735000Y-116000000D03*
%TD*%
D16*
%TO.N,GND*%
X130750000Y-75550000D03*
%TO.N,Net-(ESP3.3V1-Pin_2)*%
X134150000Y-106350000D03*
X134764265Y-102985735D03*
%TO.N,GND*%
X114250000Y-122500000D03*
X131656924Y-100782544D03*
X133660837Y-98405353D03*
X133350000Y-107950000D03*
X131636550Y-112298907D03*
X135255000Y-112395000D03*
X128299469Y-115920130D03*
X111125000Y-118745000D03*
X111125000Y-123825000D03*
X111125000Y-121285000D03*
X120015000Y-118745000D03*
X129540000Y-83820000D03*
X125730000Y-83820000D03*
X125730000Y-81915000D03*
X129540000Y-81915000D03*
X111125000Y-107950000D03*
X125095000Y-118745000D03*
X129540000Y-118745000D03*
X126365000Y-112395000D03*
X128270000Y-112395000D03*
X117475000Y-111760000D03*
X120015000Y-111760000D03*
X120015000Y-109855000D03*
X117475000Y-109855000D03*
X120996638Y-121892455D03*
X123825000Y-121920000D03*
X125730000Y-121920000D03*
X129540000Y-123825000D03*
X136525000Y-123825000D03*
X129500000Y-120000000D03*
X121250000Y-115000000D03*
X121376421Y-116297930D03*
%TO.N,5V LDO*%
X113000000Y-119250000D03*
%TO.N,+3.3V*%
X136250000Y-102000000D03*
X132250000Y-87250000D03*
X132250000Y-70200000D03*
X132250000Y-67800000D03*
X132250000Y-73100000D03*
%TO.N,GND*%
X114100000Y-93500000D03*
X136525000Y-86360000D03*
X118110000Y-87630000D03*
X125500000Y-70800000D03*
X120850000Y-72786657D03*
X131074357Y-86090564D03*
X125730000Y-75565000D03*
X114200000Y-87900000D03*
X118917966Y-102390703D03*
X118917966Y-100105075D03*
X113665000Y-78740000D03*
X128905000Y-65405000D03*
X111200000Y-96400000D03*
X136525000Y-93980000D03*
X111125000Y-73660000D03*
X119806238Y-97146283D03*
X113800000Y-106700000D03*
X113665000Y-76200000D03*
X136525000Y-88900000D03*
X126365000Y-63500000D03*
X113665000Y-71120000D03*
X125730000Y-79375000D03*
X128133220Y-91061039D03*
X112600000Y-102300000D03*
X130810000Y-106680000D03*
X113665000Y-66040000D03*
X113665000Y-68580000D03*
X121920000Y-78105000D03*
X129000000Y-100500000D03*
X111125000Y-78740000D03*
X121400000Y-87000000D03*
X115300000Y-86500000D03*
X123825000Y-63500000D03*
X113665000Y-81280000D03*
X116205000Y-68580000D03*
X111125000Y-76200000D03*
X135255000Y-106680000D03*
X133500000Y-73000000D03*
X134343287Y-96739846D03*
X111125000Y-68580000D03*
X131074357Y-88277354D03*
X118745000Y-66040000D03*
X125728163Y-90575086D03*
X121920000Y-79375000D03*
X136525000Y-96520000D03*
X111125000Y-113030000D03*
X121000000Y-102800000D03*
X133985000Y-66040000D03*
X123066452Y-70493236D03*
X121285000Y-63500000D03*
X133985000Y-91440000D03*
X115600000Y-76800000D03*
X128905000Y-67945000D03*
X130175000Y-109855000D03*
X120850000Y-73500000D03*
X133600000Y-78300000D03*
X133985000Y-88900000D03*
X118745000Y-63500000D03*
X136525000Y-91440000D03*
X114300000Y-113030000D03*
X111125000Y-66040000D03*
X136525000Y-66040000D03*
X116840000Y-113030000D03*
X129540000Y-93980000D03*
X128905000Y-63500000D03*
X111125000Y-81280000D03*
X133985000Y-83820000D03*
X126362373Y-90953964D03*
X136525000Y-73660000D03*
X116205000Y-66040000D03*
X136525000Y-83820000D03*
X115700000Y-73700000D03*
X119982843Y-94812675D03*
X128948633Y-91044566D03*
X136525000Y-76200000D03*
X128905000Y-108585000D03*
X121920000Y-74930000D03*
X129540000Y-95885000D03*
X136525000Y-71120000D03*
X131445000Y-63500000D03*
X136525000Y-78740000D03*
X127000000Y-90500000D03*
X126400000Y-89800000D03*
X115600000Y-79200000D03*
X136525000Y-99060000D03*
X113665000Y-73660000D03*
X124300000Y-99300000D03*
X119300000Y-70100000D03*
X121100000Y-70100000D03*
X136525000Y-81280000D03*
X133500000Y-74900000D03*
X116205000Y-63500000D03*
X125730000Y-78105000D03*
X131445000Y-65405000D03*
X130810000Y-67945000D03*
X111200000Y-99200000D03*
X125500000Y-72750000D03*
X133985000Y-86360000D03*
X136525000Y-68580000D03*
X114400000Y-83200000D03*
X128400000Y-99300000D03*
X111125000Y-71120000D03*
X118100000Y-90400000D03*
X125061007Y-91003383D03*
X119701223Y-99077262D03*
X131000000Y-72100000D03*
X118745000Y-68580000D03*
%TO.N,Net-(J1-Pin_9)*%
X122455548Y-90483527D03*
X124307528Y-101356057D03*
%TO.N,Net-(J1-Pin_10)*%
X123800000Y-100700000D03*
X123069485Y-91030515D03*
%TO.N,Net-(J1-Pin_6)*%
X121774888Y-90959677D03*
%TO.N,Net-(J1-Pin_5)*%
X121138807Y-90474491D03*
%TO.N,+BATT*%
X120600000Y-76500000D03*
X119200000Y-94091500D03*
%TO.N,!EN_DMS*%
X117601448Y-92583552D03*
X116752918Y-93432082D03*
%TO.N,Net-(ADC1-Pin_2)*%
X131200000Y-99500000D03*
X131100000Y-90800000D03*
%TO.N,GND*%
X129540000Y-78105000D03*
X129540000Y-79375000D03*
X125250000Y-116250000D03*
%TD*%
D17*
%TO.N,Net-(ESP3.3V1-Pin_2)*%
X134150000Y-103600000D02*
X134150000Y-106350000D01*
X134764265Y-102985735D02*
X134150000Y-103600000D01*
D18*
%TO.N,5V LDO*%
X115360000Y-119250000D02*
X113000000Y-119250000D01*
X122960000Y-111650000D02*
X115360000Y-119250000D01*
X122960000Y-110000000D02*
X122960000Y-111650000D01*
%TO.N,+3.3V*%
X135000000Y-102000000D02*
X136250000Y-102000000D01*
X132250000Y-99250000D02*
X135000000Y-102000000D01*
X132250000Y-87250000D02*
X132250000Y-99250000D01*
X132250000Y-87250000D02*
X132250000Y-73100000D01*
X132250000Y-70200000D02*
X132250000Y-67800000D01*
X132250000Y-73100000D02*
X132250000Y-70200000D01*
D19*
%TO.N,Net-(J1-Pin_9)*%
X124307528Y-101569461D02*
X124038067Y-101300000D01*
X124038067Y-101300000D02*
X122500000Y-101300000D01*
X122500000Y-101300000D02*
X122455548Y-101255548D01*
X122455548Y-101255548D02*
X122455548Y-90483527D01*
%TO.N,Net-(J1-Pin_10)*%
X123800000Y-100700000D02*
X123069485Y-99969485D01*
X123069485Y-99969485D02*
X123069485Y-99900000D01*
X123069485Y-99900000D02*
X123069485Y-91030515D01*
%TO.N,Net-(J1-Pin_6)*%
X121774888Y-101774888D02*
X121774888Y-90959677D01*
X125270000Y-104500000D02*
X124500000Y-104500000D01*
X124500000Y-104500000D02*
X121774888Y-101774888D01*
%TO.N,Net-(J1-Pin_5)*%
X122730000Y-103480000D02*
X121138807Y-101888807D01*
X121138807Y-101888807D02*
X121138807Y-90474491D01*
X122730000Y-104500000D02*
X122730000Y-103480000D01*
%TO.N,+BATT*%
X119200000Y-77900000D02*
X120600000Y-76500000D01*
X119200000Y-94091500D02*
X119200000Y-77900000D01*
%TO.N,!EN_DMS*%
X116752918Y-93432082D02*
X117601448Y-92583552D01*
%TO.N,Net-(ADC1-Pin_2)*%
X131100000Y-90800000D02*
X131100000Y-99400000D01*
X131100000Y-99400000D02*
X131200000Y-99500000D01*
%TD*%
%TA.AperFunction,Conductor*%
%TO.N,GND*%
G36*
X137296431Y-62853700D02*
G01*
X137323451Y-62900500D01*
X137324651Y-62914218D01*
X137324651Y-124965500D01*
X137306169Y-125016280D01*
X137259369Y-125043300D01*
X137245651Y-125044500D01*
X110784500Y-125044500D01*
X110733720Y-125026018D01*
X110706700Y-124979218D01*
X110705500Y-124965500D01*
X110705500Y-121451587D01*
X131534500Y-121451587D01*
X131534500Y-121648412D01*
X131534501Y-121648428D01*
X131565288Y-121842815D01*
X131565293Y-121842834D01*
X131626115Y-122030022D01*
X131626122Y-122030040D01*
X131715473Y-122205400D01*
X131715479Y-122205410D01*
X131831172Y-122364646D01*
X131831176Y-122364650D01*
X131831181Y-122364656D01*
X131970343Y-122503818D01*
X131970349Y-122503823D01*
X131970354Y-122503828D01*
X132129595Y-122619524D01*
X132129599Y-122619526D01*
X132304959Y-122708877D01*
X132304968Y-122708880D01*
X132304975Y-122708884D01*
X132492174Y-122769709D01*
X132492180Y-122769709D01*
X132492184Y-122769711D01*
X132649091Y-122794561D01*
X132686583Y-122800500D01*
X132686588Y-122800500D01*
X132883412Y-122800500D01*
X132883417Y-122800500D01*
X132980621Y-122785104D01*
X133077815Y-122769711D01*
X133077817Y-122769710D01*
X133077826Y-122769709D01*
X133265025Y-122708884D01*
X133265034Y-122708879D01*
X133265040Y-122708877D01*
X133403476Y-122638340D01*
X133440405Y-122619524D01*
X133599646Y-122503828D01*
X133738828Y-122364646D01*
X133854524Y-122205405D01*
X133925112Y-122066866D01*
X133964632Y-122030014D01*
X134018597Y-122027186D01*
X134061755Y-122059707D01*
X134074500Y-122102734D01*
X134074500Y-122431515D01*
X134089354Y-122525302D01*
X134089353Y-122525302D01*
X134146951Y-122638344D01*
X134236656Y-122728049D01*
X134236659Y-122728051D01*
X134349693Y-122785645D01*
X134349695Y-122785645D01*
X134349696Y-122785646D01*
X134443481Y-122800500D01*
X136206518Y-122800499D01*
X136300304Y-122785646D01*
X136413342Y-122728050D01*
X136503050Y-122638342D01*
X136560646Y-122525304D01*
X136575500Y-122431519D01*
X136575499Y-120668482D01*
X136560646Y-120574696D01*
X136503050Y-120461658D01*
X136503049Y-120461657D01*
X136503048Y-120461655D01*
X136413343Y-120371950D01*
X136413340Y-120371948D01*
X136300306Y-120314354D01*
X136300302Y-120314353D01*
X136206530Y-120299501D01*
X136206522Y-120299500D01*
X136206519Y-120299500D01*
X136206514Y-120299500D01*
X134443484Y-120299500D01*
X134367345Y-120311558D01*
X134349696Y-120314354D01*
X134294213Y-120342623D01*
X134236655Y-120371951D01*
X134146950Y-120461656D01*
X134146948Y-120461659D01*
X134089354Y-120574693D01*
X134089353Y-120574697D01*
X134074501Y-120668469D01*
X134074500Y-120668485D01*
X134074500Y-120997264D01*
X134056018Y-121048044D01*
X134009218Y-121075064D01*
X133956000Y-121065680D01*
X133925110Y-121033129D01*
X133906836Y-120997264D01*
X133854524Y-120894595D01*
X133738828Y-120735354D01*
X133738823Y-120735349D01*
X133738818Y-120735343D01*
X133599656Y-120596181D01*
X133599650Y-120596176D01*
X133599646Y-120596172D01*
X133599638Y-120596166D01*
X133440411Y-120480480D01*
X133440400Y-120480473D01*
X133265040Y-120391122D01*
X133265022Y-120391115D01*
X133077834Y-120330293D01*
X133077815Y-120330288D01*
X132883428Y-120299501D01*
X132883420Y-120299500D01*
X132883417Y-120299500D01*
X132686583Y-120299500D01*
X132686580Y-120299500D01*
X132686571Y-120299501D01*
X132492184Y-120330288D01*
X132492165Y-120330293D01*
X132304977Y-120391115D01*
X132304959Y-120391122D01*
X132129599Y-120480473D01*
X132129588Y-120480480D01*
X131970361Y-120596166D01*
X131970343Y-120596181D01*
X131831181Y-120735343D01*
X131831166Y-120735361D01*
X131715480Y-120894588D01*
X131715473Y-120894599D01*
X131626122Y-121069959D01*
X131626115Y-121069977D01*
X131565293Y-121257165D01*
X131565288Y-121257184D01*
X131534501Y-121451571D01*
X131534500Y-121451587D01*
X110705500Y-121451587D01*
X110705500Y-119171158D01*
X112199500Y-119171158D01*
X112199500Y-119328841D01*
X112230262Y-119483497D01*
X112230263Y-119483499D01*
X112290604Y-119629175D01*
X112290607Y-119629180D01*
X112378209Y-119760287D01*
X112378215Y-119760294D01*
X112489705Y-119871784D01*
X112489711Y-119871789D01*
X112620821Y-119959394D01*
X112693662Y-119989565D01*
X112766500Y-120019736D01*
X112766502Y-120019737D01*
X112921158Y-120050500D01*
X115438842Y-120050500D01*
X115593497Y-120019737D01*
X115593499Y-120019736D01*
X115739179Y-119959394D01*
X115870289Y-119871789D01*
X117315717Y-118426361D01*
X119840492Y-115901587D01*
X131484500Y-115901587D01*
X131484500Y-116098412D01*
X131484501Y-116098428D01*
X131515288Y-116292815D01*
X131515293Y-116292834D01*
X131576115Y-116480022D01*
X131576122Y-116480040D01*
X131665473Y-116655400D01*
X131665479Y-116655410D01*
X131781172Y-116814646D01*
X131781176Y-116814650D01*
X131781181Y-116814656D01*
X131920343Y-116953818D01*
X131920349Y-116953823D01*
X131920354Y-116953828D01*
X132079595Y-117069524D01*
X132079599Y-117069526D01*
X132254959Y-117158877D01*
X132254968Y-117158880D01*
X132254975Y-117158884D01*
X132442174Y-117219709D01*
X132442180Y-117219709D01*
X132442184Y-117219711D01*
X132599091Y-117244561D01*
X132636583Y-117250500D01*
X132636588Y-117250500D01*
X132833412Y-117250500D01*
X132833417Y-117250500D01*
X132930621Y-117235104D01*
X133027815Y-117219711D01*
X133027817Y-117219710D01*
X133027826Y-117219709D01*
X133215025Y-117158884D01*
X133215034Y-117158879D01*
X133215040Y-117158877D01*
X133353476Y-117088340D01*
X133390405Y-117069524D01*
X133549646Y-116953828D01*
X133688828Y-116814646D01*
X133804524Y-116655405D01*
X133875112Y-116516866D01*
X133914632Y-116480014D01*
X133968597Y-116477186D01*
X134011755Y-116509707D01*
X134024500Y-116552734D01*
X134024500Y-116881515D01*
X134039354Y-116975302D01*
X134039353Y-116975302D01*
X134096951Y-117088344D01*
X134186656Y-117178049D01*
X134186659Y-117178051D01*
X134299693Y-117235645D01*
X134299695Y-117235645D01*
X134299696Y-117235646D01*
X134393481Y-117250500D01*
X136156518Y-117250499D01*
X136250304Y-117235646D01*
X136363342Y-117178050D01*
X136453050Y-117088342D01*
X136510646Y-116975304D01*
X136525500Y-116881519D01*
X136525499Y-115118482D01*
X136510646Y-115024696D01*
X136453050Y-114911658D01*
X136453049Y-114911657D01*
X136453048Y-114911655D01*
X136363343Y-114821950D01*
X136363340Y-114821948D01*
X136250306Y-114764354D01*
X136250302Y-114764353D01*
X136156530Y-114749501D01*
X136156522Y-114749500D01*
X136156519Y-114749500D01*
X136156514Y-114749500D01*
X134393484Y-114749500D01*
X134317345Y-114761558D01*
X134299696Y-114764354D01*
X134244213Y-114792623D01*
X134186655Y-114821951D01*
X134096950Y-114911656D01*
X134096948Y-114911659D01*
X134039354Y-115024693D01*
X134039353Y-115024697D01*
X134024501Y-115118469D01*
X134024500Y-115118485D01*
X134024500Y-115447264D01*
X134006018Y-115498044D01*
X133959218Y-115525064D01*
X133906000Y-115515680D01*
X133875110Y-115483129D01*
X133856836Y-115447264D01*
X133804524Y-115344595D01*
X133688828Y-115185354D01*
X133688823Y-115185349D01*
X133688818Y-115185343D01*
X133549656Y-115046181D01*
X133549650Y-115046176D01*
X133549646Y-115046172D01*
X133549638Y-115046166D01*
X133390411Y-114930480D01*
X133390400Y-114930473D01*
X133215040Y-114841122D01*
X133215022Y-114841115D01*
X133027834Y-114780293D01*
X133027815Y-114780288D01*
X132833428Y-114749501D01*
X132833420Y-114749500D01*
X132833417Y-114749500D01*
X132636583Y-114749500D01*
X132636580Y-114749500D01*
X132636571Y-114749501D01*
X132442184Y-114780288D01*
X132442165Y-114780293D01*
X132254977Y-114841115D01*
X132254959Y-114841122D01*
X132079599Y-114930473D01*
X132079588Y-114930480D01*
X131920361Y-115046166D01*
X131920343Y-115046181D01*
X131781181Y-115185343D01*
X131781166Y-115185361D01*
X131665480Y-115344588D01*
X131665473Y-115344599D01*
X131576122Y-115519959D01*
X131576115Y-115519977D01*
X131515293Y-115707165D01*
X131515288Y-115707184D01*
X131484501Y-115901571D01*
X131484500Y-115901587D01*
X119840492Y-115901587D01*
X119899461Y-115842618D01*
X123581784Y-112160294D01*
X123581789Y-112160289D01*
X123669394Y-112029179D01*
X123729737Y-111883497D01*
X123760500Y-111728842D01*
X123760500Y-111571158D01*
X123760500Y-111329499D01*
X123778982Y-111278719D01*
X123825782Y-111251699D01*
X123839500Y-111250499D01*
X123841515Y-111250499D01*
X123841518Y-111250499D01*
X123935304Y-111235646D01*
X124048342Y-111178050D01*
X124138050Y-111088342D01*
X124195646Y-110975304D01*
X124210500Y-110881519D01*
X124210499Y-110552732D01*
X124228981Y-110501955D01*
X124275781Y-110474935D01*
X124328999Y-110484319D01*
X124359888Y-110516870D01*
X124430473Y-110655400D01*
X124430476Y-110655405D01*
X124546172Y-110814646D01*
X124546176Y-110814650D01*
X124546181Y-110814656D01*
X124685343Y-110953818D01*
X124685349Y-110953823D01*
X124685354Y-110953828D01*
X124844595Y-111069524D01*
X124844599Y-111069526D01*
X125019959Y-111158877D01*
X125019968Y-111158880D01*
X125019975Y-111158884D01*
X125207174Y-111219709D01*
X125207180Y-111219709D01*
X125207184Y-111219711D01*
X125364091Y-111244561D01*
X125401583Y-111250500D01*
X125401588Y-111250500D01*
X125598412Y-111250500D01*
X125598417Y-111250500D01*
X125695621Y-111235104D01*
X125792815Y-111219711D01*
X125792817Y-111219710D01*
X125792826Y-111219709D01*
X125980025Y-111158884D01*
X125980034Y-111158879D01*
X125980040Y-111158877D01*
X126118476Y-111088340D01*
X126155405Y-111069524D01*
X126314646Y-110953828D01*
X126453828Y-110814646D01*
X126569524Y-110655405D01*
X126640111Y-110516870D01*
X126658877Y-110480040D01*
X126658879Y-110480034D01*
X126658884Y-110480025D01*
X126719709Y-110292826D01*
X126750500Y-110098417D01*
X126750500Y-109901583D01*
X126719709Y-109707174D01*
X126658884Y-109519975D01*
X126658880Y-109519968D01*
X126658877Y-109519959D01*
X126569526Y-109344599D01*
X126569524Y-109344595D01*
X126453828Y-109185354D01*
X126453823Y-109185349D01*
X126453818Y-109185343D01*
X126386960Y-109118485D01*
X130999500Y-109118485D01*
X130999500Y-110881515D01*
X131014354Y-110975302D01*
X131014353Y-110975302D01*
X131071951Y-111088344D01*
X131161656Y-111178049D01*
X131161659Y-111178051D01*
X131274693Y-111235645D01*
X131274695Y-111235645D01*
X131274696Y-111235646D01*
X131368481Y-111250500D01*
X133131518Y-111250499D01*
X133225304Y-111235646D01*
X133338342Y-111178050D01*
X133428050Y-111088342D01*
X133485646Y-110975304D01*
X133500500Y-110881519D01*
X133500499Y-109118482D01*
X133485646Y-109024696D01*
X133428050Y-108911658D01*
X133428049Y-108911657D01*
X133428048Y-108911655D01*
X133338343Y-108821950D01*
X133338340Y-108821948D01*
X133225306Y-108764354D01*
X133225302Y-108764353D01*
X133131530Y-108749501D01*
X133131522Y-108749500D01*
X133131519Y-108749500D01*
X133131514Y-108749500D01*
X131368484Y-108749500D01*
X131292345Y-108761558D01*
X131274696Y-108764354D01*
X131219213Y-108792623D01*
X131161655Y-108821951D01*
X131071950Y-108911656D01*
X131071948Y-108911659D01*
X131014354Y-109024693D01*
X131014353Y-109024697D01*
X130999501Y-109118469D01*
X130999500Y-109118485D01*
X126386960Y-109118485D01*
X126314656Y-109046181D01*
X126314650Y-109046176D01*
X126314646Y-109046172D01*
X126314638Y-109046166D01*
X126155411Y-108930480D01*
X126155400Y-108930473D01*
X125980040Y-108841122D01*
X125980022Y-108841115D01*
X125792834Y-108780293D01*
X125792815Y-108780288D01*
X125598428Y-108749501D01*
X125598420Y-108749500D01*
X125598417Y-108749500D01*
X125401583Y-108749500D01*
X125401580Y-108749500D01*
X125401571Y-108749501D01*
X125207184Y-108780288D01*
X125207165Y-108780293D01*
X125019977Y-108841115D01*
X125019959Y-108841122D01*
X124844599Y-108930473D01*
X124844588Y-108930480D01*
X124685361Y-109046166D01*
X124685343Y-109046181D01*
X124546181Y-109185343D01*
X124546166Y-109185361D01*
X124430480Y-109344588D01*
X124430473Y-109344599D01*
X124359888Y-109483130D01*
X124320367Y-109519985D01*
X124266401Y-109522813D01*
X124223244Y-109490291D01*
X124210499Y-109447265D01*
X124210499Y-109118484D01*
X124210497Y-109118469D01*
X124195646Y-109024696D01*
X124138050Y-108911658D01*
X124138049Y-108911657D01*
X124138048Y-108911655D01*
X124048343Y-108821950D01*
X124048340Y-108821948D01*
X123935306Y-108764354D01*
X123935302Y-108764353D01*
X123841530Y-108749501D01*
X123841522Y-108749500D01*
X123841519Y-108749500D01*
X123841514Y-108749500D01*
X122078484Y-108749500D01*
X122002345Y-108761558D01*
X121984696Y-108764354D01*
X121929213Y-108792623D01*
X121871655Y-108821951D01*
X121781950Y-108911656D01*
X121781948Y-108911659D01*
X121724354Y-109024693D01*
X121724353Y-109024697D01*
X121709501Y-109118469D01*
X121709500Y-109118485D01*
X121709500Y-110881515D01*
X121724354Y-110975302D01*
X121724353Y-110975302D01*
X121781951Y-111088344D01*
X121871656Y-111178049D01*
X121871659Y-111178051D01*
X121984693Y-111235645D01*
X121984695Y-111235645D01*
X121984696Y-111235646D01*
X122035354Y-111243669D01*
X122053920Y-111246610D01*
X122101184Y-111272808D01*
X122120550Y-111323258D01*
X122102957Y-111374353D01*
X122097423Y-111380498D01*
X115051561Y-118426361D01*
X115002585Y-118449199D01*
X114995700Y-118449500D01*
X112921158Y-118449500D01*
X112766502Y-118480262D01*
X112766500Y-118480263D01*
X112620824Y-118540604D01*
X112620819Y-118540607D01*
X112489712Y-118628209D01*
X112489705Y-118628215D01*
X112378215Y-118739705D01*
X112378209Y-118739712D01*
X112290607Y-118870819D01*
X112290604Y-118870824D01*
X112230263Y-119016500D01*
X112230262Y-119016502D01*
X112199500Y-119171158D01*
X110705500Y-119171158D01*
X110705500Y-115118485D01*
X111459500Y-115118485D01*
X111459500Y-116881515D01*
X111474354Y-116975302D01*
X111474353Y-116975302D01*
X111531951Y-117088344D01*
X111621656Y-117178049D01*
X111621659Y-117178051D01*
X111734693Y-117235645D01*
X111734695Y-117235645D01*
X111734696Y-117235646D01*
X111828481Y-117250500D01*
X113591518Y-117250499D01*
X113685304Y-117235646D01*
X113798342Y-117178050D01*
X113888050Y-117088342D01*
X113945646Y-116975304D01*
X113960500Y-116881519D01*
X113960499Y-115118482D01*
X113945646Y-115024696D01*
X113888050Y-114911658D01*
X113888049Y-114911657D01*
X113888048Y-114911655D01*
X113798343Y-114821950D01*
X113798340Y-114821948D01*
X113685306Y-114764354D01*
X113685302Y-114764353D01*
X113591530Y-114749501D01*
X113591522Y-114749500D01*
X113591519Y-114749500D01*
X113591514Y-114749500D01*
X111828484Y-114749500D01*
X111752345Y-114761558D01*
X111734696Y-114764354D01*
X111679213Y-114792623D01*
X111621655Y-114821951D01*
X111531950Y-114911656D01*
X111531948Y-114911659D01*
X111474354Y-115024693D01*
X111474353Y-115024697D01*
X111459501Y-115118469D01*
X111459500Y-115118485D01*
X110705500Y-115118485D01*
X110705500Y-109118485D01*
X111449500Y-109118485D01*
X111449500Y-110881515D01*
X111464354Y-110975302D01*
X111464353Y-110975302D01*
X111521951Y-111088344D01*
X111611656Y-111178049D01*
X111611659Y-111178051D01*
X111724693Y-111235645D01*
X111724695Y-111235645D01*
X111724696Y-111235646D01*
X111818481Y-111250500D01*
X113581518Y-111250499D01*
X113675304Y-111235646D01*
X113788342Y-111178050D01*
X113878050Y-111088342D01*
X113935646Y-110975304D01*
X113950500Y-110881519D01*
X113950499Y-110552732D01*
X113968981Y-110501955D01*
X114015781Y-110474935D01*
X114068999Y-110484319D01*
X114099888Y-110516870D01*
X114170473Y-110655400D01*
X114170476Y-110655405D01*
X114286172Y-110814646D01*
X114286176Y-110814650D01*
X114286181Y-110814656D01*
X114425343Y-110953818D01*
X114425349Y-110953823D01*
X114425354Y-110953828D01*
X114584595Y-111069524D01*
X114584599Y-111069526D01*
X114759959Y-111158877D01*
X114759968Y-111158880D01*
X114759975Y-111158884D01*
X114947174Y-111219709D01*
X114947180Y-111219709D01*
X114947184Y-111219711D01*
X115104091Y-111244561D01*
X115141583Y-111250500D01*
X115141588Y-111250500D01*
X115338412Y-111250500D01*
X115338417Y-111250500D01*
X115435621Y-111235104D01*
X115532815Y-111219711D01*
X115532817Y-111219710D01*
X115532826Y-111219709D01*
X115720025Y-111158884D01*
X115720034Y-111158879D01*
X115720040Y-111158877D01*
X115858476Y-111088340D01*
X115895405Y-111069524D01*
X116054646Y-110953828D01*
X116193828Y-110814646D01*
X116309524Y-110655405D01*
X116380111Y-110516870D01*
X116398877Y-110480040D01*
X116398879Y-110480034D01*
X116398884Y-110480025D01*
X116459709Y-110292826D01*
X116490500Y-110098417D01*
X116490500Y-109901583D01*
X116459709Y-109707174D01*
X116398884Y-109519975D01*
X116398880Y-109519968D01*
X116398877Y-109519959D01*
X116309526Y-109344599D01*
X116309524Y-109344595D01*
X116193828Y-109185354D01*
X116193823Y-109185349D01*
X116193818Y-109185343D01*
X116054656Y-109046181D01*
X116054650Y-109046176D01*
X116054646Y-109046172D01*
X116054638Y-109046166D01*
X115895411Y-108930480D01*
X115895400Y-108930473D01*
X115720040Y-108841122D01*
X115720022Y-108841115D01*
X115532834Y-108780293D01*
X115532815Y-108780288D01*
X115338428Y-108749501D01*
X115338420Y-108749500D01*
X115338417Y-108749500D01*
X115141583Y-108749500D01*
X115141580Y-108749500D01*
X115141571Y-108749501D01*
X114947184Y-108780288D01*
X114947165Y-108780293D01*
X114759977Y-108841115D01*
X114759959Y-108841122D01*
X114584599Y-108930473D01*
X114584588Y-108930480D01*
X114425361Y-109046166D01*
X114425343Y-109046181D01*
X114286181Y-109185343D01*
X114286166Y-109185361D01*
X114170480Y-109344588D01*
X114170473Y-109344599D01*
X114099888Y-109483130D01*
X114060367Y-109519985D01*
X114006401Y-109522813D01*
X113963244Y-109490291D01*
X113950499Y-109447265D01*
X113950499Y-109118484D01*
X113950497Y-109118469D01*
X113935646Y-109024696D01*
X113878050Y-108911658D01*
X113878049Y-108911657D01*
X113878048Y-108911655D01*
X113788343Y-108821950D01*
X113788340Y-108821948D01*
X113675306Y-108764354D01*
X113675302Y-108764353D01*
X113581530Y-108749501D01*
X113581522Y-108749500D01*
X113581519Y-108749500D01*
X113581514Y-108749500D01*
X111818484Y-108749500D01*
X111742345Y-108761558D01*
X111724696Y-108764354D01*
X111669213Y-108792623D01*
X111611655Y-108821951D01*
X111521950Y-108911656D01*
X111521948Y-108911659D01*
X111464354Y-109024693D01*
X111464353Y-109024697D01*
X111449501Y-109118469D01*
X111449500Y-109118485D01*
X110705500Y-109118485D01*
X110705500Y-104405516D01*
X113909500Y-104405516D01*
X113909500Y-104594483D01*
X113939057Y-104781107D01*
X113939062Y-104781126D01*
X113997452Y-104960829D01*
X113997459Y-104960847D01*
X114083237Y-105129194D01*
X114083240Y-105129199D01*
X114194310Y-105282073D01*
X114194314Y-105282077D01*
X114194319Y-105282083D01*
X114327916Y-105415680D01*
X114327922Y-105415685D01*
X114327927Y-105415690D01*
X114480801Y-105526760D01*
X114480805Y-105526762D01*
X114649152Y-105612540D01*
X114649161Y-105612543D01*
X114649168Y-105612547D01*
X114828882Y-105670940D01*
X114828888Y-105670940D01*
X114828892Y-105670942D01*
X115015516Y-105700500D01*
X115015519Y-105700500D01*
X115204484Y-105700500D01*
X115391107Y-105670942D01*
X115391109Y-105670941D01*
X115391118Y-105670940D01*
X115570832Y-105612547D01*
X115570841Y-105612542D01*
X115570847Y-105612540D01*
X115661754Y-105566219D01*
X115739199Y-105526760D01*
X115892073Y-105415690D01*
X116025690Y-105282073D01*
X116136760Y-105129199D01*
X116176219Y-105051754D01*
X116222540Y-104960847D01*
X116222542Y-104960841D01*
X116222547Y-104960832D01*
X116280940Y-104781118D01*
X116283201Y-104766842D01*
X116301973Y-104648321D01*
X116328171Y-104601057D01*
X116378621Y-104581691D01*
X116429716Y-104599284D01*
X116457548Y-104645605D01*
X116458027Y-104648321D01*
X116479057Y-104781107D01*
X116479062Y-104781126D01*
X116537452Y-104960829D01*
X116537459Y-104960847D01*
X116623237Y-105129194D01*
X116623240Y-105129199D01*
X116734310Y-105282073D01*
X116734314Y-105282077D01*
X116734319Y-105282083D01*
X116867916Y-105415680D01*
X116867922Y-105415685D01*
X116867927Y-105415690D01*
X117020801Y-105526760D01*
X117020805Y-105526762D01*
X117189152Y-105612540D01*
X117189161Y-105612543D01*
X117189168Y-105612547D01*
X117368882Y-105670940D01*
X117368888Y-105670940D01*
X117368892Y-105670942D01*
X117555516Y-105700500D01*
X117555519Y-105700500D01*
X117744484Y-105700500D01*
X117931107Y-105670942D01*
X117931109Y-105670941D01*
X117931118Y-105670940D01*
X118110832Y-105612547D01*
X118110841Y-105612542D01*
X118110847Y-105612540D01*
X118201754Y-105566219D01*
X118279199Y-105526760D01*
X118432073Y-105415690D01*
X118565690Y-105282073D01*
X118676760Y-105129199D01*
X118716219Y-105051754D01*
X118762540Y-104960847D01*
X118762542Y-104960841D01*
X118762547Y-104960832D01*
X118820940Y-104781118D01*
X118823201Y-104766842D01*
X118841973Y-104648321D01*
X118868171Y-104601057D01*
X118918621Y-104581691D01*
X118969716Y-104599284D01*
X118997548Y-104645605D01*
X118998027Y-104648321D01*
X119019057Y-104781107D01*
X119019062Y-104781126D01*
X119077452Y-104960829D01*
X119077459Y-104960847D01*
X119163237Y-105129194D01*
X119163240Y-105129199D01*
X119274310Y-105282073D01*
X119274314Y-105282077D01*
X119274319Y-105282083D01*
X119407916Y-105415680D01*
X119407922Y-105415685D01*
X119407927Y-105415690D01*
X119560801Y-105526760D01*
X119560805Y-105526762D01*
X119729152Y-105612540D01*
X119729161Y-105612543D01*
X119729168Y-105612547D01*
X119908882Y-105670940D01*
X119908888Y-105670940D01*
X119908892Y-105670942D01*
X120095516Y-105700500D01*
X120095519Y-105700500D01*
X120284484Y-105700500D01*
X120471107Y-105670942D01*
X120471109Y-105670941D01*
X120471118Y-105670940D01*
X120650832Y-105612547D01*
X120650841Y-105612542D01*
X120650847Y-105612540D01*
X120741754Y-105566219D01*
X120819199Y-105526760D01*
X120972073Y-105415690D01*
X121105690Y-105282073D01*
X121216760Y-105129199D01*
X121256219Y-105051754D01*
X121302540Y-104960847D01*
X121302542Y-104960841D01*
X121302547Y-104960832D01*
X121360940Y-104781118D01*
X121363201Y-104766842D01*
X121381973Y-104648321D01*
X121408171Y-104601057D01*
X121458621Y-104581691D01*
X121509716Y-104599284D01*
X121537548Y-104645605D01*
X121538027Y-104648321D01*
X121559057Y-104781107D01*
X121559062Y-104781126D01*
X121617452Y-104960829D01*
X121617459Y-104960847D01*
X121703237Y-105129194D01*
X121703240Y-105129199D01*
X121814310Y-105282073D01*
X121814314Y-105282077D01*
X121814319Y-105282083D01*
X121947916Y-105415680D01*
X121947922Y-105415685D01*
X121947927Y-105415690D01*
X122100801Y-105526760D01*
X122100805Y-105526762D01*
X122269152Y-105612540D01*
X122269161Y-105612543D01*
X122269168Y-105612547D01*
X122448882Y-105670940D01*
X122448888Y-105670940D01*
X122448892Y-105670942D01*
X122635516Y-105700500D01*
X122635519Y-105700500D01*
X122824484Y-105700500D01*
X123011107Y-105670942D01*
X123011109Y-105670941D01*
X123011118Y-105670940D01*
X123190832Y-105612547D01*
X123190841Y-105612542D01*
X123190847Y-105612540D01*
X123281754Y-105566219D01*
X123359199Y-105526760D01*
X123512073Y-105415690D01*
X123645690Y-105282073D01*
X123756760Y-105129199D01*
X123796219Y-105051754D01*
X123842540Y-104960847D01*
X123842542Y-104960841D01*
X123842547Y-104960832D01*
X123900940Y-104781118D01*
X123900942Y-104781104D01*
X123901377Y-104779296D01*
X123901682Y-104778834D01*
X123901900Y-104778165D01*
X123902085Y-104778225D01*
X123909618Y-104766842D01*
X123913483Y-104752419D01*
X123924068Y-104745006D01*
X123931200Y-104734231D01*
X123945516Y-104729988D01*
X123957749Y-104721424D01*
X123970621Y-104722550D01*
X123983012Y-104718879D01*
X123996707Y-104724832D01*
X124011583Y-104726134D01*
X124031036Y-104739755D01*
X124032571Y-104740423D01*
X124034057Y-104741871D01*
X124098044Y-104805858D01*
X124117316Y-104837306D01*
X124157452Y-104960832D01*
X124157456Y-104960842D01*
X124243237Y-105129194D01*
X124243240Y-105129199D01*
X124354310Y-105282073D01*
X124354314Y-105282077D01*
X124354319Y-105282083D01*
X124487916Y-105415680D01*
X124487922Y-105415685D01*
X124487927Y-105415690D01*
X124640801Y-105526760D01*
X124640805Y-105526762D01*
X124809152Y-105612540D01*
X124809161Y-105612543D01*
X124809168Y-105612547D01*
X124988882Y-105670940D01*
X124988888Y-105670940D01*
X124988892Y-105670942D01*
X125175516Y-105700500D01*
X125175519Y-105700500D01*
X125364484Y-105700500D01*
X125551107Y-105670942D01*
X125551109Y-105670941D01*
X125551118Y-105670940D01*
X125730832Y-105612547D01*
X125730841Y-105612542D01*
X125730847Y-105612540D01*
X125821754Y-105566219D01*
X125899199Y-105526760D01*
X126052073Y-105415690D01*
X126185690Y-105282073D01*
X126296760Y-105129199D01*
X126336219Y-105051754D01*
X126382540Y-104960847D01*
X126382542Y-104960841D01*
X126382547Y-104960832D01*
X126440940Y-104781118D01*
X126443201Y-104766842D01*
X126461973Y-104648321D01*
X126488171Y-104601057D01*
X126538621Y-104581691D01*
X126589716Y-104599284D01*
X126617548Y-104645605D01*
X126618027Y-104648321D01*
X126639057Y-104781107D01*
X126639062Y-104781126D01*
X126697452Y-104960829D01*
X126697459Y-104960847D01*
X126783237Y-105129194D01*
X126783240Y-105129199D01*
X126894310Y-105282073D01*
X126894314Y-105282077D01*
X126894319Y-105282083D01*
X127027916Y-105415680D01*
X127027922Y-105415685D01*
X127027927Y-105415690D01*
X127180801Y-105526760D01*
X127180805Y-105526762D01*
X127349152Y-105612540D01*
X127349161Y-105612543D01*
X127349168Y-105612547D01*
X127528882Y-105670940D01*
X127528888Y-105670940D01*
X127528892Y-105670942D01*
X127715516Y-105700500D01*
X127715519Y-105700500D01*
X127904484Y-105700500D01*
X128091107Y-105670942D01*
X128091109Y-105670941D01*
X128091118Y-105670940D01*
X128270832Y-105612547D01*
X128270841Y-105612542D01*
X128270847Y-105612540D01*
X128361754Y-105566219D01*
X128439199Y-105526760D01*
X128592073Y-105415690D01*
X128725690Y-105282073D01*
X128836760Y-105129199D01*
X128876219Y-105051754D01*
X128922540Y-104960847D01*
X128922542Y-104960841D01*
X128922547Y-104960832D01*
X128980940Y-104781118D01*
X128983201Y-104766842D01*
X129001973Y-104648321D01*
X129028171Y-104601057D01*
X129078621Y-104581691D01*
X129129716Y-104599284D01*
X129157548Y-104645605D01*
X129158027Y-104648321D01*
X129179057Y-104781107D01*
X129179062Y-104781126D01*
X129237452Y-104960829D01*
X129237459Y-104960847D01*
X129323237Y-105129194D01*
X129323240Y-105129199D01*
X129434310Y-105282073D01*
X129434314Y-105282077D01*
X129434319Y-105282083D01*
X129567916Y-105415680D01*
X129567922Y-105415685D01*
X129567927Y-105415690D01*
X129720801Y-105526760D01*
X129720805Y-105526762D01*
X129889152Y-105612540D01*
X129889161Y-105612543D01*
X129889168Y-105612547D01*
X130068882Y-105670940D01*
X130068888Y-105670940D01*
X130068892Y-105670942D01*
X130255516Y-105700500D01*
X130255519Y-105700500D01*
X130444484Y-105700500D01*
X130631107Y-105670942D01*
X130631109Y-105670941D01*
X130631118Y-105670940D01*
X130810832Y-105612547D01*
X130810841Y-105612542D01*
X130810847Y-105612540D01*
X130901754Y-105566219D01*
X130979199Y-105526760D01*
X131132073Y-105415690D01*
X131265690Y-105282073D01*
X131376760Y-105129199D01*
X131416219Y-105051754D01*
X131462540Y-104960847D01*
X131462542Y-104960841D01*
X131462547Y-104960832D01*
X131520940Y-104781118D01*
X131523201Y-104766842D01*
X131541973Y-104648321D01*
X131568171Y-104601057D01*
X131618621Y-104581691D01*
X131669716Y-104599284D01*
X131697548Y-104645605D01*
X131698027Y-104648321D01*
X131719057Y-104781107D01*
X131719062Y-104781126D01*
X131777452Y-104960829D01*
X131777459Y-104960847D01*
X131863237Y-105129194D01*
X131863240Y-105129199D01*
X131974310Y-105282073D01*
X131974314Y-105282077D01*
X131974319Y-105282083D01*
X132107916Y-105415680D01*
X132107922Y-105415685D01*
X132107927Y-105415690D01*
X132260801Y-105526760D01*
X132260805Y-105526762D01*
X132429152Y-105612540D01*
X132429161Y-105612543D01*
X132429168Y-105612547D01*
X132608882Y-105670940D01*
X132608888Y-105670940D01*
X132608892Y-105670942D01*
X132795516Y-105700500D01*
X132795519Y-105700500D01*
X132984484Y-105700500D01*
X133171107Y-105670942D01*
X133171109Y-105670941D01*
X133171118Y-105670940D01*
X133350832Y-105612547D01*
X133434634Y-105569848D01*
X133488271Y-105563262D01*
X133533592Y-105592693D01*
X133549500Y-105640237D01*
X133549500Y-105963881D01*
X133536187Y-106007770D01*
X133529225Y-106018189D01*
X133529223Y-106018192D01*
X133476420Y-106145669D01*
X133476419Y-106145671D01*
X133449500Y-106281007D01*
X133449500Y-106418992D01*
X133476419Y-106554328D01*
X133476420Y-106554330D01*
X133529222Y-106681805D01*
X133529225Y-106681811D01*
X133605884Y-106796540D01*
X133605890Y-106796547D01*
X133703452Y-106894109D01*
X133703458Y-106894114D01*
X133818189Y-106970775D01*
X133818194Y-106970777D01*
X133945669Y-107023579D01*
X133945671Y-107023580D01*
X134081007Y-107050500D01*
X134218993Y-107050500D01*
X134354328Y-107023580D01*
X134354330Y-107023579D01*
X134481811Y-106970775D01*
X134596542Y-106894114D01*
X134694114Y-106796542D01*
X134770775Y-106681811D01*
X134823580Y-106554328D01*
X134850500Y-106418993D01*
X134850500Y-106281007D01*
X134823580Y-106145672D01*
X134770775Y-106018189D01*
X134763812Y-106007769D01*
X134750500Y-105963881D01*
X134750500Y-105630046D01*
X134768982Y-105579266D01*
X134815782Y-105552246D01*
X134865364Y-105559656D01*
X134903850Y-105579266D01*
X134969157Y-105612542D01*
X134969161Y-105612543D01*
X134969168Y-105612547D01*
X135148882Y-105670940D01*
X135148888Y-105670940D01*
X135148892Y-105670942D01*
X135335516Y-105700500D01*
X135335519Y-105700500D01*
X135524484Y-105700500D01*
X135711107Y-105670942D01*
X135711109Y-105670941D01*
X135711118Y-105670940D01*
X135890832Y-105612547D01*
X135890841Y-105612542D01*
X135890847Y-105612540D01*
X135981754Y-105566219D01*
X136059199Y-105526760D01*
X136212073Y-105415690D01*
X136345690Y-105282073D01*
X136456760Y-105129199D01*
X136496219Y-105051754D01*
X136542540Y-104960847D01*
X136542542Y-104960841D01*
X136542547Y-104960832D01*
X136600940Y-104781118D01*
X136603201Y-104766842D01*
X136630500Y-104594483D01*
X136630500Y-104405516D01*
X136600942Y-104218892D01*
X136600940Y-104218888D01*
X136600940Y-104218882D01*
X136542547Y-104039168D01*
X136542543Y-104039161D01*
X136542540Y-104039152D01*
X136456762Y-103870805D01*
X136456760Y-103870801D01*
X136345690Y-103717927D01*
X136345685Y-103717922D01*
X136345680Y-103717916D01*
X136212083Y-103584319D01*
X136212077Y-103584314D01*
X136212073Y-103584310D01*
X136212065Y-103584304D01*
X136059205Y-103473244D01*
X136059194Y-103473237D01*
X135890847Y-103387459D01*
X135890829Y-103387452D01*
X135711126Y-103329062D01*
X135711107Y-103329057D01*
X135524484Y-103299500D01*
X135524481Y-103299500D01*
X135510747Y-103299500D01*
X135459967Y-103281018D01*
X135432947Y-103234218D01*
X135437354Y-103193968D01*
X135436719Y-103193776D01*
X135437746Y-103190389D01*
X135437759Y-103190273D01*
X135437843Y-103190068D01*
X135437845Y-103190063D01*
X135464765Y-103054727D01*
X135464765Y-102916741D01*
X135460423Y-102894911D01*
X135468644Y-102841501D01*
X135509273Y-102805871D01*
X135537905Y-102800500D01*
X136328842Y-102800500D01*
X136483497Y-102769737D01*
X136483499Y-102769736D01*
X136629179Y-102709394D01*
X136760289Y-102621789D01*
X136871789Y-102510289D01*
X136959394Y-102379179D01*
X137019737Y-102233497D01*
X137050500Y-102078842D01*
X137050500Y-101921158D01*
X137026917Y-101802597D01*
X137019737Y-101766502D01*
X137019736Y-101766500D01*
X136959395Y-101620824D01*
X136959394Y-101620821D01*
X136871789Y-101489711D01*
X136871784Y-101489705D01*
X136760294Y-101378215D01*
X136760287Y-101378209D01*
X136672882Y-101319807D01*
X136629179Y-101290606D01*
X136629176Y-101290605D01*
X136629175Y-101290604D01*
X136483499Y-101230263D01*
X136483497Y-101230262D01*
X136343442Y-101202404D01*
X136297243Y-101174370D01*
X136279873Y-101123199D01*
X136299459Y-101072834D01*
X136302982Y-101069071D01*
X136307553Y-101064501D01*
X136413996Y-100917994D01*
X136496211Y-100756639D01*
X136552171Y-100584409D01*
X136555426Y-100563861D01*
X136580498Y-100405557D01*
X136580500Y-100405546D01*
X136580500Y-100224454D01*
X136572442Y-100173579D01*
X136552173Y-100045601D01*
X136552171Y-100045596D01*
X136552171Y-100045591D01*
X136552167Y-100045578D01*
X136496213Y-99873366D01*
X136496206Y-99873350D01*
X136450809Y-99784255D01*
X136413996Y-99712006D01*
X136307553Y-99565499D01*
X136307548Y-99565494D01*
X136307543Y-99565488D01*
X136179511Y-99437456D01*
X136179505Y-99437451D01*
X136179501Y-99437447D01*
X136032994Y-99331004D01*
X135871649Y-99248793D01*
X135871633Y-99248786D01*
X135699421Y-99192832D01*
X135699398Y-99192826D01*
X135520557Y-99164501D01*
X135520549Y-99164500D01*
X135520546Y-99164500D01*
X135339454Y-99164500D01*
X135339451Y-99164500D01*
X135339442Y-99164501D01*
X135160601Y-99192826D01*
X135160578Y-99192832D01*
X134988366Y-99248786D01*
X134988350Y-99248793D01*
X134827005Y-99331004D01*
X134826999Y-99331008D01*
X134680506Y-99437441D01*
X134680488Y-99437456D01*
X134552456Y-99565488D01*
X134552441Y-99565506D01*
X134446008Y-99711999D01*
X134446004Y-99712005D01*
X134363793Y-99873350D01*
X134363786Y-99873366D01*
X134315745Y-100021224D01*
X134282476Y-100063808D01*
X134229617Y-100075043D01*
X134184751Y-100052673D01*
X133073639Y-98941561D01*
X133050801Y-98892585D01*
X133050500Y-98885700D01*
X133050500Y-95144458D01*
X134279500Y-95144458D01*
X134279500Y-95325541D01*
X134279501Y-95325557D01*
X134307826Y-95504398D01*
X134307832Y-95504421D01*
X134363786Y-95676633D01*
X134363793Y-95676649D01*
X134446004Y-95837994D01*
X134552447Y-95984501D01*
X134552451Y-95984505D01*
X134552456Y-95984511D01*
X134680488Y-96112543D01*
X134680494Y-96112548D01*
X134680499Y-96112553D01*
X134827006Y-96218996D01*
X134899255Y-96255809D01*
X134988350Y-96301206D01*
X134988366Y-96301213D01*
X135160578Y-96357167D01*
X135160581Y-96357167D01*
X135160591Y-96357171D01*
X135160596Y-96357171D01*
X135160601Y-96357173D01*
X135304963Y-96380037D01*
X135339454Y-96385500D01*
X135339459Y-96385500D01*
X135520541Y-96385500D01*
X135520546Y-96385500D01*
X135609977Y-96371335D01*
X135699398Y-96357173D01*
X135699400Y-96357172D01*
X135699409Y-96357171D01*
X135871639Y-96301211D01*
X136032994Y-96218996D01*
X136179501Y-96112553D01*
X136307553Y-95984501D01*
X136413996Y-95837994D01*
X136496211Y-95676639D01*
X136552171Y-95504409D01*
X136580500Y-95325546D01*
X136580500Y-95144454D01*
X136552171Y-94965591D01*
X136496211Y-94793361D01*
X136496209Y-94793358D01*
X136496206Y-94793350D01*
X136450809Y-94704255D01*
X136413996Y-94632006D01*
X136307553Y-94485499D01*
X136307548Y-94485494D01*
X136307543Y-94485488D01*
X136179511Y-94357456D01*
X136179505Y-94357451D01*
X136179501Y-94357447D01*
X136094692Y-94295830D01*
X136033000Y-94251008D01*
X136032994Y-94251004D01*
X135871649Y-94168793D01*
X135871633Y-94168786D01*
X135699421Y-94112832D01*
X135699398Y-94112826D01*
X135520557Y-94084501D01*
X135520549Y-94084500D01*
X135520546Y-94084500D01*
X135339454Y-94084500D01*
X135339451Y-94084500D01*
X135339442Y-94084501D01*
X135160601Y-94112826D01*
X135160578Y-94112832D01*
X134988366Y-94168786D01*
X134988350Y-94168793D01*
X134827005Y-94251004D01*
X134826999Y-94251008D01*
X134680506Y-94357441D01*
X134680488Y-94357456D01*
X134552456Y-94485488D01*
X134552441Y-94485506D01*
X134446008Y-94631999D01*
X134446004Y-94632005D01*
X134363793Y-94793350D01*
X134363786Y-94793366D01*
X134307832Y-94965578D01*
X134307826Y-94965601D01*
X134279501Y-95144442D01*
X134279500Y-95144458D01*
X133050500Y-95144458D01*
X133050500Y-92604458D01*
X134279500Y-92604458D01*
X134279500Y-92785541D01*
X134279501Y-92785557D01*
X134307826Y-92964398D01*
X134307832Y-92964421D01*
X134363786Y-93136633D01*
X134363793Y-93136649D01*
X134446004Y-93297994D01*
X134446008Y-93298000D01*
X134548255Y-93438731D01*
X134552447Y-93444501D01*
X134552451Y-93444505D01*
X134552456Y-93444511D01*
X134680488Y-93572543D01*
X134680494Y-93572548D01*
X134680499Y-93572553D01*
X134827006Y-93678996D01*
X134899255Y-93715809D01*
X134988350Y-93761206D01*
X134988366Y-93761213D01*
X135160578Y-93817167D01*
X135160581Y-93817167D01*
X135160591Y-93817171D01*
X135160596Y-93817171D01*
X135160601Y-93817173D01*
X135304963Y-93840037D01*
X135339454Y-93845500D01*
X135339459Y-93845500D01*
X135520541Y-93845500D01*
X135520546Y-93845500D01*
X135609977Y-93831335D01*
X135699398Y-93817173D01*
X135699400Y-93817172D01*
X135699409Y-93817171D01*
X135871639Y-93761211D01*
X136032994Y-93678996D01*
X136179501Y-93572553D01*
X136307553Y-93444501D01*
X136413996Y-93297994D01*
X136496211Y-93136639D01*
X136508028Y-93100271D01*
X136552167Y-92964421D01*
X136552171Y-92964409D01*
X136580500Y-92785546D01*
X136580500Y-92604454D01*
X136552171Y-92425591D01*
X136537106Y-92379224D01*
X136496213Y-92253366D01*
X136496206Y-92253350D01*
X136413995Y-92092005D01*
X136413991Y-92091999D01*
X136307558Y-91945506D01*
X136307553Y-91945499D01*
X136307548Y-91945494D01*
X136307543Y-91945488D01*
X136179511Y-91817456D01*
X136179505Y-91817451D01*
X136179501Y-91817447D01*
X136032994Y-91711004D01*
X135871649Y-91628793D01*
X135871633Y-91628786D01*
X135699421Y-91572832D01*
X135699398Y-91572826D01*
X135520557Y-91544501D01*
X135520549Y-91544500D01*
X135520546Y-91544500D01*
X135339454Y-91544500D01*
X135339451Y-91544500D01*
X135339442Y-91544501D01*
X135160601Y-91572826D01*
X135160578Y-91572832D01*
X134988366Y-91628786D01*
X134988350Y-91628793D01*
X134827005Y-91711004D01*
X134826999Y-91711008D01*
X134680506Y-91817441D01*
X134680488Y-91817456D01*
X134552456Y-91945488D01*
X134552441Y-91945506D01*
X134446008Y-92091999D01*
X134446004Y-92092005D01*
X134363793Y-92253350D01*
X134363786Y-92253366D01*
X134307832Y-92425578D01*
X134307826Y-92425601D01*
X134279501Y-92604442D01*
X134279500Y-92604458D01*
X133050500Y-92604458D01*
X133050500Y-90064458D01*
X134279500Y-90064458D01*
X134279500Y-90245541D01*
X134279501Y-90245557D01*
X134307826Y-90424398D01*
X134307832Y-90424421D01*
X134363786Y-90596633D01*
X134363793Y-90596649D01*
X134446004Y-90757994D01*
X134446008Y-90758000D01*
X134495548Y-90826186D01*
X134552447Y-90904501D01*
X134552451Y-90904505D01*
X134552456Y-90904511D01*
X134680488Y-91032543D01*
X134680494Y-91032548D01*
X134680499Y-91032553D01*
X134827006Y-91138996D01*
X134899255Y-91175809D01*
X134988350Y-91221206D01*
X134988366Y-91221213D01*
X135160578Y-91277167D01*
X135160581Y-91277167D01*
X135160591Y-91277171D01*
X135160596Y-91277171D01*
X135160601Y-91277173D01*
X135304963Y-91300037D01*
X135339454Y-91305500D01*
X135339459Y-91305500D01*
X135520541Y-91305500D01*
X135520546Y-91305500D01*
X135617425Y-91290156D01*
X135699398Y-91277173D01*
X135699400Y-91277172D01*
X135699409Y-91277171D01*
X135871639Y-91221211D01*
X136032994Y-91138996D01*
X136179501Y-91032553D01*
X136307553Y-90904501D01*
X136413996Y-90757994D01*
X136496211Y-90596639D01*
X136552171Y-90424409D01*
X136554495Y-90409740D01*
X136576601Y-90270162D01*
X136580500Y-90245546D01*
X136580500Y-90064454D01*
X136559265Y-89930381D01*
X136552173Y-89885601D01*
X136552171Y-89885596D01*
X136552171Y-89885591D01*
X136552167Y-89885578D01*
X136496213Y-89713366D01*
X136496206Y-89713350D01*
X136413995Y-89552005D01*
X136413991Y-89551999D01*
X136307558Y-89405506D01*
X136307553Y-89405499D01*
X136307548Y-89405494D01*
X136307543Y-89405488D01*
X136179511Y-89277456D01*
X136179505Y-89277451D01*
X136179501Y-89277447D01*
X136032994Y-89171004D01*
X135871649Y-89088793D01*
X135871633Y-89088786D01*
X135699421Y-89032832D01*
X135699398Y-89032826D01*
X135520557Y-89004501D01*
X135520549Y-89004500D01*
X135520546Y-89004500D01*
X135339454Y-89004500D01*
X135339451Y-89004500D01*
X135339442Y-89004501D01*
X135160601Y-89032826D01*
X135160578Y-89032832D01*
X134988366Y-89088786D01*
X134988350Y-89088793D01*
X134827005Y-89171004D01*
X134826999Y-89171008D01*
X134680506Y-89277441D01*
X134680488Y-89277456D01*
X134552456Y-89405488D01*
X134552441Y-89405506D01*
X134446008Y-89551999D01*
X134446004Y-89552005D01*
X134363793Y-89713350D01*
X134363786Y-89713366D01*
X134307832Y-89885578D01*
X134307826Y-89885601D01*
X134279501Y-90064442D01*
X134279500Y-90064458D01*
X133050500Y-90064458D01*
X133050500Y-87524458D01*
X134279500Y-87524458D01*
X134279500Y-87705541D01*
X134279501Y-87705557D01*
X134307826Y-87884398D01*
X134307832Y-87884421D01*
X134363786Y-88056633D01*
X134363793Y-88056649D01*
X134446004Y-88217994D01*
X134552447Y-88364501D01*
X134552451Y-88364505D01*
X134552456Y-88364511D01*
X134680488Y-88492543D01*
X134680494Y-88492548D01*
X134680499Y-88492553D01*
X134827006Y-88598996D01*
X134899255Y-88635809D01*
X134988350Y-88681206D01*
X134988366Y-88681213D01*
X135160578Y-88737167D01*
X135160581Y-88737167D01*
X135160591Y-88737171D01*
X135160596Y-88737171D01*
X135160601Y-88737173D01*
X135304963Y-88760037D01*
X135339454Y-88765500D01*
X135339459Y-88765500D01*
X135520541Y-88765500D01*
X135520546Y-88765500D01*
X135609977Y-88751335D01*
X135699398Y-88737173D01*
X135699400Y-88737172D01*
X135699409Y-88737171D01*
X135871639Y-88681211D01*
X136032994Y-88598996D01*
X136179501Y-88492553D01*
X136307553Y-88364501D01*
X136413996Y-88217994D01*
X136496211Y-88056639D01*
X136552171Y-87884409D01*
X136553179Y-87878049D01*
X136580498Y-87705557D01*
X136580500Y-87705546D01*
X136580500Y-87524454D01*
X136575037Y-87489963D01*
X136552173Y-87345601D01*
X136552171Y-87345596D01*
X136552171Y-87345591D01*
X136552167Y-87345578D01*
X136496213Y-87173366D01*
X136496206Y-87173350D01*
X136413995Y-87012005D01*
X136413991Y-87011999D01*
X136307558Y-86865506D01*
X136307553Y-86865499D01*
X136307548Y-86865494D01*
X136307543Y-86865488D01*
X136179511Y-86737456D01*
X136179505Y-86737451D01*
X136179501Y-86737447D01*
X136032994Y-86631004D01*
X135871649Y-86548793D01*
X135871633Y-86548786D01*
X135699421Y-86492832D01*
X135699398Y-86492826D01*
X135520557Y-86464501D01*
X135520549Y-86464500D01*
X135520546Y-86464500D01*
X135339454Y-86464500D01*
X135339451Y-86464500D01*
X135339442Y-86464501D01*
X135160601Y-86492826D01*
X135160578Y-86492832D01*
X134988366Y-86548786D01*
X134988350Y-86548793D01*
X134827005Y-86631004D01*
X134826999Y-86631008D01*
X134680506Y-86737441D01*
X134680488Y-86737456D01*
X134552456Y-86865488D01*
X134552441Y-86865506D01*
X134446008Y-87011999D01*
X134446004Y-87012005D01*
X134363793Y-87173350D01*
X134363786Y-87173366D01*
X134307832Y-87345578D01*
X134307826Y-87345601D01*
X134279501Y-87524442D01*
X134279500Y-87524458D01*
X133050500Y-87524458D01*
X133050500Y-84984458D01*
X134279500Y-84984458D01*
X134279500Y-85165541D01*
X134279501Y-85165557D01*
X134307826Y-85344398D01*
X134307832Y-85344421D01*
X134363786Y-85516633D01*
X134363793Y-85516649D01*
X134446004Y-85677994D01*
X134446008Y-85678000D01*
X134548073Y-85818481D01*
X134552447Y-85824501D01*
X134552451Y-85824505D01*
X134552456Y-85824511D01*
X134680488Y-85952543D01*
X134680494Y-85952548D01*
X134680499Y-85952553D01*
X134827006Y-86058996D01*
X134899255Y-86095809D01*
X134988350Y-86141206D01*
X134988366Y-86141213D01*
X135160578Y-86197167D01*
X135160581Y-86197167D01*
X135160591Y-86197171D01*
X135160596Y-86197171D01*
X135160601Y-86197173D01*
X135304469Y-86219959D01*
X135339454Y-86225500D01*
X135339459Y-86225500D01*
X135520541Y-86225500D01*
X135520546Y-86225500D01*
X135609977Y-86211335D01*
X135699398Y-86197173D01*
X135699400Y-86197172D01*
X135699409Y-86197171D01*
X135814229Y-86159864D01*
X135871633Y-86141213D01*
X135871633Y-86141212D01*
X135871639Y-86141211D01*
X136032994Y-86058996D01*
X136179501Y-85952553D01*
X136307553Y-85824501D01*
X136413996Y-85677994D01*
X136496211Y-85516639D01*
X136552171Y-85344409D01*
X136580500Y-85165546D01*
X136580500Y-84984454D01*
X136552171Y-84805591D01*
X136496211Y-84633361D01*
X136496209Y-84633358D01*
X136496206Y-84633350D01*
X136413995Y-84472005D01*
X136413991Y-84471999D01*
X136307558Y-84325506D01*
X136307553Y-84325499D01*
X136307548Y-84325494D01*
X136307543Y-84325488D01*
X136179511Y-84197456D01*
X136179505Y-84197451D01*
X136179501Y-84197447D01*
X136032994Y-84091004D01*
X135871649Y-84008793D01*
X135871633Y-84008786D01*
X135699421Y-83952832D01*
X135699398Y-83952826D01*
X135520557Y-83924501D01*
X135520549Y-83924500D01*
X135520546Y-83924500D01*
X135339454Y-83924500D01*
X135339451Y-83924500D01*
X135339442Y-83924501D01*
X135160601Y-83952826D01*
X135160578Y-83952832D01*
X134988366Y-84008786D01*
X134988350Y-84008793D01*
X134827005Y-84091004D01*
X134826999Y-84091008D01*
X134680506Y-84197441D01*
X134680488Y-84197456D01*
X134552456Y-84325488D01*
X134552441Y-84325506D01*
X134446008Y-84471999D01*
X134446004Y-84472005D01*
X134363793Y-84633350D01*
X134363786Y-84633366D01*
X134307832Y-84805578D01*
X134307826Y-84805601D01*
X134279501Y-84984442D01*
X134279500Y-84984458D01*
X133050500Y-84984458D01*
X133050500Y-82444458D01*
X134279500Y-82444458D01*
X134279500Y-82625541D01*
X134279501Y-82625557D01*
X134307826Y-82804398D01*
X134307832Y-82804421D01*
X134363786Y-82976633D01*
X134363793Y-82976649D01*
X134446004Y-83137994D01*
X134552447Y-83284501D01*
X134552451Y-83284505D01*
X134552456Y-83284511D01*
X134680488Y-83412543D01*
X134680494Y-83412548D01*
X134680499Y-83412553D01*
X134827006Y-83518996D01*
X134899255Y-83555809D01*
X134988350Y-83601206D01*
X134988366Y-83601213D01*
X135160578Y-83657167D01*
X135160581Y-83657167D01*
X135160591Y-83657171D01*
X135160596Y-83657171D01*
X135160601Y-83657173D01*
X135304963Y-83680037D01*
X135339454Y-83685500D01*
X135339459Y-83685500D01*
X135520541Y-83685500D01*
X135520546Y-83685500D01*
X135609977Y-83671335D01*
X135699398Y-83657173D01*
X135699400Y-83657172D01*
X135699409Y-83657171D01*
X135871639Y-83601211D01*
X136032994Y-83518996D01*
X136179501Y-83412553D01*
X136307553Y-83284501D01*
X136413996Y-83137994D01*
X136496211Y-82976639D01*
X136552171Y-82804409D01*
X136580500Y-82625546D01*
X136580500Y-82444454D01*
X136552171Y-82265591D01*
X136496211Y-82093361D01*
X136496209Y-82093358D01*
X136496206Y-82093350D01*
X136413995Y-81932005D01*
X136413991Y-81931999D01*
X136307558Y-81785506D01*
X136307553Y-81785499D01*
X136307548Y-81785494D01*
X136307543Y-81785488D01*
X136179511Y-81657456D01*
X136179505Y-81657451D01*
X136179501Y-81657447D01*
X136032994Y-81551004D01*
X135871649Y-81468793D01*
X135871633Y-81468786D01*
X135699421Y-81412832D01*
X135699398Y-81412826D01*
X135520557Y-81384501D01*
X135520549Y-81384500D01*
X135520546Y-81384500D01*
X135339454Y-81384500D01*
X135339451Y-81384500D01*
X135339442Y-81384501D01*
X135160601Y-81412826D01*
X135160578Y-81412832D01*
X134988366Y-81468786D01*
X134988350Y-81468793D01*
X134827005Y-81551004D01*
X134826999Y-81551008D01*
X134680506Y-81657441D01*
X134680488Y-81657456D01*
X134552456Y-81785488D01*
X134552441Y-81785506D01*
X134446008Y-81931999D01*
X134446004Y-81932005D01*
X134363793Y-82093350D01*
X134363786Y-82093366D01*
X134307832Y-82265578D01*
X134307826Y-82265601D01*
X134279501Y-82444442D01*
X134279500Y-82444458D01*
X133050500Y-82444458D01*
X133050500Y-79904458D01*
X134279500Y-79904458D01*
X134279500Y-80085541D01*
X134279501Y-80085557D01*
X134307826Y-80264398D01*
X134307832Y-80264421D01*
X134363786Y-80436633D01*
X134363793Y-80436649D01*
X134446004Y-80597994D01*
X134552447Y-80744501D01*
X134552451Y-80744505D01*
X134552456Y-80744511D01*
X134680488Y-80872543D01*
X134680494Y-80872548D01*
X134680499Y-80872553D01*
X134827006Y-80978996D01*
X134899255Y-81015809D01*
X134988350Y-81061206D01*
X134988366Y-81061213D01*
X135160578Y-81117167D01*
X135160581Y-81117167D01*
X135160591Y-81117171D01*
X135160596Y-81117171D01*
X135160601Y-81117173D01*
X135304963Y-81140037D01*
X135339454Y-81145500D01*
X135339459Y-81145500D01*
X135520541Y-81145500D01*
X135520546Y-81145500D01*
X135609977Y-81131335D01*
X135699398Y-81117173D01*
X135699400Y-81117172D01*
X135699409Y-81117171D01*
X135871639Y-81061211D01*
X136032994Y-80978996D01*
X136179501Y-80872553D01*
X136307553Y-80744501D01*
X136413996Y-80597994D01*
X136496211Y-80436639D01*
X136552171Y-80264409D01*
X136580500Y-80085546D01*
X136580500Y-79904454D01*
X136552171Y-79725591D01*
X136496211Y-79553361D01*
X136496209Y-79553358D01*
X136496206Y-79553350D01*
X136413995Y-79392005D01*
X136413991Y-79391999D01*
X136307558Y-79245506D01*
X136307553Y-79245499D01*
X136307548Y-79245494D01*
X136307543Y-79245488D01*
X136179511Y-79117456D01*
X136179505Y-79117451D01*
X136179501Y-79117447D01*
X136032994Y-79011004D01*
X135871649Y-78928793D01*
X135871633Y-78928786D01*
X135699421Y-78872832D01*
X135699398Y-78872826D01*
X135520557Y-78844501D01*
X135520549Y-78844500D01*
X135520546Y-78844500D01*
X135339454Y-78844500D01*
X135339451Y-78844500D01*
X135339442Y-78844501D01*
X135160601Y-78872826D01*
X135160578Y-78872832D01*
X134988366Y-78928786D01*
X134988350Y-78928793D01*
X134827005Y-79011004D01*
X134826999Y-79011008D01*
X134680506Y-79117441D01*
X134680488Y-79117456D01*
X134552456Y-79245488D01*
X134552441Y-79245506D01*
X134446008Y-79391999D01*
X134446004Y-79392005D01*
X134363793Y-79553350D01*
X134363786Y-79553366D01*
X134307832Y-79725578D01*
X134307826Y-79725601D01*
X134279501Y-79904442D01*
X134279500Y-79904458D01*
X133050500Y-79904458D01*
X133050500Y-77364458D01*
X134279500Y-77364458D01*
X134279500Y-77545541D01*
X134279501Y-77545557D01*
X134307826Y-77724398D01*
X134307832Y-77724421D01*
X134363786Y-77896633D01*
X134363793Y-77896649D01*
X134446004Y-78057994D01*
X134446008Y-78058000D01*
X134552441Y-78204493D01*
X134552447Y-78204501D01*
X134552451Y-78204505D01*
X134552456Y-78204511D01*
X134680488Y-78332543D01*
X134680494Y-78332548D01*
X134680499Y-78332553D01*
X134827006Y-78438996D01*
X134899255Y-78475809D01*
X134988350Y-78521206D01*
X134988366Y-78521213D01*
X135160578Y-78577167D01*
X135160581Y-78577167D01*
X135160591Y-78577171D01*
X135160596Y-78577171D01*
X135160601Y-78577173D01*
X135304963Y-78600037D01*
X135339454Y-78605500D01*
X135339459Y-78605500D01*
X135520541Y-78605500D01*
X135520546Y-78605500D01*
X135609977Y-78591335D01*
X135699398Y-78577173D01*
X135699400Y-78577172D01*
X135699409Y-78577171D01*
X135871639Y-78521211D01*
X136032994Y-78438996D01*
X136179501Y-78332553D01*
X136307553Y-78204501D01*
X136413996Y-78057994D01*
X136496211Y-77896639D01*
X136552171Y-77724409D01*
X136554958Y-77706816D01*
X136580498Y-77545557D01*
X136580500Y-77545546D01*
X136580500Y-77364454D01*
X136554580Y-77200801D01*
X136552173Y-77185601D01*
X136552171Y-77185596D01*
X136552171Y-77185591D01*
X136552167Y-77185578D01*
X136496213Y-77013366D01*
X136496206Y-77013350D01*
X136413995Y-76852005D01*
X136413991Y-76851999D01*
X136307558Y-76705506D01*
X136307553Y-76705499D01*
X136307548Y-76705494D01*
X136307543Y-76705488D01*
X136179511Y-76577456D01*
X136179505Y-76577451D01*
X136179501Y-76577447D01*
X136167864Y-76568992D01*
X136033000Y-76471008D01*
X136032994Y-76471004D01*
X135871649Y-76388793D01*
X135871633Y-76388786D01*
X135699421Y-76332832D01*
X135699398Y-76332826D01*
X135520557Y-76304501D01*
X135520549Y-76304500D01*
X135520546Y-76304500D01*
X135339454Y-76304500D01*
X135339451Y-76304500D01*
X135339442Y-76304501D01*
X135160601Y-76332826D01*
X135160578Y-76332832D01*
X134988366Y-76388786D01*
X134988350Y-76388793D01*
X134827005Y-76471004D01*
X134826999Y-76471008D01*
X134680506Y-76577441D01*
X134680488Y-76577456D01*
X134552456Y-76705488D01*
X134552441Y-76705506D01*
X134446008Y-76851999D01*
X134446004Y-76852005D01*
X134363793Y-77013350D01*
X134363786Y-77013366D01*
X134307832Y-77185578D01*
X134307826Y-77185601D01*
X134279501Y-77364442D01*
X134279500Y-77364458D01*
X133050500Y-77364458D01*
X133050500Y-74824458D01*
X134279500Y-74824458D01*
X134279500Y-75005541D01*
X134279501Y-75005557D01*
X134307826Y-75184398D01*
X134307832Y-75184421D01*
X134363786Y-75356633D01*
X134363793Y-75356649D01*
X134446004Y-75517994D01*
X134552447Y-75664501D01*
X134552451Y-75664505D01*
X134552456Y-75664511D01*
X134680488Y-75792543D01*
X134680494Y-75792548D01*
X134680499Y-75792553D01*
X134827006Y-75898996D01*
X134899255Y-75935809D01*
X134988350Y-75981206D01*
X134988366Y-75981213D01*
X135160578Y-76037167D01*
X135160581Y-76037167D01*
X135160591Y-76037171D01*
X135160596Y-76037171D01*
X135160601Y-76037173D01*
X135304963Y-76060037D01*
X135339454Y-76065500D01*
X135339459Y-76065500D01*
X135520541Y-76065500D01*
X135520546Y-76065500D01*
X135609977Y-76051335D01*
X135699398Y-76037173D01*
X135699400Y-76037172D01*
X135699409Y-76037171D01*
X135871639Y-75981211D01*
X136032994Y-75898996D01*
X136179501Y-75792553D01*
X136307553Y-75664501D01*
X136413996Y-75517994D01*
X136496211Y-75356639D01*
X136552171Y-75184409D01*
X136580500Y-75005546D01*
X136580500Y-74824454D01*
X136552171Y-74645591D01*
X136496211Y-74473361D01*
X136496209Y-74473358D01*
X136496206Y-74473350D01*
X136413995Y-74312005D01*
X136413991Y-74311999D01*
X136307558Y-74165506D01*
X136307553Y-74165499D01*
X136307548Y-74165494D01*
X136307543Y-74165488D01*
X136179511Y-74037456D01*
X136179505Y-74037451D01*
X136179501Y-74037447D01*
X136032994Y-73931004D01*
X135871649Y-73848793D01*
X135871633Y-73848786D01*
X135699421Y-73792832D01*
X135699398Y-73792826D01*
X135520557Y-73764501D01*
X135520549Y-73764500D01*
X135520546Y-73764500D01*
X135339454Y-73764500D01*
X135339451Y-73764500D01*
X135339442Y-73764501D01*
X135160601Y-73792826D01*
X135160578Y-73792832D01*
X134988366Y-73848786D01*
X134988350Y-73848793D01*
X134827005Y-73931004D01*
X134826999Y-73931008D01*
X134680506Y-74037441D01*
X134680488Y-74037456D01*
X134552456Y-74165488D01*
X134552441Y-74165506D01*
X134446008Y-74311999D01*
X134446004Y-74312005D01*
X134363793Y-74473350D01*
X134363786Y-74473366D01*
X134307832Y-74645578D01*
X134307826Y-74645601D01*
X134279501Y-74824442D01*
X134279500Y-74824458D01*
X133050500Y-74824458D01*
X133050500Y-72284458D01*
X134279500Y-72284458D01*
X134279500Y-72465541D01*
X134279501Y-72465557D01*
X134307826Y-72644398D01*
X134307832Y-72644421D01*
X134363786Y-72816633D01*
X134363793Y-72816649D01*
X134446004Y-72977994D01*
X134552447Y-73124501D01*
X134552451Y-73124505D01*
X134552456Y-73124511D01*
X134680488Y-73252543D01*
X134680494Y-73252548D01*
X134680499Y-73252553D01*
X134827006Y-73358996D01*
X134899255Y-73395809D01*
X134988350Y-73441206D01*
X134988366Y-73441213D01*
X135160578Y-73497167D01*
X135160581Y-73497167D01*
X135160591Y-73497171D01*
X135160596Y-73497171D01*
X135160601Y-73497173D01*
X135304963Y-73520037D01*
X135339454Y-73525500D01*
X135339459Y-73525500D01*
X135520541Y-73525500D01*
X135520546Y-73525500D01*
X135609977Y-73511335D01*
X135699398Y-73497173D01*
X135699400Y-73497172D01*
X135699409Y-73497171D01*
X135871639Y-73441211D01*
X136032994Y-73358996D01*
X136179501Y-73252553D01*
X136307553Y-73124501D01*
X136413996Y-72977994D01*
X136496211Y-72816639D01*
X136552171Y-72644409D01*
X136580500Y-72465546D01*
X136580500Y-72284454D01*
X136552171Y-72105591D01*
X136496211Y-71933361D01*
X136496209Y-71933358D01*
X136496206Y-71933350D01*
X136413995Y-71772005D01*
X136413991Y-71771999D01*
X136307558Y-71625506D01*
X136307553Y-71625499D01*
X136307548Y-71625494D01*
X136307543Y-71625488D01*
X136179511Y-71497456D01*
X136179505Y-71497451D01*
X136179501Y-71497447D01*
X136032994Y-71391004D01*
X135871649Y-71308793D01*
X135871633Y-71308786D01*
X135699421Y-71252832D01*
X135699398Y-71252826D01*
X135520557Y-71224501D01*
X135520549Y-71224500D01*
X135520546Y-71224500D01*
X135339454Y-71224500D01*
X135339451Y-71224500D01*
X135339442Y-71224501D01*
X135160601Y-71252826D01*
X135160578Y-71252832D01*
X134988366Y-71308786D01*
X134988350Y-71308793D01*
X134827005Y-71391004D01*
X134826999Y-71391008D01*
X134680506Y-71497441D01*
X134680488Y-71497456D01*
X134552456Y-71625488D01*
X134552441Y-71625506D01*
X134446008Y-71771999D01*
X134446004Y-71772005D01*
X134363793Y-71933350D01*
X134363786Y-71933366D01*
X134307832Y-72105578D01*
X134307826Y-72105601D01*
X134279501Y-72284442D01*
X134279500Y-72284458D01*
X133050500Y-72284458D01*
X133050500Y-69744458D01*
X134279500Y-69744458D01*
X134279500Y-69925541D01*
X134279501Y-69925557D01*
X134307826Y-70104398D01*
X134307832Y-70104421D01*
X134363786Y-70276633D01*
X134363793Y-70276649D01*
X134446004Y-70437994D01*
X134552447Y-70584501D01*
X134552451Y-70584505D01*
X134552456Y-70584511D01*
X134680488Y-70712543D01*
X134680494Y-70712548D01*
X134680499Y-70712553D01*
X134827006Y-70818996D01*
X134899255Y-70855809D01*
X134988350Y-70901206D01*
X134988366Y-70901213D01*
X135160578Y-70957167D01*
X135160581Y-70957167D01*
X135160591Y-70957171D01*
X135160596Y-70957171D01*
X135160601Y-70957173D01*
X135304963Y-70980037D01*
X135339454Y-70985500D01*
X135339459Y-70985500D01*
X135520541Y-70985500D01*
X135520546Y-70985500D01*
X135609977Y-70971335D01*
X135699398Y-70957173D01*
X135699400Y-70957172D01*
X135699409Y-70957171D01*
X135871639Y-70901211D01*
X136032994Y-70818996D01*
X136179501Y-70712553D01*
X136307553Y-70584501D01*
X136413996Y-70437994D01*
X136496211Y-70276639D01*
X136552171Y-70104409D01*
X136580500Y-69925546D01*
X136580500Y-69744454D01*
X136552171Y-69565591D01*
X136496211Y-69393361D01*
X136496209Y-69393358D01*
X136496206Y-69393350D01*
X136413995Y-69232005D01*
X136413991Y-69231999D01*
X136307558Y-69085506D01*
X136307553Y-69085499D01*
X136307548Y-69085494D01*
X136307543Y-69085488D01*
X136179511Y-68957456D01*
X136179505Y-68957451D01*
X136179501Y-68957447D01*
X136032994Y-68851004D01*
X135871649Y-68768793D01*
X135871633Y-68768786D01*
X135699421Y-68712832D01*
X135699398Y-68712826D01*
X135520557Y-68684501D01*
X135520549Y-68684500D01*
X135520546Y-68684500D01*
X135339454Y-68684500D01*
X135339451Y-68684500D01*
X135339442Y-68684501D01*
X135160601Y-68712826D01*
X135160578Y-68712832D01*
X134988366Y-68768786D01*
X134988350Y-68768793D01*
X134827005Y-68851004D01*
X134826999Y-68851008D01*
X134680506Y-68957441D01*
X134680488Y-68957456D01*
X134552456Y-69085488D01*
X134552441Y-69085506D01*
X134446008Y-69231999D01*
X134446004Y-69232005D01*
X134363793Y-69393350D01*
X134363786Y-69393366D01*
X134307832Y-69565578D01*
X134307826Y-69565601D01*
X134279501Y-69744442D01*
X134279500Y-69744458D01*
X133050500Y-69744458D01*
X133050500Y-67721158D01*
X133019737Y-67566502D01*
X133019736Y-67566500D01*
X132959395Y-67420824D01*
X132959394Y-67420821D01*
X132871789Y-67289711D01*
X132871784Y-67289705D01*
X132786537Y-67204458D01*
X134279500Y-67204458D01*
X134279500Y-67385541D01*
X134279501Y-67385557D01*
X134307826Y-67564398D01*
X134307832Y-67564421D01*
X134363786Y-67736633D01*
X134363793Y-67736649D01*
X134446004Y-67897994D01*
X134446008Y-67898000D01*
X134552441Y-68044493D01*
X134552447Y-68044501D01*
X134552451Y-68044505D01*
X134552456Y-68044511D01*
X134680488Y-68172543D01*
X134680494Y-68172548D01*
X134680499Y-68172553D01*
X134827006Y-68278996D01*
X134899255Y-68315809D01*
X134988350Y-68361206D01*
X134988366Y-68361213D01*
X135160578Y-68417167D01*
X135160581Y-68417167D01*
X135160591Y-68417171D01*
X135160596Y-68417171D01*
X135160601Y-68417173D01*
X135304963Y-68440037D01*
X135339454Y-68445500D01*
X135339459Y-68445500D01*
X135520541Y-68445500D01*
X135520546Y-68445500D01*
X135609977Y-68431335D01*
X135699398Y-68417173D01*
X135699400Y-68417172D01*
X135699409Y-68417171D01*
X135871639Y-68361211D01*
X136032994Y-68278996D01*
X136179501Y-68172553D01*
X136307553Y-68044501D01*
X136413996Y-67897994D01*
X136496211Y-67736639D01*
X136552171Y-67564409D01*
X136580500Y-67385546D01*
X136580500Y-67204454D01*
X136575037Y-67169963D01*
X136552173Y-67025601D01*
X136552171Y-67025596D01*
X136552171Y-67025591D01*
X136496211Y-66853361D01*
X136496209Y-66853358D01*
X136496206Y-66853350D01*
X136413995Y-66692005D01*
X136413991Y-66691999D01*
X136307558Y-66545506D01*
X136307553Y-66545499D01*
X136307548Y-66545494D01*
X136307543Y-66545488D01*
X136179511Y-66417456D01*
X136179505Y-66417451D01*
X136179501Y-66417447D01*
X136165375Y-66407184D01*
X136033000Y-66311008D01*
X136032994Y-66311004D01*
X135871649Y-66228793D01*
X135871633Y-66228786D01*
X135699421Y-66172832D01*
X135699398Y-66172826D01*
X135520557Y-66144501D01*
X135520549Y-66144500D01*
X135520546Y-66144500D01*
X135339454Y-66144500D01*
X135339451Y-66144500D01*
X135339442Y-66144501D01*
X135160601Y-66172826D01*
X135160578Y-66172832D01*
X134988366Y-66228786D01*
X134988350Y-66228793D01*
X134827005Y-66311004D01*
X134826999Y-66311008D01*
X134680506Y-66417441D01*
X134680488Y-66417456D01*
X134552456Y-66545488D01*
X134552441Y-66545506D01*
X134446008Y-66691999D01*
X134446004Y-66692005D01*
X134363793Y-66853350D01*
X134363786Y-66853366D01*
X134307832Y-67025578D01*
X134307826Y-67025601D01*
X134279501Y-67204442D01*
X134279500Y-67204458D01*
X132786537Y-67204458D01*
X132760294Y-67178215D01*
X132760287Y-67178209D01*
X132629180Y-67090607D01*
X132629179Y-67090606D01*
X132629176Y-67090605D01*
X132629175Y-67090604D01*
X132483499Y-67030263D01*
X132483497Y-67030262D01*
X132328842Y-66999500D01*
X132171158Y-66999500D01*
X132016502Y-67030262D01*
X132016500Y-67030263D01*
X131870824Y-67090604D01*
X131870819Y-67090607D01*
X131739712Y-67178209D01*
X131739705Y-67178215D01*
X131628215Y-67289705D01*
X131628209Y-67289712D01*
X131540607Y-67420819D01*
X131540604Y-67420824D01*
X131480263Y-67566500D01*
X131480262Y-67566502D01*
X131449500Y-67721158D01*
X131449500Y-90068320D01*
X131431018Y-90119100D01*
X131384218Y-90146120D01*
X131340268Y-90141307D01*
X131304328Y-90126420D01*
X131304326Y-90126419D01*
X131304325Y-90126419D01*
X131168993Y-90099500D01*
X131031007Y-90099500D01*
X130895671Y-90126419D01*
X130895669Y-90126420D01*
X130768194Y-90179222D01*
X130768188Y-90179225D01*
X130653459Y-90255884D01*
X130653452Y-90255890D01*
X130555890Y-90353452D01*
X130555884Y-90353459D01*
X130479225Y-90468188D01*
X130479222Y-90468194D01*
X130426420Y-90595669D01*
X130426419Y-90595671D01*
X130399500Y-90731007D01*
X130399500Y-90868992D01*
X130426419Y-91004328D01*
X130426420Y-91004330D01*
X130479222Y-91131805D01*
X130479225Y-91131811D01*
X130555884Y-91246540D01*
X130555885Y-91246541D01*
X130555886Y-91246542D01*
X130576360Y-91267016D01*
X130599199Y-91315991D01*
X130599500Y-91322878D01*
X130599500Y-99113881D01*
X130586187Y-99157770D01*
X130579225Y-99168189D01*
X130579223Y-99168192D01*
X130526420Y-99295669D01*
X130526419Y-99295671D01*
X130499500Y-99431007D01*
X130499500Y-99568992D01*
X130526419Y-99704328D01*
X130526420Y-99704330D01*
X130579222Y-99831805D01*
X130579225Y-99831811D01*
X130655884Y-99946540D01*
X130655890Y-99946547D01*
X130753452Y-100044109D01*
X130753458Y-100044114D01*
X130868189Y-100120775D01*
X130868194Y-100120777D01*
X130995669Y-100173579D01*
X130995671Y-100173580D01*
X131131007Y-100200500D01*
X131268993Y-100200500D01*
X131404328Y-100173580D01*
X131404330Y-100173579D01*
X131531811Y-100120775D01*
X131646542Y-100044114D01*
X131723428Y-99967227D01*
X131772403Y-99944390D01*
X131824601Y-99958376D01*
X131835150Y-99967228D01*
X134257771Y-102389848D01*
X134280609Y-102438824D01*
X134266623Y-102491022D01*
X134257773Y-102501569D01*
X134220151Y-102539192D01*
X134220149Y-102539194D01*
X134143490Y-102653923D01*
X134143487Y-102653929D01*
X134090686Y-102781401D01*
X134090685Y-102781402D01*
X134088240Y-102793697D01*
X134066620Y-102834144D01*
X133781286Y-103119478D01*
X133781284Y-103119480D01*
X133725382Y-103175382D01*
X133669480Y-103231283D01*
X133638887Y-103284272D01*
X133638883Y-103284278D01*
X133637420Y-103286814D01*
X133590423Y-103368215D01*
X133580433Y-103405494D01*
X133577206Y-103412188D01*
X133562854Y-103426172D01*
X133551359Y-103442589D01*
X133543976Y-103444567D01*
X133538502Y-103449901D01*
X133518516Y-103451388D01*
X133499161Y-103456574D01*
X133488790Y-103453600D01*
X133484612Y-103453911D01*
X133481126Y-103451402D01*
X133470182Y-103448264D01*
X133350847Y-103387459D01*
X133350829Y-103387452D01*
X133171126Y-103329062D01*
X133171107Y-103329057D01*
X132984484Y-103299500D01*
X132984481Y-103299500D01*
X132795519Y-103299500D01*
X132795516Y-103299500D01*
X132608892Y-103329057D01*
X132608873Y-103329062D01*
X132429170Y-103387452D01*
X132429152Y-103387459D01*
X132260805Y-103473237D01*
X132260794Y-103473244D01*
X132107934Y-103584304D01*
X132107916Y-103584319D01*
X131974319Y-103717916D01*
X131974304Y-103717934D01*
X131863244Y-103870794D01*
X131863237Y-103870805D01*
X131777459Y-104039152D01*
X131777452Y-104039170D01*
X131719062Y-104218873D01*
X131719057Y-104218892D01*
X131698027Y-104351678D01*
X131671829Y-104398942D01*
X131621379Y-104418308D01*
X131570284Y-104400715D01*
X131542451Y-104354394D01*
X131541973Y-104351678D01*
X131520942Y-104218892D01*
X131520940Y-104218888D01*
X131520940Y-104218882D01*
X131462547Y-104039168D01*
X131462543Y-104039161D01*
X131462540Y-104039152D01*
X131376762Y-103870805D01*
X131376760Y-103870801D01*
X131265690Y-103717927D01*
X131265685Y-103717922D01*
X131265680Y-103717916D01*
X131132083Y-103584319D01*
X131132077Y-103584314D01*
X131132073Y-103584310D01*
X131132065Y-103584304D01*
X130979205Y-103473244D01*
X130979194Y-103473237D01*
X130810847Y-103387459D01*
X130810829Y-103387452D01*
X130631126Y-103329062D01*
X130631107Y-103329057D01*
X130444484Y-103299500D01*
X130444481Y-103299500D01*
X130255519Y-103299500D01*
X130255516Y-103299500D01*
X130068892Y-103329057D01*
X130068873Y-103329062D01*
X129889170Y-103387452D01*
X129889152Y-103387459D01*
X129720805Y-103473237D01*
X129720794Y-103473244D01*
X129567934Y-103584304D01*
X129567916Y-103584319D01*
X129434319Y-103717916D01*
X129434304Y-103717934D01*
X129323244Y-103870794D01*
X129323237Y-103870805D01*
X129237459Y-104039152D01*
X129237452Y-104039170D01*
X129179062Y-104218873D01*
X129179057Y-104218892D01*
X129158027Y-104351678D01*
X129131829Y-104398942D01*
X129081379Y-104418308D01*
X129030284Y-104400715D01*
X129002451Y-104354394D01*
X129001973Y-104351678D01*
X128980942Y-104218892D01*
X128980940Y-104218888D01*
X128980940Y-104218882D01*
X128922547Y-104039168D01*
X128922543Y-104039161D01*
X128922540Y-104039152D01*
X128836762Y-103870805D01*
X128836760Y-103870801D01*
X128725690Y-103717927D01*
X128725685Y-103717922D01*
X128725680Y-103717916D01*
X128592083Y-103584319D01*
X128592077Y-103584314D01*
X128592073Y-103584310D01*
X128592065Y-103584304D01*
X128439205Y-103473244D01*
X128439194Y-103473237D01*
X128270847Y-103387459D01*
X128270829Y-103387452D01*
X128091126Y-103329062D01*
X128091107Y-103329057D01*
X127904484Y-103299500D01*
X127904481Y-103299500D01*
X127715519Y-103299500D01*
X127715516Y-103299500D01*
X127528892Y-103329057D01*
X127528873Y-103329062D01*
X127349170Y-103387452D01*
X127349152Y-103387459D01*
X127180805Y-103473237D01*
X127180794Y-103473244D01*
X127027934Y-103584304D01*
X127027916Y-103584319D01*
X126894319Y-103717916D01*
X126894304Y-103717934D01*
X126783244Y-103870794D01*
X126783237Y-103870805D01*
X126697459Y-104039152D01*
X126697452Y-104039170D01*
X126639062Y-104218873D01*
X126639057Y-104218892D01*
X126618027Y-104351678D01*
X126591829Y-104398942D01*
X126541379Y-104418308D01*
X126490284Y-104400715D01*
X126462451Y-104354394D01*
X126461973Y-104351678D01*
X126440942Y-104218892D01*
X126440940Y-104218888D01*
X126440940Y-104218882D01*
X126382547Y-104039168D01*
X126382543Y-104039161D01*
X126382540Y-104039152D01*
X126296762Y-103870805D01*
X126296760Y-103870801D01*
X126185690Y-103717927D01*
X126185685Y-103717922D01*
X126185680Y-103717916D01*
X126052083Y-103584319D01*
X126052077Y-103584314D01*
X126052073Y-103584310D01*
X126052065Y-103584304D01*
X125899205Y-103473244D01*
X125899194Y-103473237D01*
X125730847Y-103387459D01*
X125730829Y-103387452D01*
X125551126Y-103329062D01*
X125551107Y-103329057D01*
X125364484Y-103299500D01*
X125364481Y-103299500D01*
X125175519Y-103299500D01*
X125175516Y-103299500D01*
X124988892Y-103329057D01*
X124988873Y-103329062D01*
X124809170Y-103387452D01*
X124809152Y-103387459D01*
X124640805Y-103473237D01*
X124640794Y-103473244D01*
X124487931Y-103584306D01*
X124445886Y-103626351D01*
X124396909Y-103649188D01*
X124344712Y-103635201D01*
X124334164Y-103626350D01*
X122643175Y-101935361D01*
X122620337Y-101886385D01*
X122634323Y-101834187D01*
X122678589Y-101803192D01*
X122699036Y-101800500D01*
X123728593Y-101800500D01*
X123779373Y-101818982D01*
X123784443Y-101823628D01*
X123860986Y-101900171D01*
X123975717Y-101976832D01*
X124099756Y-102028210D01*
X124109003Y-102032770D01*
X124114342Y-102035853D01*
X124241635Y-102069961D01*
X124241637Y-102069961D01*
X124373418Y-102069961D01*
X124373420Y-102069961D01*
X124462894Y-102045986D01*
X124500711Y-102035854D01*
X124500711Y-102035853D01*
X124500714Y-102035853D01*
X124506042Y-102032776D01*
X124515293Y-102028213D01*
X124639339Y-101976832D01*
X124754070Y-101900171D01*
X124851642Y-101802599D01*
X124928303Y-101687868D01*
X124981108Y-101560385D01*
X125008028Y-101425050D01*
X125008028Y-101287064D01*
X124981108Y-101151728D01*
X124981107Y-101151726D01*
X124928305Y-101024251D01*
X124928302Y-101024245D01*
X124851643Y-100909516D01*
X124851637Y-100909509D01*
X124754075Y-100811947D01*
X124754068Y-100811941D01*
X124639339Y-100735282D01*
X124621148Y-100727747D01*
X124549047Y-100697881D01*
X124509206Y-100661373D01*
X124501304Y-100634803D01*
X124501257Y-100634813D01*
X124501155Y-100634303D01*
X124500660Y-100632637D01*
X124500500Y-100631012D01*
X124500500Y-100631007D01*
X124473580Y-100495672D01*
X124420775Y-100368189D01*
X124344114Y-100253458D01*
X124344109Y-100253452D01*
X124246547Y-100155890D01*
X124246540Y-100155884D01*
X124131811Y-100079225D01*
X124131805Y-100079222D01*
X124004330Y-100026420D01*
X124004328Y-100026419D01*
X123868993Y-99999500D01*
X123840036Y-99999500D01*
X123789256Y-99981018D01*
X123784174Y-99976361D01*
X123593123Y-99785309D01*
X123570286Y-99736333D01*
X123569985Y-99729448D01*
X123569985Y-91553393D01*
X123588467Y-91502613D01*
X123593114Y-91497541D01*
X123613599Y-91477057D01*
X123690260Y-91362326D01*
X123743065Y-91234843D01*
X123769985Y-91099508D01*
X123769985Y-90961522D01*
X123743065Y-90826187D01*
X123734828Y-90806302D01*
X123690262Y-90698709D01*
X123690259Y-90698703D01*
X123676974Y-90678821D01*
X123621416Y-90595672D01*
X123613600Y-90583974D01*
X123613594Y-90583967D01*
X123516032Y-90486405D01*
X123516025Y-90486399D01*
X123401296Y-90409740D01*
X123401290Y-90409737D01*
X123273815Y-90356935D01*
X123191038Y-90340469D01*
X123144840Y-90312434D01*
X123130972Y-90282695D01*
X123130255Y-90282913D01*
X123129127Y-90279196D01*
X123076325Y-90151721D01*
X123076322Y-90151715D01*
X123070288Y-90142685D01*
X123037992Y-90094350D01*
X122999663Y-90036986D01*
X122999657Y-90036979D01*
X122902095Y-89939417D01*
X122902088Y-89939411D01*
X122787359Y-89862752D01*
X122787353Y-89862749D01*
X122659878Y-89809947D01*
X122659876Y-89809946D01*
X122524541Y-89783027D01*
X122386555Y-89783027D01*
X122251219Y-89809946D01*
X122251217Y-89809947D01*
X122123742Y-89862749D01*
X122123736Y-89862752D01*
X122009007Y-89939411D01*
X122009000Y-89939417D01*
X121911438Y-90036979D01*
X121911436Y-90036982D01*
X121865882Y-90105158D01*
X121822302Y-90137111D01*
X121768379Y-90133576D01*
X121734510Y-90105157D01*
X121682922Y-90027950D01*
X121682916Y-90027943D01*
X121585354Y-89930381D01*
X121585347Y-89930375D01*
X121470618Y-89853716D01*
X121470612Y-89853713D01*
X121343137Y-89800911D01*
X121343135Y-89800910D01*
X121207800Y-89773991D01*
X121069814Y-89773991D01*
X120934478Y-89800910D01*
X120934476Y-89800911D01*
X120807001Y-89853713D01*
X120806995Y-89853716D01*
X120692266Y-89930375D01*
X120692259Y-89930381D01*
X120594697Y-90027943D01*
X120594691Y-90027950D01*
X120518032Y-90142679D01*
X120518029Y-90142685D01*
X120465227Y-90270160D01*
X120465226Y-90270162D01*
X120438307Y-90405498D01*
X120438307Y-90543483D01*
X120465226Y-90678819D01*
X120465227Y-90678821D01*
X120518029Y-90806296D01*
X120518032Y-90806302D01*
X120594691Y-90921031D01*
X120594692Y-90921032D01*
X120594693Y-90921033D01*
X120615167Y-90941507D01*
X120638006Y-90990482D01*
X120638307Y-90997369D01*
X120638307Y-101954701D01*
X120672414Y-102081990D01*
X120672415Y-102081994D01*
X120738308Y-102196123D01*
X121985946Y-103443760D01*
X122008784Y-103492736D01*
X121994798Y-103544934D01*
X121976523Y-103563531D01*
X121947929Y-103584307D01*
X121947925Y-103584310D01*
X121814319Y-103717916D01*
X121814304Y-103717934D01*
X121703244Y-103870794D01*
X121703237Y-103870805D01*
X121617459Y-104039152D01*
X121617452Y-104039170D01*
X121559062Y-104218873D01*
X121559057Y-104218892D01*
X121538027Y-104351678D01*
X121511829Y-104398942D01*
X121461379Y-104418308D01*
X121410284Y-104400715D01*
X121382451Y-104354394D01*
X121381973Y-104351678D01*
X121360942Y-104218892D01*
X121360940Y-104218888D01*
X121360940Y-104218882D01*
X121302547Y-104039168D01*
X121302543Y-104039161D01*
X121302540Y-104039152D01*
X121216762Y-103870805D01*
X121216760Y-103870801D01*
X121105690Y-103717927D01*
X121105685Y-103717922D01*
X121105680Y-103717916D01*
X120972083Y-103584319D01*
X120972077Y-103584314D01*
X120972073Y-103584310D01*
X120972065Y-103584304D01*
X120819205Y-103473244D01*
X120819194Y-103473237D01*
X120650847Y-103387459D01*
X120650829Y-103387452D01*
X120471126Y-103329062D01*
X120471107Y-103329057D01*
X120284484Y-103299500D01*
X120284481Y-103299500D01*
X120095519Y-103299500D01*
X120095516Y-103299500D01*
X119908892Y-103329057D01*
X119908873Y-103329062D01*
X119729170Y-103387452D01*
X119729152Y-103387459D01*
X119560805Y-103473237D01*
X119560794Y-103473244D01*
X119407934Y-103584304D01*
X119407916Y-103584319D01*
X119274319Y-103717916D01*
X119274304Y-103717934D01*
X119163244Y-103870794D01*
X119163237Y-103870805D01*
X119077459Y-104039152D01*
X119077452Y-104039170D01*
X119019062Y-104218873D01*
X119019057Y-104218892D01*
X118998027Y-104351678D01*
X118971829Y-104398942D01*
X118921379Y-104418308D01*
X118870284Y-104400715D01*
X118842451Y-104354394D01*
X118841973Y-104351678D01*
X118820942Y-104218892D01*
X118820940Y-104218888D01*
X118820940Y-104218882D01*
X118762547Y-104039168D01*
X118762543Y-104039161D01*
X118762540Y-104039152D01*
X118676762Y-103870805D01*
X118676760Y-103870801D01*
X118565690Y-103717927D01*
X118565685Y-103717922D01*
X118565680Y-103717916D01*
X118432083Y-103584319D01*
X118432077Y-103584314D01*
X118432073Y-103584310D01*
X118432065Y-103584304D01*
X118279205Y-103473244D01*
X118279194Y-103473237D01*
X118110847Y-103387459D01*
X118110829Y-103387452D01*
X117931126Y-103329062D01*
X117931107Y-103329057D01*
X117744484Y-103299500D01*
X117744481Y-103299500D01*
X117555519Y-103299500D01*
X117555516Y-103299500D01*
X117368892Y-103329057D01*
X117368873Y-103329062D01*
X117189170Y-103387452D01*
X117189152Y-103387459D01*
X117020805Y-103473237D01*
X117020794Y-103473244D01*
X116867934Y-103584304D01*
X116867916Y-103584319D01*
X116734319Y-103717916D01*
X116734304Y-103717934D01*
X116623244Y-103870794D01*
X116623237Y-103870805D01*
X116537459Y-104039152D01*
X116537452Y-104039170D01*
X116479062Y-104218873D01*
X116479057Y-104218892D01*
X116458027Y-104351678D01*
X116431829Y-104398942D01*
X116381379Y-104418308D01*
X116330284Y-104400715D01*
X116302451Y-104354394D01*
X116301973Y-104351678D01*
X116280942Y-104218892D01*
X116280940Y-104218888D01*
X116280940Y-104218882D01*
X116222547Y-104039168D01*
X116222543Y-104039161D01*
X116222540Y-104039152D01*
X116136762Y-103870805D01*
X116136760Y-103870801D01*
X116025690Y-103717927D01*
X116025685Y-103717922D01*
X116025680Y-103717916D01*
X115892083Y-103584319D01*
X115892077Y-103584314D01*
X115892073Y-103584310D01*
X115892065Y-103584304D01*
X115739205Y-103473244D01*
X115739194Y-103473237D01*
X115570847Y-103387459D01*
X115570829Y-103387452D01*
X115391126Y-103329062D01*
X115391107Y-103329057D01*
X115204484Y-103299500D01*
X115204481Y-103299500D01*
X115015519Y-103299500D01*
X115015516Y-103299500D01*
X114828892Y-103329057D01*
X114828873Y-103329062D01*
X114649170Y-103387452D01*
X114649152Y-103387459D01*
X114480805Y-103473237D01*
X114480794Y-103473244D01*
X114327934Y-103584304D01*
X114327916Y-103584319D01*
X114194319Y-103717916D01*
X114194304Y-103717934D01*
X114083244Y-103870794D01*
X114083237Y-103870805D01*
X113997459Y-104039152D01*
X113997452Y-104039170D01*
X113939062Y-104218873D01*
X113939057Y-104218892D01*
X113909500Y-104405516D01*
X110705500Y-104405516D01*
X110705500Y-100224458D01*
X111419500Y-100224458D01*
X111419500Y-100405541D01*
X111419501Y-100405557D01*
X111447826Y-100584398D01*
X111447832Y-100584421D01*
X111503786Y-100756633D01*
X111503793Y-100756649D01*
X111581681Y-100909509D01*
X111586004Y-100917994D01*
X111692447Y-101064501D01*
X111692448Y-101064502D01*
X111692456Y-101064511D01*
X111820488Y-101192543D01*
X111820494Y-101192548D01*
X111820499Y-101192553D01*
X111967006Y-101298996D01*
X112039255Y-101335809D01*
X112128350Y-101381206D01*
X112128366Y-101381213D01*
X112300578Y-101437167D01*
X112300581Y-101437167D01*
X112300591Y-101437171D01*
X112300596Y-101437171D01*
X112300601Y-101437173D01*
X112444963Y-101460037D01*
X112479454Y-101465500D01*
X112479459Y-101465500D01*
X112660541Y-101465500D01*
X112660546Y-101465500D01*
X112749977Y-101451335D01*
X112839398Y-101437173D01*
X112839400Y-101437172D01*
X112839409Y-101437171D01*
X113011639Y-101381211D01*
X113172994Y-101298996D01*
X113319501Y-101192553D01*
X113447553Y-101064501D01*
X113553996Y-100917994D01*
X113636211Y-100756639D01*
X113692171Y-100584409D01*
X113695426Y-100563861D01*
X113720498Y-100405557D01*
X113720500Y-100405546D01*
X113720500Y-100224454D01*
X113712442Y-100173579D01*
X113692173Y-100045601D01*
X113692171Y-100045596D01*
X113692171Y-100045591D01*
X113692167Y-100045578D01*
X113636213Y-99873366D01*
X113636206Y-99873350D01*
X113590809Y-99784255D01*
X113553996Y-99712006D01*
X113447553Y-99565499D01*
X113447548Y-99565494D01*
X113447543Y-99565488D01*
X113319511Y-99437456D01*
X113319505Y-99437451D01*
X113319501Y-99437447D01*
X113172994Y-99331004D01*
X113011649Y-99248793D01*
X113011633Y-99248786D01*
X112839421Y-99192832D01*
X112839398Y-99192826D01*
X112660557Y-99164501D01*
X112660549Y-99164500D01*
X112660546Y-99164500D01*
X112479454Y-99164500D01*
X112479451Y-99164500D01*
X112479442Y-99164501D01*
X112300601Y-99192826D01*
X112300578Y-99192832D01*
X112128366Y-99248786D01*
X112128350Y-99248793D01*
X111967005Y-99331004D01*
X111966999Y-99331008D01*
X111820506Y-99437441D01*
X111820488Y-99437456D01*
X111692456Y-99565488D01*
X111692441Y-99565506D01*
X111586008Y-99711999D01*
X111586004Y-99712005D01*
X111503793Y-99873350D01*
X111503786Y-99873366D01*
X111447832Y-100045578D01*
X111447826Y-100045601D01*
X111419501Y-100224442D01*
X111419500Y-100224458D01*
X110705500Y-100224458D01*
X110705500Y-95144458D01*
X111419500Y-95144458D01*
X111419500Y-95325541D01*
X111419501Y-95325557D01*
X111447826Y-95504398D01*
X111447832Y-95504421D01*
X111503786Y-95676633D01*
X111503793Y-95676649D01*
X111586004Y-95837994D01*
X111692447Y-95984501D01*
X111692451Y-95984505D01*
X111692456Y-95984511D01*
X111820488Y-96112543D01*
X111820494Y-96112548D01*
X111820499Y-96112553D01*
X111967006Y-96218996D01*
X112039255Y-96255809D01*
X112128350Y-96301206D01*
X112128366Y-96301213D01*
X112300578Y-96357167D01*
X112300581Y-96357167D01*
X112300591Y-96357171D01*
X112300596Y-96357171D01*
X112300601Y-96357173D01*
X112444963Y-96380037D01*
X112479454Y-96385500D01*
X112479459Y-96385500D01*
X112660541Y-96385500D01*
X112660546Y-96385500D01*
X112749977Y-96371335D01*
X112839398Y-96357173D01*
X112839400Y-96357172D01*
X112839409Y-96357171D01*
X113011639Y-96301211D01*
X113172994Y-96218996D01*
X113319501Y-96112553D01*
X113447553Y-95984501D01*
X113553996Y-95837994D01*
X113636211Y-95676639D01*
X113692171Y-95504409D01*
X113720500Y-95325546D01*
X113720500Y-95144454D01*
X113692171Y-94965591D01*
X113636211Y-94793361D01*
X113636209Y-94793358D01*
X113636206Y-94793350D01*
X113590809Y-94704255D01*
X113553996Y-94632006D01*
X113447553Y-94485499D01*
X113447548Y-94485494D01*
X113447543Y-94485488D01*
X113319511Y-94357456D01*
X113319505Y-94357451D01*
X113319501Y-94357447D01*
X113234692Y-94295830D01*
X113173000Y-94251008D01*
X113172994Y-94251004D01*
X113011649Y-94168793D01*
X113011633Y-94168786D01*
X112839421Y-94112832D01*
X112839398Y-94112826D01*
X112660557Y-94084501D01*
X112660549Y-94084500D01*
X112660546Y-94084500D01*
X112479454Y-94084500D01*
X112479451Y-94084500D01*
X112479442Y-94084501D01*
X112300601Y-94112826D01*
X112300578Y-94112832D01*
X112128366Y-94168786D01*
X112128350Y-94168793D01*
X111967005Y-94251004D01*
X111966999Y-94251008D01*
X111820506Y-94357441D01*
X111820488Y-94357456D01*
X111692456Y-94485488D01*
X111692441Y-94485506D01*
X111586008Y-94631999D01*
X111586004Y-94632005D01*
X111503793Y-94793350D01*
X111503786Y-94793366D01*
X111447832Y-94965578D01*
X111447826Y-94965601D01*
X111419501Y-95144442D01*
X111419500Y-95144458D01*
X110705500Y-95144458D01*
X110705500Y-92604458D01*
X111419500Y-92604458D01*
X111419500Y-92785541D01*
X111419501Y-92785557D01*
X111447826Y-92964398D01*
X111447832Y-92964421D01*
X111503786Y-93136633D01*
X111503793Y-93136649D01*
X111586004Y-93297994D01*
X111586008Y-93298000D01*
X111688255Y-93438731D01*
X111692447Y-93444501D01*
X111692451Y-93444505D01*
X111692456Y-93444511D01*
X111820488Y-93572543D01*
X111820494Y-93572548D01*
X111820499Y-93572553D01*
X111967006Y-93678996D01*
X112039255Y-93715809D01*
X112128350Y-93761206D01*
X112128366Y-93761213D01*
X112300578Y-93817167D01*
X112300581Y-93817167D01*
X112300591Y-93817171D01*
X112300596Y-93817171D01*
X112300601Y-93817173D01*
X112444963Y-93840037D01*
X112479454Y-93845500D01*
X112479459Y-93845500D01*
X112660541Y-93845500D01*
X112660546Y-93845500D01*
X112749977Y-93831335D01*
X112839398Y-93817173D01*
X112839400Y-93817172D01*
X112839409Y-93817171D01*
X113011639Y-93761211D01*
X113172994Y-93678996D01*
X113319501Y-93572553D01*
X113447553Y-93444501D01*
X113506702Y-93363089D01*
X116052418Y-93363089D01*
X116052418Y-93501074D01*
X116079337Y-93636410D01*
X116079338Y-93636412D01*
X116132140Y-93763887D01*
X116132143Y-93763893D01*
X116208802Y-93878622D01*
X116208808Y-93878629D01*
X116306370Y-93976191D01*
X116306376Y-93976196D01*
X116421107Y-94052857D01*
X116421112Y-94052859D01*
X116548587Y-94105661D01*
X116548589Y-94105662D01*
X116683925Y-94132582D01*
X116821911Y-94132582D01*
X116957246Y-94105662D01*
X116957248Y-94105661D01*
X117008333Y-94084501D01*
X117084729Y-94052857D01*
X117130151Y-94022507D01*
X118499500Y-94022507D01*
X118499500Y-94160492D01*
X118526419Y-94295828D01*
X118526420Y-94295830D01*
X118579222Y-94423305D01*
X118579225Y-94423311D01*
X118655884Y-94538040D01*
X118655890Y-94538047D01*
X118753452Y-94635609D01*
X118753458Y-94635614D01*
X118868189Y-94712275D01*
X118868194Y-94712277D01*
X118995669Y-94765079D01*
X118995671Y-94765080D01*
X119131007Y-94792000D01*
X119268993Y-94792000D01*
X119404328Y-94765080D01*
X119404330Y-94765079D01*
X119531811Y-94712275D01*
X119646542Y-94635614D01*
X119744114Y-94538042D01*
X119820775Y-94423311D01*
X119873580Y-94295828D01*
X119900500Y-94160493D01*
X119900500Y-94022507D01*
X119891287Y-93976191D01*
X119873580Y-93887171D01*
X119873579Y-93887169D01*
X119820777Y-93759694D01*
X119820774Y-93759688D01*
X119744115Y-93644959D01*
X119744109Y-93644952D01*
X119723639Y-93624482D01*
X119700801Y-93575506D01*
X119700500Y-93568621D01*
X119700500Y-86601587D01*
X125009500Y-86601587D01*
X125009500Y-86798412D01*
X125009501Y-86798428D01*
X125040288Y-86992815D01*
X125040293Y-86992834D01*
X125101115Y-87180022D01*
X125101122Y-87180040D01*
X125190473Y-87355400D01*
X125190479Y-87355410D01*
X125306172Y-87514646D01*
X125306176Y-87514650D01*
X125306181Y-87514656D01*
X125445343Y-87653818D01*
X125445349Y-87653823D01*
X125445354Y-87653828D01*
X125604595Y-87769524D01*
X125604599Y-87769526D01*
X125779959Y-87858877D01*
X125779968Y-87858880D01*
X125779975Y-87858884D01*
X125967174Y-87919709D01*
X125967180Y-87919709D01*
X125967184Y-87919711D01*
X126124091Y-87944561D01*
X126161583Y-87950500D01*
X126161588Y-87950500D01*
X126358412Y-87950500D01*
X126358417Y-87950500D01*
X126455621Y-87935104D01*
X126552815Y-87919711D01*
X126552817Y-87919710D01*
X126552826Y-87919709D01*
X126740025Y-87858884D01*
X126740034Y-87858879D01*
X126740040Y-87858877D01*
X126878476Y-87788340D01*
X126915405Y-87769524D01*
X127074646Y-87653828D01*
X127213828Y-87514646D01*
X127329524Y-87355405D01*
X127400112Y-87216866D01*
X127439632Y-87180014D01*
X127493597Y-87177186D01*
X127536755Y-87209707D01*
X127549500Y-87252734D01*
X127549500Y-87581515D01*
X127564354Y-87675302D01*
X127564353Y-87675302D01*
X127621951Y-87788344D01*
X127711656Y-87878049D01*
X127711659Y-87878051D01*
X127824693Y-87935645D01*
X127824695Y-87935645D01*
X127824696Y-87935646D01*
X127918481Y-87950500D01*
X129681518Y-87950499D01*
X129775304Y-87935646D01*
X129888342Y-87878050D01*
X129978050Y-87788342D01*
X130035646Y-87675304D01*
X130050500Y-87581519D01*
X130050499Y-85818482D01*
X130035646Y-85724696D01*
X129978050Y-85611658D01*
X129978049Y-85611657D01*
X129978048Y-85611655D01*
X129888343Y-85521950D01*
X129888340Y-85521948D01*
X129775306Y-85464354D01*
X129775302Y-85464353D01*
X129681530Y-85449501D01*
X129681522Y-85449500D01*
X129681519Y-85449500D01*
X129681514Y-85449500D01*
X127918484Y-85449500D01*
X127842345Y-85461558D01*
X127824696Y-85464354D01*
X127769213Y-85492623D01*
X127711655Y-85521951D01*
X127621950Y-85611656D01*
X127621948Y-85611659D01*
X127564354Y-85724693D01*
X127564353Y-85724697D01*
X127549501Y-85818469D01*
X127549500Y-85818485D01*
X127549500Y-86147264D01*
X127531018Y-86198044D01*
X127484218Y-86225064D01*
X127431000Y-86215680D01*
X127400110Y-86183129D01*
X127378749Y-86141206D01*
X127329524Y-86044595D01*
X127213828Y-85885354D01*
X127213823Y-85885349D01*
X127213818Y-85885343D01*
X127074656Y-85746181D01*
X127074650Y-85746176D01*
X127074646Y-85746172D01*
X127074638Y-85746166D01*
X126915411Y-85630480D01*
X126915400Y-85630473D01*
X126740040Y-85541122D01*
X126740022Y-85541115D01*
X126552834Y-85480293D01*
X126552815Y-85480288D01*
X126358428Y-85449501D01*
X126358420Y-85449500D01*
X126358417Y-85449500D01*
X126161583Y-85449500D01*
X126161580Y-85449500D01*
X126161571Y-85449501D01*
X125967184Y-85480288D01*
X125967165Y-85480293D01*
X125779977Y-85541115D01*
X125779959Y-85541122D01*
X125604599Y-85630473D01*
X125604588Y-85630480D01*
X125445361Y-85746166D01*
X125445343Y-85746181D01*
X125306181Y-85885343D01*
X125306166Y-85885361D01*
X125190480Y-86044588D01*
X125190473Y-86044599D01*
X125101122Y-86219959D01*
X125101115Y-86219977D01*
X125040293Y-86407165D01*
X125040288Y-86407184D01*
X125009501Y-86601571D01*
X125009500Y-86601587D01*
X119700500Y-86601587D01*
X119700500Y-78140036D01*
X119718982Y-78089256D01*
X119723639Y-78084175D01*
X120584175Y-77223639D01*
X120633151Y-77200801D01*
X120640036Y-77200500D01*
X120668993Y-77200500D01*
X120804328Y-77173580D01*
X120804330Y-77173579D01*
X120931811Y-77120775D01*
X121046542Y-77044114D01*
X121144114Y-76946542D01*
X121220775Y-76831811D01*
X121273580Y-76704328D01*
X121300500Y-76568993D01*
X121300500Y-76431007D01*
X121280971Y-76332829D01*
X121273580Y-76295671D01*
X121273579Y-76295669D01*
X121220777Y-76168194D01*
X121220774Y-76168188D01*
X121144115Y-76053459D01*
X121144109Y-76053452D01*
X121046547Y-75955890D01*
X121046540Y-75955884D01*
X120931811Y-75879225D01*
X120931805Y-75879222D01*
X120804330Y-75826420D01*
X120804328Y-75826419D01*
X120668993Y-75799500D01*
X120531007Y-75799500D01*
X120395671Y-75826419D01*
X120395669Y-75826420D01*
X120268194Y-75879222D01*
X120268188Y-75879225D01*
X120153459Y-75955884D01*
X120153452Y-75955890D01*
X120055890Y-76053452D01*
X120055884Y-76053459D01*
X119979225Y-76168188D01*
X119979222Y-76168194D01*
X119926420Y-76295669D01*
X119926419Y-76295671D01*
X119899500Y-76431007D01*
X119899500Y-76459964D01*
X119881018Y-76510744D01*
X119876361Y-76515825D01*
X118892686Y-77499500D01*
X118846645Y-77545541D01*
X118799500Y-77592685D01*
X118733608Y-77706812D01*
X118733607Y-77706816D01*
X118699500Y-77834105D01*
X118699500Y-93568621D01*
X118681018Y-93619401D01*
X118676361Y-93624482D01*
X118655890Y-93644952D01*
X118655884Y-93644959D01*
X118579225Y-93759688D01*
X118579222Y-93759694D01*
X118526420Y-93887169D01*
X118526419Y-93887171D01*
X118499500Y-94022507D01*
X117130151Y-94022507D01*
X117199460Y-93976196D01*
X117199465Y-93976191D01*
X117212892Y-93962765D01*
X117297027Y-93878629D01*
X117297032Y-93878624D01*
X117373693Y-93763893D01*
X117426498Y-93636410D01*
X117453418Y-93501075D01*
X117453418Y-93472118D01*
X117459316Y-93455910D01*
X117460820Y-93438731D01*
X117470710Y-93424606D01*
X117471900Y-93421338D01*
X117476557Y-93416257D01*
X117585623Y-93307191D01*
X117634599Y-93284353D01*
X117641484Y-93284052D01*
X117670441Y-93284052D01*
X117805776Y-93257132D01*
X117805778Y-93257131D01*
X117933259Y-93204327D01*
X118047990Y-93127666D01*
X118145562Y-93030094D01*
X118222223Y-92915363D01*
X118275028Y-92787880D01*
X118301948Y-92652545D01*
X118301948Y-92514559D01*
X118284251Y-92425591D01*
X118275028Y-92379223D01*
X118275027Y-92379221D01*
X118222225Y-92251746D01*
X118222222Y-92251740D01*
X118145563Y-92137011D01*
X118145557Y-92137004D01*
X118047995Y-92039442D01*
X118047988Y-92039436D01*
X117933259Y-91962777D01*
X117933253Y-91962774D01*
X117805778Y-91909972D01*
X117805776Y-91909971D01*
X117670441Y-91883052D01*
X117532455Y-91883052D01*
X117397119Y-91909971D01*
X117397117Y-91909972D01*
X117269642Y-91962774D01*
X117269636Y-91962777D01*
X117154907Y-92039436D01*
X117154900Y-92039442D01*
X117057338Y-92137004D01*
X117057332Y-92137011D01*
X116980673Y-92251740D01*
X116980670Y-92251746D01*
X116927868Y-92379221D01*
X116927867Y-92379223D01*
X116900948Y-92514559D01*
X116900948Y-92543516D01*
X116895049Y-92559723D01*
X116893546Y-92576903D01*
X116883655Y-92591027D01*
X116882466Y-92594296D01*
X116877809Y-92599377D01*
X116768743Y-92708443D01*
X116719767Y-92731281D01*
X116712882Y-92731582D01*
X116683925Y-92731582D01*
X116548589Y-92758501D01*
X116548587Y-92758502D01*
X116421112Y-92811304D01*
X116421106Y-92811307D01*
X116306377Y-92887966D01*
X116306370Y-92887972D01*
X116208808Y-92985534D01*
X116208802Y-92985541D01*
X116132143Y-93100270D01*
X116132140Y-93100276D01*
X116079338Y-93227751D01*
X116079337Y-93227753D01*
X116052418Y-93363089D01*
X113506702Y-93363089D01*
X113543259Y-93312773D01*
X113548040Y-93306190D01*
X113553996Y-93297994D01*
X113636211Y-93136639D01*
X113648028Y-93100271D01*
X113692167Y-92964421D01*
X113692171Y-92964409D01*
X113720500Y-92785546D01*
X113720500Y-92604454D01*
X113692171Y-92425591D01*
X113677106Y-92379224D01*
X113636213Y-92253366D01*
X113636206Y-92253350D01*
X113553995Y-92092005D01*
X113553991Y-92091999D01*
X113447558Y-91945506D01*
X113447553Y-91945499D01*
X113447548Y-91945494D01*
X113447543Y-91945488D01*
X113319511Y-91817456D01*
X113319505Y-91817451D01*
X113319501Y-91817447D01*
X113172994Y-91711004D01*
X113011649Y-91628793D01*
X113011633Y-91628786D01*
X112839421Y-91572832D01*
X112839398Y-91572826D01*
X112660557Y-91544501D01*
X112660549Y-91544500D01*
X112660546Y-91544500D01*
X112479454Y-91544500D01*
X112479451Y-91544500D01*
X112479442Y-91544501D01*
X112300601Y-91572826D01*
X112300578Y-91572832D01*
X112128366Y-91628786D01*
X112128350Y-91628793D01*
X111967005Y-91711004D01*
X111966999Y-91711008D01*
X111820506Y-91817441D01*
X111820488Y-91817456D01*
X111692456Y-91945488D01*
X111692441Y-91945506D01*
X111586008Y-92091999D01*
X111586004Y-92092005D01*
X111503793Y-92253350D01*
X111503786Y-92253366D01*
X111447832Y-92425578D01*
X111447826Y-92425601D01*
X111419501Y-92604442D01*
X111419500Y-92604458D01*
X110705500Y-92604458D01*
X110705500Y-90064458D01*
X111419500Y-90064458D01*
X111419500Y-90245541D01*
X111419501Y-90245557D01*
X111447826Y-90424398D01*
X111447832Y-90424421D01*
X111503786Y-90596633D01*
X111503793Y-90596649D01*
X111586004Y-90757994D01*
X111586008Y-90758000D01*
X111635548Y-90826186D01*
X111692447Y-90904501D01*
X111692451Y-90904505D01*
X111692456Y-90904511D01*
X111820488Y-91032543D01*
X111820494Y-91032548D01*
X111820499Y-91032553D01*
X111967006Y-91138996D01*
X112039255Y-91175809D01*
X112128350Y-91221206D01*
X112128366Y-91221213D01*
X112300578Y-91277167D01*
X112300581Y-91277167D01*
X112300591Y-91277171D01*
X112300596Y-91277171D01*
X112300601Y-91277173D01*
X112444963Y-91300037D01*
X112479454Y-91305500D01*
X112479459Y-91305500D01*
X112660541Y-91305500D01*
X112660546Y-91305500D01*
X112757425Y-91290156D01*
X112839398Y-91277173D01*
X112839400Y-91277172D01*
X112839409Y-91277171D01*
X113011639Y-91221211D01*
X113172994Y-91138996D01*
X113319501Y-91032553D01*
X113447553Y-90904501D01*
X113553996Y-90757994D01*
X113636211Y-90596639D01*
X113692171Y-90424409D01*
X113694495Y-90409740D01*
X113716601Y-90270162D01*
X113720500Y-90245546D01*
X113720500Y-90064454D01*
X113699265Y-89930381D01*
X113692173Y-89885601D01*
X113692171Y-89885596D01*
X113692171Y-89885591D01*
X113692167Y-89885578D01*
X113636213Y-89713366D01*
X113636206Y-89713350D01*
X113553995Y-89552005D01*
X113553991Y-89551999D01*
X113447558Y-89405506D01*
X113447553Y-89405499D01*
X113447548Y-89405494D01*
X113447543Y-89405488D01*
X113319511Y-89277456D01*
X113319505Y-89277451D01*
X113319501Y-89277447D01*
X113172994Y-89171004D01*
X113011649Y-89088793D01*
X113011633Y-89088786D01*
X112839421Y-89032832D01*
X112839398Y-89032826D01*
X112660557Y-89004501D01*
X112660549Y-89004500D01*
X112660546Y-89004500D01*
X112479454Y-89004500D01*
X112479451Y-89004500D01*
X112479442Y-89004501D01*
X112300601Y-89032826D01*
X112300578Y-89032832D01*
X112128366Y-89088786D01*
X112128350Y-89088793D01*
X111967005Y-89171004D01*
X111966999Y-89171008D01*
X111820506Y-89277441D01*
X111820488Y-89277456D01*
X111692456Y-89405488D01*
X111692441Y-89405506D01*
X111586008Y-89551999D01*
X111586004Y-89552005D01*
X111503793Y-89713350D01*
X111503786Y-89713366D01*
X111447832Y-89885578D01*
X111447826Y-89885601D01*
X111419501Y-90064442D01*
X111419500Y-90064458D01*
X110705500Y-90064458D01*
X110705500Y-87524458D01*
X111419500Y-87524458D01*
X111419500Y-87705541D01*
X111419501Y-87705557D01*
X111447826Y-87884398D01*
X111447832Y-87884421D01*
X111503786Y-88056633D01*
X111503793Y-88056649D01*
X111586004Y-88217994D01*
X111692447Y-88364501D01*
X111692451Y-88364505D01*
X111692456Y-88364511D01*
X111820488Y-88492543D01*
X111820494Y-88492548D01*
X111820499Y-88492553D01*
X111967006Y-88598996D01*
X112039255Y-88635809D01*
X112128350Y-88681206D01*
X112128366Y-88681213D01*
X112300578Y-88737167D01*
X112300581Y-88737167D01*
X112300591Y-88737171D01*
X112300596Y-88737171D01*
X112300601Y-88737173D01*
X112444963Y-88760037D01*
X112479454Y-88765500D01*
X112479459Y-88765500D01*
X112660541Y-88765500D01*
X112660546Y-88765500D01*
X112749977Y-88751335D01*
X112839398Y-88737173D01*
X112839400Y-88737172D01*
X112839409Y-88737171D01*
X113011639Y-88681211D01*
X113172994Y-88598996D01*
X113319501Y-88492553D01*
X113447553Y-88364501D01*
X113553996Y-88217994D01*
X113636211Y-88056639D01*
X113692171Y-87884409D01*
X113693179Y-87878049D01*
X113720498Y-87705557D01*
X113720500Y-87705546D01*
X113720500Y-87524454D01*
X113715037Y-87489963D01*
X113692173Y-87345601D01*
X113692171Y-87345596D01*
X113692171Y-87345591D01*
X113692167Y-87345578D01*
X113636213Y-87173366D01*
X113636206Y-87173350D01*
X113553995Y-87012005D01*
X113553991Y-87011999D01*
X113447558Y-86865506D01*
X113447553Y-86865499D01*
X113447548Y-86865494D01*
X113447543Y-86865488D01*
X113319511Y-86737456D01*
X113319505Y-86737451D01*
X113319501Y-86737447D01*
X113172994Y-86631004D01*
X113011649Y-86548793D01*
X113011633Y-86548786D01*
X112839421Y-86492832D01*
X112839398Y-86492826D01*
X112660557Y-86464501D01*
X112660549Y-86464500D01*
X112660546Y-86464500D01*
X112479454Y-86464500D01*
X112479451Y-86464500D01*
X112479442Y-86464501D01*
X112300601Y-86492826D01*
X112300578Y-86492832D01*
X112128366Y-86548786D01*
X112128350Y-86548793D01*
X111967005Y-86631004D01*
X111966999Y-86631008D01*
X111820506Y-86737441D01*
X111820488Y-86737456D01*
X111692456Y-86865488D01*
X111692441Y-86865506D01*
X111586008Y-87011999D01*
X111586004Y-87012005D01*
X111503793Y-87173350D01*
X111503786Y-87173366D01*
X111447832Y-87345578D01*
X111447826Y-87345601D01*
X111419501Y-87524442D01*
X111419500Y-87524458D01*
X110705500Y-87524458D01*
X110705500Y-84984458D01*
X111419500Y-84984458D01*
X111419500Y-85165541D01*
X111419501Y-85165557D01*
X111447826Y-85344398D01*
X111447832Y-85344421D01*
X111503786Y-85516633D01*
X111503793Y-85516649D01*
X111586004Y-85677994D01*
X111586008Y-85678000D01*
X111688073Y-85818481D01*
X111692447Y-85824501D01*
X111692451Y-85824505D01*
X111692456Y-85824511D01*
X111820488Y-85952543D01*
X111820494Y-85952548D01*
X111820499Y-85952553D01*
X111967006Y-86058996D01*
X112039255Y-86095809D01*
X112128350Y-86141206D01*
X112128366Y-86141213D01*
X112300578Y-86197167D01*
X112300581Y-86197167D01*
X112300591Y-86197171D01*
X112300596Y-86197171D01*
X112300601Y-86197173D01*
X112444469Y-86219959D01*
X112479454Y-86225500D01*
X112479459Y-86225500D01*
X112660541Y-86225500D01*
X112660546Y-86225500D01*
X112749977Y-86211335D01*
X112839398Y-86197173D01*
X112839400Y-86197172D01*
X112839409Y-86197171D01*
X112954229Y-86159864D01*
X113011633Y-86141213D01*
X113011633Y-86141212D01*
X113011639Y-86141211D01*
X113172994Y-86058996D01*
X113319501Y-85952553D01*
X113447553Y-85824501D01*
X113553996Y-85677994D01*
X113636211Y-85516639D01*
X113692171Y-85344409D01*
X113720500Y-85165546D01*
X113720500Y-84984454D01*
X113692171Y-84805591D01*
X113636211Y-84633361D01*
X113636209Y-84633358D01*
X113636206Y-84633350D01*
X113553995Y-84472005D01*
X113553991Y-84471999D01*
X113447558Y-84325506D01*
X113447553Y-84325499D01*
X113447548Y-84325494D01*
X113447543Y-84325488D01*
X113319511Y-84197456D01*
X113319505Y-84197451D01*
X113319501Y-84197447D01*
X113172994Y-84091004D01*
X113011649Y-84008793D01*
X113011633Y-84008786D01*
X112839421Y-83952832D01*
X112839398Y-83952826D01*
X112660557Y-83924501D01*
X112660549Y-83924500D01*
X112660546Y-83924500D01*
X112479454Y-83924500D01*
X112479451Y-83924500D01*
X112479442Y-83924501D01*
X112300601Y-83952826D01*
X112300578Y-83952832D01*
X112128366Y-84008786D01*
X112128350Y-84008793D01*
X111967005Y-84091004D01*
X111966999Y-84091008D01*
X111820506Y-84197441D01*
X111820488Y-84197456D01*
X111692456Y-84325488D01*
X111692441Y-84325506D01*
X111586008Y-84471999D01*
X111586004Y-84472005D01*
X111503793Y-84633350D01*
X111503786Y-84633366D01*
X111447832Y-84805578D01*
X111447826Y-84805601D01*
X111419501Y-84984442D01*
X111419500Y-84984458D01*
X110705500Y-84984458D01*
X110705500Y-82444458D01*
X111419500Y-82444458D01*
X111419500Y-82625541D01*
X111419501Y-82625557D01*
X111447826Y-82804398D01*
X111447832Y-82804421D01*
X111503786Y-82976633D01*
X111503793Y-82976649D01*
X111586004Y-83137994D01*
X111692447Y-83284501D01*
X111692451Y-83284505D01*
X111692456Y-83284511D01*
X111820488Y-83412543D01*
X111820494Y-83412548D01*
X111820499Y-83412553D01*
X111967006Y-83518996D01*
X112039255Y-83555809D01*
X112128350Y-83601206D01*
X112128366Y-83601213D01*
X112300578Y-83657167D01*
X112300581Y-83657167D01*
X112300591Y-83657171D01*
X112300596Y-83657171D01*
X112300601Y-83657173D01*
X112444963Y-83680037D01*
X112479454Y-83685500D01*
X112479459Y-83685500D01*
X112660541Y-83685500D01*
X112660546Y-83685500D01*
X112749977Y-83671335D01*
X112839398Y-83657173D01*
X112839400Y-83657172D01*
X112839409Y-83657171D01*
X113011639Y-83601211D01*
X113172994Y-83518996D01*
X113319501Y-83412553D01*
X113447553Y-83284501D01*
X113553996Y-83137994D01*
X113636211Y-82976639D01*
X113692171Y-82804409D01*
X113720500Y-82625546D01*
X113720500Y-82444454D01*
X113692171Y-82265591D01*
X113636211Y-82093361D01*
X113636209Y-82093358D01*
X113636206Y-82093350D01*
X113553995Y-81932005D01*
X113553991Y-81931999D01*
X113447558Y-81785506D01*
X113447553Y-81785499D01*
X113447548Y-81785494D01*
X113447543Y-81785488D01*
X113319511Y-81657456D01*
X113319505Y-81657451D01*
X113319501Y-81657447D01*
X113172994Y-81551004D01*
X113011649Y-81468793D01*
X113011633Y-81468786D01*
X112839421Y-81412832D01*
X112839398Y-81412826D01*
X112660557Y-81384501D01*
X112660549Y-81384500D01*
X112660546Y-81384500D01*
X112479454Y-81384500D01*
X112479451Y-81384500D01*
X112479442Y-81384501D01*
X112300601Y-81412826D01*
X112300578Y-81412832D01*
X112128366Y-81468786D01*
X112128350Y-81468793D01*
X111967005Y-81551004D01*
X111966999Y-81551008D01*
X111820506Y-81657441D01*
X111820488Y-81657456D01*
X111692456Y-81785488D01*
X111692441Y-81785506D01*
X111586008Y-81931999D01*
X111586004Y-81932005D01*
X111503793Y-82093350D01*
X111503786Y-82093366D01*
X111447832Y-82265578D01*
X111447826Y-82265601D01*
X111419501Y-82444442D01*
X111419500Y-82444458D01*
X110705500Y-82444458D01*
X110705500Y-79904458D01*
X111419500Y-79904458D01*
X111419500Y-80085541D01*
X111419501Y-80085557D01*
X111447826Y-80264398D01*
X111447832Y-80264421D01*
X111503786Y-80436633D01*
X111503793Y-80436649D01*
X111586004Y-80597994D01*
X111692447Y-80744501D01*
X111692451Y-80744505D01*
X111692456Y-80744511D01*
X111820488Y-80872543D01*
X111820494Y-80872548D01*
X111820499Y-80872553D01*
X111967006Y-80978996D01*
X112039255Y-81015809D01*
X112128350Y-81061206D01*
X112128366Y-81061213D01*
X112300578Y-81117167D01*
X112300581Y-81117167D01*
X112300591Y-81117171D01*
X112300596Y-81117171D01*
X112300601Y-81117173D01*
X112444963Y-81140037D01*
X112479454Y-81145500D01*
X112479459Y-81145500D01*
X112660541Y-81145500D01*
X112660546Y-81145500D01*
X112749977Y-81131335D01*
X112839398Y-81117173D01*
X112839400Y-81117172D01*
X112839409Y-81117171D01*
X113011639Y-81061211D01*
X113172994Y-80978996D01*
X113319501Y-80872553D01*
X113447553Y-80744501D01*
X113553996Y-80597994D01*
X113636211Y-80436639D01*
X113692171Y-80264409D01*
X113720500Y-80085546D01*
X113720500Y-79904454D01*
X113692171Y-79725591D01*
X113636211Y-79553361D01*
X113636209Y-79553358D01*
X113636206Y-79553350D01*
X113553995Y-79392005D01*
X113553991Y-79391999D01*
X113447558Y-79245506D01*
X113447553Y-79245499D01*
X113447548Y-79245494D01*
X113447543Y-79245488D01*
X113319511Y-79117456D01*
X113319505Y-79117451D01*
X113319501Y-79117447D01*
X113172994Y-79011004D01*
X113011649Y-78928793D01*
X113011633Y-78928786D01*
X112839421Y-78872832D01*
X112839398Y-78872826D01*
X112660557Y-78844501D01*
X112660549Y-78844500D01*
X112660546Y-78844500D01*
X112479454Y-78844500D01*
X112479451Y-78844500D01*
X112479442Y-78844501D01*
X112300601Y-78872826D01*
X112300578Y-78872832D01*
X112128366Y-78928786D01*
X112128350Y-78928793D01*
X111967005Y-79011004D01*
X111966999Y-79011008D01*
X111820506Y-79117441D01*
X111820488Y-79117456D01*
X111692456Y-79245488D01*
X111692441Y-79245506D01*
X111586008Y-79391999D01*
X111586004Y-79392005D01*
X111503793Y-79553350D01*
X111503786Y-79553366D01*
X111447832Y-79725578D01*
X111447826Y-79725601D01*
X111419501Y-79904442D01*
X111419500Y-79904458D01*
X110705500Y-79904458D01*
X110705500Y-77364458D01*
X111419500Y-77364458D01*
X111419500Y-77545541D01*
X111419501Y-77545557D01*
X111447826Y-77724398D01*
X111447832Y-77724421D01*
X111503786Y-77896633D01*
X111503793Y-77896649D01*
X111586004Y-78057994D01*
X111586008Y-78058000D01*
X111692441Y-78204493D01*
X111692447Y-78204501D01*
X111692451Y-78204505D01*
X111692456Y-78204511D01*
X111820488Y-78332543D01*
X111820494Y-78332548D01*
X111820499Y-78332553D01*
X111967006Y-78438996D01*
X112039255Y-78475809D01*
X112128350Y-78521206D01*
X112128366Y-78521213D01*
X112300578Y-78577167D01*
X112300581Y-78577167D01*
X112300591Y-78577171D01*
X112300596Y-78577171D01*
X112300601Y-78577173D01*
X112444963Y-78600037D01*
X112479454Y-78605500D01*
X112479459Y-78605500D01*
X112660541Y-78605500D01*
X112660546Y-78605500D01*
X112749977Y-78591335D01*
X112839398Y-78577173D01*
X112839400Y-78577172D01*
X112839409Y-78577171D01*
X113011639Y-78521211D01*
X113172994Y-78438996D01*
X113319501Y-78332553D01*
X113447553Y-78204501D01*
X113553996Y-78057994D01*
X113636211Y-77896639D01*
X113692171Y-77724409D01*
X113694958Y-77706816D01*
X113720498Y-77545557D01*
X113720500Y-77545546D01*
X113720500Y-77364454D01*
X113694580Y-77200801D01*
X113692173Y-77185601D01*
X113692171Y-77185596D01*
X113692171Y-77185591D01*
X113692167Y-77185578D01*
X113636213Y-77013366D01*
X113636206Y-77013350D01*
X113553995Y-76852005D01*
X113553991Y-76851999D01*
X113447558Y-76705506D01*
X113447553Y-76705499D01*
X113447548Y-76705494D01*
X113447543Y-76705488D01*
X113319511Y-76577456D01*
X113319505Y-76577451D01*
X113319501Y-76577447D01*
X113307864Y-76568992D01*
X113173000Y-76471008D01*
X113172994Y-76471004D01*
X113011649Y-76388793D01*
X113011633Y-76388786D01*
X112839421Y-76332832D01*
X112839398Y-76332826D01*
X112660557Y-76304501D01*
X112660549Y-76304500D01*
X112660546Y-76304500D01*
X112479454Y-76304500D01*
X112479451Y-76304500D01*
X112479442Y-76304501D01*
X112300601Y-76332826D01*
X112300578Y-76332832D01*
X112128366Y-76388786D01*
X112128350Y-76388793D01*
X111967005Y-76471004D01*
X111966999Y-76471008D01*
X111820506Y-76577441D01*
X111820488Y-76577456D01*
X111692456Y-76705488D01*
X111692441Y-76705506D01*
X111586008Y-76851999D01*
X111586004Y-76852005D01*
X111503793Y-77013350D01*
X111503786Y-77013366D01*
X111447832Y-77185578D01*
X111447826Y-77185601D01*
X111419501Y-77364442D01*
X111419500Y-77364458D01*
X110705500Y-77364458D01*
X110705500Y-74824458D01*
X111419500Y-74824458D01*
X111419500Y-75005541D01*
X111419501Y-75005557D01*
X111447826Y-75184398D01*
X111447832Y-75184421D01*
X111503786Y-75356633D01*
X111503793Y-75356649D01*
X111586004Y-75517994D01*
X111692447Y-75664501D01*
X111692451Y-75664505D01*
X111692456Y-75664511D01*
X111820488Y-75792543D01*
X111820494Y-75792548D01*
X111820499Y-75792553D01*
X111967006Y-75898996D01*
X112039255Y-75935809D01*
X112128350Y-75981206D01*
X112128366Y-75981213D01*
X112300578Y-76037167D01*
X112300581Y-76037167D01*
X112300591Y-76037171D01*
X112300596Y-76037171D01*
X112300601Y-76037173D01*
X112444963Y-76060037D01*
X112479454Y-76065500D01*
X112479459Y-76065500D01*
X112660541Y-76065500D01*
X112660546Y-76065500D01*
X112749977Y-76051335D01*
X112839398Y-76037173D01*
X112839400Y-76037172D01*
X112839409Y-76037171D01*
X113011639Y-75981211D01*
X113172994Y-75898996D01*
X113319501Y-75792553D01*
X113447553Y-75664501D01*
X113553996Y-75517994D01*
X113636211Y-75356639D01*
X113692171Y-75184409D01*
X113720500Y-75005546D01*
X113720500Y-74824454D01*
X113692171Y-74645591D01*
X113636211Y-74473361D01*
X113636209Y-74473358D01*
X113636206Y-74473350D01*
X113553995Y-74312005D01*
X113553991Y-74311999D01*
X113447558Y-74165506D01*
X113447553Y-74165499D01*
X113447548Y-74165494D01*
X113447543Y-74165488D01*
X113319511Y-74037456D01*
X113319505Y-74037451D01*
X113319501Y-74037447D01*
X113172994Y-73931004D01*
X113011649Y-73848793D01*
X113011633Y-73848786D01*
X112839421Y-73792832D01*
X112839398Y-73792826D01*
X112660557Y-73764501D01*
X112660549Y-73764500D01*
X112660546Y-73764500D01*
X112479454Y-73764500D01*
X112479451Y-73764500D01*
X112479442Y-73764501D01*
X112300601Y-73792826D01*
X112300578Y-73792832D01*
X112128366Y-73848786D01*
X112128350Y-73848793D01*
X111967005Y-73931004D01*
X111966999Y-73931008D01*
X111820506Y-74037441D01*
X111820488Y-74037456D01*
X111692456Y-74165488D01*
X111692441Y-74165506D01*
X111586008Y-74311999D01*
X111586004Y-74312005D01*
X111503793Y-74473350D01*
X111503786Y-74473366D01*
X111447832Y-74645578D01*
X111447826Y-74645601D01*
X111419501Y-74824442D01*
X111419500Y-74824458D01*
X110705500Y-74824458D01*
X110705500Y-72284458D01*
X111419500Y-72284458D01*
X111419500Y-72465541D01*
X111419501Y-72465557D01*
X111447826Y-72644398D01*
X111447832Y-72644421D01*
X111503786Y-72816633D01*
X111503793Y-72816649D01*
X111586004Y-72977994D01*
X111692447Y-73124501D01*
X111692451Y-73124505D01*
X111692456Y-73124511D01*
X111820488Y-73252543D01*
X111820494Y-73252548D01*
X111820499Y-73252553D01*
X111967006Y-73358996D01*
X112039255Y-73395809D01*
X112128350Y-73441206D01*
X112128366Y-73441213D01*
X112300578Y-73497167D01*
X112300581Y-73497167D01*
X112300591Y-73497171D01*
X112300596Y-73497171D01*
X112300601Y-73497173D01*
X112444963Y-73520037D01*
X112479454Y-73525500D01*
X112479459Y-73525500D01*
X112660541Y-73525500D01*
X112660546Y-73525500D01*
X112749977Y-73511335D01*
X112839398Y-73497173D01*
X112839400Y-73497172D01*
X112839409Y-73497171D01*
X113011639Y-73441211D01*
X113172994Y-73358996D01*
X113319501Y-73252553D01*
X113447553Y-73124501D01*
X113553996Y-72977994D01*
X113636211Y-72816639D01*
X113692171Y-72644409D01*
X113720500Y-72465546D01*
X113720500Y-72284454D01*
X113692171Y-72105591D01*
X113636211Y-71933361D01*
X113636209Y-71933358D01*
X113636206Y-71933350D01*
X113553995Y-71772005D01*
X113553991Y-71771999D01*
X113447558Y-71625506D01*
X113447553Y-71625499D01*
X113447548Y-71625494D01*
X113447543Y-71625488D01*
X113319511Y-71497456D01*
X113319505Y-71497451D01*
X113319501Y-71497447D01*
X113172994Y-71391004D01*
X113011649Y-71308793D01*
X113011633Y-71308786D01*
X112839421Y-71252832D01*
X112839398Y-71252826D01*
X112660557Y-71224501D01*
X112660549Y-71224500D01*
X112660546Y-71224500D01*
X112479454Y-71224500D01*
X112479451Y-71224500D01*
X112479442Y-71224501D01*
X112300601Y-71252826D01*
X112300578Y-71252832D01*
X112128366Y-71308786D01*
X112128350Y-71308793D01*
X111967005Y-71391004D01*
X111966999Y-71391008D01*
X111820506Y-71497441D01*
X111820488Y-71497456D01*
X111692456Y-71625488D01*
X111692441Y-71625506D01*
X111586008Y-71771999D01*
X111586004Y-71772005D01*
X111503793Y-71933350D01*
X111503786Y-71933366D01*
X111447832Y-72105578D01*
X111447826Y-72105601D01*
X111419501Y-72284442D01*
X111419500Y-72284458D01*
X110705500Y-72284458D01*
X110705500Y-69744458D01*
X111419500Y-69744458D01*
X111419500Y-69925541D01*
X111419501Y-69925557D01*
X111447826Y-70104398D01*
X111447832Y-70104421D01*
X111503786Y-70276633D01*
X111503793Y-70276649D01*
X111586004Y-70437994D01*
X111692447Y-70584501D01*
X111692451Y-70584505D01*
X111692456Y-70584511D01*
X111820488Y-70712543D01*
X111820494Y-70712548D01*
X111820499Y-70712553D01*
X111967006Y-70818996D01*
X112039255Y-70855809D01*
X112128350Y-70901206D01*
X112128366Y-70901213D01*
X112300578Y-70957167D01*
X112300581Y-70957167D01*
X112300591Y-70957171D01*
X112300596Y-70957171D01*
X112300601Y-70957173D01*
X112444963Y-70980037D01*
X112479454Y-70985500D01*
X112479459Y-70985500D01*
X112660541Y-70985500D01*
X112660546Y-70985500D01*
X112749977Y-70971335D01*
X112839398Y-70957173D01*
X112839400Y-70957172D01*
X112839409Y-70957171D01*
X113011639Y-70901211D01*
X113172994Y-70818996D01*
X113319501Y-70712553D01*
X113447553Y-70584501D01*
X113553996Y-70437994D01*
X113636211Y-70276639D01*
X113692171Y-70104409D01*
X113720500Y-69925546D01*
X113720500Y-69744454D01*
X113692171Y-69565591D01*
X113636211Y-69393361D01*
X113636209Y-69393358D01*
X113636206Y-69393350D01*
X113553995Y-69232005D01*
X113553991Y-69231999D01*
X113447558Y-69085506D01*
X113447553Y-69085499D01*
X113447548Y-69085494D01*
X113447543Y-69085488D01*
X113319511Y-68957456D01*
X113319505Y-68957451D01*
X113319501Y-68957447D01*
X113172994Y-68851004D01*
X113011649Y-68768793D01*
X113011633Y-68768786D01*
X112839421Y-68712832D01*
X112839398Y-68712826D01*
X112660557Y-68684501D01*
X112660549Y-68684500D01*
X112660546Y-68684500D01*
X112479454Y-68684500D01*
X112479451Y-68684500D01*
X112479442Y-68684501D01*
X112300601Y-68712826D01*
X112300578Y-68712832D01*
X112128366Y-68768786D01*
X112128350Y-68768793D01*
X111967005Y-68851004D01*
X111966999Y-68851008D01*
X111820506Y-68957441D01*
X111820488Y-68957456D01*
X111692456Y-69085488D01*
X111692441Y-69085506D01*
X111586008Y-69231999D01*
X111586004Y-69232005D01*
X111503793Y-69393350D01*
X111503786Y-69393366D01*
X111447832Y-69565578D01*
X111447826Y-69565601D01*
X111419501Y-69744442D01*
X111419500Y-69744458D01*
X110705500Y-69744458D01*
X110705500Y-67204458D01*
X111419500Y-67204458D01*
X111419500Y-67385541D01*
X111419501Y-67385557D01*
X111447826Y-67564398D01*
X111447832Y-67564421D01*
X111503786Y-67736633D01*
X111503793Y-67736649D01*
X111586004Y-67897994D01*
X111586008Y-67898000D01*
X111692441Y-68044493D01*
X111692447Y-68044501D01*
X111692451Y-68044505D01*
X111692456Y-68044511D01*
X111820488Y-68172543D01*
X111820494Y-68172548D01*
X111820499Y-68172553D01*
X111967006Y-68278996D01*
X112039255Y-68315809D01*
X112128350Y-68361206D01*
X112128366Y-68361213D01*
X112300578Y-68417167D01*
X112300581Y-68417167D01*
X112300591Y-68417171D01*
X112300596Y-68417171D01*
X112300601Y-68417173D01*
X112444963Y-68440037D01*
X112479454Y-68445500D01*
X112479459Y-68445500D01*
X112660541Y-68445500D01*
X112660546Y-68445500D01*
X112749977Y-68431335D01*
X112839398Y-68417173D01*
X112839400Y-68417172D01*
X112839409Y-68417171D01*
X113011639Y-68361211D01*
X113172994Y-68278996D01*
X113319501Y-68172553D01*
X113447553Y-68044501D01*
X113553996Y-67897994D01*
X113636211Y-67736639D01*
X113692171Y-67564409D01*
X113720500Y-67385546D01*
X113720500Y-67204454D01*
X113715037Y-67169963D01*
X113692173Y-67025601D01*
X113692171Y-67025596D01*
X113692171Y-67025591D01*
X113636211Y-66853361D01*
X113636209Y-66853358D01*
X113636206Y-66853350D01*
X113553995Y-66692005D01*
X113553991Y-66691999D01*
X113519785Y-66644918D01*
X113519784Y-66644917D01*
X113488303Y-66601587D01*
X120684500Y-66601587D01*
X120684500Y-66798412D01*
X120684501Y-66798428D01*
X120715288Y-66992815D01*
X120715293Y-66992834D01*
X120776115Y-67180022D01*
X120776122Y-67180040D01*
X120865473Y-67355400D01*
X120865480Y-67355411D01*
X120913006Y-67420824D01*
X120981172Y-67514646D01*
X120981176Y-67514650D01*
X120981181Y-67514656D01*
X121120343Y-67653818D01*
X121120349Y-67653823D01*
X121120354Y-67653828D01*
X121279595Y-67769524D01*
X121279599Y-67769526D01*
X121454959Y-67858877D01*
X121454968Y-67858880D01*
X121454975Y-67858884D01*
X121642174Y-67919709D01*
X121642180Y-67919709D01*
X121642184Y-67919711D01*
X121799091Y-67944561D01*
X121836583Y-67950500D01*
X121836588Y-67950500D01*
X122033412Y-67950500D01*
X122033417Y-67950500D01*
X122130621Y-67935104D01*
X122227815Y-67919711D01*
X122227817Y-67919710D01*
X122227826Y-67919709D01*
X122415025Y-67858884D01*
X122415034Y-67858879D01*
X122415040Y-67858877D01*
X122553476Y-67788340D01*
X122590405Y-67769524D01*
X122749646Y-67653828D01*
X122888828Y-67514646D01*
X123004524Y-67355405D01*
X123075112Y-67216866D01*
X123114632Y-67180014D01*
X123168597Y-67177186D01*
X123211755Y-67209707D01*
X123224500Y-67252734D01*
X123224500Y-67581515D01*
X123239354Y-67675302D01*
X123239353Y-67675302D01*
X123296951Y-67788344D01*
X123386656Y-67878049D01*
X123386659Y-67878051D01*
X123499693Y-67935645D01*
X123499695Y-67935645D01*
X123499696Y-67935646D01*
X123593481Y-67950500D01*
X125356518Y-67950499D01*
X125450304Y-67935646D01*
X125563342Y-67878050D01*
X125653050Y-67788342D01*
X125710646Y-67675304D01*
X125725500Y-67581519D01*
X125725499Y-65818482D01*
X125710646Y-65724696D01*
X125653050Y-65611658D01*
X125653049Y-65611657D01*
X125653048Y-65611655D01*
X125563343Y-65521950D01*
X125563340Y-65521948D01*
X125450306Y-65464354D01*
X125450302Y-65464353D01*
X125356530Y-65449501D01*
X125356522Y-65449500D01*
X125356519Y-65449500D01*
X125356514Y-65449500D01*
X123593484Y-65449500D01*
X123517345Y-65461558D01*
X123499696Y-65464354D01*
X123444213Y-65492623D01*
X123386655Y-65521951D01*
X123296950Y-65611656D01*
X123296948Y-65611659D01*
X123239354Y-65724693D01*
X123239353Y-65724697D01*
X123224501Y-65818469D01*
X123224500Y-65818485D01*
X123224500Y-66147264D01*
X123206018Y-66198044D01*
X123159218Y-66225064D01*
X123106000Y-66215680D01*
X123075110Y-66183129D01*
X123004524Y-66044595D01*
X122888828Y-65885354D01*
X122888823Y-65885349D01*
X122888818Y-65885343D01*
X122749656Y-65746181D01*
X122749650Y-65746176D01*
X122749646Y-65746172D01*
X122745754Y-65743344D01*
X122590411Y-65630480D01*
X122590400Y-65630473D01*
X122415040Y-65541122D01*
X122415022Y-65541115D01*
X122227834Y-65480293D01*
X122227815Y-65480288D01*
X122033428Y-65449501D01*
X122033420Y-65449500D01*
X122033417Y-65449500D01*
X121836583Y-65449500D01*
X121836580Y-65449500D01*
X121836571Y-65449501D01*
X121642184Y-65480288D01*
X121642165Y-65480293D01*
X121454977Y-65541115D01*
X121454959Y-65541122D01*
X121279599Y-65630473D01*
X121279588Y-65630480D01*
X121120361Y-65746166D01*
X121120343Y-65746181D01*
X120981181Y-65885343D01*
X120981166Y-65885361D01*
X120865480Y-66044588D01*
X120865473Y-66044599D01*
X120776122Y-66219959D01*
X120776115Y-66219977D01*
X120715293Y-66407165D01*
X120715288Y-66407184D01*
X120684501Y-66601571D01*
X120684500Y-66601587D01*
X113488303Y-66601587D01*
X113447553Y-66545499D01*
X113447547Y-66545493D01*
X113447543Y-66545488D01*
X113319511Y-66417456D01*
X113319505Y-66417451D01*
X113319501Y-66417447D01*
X113305375Y-66407184D01*
X113173000Y-66311008D01*
X113172994Y-66311004D01*
X113011649Y-66228793D01*
X113011633Y-66228786D01*
X112839421Y-66172832D01*
X112839398Y-66172826D01*
X112660557Y-66144501D01*
X112660549Y-66144500D01*
X112660546Y-66144500D01*
X112479454Y-66144500D01*
X112479451Y-66144500D01*
X112479442Y-66144501D01*
X112300601Y-66172826D01*
X112300578Y-66172832D01*
X112128366Y-66228786D01*
X112128350Y-66228793D01*
X111967005Y-66311004D01*
X111966999Y-66311008D01*
X111820506Y-66417441D01*
X111820488Y-66417456D01*
X111692456Y-66545488D01*
X111692441Y-66545506D01*
X111586008Y-66691999D01*
X111586004Y-66692005D01*
X111503793Y-66853350D01*
X111503786Y-66853366D01*
X111447832Y-67025578D01*
X111447826Y-67025601D01*
X111419501Y-67204442D01*
X111419500Y-67204458D01*
X110705500Y-67204458D01*
X110705500Y-63973485D01*
X111419500Y-63973485D01*
X111419500Y-65536515D01*
X111434354Y-65630302D01*
X111434353Y-65630302D01*
X111491951Y-65743344D01*
X111581656Y-65833049D01*
X111581659Y-65833051D01*
X111694693Y-65890645D01*
X111694695Y-65890645D01*
X111694696Y-65890646D01*
X111788481Y-65905500D01*
X113351518Y-65905499D01*
X113445304Y-65890646D01*
X113558342Y-65833050D01*
X113648050Y-65743342D01*
X113705646Y-65630304D01*
X113720500Y-65536519D01*
X113720499Y-64664458D01*
X134279500Y-64664458D01*
X134279500Y-64845541D01*
X134279501Y-64845557D01*
X134307826Y-65024398D01*
X134307832Y-65024421D01*
X134363786Y-65196633D01*
X134363793Y-65196649D01*
X134446004Y-65357994D01*
X134446008Y-65358000D01*
X134534855Y-65480288D01*
X134552447Y-65504501D01*
X134552451Y-65504505D01*
X134552456Y-65504511D01*
X134680488Y-65632543D01*
X134680494Y-65632548D01*
X134680499Y-65632553D01*
X134680506Y-65632558D01*
X134807319Y-65724693D01*
X134827006Y-65738996D01*
X134899255Y-65775809D01*
X134988350Y-65821206D01*
X134988366Y-65821213D01*
X135160578Y-65877167D01*
X135160581Y-65877167D01*
X135160591Y-65877171D01*
X135160596Y-65877171D01*
X135160601Y-65877173D01*
X135304963Y-65900037D01*
X135339454Y-65905500D01*
X135339459Y-65905500D01*
X135520541Y-65905500D01*
X135520546Y-65905500D01*
X135614337Y-65890645D01*
X135699398Y-65877173D01*
X135699400Y-65877172D01*
X135699409Y-65877171D01*
X135871639Y-65821211D01*
X135877021Y-65818469D01*
X135885685Y-65814053D01*
X136032994Y-65738996D01*
X136179501Y-65632553D01*
X136307553Y-65504501D01*
X136413996Y-65357994D01*
X136496211Y-65196639D01*
X136552171Y-65024409D01*
X136580500Y-64845546D01*
X136580500Y-64664454D01*
X136552171Y-64485591D01*
X136496211Y-64313361D01*
X136496209Y-64313358D01*
X136496206Y-64313350D01*
X136413995Y-64152005D01*
X136413991Y-64151999D01*
X136307558Y-64005506D01*
X136307553Y-64005499D01*
X136307548Y-64005494D01*
X136307543Y-64005488D01*
X136179511Y-63877456D01*
X136179505Y-63877451D01*
X136179501Y-63877447D01*
X136032994Y-63771004D01*
X136024459Y-63766655D01*
X135871649Y-63688793D01*
X135871633Y-63688786D01*
X135699421Y-63632832D01*
X135699398Y-63632826D01*
X135520557Y-63604501D01*
X135520549Y-63604500D01*
X135520546Y-63604500D01*
X135339454Y-63604500D01*
X135339451Y-63604500D01*
X135339442Y-63604501D01*
X135160601Y-63632826D01*
X135160578Y-63632832D01*
X134988366Y-63688786D01*
X134988350Y-63688793D01*
X134827005Y-63771004D01*
X134826999Y-63771008D01*
X134680506Y-63877441D01*
X134680488Y-63877456D01*
X134552456Y-64005488D01*
X134552441Y-64005506D01*
X134446008Y-64151999D01*
X134446004Y-64152005D01*
X134363793Y-64313350D01*
X134363786Y-64313366D01*
X134307832Y-64485578D01*
X134307826Y-64485601D01*
X134279501Y-64664442D01*
X134279500Y-64664458D01*
X113720499Y-64664458D01*
X113720499Y-63973482D01*
X113705646Y-63879696D01*
X113648050Y-63766658D01*
X113648049Y-63766657D01*
X113648048Y-63766655D01*
X113558343Y-63676950D01*
X113558340Y-63676948D01*
X113445306Y-63619354D01*
X113445302Y-63619353D01*
X113351530Y-63604501D01*
X113351522Y-63604500D01*
X113351519Y-63604500D01*
X113351514Y-63604500D01*
X111788484Y-63604500D01*
X111712345Y-63616558D01*
X111694696Y-63619354D01*
X111639213Y-63647623D01*
X111581655Y-63676951D01*
X111491950Y-63766656D01*
X111491948Y-63766659D01*
X111434354Y-63879693D01*
X111434353Y-63879697D01*
X111419501Y-63973469D01*
X111419500Y-63973485D01*
X110705500Y-63973485D01*
X110705500Y-62914218D01*
X110723982Y-62863438D01*
X110770782Y-62836418D01*
X110784500Y-62835218D01*
X137245651Y-62835218D01*
X137296431Y-62853700D01*
G37*
%TD.AperFunction*%
%TD*%
M02*
