%TF.GenerationSoftware,KiCad,Pcbnew,9.0.0*%
%TF.CreationDate,2026-03-10T17:38:38+01:00*%
%TF.ProjectId,ESP32_Shield,45535033-325f-4536-9869-656c642e6b69,rev?*%
%TF.SameCoordinates,Original*%
%TF.FileFunction,Copper,L1,Top*%
%TF.FilePolarity,Positive*%
%FSLAX46Y46*%
G04 Gerber Fmt 4.6, Leading zero omitted, Abs format (unit mm)*
G04 Created by KiCad (PCBNEW 9.0.0) date 2026-03-10 17:38:38*
%MOMM*%
%LPD*%
G01*
G04 APERTURE LIST*
G04 Aperture macros list*
%AMRoundRect*
0 Rectangle with rounded corners*
0 $1 Rounding radius*
0 $2 $3 $4 $5 $6 $7 $8 $9 X,Y pos of 4 corners*
0 Add a 4 corners polygon primitive as box body*
4,1,4,$2,$3,$4,$5,$6,$7,$8,$9,$2,$3,0*
0 Add four circle primitives for the rounded corners*
1,1,$1+$1,$2,$3*
1,1,$1+$1,$4,$5*
1,1,$1+$1,$6,$7*
1,1,$1+$1,$8,$9*
0 Add four rect primitives between the rounded corners*
20,1,$1+$1,$2,$3,$4,$5,0*
20,1,$1+$1,$4,$5,$6,$7,0*
20,1,$1+$1,$6,$7,$8,$9,0*
20,1,$1+$1,$8,$9,$2,$3,0*%
%AMFreePoly0*
4,1,6,0.500000,-0.850000,-0.500000,-0.850000,-0.500000,0.550000,-0.200000,0.850000,0.500000,0.850000,0.500000,-0.850000,0.500000,-0.850000,$1*%
G04 Aperture macros list end*
%TA.AperFunction,ComponentPad*%
%ADD10C,1.600000*%
%TD*%
%TA.AperFunction,ComponentPad*%
%ADD11R,1.700000X1.700000*%
%TD*%
%TA.AperFunction,ComponentPad*%
%ADD12O,1.700000X1.700000*%
%TD*%
%TA.AperFunction,SMDPad,CuDef*%
%ADD13RoundRect,0.050000X-0.250000X-0.075000X0.250000X-0.075000X0.250000X0.075000X-0.250000X0.075000X0*%
%TD*%
%TA.AperFunction,SMDPad,CuDef*%
%ADD14RoundRect,0.050000X-0.400000X-0.075000X0.400000X-0.075000X0.400000X0.075000X-0.400000X0.075000X0*%
%TD*%
%TA.AperFunction,SMDPad,CuDef*%
%ADD15RoundRect,0.050000X-0.600000X-0.075000X0.600000X-0.075000X0.600000X0.075000X-0.600000X0.075000X0*%
%TD*%
%TA.AperFunction,SMDPad,CuDef*%
%ADD16RoundRect,0.237500X0.250000X0.237500X-0.250000X0.237500X-0.250000X-0.237500X0.250000X-0.237500X0*%
%TD*%
%TA.AperFunction,SMDPad,CuDef*%
%ADD17R,3.400000X0.980000*%
%TD*%
%TA.AperFunction,SMDPad,CuDef*%
%ADD18RoundRect,0.237500X0.300000X0.237500X-0.300000X0.237500X-0.300000X-0.237500X0.300000X-0.237500X0*%
%TD*%
%TA.AperFunction,SMDPad,CuDef*%
%ADD19RoundRect,0.237500X-0.237500X0.300000X-0.237500X-0.300000X0.237500X-0.300000X0.237500X0.300000X0*%
%TD*%
%TA.AperFunction,SMDPad,CuDef*%
%ADD20R,1.000000X1.600000*%
%TD*%
%TA.AperFunction,SMDPad,CuDef*%
%ADD21RoundRect,0.237500X-0.300000X-0.237500X0.300000X-0.237500X0.300000X0.237500X-0.300000X0.237500X0*%
%TD*%
%TA.AperFunction,SMDPad,CuDef*%
%ADD22RoundRect,0.100000X-0.100000X0.637500X-0.100000X-0.637500X0.100000X-0.637500X0.100000X0.637500X0*%
%TD*%
%TA.AperFunction,HeatsinkPad*%
%ADD23R,4.750000X2.740000*%
%TD*%
%TA.AperFunction,SMDPad,CuDef*%
%ADD24RoundRect,0.237500X-0.237500X0.250000X-0.237500X-0.250000X0.237500X-0.250000X0.237500X0.250000X0*%
%TD*%
%TA.AperFunction,ComponentPad*%
%ADD25C,1.700000*%
%TD*%
%TA.AperFunction,SMDPad,CuDef*%
%ADD26RoundRect,0.150000X0.150000X-0.587500X0.150000X0.587500X-0.150000X0.587500X-0.150000X-0.587500X0*%
%TD*%
%TA.AperFunction,SMDPad,CuDef*%
%ADD27RoundRect,0.150000X-0.150000X0.587500X-0.150000X-0.587500X0.150000X-0.587500X0.150000X0.587500X0*%
%TD*%
%TA.AperFunction,ComponentPad*%
%ADD28R,1.500000X1.500000*%
%TD*%
%TA.AperFunction,ComponentPad*%
%ADD29C,1.500000*%
%TD*%
%TA.AperFunction,SMDPad,CuDef*%
%ADD30RoundRect,0.237500X-0.250000X-0.237500X0.250000X-0.237500X0.250000X0.237500X-0.250000X0.237500X0*%
%TD*%
%TA.AperFunction,SMDPad,CuDef*%
%ADD31R,0.550000X0.250000*%
%TD*%
%TA.AperFunction,SMDPad,CuDef*%
%ADD32FreePoly0,180.000000*%
%TD*%
%TA.AperFunction,ViaPad*%
%ADD33C,0.600000*%
%TD*%
%TA.AperFunction,Conductor*%
%ADD34C,0.400000*%
%TD*%
%TA.AperFunction,Conductor*%
%ADD35C,0.800000*%
%TD*%
%TA.AperFunction,Conductor*%
%ADD36C,0.200000*%
%TD*%
G04 APERTURE END LIST*
D10*
%TO.P,J1,6,Pin_6*%
%TO.N,Net-(J1-Pin_6)*%
X125270000Y-104500000D03*
%TO.P,J1,10,Pin_10*%
%TO.N,Net-(J1-Pin_10)*%
X135430000Y-104500000D03*
%TO.P,J1,9,Pin_9*%
%TO.N,Net-(J1-Pin_9)*%
X132890000Y-104500000D03*
%TO.P,J1,8,Pin_8*%
%TO.N,Net-(J1-Pin_8)*%
X130350000Y-104500000D03*
%TO.P,J1,7,Pin_7*%
%TO.N,Net-(J1-Pin_7)*%
X127810000Y-104500000D03*
%TO.P,J1,2,Pin_2*%
%TO.N,Net-(J1-Pin_2)*%
X115110000Y-104500000D03*
%TO.P,J1,5,Pin_5*%
%TO.N,Net-(J1-Pin_5)*%
X122730000Y-104500000D03*
%TO.P,J1,4,Pin_4*%
%TO.N,Net-(J1-Pin_4)*%
X120190000Y-104500000D03*
%TO.P,J1,3,Pin_3*%
%TO.N,Net-(J1-Pin_3)*%
X117650000Y-104500000D03*
D11*
%TO.P,J1,1,Pin_1*%
%TO.N,GND*%
X112570000Y-104500000D03*
%TD*%
D12*
%TO.P,ESP5V1,2,Pin_2*%
%TO.N,Net-(ESP5V1-Pin_2)*%
X125500000Y-110000000D03*
D11*
%TO.P,ESP5V1,1,Pin_1*%
%TO.N,5V LDO*%
X122960000Y-110000000D03*
%TD*%
D13*
%TO.P,U4,1,EN*%
%TO.N,5V BUCK*%
X122350000Y-115300000D03*
%TO.P,U4,2,MODE*%
%TO.N,GND*%
X122350000Y-115800000D03*
%TO.P,U4,3,AGND*%
X122350000Y-116300000D03*
%TO.P,U4,4,FB*%
%TO.N,Net-(U4-FB)*%
X122350000Y-116800000D03*
D14*
%TO.P,U4,6,VOUT*%
%TO.N,+3.3V*%
X124000000Y-117300000D03*
%TO.P,U4,7,L2*%
%TO.N,Net-(U4-L2)*%
X124000000Y-116800000D03*
D15*
%TO.P,U4,8,GND*%
%TO.N,GND*%
X123800000Y-116300000D03*
D13*
%TO.P,U4,5,PG*%
%TO.N,unconnected-(U4-PG-Pad5)*%
X122350000Y-117300000D03*
D14*
%TO.P,U4,9,L1*%
%TO.N,Net-(U4-L1)*%
X124000000Y-115800000D03*
%TO.P,U4,10,VIN*%
%TO.N,5V BUCK*%
X124000000Y-115300000D03*
%TD*%
D16*
%TO.P,R9,1*%
%TO.N,Net-(U4-FB)*%
X120412500Y-117400000D03*
%TO.P,R9,2*%
%TO.N,GND*%
X118587500Y-117400000D03*
%TD*%
%TO.P,R8,1*%
%TO.N,+3.3V*%
X123412500Y-120100000D03*
%TO.P,R8,2*%
%TO.N,Net-(U4-FB)*%
X121587500Y-120100000D03*
%TD*%
D17*
%TO.P,L1,1,1*%
%TO.N,Net-(U4-L1)*%
X128300000Y-114715000D03*
%TO.P,L1,2,2*%
%TO.N,Net-(U4-L2)*%
X128300000Y-117085000D03*
%TD*%
D11*
%TO.P,ESP3.3V1,1,Pin_1*%
%TO.N,+3.3V*%
X135325000Y-121550000D03*
D12*
%TO.P,ESP3.3V1,2,Pin_2*%
%TO.N,Net-(ESP3.3V1-Pin_2)*%
X132785000Y-121550000D03*
%TD*%
D18*
%TO.P,C7,1*%
%TO.N,GND*%
X127862500Y-120100000D03*
%TO.P,C7,2*%
%TO.N,+3.3V*%
X126137500Y-120100000D03*
%TD*%
D19*
%TO.P,C6,1*%
%TO.N,5V BUCK*%
X119800000Y-113437500D03*
%TO.P,C6,2*%
%TO.N,GND*%
X119800000Y-115162500D03*
%TD*%
D20*
%TO.P,S1,1*%
%TO.N,5V LDO*%
X113000000Y-121400000D03*
%TO.P,S1,2*%
%TO.N,+5V*%
X115500000Y-121400000D03*
%TO.P,S1,3*%
%TO.N,5V BUCK*%
X118000000Y-121400000D03*
%TO.P,S1,4*%
%TO.N,unconnected-(S1-Pad4)*%
X113000000Y-123800000D03*
%TO.P,S1,5*%
%TO.N,unconnected-(S1-Pad5)*%
X115500000Y-123800000D03*
%TO.P,S1,6*%
%TO.N,unconnected-(S1-Pad6)*%
X118000000Y-123800000D03*
%TD*%
D21*
%TO.P,C1,1*%
%TO.N,GND*%
X128237500Y-90100000D03*
%TO.P,C1,2*%
%TO.N,Net-(ADC1-Pin_2)*%
X129962500Y-90100000D03*
%TD*%
D22*
%TO.P,U6,1,DVDD*%
%TO.N,Net-(ADC1-Pin_2)*%
X129605000Y-92300000D03*
%TO.P,U6,2,DGND*%
%TO.N,GND*%
X128955000Y-92300000D03*
%TO.P,U6,3,CLKIN/XTAL1*%
X128305000Y-92300000D03*
%TO.P,U6,4,XTAL2*%
%TO.N,unconnected-(U6-XTAL2-Pad4)*%
X127655000Y-92300000D03*
%TO.P,U6,5,DGND*%
%TO.N,GND*%
X127005000Y-92300000D03*
%TO.P,U6,6,DGND*%
X126355000Y-92300000D03*
%TO.P,U6,7,A1*%
X125705000Y-92300000D03*
%TO.P,U6,8,A0*%
X125055000Y-92300000D03*
%TO.P,U6,9,CAP*%
%TO.N,Net-(C12-Pad2)*%
X124405000Y-92300000D03*
%TO.P,U6,10,CAP*%
%TO.N,Net-(C12-Pad1)*%
X123755000Y-92300000D03*
%TO.P,U6,11,AINP1*%
%TO.N,Net-(J1-Pin_10)*%
X123105000Y-92300000D03*
%TO.P,U6,12,AINN1*%
%TO.N,Net-(J1-Pin_9)*%
X122455000Y-92300000D03*
%TO.P,U6,13,AINP3*%
%TO.N,Net-(J1-Pin_6)*%
X121805000Y-92300000D03*
%TO.P,U6,14,AINN3*%
%TO.N,Net-(J1-Pin_5)*%
X121155000Y-92300000D03*
%TO.P,U6,15,AINN4*%
%TO.N,Net-(J1-Pin_3)*%
X121155000Y-98025000D03*
%TO.P,U6,16,AINP4*%
%TO.N,Net-(J1-Pin_4)*%
X121805000Y-98025000D03*
%TO.P,U6,17,AINN2*%
%TO.N,Net-(J1-Pin_7)*%
X122455000Y-98025000D03*
%TO.P,U6,18,AINP2*%
%TO.N,Net-(J1-Pin_8)*%
X123105000Y-98025000D03*
%TO.P,U6,19,REFN*%
%TO.N,GND*%
X123755000Y-98025000D03*
%TO.P,U6,20,REFP*%
%TO.N,Net-(ADC1-Pin_2)*%
X124405000Y-98025000D03*
%TO.P,U6,21,AGND*%
%TO.N,GND*%
X125055000Y-98025000D03*
%TO.P,U6,22,AVDD*%
%TO.N,Net-(ADC1-Pin_2)*%
X125705000Y-98025000D03*
%TO.P,U6,23,GAIN0*%
X126355000Y-98025000D03*
%TO.P,U6,24,GAIN1*%
X127005000Y-98025000D03*
%TO.P,U6,25,SPEED*%
%TO.N,GND*%
X127655000Y-98025000D03*
%TO.P,U6,26,~{PWDN}*%
%TO.N,!PWDN*%
X128305000Y-98025000D03*
%TO.P,U6,27,SCLK*%
%TO.N,SCLK*%
X128955000Y-98025000D03*
%TO.P,U6,28,~{DRDY}/DOUT*%
%TO.N,D_RDY_OUT*%
X129605000Y-98025000D03*
D23*
%TO.P,U6,29*%
%TO.N,N/C*%
X125380000Y-95162500D03*
%TD*%
D24*
%TO.P,R14,1*%
%TO.N,Net-(Q3-D)*%
X117300000Y-82687500D03*
%TO.P,R14,2*%
%TO.N,bat_adc*%
X117300000Y-84512500D03*
%TD*%
D19*
%TO.P,C14,1*%
%TO.N,GND*%
X123500000Y-82637500D03*
%TO.P,C14,2*%
%TO.N,bat_adc*%
X123500000Y-84362500D03*
%TD*%
D16*
%TO.P,R22,1*%
%TO.N,!EN_DMS*%
X116925000Y-91500000D03*
%TO.P,R22,2*%
%TO.N,Net-(DMS1-Pin_2)*%
X115100000Y-91500000D03*
%TD*%
D11*
%TO.P,6V_IN1,1,Pin_1*%
%TO.N,Net-(6V_IN1-Pin_1)*%
X112710000Y-116000000D03*
D25*
%TO.P,6V_IN1,2,Pin_2*%
%TO.N,GND*%
X115250000Y-116000000D03*
%TD*%
D11*
%TO.P,ADC1,1,Pin_1*%
%TO.N,+3.3V*%
X128800000Y-86700000D03*
D12*
%TO.P,ADC1,2,Pin_2*%
%TO.N,Net-(ADC1-Pin_2)*%
X126260000Y-86700000D03*
%TD*%
D26*
%TO.P,Q1,1,G*%
%TO.N,en_meas*%
X117300000Y-79687500D03*
%TO.P,Q1,2,S*%
%TO.N,GND*%
X119200000Y-79687500D03*
%TO.P,Q1,3,D*%
%TO.N,Net-(Q1-D)*%
X118250000Y-77812500D03*
%TD*%
D11*
%TO.P,THRM1,1,Pin_1*%
%TO.N,+3.3V*%
X124475000Y-66700000D03*
D12*
%TO.P,THRM1,2,Pin_2*%
%TO.N,Net-(THRM1-Pin_2)*%
X121935000Y-66700000D03*
%TD*%
D16*
%TO.P,R13,1*%
%TO.N,SCL*%
X128912500Y-71000000D03*
%TO.P,R13,2*%
%TO.N,+3.3V*%
X127087500Y-71000000D03*
%TD*%
%TO.P,R18,1*%
%TO.N,SDA*%
X128912500Y-73900000D03*
%TO.P,R18,2*%
%TO.N,+3.3V*%
X127087500Y-73900000D03*
%TD*%
D11*
%TO.P,PWR1,1,Pin_1*%
%TO.N,Net-(6V_IN1-Pin_1)*%
X112700000Y-110000000D03*
D25*
%TO.P,PWR1,2,Pin_2*%
%TO.N,+5V*%
X115240000Y-110000000D03*
%TD*%
D27*
%TO.P,Q4,1,G*%
%TO.N,!EN_DMS*%
X117850000Y-94662500D03*
%TO.P,Q4,2,S*%
%TO.N,Net-(DMS1-Pin_2)*%
X115950000Y-94662500D03*
%TO.P,Q4,3,D*%
%TO.N,Net-(J1-Pin_2)*%
X116900000Y-96537500D03*
%TD*%
D21*
%TO.P,C12,1*%
%TO.N,Net-(C12-Pad1)*%
X122937500Y-89400000D03*
%TO.P,C12,2*%
%TO.N,Net-(C12-Pad2)*%
X124662500Y-89400000D03*
%TD*%
D11*
%TO.P,BAT1,1,Pin_1*%
%TO.N,+BATT*%
X132250000Y-110000000D03*
D25*
%TO.P,BAT1,2,Pin_2*%
%TO.N,GND*%
X134790000Y-110000000D03*
%TD*%
D28*
%TO.P,U2,1,EN*%
%TO.N,unconnected-(U2-EN-Pad1)*%
X112570000Y-64755000D03*
D29*
%TO.P,U2,2,IO36*%
%TO.N,unconnected-(U2-IO36-Pad2)*%
X112570000Y-67295000D03*
%TO.P,U2,3,IO39*%
%TO.N,unconnected-(U2-IO39-Pad3)*%
X112570000Y-69835000D03*
%TO.P,U2,4,IO39*%
%TO.N,unconnected-(U2-IO39-Pad4)*%
X112570000Y-72375000D03*
%TO.P,U2,5,IO34*%
%TO.N,unconnected-(U2-IO34-Pad5)*%
X112570000Y-74915000D03*
%TO.P,U2,6,IO35*%
%TO.N,unconnected-(U2-IO35-Pad6)*%
X112570000Y-77455000D03*
%TO.P,U2,7,IO32*%
%TO.N,unconnected-(U2-IO32-Pad7)*%
X112570000Y-79995000D03*
%TO.P,U2,8,IO33*%
%TO.N,MODE_PD*%
X112570000Y-82535000D03*
%TO.P,U2,9,IO26*%
%TO.N,!PWDN*%
X112570000Y-85075000D03*
%TO.P,U2,10,IO27*%
%TO.N,CS_Display*%
X112570000Y-87615000D03*
%TO.P,U2,11,IO14*%
%TO.N,SPI_CLK*%
X112570000Y-90155000D03*
%TO.P,U2,12,IO12*%
%TO.N,bat_adc*%
X112570000Y-92695000D03*
%TO.P,U2,13,IO13*%
%TO.N,TARA_PD*%
X112570000Y-95235000D03*
%TO.P,U2,14,GND*%
%TO.N,GND*%
X112570000Y-97775000D03*
%TO.P,U2,15,5V*%
%TO.N,Net-(ESP5V1-Pin_2)*%
X112570000Y-100315000D03*
%TO.P,U2,16,3V3*%
%TO.N,Net-(ESP3.3V1-Pin_2)*%
X135430000Y-100315000D03*
%TO.P,U2,17,GND*%
%TO.N,GND*%
X135430000Y-97775000D03*
%TO.P,U2,18,IO15*%
%TO.N,SCLK*%
X135430000Y-95235000D03*
%TO.P,U2,19,IO2*%
%TO.N,D_RDY_OUT*%
X135430000Y-92695000D03*
%TO.P,U2,20,IO4*%
%TO.N,unconnected-(U2-IO4-Pad20)*%
X135430000Y-90155000D03*
%TO.P,U2,21,IO16*%
%TO.N,unconnected-(U2-IO16-Pad21)*%
X135430000Y-87615000D03*
%TO.P,U2,22,IO17*%
%TO.N,!EN_DMS*%
X135430000Y-85075000D03*
%TO.P,U2,23,IO5*%
%TO.N,en_meas*%
X135430000Y-82535000D03*
%TO.P,U2,24,IO18*%
%TO.N,unconnected-(U2-IO18-Pad24)*%
X135430000Y-79995000D03*
%TO.P,U2,25,IO19*%
%TO.N,MISO*%
X135430000Y-77455000D03*
%TO.P,U2,26,IO21*%
%TO.N,SDA*%
X135430000Y-74915000D03*
%TO.P,U2,27,IO3*%
%TO.N,unconnected-(U2-IO3-Pad27)*%
X135430000Y-72375000D03*
%TO.P,U2,28,IO1*%
%TO.N,unconnected-(U2-IO1-Pad28)*%
X135430000Y-69835000D03*
%TO.P,U2,29,IO23*%
%TO.N,SCL*%
X135430000Y-67295000D03*
%TO.P,U2,30,IO23*%
%TO.N,MOSI*%
X135430000Y-64755000D03*
%TD*%
D30*
%TO.P,R21,1*%
%TO.N,Net-(Q1-D)*%
X117337500Y-75500000D03*
%TO.P,R21,2*%
%TO.N,+BATT*%
X119162500Y-75500000D03*
%TD*%
D26*
%TO.P,Q3,1,G*%
%TO.N,Net-(Q1-D)*%
X117300000Y-72187500D03*
%TO.P,Q3,2,S*%
%TO.N,+BATT*%
X119200000Y-72187500D03*
%TO.P,Q3,3,D*%
%TO.N,Net-(Q3-D)*%
X118250000Y-70312500D03*
%TD*%
D31*
%TO.P,U7,1,SDA*%
%TO.N,SDA*%
X124250000Y-73250000D03*
%TO.P,U7,2,ADDR*%
%TO.N,GND*%
X124250000Y-72750000D03*
%TO.P,U7,3,ALERT*%
%TO.N,unconnected-(U7-ALERT-Pad3)*%
X124250000Y-72250000D03*
%TO.P,U7,4,SCL*%
%TO.N,SCL*%
X124250000Y-71750000D03*
%TO.P,U7,5,VDD*%
%TO.N,Net-(THRM1-Pin_2)*%
X121900000Y-71750000D03*
%TO.P,U7,6,~{RESET}*%
%TO.N,unconnected-(U7-~{RESET}-Pad6)*%
X121900000Y-72250000D03*
%TO.P,U7,7,R*%
%TO.N,GND*%
X121900000Y-72750000D03*
%TO.P,U7,8,VSS*%
X121900000Y-73250000D03*
D32*
%TO.P,U7,9,VSS*%
X123075000Y-72500000D03*
%TD*%
D21*
%TO.P,C15,1*%
%TO.N,Net-(THRM1-Pin_2)*%
X127137500Y-77000000D03*
%TO.P,C15,2*%
%TO.N,GND*%
X128862500Y-77000000D03*
%TD*%
D24*
%TO.P,R15,1*%
%TO.N,GND*%
X120500000Y-82687500D03*
%TO.P,R15,2*%
%TO.N,bat_adc*%
X120500000Y-84512500D03*
%TD*%
D18*
%TO.P,C13,1*%
%TO.N,GND*%
X127249308Y-100056391D03*
%TO.P,C13,2*%
%TO.N,Net-(ADC1-Pin_2)*%
X125524308Y-100056391D03*
%TD*%
D11*
%TO.P,DMS1,1,Pin_1*%
%TO.N,+3.3V*%
X135275000Y-116000000D03*
D12*
%TO.P,DMS1,2,Pin_2*%
%TO.N,Net-(DMS1-Pin_2)*%
X132735000Y-116000000D03*
%TD*%
D33*
%TO.N,GND*%
X130750000Y-75550000D03*
%TO.N,Net-(ESP3.3V1-Pin_2)*%
X134150000Y-106350000D03*
X134764265Y-102985735D03*
%TO.N,GND*%
X114250000Y-122500000D03*
X131656924Y-100782544D03*
X133660837Y-98405353D03*
X133350000Y-107950000D03*
X131636550Y-112298907D03*
X135255000Y-112395000D03*
X128299469Y-115920130D03*
X111125000Y-118745000D03*
X111125000Y-123825000D03*
X111125000Y-121285000D03*
X120015000Y-118745000D03*
X129540000Y-83820000D03*
X125730000Y-83820000D03*
X125730000Y-81915000D03*
X129540000Y-81915000D03*
X111125000Y-107950000D03*
X125095000Y-118745000D03*
X129540000Y-118745000D03*
X126365000Y-112395000D03*
X128270000Y-112395000D03*
X117475000Y-111760000D03*
X120015000Y-111760000D03*
X120015000Y-109855000D03*
X117475000Y-109855000D03*
X120996638Y-121892455D03*
X123825000Y-121920000D03*
X125730000Y-121920000D03*
X129540000Y-123825000D03*
X136525000Y-123825000D03*
X129500000Y-120000000D03*
X121250000Y-115000000D03*
X121376421Y-116297930D03*
%TO.N,5V LDO*%
X113000000Y-119250000D03*
%TO.N,+3.3V*%
X136250000Y-102000000D03*
X132250000Y-87250000D03*
X132250000Y-70200000D03*
X132250000Y-67800000D03*
X132250000Y-73100000D03*
%TO.N,GND*%
X114100000Y-93500000D03*
X136525000Y-86360000D03*
X118110000Y-87630000D03*
X125500000Y-70800000D03*
X120850000Y-72786657D03*
X131074357Y-86090564D03*
X125730000Y-75565000D03*
X114200000Y-87900000D03*
X118917966Y-102390703D03*
X118917966Y-100105075D03*
X113665000Y-78740000D03*
X128905000Y-65405000D03*
X111200000Y-96400000D03*
X136525000Y-93980000D03*
X111125000Y-73660000D03*
X119806238Y-97146283D03*
X113800000Y-106700000D03*
X113665000Y-76200000D03*
X136525000Y-88900000D03*
X126365000Y-63500000D03*
X113665000Y-71120000D03*
X125730000Y-79375000D03*
X128133220Y-91061039D03*
X112600000Y-102300000D03*
X130810000Y-106680000D03*
X113665000Y-66040000D03*
X113665000Y-68580000D03*
X121920000Y-78105000D03*
X129000000Y-100500000D03*
X111125000Y-78740000D03*
X121400000Y-87000000D03*
X115300000Y-86500000D03*
X123825000Y-63500000D03*
X113665000Y-81280000D03*
X116205000Y-68580000D03*
X111125000Y-76200000D03*
X135255000Y-106680000D03*
X133500000Y-73000000D03*
X134343287Y-96739846D03*
X111125000Y-68580000D03*
X131074357Y-88277354D03*
X118745000Y-66040000D03*
X125728163Y-90575086D03*
X121920000Y-79375000D03*
X136525000Y-96520000D03*
X111125000Y-113030000D03*
X121000000Y-102800000D03*
X133985000Y-66040000D03*
X123066452Y-70493236D03*
X121285000Y-63500000D03*
X133985000Y-91440000D03*
X115600000Y-76800000D03*
X128905000Y-67945000D03*
X130175000Y-109855000D03*
X120850000Y-73500000D03*
X133600000Y-78300000D03*
X133985000Y-88900000D03*
X118745000Y-63500000D03*
X136525000Y-91440000D03*
X114300000Y-113030000D03*
X111125000Y-66040000D03*
X136525000Y-66040000D03*
X116840000Y-113030000D03*
X129540000Y-93980000D03*
X128905000Y-63500000D03*
X111125000Y-81280000D03*
X133985000Y-83820000D03*
X126362373Y-90953964D03*
X136525000Y-73660000D03*
X116205000Y-66040000D03*
X136525000Y-83820000D03*
X115700000Y-73700000D03*
X119982843Y-94812675D03*
X128948633Y-91044566D03*
X136525000Y-76200000D03*
X128905000Y-108585000D03*
X121920000Y-74930000D03*
X129540000Y-95885000D03*
X136525000Y-71120000D03*
X131445000Y-63500000D03*
X136525000Y-78740000D03*
X127000000Y-90500000D03*
X126400000Y-89800000D03*
X115600000Y-79200000D03*
X136525000Y-99060000D03*
X113665000Y-73660000D03*
X124300000Y-99300000D03*
X119300000Y-70100000D03*
X121100000Y-70100000D03*
X136525000Y-81280000D03*
X133500000Y-74900000D03*
X116205000Y-63500000D03*
X125730000Y-78105000D03*
X131445000Y-65405000D03*
X130810000Y-67945000D03*
X111200000Y-99200000D03*
X125500000Y-72750000D03*
X133985000Y-86360000D03*
X136525000Y-68580000D03*
X114400000Y-83200000D03*
X128400000Y-99300000D03*
X111125000Y-71120000D03*
X118100000Y-90400000D03*
X125061007Y-91003383D03*
X119701223Y-99077262D03*
X131000000Y-72100000D03*
X118745000Y-68580000D03*
%TO.N,Net-(J1-Pin_9)*%
X122455548Y-90483527D03*
X124307528Y-101356057D03*
%TO.N,Net-(J1-Pin_10)*%
X123800000Y-100700000D03*
X123069485Y-91030515D03*
%TO.N,Net-(J1-Pin_6)*%
X121774888Y-90959677D03*
%TO.N,Net-(J1-Pin_5)*%
X121138807Y-90474491D03*
%TO.N,+BATT*%
X120600000Y-76500000D03*
X119200000Y-94091500D03*
%TO.N,!EN_DMS*%
X117601448Y-92583552D03*
X116752918Y-93432082D03*
%TO.N,Net-(ADC1-Pin_2)*%
X131200000Y-99500000D03*
X131100000Y-90800000D03*
%TO.N,GND*%
X129540000Y-78105000D03*
X129540000Y-79375000D03*
X125250000Y-116250000D03*
%TD*%
D34*
%TO.N,Net-(DMS1-Pin_2)*%
X115112500Y-94662500D02*
X115950000Y-94662500D01*
X115100000Y-94650000D02*
X115100000Y-95512500D01*
X115100000Y-94650000D02*
X115112500Y-94662500D01*
X115100000Y-91500000D02*
X115100000Y-94650000D01*
X115100000Y-95512500D02*
X115081250Y-95531250D01*
%TO.N,Net-(ESP3.3V1-Pin_2)*%
X133539000Y-108752364D02*
X134150000Y-108141364D01*
X134150000Y-108141364D02*
X134150000Y-106350000D01*
X133986000Y-111214000D02*
X133539000Y-110767000D01*
X133539000Y-110767000D02*
X133539000Y-108752364D01*
X132785000Y-121550000D02*
X133986000Y-120349000D01*
X133986000Y-120349000D02*
X133986000Y-111214000D01*
D35*
%TO.N,+3.3V*%
X130000000Y-121500000D02*
X127500000Y-121500000D01*
X126137500Y-120137500D02*
X126137500Y-120100000D01*
X131650000Y-123150000D02*
X130000000Y-121500000D01*
X127500000Y-121500000D02*
X126137500Y-120137500D01*
X135250000Y-121550000D02*
X133650000Y-123150000D01*
X135325000Y-121550000D02*
X135250000Y-121550000D01*
X133650000Y-123150000D02*
X131650000Y-123150000D01*
X135275000Y-121500000D02*
X135325000Y-121550000D01*
X135275000Y-116000000D02*
X135275000Y-121500000D01*
D34*
%TO.N,Net-(ESP3.3V1-Pin_2)*%
X135430000Y-102320000D02*
X134764265Y-102985735D01*
X135430000Y-100315000D02*
X135430000Y-102320000D01*
%TO.N,5V BUCK*%
X118972500Y-113437500D02*
X119800000Y-113437500D01*
X117699000Y-114711000D02*
X118972500Y-113437500D01*
X117699000Y-121099000D02*
X117699000Y-114711000D01*
X118000000Y-121400000D02*
X117699000Y-121099000D01*
X119800000Y-113437500D02*
X120678864Y-113437500D01*
X120678864Y-113437500D02*
X120978864Y-113737500D01*
D36*
%TO.N,GND*%
X129400000Y-120100000D02*
X129500000Y-120000000D01*
%TO.N,Net-(U4-FB)*%
X122027226Y-116800000D02*
X122350000Y-116800000D01*
X120412500Y-117400000D02*
X121427226Y-117400000D01*
X121427226Y-117400000D02*
X122027226Y-116800000D01*
%TO.N,GND*%
X121950000Y-116300000D02*
X122350000Y-116300000D01*
X121947930Y-116297930D02*
X121950000Y-116300000D01*
%TO.N,Net-(U4-FB)*%
X121587500Y-118575000D02*
X121587500Y-120100000D01*
X120412500Y-117400000D02*
X121587500Y-118575000D01*
D34*
%TO.N,5V BUCK*%
X124000000Y-115000000D02*
X124000000Y-115274000D01*
X122737500Y-113737500D02*
X124000000Y-115000000D01*
X120978864Y-113737500D02*
X122737500Y-113737500D01*
X122350000Y-115108636D02*
X122350000Y-115274000D01*
X120978864Y-113737500D02*
X122350000Y-115108636D01*
D36*
%TO.N,Net-(U4-L1)*%
X125935057Y-114715000D02*
X128300000Y-114715000D01*
X124850057Y-115800000D02*
X125935057Y-114715000D01*
X124000000Y-115800000D02*
X124850057Y-115800000D01*
%TO.N,Net-(U4-L2)*%
X125235057Y-117085000D02*
X128300000Y-117085000D01*
X124950057Y-116800000D02*
X125235057Y-117085000D01*
X124000000Y-116800000D02*
X124950057Y-116800000D01*
%TO.N,GND*%
X121250000Y-115022774D02*
X121250000Y-115000000D01*
X122027226Y-115800000D02*
X121250000Y-115022774D01*
X122350000Y-115800000D02*
X122027226Y-115800000D01*
D35*
%TO.N,5V LDO*%
X113000000Y-119250000D02*
X113000000Y-121400000D01*
%TO.N,+5V*%
X116701000Y-115341398D02*
X116701000Y-120199000D01*
X115240000Y-113880398D02*
X116701000Y-115341398D01*
X115240000Y-110000000D02*
X115240000Y-113880398D01*
X116701000Y-120199000D02*
X115500000Y-121400000D01*
%TO.N,+3.3V*%
X136881000Y-102631000D02*
X136250000Y-102000000D01*
X136881000Y-114394000D02*
X136881000Y-102631000D01*
X135275000Y-116000000D02*
X136881000Y-114394000D01*
X123412500Y-120100000D02*
X126137500Y-120100000D01*
D34*
X124000000Y-118500000D02*
X124000000Y-117326000D01*
X123412500Y-119087500D02*
X124000000Y-118500000D01*
X123412500Y-120100000D02*
X123412500Y-119087500D01*
D36*
X128500000Y-87250000D02*
X132250000Y-87250000D01*
X131150000Y-66700000D02*
X132250000Y-67800000D01*
X127087500Y-71000000D02*
X127863500Y-70224000D01*
X127087500Y-73900000D02*
X127887500Y-73100000D01*
X132226000Y-70224000D02*
X132250000Y-70200000D01*
X124475000Y-66700000D02*
X131150000Y-66700000D01*
X127863500Y-70224000D02*
X132226000Y-70224000D01*
X127887500Y-73100000D02*
X132250000Y-73100000D01*
%TO.N,GND*%
X125055000Y-92300000D02*
X125055000Y-91009390D01*
X123075000Y-72500000D02*
X123075000Y-70501784D01*
X128305000Y-91232819D02*
X128133220Y-91061039D01*
X124558607Y-99300000D02*
X125055000Y-98803607D01*
X127800000Y-90100000D02*
X127500000Y-89800000D01*
X128305000Y-92300000D02*
X128305000Y-91232819D01*
X125705000Y-92300000D02*
X125705000Y-90598249D01*
X121900000Y-72750000D02*
X120886657Y-72750000D01*
X128036130Y-99063500D02*
X127804000Y-98831370D01*
X123755000Y-98025000D02*
X123755000Y-98755000D01*
X125055000Y-98803607D02*
X125055000Y-98025000D01*
X121100000Y-73250000D02*
X120850000Y-73500000D01*
X123755000Y-98755000D02*
X124300000Y-99300000D01*
X128955000Y-91050933D02*
X128948633Y-91044566D01*
X127500000Y-89800000D02*
X126400000Y-89800000D01*
X128163500Y-99063500D02*
X128036130Y-99063500D01*
X128400000Y-99300000D02*
X128163500Y-99063500D01*
X127562500Y-100500000D02*
X129000000Y-100500000D01*
X121900000Y-73250000D02*
X121100000Y-73250000D01*
X123075000Y-70501784D02*
X123066452Y-70493236D01*
X127005000Y-90505000D02*
X127000000Y-90500000D01*
X126355000Y-90961337D02*
X126362373Y-90953964D01*
X127804000Y-98831370D02*
X127804000Y-98704000D01*
X128237500Y-90100000D02*
X127800000Y-90100000D01*
X125055000Y-91009390D02*
X125061007Y-91003383D01*
X126355000Y-92300000D02*
X126355000Y-90961337D01*
X124300000Y-99300000D02*
X124558607Y-99300000D01*
X127005000Y-92300000D02*
X127005000Y-90505000D01*
X127655000Y-98555000D02*
X127655000Y-98025000D01*
X124250000Y-72750000D02*
X125500000Y-72750000D01*
X127804000Y-98704000D02*
X127655000Y-98555000D01*
X128955000Y-92300000D02*
X128955000Y-91050933D01*
X125705000Y-90598249D02*
X125728163Y-90575086D01*
X120886657Y-72750000D02*
X120850000Y-72786657D01*
%TO.N,Net-(C12-Pad2)*%
X124662500Y-89950000D02*
X124662500Y-89400000D01*
X124405000Y-92300000D02*
X124405000Y-90207500D01*
X124405000Y-90207500D02*
X124662500Y-89950000D01*
%TO.N,Net-(C12-Pad1)*%
X122937500Y-89400000D02*
X122937500Y-90050000D01*
X123755000Y-90867500D02*
X123755000Y-92300000D01*
X122937500Y-90050000D02*
X123755000Y-90867500D01*
%TO.N,Net-(J1-Pin_2)*%
X115110000Y-97290000D02*
X115110000Y-104500000D01*
X115862500Y-96537500D02*
X115110000Y-97290000D01*
X116900000Y-96537500D02*
X115862500Y-96537500D01*
%TO.N,Net-(J1-Pin_9)*%
X124737490Y-101553385D02*
X125475255Y-101553385D01*
X122455000Y-90484075D02*
X122455548Y-90483527D01*
X124307528Y-101356057D02*
X124540162Y-101356057D01*
X130491000Y-102101000D02*
X132890000Y-104500000D01*
X124540162Y-101356057D02*
X124737490Y-101553385D01*
X122455000Y-92300000D02*
X122455000Y-90484075D01*
X126022870Y-102101000D02*
X130491000Y-102101000D01*
X125475255Y-101553385D02*
X126022870Y-102101000D01*
%TO.N,Net-(J1-Pin_10)*%
X124500000Y-100700000D02*
X123800000Y-100700000D01*
X130757100Y-101800000D02*
X130657100Y-101700000D01*
X132730000Y-101800000D02*
X130757100Y-101800000D01*
X123105000Y-92300000D02*
X123105000Y-91066030D01*
X126188970Y-101700000D02*
X125641355Y-101152385D01*
X123105000Y-91066030D02*
X123069485Y-91030515D01*
X130657100Y-101700000D02*
X126188970Y-101700000D01*
X135430000Y-104500000D02*
X132730000Y-101800000D01*
X125641355Y-101152385D02*
X124952385Y-101152385D01*
X124952385Y-101152385D02*
X124500000Y-100700000D01*
%TO.N,Net-(J1-Pin_8)*%
X123105000Y-98025000D02*
X123105000Y-101437900D01*
X128352000Y-102502000D02*
X130350000Y-104500000D01*
X123105000Y-101437900D02*
X124169100Y-102502000D01*
X124169100Y-102502000D02*
X128352000Y-102502000D01*
%TO.N,Net-(J1-Pin_7)*%
X126310000Y-103000000D02*
X124100000Y-103000000D01*
X122455000Y-101355000D02*
X122455000Y-98025000D01*
X124100000Y-103000000D02*
X122455000Y-101355000D01*
X127810000Y-104500000D02*
X126310000Y-103000000D01*
%TO.N,Net-(J1-Pin_6)*%
X121774888Y-92269888D02*
X121805000Y-92300000D01*
X121774888Y-90959677D02*
X121774888Y-92269888D01*
%TO.N,Net-(J1-Pin_5)*%
X121138807Y-92283807D02*
X121155000Y-92300000D01*
X121138807Y-90474491D02*
X121138807Y-92283807D01*
%TO.N,Net-(J1-Pin_4)*%
X121805000Y-98695000D02*
X120190000Y-100310000D01*
X120190000Y-100310000D02*
X120190000Y-104500000D01*
X121805000Y-98025000D02*
X121805000Y-98695000D01*
%TO.N,Net-(J1-Pin_3)*%
X121155000Y-98025000D02*
X118975000Y-98025000D01*
X118975000Y-98025000D02*
X117650000Y-99350000D01*
X117650000Y-99350000D02*
X117650000Y-104500000D01*
%TO.N,+BATT*%
X120100000Y-75500000D02*
X119162500Y-75500000D01*
X118320240Y-106798000D02*
X116499000Y-104976760D01*
X119200000Y-72187500D02*
X119200000Y-75462500D01*
X120600000Y-76500000D02*
X120600000Y-76000000D01*
X119200000Y-96600000D02*
X119200000Y-94091500D01*
X118400000Y-97400000D02*
X119200000Y-96600000D01*
X132250000Y-110000000D02*
X129048000Y-106798000D01*
X116499000Y-99301000D02*
X118400000Y-97400000D01*
X129048000Y-106798000D02*
X118320240Y-106798000D01*
X120600000Y-76000000D02*
X120100000Y-75500000D01*
X116499000Y-104976760D02*
X116499000Y-99301000D01*
X119200000Y-75462500D02*
X119162500Y-75500000D01*
%TO.N,!EN_DMS*%
X118500000Y-91500000D02*
X124925000Y-85075000D01*
X117850000Y-94529164D02*
X116752918Y-93432082D01*
X117601448Y-92583552D02*
X117601448Y-92176448D01*
X117601448Y-92176448D02*
X116925000Y-91500000D01*
X116925000Y-91500000D02*
X118500000Y-91500000D01*
X117850000Y-94662500D02*
X117850000Y-94529164D01*
X124925000Y-85075000D02*
X135430000Y-85075000D01*
%TO.N,Net-(Q1-D)*%
X118250000Y-77750000D02*
X117337500Y-76837500D01*
X117337500Y-75500000D02*
X117337500Y-72225000D01*
X117337500Y-72225000D02*
X117300000Y-72187500D01*
X117337500Y-76837500D02*
X117337500Y-75500000D01*
X118250000Y-77812500D02*
X118250000Y-77750000D01*
%TO.N,SDA*%
X125676000Y-74676000D02*
X124250000Y-73250000D01*
X128912500Y-73900000D02*
X128136500Y-74676000D01*
X128912500Y-73900000D02*
X134415000Y-73900000D01*
X134415000Y-73900000D02*
X135430000Y-74915000D01*
X128136500Y-74676000D02*
X125676000Y-74676000D01*
%TO.N,D_RDY_OUT*%
X134935000Y-92695000D02*
X135430000Y-92695000D01*
X129605000Y-98025000D02*
X134935000Y-92695000D01*
%TO.N,SCLK*%
X130786557Y-99063500D02*
X134615057Y-95235000D01*
X129256001Y-99063500D02*
X130786557Y-99063500D01*
X134615057Y-95235000D02*
X135430000Y-95235000D01*
X128955000Y-98762499D02*
X129256001Y-99063500D01*
X128955000Y-98025000D02*
X128955000Y-98762499D01*
%TO.N,!PWDN*%
X128305000Y-93740500D02*
X128305000Y-98025000D01*
X116136500Y-91967134D02*
X117660866Y-93491500D01*
X116136500Y-88641500D02*
X116136500Y-91967134D01*
X112570000Y-85075000D02*
X116136500Y-88641500D01*
X128056000Y-93491500D02*
X128305000Y-93740500D01*
X117660866Y-93491500D02*
X128056000Y-93491500D01*
%TO.N,bat_adc*%
X117300000Y-85050000D02*
X117300000Y-84512500D01*
X123500000Y-85250000D02*
X122750000Y-86000000D01*
X111519000Y-84639661D02*
X112134661Y-84024000D01*
X112570000Y-92695000D02*
X111519000Y-91644000D01*
X120500000Y-86000000D02*
X118250000Y-86000000D01*
X112134661Y-84024000D02*
X116811500Y-84024000D01*
X123500000Y-84362500D02*
X123500000Y-85250000D01*
X118250000Y-86000000D02*
X117300000Y-85050000D01*
X111519000Y-91644000D02*
X111519000Y-84639661D01*
X122750000Y-86000000D02*
X120500000Y-86000000D01*
X120500000Y-84512500D02*
X120500000Y-86000000D01*
X116811500Y-84024000D02*
X117300000Y-84512500D01*
D35*
%TO.N,Net-(6V_IN1-Pin_1)*%
X112710000Y-112790000D02*
X112710000Y-116000000D01*
X112700000Y-112780000D02*
X112710000Y-112790000D01*
X112700000Y-110000000D02*
X112700000Y-112780000D01*
%TO.N,+5V*%
X115775000Y-110000000D02*
X115500000Y-110000000D01*
D36*
%TO.N,SCL*%
X134300000Y-68425000D02*
X134300000Y-70549943D01*
X124276000Y-71776000D02*
X128136500Y-71776000D01*
X124250000Y-71750000D02*
X124276000Y-71776000D01*
X134300000Y-70549943D02*
X133849943Y-71000000D01*
X133849943Y-71000000D02*
X128912500Y-71000000D01*
X135430000Y-67295000D02*
X134300000Y-68425000D01*
X128136500Y-71776000D02*
X128912500Y-71000000D01*
%TO.N,en_meas*%
X133544000Y-80649000D02*
X135430000Y-82535000D01*
X119899000Y-81001057D02*
X120251057Y-80649000D01*
X118613557Y-81001057D02*
X119899000Y-81001057D01*
X117300000Y-79687500D02*
X118613557Y-81001057D01*
X120251057Y-80649000D02*
X133544000Y-80649000D01*
%TO.N,Net-(Q3-D)*%
X114750000Y-80137500D02*
X114750000Y-73358032D01*
X114750000Y-73358032D02*
X117795532Y-70312500D01*
X117795532Y-70312500D02*
X118250000Y-70312500D01*
X117300000Y-82687500D02*
X114750000Y-80137500D01*
%TO.N,Net-(ADC1-Pin_2)*%
X125705000Y-98025000D02*
X125705000Y-97367630D01*
X131100000Y-89700000D02*
X131100000Y-90800000D01*
X126400000Y-97000000D02*
X126800000Y-97000000D01*
X129605000Y-90820000D02*
X129962500Y-90462500D01*
X124405000Y-97287501D02*
X124405000Y-98025000D01*
X127005000Y-97205000D02*
X127005000Y-98025000D01*
X129424000Y-101276000D02*
X129200000Y-101276000D01*
X125705000Y-100130000D02*
X125705000Y-98025000D01*
X130650000Y-89250000D02*
X129900000Y-89250000D01*
X130800000Y-89400000D02*
X130650000Y-89250000D01*
X131200000Y-99500000D02*
X129424000Y-101276000D01*
X126355000Y-97045000D02*
X126400000Y-97000000D01*
X129900000Y-89250000D02*
X129450000Y-89250000D01*
X125323870Y-96986500D02*
X124706001Y-96986500D01*
X126750000Y-89250000D02*
X125960000Y-88460000D01*
X129450000Y-89250000D02*
X126750000Y-89250000D01*
X129962500Y-90100000D02*
X129962500Y-89312500D01*
X125837500Y-100500000D02*
X125837500Y-100262500D01*
X126613500Y-101276000D02*
X129200000Y-101276000D01*
X129962500Y-90462500D02*
X129962500Y-89762500D01*
X125705000Y-97367630D02*
X125323870Y-96986500D01*
X125837500Y-100262500D02*
X125705000Y-100130000D01*
X126800000Y-97000000D02*
X127005000Y-97205000D01*
X125960000Y-88460000D02*
X125960000Y-87250000D01*
X126355000Y-98025000D02*
X126355000Y-97045000D01*
X129605000Y-92300000D02*
X129605000Y-90820000D01*
X125705000Y-97195000D02*
X125900000Y-97000000D01*
X125705000Y-98025000D02*
X125705000Y-97195000D01*
X124706001Y-96986500D02*
X124405000Y-97287501D01*
X130800000Y-89400000D02*
X131100000Y-89700000D01*
X125900000Y-97000000D02*
X126400000Y-97000000D01*
X125837500Y-100500000D02*
X126613500Y-101276000D01*
X129962500Y-89312500D02*
X129900000Y-89250000D01*
%TO.N,Net-(THRM1-Pin_2)*%
X127137500Y-77000000D02*
X122500000Y-77000000D01*
X121935000Y-66700000D02*
X120250000Y-68385000D01*
X120250000Y-68385000D02*
X120250000Y-71700000D01*
X122500000Y-77000000D02*
X120250000Y-74750000D01*
X121900000Y-71750000D02*
X120300000Y-71750000D01*
X120300000Y-71750000D02*
X120250000Y-71700000D01*
X120250000Y-74750000D02*
X120250000Y-72250000D01*
X120250000Y-71700000D02*
X120250000Y-72250000D01*
D34*
%TO.N,Net-(DMS1-Pin_2)*%
X132735000Y-114900134D02*
X125133866Y-107299000D01*
X132735000Y-116000000D02*
X132735000Y-114900134D01*
X113859000Y-96753500D02*
X115081250Y-95531250D01*
X116139818Y-107299000D02*
X113859000Y-105018182D01*
X113859000Y-105018182D02*
X113859000Y-96753500D01*
X125133866Y-107299000D02*
X116139818Y-107299000D01*
D35*
%TO.N,Net-(ESP5V1-Pin_2)*%
X124802081Y-108100000D02*
X125500000Y-108797919D01*
X111119000Y-101766000D02*
X111119000Y-105951000D01*
X112570000Y-100315000D02*
X111119000Y-101766000D01*
X125500000Y-108797919D02*
X125500000Y-110000000D01*
X111119000Y-105951000D02*
X113268000Y-108100000D01*
X113268000Y-108100000D02*
X124802081Y-108100000D01*
D36*
%TO.N,GND*%
X121376421Y-116297930D02*
X121947930Y-116297930D01*
X125200000Y-116300000D02*
X125250000Y-116250000D01*
X123800000Y-116300000D02*
X125200000Y-116300000D01*
%TD*%
%TA.AperFunction,Conductor*%
%TO.N,GND*%
G36*
X110824000Y-106791884D02*
G01*
X110840361Y-106804439D01*
X112650561Y-108614639D01*
X112673399Y-108663615D01*
X112659413Y-108715813D01*
X112615147Y-108746808D01*
X112594700Y-108749500D01*
X111818484Y-108749500D01*
X111742345Y-108761558D01*
X111724696Y-108764354D01*
X111669213Y-108792623D01*
X111611655Y-108821951D01*
X111521950Y-108911656D01*
X111521948Y-108911659D01*
X111464354Y-109024693D01*
X111464353Y-109024697D01*
X111449501Y-109118469D01*
X111449500Y-109118485D01*
X111449500Y-110881515D01*
X111458763Y-110940005D01*
X111462580Y-110964105D01*
X111464354Y-110975302D01*
X111464353Y-110975302D01*
X111521951Y-111088344D01*
X111611656Y-111178049D01*
X111611659Y-111178051D01*
X111724693Y-111235645D01*
X111724695Y-111235645D01*
X111724696Y-111235646D01*
X111818481Y-111250500D01*
X111820487Y-111250499D01*
X111821040Y-111250700D01*
X111821575Y-111250743D01*
X111821563Y-111250891D01*
X111871268Y-111268972D01*
X111898297Y-111315766D01*
X111899500Y-111329499D01*
X111899500Y-112701158D01*
X111899500Y-112858842D01*
X111907982Y-112901483D01*
X111909500Y-112916895D01*
X111909500Y-114670500D01*
X111891018Y-114721280D01*
X111844218Y-114748300D01*
X111830515Y-114749500D01*
X111828488Y-114749500D01*
X111828482Y-114749501D01*
X111734696Y-114764354D01*
X111690679Y-114786782D01*
X111621655Y-114821951D01*
X111531950Y-114911656D01*
X111531948Y-114911659D01*
X111474354Y-115024693D01*
X111474353Y-115024697D01*
X111459501Y-115118469D01*
X111459500Y-115118485D01*
X111459500Y-116881515D01*
X111474354Y-116975302D01*
X111474353Y-116975302D01*
X111531951Y-117088344D01*
X111621656Y-117178049D01*
X111621659Y-117178051D01*
X111734693Y-117235645D01*
X111734695Y-117235645D01*
X111734696Y-117235646D01*
X111828481Y-117250500D01*
X113591518Y-117250499D01*
X113685304Y-117235646D01*
X113798342Y-117178050D01*
X113888050Y-117088342D01*
X113945646Y-116975304D01*
X113960500Y-116881519D01*
X113960499Y-115118482D01*
X113945646Y-115024696D01*
X113888050Y-114911658D01*
X113888049Y-114911657D01*
X113888048Y-114911655D01*
X113798343Y-114821950D01*
X113798340Y-114821948D01*
X113685306Y-114764354D01*
X113685302Y-114764353D01*
X113591530Y-114749501D01*
X113591522Y-114749500D01*
X113591519Y-114749500D01*
X113591514Y-114749500D01*
X113589500Y-114749500D01*
X113588944Y-114749297D01*
X113588426Y-114749257D01*
X113588437Y-114749113D01*
X113538720Y-114731018D01*
X113511700Y-114684218D01*
X113510500Y-114670500D01*
X113510500Y-112711158D01*
X113502018Y-112668515D01*
X113500500Y-112653103D01*
X113500500Y-111329499D01*
X113518982Y-111278719D01*
X113565782Y-111251699D01*
X113579500Y-111250499D01*
X113581515Y-111250499D01*
X113581518Y-111250499D01*
X113675304Y-111235646D01*
X113788342Y-111178050D01*
X113878050Y-111088342D01*
X113935646Y-110975304D01*
X113950500Y-110881519D01*
X113950499Y-110552732D01*
X113968981Y-110501955D01*
X114015781Y-110474935D01*
X114068999Y-110484319D01*
X114099888Y-110516870D01*
X114170473Y-110655400D01*
X114170480Y-110655411D01*
X114227201Y-110733480D01*
X114286172Y-110814646D01*
X114286176Y-110814650D01*
X114286181Y-110814656D01*
X114416361Y-110944836D01*
X114439199Y-110993812D01*
X114439500Y-111000697D01*
X114439500Y-113959239D01*
X114470262Y-114113895D01*
X114470263Y-114113897D01*
X114530604Y-114259573D01*
X114530607Y-114259578D01*
X114618209Y-114390685D01*
X114618215Y-114390692D01*
X115877361Y-115649837D01*
X115900199Y-115698813D01*
X115900500Y-115705698D01*
X115900500Y-119834698D01*
X115882018Y-119885478D01*
X115877361Y-119890559D01*
X115591559Y-120176361D01*
X115542583Y-120199199D01*
X115535698Y-120199500D01*
X114968484Y-120199500D01*
X114892345Y-120211558D01*
X114874696Y-120214354D01*
X114835711Y-120234218D01*
X114761655Y-120271951D01*
X114671950Y-120361656D01*
X114671948Y-120361659D01*
X114614354Y-120474693D01*
X114614353Y-120474697D01*
X114599501Y-120568469D01*
X114599500Y-120568485D01*
X114599500Y-122231515D01*
X114605554Y-122269737D01*
X114614090Y-122323639D01*
X114614354Y-122325302D01*
X114614353Y-122325302D01*
X114671951Y-122438344D01*
X114761656Y-122528049D01*
X114764721Y-122529611D01*
X114766643Y-122531672D01*
X114766688Y-122531705D01*
X114766681Y-122531713D01*
X114801575Y-122569133D01*
X114804403Y-122623098D01*
X114771881Y-122666255D01*
X114764721Y-122670389D01*
X114761657Y-122671950D01*
X114761656Y-122671950D01*
X114671950Y-122761656D01*
X114671948Y-122761659D01*
X114614354Y-122874693D01*
X114614353Y-122874697D01*
X114599501Y-122968469D01*
X114599500Y-122968485D01*
X114599500Y-124631515D01*
X114614354Y-124725302D01*
X114614353Y-124725302D01*
X114671951Y-124838344D01*
X114743246Y-124909639D01*
X114766084Y-124958615D01*
X114752098Y-125010813D01*
X114707832Y-125041808D01*
X114687385Y-125044500D01*
X113812615Y-125044500D01*
X113761835Y-125026018D01*
X113734815Y-124979218D01*
X113744199Y-124926000D01*
X113756754Y-124909639D01*
X113828049Y-124838343D01*
X113828051Y-124838340D01*
X113885645Y-124725306D01*
X113885645Y-124725305D01*
X113885646Y-124725304D01*
X113900500Y-124631519D01*
X113900499Y-122968482D01*
X113885646Y-122874696D01*
X113828050Y-122761658D01*
X113828049Y-122761657D01*
X113828048Y-122761655D01*
X113738343Y-122671950D01*
X113735275Y-122670387D01*
X113733350Y-122668322D01*
X113733312Y-122668295D01*
X113733317Y-122668287D01*
X113698423Y-122630863D01*
X113695597Y-122576898D01*
X113728121Y-122533742D01*
X113735278Y-122529611D01*
X113738342Y-122528050D01*
X113828050Y-122438342D01*
X113885646Y-122325304D01*
X113900500Y-122231519D01*
X113900499Y-120568482D01*
X113885646Y-120474696D01*
X113828050Y-120361658D01*
X113828049Y-120361657D01*
X113828048Y-120361655D01*
X113823639Y-120357246D01*
X113800801Y-120308270D01*
X113800500Y-120301385D01*
X113800500Y-119171158D01*
X113769737Y-119016502D01*
X113769736Y-119016500D01*
X113709395Y-118870824D01*
X113709394Y-118870821D01*
X113650255Y-118782314D01*
X113621790Y-118739712D01*
X113621784Y-118739705D01*
X113510294Y-118628215D01*
X113510287Y-118628209D01*
X113379180Y-118540607D01*
X113379179Y-118540606D01*
X113379176Y-118540605D01*
X113379175Y-118540604D01*
X113233499Y-118480263D01*
X113233497Y-118480262D01*
X113078842Y-118449500D01*
X112921158Y-118449500D01*
X112766502Y-118480262D01*
X112766500Y-118480263D01*
X112620824Y-118540604D01*
X112620819Y-118540607D01*
X112489712Y-118628209D01*
X112489705Y-118628215D01*
X112378215Y-118739705D01*
X112378209Y-118739712D01*
X112290607Y-118870819D01*
X112290604Y-118870824D01*
X112230263Y-119016500D01*
X112230262Y-119016502D01*
X112199500Y-119171158D01*
X112199500Y-120301385D01*
X112181018Y-120352165D01*
X112176361Y-120357246D01*
X112171950Y-120361656D01*
X112171948Y-120361659D01*
X112114354Y-120474693D01*
X112114353Y-120474697D01*
X112099501Y-120568469D01*
X112099500Y-120568485D01*
X112099500Y-122231515D01*
X112105554Y-122269737D01*
X112114090Y-122323639D01*
X112114354Y-122325302D01*
X112114353Y-122325302D01*
X112171951Y-122438344D01*
X112261656Y-122528049D01*
X112264721Y-122529611D01*
X112266643Y-122531672D01*
X112266688Y-122531705D01*
X112266681Y-122531713D01*
X112301575Y-122569133D01*
X112304403Y-122623098D01*
X112271881Y-122666255D01*
X112264721Y-122670389D01*
X112261657Y-122671950D01*
X112261656Y-122671950D01*
X112171950Y-122761656D01*
X112171948Y-122761659D01*
X112114354Y-122874693D01*
X112114353Y-122874697D01*
X112099501Y-122968469D01*
X112099500Y-122968485D01*
X112099500Y-124631515D01*
X112114354Y-124725302D01*
X112114353Y-124725302D01*
X112171951Y-124838344D01*
X112243246Y-124909639D01*
X112266084Y-124958615D01*
X112252098Y-125010813D01*
X112207832Y-125041808D01*
X112187385Y-125044500D01*
X110784500Y-125044500D01*
X110733720Y-125026018D01*
X110706700Y-124979218D01*
X110705500Y-124965500D01*
X110705500Y-106860300D01*
X110723982Y-106809520D01*
X110770782Y-106782500D01*
X110824000Y-106791884D01*
G37*
%TD.AperFunction*%
%TA.AperFunction,Conductor*%
G36*
X120580010Y-114189580D02*
G01*
X120590559Y-114198432D01*
X120614644Y-114222517D01*
X120614658Y-114222529D01*
X121626361Y-115234232D01*
X121649199Y-115283208D01*
X121649500Y-115290093D01*
X121649500Y-115429261D01*
X121652353Y-115459696D01*
X121652354Y-115459699D01*
X121697205Y-115587879D01*
X121697207Y-115587882D01*
X121777849Y-115697150D01*
X121887117Y-115777792D01*
X121887120Y-115777794D01*
X121927610Y-115791961D01*
X122015301Y-115822646D01*
X122045734Y-115825500D01*
X122083059Y-115825500D01*
X122112671Y-115833435D01*
X122113434Y-115831596D01*
X122118216Y-115833577D01*
X122270943Y-115874500D01*
X122270945Y-115874500D01*
X122429055Y-115874500D01*
X122429057Y-115874500D01*
X122581784Y-115833577D01*
X122581786Y-115833575D01*
X122586566Y-115831596D01*
X122587328Y-115833435D01*
X122616941Y-115825500D01*
X122654261Y-115825500D01*
X122654266Y-115825500D01*
X122684699Y-115822646D01*
X122812882Y-115777793D01*
X122922150Y-115697150D01*
X123002793Y-115587882D01*
X123025433Y-115523179D01*
X123026084Y-115522383D01*
X123026097Y-115521353D01*
X123043122Y-115501556D01*
X123059648Y-115481355D01*
X123060660Y-115481163D01*
X123061333Y-115480381D01*
X123087103Y-115476159D01*
X123112745Y-115471307D01*
X123113644Y-115471811D01*
X123114661Y-115471645D01*
X123137089Y-115484959D01*
X123159878Y-115497740D01*
X123160535Y-115498878D01*
X123161129Y-115499231D01*
X123174557Y-115523156D01*
X123174812Y-115523884D01*
X123174821Y-115576091D01*
X123152354Y-115640298D01*
X123149500Y-115670738D01*
X123149500Y-115929261D01*
X123152353Y-115959696D01*
X123152354Y-115959699D01*
X123197205Y-116087879D01*
X123197207Y-116087882D01*
X123277849Y-116197150D01*
X123331082Y-116236437D01*
X123360964Y-116281462D01*
X123354914Y-116335161D01*
X123331082Y-116363563D01*
X123277849Y-116402849D01*
X123197207Y-116512117D01*
X123197205Y-116512120D01*
X123179976Y-116561361D01*
X123176142Y-116572320D01*
X123174567Y-116576820D01*
X123140350Y-116618646D01*
X123087253Y-116628693D01*
X123040121Y-116602259D01*
X123025433Y-116576820D01*
X123023858Y-116572320D01*
X123018876Y-116558082D01*
X123002794Y-116512120D01*
X123002792Y-116512117D01*
X122922150Y-116402849D01*
X122812882Y-116322207D01*
X122812879Y-116322205D01*
X122684699Y-116277354D01*
X122684696Y-116277353D01*
X122666278Y-116275626D01*
X122654266Y-116274500D01*
X122045734Y-116274500D01*
X122034601Y-116275544D01*
X122015303Y-116277353D01*
X122015297Y-116277355D01*
X121924323Y-116309187D01*
X121918680Y-116310928D01*
X121834039Y-116333608D01*
X121834038Y-116333608D01*
X121719911Y-116399500D01*
X121309692Y-116809719D01*
X121260716Y-116832556D01*
X121208518Y-116818570D01*
X121185832Y-116794071D01*
X121170626Y-116768357D01*
X121170625Y-116768356D01*
X121170623Y-116768353D01*
X121056646Y-116654376D01*
X121056643Y-116654374D01*
X120917896Y-116572320D01*
X120917895Y-116572319D01*
X120917894Y-116572319D01*
X120763098Y-116527346D01*
X120726935Y-116524500D01*
X120726927Y-116524500D01*
X120098073Y-116524500D01*
X120098072Y-116524500D01*
X120098066Y-116524501D01*
X120061902Y-116527346D01*
X119937527Y-116563481D01*
X119907103Y-116572320D01*
X119768356Y-116654374D01*
X119768353Y-116654376D01*
X119654376Y-116768353D01*
X119654374Y-116768356D01*
X119572320Y-116907103D01*
X119572319Y-116907105D01*
X119572319Y-116907106D01*
X119527346Y-117061902D01*
X119524500Y-117098065D01*
X119524500Y-117098071D01*
X119524500Y-117098072D01*
X119524500Y-117701927D01*
X119524501Y-117701934D01*
X119527346Y-117738098D01*
X119564619Y-117866392D01*
X119572320Y-117892896D01*
X119654374Y-118031643D01*
X119654376Y-118031646D01*
X119768353Y-118145623D01*
X119768356Y-118145625D01*
X119768357Y-118145626D01*
X119907106Y-118227681D01*
X120061902Y-118272654D01*
X120098065Y-118275500D01*
X120547463Y-118275499D01*
X120598243Y-118293981D01*
X120603324Y-118298638D01*
X121063861Y-118759175D01*
X121086699Y-118808151D01*
X121087000Y-118815036D01*
X121087000Y-119224363D01*
X121068518Y-119275143D01*
X121048214Y-119292362D01*
X120943356Y-119354374D01*
X120943353Y-119354376D01*
X120829376Y-119468353D01*
X120829374Y-119468356D01*
X120747320Y-119607103D01*
X120747319Y-119607105D01*
X120747319Y-119607106D01*
X120702346Y-119761902D01*
X120699500Y-119798065D01*
X120699500Y-119798066D01*
X120699500Y-119798072D01*
X120699500Y-120401926D01*
X120699501Y-120401934D01*
X120702346Y-120438098D01*
X120746267Y-120589274D01*
X120747320Y-120592896D01*
X120829374Y-120731643D01*
X120829376Y-120731646D01*
X120943353Y-120845623D01*
X120943356Y-120845625D01*
X120943357Y-120845626D01*
X121082106Y-120927681D01*
X121236902Y-120972654D01*
X121273065Y-120975500D01*
X121901934Y-120975499D01*
X121938098Y-120972654D01*
X122092894Y-120927681D01*
X122231643Y-120845626D01*
X122345626Y-120731643D01*
X122427681Y-120592894D01*
X122427681Y-120592893D01*
X122430211Y-120588616D01*
X122431324Y-120589274D01*
X122464617Y-120554059D01*
X122518298Y-120547840D01*
X122563416Y-120577582D01*
X122569787Y-120588616D01*
X122569789Y-120588616D01*
X122654374Y-120731643D01*
X122654376Y-120731646D01*
X122768353Y-120845623D01*
X122768356Y-120845625D01*
X122768357Y-120845626D01*
X122907106Y-120927681D01*
X123061902Y-120972654D01*
X123098065Y-120975500D01*
X123726934Y-120975499D01*
X123763098Y-120972654D01*
X123917894Y-120927681D01*
X123945253Y-120911500D01*
X123985467Y-120900500D01*
X125514533Y-120900500D01*
X125554746Y-120911500D01*
X125582106Y-120927681D01*
X125736902Y-120972654D01*
X125773065Y-120975500D01*
X125810698Y-120975499D01*
X125861478Y-120993980D01*
X125866560Y-120998638D01*
X126989705Y-122121784D01*
X126989711Y-122121789D01*
X127120821Y-122209394D01*
X127193662Y-122239565D01*
X127266500Y-122269736D01*
X127266502Y-122269737D01*
X127421158Y-122300500D01*
X127578842Y-122300500D01*
X129635700Y-122300500D01*
X129686480Y-122318982D01*
X129691561Y-122323639D01*
X131028211Y-123660289D01*
X131139711Y-123771789D01*
X131270821Y-123859394D01*
X131373833Y-123902062D01*
X131416502Y-123919737D01*
X131571157Y-123950500D01*
X133728842Y-123950500D01*
X133883497Y-123919737D01*
X133883499Y-123919736D01*
X134029179Y-123859394D01*
X134160289Y-123771789D01*
X135108439Y-122823637D01*
X135157415Y-122800800D01*
X135164300Y-122800499D01*
X136206515Y-122800499D01*
X136206518Y-122800499D01*
X136300304Y-122785646D01*
X136413342Y-122728050D01*
X136503050Y-122638342D01*
X136560646Y-122525304D01*
X136575500Y-122431519D01*
X136575499Y-120668482D01*
X136560646Y-120574696D01*
X136503050Y-120461658D01*
X136503049Y-120461657D01*
X136503048Y-120461655D01*
X136413343Y-120371950D01*
X136413340Y-120371948D01*
X136300306Y-120314354D01*
X136300302Y-120314353D01*
X136206530Y-120299501D01*
X136206522Y-120299500D01*
X136206519Y-120299500D01*
X136206514Y-120299500D01*
X136154500Y-120299500D01*
X136103720Y-120281018D01*
X136076700Y-120234218D01*
X136075500Y-120220500D01*
X136075500Y-117329499D01*
X136093982Y-117278719D01*
X136140782Y-117251699D01*
X136154500Y-117250499D01*
X136156515Y-117250499D01*
X136156518Y-117250499D01*
X136250304Y-117235646D01*
X136363342Y-117178050D01*
X136453050Y-117088342D01*
X136510646Y-116975304D01*
X136525500Y-116881519D01*
X136525499Y-115914298D01*
X136543981Y-115863519D01*
X136548626Y-115858450D01*
X137189791Y-115217286D01*
X137238766Y-115194449D01*
X137290964Y-115208435D01*
X137321959Y-115252701D01*
X137324651Y-115273148D01*
X137324651Y-124965500D01*
X137306169Y-125016280D01*
X137259369Y-125043300D01*
X137245651Y-125044500D01*
X118812615Y-125044500D01*
X118761835Y-125026018D01*
X118734815Y-124979218D01*
X118744199Y-124926000D01*
X118756754Y-124909639D01*
X118828049Y-124838343D01*
X118828051Y-124838340D01*
X118885645Y-124725306D01*
X118885645Y-124725305D01*
X118885646Y-124725304D01*
X118900500Y-124631519D01*
X118900499Y-122968482D01*
X118885646Y-122874696D01*
X118828050Y-122761658D01*
X118828049Y-122761657D01*
X118828048Y-122761655D01*
X118738343Y-122671950D01*
X118735275Y-122670387D01*
X118733350Y-122668322D01*
X118733312Y-122668295D01*
X118733317Y-122668287D01*
X118698423Y-122630863D01*
X118695597Y-122576898D01*
X118728121Y-122533742D01*
X118735278Y-122529611D01*
X118738342Y-122528050D01*
X118828050Y-122438342D01*
X118885646Y-122325304D01*
X118900500Y-122231519D01*
X118900499Y-120568482D01*
X118885646Y-120474696D01*
X118828050Y-120361658D01*
X118828049Y-120361657D01*
X118828048Y-120361655D01*
X118738343Y-120271950D01*
X118738340Y-120271948D01*
X118625306Y-120214354D01*
X118625302Y-120214353D01*
X118531530Y-120199501D01*
X118531522Y-120199500D01*
X118531519Y-120199500D01*
X118531514Y-120199500D01*
X118378500Y-120199500D01*
X118327720Y-120181018D01*
X118300700Y-120134218D01*
X118299500Y-120120500D01*
X118299500Y-114992457D01*
X118317982Y-114941677D01*
X118322639Y-114936596D01*
X118677455Y-114581780D01*
X119035122Y-114224112D01*
X119084097Y-114201275D01*
X119136294Y-114215261D01*
X119146843Y-114224113D01*
X119168353Y-114245623D01*
X119168356Y-114245625D01*
X119168357Y-114245626D01*
X119307106Y-114327681D01*
X119461902Y-114372654D01*
X119498065Y-114375500D01*
X120101934Y-114375499D01*
X120138098Y-114372654D01*
X120292894Y-114327681D01*
X120431643Y-114245626D01*
X120478837Y-114198431D01*
X120527812Y-114175594D01*
X120580010Y-114189580D01*
G37*
%TD.AperFunction*%
%TA.AperFunction,Conductor*%
G36*
X121709499Y-108918982D02*
G01*
X121736519Y-108965782D01*
X121729108Y-109015365D01*
X121727274Y-109018964D01*
X121724352Y-109024698D01*
X121709501Y-109118469D01*
X121709500Y-109118485D01*
X121709500Y-110881515D01*
X121718763Y-110940005D01*
X121722580Y-110964105D01*
X121724354Y-110975302D01*
X121724353Y-110975302D01*
X121781951Y-111088344D01*
X121871656Y-111178049D01*
X121871659Y-111178051D01*
X121984693Y-111235645D01*
X121984695Y-111235645D01*
X121984696Y-111235646D01*
X122078481Y-111250500D01*
X123841518Y-111250499D01*
X123935304Y-111235646D01*
X124048342Y-111178050D01*
X124138050Y-111088342D01*
X124195646Y-110975304D01*
X124210500Y-110881519D01*
X124210499Y-110552732D01*
X124228981Y-110501955D01*
X124275781Y-110474935D01*
X124328999Y-110484319D01*
X124359888Y-110516870D01*
X124430473Y-110655400D01*
X124430480Y-110655411D01*
X124487201Y-110733480D01*
X124546172Y-110814646D01*
X124546176Y-110814650D01*
X124546181Y-110814656D01*
X124685343Y-110953818D01*
X124685349Y-110953823D01*
X124685354Y-110953828D01*
X124844595Y-111069524D01*
X124844599Y-111069526D01*
X125019959Y-111158877D01*
X125019968Y-111158880D01*
X125019975Y-111158884D01*
X125207174Y-111219709D01*
X125207180Y-111219709D01*
X125207184Y-111219711D01*
X125364091Y-111244561D01*
X125401583Y-111250500D01*
X125401588Y-111250500D01*
X125598412Y-111250500D01*
X125598417Y-111250500D01*
X125695621Y-111235104D01*
X125792815Y-111219711D01*
X125792817Y-111219710D01*
X125792826Y-111219709D01*
X125980025Y-111158884D01*
X125980034Y-111158879D01*
X125980040Y-111158877D01*
X126118476Y-111088340D01*
X126155405Y-111069524D01*
X126314646Y-110953828D01*
X126453828Y-110814646D01*
X126569524Y-110655405D01*
X126621837Y-110552735D01*
X126658877Y-110480040D01*
X126658879Y-110480034D01*
X126658884Y-110480025D01*
X126719709Y-110292826D01*
X126750500Y-110098417D01*
X126750500Y-109955591D01*
X126768982Y-109904811D01*
X126815782Y-109877791D01*
X126869000Y-109887175D01*
X126885361Y-109899730D01*
X131920216Y-114934586D01*
X131943054Y-114983562D01*
X131929068Y-115035760D01*
X131920217Y-115046308D01*
X131781176Y-115185349D01*
X131781166Y-115185361D01*
X131665480Y-115344588D01*
X131665473Y-115344599D01*
X131576122Y-115519959D01*
X131576115Y-115519977D01*
X131515293Y-115707165D01*
X131515288Y-115707184D01*
X131484501Y-115901571D01*
X131484500Y-115901587D01*
X131484500Y-116098412D01*
X131484501Y-116098428D01*
X131515288Y-116292815D01*
X131515293Y-116292834D01*
X131576115Y-116480022D01*
X131576122Y-116480040D01*
X131665473Y-116655400D01*
X131665476Y-116655405D01*
X131781172Y-116814646D01*
X131781176Y-116814650D01*
X131781181Y-116814656D01*
X131920343Y-116953818D01*
X131920349Y-116953823D01*
X131920354Y-116953828D01*
X132079595Y-117069524D01*
X132079599Y-117069526D01*
X132254959Y-117158877D01*
X132254968Y-117158880D01*
X132254975Y-117158884D01*
X132442174Y-117219709D01*
X132442180Y-117219709D01*
X132442184Y-117219711D01*
X132599091Y-117244561D01*
X132636583Y-117250500D01*
X132636588Y-117250500D01*
X132833412Y-117250500D01*
X132833417Y-117250500D01*
X132930621Y-117235104D01*
X133027815Y-117219711D01*
X133027817Y-117219710D01*
X133027826Y-117219709D01*
X133215025Y-117158884D01*
X133251497Y-117140301D01*
X133270634Y-117130550D01*
X133324271Y-117123964D01*
X133369592Y-117153395D01*
X133385500Y-117200939D01*
X133385500Y-120067541D01*
X133367018Y-120118321D01*
X133362361Y-120123403D01*
X133170662Y-120315101D01*
X133121686Y-120337938D01*
X133090389Y-120334373D01*
X133077827Y-120330291D01*
X133077815Y-120330288D01*
X132883428Y-120299501D01*
X132883420Y-120299500D01*
X132883417Y-120299500D01*
X132686583Y-120299500D01*
X132686580Y-120299500D01*
X132686571Y-120299501D01*
X132492184Y-120330288D01*
X132492165Y-120330293D01*
X132304977Y-120391115D01*
X132304959Y-120391122D01*
X132129599Y-120480473D01*
X132129588Y-120480480D01*
X131970361Y-120596166D01*
X131970343Y-120596181D01*
X131831181Y-120735343D01*
X131831166Y-120735361D01*
X131715480Y-120894588D01*
X131715473Y-120894599D01*
X131626122Y-121069959D01*
X131626115Y-121069977D01*
X131565293Y-121257165D01*
X131565288Y-121257184D01*
X131534501Y-121451571D01*
X131534500Y-121451587D01*
X131534500Y-121648418D01*
X131544266Y-121710081D01*
X131533954Y-121763127D01*
X131491957Y-121797134D01*
X131437926Y-121796190D01*
X131410377Y-121778299D01*
X130510294Y-120878215D01*
X130510287Y-120878209D01*
X130379180Y-120790607D01*
X130379179Y-120790606D01*
X130379176Y-120790605D01*
X130379175Y-120790604D01*
X130233499Y-120730263D01*
X130233497Y-120730262D01*
X130078842Y-120699500D01*
X127864300Y-120699500D01*
X127813520Y-120681018D01*
X127808439Y-120676361D01*
X127098638Y-119966560D01*
X127075800Y-119917584D01*
X127075499Y-119910699D01*
X127075499Y-119798073D01*
X127075499Y-119798066D01*
X127072654Y-119761902D01*
X127027681Y-119607106D01*
X126945626Y-119468357D01*
X126945625Y-119468356D01*
X126945623Y-119468353D01*
X126831646Y-119354376D01*
X126831643Y-119354374D01*
X126692896Y-119272320D01*
X126692895Y-119272319D01*
X126692894Y-119272319D01*
X126538098Y-119227346D01*
X126501935Y-119224500D01*
X126501927Y-119224500D01*
X125773073Y-119224500D01*
X125773072Y-119224500D01*
X125773066Y-119224501D01*
X125736902Y-119227346D01*
X125582106Y-119272319D01*
X125582104Y-119272319D01*
X125582104Y-119272320D01*
X125554747Y-119288499D01*
X125514533Y-119299500D01*
X124240458Y-119299500D01*
X124189678Y-119281018D01*
X124162658Y-119234218D01*
X124172042Y-119181000D01*
X124184596Y-119164639D01*
X124236627Y-119112606D01*
X124362209Y-118987024D01*
X124362219Y-118987017D01*
X124480518Y-118868718D01*
X124480520Y-118868716D01*
X124559577Y-118731784D01*
X124600500Y-118579057D01*
X124600500Y-117826812D01*
X124618982Y-117776032D01*
X124632585Y-117763251D01*
X124722150Y-117697150D01*
X124802793Y-117587882D01*
X124822105Y-117532690D01*
X124856321Y-117490864D01*
X124909418Y-117480817D01*
X124936169Y-117490365D01*
X125041871Y-117551392D01*
X125169165Y-117585500D01*
X125300950Y-117585500D01*
X126128699Y-117585500D01*
X126179479Y-117603982D01*
X126206499Y-117650782D01*
X126206721Y-117652108D01*
X126213854Y-117697150D01*
X126214354Y-117700302D01*
X126214353Y-117700302D01*
X126271951Y-117813344D01*
X126361656Y-117903049D01*
X126361659Y-117903051D01*
X126474693Y-117960645D01*
X126474695Y-117960645D01*
X126474696Y-117960646D01*
X126568481Y-117975500D01*
X130031518Y-117975499D01*
X130125304Y-117960646D01*
X130238342Y-117903050D01*
X130328050Y-117813342D01*
X130385646Y-117700304D01*
X130400500Y-117606519D01*
X130400499Y-116563482D01*
X130385646Y-116469696D01*
X130328050Y-116356658D01*
X130328049Y-116356657D01*
X130328048Y-116356655D01*
X130238343Y-116266950D01*
X130238340Y-116266948D01*
X130125306Y-116209354D01*
X130125302Y-116209353D01*
X130031530Y-116194501D01*
X130031522Y-116194500D01*
X130031519Y-116194500D01*
X130031514Y-116194500D01*
X126568484Y-116194500D01*
X126492345Y-116206558D01*
X126474696Y-116209354D01*
X126421543Y-116236437D01*
X126361655Y-116266951D01*
X126271950Y-116356656D01*
X126271948Y-116356659D01*
X126214354Y-116469693D01*
X126214353Y-116469697D01*
X126206725Y-116517859D01*
X126180526Y-116565122D01*
X126130076Y-116584488D01*
X126128698Y-116584500D01*
X125475093Y-116584500D01*
X125424313Y-116566018D01*
X125419242Y-116561371D01*
X125257371Y-116399500D01*
X125153532Y-116339548D01*
X125118796Y-116298151D01*
X125118796Y-116244112D01*
X125153531Y-116202716D01*
X125157371Y-116200500D01*
X126079181Y-115278689D01*
X126128156Y-115255852D01*
X126180353Y-115269838D01*
X126211349Y-115314104D01*
X126213068Y-115322189D01*
X126214352Y-115330299D01*
X126214353Y-115330302D01*
X126271951Y-115443344D01*
X126361656Y-115533049D01*
X126361659Y-115533051D01*
X126474693Y-115590645D01*
X126474695Y-115590645D01*
X126474696Y-115590646D01*
X126568481Y-115605500D01*
X130031518Y-115605499D01*
X130125304Y-115590646D01*
X130238342Y-115533050D01*
X130328050Y-115443342D01*
X130385646Y-115330304D01*
X130400500Y-115236519D01*
X130400499Y-114193482D01*
X130385646Y-114099696D01*
X130328050Y-113986658D01*
X130328049Y-113986657D01*
X130328048Y-113986655D01*
X130238343Y-113896950D01*
X130238340Y-113896948D01*
X130125306Y-113839354D01*
X130125302Y-113839353D01*
X130031530Y-113824501D01*
X130031522Y-113824500D01*
X130031519Y-113824500D01*
X130031514Y-113824500D01*
X126568484Y-113824500D01*
X126492345Y-113836558D01*
X126474696Y-113839354D01*
X126419213Y-113867623D01*
X126361655Y-113896951D01*
X126271950Y-113986656D01*
X126271948Y-113986659D01*
X126214354Y-114099693D01*
X126214353Y-114099697D01*
X126206725Y-114147859D01*
X126180526Y-114195122D01*
X126130076Y-114214488D01*
X126128698Y-114214500D01*
X125869162Y-114214500D01*
X125741873Y-114248607D01*
X125741869Y-114248608D01*
X125627740Y-114314501D01*
X124921774Y-115020467D01*
X124872798Y-115043305D01*
X124820600Y-115029319D01*
X124802350Y-115011517D01*
X124722151Y-114902851D01*
X124612882Y-114822207D01*
X124612875Y-114822203D01*
X124609433Y-114820999D01*
X124567607Y-114786782D01*
X124561763Y-114772914D01*
X124561558Y-114773000D01*
X124559578Y-114768220D01*
X124559577Y-114768216D01*
X124480520Y-114631284D01*
X124480519Y-114631283D01*
X124480518Y-114631281D01*
X123222529Y-113373294D01*
X123222517Y-113373280D01*
X123106218Y-113256981D01*
X123017422Y-113205715D01*
X122969286Y-113177923D01*
X122969284Y-113177922D01*
X122816557Y-113136999D01*
X122658443Y-113136999D01*
X122653607Y-113136999D01*
X122653591Y-113137000D01*
X121260321Y-113137000D01*
X121244113Y-113131101D01*
X121226934Y-113129598D01*
X121212809Y-113119707D01*
X121209541Y-113118518D01*
X121204460Y-113113861D01*
X121163893Y-113073294D01*
X121163881Y-113073280D01*
X121047582Y-112956981D01*
X120960768Y-112906860D01*
X120960767Y-112906858D01*
X120910648Y-112877922D01*
X120910649Y-112877922D01*
X120757921Y-112836999D01*
X120646066Y-112836999D01*
X120595286Y-112818517D01*
X120578067Y-112798213D01*
X120545625Y-112743356D01*
X120545623Y-112743353D01*
X120431646Y-112629376D01*
X120431643Y-112629374D01*
X120292896Y-112547320D01*
X120292895Y-112547319D01*
X120292894Y-112547319D01*
X120138098Y-112502346D01*
X120101935Y-112499500D01*
X120101927Y-112499500D01*
X119498073Y-112499500D01*
X119498072Y-112499500D01*
X119498066Y-112499501D01*
X119461902Y-112502346D01*
X119307103Y-112547320D01*
X119168356Y-112629374D01*
X119168353Y-112629376D01*
X119054376Y-112743353D01*
X119054374Y-112743356D01*
X119021933Y-112798213D01*
X118980175Y-112832513D01*
X118953934Y-112836999D01*
X118893442Y-112836999D01*
X118740715Y-112877922D01*
X118740713Y-112877923D01*
X118690595Y-112906860D01*
X118603783Y-112956980D01*
X118547882Y-113012882D01*
X118491980Y-113068784D01*
X118491978Y-113068786D01*
X117330286Y-114230478D01*
X117330284Y-114230480D01*
X117301191Y-114259573D01*
X117218480Y-114342283D01*
X117174476Y-114418501D01*
X117174468Y-114418514D01*
X117173834Y-114419614D01*
X117139423Y-114479215D01*
X117136864Y-114488763D01*
X117132564Y-114496797D01*
X117118813Y-114509108D01*
X117108227Y-114524227D01*
X117099237Y-114526635D01*
X117092304Y-114532843D01*
X117073855Y-114533435D01*
X117056028Y-114538212D01*
X117047594Y-114534279D01*
X117038292Y-114534578D01*
X117023778Y-114523173D01*
X117007054Y-114515374D01*
X116063639Y-113571959D01*
X116040801Y-113522983D01*
X116040500Y-113516098D01*
X116040500Y-111000697D01*
X116058982Y-110949917D01*
X116063639Y-110944836D01*
X116193818Y-110814656D01*
X116193828Y-110814646D01*
X116309524Y-110655405D01*
X116363941Y-110548604D01*
X116378468Y-110528608D01*
X116396789Y-110510289D01*
X116484394Y-110379179D01*
X116544737Y-110233497D01*
X116575500Y-110078842D01*
X116575500Y-109921158D01*
X116544737Y-109766503D01*
X116533403Y-109739141D01*
X116484395Y-109620824D01*
X116484394Y-109620821D01*
X116418907Y-109522813D01*
X116396790Y-109489712D01*
X116396789Y-109489711D01*
X116390208Y-109483130D01*
X116378468Y-109471390D01*
X116363941Y-109451396D01*
X116309524Y-109344595D01*
X116193828Y-109185354D01*
X116193823Y-109185349D01*
X116193818Y-109185343D01*
X116054656Y-109046181D01*
X116054641Y-109046168D01*
X116050846Y-109043411D01*
X116020629Y-108998610D01*
X116026279Y-108944867D01*
X116065153Y-108907329D01*
X116097283Y-108900500D01*
X121658719Y-108900500D01*
X121709499Y-108918982D01*
G37*
%TD.AperFunction*%
%TA.AperFunction,Conductor*%
G36*
X134173051Y-104586659D02*
G01*
X134188311Y-104586926D01*
X134197812Y-104595185D01*
X134209716Y-104599284D01*
X134217576Y-104612365D01*
X134229095Y-104622379D01*
X134236479Y-104643826D01*
X134237548Y-104645605D01*
X134238027Y-104648321D01*
X134259057Y-104781107D01*
X134259062Y-104781126D01*
X134317452Y-104960829D01*
X134317459Y-104960847D01*
X134403237Y-105129194D01*
X134403244Y-105129205D01*
X134490985Y-105249969D01*
X134514310Y-105282073D01*
X134514314Y-105282077D01*
X134514319Y-105282083D01*
X134647916Y-105415680D01*
X134647922Y-105415685D01*
X134647927Y-105415690D01*
X134800801Y-105526760D01*
X134800805Y-105526762D01*
X134969152Y-105612540D01*
X134969161Y-105612543D01*
X134969168Y-105612547D01*
X135148882Y-105670940D01*
X135148888Y-105670940D01*
X135148892Y-105670942D01*
X135335516Y-105700500D01*
X135335519Y-105700500D01*
X135524484Y-105700500D01*
X135711107Y-105670942D01*
X135711109Y-105670941D01*
X135711118Y-105670940D01*
X135890832Y-105612547D01*
X135965635Y-105574432D01*
X136019270Y-105567847D01*
X136064592Y-105597278D01*
X136080500Y-105644822D01*
X136080500Y-114029699D01*
X136062018Y-114080479D01*
X136057361Y-114085560D01*
X135416560Y-114726361D01*
X135367584Y-114749199D01*
X135360699Y-114749500D01*
X134665500Y-114749500D01*
X134614720Y-114731018D01*
X134587700Y-114684218D01*
X134586500Y-114670500D01*
X134586500Y-111134945D01*
X134586500Y-111134943D01*
X134545577Y-110982216D01*
X134541586Y-110975304D01*
X134487440Y-110881519D01*
X134466520Y-110845284D01*
X134354716Y-110733480D01*
X134354713Y-110733478D01*
X134351957Y-110730722D01*
X134351957Y-110730721D01*
X134351951Y-110730716D01*
X134162639Y-110541404D01*
X134139801Y-110492428D01*
X134139500Y-110485543D01*
X134139500Y-109033821D01*
X134157982Y-108983041D01*
X134162627Y-108977971D01*
X134512209Y-108628388D01*
X134512219Y-108628381D01*
X134630518Y-108510082D01*
X134630520Y-108510080D01*
X134709577Y-108373148D01*
X134750500Y-108220421D01*
X134750500Y-106736119D01*
X134763815Y-106692228D01*
X134770772Y-106681815D01*
X134770775Y-106681811D01*
X134823580Y-106554328D01*
X134850500Y-106418993D01*
X134850500Y-106281007D01*
X134823580Y-106145672D01*
X134770775Y-106018189D01*
X134694114Y-105903458D01*
X134694109Y-105903452D01*
X134596547Y-105805890D01*
X134596540Y-105805884D01*
X134481811Y-105729225D01*
X134481805Y-105729222D01*
X134354330Y-105676420D01*
X134354328Y-105676419D01*
X134218993Y-105649500D01*
X134081007Y-105649500D01*
X133945671Y-105676419D01*
X133945669Y-105676420D01*
X133818194Y-105729222D01*
X133818188Y-105729225D01*
X133703459Y-105805884D01*
X133703452Y-105805890D01*
X133605890Y-105903452D01*
X133605884Y-105903459D01*
X133529225Y-106018188D01*
X133529222Y-106018194D01*
X133476420Y-106145669D01*
X133476419Y-106145671D01*
X133449500Y-106281007D01*
X133449500Y-106418992D01*
X133476419Y-106554328D01*
X133476420Y-106554330D01*
X133529223Y-106681808D01*
X133529227Y-106681815D01*
X133536185Y-106692228D01*
X133549500Y-106736119D01*
X133549500Y-107859906D01*
X133531018Y-107910686D01*
X133526361Y-107915767D01*
X133221710Y-108220418D01*
X133170286Y-108271842D01*
X133170284Y-108271844D01*
X133114382Y-108327746D01*
X133058480Y-108383647D01*
X133038220Y-108418740D01*
X132979423Y-108520577D01*
X132979422Y-108520579D01*
X132938499Y-108673306D01*
X132937823Y-108678443D01*
X132935709Y-108678164D01*
X132920017Y-108721280D01*
X132873217Y-108748300D01*
X132859499Y-108749500D01*
X131740036Y-108749500D01*
X131689256Y-108731018D01*
X131684175Y-108726361D01*
X129355316Y-106397501D01*
X129241187Y-106331608D01*
X129241183Y-106331607D01*
X129113894Y-106297500D01*
X129113892Y-106297500D01*
X118560275Y-106297500D01*
X118509495Y-106279018D01*
X118504414Y-106274361D01*
X117999538Y-105769484D01*
X117976700Y-105720508D01*
X117990686Y-105668310D01*
X118030983Y-105638491D01*
X118110832Y-105612547D01*
X118110841Y-105612542D01*
X118110847Y-105612540D01*
X118201754Y-105566219D01*
X118279199Y-105526760D01*
X118432073Y-105415690D01*
X118565690Y-105282073D01*
X118676760Y-105129199D01*
X118716219Y-105051754D01*
X118762540Y-104960847D01*
X118762542Y-104960841D01*
X118762547Y-104960832D01*
X118820940Y-104781118D01*
X118841973Y-104648321D01*
X118868171Y-104601057D01*
X118918621Y-104581691D01*
X118969716Y-104599284D01*
X118997548Y-104645605D01*
X118998027Y-104648321D01*
X119019057Y-104781107D01*
X119019062Y-104781126D01*
X119077452Y-104960829D01*
X119077459Y-104960847D01*
X119163237Y-105129194D01*
X119163244Y-105129205D01*
X119250985Y-105249969D01*
X119274310Y-105282073D01*
X119274314Y-105282077D01*
X119274319Y-105282083D01*
X119407916Y-105415680D01*
X119407922Y-105415685D01*
X119407927Y-105415690D01*
X119560801Y-105526760D01*
X119560805Y-105526762D01*
X119729152Y-105612540D01*
X119729161Y-105612543D01*
X119729168Y-105612547D01*
X119908882Y-105670940D01*
X119908888Y-105670940D01*
X119908892Y-105670942D01*
X120095516Y-105700500D01*
X120095519Y-105700500D01*
X120284484Y-105700500D01*
X120471107Y-105670942D01*
X120471109Y-105670941D01*
X120471118Y-105670940D01*
X120650832Y-105612547D01*
X120650841Y-105612542D01*
X120650847Y-105612540D01*
X120741754Y-105566219D01*
X120819199Y-105526760D01*
X120972073Y-105415690D01*
X121105690Y-105282073D01*
X121216760Y-105129199D01*
X121256219Y-105051754D01*
X121302540Y-104960847D01*
X121302542Y-104960841D01*
X121302547Y-104960832D01*
X121360940Y-104781118D01*
X121381973Y-104648321D01*
X121408171Y-104601057D01*
X121458621Y-104581691D01*
X121509716Y-104599284D01*
X121537548Y-104645605D01*
X121538027Y-104648321D01*
X121559057Y-104781107D01*
X121559062Y-104781126D01*
X121617452Y-104960829D01*
X121617459Y-104960847D01*
X121703237Y-105129194D01*
X121703244Y-105129205D01*
X121790985Y-105249969D01*
X121814310Y-105282073D01*
X121814314Y-105282077D01*
X121814319Y-105282083D01*
X121947916Y-105415680D01*
X121947922Y-105415685D01*
X121947927Y-105415690D01*
X122100801Y-105526760D01*
X122100805Y-105526762D01*
X122269152Y-105612540D01*
X122269161Y-105612543D01*
X122269168Y-105612547D01*
X122448882Y-105670940D01*
X122448888Y-105670940D01*
X122448892Y-105670942D01*
X122635516Y-105700500D01*
X122635519Y-105700500D01*
X122824484Y-105700500D01*
X123011107Y-105670942D01*
X123011109Y-105670941D01*
X123011118Y-105670940D01*
X123190832Y-105612547D01*
X123190841Y-105612542D01*
X123190847Y-105612540D01*
X123281754Y-105566219D01*
X123359199Y-105526760D01*
X123512073Y-105415690D01*
X123645690Y-105282073D01*
X123756760Y-105129199D01*
X123796219Y-105051754D01*
X123842540Y-104960847D01*
X123842542Y-104960841D01*
X123842547Y-104960832D01*
X123900940Y-104781118D01*
X123921973Y-104648321D01*
X123948171Y-104601057D01*
X123998621Y-104581691D01*
X124049716Y-104599284D01*
X124077548Y-104645605D01*
X124078027Y-104648321D01*
X124099057Y-104781107D01*
X124099062Y-104781126D01*
X124157452Y-104960829D01*
X124157459Y-104960847D01*
X124243237Y-105129194D01*
X124243244Y-105129205D01*
X124330985Y-105249969D01*
X124354310Y-105282073D01*
X124354314Y-105282077D01*
X124354319Y-105282083D01*
X124487916Y-105415680D01*
X124487922Y-105415685D01*
X124487927Y-105415690D01*
X124640801Y-105526760D01*
X124640805Y-105526762D01*
X124809152Y-105612540D01*
X124809161Y-105612543D01*
X124809168Y-105612547D01*
X124988882Y-105670940D01*
X124988888Y-105670940D01*
X124988892Y-105670942D01*
X125175516Y-105700500D01*
X125175519Y-105700500D01*
X125364484Y-105700500D01*
X125551107Y-105670942D01*
X125551109Y-105670941D01*
X125551118Y-105670940D01*
X125730832Y-105612547D01*
X125730841Y-105612542D01*
X125730847Y-105612540D01*
X125821754Y-105566219D01*
X125899199Y-105526760D01*
X126052073Y-105415690D01*
X126185690Y-105282073D01*
X126296760Y-105129199D01*
X126336219Y-105051754D01*
X126382540Y-104960847D01*
X126382542Y-104960841D01*
X126382547Y-104960832D01*
X126440940Y-104781118D01*
X126461973Y-104648321D01*
X126488171Y-104601057D01*
X126538621Y-104581691D01*
X126589716Y-104599284D01*
X126617548Y-104645605D01*
X126618027Y-104648321D01*
X126639057Y-104781107D01*
X126639062Y-104781126D01*
X126697452Y-104960829D01*
X126697459Y-104960847D01*
X126783237Y-105129194D01*
X126783244Y-105129205D01*
X126870985Y-105249969D01*
X126894310Y-105282073D01*
X126894314Y-105282077D01*
X126894319Y-105282083D01*
X127027916Y-105415680D01*
X127027922Y-105415685D01*
X127027927Y-105415690D01*
X127180801Y-105526760D01*
X127180805Y-105526762D01*
X127349152Y-105612540D01*
X127349161Y-105612543D01*
X127349168Y-105612547D01*
X127528882Y-105670940D01*
X127528888Y-105670940D01*
X127528892Y-105670942D01*
X127715516Y-105700500D01*
X127715519Y-105700500D01*
X127904484Y-105700500D01*
X128091107Y-105670942D01*
X128091109Y-105670941D01*
X128091118Y-105670940D01*
X128270832Y-105612547D01*
X128270841Y-105612542D01*
X128270847Y-105612540D01*
X128361754Y-105566219D01*
X128439199Y-105526760D01*
X128592073Y-105415690D01*
X128725690Y-105282073D01*
X128836760Y-105129199D01*
X128876219Y-105051754D01*
X128922540Y-104960847D01*
X128922542Y-104960841D01*
X128922547Y-104960832D01*
X128980940Y-104781118D01*
X129001973Y-104648321D01*
X129028171Y-104601057D01*
X129078621Y-104581691D01*
X129129716Y-104599284D01*
X129157548Y-104645605D01*
X129158027Y-104648321D01*
X129179057Y-104781107D01*
X129179062Y-104781126D01*
X129237452Y-104960829D01*
X129237459Y-104960847D01*
X129323237Y-105129194D01*
X129323244Y-105129205D01*
X129410985Y-105249969D01*
X129434310Y-105282073D01*
X129434314Y-105282077D01*
X129434319Y-105282083D01*
X129567916Y-105415680D01*
X129567922Y-105415685D01*
X129567927Y-105415690D01*
X129720801Y-105526760D01*
X129720805Y-105526762D01*
X129889152Y-105612540D01*
X129889161Y-105612543D01*
X129889168Y-105612547D01*
X130068882Y-105670940D01*
X130068888Y-105670940D01*
X130068892Y-105670942D01*
X130255516Y-105700500D01*
X130255519Y-105700500D01*
X130444484Y-105700500D01*
X130631107Y-105670942D01*
X130631109Y-105670941D01*
X130631118Y-105670940D01*
X130810832Y-105612547D01*
X130810841Y-105612542D01*
X130810847Y-105612540D01*
X130901754Y-105566219D01*
X130979199Y-105526760D01*
X131132073Y-105415690D01*
X131265690Y-105282073D01*
X131376760Y-105129199D01*
X131416219Y-105051754D01*
X131462540Y-104960847D01*
X131462542Y-104960841D01*
X131462547Y-104960832D01*
X131520940Y-104781118D01*
X131541973Y-104648321D01*
X131568171Y-104601057D01*
X131618621Y-104581691D01*
X131669716Y-104599284D01*
X131697548Y-104645605D01*
X131698027Y-104648321D01*
X131719057Y-104781107D01*
X131719062Y-104781126D01*
X131777452Y-104960829D01*
X131777459Y-104960847D01*
X131863237Y-105129194D01*
X131863244Y-105129205D01*
X131950985Y-105249969D01*
X131974310Y-105282073D01*
X131974314Y-105282077D01*
X131974319Y-105282083D01*
X132107916Y-105415680D01*
X132107922Y-105415685D01*
X132107927Y-105415690D01*
X132260801Y-105526760D01*
X132260805Y-105526762D01*
X132429152Y-105612540D01*
X132429161Y-105612543D01*
X132429168Y-105612547D01*
X132608882Y-105670940D01*
X132608888Y-105670940D01*
X132608892Y-105670942D01*
X132795516Y-105700500D01*
X132795519Y-105700500D01*
X132984484Y-105700500D01*
X133171107Y-105670942D01*
X133171109Y-105670941D01*
X133171118Y-105670940D01*
X133350832Y-105612547D01*
X133350841Y-105612542D01*
X133350847Y-105612540D01*
X133441754Y-105566219D01*
X133519199Y-105526760D01*
X133672073Y-105415690D01*
X133805690Y-105282073D01*
X133916760Y-105129199D01*
X133956219Y-105051754D01*
X134002540Y-104960847D01*
X134002542Y-104960841D01*
X134002547Y-104960832D01*
X134060940Y-104781118D01*
X134081973Y-104648321D01*
X134089371Y-104634972D01*
X134092284Y-104619991D01*
X134102067Y-104612068D01*
X134108171Y-104601057D01*
X134122419Y-104595587D01*
X134134280Y-104585983D01*
X134146867Y-104586202D01*
X134158621Y-104581691D01*
X134173051Y-104586659D01*
G37*
%TD.AperFunction*%
%TA.AperFunction,Conductor*%
G36*
X128858744Y-107316982D02*
G01*
X128863825Y-107321639D01*
X130976361Y-109434175D01*
X130999199Y-109483151D01*
X130999500Y-109490036D01*
X130999500Y-110881515D01*
X131008763Y-110940005D01*
X131012580Y-110964105D01*
X131014354Y-110975302D01*
X131014353Y-110975302D01*
X131071951Y-111088344D01*
X131161656Y-111178049D01*
X131161659Y-111178051D01*
X131274693Y-111235645D01*
X131274695Y-111235645D01*
X131274696Y-111235646D01*
X131368481Y-111250500D01*
X133131518Y-111250499D01*
X133131522Y-111250499D01*
X133133911Y-111250311D01*
X133134588Y-111250499D01*
X133134622Y-111250499D01*
X133134622Y-111250508D01*
X133185985Y-111264751D01*
X133195971Y-111273206D01*
X133362361Y-111439596D01*
X133385199Y-111488572D01*
X133385500Y-111495457D01*
X133385500Y-114531000D01*
X133367018Y-114581780D01*
X133320218Y-114608800D01*
X133267000Y-114599416D01*
X133238084Y-114570500D01*
X133235184Y-114565477D01*
X133215520Y-114531418D01*
X133215519Y-114531417D01*
X133215518Y-114531415D01*
X126117462Y-107433361D01*
X126094624Y-107384385D01*
X126108610Y-107332187D01*
X126152876Y-107301192D01*
X126173323Y-107298500D01*
X128807964Y-107298500D01*
X128858744Y-107316982D01*
G37*
%TD.AperFunction*%
%TA.AperFunction,Conductor*%
G36*
X113242592Y-101336800D02*
G01*
X113258500Y-101384344D01*
X113258500Y-104934272D01*
X113258499Y-104934290D01*
X113258499Y-105097239D01*
X113299422Y-105249967D01*
X113299423Y-105249969D01*
X113314040Y-105275284D01*
X113317955Y-105282065D01*
X113317958Y-105282069D01*
X113317959Y-105282073D01*
X113317960Y-105282073D01*
X113378481Y-105386900D01*
X113494780Y-105503199D01*
X113494794Y-105503211D01*
X115156221Y-107164639D01*
X115179059Y-107213615D01*
X115165073Y-107265813D01*
X115120807Y-107296808D01*
X115100360Y-107299500D01*
X113632300Y-107299500D01*
X113581520Y-107281018D01*
X113576439Y-107276361D01*
X111942639Y-105642561D01*
X111919801Y-105593585D01*
X111919500Y-105586700D01*
X111919500Y-102130300D01*
X111937982Y-102079520D01*
X111942639Y-102074439D01*
X112528439Y-101488639D01*
X112577415Y-101465801D01*
X112584300Y-101465500D01*
X112660541Y-101465500D01*
X112660546Y-101465500D01*
X112749977Y-101451335D01*
X112839398Y-101437173D01*
X112839400Y-101437172D01*
X112839409Y-101437171D01*
X112955350Y-101399500D01*
X113011633Y-101381213D01*
X113011633Y-101381212D01*
X113011639Y-101381211D01*
X113143635Y-101313954D01*
X113197270Y-101307369D01*
X113242592Y-101336800D01*
G37*
%TD.AperFunction*%
%TA.AperFunction,Conductor*%
G36*
X120494788Y-98532519D02*
G01*
X120515001Y-98536084D01*
X120519582Y-98541544D01*
X120526281Y-98543982D01*
X120536542Y-98561756D01*
X120549737Y-98577480D01*
X120551546Y-98587743D01*
X120553301Y-98590782D01*
X120554501Y-98604500D01*
X120554501Y-98710379D01*
X120554500Y-98710379D01*
X120560908Y-98769979D01*
X120560909Y-98769985D01*
X120611202Y-98904829D01*
X120611205Y-98904834D01*
X120688404Y-99007958D01*
X120704040Y-99059685D01*
X120682768Y-99109362D01*
X120681023Y-99111162D01*
X120262295Y-99529891D01*
X119882686Y-99909500D01*
X119845646Y-99946540D01*
X119789500Y-100002685D01*
X119723608Y-100116812D01*
X119723607Y-100116816D01*
X119689500Y-100244105D01*
X119689500Y-103359253D01*
X119671018Y-103410033D01*
X119646366Y-103429642D01*
X119560800Y-103473240D01*
X119560794Y-103473244D01*
X119407934Y-103584304D01*
X119407916Y-103584319D01*
X119274319Y-103717916D01*
X119274304Y-103717934D01*
X119163244Y-103870794D01*
X119163237Y-103870805D01*
X119077459Y-104039152D01*
X119077452Y-104039170D01*
X119019062Y-104218873D01*
X119019057Y-104218892D01*
X118998027Y-104351678D01*
X118971829Y-104398942D01*
X118921379Y-104418308D01*
X118870284Y-104400715D01*
X118842451Y-104354394D01*
X118841973Y-104351678D01*
X118820942Y-104218892D01*
X118820940Y-104218888D01*
X118820940Y-104218882D01*
X118762547Y-104039168D01*
X118762543Y-104039161D01*
X118762540Y-104039152D01*
X118676762Y-103870805D01*
X118676760Y-103870801D01*
X118671960Y-103864195D01*
X118565695Y-103717934D01*
X118565690Y-103717927D01*
X118565685Y-103717922D01*
X118565680Y-103717916D01*
X118432083Y-103584319D01*
X118432077Y-103584314D01*
X118432073Y-103584310D01*
X118406572Y-103565782D01*
X118279205Y-103473244D01*
X118279199Y-103473240D01*
X118193634Y-103429642D01*
X118156780Y-103390120D01*
X118150500Y-103359253D01*
X118150500Y-99590036D01*
X118168982Y-99539256D01*
X118173639Y-99534175D01*
X119159175Y-98548639D01*
X119208151Y-98525801D01*
X119215036Y-98525500D01*
X120475501Y-98525500D01*
X120494788Y-98532519D01*
G37*
%TD.AperFunction*%
%TA.AperFunction,Conductor*%
G36*
X121920813Y-99379323D02*
G01*
X121951808Y-99423589D01*
X121954500Y-99444036D01*
X121954500Y-101420894D01*
X121988607Y-101548183D01*
X121988608Y-101548187D01*
X122054501Y-101662316D01*
X123696736Y-103304549D01*
X123696741Y-103304555D01*
X123696742Y-103304555D01*
X123699498Y-103307311D01*
X123699500Y-103307314D01*
X123792686Y-103400500D01*
X123906575Y-103466254D01*
X123906814Y-103466392D01*
X123906816Y-103466393D01*
X123990128Y-103488716D01*
X124034107Y-103500500D01*
X124034108Y-103500500D01*
X124381014Y-103500500D01*
X124431794Y-103518982D01*
X124458814Y-103565782D01*
X124449430Y-103619000D01*
X124436875Y-103635361D01*
X124354319Y-103717916D01*
X124354304Y-103717934D01*
X124243244Y-103870794D01*
X124243237Y-103870805D01*
X124157459Y-104039152D01*
X124157452Y-104039170D01*
X124099062Y-104218873D01*
X124099057Y-104218892D01*
X124078027Y-104351678D01*
X124051829Y-104398942D01*
X124001379Y-104418308D01*
X123950284Y-104400715D01*
X123922451Y-104354394D01*
X123921973Y-104351678D01*
X123900942Y-104218892D01*
X123900940Y-104218888D01*
X123900940Y-104218882D01*
X123842547Y-104039168D01*
X123842543Y-104039161D01*
X123842540Y-104039152D01*
X123756762Y-103870805D01*
X123756760Y-103870801D01*
X123751960Y-103864195D01*
X123645695Y-103717934D01*
X123645690Y-103717927D01*
X123645685Y-103717922D01*
X123645680Y-103717916D01*
X123512083Y-103584319D01*
X123512077Y-103584314D01*
X123512073Y-103584310D01*
X123486572Y-103565782D01*
X123359205Y-103473244D01*
X123359194Y-103473237D01*
X123190847Y-103387459D01*
X123190829Y-103387452D01*
X123011126Y-103329062D01*
X123011107Y-103329057D01*
X122824484Y-103299500D01*
X122824481Y-103299500D01*
X122635519Y-103299500D01*
X122635516Y-103299500D01*
X122448892Y-103329057D01*
X122448873Y-103329062D01*
X122269170Y-103387452D01*
X122269152Y-103387459D01*
X122100805Y-103473237D01*
X122100794Y-103473244D01*
X121947934Y-103584304D01*
X121947916Y-103584319D01*
X121814319Y-103717916D01*
X121814304Y-103717934D01*
X121703244Y-103870794D01*
X121703237Y-103870805D01*
X121617459Y-104039152D01*
X121617452Y-104039170D01*
X121559062Y-104218873D01*
X121559057Y-104218892D01*
X121538027Y-104351678D01*
X121511829Y-104398942D01*
X121461379Y-104418308D01*
X121410284Y-104400715D01*
X121382451Y-104354394D01*
X121381973Y-104351678D01*
X121360942Y-104218892D01*
X121360940Y-104218888D01*
X121360940Y-104218882D01*
X121302547Y-104039168D01*
X121302543Y-104039161D01*
X121302540Y-104039152D01*
X121216762Y-103870805D01*
X121216760Y-103870801D01*
X121211960Y-103864195D01*
X121105695Y-103717934D01*
X121105690Y-103717927D01*
X121105685Y-103717922D01*
X121105680Y-103717916D01*
X120972083Y-103584319D01*
X120972077Y-103584314D01*
X120972073Y-103584310D01*
X120946572Y-103565782D01*
X120819205Y-103473244D01*
X120819199Y-103473240D01*
X120733634Y-103429642D01*
X120696780Y-103390120D01*
X120690500Y-103359253D01*
X120690500Y-100550036D01*
X120708982Y-100499256D01*
X120713639Y-100494175D01*
X121819639Y-99388175D01*
X121868615Y-99365337D01*
X121920813Y-99379323D01*
G37*
%TD.AperFunction*%
%TA.AperFunction,Conductor*%
G36*
X137296431Y-62853700D02*
G01*
X137323451Y-62900500D01*
X137324651Y-62914218D01*
X137324651Y-101751850D01*
X137306169Y-101802630D01*
X137259369Y-101829650D01*
X137206151Y-101820266D01*
X137189790Y-101807711D01*
X136760294Y-101378215D01*
X136760287Y-101378209D01*
X136664123Y-101313955D01*
X136629179Y-101290606D01*
X136629176Y-101290605D01*
X136629175Y-101290604D01*
X136483499Y-101230263D01*
X136483497Y-101230262D01*
X136343442Y-101202404D01*
X136297243Y-101174370D01*
X136279873Y-101123199D01*
X136299459Y-101072834D01*
X136302982Y-101069071D01*
X136307553Y-101064501D01*
X136413996Y-100917994D01*
X136496211Y-100756639D01*
X136552171Y-100584409D01*
X136580500Y-100405546D01*
X136580500Y-100224454D01*
X136564079Y-100120774D01*
X136552173Y-100045601D01*
X136552171Y-100045596D01*
X136552171Y-100045591D01*
X136552167Y-100045578D01*
X136496213Y-99873366D01*
X136496206Y-99873350D01*
X136450809Y-99784255D01*
X136413996Y-99712006D01*
X136307553Y-99565499D01*
X136307548Y-99565494D01*
X136307543Y-99565488D01*
X136179511Y-99437456D01*
X136179505Y-99437451D01*
X136179501Y-99437447D01*
X136170637Y-99431007D01*
X136033000Y-99331008D01*
X136032994Y-99331004D01*
X135871649Y-99248793D01*
X135871633Y-99248786D01*
X135699421Y-99192832D01*
X135699398Y-99192826D01*
X135520557Y-99164501D01*
X135520549Y-99164500D01*
X135520546Y-99164500D01*
X135339454Y-99164500D01*
X135339451Y-99164500D01*
X135339442Y-99164501D01*
X135160601Y-99192826D01*
X135160578Y-99192832D01*
X134988366Y-99248786D01*
X134988350Y-99248793D01*
X134827005Y-99331004D01*
X134826999Y-99331008D01*
X134680506Y-99437441D01*
X134680488Y-99437456D01*
X134552456Y-99565488D01*
X134552441Y-99565506D01*
X134446008Y-99711999D01*
X134446004Y-99712005D01*
X134363793Y-99873350D01*
X134363786Y-99873366D01*
X134307832Y-100045578D01*
X134307826Y-100045601D01*
X134279501Y-100224442D01*
X134279500Y-100224458D01*
X134279500Y-100405541D01*
X134279501Y-100405557D01*
X134307826Y-100584398D01*
X134307832Y-100584421D01*
X134363786Y-100756633D01*
X134363793Y-100756649D01*
X134414773Y-100856700D01*
X134446004Y-100917994D01*
X134552447Y-101064501D01*
X134552448Y-101064502D01*
X134552456Y-101064511D01*
X134680488Y-101192543D01*
X134680493Y-101192547D01*
X134680499Y-101192553D01*
X134796936Y-101277149D01*
X134827153Y-101321948D01*
X134829500Y-101341060D01*
X134829500Y-102038541D01*
X134811018Y-102089321D01*
X134806361Y-102094403D01*
X134612673Y-102288090D01*
X134572227Y-102309709D01*
X134559941Y-102312153D01*
X134559931Y-102312156D01*
X134432459Y-102364957D01*
X134432453Y-102364960D01*
X134317724Y-102441619D01*
X134254439Y-102504904D01*
X134205463Y-102527741D01*
X134153265Y-102513755D01*
X134142717Y-102504903D01*
X133037316Y-101399501D01*
X132923187Y-101333608D01*
X132923183Y-101333607D01*
X132795894Y-101299500D01*
X132795892Y-101299500D01*
X130985582Y-101299500D01*
X130946082Y-101288916D01*
X130850287Y-101233608D01*
X130850283Y-101233607D01*
X130722994Y-101199500D01*
X130722992Y-101199500D01*
X130399036Y-101199500D01*
X130348256Y-101181018D01*
X130321236Y-101134218D01*
X130330620Y-101081000D01*
X130343175Y-101064639D01*
X131184174Y-100223639D01*
X131233150Y-100200801D01*
X131240035Y-100200500D01*
X131268993Y-100200500D01*
X131404328Y-100173580D01*
X131404330Y-100173579D01*
X131531811Y-100120775D01*
X131646542Y-100044114D01*
X131744114Y-99946542D01*
X131820775Y-99831811D01*
X131873580Y-99704328D01*
X131900500Y-99568993D01*
X131900500Y-99431007D01*
X131880608Y-99331004D01*
X131873580Y-99295671D01*
X131873579Y-99295669D01*
X131820777Y-99168194D01*
X131820774Y-99168188D01*
X131818310Y-99164501D01*
X131744114Y-99053458D01*
X131744109Y-99053452D01*
X131680124Y-98989467D01*
X131657286Y-98940491D01*
X131671272Y-98888293D01*
X131680118Y-98877751D01*
X134507047Y-96050822D01*
X134556022Y-96027985D01*
X134608220Y-96041971D01*
X134618768Y-96050823D01*
X134680488Y-96112543D01*
X134680494Y-96112548D01*
X134680499Y-96112553D01*
X134827006Y-96218996D01*
X134899255Y-96255809D01*
X134988350Y-96301206D01*
X134988366Y-96301213D01*
X135160578Y-96357167D01*
X135160581Y-96357167D01*
X135160591Y-96357171D01*
X135160596Y-96357171D01*
X135160601Y-96357173D01*
X135304963Y-96380037D01*
X135339454Y-96385500D01*
X135339459Y-96385500D01*
X135520541Y-96385500D01*
X135520546Y-96385500D01*
X135609977Y-96371335D01*
X135699398Y-96357173D01*
X135699400Y-96357172D01*
X135699409Y-96357171D01*
X135871639Y-96301211D01*
X136032994Y-96218996D01*
X136179501Y-96112553D01*
X136307553Y-95984501D01*
X136413996Y-95837994D01*
X136496211Y-95676639D01*
X136552171Y-95504409D01*
X136580500Y-95325546D01*
X136580500Y-95144454D01*
X136552171Y-94965591D01*
X136496211Y-94793361D01*
X136496209Y-94793358D01*
X136496206Y-94793350D01*
X136413995Y-94632005D01*
X136413991Y-94631999D01*
X136360602Y-94558515D01*
X136307553Y-94485499D01*
X136307548Y-94485494D01*
X136307543Y-94485488D01*
X136179511Y-94357456D01*
X136179505Y-94357451D01*
X136179501Y-94357447D01*
X136179493Y-94357441D01*
X136033000Y-94251008D01*
X136032994Y-94251004D01*
X135871649Y-94168793D01*
X135871633Y-94168786D01*
X135699421Y-94112832D01*
X135699398Y-94112826D01*
X135520557Y-94084501D01*
X135520549Y-94084500D01*
X135520546Y-94084500D01*
X135339454Y-94084500D01*
X135339451Y-94084500D01*
X135339442Y-94084501D01*
X135160601Y-94112826D01*
X135160578Y-94112832D01*
X134988366Y-94168786D01*
X134988350Y-94168793D01*
X134827005Y-94251004D01*
X134826999Y-94251008D01*
X134680506Y-94357441D01*
X134680488Y-94357456D01*
X134552456Y-94485488D01*
X134552441Y-94485506D01*
X134446008Y-94631999D01*
X134446004Y-94632005D01*
X134368074Y-94784950D01*
X134337187Y-94817499D01*
X134307741Y-94834500D01*
X130602382Y-98539861D01*
X130553406Y-98562699D01*
X130546521Y-98563000D01*
X130284500Y-98563000D01*
X130233720Y-98544518D01*
X130206700Y-98497718D01*
X130205500Y-98484000D01*
X130205499Y-98165035D01*
X130223981Y-98114255D01*
X130228627Y-98109185D01*
X134681882Y-93655930D01*
X134730857Y-93633093D01*
X134783055Y-93647079D01*
X134784177Y-93647879D01*
X134827006Y-93678996D01*
X134988350Y-93761206D01*
X134988366Y-93761213D01*
X135160578Y-93817167D01*
X135160581Y-93817167D01*
X135160591Y-93817171D01*
X135160596Y-93817171D01*
X135160601Y-93817173D01*
X135304963Y-93840037D01*
X135339454Y-93845500D01*
X135339459Y-93845500D01*
X135520541Y-93845500D01*
X135520546Y-93845500D01*
X135609977Y-93831335D01*
X135699398Y-93817173D01*
X135699400Y-93817172D01*
X135699409Y-93817171D01*
X135871639Y-93761211D01*
X136032994Y-93678996D01*
X136179501Y-93572553D01*
X136307553Y-93444501D01*
X136413996Y-93297994D01*
X136496211Y-93136639D01*
X136508028Y-93100271D01*
X136545305Y-92985540D01*
X136552171Y-92964409D01*
X136580500Y-92785546D01*
X136580500Y-92604454D01*
X136552171Y-92425591D01*
X136537106Y-92379224D01*
X136496213Y-92253366D01*
X136496206Y-92253350D01*
X136436924Y-92137004D01*
X136413996Y-92092006D01*
X136410442Y-92087115D01*
X136307558Y-91945506D01*
X136307553Y-91945499D01*
X136307548Y-91945494D01*
X136307543Y-91945488D01*
X136179511Y-91817456D01*
X136179505Y-91817451D01*
X136179501Y-91817447D01*
X136158149Y-91801934D01*
X136033000Y-91711008D01*
X136032994Y-91711004D01*
X135871649Y-91628793D01*
X135871633Y-91628786D01*
X135699421Y-91572832D01*
X135699398Y-91572826D01*
X135520557Y-91544501D01*
X135520549Y-91544500D01*
X135520546Y-91544500D01*
X135339454Y-91544500D01*
X135339451Y-91544500D01*
X135339442Y-91544501D01*
X135160601Y-91572826D01*
X135160578Y-91572832D01*
X134988366Y-91628786D01*
X134988350Y-91628793D01*
X134827005Y-91711004D01*
X134826999Y-91711008D01*
X134680506Y-91817441D01*
X134680488Y-91817456D01*
X134552456Y-91945488D01*
X134552441Y-91945506D01*
X134446008Y-92091999D01*
X134446004Y-92092005D01*
X134363793Y-92253350D01*
X134363786Y-92253366D01*
X134307832Y-92425578D01*
X134307826Y-92425601D01*
X134279501Y-92604442D01*
X134279500Y-92604458D01*
X134279500Y-92609963D01*
X134261018Y-92660743D01*
X134256361Y-92665824D01*
X130005918Y-96916266D01*
X129956942Y-96939104D01*
X129922450Y-96934424D01*
X129812481Y-96893408D01*
X129812483Y-96893408D01*
X129752879Y-96887000D01*
X129457121Y-96887000D01*
X129457120Y-96887001D01*
X129397525Y-96893407D01*
X129397516Y-96893409D01*
X129359197Y-96907701D01*
X129307609Y-96926942D01*
X129307606Y-96926943D01*
X129253569Y-96927370D01*
X129252393Y-96926942D01*
X129162488Y-96893410D01*
X129162483Y-96893409D01*
X129162480Y-96893408D01*
X129162476Y-96893408D01*
X129102879Y-96887000D01*
X128884500Y-96887000D01*
X128833720Y-96868518D01*
X128806700Y-96821718D01*
X128805500Y-96808000D01*
X128805500Y-93674609D01*
X128805500Y-93674608D01*
X128797555Y-93644958D01*
X128771392Y-93547314D01*
X128769569Y-93544157D01*
X128767748Y-93541001D01*
X128767748Y-93541002D01*
X128767747Y-93541000D01*
X128705500Y-93433186D01*
X128705497Y-93433183D01*
X128705496Y-93433181D01*
X128607821Y-93335506D01*
X128607806Y-93335493D01*
X128500064Y-93227751D01*
X128363314Y-93091000D01*
X128294998Y-93051557D01*
X128260263Y-93010162D01*
X128255499Y-92983147D01*
X128255499Y-91614628D01*
X128255499Y-91614627D01*
X128255499Y-91614620D01*
X128249091Y-91555020D01*
X128249090Y-91555014D01*
X128198797Y-91420170D01*
X128198794Y-91420165D01*
X128112546Y-91304953D01*
X127997334Y-91218705D01*
X127997329Y-91218702D01*
X127862482Y-91168408D01*
X127862483Y-91168408D01*
X127802879Y-91162000D01*
X127507121Y-91162000D01*
X127507120Y-91162001D01*
X127447520Y-91168408D01*
X127447514Y-91168409D01*
X127312670Y-91218702D01*
X127312665Y-91218705D01*
X127197453Y-91304953D01*
X127111205Y-91420165D01*
X127111202Y-91420170D01*
X127060908Y-91555017D01*
X127060908Y-91555018D01*
X127055172Y-91608375D01*
X127054500Y-91614627D01*
X127054500Y-92290254D01*
X127054501Y-92912000D01*
X127036019Y-92962780D01*
X126989219Y-92989800D01*
X126975501Y-92991000D01*
X125084500Y-92991000D01*
X125033720Y-92972518D01*
X125006700Y-92925718D01*
X125005500Y-92912000D01*
X125005499Y-91614620D01*
X124999091Y-91555020D01*
X124999090Y-91555014D01*
X124948797Y-91420170D01*
X124948796Y-91420168D01*
X124921258Y-91383383D01*
X124905500Y-91336039D01*
X124905500Y-90447536D01*
X124911399Y-90431328D01*
X124912902Y-90414150D01*
X124922792Y-90400023D01*
X124923982Y-90396756D01*
X124928628Y-90391684D01*
X125026995Y-90293317D01*
X125060814Y-90273317D01*
X125063095Y-90272654D01*
X125063098Y-90272654D01*
X125217894Y-90227681D01*
X125356643Y-90145626D01*
X125470626Y-90031643D01*
X125552681Y-89892894D01*
X125597654Y-89738098D01*
X125600500Y-89701935D01*
X125600499Y-89098066D01*
X125597654Y-89061902D01*
X125578485Y-88995923D01*
X125582066Y-88942006D01*
X125619468Y-88903002D01*
X125673191Y-88897165D01*
X125710209Y-88918024D01*
X126349500Y-89557314D01*
X126442686Y-89650500D01*
X126556814Y-89716392D01*
X126684108Y-89750500D01*
X128945500Y-89750500D01*
X128996280Y-89768982D01*
X129023300Y-89815782D01*
X129024500Y-89829500D01*
X129024500Y-90401926D01*
X129024501Y-90401934D01*
X129026961Y-90433208D01*
X129027346Y-90438097D01*
X129027346Y-90438100D01*
X129072317Y-90592891D01*
X129072317Y-90592892D01*
X129107289Y-90652026D01*
X129117229Y-90705143D01*
X129115599Y-90712682D01*
X129104500Y-90754108D01*
X129104500Y-90754110D01*
X129104500Y-91336039D01*
X129088742Y-91383383D01*
X129061203Y-91420168D01*
X129061202Y-91420170D01*
X129010908Y-91555017D01*
X129010908Y-91555018D01*
X129004500Y-91614627D01*
X129004500Y-92985379D01*
X129010908Y-93044979D01*
X129010909Y-93044985D01*
X129061202Y-93179829D01*
X129061205Y-93179834D01*
X129147453Y-93295046D01*
X129262665Y-93381294D01*
X129262670Y-93381297D01*
X129397517Y-93431591D01*
X129397516Y-93431591D01*
X129412352Y-93433186D01*
X129457127Y-93438000D01*
X129752872Y-93437999D01*
X129752878Y-93437999D01*
X129752878Y-93437998D01*
X129812483Y-93431591D01*
X129879907Y-93406443D01*
X129947329Y-93381297D01*
X129947334Y-93381294D01*
X130062546Y-93295046D01*
X130148794Y-93179834D01*
X130148797Y-93179829D01*
X130181928Y-93090999D01*
X130199091Y-93044983D01*
X130205500Y-92985373D01*
X130205499Y-91614628D01*
X130205499Y-91614627D01*
X130205499Y-91614620D01*
X130199091Y-91555020D01*
X130199090Y-91555014D01*
X130148797Y-91420170D01*
X130148796Y-91420168D01*
X130121258Y-91383383D01*
X130105500Y-91336039D01*
X130105500Y-91060036D01*
X130111398Y-91043828D01*
X130112902Y-91026649D01*
X130122792Y-91012524D01*
X130123982Y-91009256D01*
X130128639Y-91004175D01*
X130134176Y-90998638D01*
X130183152Y-90975800D01*
X130190037Y-90975499D01*
X130326926Y-90975499D01*
X130326934Y-90975499D01*
X130354498Y-90973330D01*
X130406571Y-90987773D01*
X130433679Y-91021855D01*
X130479222Y-91131805D01*
X130479225Y-91131811D01*
X130555884Y-91246540D01*
X130555890Y-91246547D01*
X130653452Y-91344109D01*
X130653459Y-91344115D01*
X130710823Y-91382444D01*
X130768189Y-91420775D01*
X130768194Y-91420777D01*
X130895669Y-91473579D01*
X130895671Y-91473580D01*
X131031007Y-91500500D01*
X131168993Y-91500500D01*
X131304328Y-91473580D01*
X131304330Y-91473579D01*
X131431811Y-91420775D01*
X131546542Y-91344114D01*
X131644114Y-91246542D01*
X131720775Y-91131811D01*
X131773580Y-91004328D01*
X131800500Y-90868993D01*
X131800500Y-90731007D01*
X131795355Y-90705143D01*
X131773580Y-90595671D01*
X131773579Y-90595669D01*
X131720777Y-90468194D01*
X131720774Y-90468188D01*
X131715455Y-90460228D01*
X131663471Y-90382428D01*
X131644115Y-90353459D01*
X131644109Y-90353452D01*
X131623639Y-90332982D01*
X131600801Y-90284006D01*
X131600500Y-90277121D01*
X131600500Y-90064458D01*
X134279500Y-90064458D01*
X134279500Y-90245541D01*
X134279501Y-90245557D01*
X134307826Y-90424398D01*
X134307832Y-90424421D01*
X134363786Y-90596633D01*
X134363793Y-90596649D01*
X134446004Y-90757994D01*
X134446008Y-90758000D01*
X134526184Y-90868353D01*
X134552447Y-90904501D01*
X134552451Y-90904505D01*
X134552456Y-90904511D01*
X134680488Y-91032543D01*
X134680494Y-91032548D01*
X134680499Y-91032553D01*
X134827006Y-91138996D01*
X134872154Y-91162000D01*
X134988350Y-91221206D01*
X134988366Y-91221213D01*
X135160578Y-91277167D01*
X135160581Y-91277167D01*
X135160591Y-91277171D01*
X135160596Y-91277171D01*
X135160601Y-91277173D01*
X135304963Y-91300037D01*
X135339454Y-91305500D01*
X135339459Y-91305500D01*
X135520541Y-91305500D01*
X135520546Y-91305500D01*
X135609977Y-91291335D01*
X135699398Y-91277173D01*
X135699400Y-91277172D01*
X135699409Y-91277171D01*
X135871639Y-91221211D01*
X136032994Y-91138996D01*
X136179501Y-91032553D01*
X136307553Y-90904501D01*
X136413996Y-90757994D01*
X136496211Y-90596639D01*
X136497429Y-90592892D01*
X136547723Y-90438098D01*
X136552171Y-90424409D01*
X136555346Y-90404367D01*
X136570420Y-90309186D01*
X136580500Y-90245546D01*
X136580500Y-90064454D01*
X136560491Y-89938121D01*
X136552173Y-89885601D01*
X136552171Y-89885596D01*
X136552171Y-89885591D01*
X136552167Y-89885578D01*
X136496213Y-89713366D01*
X136496206Y-89713350D01*
X136450809Y-89624255D01*
X136413996Y-89552006D01*
X136307553Y-89405499D01*
X136307548Y-89405494D01*
X136307543Y-89405488D01*
X136179511Y-89277456D01*
X136179505Y-89277451D01*
X136179501Y-89277447D01*
X136032994Y-89171004D01*
X135871649Y-89088793D01*
X135871633Y-89088786D01*
X135699421Y-89032832D01*
X135699398Y-89032826D01*
X135520557Y-89004501D01*
X135520549Y-89004500D01*
X135520546Y-89004500D01*
X135339454Y-89004500D01*
X135339451Y-89004500D01*
X135339442Y-89004501D01*
X135160601Y-89032826D01*
X135160578Y-89032832D01*
X134988366Y-89088786D01*
X134988350Y-89088793D01*
X134827005Y-89171004D01*
X134826999Y-89171008D01*
X134680506Y-89277441D01*
X134680488Y-89277456D01*
X134552456Y-89405488D01*
X134552441Y-89405506D01*
X134446008Y-89551999D01*
X134446004Y-89552005D01*
X134363793Y-89713350D01*
X134363786Y-89713366D01*
X134307832Y-89885578D01*
X134307826Y-89885601D01*
X134279501Y-90064442D01*
X134279500Y-90064458D01*
X131600500Y-90064458D01*
X131600500Y-89634110D01*
X131600499Y-89634105D01*
X131578501Y-89552006D01*
X131566392Y-89506814D01*
X131500500Y-89392686D01*
X131407314Y-89299500D01*
X131107314Y-88999500D01*
X130957314Y-88849500D01*
X130944010Y-88841819D01*
X130843187Y-88783608D01*
X130843183Y-88783607D01*
X130715894Y-88749500D01*
X130715892Y-88749500D01*
X129965892Y-88749500D01*
X129515892Y-88749500D01*
X126990036Y-88749500D01*
X126939256Y-88731018D01*
X126934175Y-88726361D01*
X126483639Y-88275825D01*
X126460801Y-88226849D01*
X126460500Y-88219964D01*
X126460500Y-88001804D01*
X126478982Y-87951024D01*
X126525782Y-87924004D01*
X126527087Y-87923785D01*
X126552826Y-87919709D01*
X126740025Y-87858884D01*
X126740034Y-87858879D01*
X126740040Y-87858877D01*
X126867144Y-87794114D01*
X126915405Y-87769524D01*
X127074646Y-87653828D01*
X127213828Y-87514646D01*
X127329524Y-87355405D01*
X127400112Y-87216866D01*
X127439632Y-87180014D01*
X127493597Y-87177186D01*
X127536755Y-87209707D01*
X127549500Y-87252734D01*
X127549500Y-87581515D01*
X127549546Y-87581805D01*
X127562580Y-87664105D01*
X127564354Y-87675302D01*
X127564353Y-87675302D01*
X127621951Y-87788344D01*
X127711656Y-87878049D01*
X127711659Y-87878051D01*
X127824693Y-87935645D01*
X127824695Y-87935645D01*
X127824696Y-87935646D01*
X127918481Y-87950500D01*
X129681518Y-87950499D01*
X129775304Y-87935646D01*
X129888342Y-87878050D01*
X129978050Y-87788342D01*
X129978051Y-87788338D01*
X129981703Y-87783314D01*
X129984368Y-87785250D01*
X130014790Y-87756816D01*
X130045742Y-87750500D01*
X131727122Y-87750500D01*
X131777902Y-87768982D01*
X131782973Y-87773629D01*
X131803458Y-87794114D01*
X131918189Y-87870775D01*
X131935755Y-87878051D01*
X132045669Y-87923579D01*
X132045671Y-87923580D01*
X132181007Y-87950500D01*
X132318993Y-87950500D01*
X132454328Y-87923580D01*
X132454330Y-87923579D01*
X132463678Y-87919707D01*
X132581811Y-87870775D01*
X132696542Y-87794114D01*
X132794114Y-87696542D01*
X132870775Y-87581811D01*
X132894531Y-87524458D01*
X134279500Y-87524458D01*
X134279500Y-87705541D01*
X134279501Y-87705557D01*
X134307826Y-87884398D01*
X134307832Y-87884421D01*
X134363786Y-88056633D01*
X134363793Y-88056649D01*
X134446004Y-88217994D01*
X134446008Y-88218000D01*
X134462719Y-88241001D01*
X134552447Y-88364501D01*
X134552451Y-88364505D01*
X134552456Y-88364511D01*
X134680488Y-88492543D01*
X134680494Y-88492548D01*
X134680499Y-88492553D01*
X134827006Y-88598996D01*
X134850424Y-88610928D01*
X134988350Y-88681206D01*
X134988366Y-88681213D01*
X135160578Y-88737167D01*
X135160581Y-88737167D01*
X135160591Y-88737171D01*
X135160596Y-88737171D01*
X135160601Y-88737173D01*
X135304963Y-88760037D01*
X135339454Y-88765500D01*
X135339459Y-88765500D01*
X135520541Y-88765500D01*
X135520546Y-88765500D01*
X135609977Y-88751335D01*
X135699398Y-88737173D01*
X135699400Y-88737172D01*
X135699409Y-88737171D01*
X135871639Y-88681211D01*
X136032994Y-88598996D01*
X136179501Y-88492553D01*
X136307553Y-88364501D01*
X136413996Y-88217994D01*
X136496211Y-88056639D01*
X136552171Y-87884409D01*
X136553179Y-87878049D01*
X136580498Y-87705557D01*
X136580500Y-87705546D01*
X136580500Y-87524454D01*
X136569393Y-87454325D01*
X136552173Y-87345601D01*
X136552171Y-87345596D01*
X136552171Y-87345591D01*
X136543529Y-87318992D01*
X136496213Y-87173366D01*
X136496206Y-87173350D01*
X136413995Y-87012005D01*
X136413991Y-87011999D01*
X136307558Y-86865506D01*
X136307553Y-86865499D01*
X136307548Y-86865494D01*
X136307543Y-86865488D01*
X136179511Y-86737456D01*
X136179505Y-86737451D01*
X136179501Y-86737447D01*
X136164241Y-86726360D01*
X136033000Y-86631008D01*
X136032994Y-86631004D01*
X135871649Y-86548793D01*
X135871633Y-86548786D01*
X135699421Y-86492832D01*
X135699398Y-86492826D01*
X135520557Y-86464501D01*
X135520549Y-86464500D01*
X135520546Y-86464500D01*
X135339454Y-86464500D01*
X135339451Y-86464500D01*
X135339442Y-86464501D01*
X135160601Y-86492826D01*
X135160578Y-86492832D01*
X134988366Y-86548786D01*
X134988350Y-86548793D01*
X134827005Y-86631004D01*
X134826999Y-86631008D01*
X134680506Y-86737441D01*
X134680488Y-86737456D01*
X134552456Y-86865488D01*
X134552441Y-86865506D01*
X134446008Y-87011999D01*
X134446004Y-87012005D01*
X134363793Y-87173350D01*
X134363786Y-87173366D01*
X134307832Y-87345578D01*
X134307826Y-87345601D01*
X134279501Y-87524442D01*
X134279500Y-87524458D01*
X132894531Y-87524458D01*
X132923580Y-87454328D01*
X132950500Y-87318993D01*
X132950500Y-87181007D01*
X132923580Y-87045672D01*
X132870775Y-86918189D01*
X132832444Y-86860823D01*
X132794115Y-86803459D01*
X132794109Y-86803452D01*
X132696547Y-86705890D01*
X132696540Y-86705884D01*
X132581811Y-86629225D01*
X132581805Y-86629222D01*
X132454330Y-86576420D01*
X132454328Y-86576419D01*
X132318993Y-86549500D01*
X132181007Y-86549500D01*
X132045671Y-86576419D01*
X132045669Y-86576420D01*
X131918194Y-86629222D01*
X131918188Y-86629225D01*
X131803459Y-86705884D01*
X131803458Y-86705885D01*
X131793221Y-86716122D01*
X131782983Y-86726360D01*
X131734009Y-86749199D01*
X131727122Y-86749500D01*
X130129500Y-86749500D01*
X130078720Y-86731018D01*
X130051700Y-86684218D01*
X130050500Y-86670500D01*
X130050499Y-85818484D01*
X130050497Y-85818469D01*
X130035646Y-85724696D01*
X130018152Y-85690363D01*
X130011568Y-85636728D01*
X130041000Y-85591408D01*
X130088543Y-85575500D01*
X134345369Y-85575500D01*
X134396149Y-85593982D01*
X134415758Y-85618634D01*
X134446004Y-85677994D01*
X134446006Y-85677997D01*
X134446008Y-85678000D01*
X134548073Y-85818481D01*
X134552447Y-85824501D01*
X134552451Y-85824505D01*
X134552456Y-85824511D01*
X134680488Y-85952543D01*
X134680494Y-85952548D01*
X134680499Y-85952553D01*
X134827006Y-86058996D01*
X134879500Y-86085743D01*
X134988350Y-86141206D01*
X134988366Y-86141213D01*
X135160578Y-86197167D01*
X135160581Y-86197167D01*
X135160591Y-86197171D01*
X135160596Y-86197171D01*
X135160601Y-86197173D01*
X135304469Y-86219959D01*
X135339454Y-86225500D01*
X135339459Y-86225500D01*
X135520541Y-86225500D01*
X135520546Y-86225500D01*
X135609977Y-86211335D01*
X135699398Y-86197173D01*
X135699400Y-86197172D01*
X135699409Y-86197171D01*
X135814229Y-86159864D01*
X135871633Y-86141213D01*
X135871633Y-86141212D01*
X135871639Y-86141211D01*
X136032994Y-86058996D01*
X136179501Y-85952553D01*
X136307553Y-85824501D01*
X136413996Y-85677994D01*
X136496211Y-85516639D01*
X136552171Y-85344409D01*
X136555207Y-85325244D01*
X136567412Y-85248182D01*
X136580500Y-85165546D01*
X136580500Y-84984454D01*
X136555552Y-84826935D01*
X136552173Y-84805601D01*
X136552171Y-84805596D01*
X136552171Y-84805591D01*
X136544449Y-84781824D01*
X136496213Y-84633366D01*
X136496206Y-84633350D01*
X136413995Y-84472005D01*
X136413991Y-84471999D01*
X136307558Y-84325506D01*
X136307553Y-84325499D01*
X136307548Y-84325494D01*
X136307543Y-84325488D01*
X136179511Y-84197456D01*
X136179505Y-84197451D01*
X136179501Y-84197447D01*
X136130579Y-84161903D01*
X136033000Y-84091008D01*
X136032994Y-84091004D01*
X135871649Y-84008793D01*
X135871633Y-84008786D01*
X135699421Y-83952832D01*
X135699398Y-83952826D01*
X135520557Y-83924501D01*
X135520549Y-83924500D01*
X135520546Y-83924500D01*
X135339454Y-83924500D01*
X135339451Y-83924500D01*
X135339442Y-83924501D01*
X135160601Y-83952826D01*
X135160578Y-83952832D01*
X134988366Y-84008786D01*
X134988350Y-84008793D01*
X134827005Y-84091004D01*
X134826999Y-84091008D01*
X134680506Y-84197441D01*
X134680488Y-84197456D01*
X134552456Y-84325488D01*
X134552441Y-84325506D01*
X134446008Y-84471999D01*
X134446004Y-84472006D01*
X134415758Y-84531366D01*
X134376236Y-84568220D01*
X134345369Y-84574500D01*
X124859106Y-84574500D01*
X124731814Y-84608607D01*
X124731812Y-84608608D01*
X124617685Y-84674500D01*
X124510360Y-84781824D01*
X124461384Y-84804661D01*
X124409186Y-84790675D01*
X124378191Y-84746408D01*
X124375499Y-84725969D01*
X124375499Y-83998066D01*
X124372654Y-83961902D01*
X124327681Y-83807106D01*
X124245626Y-83668357D01*
X124245625Y-83668356D01*
X124245623Y-83668353D01*
X124131646Y-83554376D01*
X124131643Y-83554374D01*
X123992896Y-83472320D01*
X123992895Y-83472319D01*
X123992894Y-83472319D01*
X123838098Y-83427346D01*
X123801935Y-83424500D01*
X123801927Y-83424500D01*
X123198073Y-83424500D01*
X123198072Y-83424500D01*
X123198066Y-83424501D01*
X123161902Y-83427346D01*
X123055642Y-83458218D01*
X123007103Y-83472320D01*
X122868356Y-83554374D01*
X122868353Y-83554376D01*
X122754376Y-83668353D01*
X122754374Y-83668356D01*
X122672320Y-83807103D01*
X122672319Y-83807105D01*
X122672319Y-83807106D01*
X122627346Y-83961902D01*
X122624500Y-83998065D01*
X122624500Y-83998066D01*
X122624500Y-83998072D01*
X122624500Y-84726926D01*
X122624501Y-84726934D01*
X122627346Y-84763098D01*
X122672319Y-84917894D01*
X122754374Y-85056643D01*
X122814096Y-85116365D01*
X122836934Y-85165340D01*
X122822948Y-85217538D01*
X122814097Y-85228087D01*
X122565825Y-85476361D01*
X122516849Y-85499199D01*
X122509963Y-85499500D01*
X121079500Y-85499500D01*
X121060212Y-85492480D01*
X121040000Y-85488916D01*
X121035418Y-85483455D01*
X121028720Y-85481018D01*
X121018458Y-85463243D01*
X121005264Y-85447520D01*
X121003454Y-85437256D01*
X121001700Y-85434218D01*
X121000500Y-85420500D01*
X121000500Y-85393243D01*
X121018982Y-85342463D01*
X121039287Y-85325244D01*
X121044794Y-85321987D01*
X121131643Y-85270626D01*
X121245626Y-85156643D01*
X121327681Y-85017894D01*
X121372654Y-84863098D01*
X121375500Y-84826935D01*
X121375499Y-84198066D01*
X121372654Y-84161902D01*
X121327681Y-84007106D01*
X121245626Y-83868357D01*
X121245625Y-83868356D01*
X121245623Y-83868353D01*
X121131646Y-83754376D01*
X121131643Y-83754374D01*
X120992896Y-83672320D01*
X120992895Y-83672319D01*
X120992894Y-83672319D01*
X120838098Y-83627346D01*
X120801935Y-83624500D01*
X120801927Y-83624500D01*
X120198073Y-83624500D01*
X120198072Y-83624500D01*
X120198066Y-83624501D01*
X120161902Y-83627346D01*
X120015815Y-83669789D01*
X120007103Y-83672320D01*
X119868356Y-83754374D01*
X119868353Y-83754376D01*
X119754376Y-83868353D01*
X119754374Y-83868356D01*
X119672320Y-84007103D01*
X119672319Y-84007105D01*
X119672319Y-84007106D01*
X119627346Y-84161902D01*
X119624500Y-84198065D01*
X119624500Y-84198066D01*
X119624500Y-84198072D01*
X119624500Y-84826926D01*
X119624501Y-84826934D01*
X119627346Y-84863098D01*
X119672318Y-85017892D01*
X119672320Y-85017896D01*
X119754374Y-85156643D01*
X119754376Y-85156646D01*
X119868353Y-85270623D01*
X119868359Y-85270627D01*
X119960713Y-85325244D01*
X119977590Y-85345790D01*
X119994736Y-85366223D01*
X119994834Y-85366782D01*
X119995014Y-85367001D01*
X119999500Y-85393243D01*
X119999500Y-85420500D01*
X119981018Y-85471280D01*
X119934218Y-85498300D01*
X119920500Y-85499500D01*
X118490036Y-85499500D01*
X118439256Y-85481018D01*
X118434175Y-85476361D01*
X118114534Y-85156720D01*
X118091696Y-85107744D01*
X118102395Y-85060648D01*
X118127681Y-85017894D01*
X118172654Y-84863098D01*
X118175500Y-84826935D01*
X118175499Y-84198066D01*
X118172654Y-84161902D01*
X118127681Y-84007106D01*
X118045626Y-83868357D01*
X118045625Y-83868356D01*
X118045623Y-83868353D01*
X117931646Y-83754376D01*
X117931643Y-83754374D01*
X117788616Y-83669789D01*
X117789274Y-83668675D01*
X117754059Y-83635383D01*
X117747840Y-83581702D01*
X117777582Y-83536584D01*
X117788616Y-83530212D01*
X117788616Y-83530211D01*
X117807588Y-83518991D01*
X117931643Y-83445626D01*
X118045626Y-83331643D01*
X118127681Y-83192894D01*
X118172654Y-83038098D01*
X118175500Y-83001935D01*
X118175499Y-82373066D01*
X118172654Y-82336902D01*
X118127681Y-82182106D01*
X118045626Y-82043357D01*
X118045625Y-82043356D01*
X118045623Y-82043353D01*
X117931646Y-81929376D01*
X117931643Y-81929374D01*
X117792896Y-81847320D01*
X117792895Y-81847319D01*
X117792894Y-81847319D01*
X117638098Y-81802346D01*
X117601935Y-81799500D01*
X117601928Y-81799500D01*
X117152536Y-81799500D01*
X117101756Y-81781018D01*
X117096675Y-81776361D01*
X115273639Y-79953325D01*
X115250801Y-79904349D01*
X115250500Y-79897464D01*
X115250500Y-73598068D01*
X115268982Y-73547288D01*
X115273639Y-73542207D01*
X116464639Y-72351207D01*
X116513615Y-72328369D01*
X116565813Y-72342355D01*
X116596808Y-72386621D01*
X116599500Y-72407068D01*
X116599500Y-72818102D01*
X116603614Y-72852361D01*
X116610122Y-72906562D01*
X116610124Y-72906567D01*
X116665637Y-73047339D01*
X116665639Y-73047343D01*
X116754744Y-73164844D01*
X116757078Y-73167922D01*
X116805734Y-73204819D01*
X116835029Y-73250227D01*
X116837000Y-73267766D01*
X116837000Y-74624363D01*
X116818518Y-74675143D01*
X116798214Y-74692362D01*
X116693356Y-74754374D01*
X116693353Y-74754376D01*
X116579376Y-74868353D01*
X116579374Y-74868356D01*
X116497320Y-75007103D01*
X116497319Y-75007105D01*
X116497319Y-75007106D01*
X116496076Y-75011384D01*
X116458015Y-75142391D01*
X116452346Y-75161902D01*
X116449500Y-75198065D01*
X116449500Y-75198066D01*
X116449500Y-75198072D01*
X116449500Y-75801926D01*
X116449501Y-75801934D01*
X116452346Y-75838098D01*
X116496267Y-75989274D01*
X116497320Y-75992896D01*
X116579374Y-76131643D01*
X116579376Y-76131646D01*
X116693353Y-76245623D01*
X116693356Y-76245625D01*
X116693357Y-76245626D01*
X116798214Y-76307637D01*
X116832514Y-76349393D01*
X116837000Y-76375635D01*
X116837000Y-76903394D01*
X116871107Y-77030683D01*
X116871108Y-77030687D01*
X116937001Y-77144816D01*
X117526361Y-77734175D01*
X117549199Y-77783151D01*
X117549500Y-77790036D01*
X117549500Y-78443100D01*
X117551659Y-78461083D01*
X117539361Y-78513704D01*
X117496117Y-78546110D01*
X117473222Y-78549500D01*
X117106898Y-78549500D01*
X117075662Y-78553250D01*
X117018437Y-78560122D01*
X117018432Y-78560124D01*
X116877660Y-78615637D01*
X116877656Y-78615639D01*
X116757078Y-78707078D01*
X116665639Y-78827656D01*
X116665637Y-78827660D01*
X116610124Y-78968432D01*
X116610122Y-78968437D01*
X116602585Y-79031203D01*
X116599500Y-79056898D01*
X116599500Y-80318102D01*
X116603614Y-80352361D01*
X116610122Y-80406562D01*
X116610124Y-80406567D01*
X116665637Y-80547339D01*
X116665639Y-80547343D01*
X116704050Y-80597994D01*
X116757078Y-80667922D01*
X116836580Y-80728211D01*
X116877656Y-80759360D01*
X116877660Y-80759362D01*
X116919466Y-80775848D01*
X117018436Y-80814877D01*
X117106898Y-80825500D01*
X117106902Y-80825500D01*
X117493098Y-80825500D01*
X117493102Y-80825500D01*
X117581564Y-80814877D01*
X117632330Y-80794856D01*
X117686349Y-80793420D01*
X117717173Y-80812487D01*
X118306240Y-81401555D01*
X118306242Y-81401556D01*
X118306243Y-81401557D01*
X118420371Y-81467449D01*
X118547664Y-81501557D01*
X118547665Y-81501557D01*
X118547666Y-81501557D01*
X119964890Y-81501557D01*
X119964892Y-81501557D01*
X120092186Y-81467449D01*
X120206314Y-81401557D01*
X120435232Y-81172638D01*
X120484208Y-81149801D01*
X120491093Y-81149500D01*
X133303964Y-81149500D01*
X133354744Y-81167982D01*
X133359825Y-81172639D01*
X134309142Y-82121956D01*
X134331980Y-82170932D01*
X134328415Y-82202228D01*
X134307830Y-82265585D01*
X134307826Y-82265601D01*
X134279501Y-82444442D01*
X134279500Y-82444458D01*
X134279500Y-82625541D01*
X134279501Y-82625557D01*
X134307826Y-82804398D01*
X134307832Y-82804421D01*
X134363786Y-82976633D01*
X134363793Y-82976649D01*
X134446004Y-83137994D01*
X134552447Y-83284501D01*
X134552451Y-83284505D01*
X134552456Y-83284511D01*
X134680488Y-83412543D01*
X134680494Y-83412548D01*
X134680499Y-83412553D01*
X134827006Y-83518996D01*
X134896439Y-83554374D01*
X134988350Y-83601206D01*
X134988366Y-83601213D01*
X135160578Y-83657167D01*
X135160581Y-83657167D01*
X135160591Y-83657171D01*
X135160596Y-83657171D01*
X135160601Y-83657173D01*
X135256238Y-83672320D01*
X135339454Y-83685500D01*
X135339459Y-83685500D01*
X135520541Y-83685500D01*
X135520546Y-83685500D01*
X135619742Y-83669789D01*
X135699398Y-83657173D01*
X135699400Y-83657172D01*
X135699409Y-83657171D01*
X135871639Y-83601211D01*
X136032994Y-83518996D01*
X136179501Y-83412553D01*
X136307553Y-83284501D01*
X136413996Y-83137994D01*
X136496211Y-82976639D01*
X136552171Y-82804409D01*
X136580500Y-82625546D01*
X136580500Y-82444454D01*
X136575037Y-82409963D01*
X136552173Y-82265601D01*
X136552171Y-82265596D01*
X136552171Y-82265591D01*
X136552167Y-82265578D01*
X136496213Y-82093366D01*
X136496206Y-82093350D01*
X136413995Y-81932005D01*
X136413991Y-81931999D01*
X136307558Y-81785506D01*
X136307553Y-81785499D01*
X136307548Y-81785494D01*
X136307543Y-81785488D01*
X136179511Y-81657456D01*
X136179505Y-81657451D01*
X136179501Y-81657447D01*
X136032994Y-81551004D01*
X135871649Y-81468793D01*
X135871633Y-81468786D01*
X135699421Y-81412832D01*
X135699398Y-81412826D01*
X135520557Y-81384501D01*
X135520549Y-81384500D01*
X135520546Y-81384500D01*
X135339454Y-81384500D01*
X135339451Y-81384500D01*
X135339442Y-81384501D01*
X135160601Y-81412826D01*
X135160585Y-81412830D01*
X135097228Y-81433415D01*
X135043221Y-81431528D01*
X135016956Y-81414142D01*
X134640141Y-81037327D01*
X134617303Y-80988351D01*
X134631289Y-80936153D01*
X134675555Y-80905158D01*
X134729389Y-80909868D01*
X134742437Y-80917554D01*
X134768037Y-80936153D01*
X134827006Y-80978996D01*
X134899255Y-81015809D01*
X134988350Y-81061206D01*
X134988366Y-81061213D01*
X135160578Y-81117167D01*
X135160581Y-81117167D01*
X135160591Y-81117171D01*
X135160596Y-81117171D01*
X135160601Y-81117173D01*
X135304963Y-81140037D01*
X135339454Y-81145500D01*
X135339459Y-81145500D01*
X135520541Y-81145500D01*
X135520546Y-81145500D01*
X135609977Y-81131335D01*
X135699398Y-81117173D01*
X135699400Y-81117172D01*
X135699409Y-81117171D01*
X135871639Y-81061211D01*
X136032994Y-80978996D01*
X136179501Y-80872553D01*
X136307553Y-80744501D01*
X136413996Y-80597994D01*
X136496211Y-80436639D01*
X136552171Y-80264409D01*
X136580500Y-80085546D01*
X136580500Y-79904454D01*
X136552171Y-79725591D01*
X136552167Y-79725578D01*
X136496213Y-79553366D01*
X136496206Y-79553350D01*
X136413995Y-79392005D01*
X136413991Y-79391999D01*
X136307558Y-79245506D01*
X136307553Y-79245499D01*
X136307548Y-79245494D01*
X136307543Y-79245488D01*
X136179511Y-79117456D01*
X136179505Y-79117451D01*
X136179501Y-79117447D01*
X136179493Y-79117441D01*
X136033000Y-79011008D01*
X136032994Y-79011004D01*
X135871649Y-78928793D01*
X135871633Y-78928786D01*
X135699421Y-78872832D01*
X135699398Y-78872826D01*
X135520557Y-78844501D01*
X135520549Y-78844500D01*
X135520546Y-78844500D01*
X135339454Y-78844500D01*
X135339451Y-78844500D01*
X135339442Y-78844501D01*
X135160601Y-78872826D01*
X135160578Y-78872832D01*
X134988366Y-78928786D01*
X134988350Y-78928793D01*
X134827005Y-79011004D01*
X134826999Y-79011008D01*
X134680506Y-79117441D01*
X134680488Y-79117456D01*
X134552456Y-79245488D01*
X134552441Y-79245506D01*
X134446008Y-79391999D01*
X134446004Y-79392005D01*
X134363793Y-79553350D01*
X134363786Y-79553366D01*
X134307832Y-79725578D01*
X134307826Y-79725601D01*
X134279501Y-79904442D01*
X134279500Y-79904458D01*
X134279500Y-80085541D01*
X134279501Y-80085557D01*
X134307826Y-80264398D01*
X134307832Y-80264421D01*
X134363786Y-80436633D01*
X134363793Y-80436649D01*
X134446004Y-80597994D01*
X134446008Y-80598000D01*
X134507445Y-80682561D01*
X134522341Y-80734507D01*
X134500361Y-80783874D01*
X134451791Y-80807563D01*
X134399357Y-80794490D01*
X134387672Y-80784857D01*
X133851316Y-80248501D01*
X133737187Y-80182608D01*
X133737183Y-80182607D01*
X133609894Y-80148500D01*
X133609892Y-80148500D01*
X120316950Y-80148500D01*
X120185165Y-80148500D01*
X120185162Y-80148500D01*
X120057873Y-80182607D01*
X120057869Y-80182608D01*
X119943742Y-80248500D01*
X119874145Y-80318098D01*
X119714824Y-80477418D01*
X119665849Y-80500256D01*
X119658964Y-80500557D01*
X118853593Y-80500557D01*
X118802813Y-80482075D01*
X118797732Y-80477418D01*
X118023639Y-79703325D01*
X118000801Y-79654349D01*
X118000500Y-79647464D01*
X118000500Y-79056899D01*
X117998341Y-79038917D01*
X118010639Y-78986296D01*
X118053883Y-78953890D01*
X118076778Y-78950500D01*
X118443098Y-78950500D01*
X118443102Y-78950500D01*
X118531564Y-78939877D01*
X118672342Y-78884361D01*
X118792922Y-78792922D01*
X118884361Y-78672342D01*
X118939877Y-78531564D01*
X118950500Y-78443102D01*
X118950500Y-77181898D01*
X118939877Y-77093436D01*
X118884361Y-76952658D01*
X118884360Y-76952656D01*
X118847001Y-76903392D01*
X118792922Y-76832078D01*
X118713181Y-76771608D01*
X118672343Y-76740639D01*
X118672339Y-76740637D01*
X118531567Y-76685124D01*
X118531562Y-76685122D01*
X118477361Y-76678614D01*
X118443102Y-76674500D01*
X118056898Y-76674500D01*
X117997923Y-76681582D01*
X117968434Y-76685123D01*
X117962491Y-76687467D01*
X117957801Y-76687591D01*
X117953958Y-76690283D01*
X117931255Y-76688296D01*
X117908471Y-76688902D01*
X117903578Y-76685875D01*
X117900124Y-76685573D01*
X117877650Y-76669836D01*
X117861139Y-76653325D01*
X117838301Y-76604349D01*
X117838000Y-76597464D01*
X117838000Y-76375635D01*
X117856482Y-76324855D01*
X117876783Y-76307639D01*
X117981643Y-76245626D01*
X118095626Y-76131643D01*
X118177681Y-75992894D01*
X118177681Y-75992893D01*
X118180211Y-75988616D01*
X118181324Y-75989274D01*
X118214617Y-75954059D01*
X118268298Y-75947840D01*
X118313416Y-75977582D01*
X118319787Y-75988616D01*
X118319789Y-75988616D01*
X118404374Y-76131643D01*
X118404376Y-76131646D01*
X118518353Y-76245623D01*
X118518356Y-76245625D01*
X118518357Y-76245626D01*
X118657106Y-76327681D01*
X118811902Y-76372654D01*
X118848065Y-76375500D01*
X119476934Y-76375499D01*
X119513098Y-76372654D01*
X119667894Y-76327681D01*
X119801481Y-76248678D01*
X119854596Y-76238739D01*
X119901675Y-76265267D01*
X119920689Y-76315851D01*
X119919175Y-76332090D01*
X119907897Y-76388793D01*
X119899500Y-76431007D01*
X119899500Y-76568993D01*
X119903966Y-76591445D01*
X119926419Y-76704328D01*
X119926420Y-76704330D01*
X119979222Y-76831805D01*
X119979225Y-76831811D01*
X120055884Y-76946540D01*
X120055890Y-76946547D01*
X120153452Y-77044109D01*
X120153458Y-77044114D01*
X120268189Y-77120775D01*
X120268194Y-77120777D01*
X120395669Y-77173579D01*
X120395671Y-77173580D01*
X120531007Y-77200500D01*
X120668993Y-77200500D01*
X120804328Y-77173580D01*
X120804330Y-77173579D01*
X120931811Y-77120775D01*
X121046542Y-77044114D01*
X121144114Y-76946542D01*
X121220775Y-76831811D01*
X121273580Y-76704328D01*
X121281733Y-76663339D01*
X121309766Y-76617141D01*
X121360938Y-76599770D01*
X121411303Y-76619355D01*
X121415076Y-76622890D01*
X122099500Y-77307314D01*
X122192686Y-77400500D01*
X122306814Y-77466392D01*
X122434108Y-77500500D01*
X122565893Y-77500500D01*
X126206756Y-77500500D01*
X126257536Y-77518982D01*
X126274754Y-77539285D01*
X126329374Y-77631643D01*
X126329376Y-77631646D01*
X126443353Y-77745623D01*
X126443356Y-77745625D01*
X126443357Y-77745626D01*
X126582106Y-77827681D01*
X126736902Y-77872654D01*
X126773065Y-77875500D01*
X127501934Y-77875499D01*
X127538098Y-77872654D01*
X127692894Y-77827681D01*
X127831643Y-77745626D01*
X127945626Y-77631643D01*
X128027681Y-77492894D01*
X128064996Y-77364458D01*
X134279500Y-77364458D01*
X134279500Y-77545541D01*
X134279501Y-77545557D01*
X134307826Y-77724398D01*
X134307832Y-77724421D01*
X134363786Y-77896633D01*
X134363793Y-77896649D01*
X134446004Y-78057994D01*
X134552447Y-78204501D01*
X134552451Y-78204505D01*
X134552456Y-78204511D01*
X134680488Y-78332543D01*
X134680494Y-78332548D01*
X134680499Y-78332553D01*
X134827006Y-78438996D01*
X134870354Y-78461083D01*
X134988350Y-78521206D01*
X134988366Y-78521213D01*
X135160578Y-78577167D01*
X135160581Y-78577167D01*
X135160591Y-78577171D01*
X135160596Y-78577171D01*
X135160601Y-78577173D01*
X135304963Y-78600037D01*
X135339454Y-78605500D01*
X135339459Y-78605500D01*
X135520541Y-78605500D01*
X135520546Y-78605500D01*
X135609977Y-78591335D01*
X135699398Y-78577173D01*
X135699400Y-78577172D01*
X135699409Y-78577171D01*
X135871639Y-78521211D01*
X136032994Y-78438996D01*
X136179501Y-78332553D01*
X136307553Y-78204501D01*
X136413996Y-78057994D01*
X136496211Y-77896639D01*
X136552171Y-77724409D01*
X136580500Y-77545546D01*
X136580500Y-77364454D01*
X136570597Y-77301927D01*
X136552173Y-77185601D01*
X136552171Y-77185596D01*
X136552171Y-77185591D01*
X136550971Y-77181898D01*
X136496213Y-77013366D01*
X136496206Y-77013350D01*
X136440180Y-76903394D01*
X136413996Y-76852006D01*
X136307553Y-76705499D01*
X136307548Y-76705494D01*
X136307543Y-76705488D01*
X136179511Y-76577456D01*
X136179505Y-76577451D01*
X136179501Y-76577447D01*
X136084347Y-76508314D01*
X136033000Y-76471008D01*
X136032994Y-76471004D01*
X135871649Y-76388793D01*
X135871633Y-76388786D01*
X135699421Y-76332832D01*
X135699398Y-76332826D01*
X135520557Y-76304501D01*
X135520549Y-76304500D01*
X135520546Y-76304500D01*
X135339454Y-76304500D01*
X135339451Y-76304500D01*
X135339442Y-76304501D01*
X135160601Y-76332826D01*
X135160578Y-76332832D01*
X134988366Y-76388786D01*
X134988350Y-76388793D01*
X134827005Y-76471004D01*
X134826999Y-76471008D01*
X134680506Y-76577441D01*
X134680488Y-76577456D01*
X134552456Y-76705488D01*
X134552441Y-76705506D01*
X134446008Y-76851999D01*
X134446004Y-76852005D01*
X134363793Y-77013350D01*
X134363786Y-77013366D01*
X134307832Y-77185578D01*
X134307826Y-77185601D01*
X134279501Y-77364442D01*
X134279500Y-77364458D01*
X128064996Y-77364458D01*
X128072654Y-77338098D01*
X128075500Y-77301935D01*
X128075499Y-76698066D01*
X128072654Y-76661902D01*
X128027681Y-76507106D01*
X127945626Y-76368357D01*
X127945625Y-76368356D01*
X127945623Y-76368353D01*
X127831646Y-76254376D01*
X127831643Y-76254374D01*
X127692896Y-76172320D01*
X127692895Y-76172319D01*
X127692894Y-76172319D01*
X127538098Y-76127346D01*
X127501935Y-76124500D01*
X127501927Y-76124500D01*
X126773073Y-76124500D01*
X126773072Y-76124500D01*
X126773066Y-76124501D01*
X126736902Y-76127346D01*
X126596322Y-76168189D01*
X126582103Y-76172320D01*
X126443356Y-76254374D01*
X126443353Y-76254376D01*
X126329376Y-76368353D01*
X126329374Y-76368356D01*
X126274755Y-76460714D01*
X126232997Y-76495014D01*
X126206756Y-76499500D01*
X122740036Y-76499500D01*
X122689256Y-76481018D01*
X122684175Y-76476361D01*
X120773639Y-74565825D01*
X120750801Y-74516849D01*
X120750500Y-74509964D01*
X120750500Y-72329500D01*
X120768982Y-72278720D01*
X120815782Y-72251700D01*
X120829500Y-72250500D01*
X121145501Y-72250500D01*
X121196281Y-72268982D01*
X121223301Y-72315782D01*
X121224501Y-72329500D01*
X121224501Y-72406518D01*
X121236016Y-72479225D01*
X121239354Y-72500302D01*
X121239353Y-72500302D01*
X121296951Y-72613344D01*
X121386656Y-72703049D01*
X121386659Y-72703051D01*
X121499693Y-72760645D01*
X121499695Y-72760645D01*
X121499696Y-72760646D01*
X121593481Y-72775500D01*
X122091000Y-72775499D01*
X122141780Y-72793981D01*
X122168800Y-72840781D01*
X122170000Y-72854499D01*
X122170000Y-73349995D01*
X122170001Y-73350011D01*
X122189820Y-73475145D01*
X122189821Y-73475150D01*
X122247349Y-73588055D01*
X122336944Y-73677650D01*
X122449849Y-73735178D01*
X122449854Y-73735179D01*
X122574988Y-73754998D01*
X122575005Y-73755000D01*
X123274991Y-73755000D01*
X123338355Y-73750013D01*
X123458867Y-73710857D01*
X123458869Y-73710856D01*
X123561370Y-73636383D01*
X123563739Y-73634361D01*
X123564827Y-73635636D01*
X123608672Y-73615108D01*
X123660892Y-73629012D01*
X123671542Y-73637935D01*
X123736656Y-73703049D01*
X123736659Y-73703051D01*
X123849693Y-73760645D01*
X123849695Y-73760645D01*
X123849696Y-73760646D01*
X123943481Y-73775500D01*
X124034962Y-73775499D01*
X124085743Y-73793981D01*
X124090824Y-73798638D01*
X125275500Y-74983314D01*
X125368686Y-75076500D01*
X125482814Y-75142392D01*
X125610108Y-75176500D01*
X125610110Y-75176500D01*
X128202390Y-75176500D01*
X128202392Y-75176500D01*
X128329686Y-75142392D01*
X128443814Y-75076500D01*
X128721675Y-74798637D01*
X128770652Y-74775800D01*
X128777537Y-74775499D01*
X129226927Y-74775499D01*
X129226934Y-74775499D01*
X129263098Y-74772654D01*
X129417894Y-74727681D01*
X129556643Y-74645626D01*
X129670626Y-74531643D01*
X129725245Y-74439285D01*
X129767003Y-74404986D01*
X129793244Y-74400500D01*
X134174964Y-74400500D01*
X134191171Y-74406398D01*
X134208351Y-74407902D01*
X134222475Y-74417792D01*
X134225744Y-74418982D01*
X134230825Y-74423639D01*
X134309142Y-74501956D01*
X134331980Y-74550932D01*
X134328415Y-74582228D01*
X134307830Y-74645585D01*
X134307826Y-74645601D01*
X134279501Y-74824442D01*
X134279500Y-74824458D01*
X134279500Y-75005541D01*
X134279501Y-75005557D01*
X134307826Y-75184398D01*
X134307832Y-75184421D01*
X134363786Y-75356633D01*
X134363793Y-75356649D01*
X134446004Y-75517994D01*
X134552447Y-75664501D01*
X134552451Y-75664505D01*
X134552456Y-75664511D01*
X134680488Y-75792543D01*
X134680494Y-75792548D01*
X134680499Y-75792553D01*
X134827006Y-75898996D01*
X134899255Y-75935809D01*
X134988350Y-75981206D01*
X134988366Y-75981213D01*
X135160578Y-76037167D01*
X135160581Y-76037167D01*
X135160591Y-76037171D01*
X135160596Y-76037171D01*
X135160601Y-76037173D01*
X135304963Y-76060037D01*
X135339454Y-76065500D01*
X135339459Y-76065500D01*
X135520541Y-76065500D01*
X135520546Y-76065500D01*
X135609977Y-76051335D01*
X135699398Y-76037173D01*
X135699400Y-76037172D01*
X135699409Y-76037171D01*
X135871639Y-75981211D01*
X136032994Y-75898996D01*
X136179501Y-75792553D01*
X136307553Y-75664501D01*
X136413996Y-75517994D01*
X136496211Y-75356639D01*
X136552171Y-75184409D01*
X136580500Y-75005546D01*
X136580500Y-74824454D01*
X136569401Y-74754376D01*
X136552173Y-74645601D01*
X136552171Y-74645596D01*
X136552171Y-74645591D01*
X136538068Y-74602186D01*
X136496213Y-74473366D01*
X136496206Y-74473350D01*
X136413995Y-74312005D01*
X136413991Y-74311999D01*
X136307558Y-74165506D01*
X136307553Y-74165499D01*
X136307548Y-74165494D01*
X136307543Y-74165488D01*
X136179511Y-74037456D01*
X136179505Y-74037451D01*
X136179501Y-74037447D01*
X136032994Y-73931004D01*
X135871649Y-73848793D01*
X135871633Y-73848786D01*
X135699421Y-73792832D01*
X135699398Y-73792826D01*
X135520557Y-73764501D01*
X135520549Y-73764500D01*
X135520546Y-73764500D01*
X135339454Y-73764500D01*
X135339451Y-73764500D01*
X135339442Y-73764501D01*
X135160601Y-73792826D01*
X135160585Y-73792830D01*
X135097228Y-73813415D01*
X135043221Y-73811528D01*
X135016957Y-73794143D01*
X134722314Y-73499500D01*
X134680130Y-73475145D01*
X134608187Y-73433608D01*
X134608183Y-73433607D01*
X134480894Y-73399500D01*
X134480892Y-73399500D01*
X133000911Y-73399500D01*
X132950131Y-73381018D01*
X132923111Y-73334218D01*
X132923429Y-73305088D01*
X132943374Y-73204818D01*
X132950500Y-73168993D01*
X132950500Y-73031007D01*
X132923580Y-72895672D01*
X132919846Y-72886658D01*
X132870777Y-72768194D01*
X132870774Y-72768188D01*
X132794115Y-72653459D01*
X132794109Y-72653452D01*
X132696547Y-72555890D01*
X132696540Y-72555884D01*
X132581811Y-72479225D01*
X132581805Y-72479222D01*
X132454330Y-72426420D01*
X132454328Y-72426419D01*
X132318993Y-72399500D01*
X132181007Y-72399500D01*
X132045671Y-72426419D01*
X132045669Y-72426420D01*
X131918194Y-72479222D01*
X131918188Y-72479225D01*
X131803459Y-72555884D01*
X131803458Y-72555885D01*
X131793221Y-72566122D01*
X131782983Y-72576360D01*
X131734009Y-72599199D01*
X131727122Y-72599500D01*
X127821605Y-72599500D01*
X127694316Y-72633607D01*
X127694312Y-72633608D01*
X127580185Y-72699500D01*
X127278323Y-73001362D01*
X127229347Y-73024199D01*
X127222462Y-73024500D01*
X126773073Y-73024500D01*
X126773072Y-73024500D01*
X126773066Y-73024501D01*
X126736902Y-73027346D01*
X126582103Y-73072320D01*
X126443356Y-73154374D01*
X126443353Y-73154376D01*
X126329376Y-73268353D01*
X126329374Y-73268356D01*
X126247320Y-73407103D01*
X126221154Y-73497167D01*
X126202346Y-73561902D01*
X126199500Y-73598065D01*
X126199500Y-73848793D01*
X126199501Y-74096500D01*
X126181019Y-74147280D01*
X126134219Y-74174300D01*
X126120501Y-74175500D01*
X125916036Y-74175500D01*
X125865256Y-74157018D01*
X125860175Y-74152361D01*
X124948638Y-73240824D01*
X124925800Y-73191848D01*
X124925499Y-73184963D01*
X124925499Y-73093484D01*
X124925499Y-73093481D01*
X124910646Y-72999696D01*
X124853050Y-72886658D01*
X124853049Y-72886657D01*
X124853048Y-72886655D01*
X124772254Y-72805861D01*
X124749416Y-72756885D01*
X124763402Y-72704687D01*
X124772254Y-72694139D01*
X124853049Y-72613343D01*
X124853051Y-72613340D01*
X124910645Y-72500306D01*
X124910645Y-72500305D01*
X124910646Y-72500304D01*
X124925500Y-72406519D01*
X124925500Y-72355500D01*
X124943982Y-72304720D01*
X124979077Y-72284458D01*
X134279500Y-72284458D01*
X134279500Y-72465541D01*
X134279501Y-72465557D01*
X134307826Y-72644398D01*
X134307832Y-72644421D01*
X134363786Y-72816633D01*
X134363793Y-72816649D01*
X134446004Y-72977994D01*
X134446008Y-72978000D01*
X134498840Y-73050717D01*
X134552447Y-73124501D01*
X134552451Y-73124505D01*
X134552456Y-73124511D01*
X134680488Y-73252543D01*
X134680494Y-73252548D01*
X134680499Y-73252553D01*
X134827006Y-73358996D01*
X134899255Y-73395809D01*
X134988350Y-73441206D01*
X134988366Y-73441213D01*
X135160578Y-73497167D01*
X135160581Y-73497167D01*
X135160591Y-73497171D01*
X135160596Y-73497171D01*
X135160601Y-73497173D01*
X135304963Y-73520037D01*
X135339454Y-73525500D01*
X135339459Y-73525500D01*
X135520541Y-73525500D01*
X135520546Y-73525500D01*
X135609977Y-73511335D01*
X135699398Y-73497173D01*
X135699400Y-73497172D01*
X135699409Y-73497171D01*
X135871639Y-73441211D01*
X136032994Y-73358996D01*
X136179501Y-73252553D01*
X136307553Y-73124501D01*
X136413996Y-72977994D01*
X136496211Y-72816639D01*
X136552171Y-72644409D01*
X136557092Y-72613343D01*
X136566335Y-72554977D01*
X136580500Y-72465546D01*
X136580500Y-72284454D01*
X136552171Y-72105591D01*
X136548237Y-72093482D01*
X136496213Y-71933366D01*
X136496206Y-71933350D01*
X136413995Y-71772005D01*
X136413991Y-71771999D01*
X136307558Y-71625506D01*
X136307553Y-71625499D01*
X136307548Y-71625494D01*
X136307543Y-71625488D01*
X136179511Y-71497456D01*
X136179505Y-71497451D01*
X136179501Y-71497447D01*
X136139571Y-71468436D01*
X136033000Y-71391008D01*
X136032994Y-71391004D01*
X135871649Y-71308793D01*
X135871633Y-71308786D01*
X135699421Y-71252832D01*
X135699398Y-71252826D01*
X135520557Y-71224501D01*
X135520549Y-71224500D01*
X135520546Y-71224500D01*
X135339454Y-71224500D01*
X135339451Y-71224500D01*
X135339442Y-71224501D01*
X135160601Y-71252826D01*
X135160578Y-71252832D01*
X134988366Y-71308786D01*
X134988350Y-71308793D01*
X134827005Y-71391004D01*
X134826999Y-71391008D01*
X134680506Y-71497441D01*
X134680488Y-71497456D01*
X134552456Y-71625488D01*
X134552441Y-71625506D01*
X134446008Y-71771999D01*
X134446004Y-71772005D01*
X134363793Y-71933350D01*
X134363786Y-71933366D01*
X134307832Y-72105578D01*
X134307826Y-72105601D01*
X134279501Y-72284442D01*
X134279500Y-72284458D01*
X124979077Y-72284458D01*
X124990782Y-72277700D01*
X125004500Y-72276500D01*
X128202390Y-72276500D01*
X128202392Y-72276500D01*
X128329686Y-72242392D01*
X128443814Y-72176500D01*
X128721675Y-71898637D01*
X128770652Y-71875800D01*
X128777537Y-71875499D01*
X129226927Y-71875499D01*
X129226934Y-71875499D01*
X129263098Y-71872654D01*
X129417894Y-71827681D01*
X129556643Y-71745626D01*
X129670626Y-71631643D01*
X129725245Y-71539285D01*
X129767003Y-71504986D01*
X129793244Y-71500500D01*
X133915833Y-71500500D01*
X133915835Y-71500500D01*
X134043129Y-71466392D01*
X134157257Y-71400500D01*
X134700500Y-70857257D01*
X134709576Y-70841535D01*
X134750970Y-70806800D01*
X134805009Y-70806798D01*
X134824426Y-70817122D01*
X134825908Y-70818198D01*
X134827006Y-70818996D01*
X134871245Y-70841537D01*
X134988350Y-70901206D01*
X134988366Y-70901213D01*
X135160578Y-70957167D01*
X135160581Y-70957167D01*
X135160591Y-70957171D01*
X135160596Y-70957171D01*
X135160601Y-70957173D01*
X135304963Y-70980037D01*
X135339454Y-70985500D01*
X135339459Y-70985500D01*
X135520541Y-70985500D01*
X135520546Y-70985500D01*
X135609977Y-70971335D01*
X135699398Y-70957173D01*
X135699400Y-70957172D01*
X135699409Y-70957171D01*
X135871639Y-70901211D01*
X136032994Y-70818996D01*
X136179501Y-70712553D01*
X136307553Y-70584501D01*
X136413996Y-70437994D01*
X136496211Y-70276639D01*
X136552171Y-70104409D01*
X136580500Y-69925546D01*
X136580500Y-69744454D01*
X136566472Y-69655884D01*
X136552173Y-69565601D01*
X136552171Y-69565596D01*
X136552171Y-69565591D01*
X136539444Y-69526420D01*
X136496213Y-69393366D01*
X136496206Y-69393350D01*
X136450809Y-69304255D01*
X136413996Y-69232006D01*
X136307553Y-69085499D01*
X136307548Y-69085494D01*
X136307543Y-69085488D01*
X136179511Y-68957456D01*
X136179505Y-68957451D01*
X136179501Y-68957447D01*
X136179493Y-68957441D01*
X136033000Y-68851008D01*
X136032994Y-68851004D01*
X135871649Y-68768793D01*
X135871633Y-68768786D01*
X135699421Y-68712832D01*
X135699398Y-68712826D01*
X135520557Y-68684501D01*
X135520549Y-68684500D01*
X135520546Y-68684500D01*
X135339454Y-68684500D01*
X135339451Y-68684500D01*
X135339442Y-68684501D01*
X135160601Y-68712826D01*
X135160578Y-68712832D01*
X134988366Y-68768786D01*
X134988355Y-68768791D01*
X134915365Y-68805982D01*
X134903537Y-68807434D01*
X134893218Y-68813392D01*
X134877534Y-68810626D01*
X134861729Y-68812567D01*
X134851735Y-68806077D01*
X134840000Y-68804008D01*
X134829762Y-68791807D01*
X134816408Y-68783135D01*
X134812377Y-68771089D01*
X134805264Y-68762612D01*
X134800500Y-68735592D01*
X134800500Y-68665035D01*
X134818982Y-68614255D01*
X134823628Y-68609184D01*
X135016957Y-68415855D01*
X135065931Y-68393018D01*
X135097230Y-68396584D01*
X135160591Y-68417171D01*
X135160597Y-68417171D01*
X135160601Y-68417173D01*
X135304963Y-68440037D01*
X135339454Y-68445500D01*
X135339459Y-68445500D01*
X135520541Y-68445500D01*
X135520546Y-68445500D01*
X135609977Y-68431335D01*
X135699398Y-68417173D01*
X135699400Y-68417172D01*
X135699409Y-68417171D01*
X135871639Y-68361211D01*
X136032994Y-68278996D01*
X136179501Y-68172553D01*
X136307553Y-68044501D01*
X136413996Y-67897994D01*
X136496211Y-67736639D01*
X136552171Y-67564409D01*
X136580500Y-67385546D01*
X136580500Y-67204454D01*
X136552171Y-67025591D01*
X136496211Y-66853361D01*
X136496209Y-66853358D01*
X136496206Y-66853350D01*
X136413995Y-66692005D01*
X136413991Y-66691999D01*
X136307558Y-66545506D01*
X136307553Y-66545499D01*
X136307548Y-66545494D01*
X136307543Y-66545488D01*
X136179511Y-66417456D01*
X136179505Y-66417451D01*
X136179501Y-66417447D01*
X136165375Y-66407184D01*
X136033000Y-66311008D01*
X136032994Y-66311004D01*
X135871649Y-66228793D01*
X135871633Y-66228786D01*
X135699421Y-66172832D01*
X135699398Y-66172826D01*
X135520557Y-66144501D01*
X135520549Y-66144500D01*
X135520546Y-66144500D01*
X135339454Y-66144500D01*
X135339451Y-66144500D01*
X135339442Y-66144501D01*
X135160601Y-66172826D01*
X135160578Y-66172832D01*
X134988366Y-66228786D01*
X134988350Y-66228793D01*
X134827005Y-66311004D01*
X134826999Y-66311008D01*
X134680506Y-66417441D01*
X134680488Y-66417456D01*
X134552456Y-66545488D01*
X134552441Y-66545506D01*
X134446008Y-66691999D01*
X134446004Y-66692005D01*
X134363793Y-66853350D01*
X134363786Y-66853366D01*
X134307832Y-67025578D01*
X134307826Y-67025601D01*
X134279501Y-67204442D01*
X134279500Y-67204458D01*
X134279500Y-67385541D01*
X134279501Y-67385557D01*
X134307826Y-67564398D01*
X134307830Y-67564414D01*
X134328415Y-67627770D01*
X134326528Y-67681776D01*
X134309142Y-67708042D01*
X133981574Y-68035610D01*
X133981572Y-68035613D01*
X133899501Y-68117683D01*
X133833608Y-68231812D01*
X133833607Y-68231816D01*
X133799500Y-68359105D01*
X133799500Y-70309907D01*
X133793601Y-70326114D01*
X133792098Y-70343294D01*
X133782207Y-70357418D01*
X133781018Y-70360687D01*
X133776361Y-70365768D01*
X133665768Y-70476361D01*
X133616792Y-70499199D01*
X133609907Y-70499500D01*
X133000911Y-70499500D01*
X132950131Y-70481018D01*
X132923111Y-70434218D01*
X132923429Y-70405088D01*
X132950500Y-70268992D01*
X132950500Y-70131007D01*
X132923580Y-69995671D01*
X132923579Y-69995669D01*
X132870777Y-69868194D01*
X132870774Y-69868188D01*
X132794115Y-69753459D01*
X132794109Y-69753452D01*
X132696547Y-69655890D01*
X132696540Y-69655884D01*
X132581811Y-69579225D01*
X132581805Y-69579222D01*
X132454330Y-69526420D01*
X132454328Y-69526419D01*
X132318993Y-69499500D01*
X132181007Y-69499500D01*
X132045671Y-69526419D01*
X132045669Y-69526420D01*
X131918194Y-69579222D01*
X131918188Y-69579225D01*
X131803459Y-69655884D01*
X131803458Y-69655885D01*
X131781221Y-69678123D01*
X131758982Y-69700361D01*
X131710008Y-69723199D01*
X131703122Y-69723500D01*
X127797605Y-69723500D01*
X127670316Y-69757607D01*
X127670312Y-69757608D01*
X127556185Y-69823500D01*
X127278323Y-70101362D01*
X127229347Y-70124199D01*
X127222462Y-70124500D01*
X126773073Y-70124500D01*
X126773072Y-70124500D01*
X126773066Y-70124501D01*
X126736902Y-70127346D01*
X126582103Y-70172320D01*
X126443356Y-70254374D01*
X126443353Y-70254376D01*
X126329376Y-70368353D01*
X126329374Y-70368356D01*
X126247320Y-70507103D01*
X126247319Y-70507105D01*
X126247319Y-70507106D01*
X126202346Y-70661902D01*
X126199500Y-70698065D01*
X126199500Y-70985500D01*
X126199501Y-71196500D01*
X126181019Y-71247280D01*
X126134219Y-71274300D01*
X126120501Y-71275500D01*
X124740209Y-71275500D01*
X124704345Y-71266889D01*
X124650304Y-71239354D01*
X124650303Y-71239353D01*
X124650302Y-71239353D01*
X124556530Y-71224501D01*
X124556522Y-71224500D01*
X124556519Y-71224500D01*
X124556514Y-71224500D01*
X123943484Y-71224500D01*
X123849695Y-71239354D01*
X123785795Y-71271912D01*
X123732159Y-71278497D01*
X123714067Y-71271912D01*
X123700153Y-71264823D01*
X123700145Y-71264820D01*
X123575011Y-71245001D01*
X123574995Y-71245000D01*
X122575005Y-71245000D01*
X122574988Y-71245001D01*
X122449854Y-71264820D01*
X122449841Y-71264824D01*
X122435928Y-71271913D01*
X122382292Y-71278496D01*
X122364202Y-71271911D01*
X122300306Y-71239354D01*
X122300302Y-71239353D01*
X122206530Y-71224501D01*
X122206522Y-71224500D01*
X122206519Y-71224500D01*
X122206514Y-71224500D01*
X121593484Y-71224500D01*
X121499694Y-71239354D01*
X121496679Y-71240891D01*
X121460817Y-71249500D01*
X120829500Y-71249500D01*
X120778720Y-71231018D01*
X120751700Y-71184218D01*
X120750500Y-71170500D01*
X120750500Y-68625035D01*
X120768982Y-68574255D01*
X120773628Y-68569185D01*
X121442597Y-67900215D01*
X121491572Y-67877378D01*
X121522870Y-67880944D01*
X121575362Y-67898000D01*
X121642174Y-67919709D01*
X121836583Y-67950500D01*
X121836588Y-67950500D01*
X122033412Y-67950500D01*
X122033417Y-67950500D01*
X122130621Y-67935104D01*
X122227815Y-67919711D01*
X122227817Y-67919710D01*
X122227826Y-67919709D01*
X122415025Y-67858884D01*
X122415034Y-67858879D01*
X122415040Y-67858877D01*
X122553476Y-67788340D01*
X122590405Y-67769524D01*
X122749646Y-67653828D01*
X122888828Y-67514646D01*
X123004524Y-67355405D01*
X123075112Y-67216866D01*
X123114632Y-67180014D01*
X123168597Y-67177186D01*
X123211755Y-67209707D01*
X123224500Y-67252734D01*
X123224500Y-67581515D01*
X123239354Y-67675302D01*
X123239353Y-67675302D01*
X123296951Y-67788344D01*
X123386656Y-67878049D01*
X123386659Y-67878051D01*
X123499693Y-67935645D01*
X123499695Y-67935645D01*
X123499696Y-67935646D01*
X123593481Y-67950500D01*
X125356518Y-67950499D01*
X125450304Y-67935646D01*
X125563342Y-67878050D01*
X125653050Y-67788342D01*
X125710646Y-67675304D01*
X125725500Y-67581519D01*
X125725500Y-67279500D01*
X125743982Y-67228720D01*
X125790782Y-67201700D01*
X125804500Y-67200500D01*
X130909964Y-67200500D01*
X130960744Y-67218982D01*
X130965825Y-67223639D01*
X131526361Y-67784175D01*
X131549199Y-67833151D01*
X131549500Y-67840036D01*
X131549500Y-67868992D01*
X131576419Y-68004328D01*
X131576420Y-68004330D01*
X131629222Y-68131805D01*
X131629225Y-68131811D01*
X131705884Y-68246540D01*
X131705890Y-68246547D01*
X131803452Y-68344109D01*
X131803459Y-68344115D01*
X131825898Y-68359108D01*
X131918189Y-68420775D01*
X131918194Y-68420777D01*
X132045669Y-68473579D01*
X132045671Y-68473580D01*
X132181007Y-68500500D01*
X132318993Y-68500500D01*
X132454328Y-68473580D01*
X132454330Y-68473579D01*
X132522119Y-68445500D01*
X132581811Y-68420775D01*
X132696542Y-68344114D01*
X132794114Y-68246542D01*
X132870775Y-68131811D01*
X132923580Y-68004328D01*
X132950500Y-67868993D01*
X132950500Y-67731007D01*
X132923580Y-67595672D01*
X132910635Y-67564421D01*
X132870777Y-67468194D01*
X132870774Y-67468188D01*
X132794115Y-67353459D01*
X132794109Y-67353452D01*
X132696547Y-67255890D01*
X132696540Y-67255884D01*
X132581811Y-67179225D01*
X132581805Y-67179222D01*
X132454330Y-67126420D01*
X132454328Y-67126419D01*
X132318993Y-67099500D01*
X132290036Y-67099500D01*
X132239256Y-67081018D01*
X132234175Y-67076361D01*
X131457316Y-66299501D01*
X131343187Y-66233608D01*
X131343183Y-66233607D01*
X131215894Y-66199500D01*
X131215892Y-66199500D01*
X125804499Y-66199500D01*
X125753719Y-66181018D01*
X125726699Y-66134218D01*
X125725499Y-66120500D01*
X125725499Y-65818484D01*
X125725497Y-65818469D01*
X125710646Y-65724696D01*
X125653050Y-65611658D01*
X125653049Y-65611657D01*
X125653048Y-65611655D01*
X125563343Y-65521950D01*
X125563340Y-65521948D01*
X125450306Y-65464354D01*
X125450302Y-65464353D01*
X125356530Y-65449501D01*
X125356522Y-65449500D01*
X125356519Y-65449500D01*
X125356514Y-65449500D01*
X123593484Y-65449500D01*
X123517345Y-65461558D01*
X123499696Y-65464354D01*
X123444213Y-65492623D01*
X123386655Y-65521951D01*
X123296950Y-65611656D01*
X123296948Y-65611659D01*
X123239354Y-65724693D01*
X123239353Y-65724697D01*
X123224501Y-65818469D01*
X123224500Y-65818485D01*
X123224500Y-66147264D01*
X123206018Y-66198044D01*
X123159218Y-66225064D01*
X123106000Y-66215680D01*
X123075110Y-66183129D01*
X123004524Y-66044595D01*
X122888828Y-65885354D01*
X122888823Y-65885349D01*
X122888818Y-65885343D01*
X122749656Y-65746181D01*
X122749650Y-65746176D01*
X122749646Y-65746172D01*
X122745754Y-65743344D01*
X122590411Y-65630480D01*
X122590400Y-65630473D01*
X122415040Y-65541122D01*
X122415022Y-65541115D01*
X122227834Y-65480293D01*
X122227815Y-65480288D01*
X122033428Y-65449501D01*
X122033420Y-65449500D01*
X122033417Y-65449500D01*
X121836583Y-65449500D01*
X121836580Y-65449500D01*
X121836571Y-65449501D01*
X121642184Y-65480288D01*
X121642165Y-65480293D01*
X121454977Y-65541115D01*
X121454959Y-65541122D01*
X121279599Y-65630473D01*
X121279588Y-65630480D01*
X121120361Y-65746166D01*
X121120343Y-65746181D01*
X120981181Y-65885343D01*
X120981166Y-65885361D01*
X120865480Y-66044588D01*
X120865473Y-66044599D01*
X120776122Y-66219959D01*
X120776115Y-66219977D01*
X120715293Y-66407165D01*
X120715288Y-66407184D01*
X120684501Y-66601571D01*
X120684500Y-66601587D01*
X120684500Y-66798412D01*
X120684501Y-66798428D01*
X120715288Y-66992815D01*
X120715294Y-66992838D01*
X120754054Y-67112129D01*
X120752169Y-67166135D01*
X120734782Y-67192402D01*
X119942686Y-67984500D01*
X119902687Y-68024499D01*
X119849500Y-68077685D01*
X119783608Y-68191812D01*
X119783607Y-68191816D01*
X119749500Y-68319105D01*
X119749500Y-71053012D01*
X119731018Y-71103792D01*
X119684218Y-71130812D01*
X119631000Y-71121428D01*
X119622766Y-71115960D01*
X119622342Y-71115639D01*
X119622339Y-71115637D01*
X119481567Y-71060124D01*
X119481562Y-71060122D01*
X119427361Y-71053614D01*
X119393102Y-71049500D01*
X119026777Y-71049500D01*
X118975997Y-71031018D01*
X118948977Y-70984218D01*
X118948341Y-70961079D01*
X118948810Y-70957173D01*
X118950500Y-70943102D01*
X118950500Y-69681898D01*
X118939877Y-69593436D01*
X118884361Y-69452658D01*
X118884360Y-69452656D01*
X118839398Y-69393366D01*
X118792922Y-69332078D01*
X118732632Y-69286358D01*
X118672343Y-69240639D01*
X118672339Y-69240637D01*
X118531567Y-69185124D01*
X118531562Y-69185122D01*
X118477361Y-69178614D01*
X118443102Y-69174500D01*
X118056898Y-69174500D01*
X118025662Y-69178250D01*
X117968437Y-69185122D01*
X117968432Y-69185124D01*
X117827660Y-69240637D01*
X117827656Y-69240639D01*
X117707078Y-69332078D01*
X117615639Y-69452656D01*
X117615637Y-69452660D01*
X117560124Y-69593432D01*
X117560122Y-69593437D01*
X117549500Y-69681901D01*
X117549500Y-69831007D01*
X117531018Y-69881787D01*
X117510001Y-69899422D01*
X117488218Y-69911998D01*
X117488217Y-69911999D01*
X115187284Y-72212934D01*
X114442686Y-72957532D01*
X114400522Y-72999696D01*
X114349500Y-73050717D01*
X114283608Y-73164844D01*
X114283607Y-73164848D01*
X114249500Y-73292137D01*
X114249500Y-80203394D01*
X114283607Y-80330683D01*
X114283608Y-80330687D01*
X114349501Y-80444816D01*
X116401361Y-82496675D01*
X116424199Y-82545651D01*
X116424500Y-82552536D01*
X116424500Y-83001926D01*
X116424501Y-83001934D01*
X116427346Y-83038096D01*
X116427346Y-83038097D01*
X116472320Y-83192896D01*
X116554374Y-83331643D01*
X116554376Y-83331646D01*
X116611369Y-83388639D01*
X116634207Y-83437615D01*
X116620221Y-83489813D01*
X116575955Y-83520808D01*
X116555508Y-83523500D01*
X113399277Y-83523500D01*
X113348497Y-83505018D01*
X113321477Y-83458218D01*
X113330861Y-83405000D01*
X113343416Y-83388639D01*
X113447543Y-83284511D01*
X113447553Y-83284501D01*
X113553996Y-83137994D01*
X113636211Y-82976639D01*
X113692171Y-82804409D01*
X113720500Y-82625546D01*
X113720500Y-82444454D01*
X113715037Y-82409963D01*
X113692173Y-82265601D01*
X113692171Y-82265596D01*
X113692171Y-82265591D01*
X113692167Y-82265578D01*
X113636213Y-82093366D01*
X113636206Y-82093350D01*
X113553995Y-81932005D01*
X113553991Y-81931999D01*
X113447558Y-81785506D01*
X113447553Y-81785499D01*
X113447548Y-81785494D01*
X113447543Y-81785488D01*
X113319511Y-81657456D01*
X113319505Y-81657451D01*
X113319501Y-81657447D01*
X113172994Y-81551004D01*
X113011649Y-81468793D01*
X113011633Y-81468786D01*
X112839421Y-81412832D01*
X112839398Y-81412826D01*
X112660557Y-81384501D01*
X112660549Y-81384500D01*
X112660546Y-81384500D01*
X112479454Y-81384500D01*
X112479451Y-81384500D01*
X112479442Y-81384501D01*
X112300601Y-81412826D01*
X112300578Y-81412832D01*
X112128366Y-81468786D01*
X112128350Y-81468793D01*
X111967005Y-81551004D01*
X111966999Y-81551008D01*
X111820506Y-81657441D01*
X111820488Y-81657456D01*
X111692456Y-81785488D01*
X111692441Y-81785506D01*
X111586008Y-81931999D01*
X111586004Y-81932005D01*
X111503793Y-82093350D01*
X111503786Y-82093366D01*
X111447832Y-82265578D01*
X111447826Y-82265601D01*
X111419501Y-82444442D01*
X111419500Y-82444458D01*
X111419500Y-82625541D01*
X111419501Y-82625557D01*
X111447826Y-82804398D01*
X111447832Y-82804421D01*
X111503786Y-82976633D01*
X111503793Y-82976649D01*
X111586004Y-83137994D01*
X111692447Y-83284501D01*
X111692451Y-83284505D01*
X111692456Y-83284511D01*
X111820488Y-83412543D01*
X111820494Y-83412548D01*
X111820499Y-83412553D01*
X111820506Y-83412558D01*
X111886897Y-83460794D01*
X111917115Y-83505594D01*
X111911467Y-83559337D01*
X111879963Y-83593122D01*
X111827343Y-83623502D01*
X111359843Y-84091004D01*
X111211686Y-84239161D01*
X111165093Y-84285754D01*
X111118500Y-84332346D01*
X111052608Y-84446473D01*
X111052607Y-84446477D01*
X111018500Y-84573766D01*
X111018500Y-91709894D01*
X111052607Y-91837183D01*
X111052608Y-91837187D01*
X111089161Y-91900498D01*
X111118500Y-91951314D01*
X111449142Y-92281956D01*
X111471980Y-92330932D01*
X111468415Y-92362228D01*
X111447830Y-92425585D01*
X111447826Y-92425601D01*
X111419501Y-92604442D01*
X111419500Y-92604458D01*
X111419500Y-92785541D01*
X111419501Y-92785557D01*
X111447826Y-92964398D01*
X111447832Y-92964421D01*
X111503786Y-93136633D01*
X111503793Y-93136649D01*
X111586004Y-93297994D01*
X111586008Y-93298000D01*
X111684226Y-93433186D01*
X111692447Y-93444501D01*
X111692451Y-93444505D01*
X111692456Y-93444511D01*
X111820488Y-93572543D01*
X111820494Y-93572548D01*
X111820499Y-93572553D01*
X111967006Y-93678996D01*
X112039255Y-93715809D01*
X112128350Y-93761206D01*
X112128366Y-93761213D01*
X112300578Y-93817167D01*
X112300581Y-93817167D01*
X112300591Y-93817171D01*
X112300596Y-93817171D01*
X112300601Y-93817173D01*
X112444963Y-93840037D01*
X112479454Y-93845500D01*
X112479459Y-93845500D01*
X112660541Y-93845500D01*
X112660546Y-93845500D01*
X112749977Y-93831335D01*
X112839398Y-93817173D01*
X112839400Y-93817172D01*
X112839409Y-93817171D01*
X113011639Y-93761211D01*
X113172994Y-93678996D01*
X113319501Y-93572553D01*
X113447553Y-93444501D01*
X113553996Y-93297994D01*
X113636211Y-93136639D01*
X113648028Y-93100271D01*
X113685305Y-92985540D01*
X113692171Y-92964409D01*
X113720500Y-92785546D01*
X113720500Y-92604454D01*
X113692171Y-92425591D01*
X113677106Y-92379224D01*
X113636213Y-92253366D01*
X113636206Y-92253350D01*
X113576924Y-92137004D01*
X113553996Y-92092006D01*
X113550442Y-92087115D01*
X113447558Y-91945506D01*
X113447553Y-91945499D01*
X113447548Y-91945494D01*
X113447543Y-91945488D01*
X113319511Y-91817456D01*
X113319505Y-91817451D01*
X113319501Y-91817447D01*
X113298149Y-91801934D01*
X113173000Y-91711008D01*
X113172994Y-91711004D01*
X113011649Y-91628793D01*
X113011633Y-91628786D01*
X112839421Y-91572832D01*
X112839398Y-91572826D01*
X112660557Y-91544501D01*
X112660549Y-91544500D01*
X112660546Y-91544500D01*
X112479454Y-91544500D01*
X112479451Y-91544500D01*
X112479442Y-91544501D01*
X112300601Y-91572826D01*
X112300585Y-91572830D01*
X112237228Y-91593415D01*
X112183221Y-91591528D01*
X112156956Y-91574142D01*
X112042639Y-91459825D01*
X112035351Y-91444197D01*
X112024264Y-91430984D01*
X112021268Y-91413997D01*
X112019801Y-91410849D01*
X112019500Y-91403964D01*
X112019500Y-91294351D01*
X112037982Y-91243571D01*
X112084782Y-91216551D01*
X112125174Y-91220973D01*
X112125409Y-91220252D01*
X112300578Y-91277167D01*
X112300581Y-91277167D01*
X112300591Y-91277171D01*
X112300596Y-91277171D01*
X112300601Y-91277173D01*
X112444963Y-91300037D01*
X112479454Y-91305500D01*
X112479459Y-91305500D01*
X112660541Y-91305500D01*
X112660546Y-91305500D01*
X112749977Y-91291335D01*
X112839398Y-91277173D01*
X112839400Y-91277172D01*
X112839409Y-91277171D01*
X113011639Y-91221211D01*
X113172994Y-91138996D01*
X113319501Y-91032553D01*
X113447553Y-90904501D01*
X113553996Y-90757994D01*
X113636211Y-90596639D01*
X113637429Y-90592892D01*
X113687723Y-90438098D01*
X113692171Y-90424409D01*
X113695346Y-90404367D01*
X113710420Y-90309186D01*
X113720500Y-90245546D01*
X113720500Y-90064454D01*
X113700491Y-89938121D01*
X113692173Y-89885601D01*
X113692171Y-89885596D01*
X113692171Y-89885591D01*
X113692167Y-89885578D01*
X113636213Y-89713366D01*
X113636206Y-89713350D01*
X113590809Y-89624255D01*
X113553996Y-89552006D01*
X113447553Y-89405499D01*
X113447548Y-89405494D01*
X113447543Y-89405488D01*
X113319511Y-89277456D01*
X113319505Y-89277451D01*
X113319501Y-89277447D01*
X113172994Y-89171004D01*
X113011649Y-89088793D01*
X113011633Y-89088786D01*
X112839421Y-89032832D01*
X112839398Y-89032826D01*
X112660557Y-89004501D01*
X112660549Y-89004500D01*
X112660546Y-89004500D01*
X112479454Y-89004500D01*
X112479451Y-89004500D01*
X112479442Y-89004501D01*
X112300601Y-89032826D01*
X112300578Y-89032832D01*
X112125409Y-89089748D01*
X112125099Y-89088795D01*
X112074737Y-89090990D01*
X112031868Y-89058089D01*
X112019500Y-89015649D01*
X112019500Y-88754351D01*
X112037982Y-88703571D01*
X112084782Y-88676551D01*
X112125174Y-88680973D01*
X112125409Y-88680252D01*
X112300578Y-88737167D01*
X112300581Y-88737167D01*
X112300591Y-88737171D01*
X112300596Y-88737171D01*
X112300601Y-88737173D01*
X112444963Y-88760037D01*
X112479454Y-88765500D01*
X112479459Y-88765500D01*
X112660541Y-88765500D01*
X112660546Y-88765500D01*
X112749977Y-88751335D01*
X112839398Y-88737173D01*
X112839400Y-88737172D01*
X112839409Y-88737171D01*
X113011639Y-88681211D01*
X113172994Y-88598996D01*
X113319501Y-88492553D01*
X113447553Y-88364501D01*
X113553996Y-88217994D01*
X113636211Y-88056639D01*
X113692171Y-87884409D01*
X113693179Y-87878049D01*
X113720498Y-87705557D01*
X113720500Y-87705546D01*
X113720500Y-87524454D01*
X113709393Y-87454325D01*
X113692173Y-87345601D01*
X113692171Y-87345596D01*
X113692171Y-87345591D01*
X113683529Y-87318992D01*
X113636213Y-87173366D01*
X113636206Y-87173350D01*
X113553995Y-87012005D01*
X113553991Y-87011999D01*
X113492553Y-86927436D01*
X113477657Y-86875490D01*
X113499637Y-86826123D01*
X113548207Y-86802434D01*
X113600641Y-86815507D01*
X113612326Y-86825140D01*
X115612861Y-88825675D01*
X115635699Y-88874651D01*
X115636000Y-88881536D01*
X115636000Y-90575992D01*
X115617518Y-90626772D01*
X115570718Y-90653792D01*
X115534960Y-90651855D01*
X115450601Y-90627347D01*
X115450602Y-90627347D01*
X115450598Y-90627346D01*
X115414435Y-90624500D01*
X115414427Y-90624500D01*
X114785573Y-90624500D01*
X114785572Y-90624500D01*
X114785566Y-90624501D01*
X114749402Y-90627346D01*
X114658376Y-90653792D01*
X114594603Y-90672320D01*
X114455856Y-90754374D01*
X114455853Y-90754376D01*
X114341876Y-90868353D01*
X114341874Y-90868356D01*
X114259820Y-91007103D01*
X114259819Y-91007105D01*
X114259819Y-91007106D01*
X114214846Y-91161902D01*
X114212000Y-91198065D01*
X114212000Y-91198071D01*
X114212000Y-91198072D01*
X114212000Y-91801926D01*
X114212001Y-91801934D01*
X114214846Y-91838098D01*
X114252119Y-91966392D01*
X114259820Y-91992896D01*
X114341874Y-92131643D01*
X114341876Y-92131646D01*
X114455853Y-92245623D01*
X114455856Y-92245625D01*
X114455857Y-92245626D01*
X114460712Y-92248497D01*
X114495014Y-92290254D01*
X114499500Y-92316497D01*
X114499500Y-94566090D01*
X114499499Y-94566108D01*
X114499499Y-94735418D01*
X114499500Y-94735431D01*
X114499500Y-95231042D01*
X114481018Y-95281822D01*
X114476361Y-95286903D01*
X113490286Y-96272978D01*
X113490284Y-96272980D01*
X113462058Y-96301206D01*
X113378480Y-96384783D01*
X113328360Y-96471595D01*
X113299423Y-96521713D01*
X113299422Y-96521715D01*
X113258499Y-96674442D01*
X113258499Y-96838918D01*
X113258500Y-96838931D01*
X113258500Y-99245655D01*
X113240018Y-99296435D01*
X113193218Y-99323455D01*
X113143634Y-99316044D01*
X113011649Y-99248793D01*
X113011633Y-99248786D01*
X112839421Y-99192832D01*
X112839398Y-99192826D01*
X112660557Y-99164501D01*
X112660549Y-99164500D01*
X112660546Y-99164500D01*
X112479454Y-99164500D01*
X112479451Y-99164500D01*
X112479442Y-99164501D01*
X112300601Y-99192826D01*
X112300578Y-99192832D01*
X112128366Y-99248786D01*
X112128350Y-99248793D01*
X111967005Y-99331004D01*
X111966999Y-99331008D01*
X111820506Y-99437441D01*
X111820488Y-99437456D01*
X111692456Y-99565488D01*
X111692441Y-99565506D01*
X111586008Y-99711999D01*
X111586004Y-99712005D01*
X111503793Y-99873350D01*
X111503786Y-99873366D01*
X111447832Y-100045578D01*
X111447826Y-100045601D01*
X111419501Y-100224442D01*
X111419500Y-100224458D01*
X111419500Y-100300700D01*
X111401018Y-100351480D01*
X111396361Y-100356561D01*
X110840361Y-100912561D01*
X110791385Y-100935399D01*
X110739187Y-100921413D01*
X110708192Y-100877147D01*
X110705500Y-100856700D01*
X110705500Y-95144458D01*
X111419500Y-95144458D01*
X111419500Y-95325541D01*
X111419501Y-95325557D01*
X111447826Y-95504398D01*
X111447832Y-95504421D01*
X111503786Y-95676633D01*
X111503793Y-95676649D01*
X111586004Y-95837994D01*
X111586008Y-95838000D01*
X111631029Y-95899966D01*
X111692447Y-95984501D01*
X111692451Y-95984505D01*
X111692456Y-95984511D01*
X111820488Y-96112543D01*
X111820494Y-96112548D01*
X111820499Y-96112553D01*
X111967006Y-96218996D01*
X112039255Y-96255809D01*
X112128350Y-96301206D01*
X112128366Y-96301213D01*
X112300578Y-96357167D01*
X112300581Y-96357167D01*
X112300591Y-96357171D01*
X112300596Y-96357171D01*
X112300601Y-96357173D01*
X112444963Y-96380037D01*
X112479454Y-96385500D01*
X112479459Y-96385500D01*
X112660541Y-96385500D01*
X112660546Y-96385500D01*
X112749977Y-96371335D01*
X112839398Y-96357173D01*
X112839400Y-96357172D01*
X112839409Y-96357171D01*
X113011639Y-96301211D01*
X113172994Y-96218996D01*
X113319501Y-96112553D01*
X113447553Y-95984501D01*
X113553996Y-95837994D01*
X113636211Y-95676639D01*
X113692171Y-95504409D01*
X113720500Y-95325546D01*
X113720500Y-95144454D01*
X113692171Y-94965591D01*
X113636211Y-94793361D01*
X113636209Y-94793358D01*
X113636206Y-94793350D01*
X113553995Y-94632005D01*
X113553991Y-94631999D01*
X113500602Y-94558515D01*
X113447553Y-94485499D01*
X113447548Y-94485494D01*
X113447543Y-94485488D01*
X113319511Y-94357456D01*
X113319505Y-94357451D01*
X113319501Y-94357447D01*
X113319493Y-94357441D01*
X113173000Y-94251008D01*
X113172994Y-94251004D01*
X113011649Y-94168793D01*
X113011633Y-94168786D01*
X112839421Y-94112832D01*
X112839398Y-94112826D01*
X112660557Y-94084501D01*
X112660549Y-94084500D01*
X112660546Y-94084500D01*
X112479454Y-94084500D01*
X112479451Y-94084500D01*
X112479442Y-94084501D01*
X112300601Y-94112826D01*
X112300578Y-94112832D01*
X112128366Y-94168786D01*
X112128350Y-94168793D01*
X111967005Y-94251004D01*
X111966999Y-94251008D01*
X111820506Y-94357441D01*
X111820488Y-94357456D01*
X111692456Y-94485488D01*
X111692441Y-94485506D01*
X111586008Y-94631999D01*
X111586004Y-94632005D01*
X111503793Y-94793350D01*
X111503786Y-94793366D01*
X111447832Y-94965578D01*
X111447826Y-94965601D01*
X111419501Y-95144442D01*
X111419500Y-95144458D01*
X110705500Y-95144458D01*
X110705500Y-79904458D01*
X111419500Y-79904458D01*
X111419500Y-80085541D01*
X111419501Y-80085557D01*
X111447826Y-80264398D01*
X111447832Y-80264421D01*
X111503786Y-80436633D01*
X111503793Y-80436649D01*
X111586004Y-80597994D01*
X111586008Y-80598000D01*
X111636809Y-80667922D01*
X111692447Y-80744501D01*
X111692451Y-80744505D01*
X111692456Y-80744511D01*
X111820488Y-80872543D01*
X111820494Y-80872548D01*
X111820499Y-80872553D01*
X111967006Y-80978996D01*
X112039255Y-81015809D01*
X112128350Y-81061206D01*
X112128366Y-81061213D01*
X112300578Y-81117167D01*
X112300581Y-81117167D01*
X112300591Y-81117171D01*
X112300596Y-81117171D01*
X112300601Y-81117173D01*
X112444963Y-81140037D01*
X112479454Y-81145500D01*
X112479459Y-81145500D01*
X112660541Y-81145500D01*
X112660546Y-81145500D01*
X112749977Y-81131335D01*
X112839398Y-81117173D01*
X112839400Y-81117172D01*
X112839409Y-81117171D01*
X113011639Y-81061211D01*
X113172994Y-80978996D01*
X113319501Y-80872553D01*
X113447553Y-80744501D01*
X113553996Y-80597994D01*
X113636211Y-80436639D01*
X113692171Y-80264409D01*
X113720500Y-80085546D01*
X113720500Y-79904454D01*
X113692171Y-79725591D01*
X113692167Y-79725578D01*
X113636213Y-79553366D01*
X113636206Y-79553350D01*
X113553995Y-79392005D01*
X113553991Y-79391999D01*
X113447558Y-79245506D01*
X113447553Y-79245499D01*
X113447548Y-79245494D01*
X113447543Y-79245488D01*
X113319511Y-79117456D01*
X113319505Y-79117451D01*
X113319501Y-79117447D01*
X113319493Y-79117441D01*
X113173000Y-79011008D01*
X113172994Y-79011004D01*
X113011649Y-78928793D01*
X113011633Y-78928786D01*
X112839421Y-78872832D01*
X112839398Y-78872826D01*
X112660557Y-78844501D01*
X112660549Y-78844500D01*
X112660546Y-78844500D01*
X112479454Y-78844500D01*
X112479451Y-78844500D01*
X112479442Y-78844501D01*
X112300601Y-78872826D01*
X112300578Y-78872832D01*
X112128366Y-78928786D01*
X112128350Y-78928793D01*
X111967005Y-79011004D01*
X111966999Y-79011008D01*
X111820506Y-79117441D01*
X111820488Y-79117456D01*
X111692456Y-79245488D01*
X111692441Y-79245506D01*
X111586008Y-79391999D01*
X111586004Y-79392005D01*
X111503793Y-79553350D01*
X111503786Y-79553366D01*
X111447832Y-79725578D01*
X111447826Y-79725601D01*
X111419501Y-79904442D01*
X111419500Y-79904458D01*
X110705500Y-79904458D01*
X110705500Y-77364458D01*
X111419500Y-77364458D01*
X111419500Y-77545541D01*
X111419501Y-77545557D01*
X111447826Y-77724398D01*
X111447832Y-77724421D01*
X111503786Y-77896633D01*
X111503793Y-77896649D01*
X111586004Y-78057994D01*
X111692447Y-78204501D01*
X111692451Y-78204505D01*
X111692456Y-78204511D01*
X111820488Y-78332543D01*
X111820494Y-78332548D01*
X111820499Y-78332553D01*
X111967006Y-78438996D01*
X112010354Y-78461083D01*
X112128350Y-78521206D01*
X112128366Y-78521213D01*
X112300578Y-78577167D01*
X112300581Y-78577167D01*
X112300591Y-78577171D01*
X112300596Y-78577171D01*
X112300601Y-78577173D01*
X112444963Y-78600037D01*
X112479454Y-78605500D01*
X112479459Y-78605500D01*
X112660541Y-78605500D01*
X112660546Y-78605500D01*
X112749977Y-78591335D01*
X112839398Y-78577173D01*
X112839400Y-78577172D01*
X112839409Y-78577171D01*
X113011639Y-78521211D01*
X113172994Y-78438996D01*
X113319501Y-78332553D01*
X113447553Y-78204501D01*
X113553996Y-78057994D01*
X113636211Y-77896639D01*
X113692171Y-77724409D01*
X113720500Y-77545546D01*
X113720500Y-77364454D01*
X113710597Y-77301927D01*
X113692173Y-77185601D01*
X113692171Y-77185596D01*
X113692171Y-77185591D01*
X113690971Y-77181898D01*
X113636213Y-77013366D01*
X113636206Y-77013350D01*
X113580180Y-76903394D01*
X113553996Y-76852006D01*
X113447553Y-76705499D01*
X113447548Y-76705494D01*
X113447543Y-76705488D01*
X113319511Y-76577456D01*
X113319505Y-76577451D01*
X113319501Y-76577447D01*
X113224347Y-76508314D01*
X113173000Y-76471008D01*
X113172994Y-76471004D01*
X113011649Y-76388793D01*
X113011633Y-76388786D01*
X112839421Y-76332832D01*
X112839398Y-76332826D01*
X112660557Y-76304501D01*
X112660549Y-76304500D01*
X112660546Y-76304500D01*
X112479454Y-76304500D01*
X112479451Y-76304500D01*
X112479442Y-76304501D01*
X112300601Y-76332826D01*
X112300578Y-76332832D01*
X112128366Y-76388786D01*
X112128350Y-76388793D01*
X111967005Y-76471004D01*
X111966999Y-76471008D01*
X111820506Y-76577441D01*
X111820488Y-76577456D01*
X111692456Y-76705488D01*
X111692441Y-76705506D01*
X111586008Y-76851999D01*
X111586004Y-76852005D01*
X111503793Y-77013350D01*
X111503786Y-77013366D01*
X111447832Y-77185578D01*
X111447826Y-77185601D01*
X111419501Y-77364442D01*
X111419500Y-77364458D01*
X110705500Y-77364458D01*
X110705500Y-74824458D01*
X111419500Y-74824458D01*
X111419500Y-75005541D01*
X111419501Y-75005557D01*
X111447826Y-75184398D01*
X111447832Y-75184421D01*
X111503786Y-75356633D01*
X111503793Y-75356649D01*
X111586004Y-75517994D01*
X111692447Y-75664501D01*
X111692451Y-75664505D01*
X111692456Y-75664511D01*
X111820488Y-75792543D01*
X111820494Y-75792548D01*
X111820499Y-75792553D01*
X111967006Y-75898996D01*
X112039255Y-75935809D01*
X112128350Y-75981206D01*
X112128366Y-75981213D01*
X112300578Y-76037167D01*
X112300581Y-76037167D01*
X112300591Y-76037171D01*
X112300596Y-76037171D01*
X112300601Y-76037173D01*
X112444963Y-76060037D01*
X112479454Y-76065500D01*
X112479459Y-76065500D01*
X112660541Y-76065500D01*
X112660546Y-76065500D01*
X112749977Y-76051335D01*
X112839398Y-76037173D01*
X112839400Y-76037172D01*
X112839409Y-76037171D01*
X113011639Y-75981211D01*
X113172994Y-75898996D01*
X113319501Y-75792553D01*
X113447553Y-75664501D01*
X113553996Y-75517994D01*
X113636211Y-75356639D01*
X113692171Y-75184409D01*
X113720500Y-75005546D01*
X113720500Y-74824454D01*
X113709401Y-74754376D01*
X113692173Y-74645601D01*
X113692171Y-74645596D01*
X113692171Y-74645591D01*
X113678068Y-74602186D01*
X113636213Y-74473366D01*
X113636206Y-74473350D01*
X113553995Y-74312005D01*
X113553991Y-74311999D01*
X113447558Y-74165506D01*
X113447553Y-74165499D01*
X113447548Y-74165494D01*
X113447543Y-74165488D01*
X113319511Y-74037456D01*
X113319505Y-74037451D01*
X113319501Y-74037447D01*
X113172994Y-73931004D01*
X113011649Y-73848793D01*
X113011633Y-73848786D01*
X112839421Y-73792832D01*
X112839398Y-73792826D01*
X112660557Y-73764501D01*
X112660549Y-73764500D01*
X112660546Y-73764500D01*
X112479454Y-73764500D01*
X112479451Y-73764500D01*
X112479442Y-73764501D01*
X112300601Y-73792826D01*
X112300578Y-73792832D01*
X112128366Y-73848786D01*
X112128350Y-73848793D01*
X111967005Y-73931004D01*
X111966999Y-73931008D01*
X111820506Y-74037441D01*
X111820488Y-74037456D01*
X111692456Y-74165488D01*
X111692441Y-74165506D01*
X111586008Y-74311999D01*
X111586004Y-74312005D01*
X111503793Y-74473350D01*
X111503786Y-74473366D01*
X111447832Y-74645578D01*
X111447826Y-74645601D01*
X111419501Y-74824442D01*
X111419500Y-74824458D01*
X110705500Y-74824458D01*
X110705500Y-72284458D01*
X111419500Y-72284458D01*
X111419500Y-72465541D01*
X111419501Y-72465557D01*
X111447826Y-72644398D01*
X111447832Y-72644421D01*
X111503786Y-72816633D01*
X111503793Y-72816649D01*
X111586004Y-72977994D01*
X111586008Y-72978000D01*
X111638840Y-73050717D01*
X111692447Y-73124501D01*
X111692451Y-73124505D01*
X111692456Y-73124511D01*
X111820488Y-73252543D01*
X111820494Y-73252548D01*
X111820499Y-73252553D01*
X111967006Y-73358996D01*
X112039255Y-73395809D01*
X112128350Y-73441206D01*
X112128366Y-73441213D01*
X112300578Y-73497167D01*
X112300581Y-73497167D01*
X112300591Y-73497171D01*
X112300596Y-73497171D01*
X112300601Y-73497173D01*
X112444963Y-73520037D01*
X112479454Y-73525500D01*
X112479459Y-73525500D01*
X112660541Y-73525500D01*
X112660546Y-73525500D01*
X112749977Y-73511335D01*
X112839398Y-73497173D01*
X112839400Y-73497172D01*
X112839409Y-73497171D01*
X113011639Y-73441211D01*
X113172994Y-73358996D01*
X113319501Y-73252553D01*
X113447553Y-73124501D01*
X113553996Y-72977994D01*
X113636211Y-72816639D01*
X113692171Y-72644409D01*
X113697092Y-72613343D01*
X113706335Y-72554977D01*
X113720500Y-72465546D01*
X113720500Y-72284454D01*
X113692171Y-72105591D01*
X113688237Y-72093482D01*
X113636213Y-71933366D01*
X113636206Y-71933350D01*
X113553995Y-71772005D01*
X113553991Y-71771999D01*
X113447558Y-71625506D01*
X113447553Y-71625499D01*
X113447548Y-71625494D01*
X113447543Y-71625488D01*
X113319511Y-71497456D01*
X113319505Y-71497451D01*
X113319501Y-71497447D01*
X113279571Y-71468436D01*
X113173000Y-71391008D01*
X113172994Y-71391004D01*
X113011649Y-71308793D01*
X113011633Y-71308786D01*
X112839421Y-71252832D01*
X112839398Y-71252826D01*
X112660557Y-71224501D01*
X112660549Y-71224500D01*
X112660546Y-71224500D01*
X112479454Y-71224500D01*
X112479451Y-71224500D01*
X112479442Y-71224501D01*
X112300601Y-71252826D01*
X112300578Y-71252832D01*
X112128366Y-71308786D01*
X112128350Y-71308793D01*
X111967005Y-71391004D01*
X111966999Y-71391008D01*
X111820506Y-71497441D01*
X111820488Y-71497456D01*
X111692456Y-71625488D01*
X111692441Y-71625506D01*
X111586008Y-71771999D01*
X111586004Y-71772005D01*
X111503793Y-71933350D01*
X111503786Y-71933366D01*
X111447832Y-72105578D01*
X111447826Y-72105601D01*
X111419501Y-72284442D01*
X111419500Y-72284458D01*
X110705500Y-72284458D01*
X110705500Y-69744458D01*
X111419500Y-69744458D01*
X111419500Y-69925541D01*
X111419501Y-69925557D01*
X111447826Y-70104398D01*
X111447832Y-70104421D01*
X111503786Y-70276633D01*
X111503793Y-70276649D01*
X111586004Y-70437994D01*
X111586008Y-70438000D01*
X111692441Y-70584493D01*
X111692447Y-70584501D01*
X111692451Y-70584505D01*
X111692456Y-70584511D01*
X111820488Y-70712543D01*
X111820494Y-70712548D01*
X111820499Y-70712553D01*
X111820506Y-70712558D01*
X111950219Y-70806800D01*
X111967006Y-70818996D01*
X112011245Y-70841537D01*
X112128350Y-70901206D01*
X112128366Y-70901213D01*
X112300578Y-70957167D01*
X112300581Y-70957167D01*
X112300591Y-70957171D01*
X112300596Y-70957171D01*
X112300601Y-70957173D01*
X112444963Y-70980037D01*
X112479454Y-70985500D01*
X112479459Y-70985500D01*
X112660541Y-70985500D01*
X112660546Y-70985500D01*
X112749977Y-70971335D01*
X112839398Y-70957173D01*
X112839400Y-70957172D01*
X112839409Y-70957171D01*
X113011639Y-70901211D01*
X113172994Y-70818996D01*
X113319501Y-70712553D01*
X113447553Y-70584501D01*
X113553996Y-70437994D01*
X113636211Y-70276639D01*
X113692171Y-70104409D01*
X113720500Y-69925546D01*
X113720500Y-69744454D01*
X113706472Y-69655884D01*
X113692173Y-69565601D01*
X113692171Y-69565596D01*
X113692171Y-69565591D01*
X113679444Y-69526420D01*
X113636213Y-69393366D01*
X113636206Y-69393350D01*
X113590809Y-69304255D01*
X113553996Y-69232006D01*
X113447553Y-69085499D01*
X113447548Y-69085494D01*
X113447543Y-69085488D01*
X113319511Y-68957456D01*
X113319505Y-68957451D01*
X113319501Y-68957447D01*
X113319493Y-68957441D01*
X113173000Y-68851008D01*
X113172994Y-68851004D01*
X113011649Y-68768793D01*
X113011633Y-68768786D01*
X112839421Y-68712832D01*
X112839398Y-68712826D01*
X112660557Y-68684501D01*
X112660549Y-68684500D01*
X112660546Y-68684500D01*
X112479454Y-68684500D01*
X112479451Y-68684500D01*
X112479442Y-68684501D01*
X112300601Y-68712826D01*
X112300578Y-68712832D01*
X112128366Y-68768786D01*
X112128350Y-68768793D01*
X111967005Y-68851004D01*
X111966999Y-68851008D01*
X111820506Y-68957441D01*
X111820488Y-68957456D01*
X111692456Y-69085488D01*
X111692441Y-69085506D01*
X111586008Y-69231999D01*
X111586004Y-69232005D01*
X111503793Y-69393350D01*
X111503786Y-69393366D01*
X111447832Y-69565578D01*
X111447826Y-69565601D01*
X111419501Y-69744442D01*
X111419500Y-69744458D01*
X110705500Y-69744458D01*
X110705500Y-67204458D01*
X111419500Y-67204458D01*
X111419500Y-67385541D01*
X111419501Y-67385557D01*
X111447826Y-67564398D01*
X111447832Y-67564421D01*
X111503786Y-67736633D01*
X111503793Y-67736649D01*
X111586004Y-67897994D01*
X111586008Y-67898000D01*
X111692441Y-68044493D01*
X111692447Y-68044501D01*
X111692451Y-68044505D01*
X111692456Y-68044511D01*
X111820488Y-68172543D01*
X111820494Y-68172548D01*
X111820499Y-68172553D01*
X111820506Y-68172558D01*
X111922343Y-68246547D01*
X111967006Y-68278996D01*
X112039255Y-68315809D01*
X112128350Y-68361206D01*
X112128366Y-68361213D01*
X112300578Y-68417167D01*
X112300581Y-68417167D01*
X112300591Y-68417171D01*
X112300596Y-68417171D01*
X112300601Y-68417173D01*
X112444963Y-68440037D01*
X112479454Y-68445500D01*
X112479459Y-68445500D01*
X112660541Y-68445500D01*
X112660546Y-68445500D01*
X112749977Y-68431335D01*
X112839398Y-68417173D01*
X112839400Y-68417172D01*
X112839409Y-68417171D01*
X113011639Y-68361211D01*
X113172994Y-68278996D01*
X113319501Y-68172553D01*
X113447553Y-68044501D01*
X113553996Y-67897994D01*
X113636211Y-67736639D01*
X113692171Y-67564409D01*
X113720500Y-67385546D01*
X113720500Y-67204454D01*
X113692171Y-67025591D01*
X113636211Y-66853361D01*
X113636209Y-66853358D01*
X113636206Y-66853350D01*
X113553995Y-66692005D01*
X113553991Y-66691999D01*
X113447558Y-66545506D01*
X113447553Y-66545499D01*
X113447548Y-66545494D01*
X113447543Y-66545488D01*
X113319511Y-66417456D01*
X113319505Y-66417451D01*
X113319501Y-66417447D01*
X113305375Y-66407184D01*
X113173000Y-66311008D01*
X113172994Y-66311004D01*
X113011649Y-66228793D01*
X113011633Y-66228786D01*
X112839421Y-66172832D01*
X112839398Y-66172826D01*
X112660557Y-66144501D01*
X112660549Y-66144500D01*
X112660546Y-66144500D01*
X112479454Y-66144500D01*
X112479451Y-66144500D01*
X112479442Y-66144501D01*
X112300601Y-66172826D01*
X112300578Y-66172832D01*
X112128366Y-66228786D01*
X112128350Y-66228793D01*
X111967005Y-66311004D01*
X111966999Y-66311008D01*
X111820506Y-66417441D01*
X111820488Y-66417456D01*
X111692456Y-66545488D01*
X111692441Y-66545506D01*
X111586008Y-66691999D01*
X111586004Y-66692005D01*
X111503793Y-66853350D01*
X111503786Y-66853366D01*
X111447832Y-67025578D01*
X111447826Y-67025601D01*
X111419501Y-67204442D01*
X111419500Y-67204458D01*
X110705500Y-67204458D01*
X110705500Y-63973485D01*
X111419500Y-63973485D01*
X111419500Y-65536515D01*
X111434354Y-65630302D01*
X111434353Y-65630302D01*
X111491951Y-65743344D01*
X111581656Y-65833049D01*
X111581659Y-65833051D01*
X111694693Y-65890645D01*
X111694695Y-65890645D01*
X111694696Y-65890646D01*
X111788481Y-65905500D01*
X113351518Y-65905499D01*
X113445304Y-65890646D01*
X113558342Y-65833050D01*
X113648050Y-65743342D01*
X113705646Y-65630304D01*
X113720500Y-65536519D01*
X113720499Y-64664458D01*
X134279500Y-64664458D01*
X134279500Y-64845541D01*
X134279501Y-64845557D01*
X134307826Y-65024398D01*
X134307832Y-65024421D01*
X134363786Y-65196633D01*
X134363793Y-65196649D01*
X134446004Y-65357994D01*
X134446008Y-65358000D01*
X134534855Y-65480288D01*
X134552447Y-65504501D01*
X134552451Y-65504505D01*
X134552456Y-65504511D01*
X134680488Y-65632543D01*
X134680494Y-65632548D01*
X134680499Y-65632553D01*
X134680506Y-65632558D01*
X134807319Y-65724693D01*
X134827006Y-65738996D01*
X134899255Y-65775809D01*
X134988350Y-65821206D01*
X134988366Y-65821213D01*
X135160578Y-65877167D01*
X135160581Y-65877167D01*
X135160591Y-65877171D01*
X135160596Y-65877171D01*
X135160601Y-65877173D01*
X135304963Y-65900037D01*
X135339454Y-65905500D01*
X135339459Y-65905500D01*
X135520541Y-65905500D01*
X135520546Y-65905500D01*
X135614337Y-65890645D01*
X135699398Y-65877173D01*
X135699400Y-65877172D01*
X135699409Y-65877171D01*
X135871639Y-65821211D01*
X135877021Y-65818469D01*
X135885685Y-65814053D01*
X136032994Y-65738996D01*
X136179501Y-65632553D01*
X136307553Y-65504501D01*
X136413996Y-65357994D01*
X136496211Y-65196639D01*
X136552171Y-65024409D01*
X136580500Y-64845546D01*
X136580500Y-64664454D01*
X136552171Y-64485591D01*
X136496211Y-64313361D01*
X136496209Y-64313358D01*
X136496206Y-64313350D01*
X136413995Y-64152005D01*
X136413991Y-64151999D01*
X136307558Y-64005506D01*
X136307553Y-64005499D01*
X136307548Y-64005494D01*
X136307543Y-64005488D01*
X136179511Y-63877456D01*
X136179505Y-63877451D01*
X136179501Y-63877447D01*
X136032994Y-63771004D01*
X136024459Y-63766655D01*
X135871649Y-63688793D01*
X135871633Y-63688786D01*
X135699421Y-63632832D01*
X135699398Y-63632826D01*
X135520557Y-63604501D01*
X135520549Y-63604500D01*
X135520546Y-63604500D01*
X135339454Y-63604500D01*
X135339451Y-63604500D01*
X135339442Y-63604501D01*
X135160601Y-63632826D01*
X135160578Y-63632832D01*
X134988366Y-63688786D01*
X134988350Y-63688793D01*
X134827005Y-63771004D01*
X134826999Y-63771008D01*
X134680506Y-63877441D01*
X134680488Y-63877456D01*
X134552456Y-64005488D01*
X134552441Y-64005506D01*
X134446008Y-64151999D01*
X134446004Y-64152005D01*
X134363793Y-64313350D01*
X134363786Y-64313366D01*
X134307832Y-64485578D01*
X134307826Y-64485601D01*
X134279501Y-64664442D01*
X134279500Y-64664458D01*
X113720499Y-64664458D01*
X113720499Y-63973482D01*
X113705646Y-63879696D01*
X113648050Y-63766658D01*
X113648049Y-63766657D01*
X113648048Y-63766655D01*
X113558343Y-63676950D01*
X113558340Y-63676948D01*
X113445306Y-63619354D01*
X113445302Y-63619353D01*
X113351530Y-63604501D01*
X113351522Y-63604500D01*
X113351519Y-63604500D01*
X113351514Y-63604500D01*
X111788484Y-63604500D01*
X111712345Y-63616558D01*
X111694696Y-63619354D01*
X111639213Y-63647623D01*
X111581655Y-63676951D01*
X111491950Y-63766656D01*
X111491948Y-63766659D01*
X111434354Y-63879693D01*
X111434353Y-63879697D01*
X111419501Y-63973469D01*
X111419500Y-63973485D01*
X110705500Y-63973485D01*
X110705500Y-62914218D01*
X110723982Y-62863438D01*
X110770782Y-62836418D01*
X110784500Y-62835218D01*
X137245651Y-62835218D01*
X137296431Y-62853700D01*
G37*
%TD.AperFunction*%
%TA.AperFunction,Conductor*%
G36*
X127715918Y-98795847D02*
G01*
X127729019Y-98818539D01*
X127761202Y-98904829D01*
X127761205Y-98904834D01*
X127847453Y-99020046D01*
X127962665Y-99106294D01*
X127962670Y-99106297D01*
X128097517Y-99156591D01*
X128097516Y-99156591D01*
X128105999Y-99157503D01*
X128157127Y-99163000D01*
X128452872Y-99162999D01*
X128452878Y-99162999D01*
X128452878Y-99162998D01*
X128512483Y-99156591D01*
X128558721Y-99139344D01*
X128612758Y-99138916D01*
X128642189Y-99157503D01*
X128948684Y-99463998D01*
X128948686Y-99463999D01*
X128948687Y-99464000D01*
X129062815Y-99529892D01*
X129190109Y-99564000D01*
X129321894Y-99564000D01*
X130237465Y-99564000D01*
X130288245Y-99582482D01*
X130315265Y-99629282D01*
X130305881Y-99682500D01*
X130293326Y-99698860D01*
X129748081Y-100244105D01*
X129239825Y-100752361D01*
X129190849Y-100775199D01*
X129183964Y-100775500D01*
X126853536Y-100775500D01*
X126802756Y-100757018D01*
X126797675Y-100752361D01*
X126483780Y-100438466D01*
X126460942Y-100389490D01*
X126460885Y-100376405D01*
X126462307Y-100358334D01*
X126462308Y-100358326D01*
X126462307Y-99754457D01*
X126459462Y-99718293D01*
X126414489Y-99563497D01*
X126332434Y-99424748D01*
X126332433Y-99424747D01*
X126332431Y-99424744D01*
X126228639Y-99320952D01*
X126221351Y-99305324D01*
X126210264Y-99292111D01*
X126207268Y-99275124D01*
X126205801Y-99271976D01*
X126205500Y-99265091D01*
X126205500Y-99241999D01*
X126223982Y-99191219D01*
X126270782Y-99164199D01*
X126284491Y-99162999D01*
X126502872Y-99162999D01*
X126502879Y-99162999D01*
X126502879Y-99162998D01*
X126562483Y-99156591D01*
X126652395Y-99123055D01*
X126706430Y-99122627D01*
X126707481Y-99123009D01*
X126797517Y-99156591D01*
X126857127Y-99163000D01*
X127152872Y-99162999D01*
X127152878Y-99162999D01*
X127152878Y-99162998D01*
X127212483Y-99156591D01*
X127302395Y-99123056D01*
X127347329Y-99106297D01*
X127347334Y-99106294D01*
X127462546Y-99020046D01*
X127548794Y-98904834D01*
X127548797Y-98904829D01*
X127580981Y-98818539D01*
X127616043Y-98777419D01*
X127669334Y-98768457D01*
X127715918Y-98795847D01*
G37*
%TD.AperFunction*%
%TA.AperFunction,Conductor*%
G36*
X125115917Y-98795846D02*
G01*
X125129018Y-98818538D01*
X125161201Y-98904825D01*
X125161203Y-98904828D01*
X125161204Y-98904831D01*
X125161206Y-98904834D01*
X125188742Y-98941617D01*
X125192725Y-98953585D01*
X125199736Y-98961940D01*
X125204500Y-98988960D01*
X125204500Y-99104352D01*
X125186018Y-99155132D01*
X125139218Y-99182152D01*
X125131701Y-99183108D01*
X125123710Y-99183737D01*
X124968911Y-99228711D01*
X124830164Y-99310765D01*
X124830161Y-99310767D01*
X124716184Y-99424744D01*
X124716182Y-99424747D01*
X124634128Y-99563494D01*
X124590981Y-99712006D01*
X124589154Y-99718293D01*
X124586308Y-99754456D01*
X124586308Y-99754457D01*
X124586308Y-99754463D01*
X124586308Y-100120500D01*
X124567826Y-100171280D01*
X124521026Y-100198300D01*
X124507308Y-100199500D01*
X124322878Y-100199500D01*
X124272098Y-100181018D01*
X124267026Y-100176370D01*
X124246542Y-100155886D01*
X124246541Y-100155885D01*
X124246540Y-100155884D01*
X124131811Y-100079225D01*
X124131805Y-100079222D01*
X124004330Y-100026420D01*
X124004328Y-100026419D01*
X123868993Y-99999500D01*
X123731007Y-99999500D01*
X123699912Y-100005685D01*
X123646501Y-99997464D01*
X123610871Y-99956835D01*
X123605500Y-99928203D01*
X123605500Y-98988960D01*
X123613661Y-98953990D01*
X123616886Y-98947455D01*
X123648796Y-98904831D01*
X123682385Y-98814772D01*
X123684161Y-98811176D01*
X123700960Y-98795107D01*
X123716043Y-98777419D01*
X123720181Y-98776723D01*
X123723212Y-98773824D01*
X123746404Y-98772313D01*
X123769334Y-98768457D01*
X123772951Y-98770583D01*
X123777137Y-98770311D01*
X123795876Y-98784063D01*
X123815918Y-98795847D01*
X123818846Y-98800920D01*
X123820704Y-98802283D01*
X123821488Y-98805496D01*
X123829019Y-98818539D01*
X123861202Y-98904829D01*
X123861205Y-98904834D01*
X123947453Y-99020046D01*
X124062665Y-99106294D01*
X124062670Y-99106297D01*
X124197517Y-99156591D01*
X124197516Y-99156591D01*
X124205999Y-99157503D01*
X124257127Y-99163000D01*
X124552872Y-99162999D01*
X124552878Y-99162999D01*
X124552878Y-99162998D01*
X124612483Y-99156591D01*
X124702395Y-99123056D01*
X124747329Y-99106297D01*
X124747334Y-99106294D01*
X124862546Y-99020046D01*
X124948794Y-98904834D01*
X124948794Y-98904833D01*
X124948796Y-98904831D01*
X124980981Y-98818537D01*
X125016042Y-98777419D01*
X125069333Y-98768457D01*
X125115917Y-98795846D01*
G37*
%TD.AperFunction*%
%TA.AperFunction,Conductor*%
G36*
X122576280Y-94010482D02*
G01*
X122603300Y-94057282D01*
X122604500Y-94071000D01*
X122604500Y-96564015D01*
X122619354Y-96657802D01*
X122619353Y-96657802D01*
X122677671Y-96772257D01*
X122684256Y-96825893D01*
X122654824Y-96871214D01*
X122604989Y-96886450D01*
X122604989Y-96887000D01*
X122603191Y-96887000D01*
X122603146Y-96887014D01*
X122603082Y-96887010D01*
X122602894Y-96887000D01*
X122307121Y-96887000D01*
X122307120Y-96887001D01*
X122247525Y-96893407D01*
X122247516Y-96893409D01*
X122209197Y-96907701D01*
X122157609Y-96926942D01*
X122157606Y-96926943D01*
X122103569Y-96927370D01*
X122102393Y-96926942D01*
X122012488Y-96893410D01*
X122012483Y-96893409D01*
X122012480Y-96893408D01*
X122012476Y-96893408D01*
X121952879Y-96887000D01*
X121657121Y-96887000D01*
X121657120Y-96887001D01*
X121597525Y-96893407D01*
X121597516Y-96893409D01*
X121559197Y-96907701D01*
X121507609Y-96926942D01*
X121507606Y-96926943D01*
X121453569Y-96927370D01*
X121452393Y-96926942D01*
X121362488Y-96893410D01*
X121362483Y-96893409D01*
X121362480Y-96893408D01*
X121362476Y-96893408D01*
X121302879Y-96887000D01*
X121007121Y-96887000D01*
X121007120Y-96887001D01*
X120947520Y-96893408D01*
X120947514Y-96893409D01*
X120812670Y-96943702D01*
X120812665Y-96943705D01*
X120697453Y-97029953D01*
X120611205Y-97145165D01*
X120611202Y-97145170D01*
X120560908Y-97280017D01*
X120560908Y-97280018D01*
X120554500Y-97339627D01*
X120554500Y-97445500D01*
X120536018Y-97496280D01*
X120489218Y-97523300D01*
X120475500Y-97524500D01*
X119174036Y-97524500D01*
X119123256Y-97506018D01*
X119096236Y-97459218D01*
X119105620Y-97406000D01*
X119118175Y-97389639D01*
X119600498Y-96907316D01*
X119600500Y-96907314D01*
X119666392Y-96793186D01*
X119700500Y-96665892D01*
X119700500Y-96534107D01*
X119700500Y-94614378D01*
X119718982Y-94563598D01*
X119723629Y-94558526D01*
X119744114Y-94538042D01*
X119820775Y-94423311D01*
X119873580Y-94295828D01*
X119900500Y-94160493D01*
X119900500Y-94071000D01*
X119918982Y-94020220D01*
X119965782Y-93993200D01*
X119979500Y-93992000D01*
X122525500Y-93992000D01*
X122576280Y-94010482D01*
G37*
%TD.AperFunction*%
%TA.AperFunction,Conductor*%
G36*
X116396281Y-84542982D02*
G01*
X116423301Y-84589782D01*
X116424501Y-84603500D01*
X116424501Y-84826934D01*
X116427346Y-84863098D01*
X116472318Y-85017892D01*
X116472320Y-85017896D01*
X116554374Y-85156643D01*
X116554376Y-85156646D01*
X116668353Y-85270623D01*
X116668356Y-85270625D01*
X116668357Y-85270626D01*
X116760712Y-85325244D01*
X116807108Y-85352682D01*
X116911327Y-85382960D01*
X116945148Y-85402962D01*
X117942683Y-86400498D01*
X118053538Y-86464501D01*
X118056814Y-86466392D01*
X118184108Y-86500500D01*
X118315893Y-86500500D01*
X120434108Y-86500500D01*
X120565892Y-86500500D01*
X122600964Y-86500500D01*
X122651744Y-86518982D01*
X122678764Y-86565782D01*
X122669380Y-86619000D01*
X122656825Y-86635361D01*
X118315825Y-90976361D01*
X118266849Y-90999199D01*
X118259964Y-90999500D01*
X117805744Y-90999500D01*
X117754964Y-90981018D01*
X117737745Y-90960714D01*
X117735544Y-90956992D01*
X117683126Y-90868357D01*
X117683125Y-90868356D01*
X117683123Y-90868353D01*
X117569146Y-90754376D01*
X117569143Y-90754374D01*
X117430396Y-90672320D01*
X117430395Y-90672319D01*
X117430394Y-90672319D01*
X117275598Y-90627346D01*
X117239435Y-90624500D01*
X117239428Y-90624500D01*
X116716000Y-90624500D01*
X116665220Y-90606018D01*
X116638200Y-90559218D01*
X116637000Y-90545500D01*
X116637000Y-88575610D01*
X116636999Y-88575605D01*
X116623679Y-88525894D01*
X116602892Y-88448314D01*
X116537000Y-88334186D01*
X116443814Y-88241000D01*
X113690856Y-85488042D01*
X113668018Y-85439066D01*
X113671584Y-85407767D01*
X113673146Y-85402962D01*
X113692171Y-85344409D01*
X113720500Y-85165546D01*
X113720500Y-84984454D01*
X113695552Y-84826935D01*
X113692173Y-84805601D01*
X113692171Y-84805596D01*
X113692171Y-84805591D01*
X113678364Y-84763098D01*
X113635252Y-84630409D01*
X113636204Y-84630099D01*
X113634010Y-84579737D01*
X113666911Y-84536868D01*
X113709351Y-84524500D01*
X116345501Y-84524500D01*
X116396281Y-84542982D01*
G37*
%TD.AperFunction*%
%TD*%
M02*
