%TF.GenerationSoftware,KiCad,Pcbnew,9.0.0*%
%TF.CreationDate,2026-03-10T14:32:51+01:00*%
%TF.ProjectId,ESP32_Shield,45535033-325f-4536-9869-656c642e6b69,rev?*%
%TF.SameCoordinates,Original*%
%TF.FileFunction,Copper,L2,Bot*%
%TF.FilePolarity,Positive*%
%FSLAX46Y46*%
G04 Gerber Fmt 4.6, Leading zero omitted, Abs format (unit mm)*
G04 Created by KiCad (PCBNEW 9.0.0) date 2026-03-10 14:32:51*
%MOMM*%
%LPD*%
G01*
G04 APERTURE LIST*
%TA.AperFunction,ComponentPad*%
%ADD10R,1.700000X1.700000*%
%TD*%
%TA.AperFunction,ComponentPad*%
%ADD11O,1.700000X1.700000*%
%TD*%
%TA.AperFunction,ComponentPad*%
%ADD12C,1.700000*%
%TD*%
%TA.AperFunction,ComponentPad*%
%ADD13R,1.500000X1.500000*%
%TD*%
%TA.AperFunction,ComponentPad*%
%ADD14C,1.500000*%
%TD*%
%TA.AperFunction,ViaPad*%
%ADD15C,0.600000*%
%TD*%
%TA.AperFunction,Conductor*%
%ADD16C,0.800000*%
%TD*%
%TA.AperFunction,Conductor*%
%ADD17C,0.200000*%
%TD*%
G04 APERTURE END LIST*
D10*
%TO.P,ESP32,1,Pin_1*%
%TO.N,+5V*%
X122960000Y-110000000D03*
D11*
%TO.P,ESP32,2,Pin_2*%
%TO.N,Net-(ESP32-Pin_2)*%
X125500000Y-110000000D03*
%TD*%
D10*
%TO.P,V_IN1,1,Pin_1*%
%TO.N,Net-(PWR1-Pin_1)*%
X112710000Y-116000000D03*
D12*
%TO.P,V_IN1,2,Pin_2*%
%TO.N,GND*%
X115250000Y-116000000D03*
%TD*%
D10*
%TO.P,ADC1,1,Pin_1*%
%TO.N,+3.3V*%
X128800000Y-86700000D03*
D11*
%TO.P,ADC1,2,Pin_2*%
%TO.N,Net-(ADC1-Pin_2)*%
X126260000Y-86700000D03*
%TD*%
D10*
%TO.P,THRM1,1,Pin_1*%
%TO.N,+3.3V*%
X124475000Y-66700000D03*
D11*
%TO.P,THRM1,2,Pin_2*%
%TO.N,Net-(THRM1-Pin_2)*%
X121935000Y-66700000D03*
%TD*%
D10*
%TO.P,PWR1,1,Pin_1*%
%TO.N,Net-(PWR1-Pin_1)*%
X112700000Y-110000000D03*
D12*
%TO.P,PWR1,2,Pin_2*%
%TO.N,+5V*%
X115240000Y-110000000D03*
%TD*%
D10*
%TO.P,BAT1,1,Pin_1*%
%TO.N,+BATT*%
X132250000Y-110000000D03*
D12*
%TO.P,BAT1,2,Pin_2*%
%TO.N,GND*%
X134790000Y-110000000D03*
%TD*%
D13*
%TO.P,U2,1,EN*%
%TO.N,unconnected-(U2-EN-Pad1)*%
X112570000Y-64755000D03*
D14*
%TO.P,U2,2,IO36*%
%TO.N,unconnected-(U2-IO36-Pad2)*%
X112570000Y-67295000D03*
%TO.P,U2,3,IO39*%
%TO.N,unconnected-(U2-IO39-Pad3)*%
X112570000Y-69835000D03*
%TO.P,U2,4,IO39*%
%TO.N,unconnected-(U2-IO39-Pad4)*%
X112570000Y-72375000D03*
%TO.P,U2,5,IO34*%
%TO.N,unconnected-(U2-IO34-Pad5)*%
X112570000Y-74915000D03*
%TO.P,U2,6,IO35*%
%TO.N,unconnected-(U2-IO35-Pad6)*%
X112570000Y-77455000D03*
%TO.P,U2,7,IO32*%
%TO.N,unconnected-(U2-IO32-Pad7)*%
X112570000Y-79995000D03*
%TO.P,U2,8,IO33*%
%TO.N,MODE_PD*%
X112570000Y-82535000D03*
%TO.P,U2,9,IO26*%
%TO.N,!PWDN*%
X112570000Y-85075000D03*
%TO.P,U2,10,IO27*%
%TO.N,CS_Display*%
X112570000Y-87615000D03*
%TO.P,U2,11,IO14*%
%TO.N,SPI_CLK*%
X112570000Y-90155000D03*
%TO.P,U2,12,IO12*%
%TO.N,bat_adc*%
X112570000Y-92695000D03*
%TO.P,U2,13,IO13*%
%TO.N,TARA_PD*%
X112570000Y-95235000D03*
%TO.P,U2,14,GND*%
%TO.N,GND*%
X112570000Y-97775000D03*
%TO.P,U2,15,5V*%
%TO.N,Net-(ESP32-Pin_2)*%
X112570000Y-100315000D03*
%TO.P,U2,16,3V3*%
%TO.N,+3.3V*%
X135430000Y-100315000D03*
%TO.P,U2,17,GND*%
%TO.N,GND*%
X135430000Y-97775000D03*
%TO.P,U2,18,IO15*%
%TO.N,SCLK*%
X135430000Y-95235000D03*
%TO.P,U2,19,IO2*%
%TO.N,D_RDY_OUT*%
X135430000Y-92695000D03*
%TO.P,U2,20,IO4*%
%TO.N,unconnected-(U2-IO4-Pad20)*%
X135430000Y-90155000D03*
%TO.P,U2,21,IO16*%
%TO.N,unconnected-(U2-IO16-Pad21)*%
X135430000Y-87615000D03*
%TO.P,U2,22,IO17*%
%TO.N,!EN_DMS*%
X135430000Y-85075000D03*
%TO.P,U2,23,IO5*%
%TO.N,en_meas*%
X135430000Y-82535000D03*
%TO.P,U2,24,IO18*%
%TO.N,unconnected-(U2-IO18-Pad24)*%
X135430000Y-79995000D03*
%TO.P,U2,25,IO19*%
%TO.N,MISO*%
X135430000Y-77455000D03*
%TO.P,U2,26,IO21*%
%TO.N,SDA*%
X135430000Y-74915000D03*
%TO.P,U2,27,IO3*%
%TO.N,unconnected-(U2-IO3-Pad27)*%
X135430000Y-72375000D03*
%TO.P,U2,28,IO1*%
%TO.N,unconnected-(U2-IO1-Pad28)*%
X135430000Y-69835000D03*
%TO.P,U2,29,IO23*%
%TO.N,SCL*%
X135430000Y-67295000D03*
%TO.P,U2,30,IO23*%
%TO.N,MOSI*%
X135430000Y-64755000D03*
%TD*%
D10*
%TO.P,DMS1,1,Pin_1*%
%TO.N,+3.3V*%
X135275000Y-116000000D03*
D11*
%TO.P,DMS1,2,Pin_2*%
%TO.N,Net-(DMS1-Pin_2)*%
X132735000Y-116000000D03*
%TD*%
D10*
%TO.P,J1,1,Pin_1*%
%TO.N,GND*%
X112570000Y-104500000D03*
D12*
%TO.P,J1,2,Pin_2*%
%TO.N,Net-(J1-Pin_2)*%
X115110000Y-104500000D03*
%TO.P,J1,3,Pin_3*%
%TO.N,Net-(J1-Pin_3)*%
X117650000Y-104500000D03*
%TO.P,J1,4,Pin_4*%
%TO.N,Net-(J1-Pin_4)*%
X120190000Y-104500000D03*
%TO.P,J1,5,Pin_5*%
%TO.N,Net-(J1-Pin_5)*%
X122730000Y-104500000D03*
%TO.P,J1,6,Pin_6*%
%TO.N,Net-(J1-Pin_6)*%
X125270000Y-104500000D03*
%TO.P,J1,7,Pin_7*%
%TO.N,Net-(J1-Pin_7)*%
X127810000Y-104500000D03*
%TO.P,J1,8,Pin_8*%
%TO.N,Net-(J1-Pin_8)*%
X130350000Y-104500000D03*
%TO.P,J1,9,Pin_9*%
%TO.N,Net-(J1-Pin_9)*%
X132890000Y-104500000D03*
%TO.P,J1,10,Pin_10*%
%TO.N,Net-(J1-Pin_10)*%
X135430000Y-104500000D03*
%TD*%
D15*
%TO.N,+3.3V*%
X132250000Y-87250000D03*
X132250000Y-70200000D03*
X132250000Y-67800000D03*
X132250000Y-73100000D03*
%TO.N,GND*%
X119380000Y-116840000D03*
X114100000Y-93500000D03*
X136525000Y-86360000D03*
X126100000Y-81500000D03*
X123500000Y-81250000D03*
X121920000Y-113030000D03*
X118110000Y-87630000D03*
X125500000Y-70800000D03*
X120850000Y-72786657D03*
X131074357Y-86090564D03*
X125730000Y-75565000D03*
X123825000Y-79375000D03*
X114200000Y-87900000D03*
X118917966Y-102390703D03*
X118917966Y-100105075D03*
X129540000Y-113030000D03*
X113665000Y-78740000D03*
X128905000Y-65405000D03*
X129540000Y-78105000D03*
X111200000Y-96400000D03*
X136525000Y-93980000D03*
X130810000Y-76200000D03*
X111125000Y-73660000D03*
X119806238Y-97146283D03*
X113800000Y-106700000D03*
X113665000Y-76200000D03*
X136525000Y-88900000D03*
X126365000Y-63500000D03*
X113665000Y-71120000D03*
X127635000Y-79375000D03*
X125730000Y-79375000D03*
X128133220Y-91061039D03*
X112600000Y-102300000D03*
X128700000Y-81500000D03*
X130810000Y-106680000D03*
X113665000Y-66040000D03*
X113665000Y-68580000D03*
X121920000Y-78105000D03*
X129000000Y-100500000D03*
X111125000Y-78740000D03*
X121920000Y-114935000D03*
X121400000Y-87000000D03*
X115300000Y-86500000D03*
X123825000Y-63500000D03*
X127000000Y-114935000D03*
X113665000Y-81280000D03*
X116205000Y-68580000D03*
X111125000Y-76200000D03*
X135255000Y-106680000D03*
X124460000Y-116840000D03*
X133500000Y-73000000D03*
X134343287Y-96739846D03*
X111125000Y-68580000D03*
X131074357Y-88277354D03*
X127000000Y-113030000D03*
X130810000Y-74930000D03*
X119380000Y-114935000D03*
X118745000Y-66040000D03*
X130810000Y-78105000D03*
X120750000Y-79750000D03*
X129540000Y-114935000D03*
X125728163Y-90575086D03*
X124460000Y-113030000D03*
X120500000Y-81250000D03*
X121920000Y-79375000D03*
X136525000Y-96520000D03*
X111125000Y-113030000D03*
X121000000Y-102800000D03*
X133985000Y-66040000D03*
X123066452Y-70493236D03*
X119380000Y-113030000D03*
X121285000Y-63500000D03*
X133985000Y-91440000D03*
X132080000Y-100330000D03*
X115600000Y-76800000D03*
X128905000Y-67945000D03*
X130175000Y-109855000D03*
X120850000Y-73500000D03*
X133600000Y-78300000D03*
X133985000Y-88900000D03*
X118745000Y-63500000D03*
X130000000Y-77000000D03*
X136525000Y-91440000D03*
X124460000Y-114935000D03*
X114300000Y-113030000D03*
X111125000Y-66040000D03*
X136525000Y-66040000D03*
X116840000Y-113030000D03*
X129540000Y-93980000D03*
X128905000Y-63500000D03*
X111125000Y-81280000D03*
X133985000Y-83820000D03*
X126362373Y-90953964D03*
X129540000Y-116840000D03*
X136525000Y-73660000D03*
X123825000Y-75565000D03*
X116205000Y-66040000D03*
X121920000Y-116840000D03*
X136525000Y-83820000D03*
X115700000Y-73700000D03*
X119982843Y-94812675D03*
X128948633Y-91044566D03*
X136525000Y-76200000D03*
X128905000Y-108585000D03*
X121920000Y-74930000D03*
X129540000Y-95885000D03*
X136525000Y-71120000D03*
X131445000Y-63500000D03*
X133350000Y-100330000D03*
X130900000Y-81500000D03*
X136525000Y-78740000D03*
X123825000Y-78105000D03*
X127000000Y-90500000D03*
X126400000Y-89800000D03*
X115600000Y-79200000D03*
X130810000Y-79375000D03*
X136525000Y-99060000D03*
X113665000Y-73660000D03*
X124300000Y-99300000D03*
X119300000Y-70100000D03*
X121100000Y-70100000D03*
X136525000Y-81280000D03*
X133500000Y-74900000D03*
X127000000Y-116840000D03*
X116205000Y-63500000D03*
X125730000Y-78105000D03*
X131445000Y-65405000D03*
X130810000Y-67945000D03*
X111200000Y-99200000D03*
X125500000Y-72750000D03*
X133985000Y-86360000D03*
X135255000Y-102235000D03*
X136525000Y-68580000D03*
X114400000Y-83200000D03*
X129540000Y-79375000D03*
X128400000Y-99300000D03*
X111125000Y-71120000D03*
X118100000Y-90400000D03*
X127635000Y-78105000D03*
X125061007Y-91003383D03*
X119701223Y-99077262D03*
X131000000Y-72100000D03*
X118745000Y-68580000D03*
%TO.N,Net-(J1-Pin_9)*%
X122455548Y-90483527D03*
X124307528Y-101356057D03*
%TO.N,Net-(J1-Pin_10)*%
X123800000Y-100700000D03*
X123069485Y-91030515D03*
%TO.N,Net-(J1-Pin_6)*%
X121774888Y-90959677D03*
%TO.N,Net-(J1-Pin_5)*%
X121138807Y-90474491D03*
%TO.N,+BATT*%
X120600000Y-76500000D03*
X119200000Y-94091500D03*
%TO.N,!EN_DMS*%
X117601448Y-92583552D03*
X116752918Y-93432082D03*
%TO.N,Net-(ADC1-Pin_2)*%
X131200000Y-99500000D03*
X131100000Y-90800000D03*
%TD*%
D16*
%TO.N,+3.3V*%
X135430000Y-100315000D02*
X132250000Y-97135000D01*
X132250000Y-87250000D02*
X132250000Y-73100000D01*
X132250000Y-70200000D02*
X132250000Y-67800000D01*
X132250000Y-97135000D02*
X132250000Y-87250000D01*
X132250000Y-73100000D02*
X132250000Y-70200000D01*
D17*
%TO.N,Net-(J1-Pin_9)*%
X124307528Y-101569461D02*
X124038067Y-101300000D01*
X124038067Y-101300000D02*
X122500000Y-101300000D01*
X122500000Y-101300000D02*
X122455548Y-101255548D01*
X122455548Y-101255548D02*
X122455548Y-90483527D01*
%TO.N,Net-(J1-Pin_10)*%
X123800000Y-100700000D02*
X123069485Y-99969485D01*
X123069485Y-99969485D02*
X123069485Y-99900000D01*
X123069485Y-99900000D02*
X123069485Y-91030515D01*
%TO.N,Net-(J1-Pin_6)*%
X121774888Y-101774888D02*
X121774888Y-90959677D01*
X125270000Y-104500000D02*
X124500000Y-104500000D01*
X124500000Y-104500000D02*
X121774888Y-101774888D01*
%TO.N,Net-(J1-Pin_5)*%
X122730000Y-103480000D02*
X121138807Y-101888807D01*
X121138807Y-101888807D02*
X121138807Y-90474491D01*
X122730000Y-104500000D02*
X122730000Y-103480000D01*
%TO.N,+BATT*%
X119200000Y-77900000D02*
X120600000Y-76500000D01*
X119200000Y-94091500D02*
X119200000Y-77900000D01*
%TO.N,!EN_DMS*%
X116752918Y-93432082D02*
X117601448Y-92583552D01*
%TO.N,Net-(ADC1-Pin_2)*%
X131100000Y-90800000D02*
X131100000Y-99400000D01*
X131100000Y-99400000D02*
X131200000Y-99500000D01*
%TD*%
%TA.AperFunction,Conductor*%
%TO.N,GND*%
G36*
X136905363Y-62851206D02*
G01*
X137005568Y-62864398D01*
X137026372Y-62869972D01*
X137114717Y-62906566D01*
X137133363Y-62917331D01*
X137209230Y-62975546D01*
X137224453Y-62990769D01*
X137282666Y-63066634D01*
X137293433Y-63085282D01*
X137330027Y-63173627D01*
X137335601Y-63194430D01*
X137348794Y-63294636D01*
X137349500Y-63305405D01*
X137349500Y-117494594D01*
X137348794Y-117505362D01*
X137348794Y-117505363D01*
X137335601Y-117605569D01*
X137330027Y-117626372D01*
X137293433Y-117714717D01*
X137282665Y-117733368D01*
X137224456Y-117809227D01*
X137209227Y-117824456D01*
X137133368Y-117882665D01*
X137114717Y-117893433D01*
X137026372Y-117930027D01*
X137005569Y-117935601D01*
X136921717Y-117946640D01*
X136905361Y-117948794D01*
X136894595Y-117949500D01*
X111105405Y-117949500D01*
X111094638Y-117948794D01*
X111075904Y-117946327D01*
X110994430Y-117935601D01*
X110973627Y-117930027D01*
X110885282Y-117893433D01*
X110866634Y-117882666D01*
X110790769Y-117824453D01*
X110775546Y-117809230D01*
X110717331Y-117733363D01*
X110706566Y-117714717D01*
X110669972Y-117626372D01*
X110664398Y-117605568D01*
X110651206Y-117505362D01*
X110650500Y-117494594D01*
X110650500Y-115118480D01*
X111459500Y-115118480D01*
X111459500Y-116881513D01*
X111474354Y-116975305D01*
X111522362Y-117069525D01*
X111531950Y-117088342D01*
X111621658Y-117178050D01*
X111734696Y-117235646D01*
X111734699Y-117235647D01*
X111770719Y-117241351D01*
X111828481Y-117250500D01*
X113591518Y-117250499D01*
X113685304Y-117235646D01*
X113798342Y-117178050D01*
X113888050Y-117088342D01*
X113945646Y-116975304D01*
X113960500Y-116881519D01*
X113960499Y-116775817D01*
X113979800Y-116722790D01*
X114028672Y-116694572D01*
X114084248Y-116704372D01*
X114109743Y-116727327D01*
X114134727Y-116761716D01*
X114134729Y-116761716D01*
X114767037Y-116129408D01*
X114784075Y-116192993D01*
X114849901Y-116307007D01*
X114942993Y-116400099D01*
X115057007Y-116465925D01*
X115120590Y-116482962D01*
X114488281Y-117115270D01*
X114488282Y-117115271D01*
X114542441Y-117154619D01*
X114542440Y-117154619D01*
X114731784Y-117251096D01*
X114933867Y-117316756D01*
X114933877Y-117316758D01*
X115143754Y-117350000D01*
X115356246Y-117350000D01*
X115566122Y-117316758D01*
X115566132Y-117316756D01*
X115768215Y-117251096D01*
X115957550Y-117154624D01*
X115957554Y-117154621D01*
X116011717Y-117115270D01*
X115379409Y-116482962D01*
X115442993Y-116465925D01*
X115557007Y-116400099D01*
X115650099Y-116307007D01*
X115715925Y-116192993D01*
X115732962Y-116129409D01*
X116365270Y-116761717D01*
X116404621Y-116707554D01*
X116404624Y-116707550D01*
X116501096Y-116518215D01*
X116566756Y-116316132D01*
X116566758Y-116316122D01*
X116600000Y-116106246D01*
X116600000Y-115901583D01*
X131484500Y-115901583D01*
X131484500Y-116098416D01*
X131515290Y-116292822D01*
X131515292Y-116292832D01*
X131576117Y-116480029D01*
X131665474Y-116655402D01*
X131781163Y-116814635D01*
X131781169Y-116814642D01*
X131781172Y-116814646D01*
X131920354Y-116953828D01*
X131920358Y-116953831D01*
X131920364Y-116953836D01*
X131949914Y-116975305D01*
X132079595Y-117069524D01*
X132079597Y-117069525D01*
X132254970Y-117158882D01*
X132254972Y-117158882D01*
X132254975Y-117158884D01*
X132313962Y-117178050D01*
X132442167Y-117219707D01*
X132442169Y-117219707D01*
X132442174Y-117219709D01*
X132636583Y-117250500D01*
X132636584Y-117250500D01*
X132833416Y-117250500D01*
X132833417Y-117250500D01*
X133027826Y-117219709D01*
X133215025Y-117158884D01*
X133390405Y-117069524D01*
X133549646Y-116953828D01*
X133688828Y-116814646D01*
X133804524Y-116655405D01*
X133868492Y-116529858D01*
X133909764Y-116491372D01*
X133966120Y-116488418D01*
X134011190Y-116522380D01*
X134024500Y-116567313D01*
X134024500Y-116881513D01*
X134039354Y-116975305D01*
X134087362Y-117069525D01*
X134096950Y-117088342D01*
X134186658Y-117178050D01*
X134299696Y-117235646D01*
X134299699Y-117235647D01*
X134335719Y-117241351D01*
X134393481Y-117250500D01*
X136156518Y-117250499D01*
X136250304Y-117235646D01*
X136363342Y-117178050D01*
X136453050Y-117088342D01*
X136510646Y-116975304D01*
X136525500Y-116881519D01*
X136525499Y-115118482D01*
X136510646Y-115024696D01*
X136453050Y-114911658D01*
X136363342Y-114821950D01*
X136363340Y-114821949D01*
X136363339Y-114821948D01*
X136250305Y-114764354D01*
X136250300Y-114764352D01*
X136156519Y-114749500D01*
X134393486Y-114749500D01*
X134299694Y-114764354D01*
X134186660Y-114821948D01*
X134186656Y-114821951D01*
X134096951Y-114911656D01*
X134096948Y-114911660D01*
X134039354Y-115024694D01*
X134039352Y-115024699D01*
X134024500Y-115118480D01*
X134024500Y-115432685D01*
X134005199Y-115485715D01*
X133956326Y-115513932D01*
X133900750Y-115504132D01*
X133868492Y-115470139D01*
X133804525Y-115344597D01*
X133688836Y-115185364D01*
X133688831Y-115185358D01*
X133688828Y-115185354D01*
X133549646Y-115046172D01*
X133549642Y-115046169D01*
X133549635Y-115046163D01*
X133390402Y-114930474D01*
X133215029Y-114841117D01*
X133027832Y-114780292D01*
X133027822Y-114780290D01*
X132892081Y-114758791D01*
X132833417Y-114749500D01*
X132636583Y-114749500D01*
X132591517Y-114756637D01*
X132442177Y-114780290D01*
X132442167Y-114780292D01*
X132254970Y-114841117D01*
X132079597Y-114930474D01*
X131920364Y-115046163D01*
X131920349Y-115046176D01*
X131781176Y-115185349D01*
X131781163Y-115185364D01*
X131665474Y-115344597D01*
X131576117Y-115519970D01*
X131515292Y-115707167D01*
X131515290Y-115707177D01*
X131484500Y-115901583D01*
X116600000Y-115901583D01*
X116600000Y-115893753D01*
X116566758Y-115683877D01*
X116566756Y-115683867D01*
X116501096Y-115481784D01*
X116404619Y-115292441D01*
X116365271Y-115238282D01*
X116365270Y-115238281D01*
X115732962Y-115870589D01*
X115715925Y-115807007D01*
X115650099Y-115692993D01*
X115557007Y-115599901D01*
X115442993Y-115534075D01*
X115379409Y-115517037D01*
X116011716Y-114884729D01*
X116011716Y-114884728D01*
X115957560Y-114845382D01*
X115957549Y-114845375D01*
X115768215Y-114748903D01*
X115566132Y-114683243D01*
X115566122Y-114683241D01*
X115356246Y-114650000D01*
X115143754Y-114650000D01*
X114933877Y-114683241D01*
X114933867Y-114683243D01*
X114731782Y-114748904D01*
X114731779Y-114748905D01*
X114542455Y-114845371D01*
X114542441Y-114845380D01*
X114488282Y-114884727D01*
X114488282Y-114884729D01*
X115120590Y-115517037D01*
X115057007Y-115534075D01*
X114942993Y-115599901D01*
X114849901Y-115692993D01*
X114784075Y-115807007D01*
X114767037Y-115870590D01*
X114134729Y-115238282D01*
X114134727Y-115238282D01*
X114109743Y-115272671D01*
X114062958Y-115304228D01*
X114006834Y-115298330D01*
X113967632Y-115257736D01*
X113960499Y-115224179D01*
X113960499Y-115118486D01*
X113960499Y-115118482D01*
X113945646Y-115024696D01*
X113945645Y-115024694D01*
X113909435Y-114953627D01*
X113909434Y-114953626D01*
X113888049Y-114911657D01*
X113798343Y-114821951D01*
X113798339Y-114821948D01*
X113685305Y-114764354D01*
X113685300Y-114764352D01*
X113591519Y-114749500D01*
X111828486Y-114749500D01*
X111734694Y-114764354D01*
X111621660Y-114821948D01*
X111621656Y-114821951D01*
X111531951Y-114911656D01*
X111531948Y-114911660D01*
X111474354Y-115024694D01*
X111474352Y-115024699D01*
X111459500Y-115118480D01*
X110650500Y-115118480D01*
X110650500Y-109118480D01*
X111449500Y-109118480D01*
X111449500Y-110881513D01*
X111464354Y-110975305D01*
X111512362Y-111069525D01*
X111521950Y-111088342D01*
X111611658Y-111178050D01*
X111724696Y-111235646D01*
X111724699Y-111235647D01*
X111760719Y-111241351D01*
X111818481Y-111250500D01*
X113581518Y-111250499D01*
X113675304Y-111235646D01*
X113788342Y-111178050D01*
X113878050Y-111088342D01*
X113935646Y-110975304D01*
X113950500Y-110881519D01*
X113950499Y-110567311D01*
X113969800Y-110514284D01*
X114018673Y-110486067D01*
X114074249Y-110495867D01*
X114106507Y-110529860D01*
X114170474Y-110655402D01*
X114286163Y-110814635D01*
X114286169Y-110814642D01*
X114286172Y-110814646D01*
X114425354Y-110953828D01*
X114425358Y-110953831D01*
X114425364Y-110953836D01*
X114454914Y-110975305D01*
X114584595Y-111069524D01*
X114584597Y-111069525D01*
X114759970Y-111158882D01*
X114759972Y-111158882D01*
X114759975Y-111158884D01*
X114818962Y-111178050D01*
X114947167Y-111219707D01*
X114947169Y-111219707D01*
X114947174Y-111219709D01*
X115141583Y-111250500D01*
X115141584Y-111250500D01*
X115338416Y-111250500D01*
X115338417Y-111250500D01*
X115532826Y-111219709D01*
X115720025Y-111158884D01*
X115895405Y-111069524D01*
X116054646Y-110953828D01*
X116193828Y-110814646D01*
X116309524Y-110655405D01*
X116398884Y-110480025D01*
X116459709Y-110292826D01*
X116490500Y-110098417D01*
X116490500Y-109901583D01*
X116459709Y-109707174D01*
X116455101Y-109692993D01*
X116398882Y-109519970D01*
X116309525Y-109344597D01*
X116193836Y-109185364D01*
X116193831Y-109185358D01*
X116193828Y-109185354D01*
X116126954Y-109118480D01*
X121709500Y-109118480D01*
X121709500Y-110881513D01*
X121724354Y-110975305D01*
X121772362Y-111069525D01*
X121781950Y-111088342D01*
X121871658Y-111178050D01*
X121984696Y-111235646D01*
X121984699Y-111235647D01*
X122020719Y-111241351D01*
X122078481Y-111250500D01*
X123841518Y-111250499D01*
X123935304Y-111235646D01*
X124048342Y-111178050D01*
X124138050Y-111088342D01*
X124195646Y-110975304D01*
X124210500Y-110881519D01*
X124210499Y-110567311D01*
X124229800Y-110514284D01*
X124278673Y-110486067D01*
X124334249Y-110495867D01*
X124366507Y-110529860D01*
X124430474Y-110655402D01*
X124546163Y-110814635D01*
X124546169Y-110814642D01*
X124546172Y-110814646D01*
X124685354Y-110953828D01*
X124685358Y-110953831D01*
X124685364Y-110953836D01*
X124714914Y-110975305D01*
X124844595Y-111069524D01*
X124844597Y-111069525D01*
X125019970Y-111158882D01*
X125019972Y-111158882D01*
X125019975Y-111158884D01*
X125078962Y-111178050D01*
X125207167Y-111219707D01*
X125207169Y-111219707D01*
X125207174Y-111219709D01*
X125401583Y-111250500D01*
X125401584Y-111250500D01*
X125598416Y-111250500D01*
X125598417Y-111250500D01*
X125792826Y-111219709D01*
X125980025Y-111158884D01*
X126155405Y-111069524D01*
X126314646Y-110953828D01*
X126453828Y-110814646D01*
X126569524Y-110655405D01*
X126658884Y-110480025D01*
X126719709Y-110292826D01*
X126750500Y-110098417D01*
X126750500Y-109901583D01*
X126719709Y-109707174D01*
X126715101Y-109692993D01*
X126658882Y-109519970D01*
X126569525Y-109344597D01*
X126453836Y-109185364D01*
X126453831Y-109185358D01*
X126453828Y-109185354D01*
X126386954Y-109118480D01*
X130999500Y-109118480D01*
X130999500Y-110881513D01*
X131014354Y-110975305D01*
X131062362Y-111069525D01*
X131071950Y-111088342D01*
X131161658Y-111178050D01*
X131274696Y-111235646D01*
X131274699Y-111235647D01*
X131310719Y-111241351D01*
X131368481Y-111250500D01*
X133131518Y-111250499D01*
X133225304Y-111235646D01*
X133338342Y-111178050D01*
X133428050Y-111088342D01*
X133485646Y-110975304D01*
X133500500Y-110881519D01*
X133500499Y-110775817D01*
X133519800Y-110722790D01*
X133568672Y-110694572D01*
X133624248Y-110704372D01*
X133649743Y-110727327D01*
X133674727Y-110761716D01*
X133674729Y-110761716D01*
X134307037Y-110129408D01*
X134324075Y-110192993D01*
X134389901Y-110307007D01*
X134482993Y-110400099D01*
X134597007Y-110465925D01*
X134660590Y-110482962D01*
X134028281Y-111115270D01*
X134028282Y-111115271D01*
X134082441Y-111154619D01*
X134082440Y-111154619D01*
X134271784Y-111251096D01*
X134473867Y-111316756D01*
X134473877Y-111316758D01*
X134683754Y-111350000D01*
X134896246Y-111350000D01*
X135106122Y-111316758D01*
X135106132Y-111316756D01*
X135308215Y-111251096D01*
X135497550Y-111154624D01*
X135497554Y-111154621D01*
X135551717Y-111115270D01*
X134919409Y-110482962D01*
X134982993Y-110465925D01*
X135097007Y-110400099D01*
X135190099Y-110307007D01*
X135255925Y-110192993D01*
X135272962Y-110129409D01*
X135905270Y-110761717D01*
X135944621Y-110707554D01*
X135944624Y-110707550D01*
X136041096Y-110518215D01*
X136106756Y-110316132D01*
X136106758Y-110316122D01*
X136140000Y-110106246D01*
X136140000Y-109893753D01*
X136106758Y-109683877D01*
X136106756Y-109683867D01*
X136041096Y-109481784D01*
X135944619Y-109292441D01*
X135905271Y-109238282D01*
X135905270Y-109238281D01*
X135272962Y-109870590D01*
X135255925Y-109807007D01*
X135190099Y-109692993D01*
X135097007Y-109599901D01*
X134982993Y-109534075D01*
X134919409Y-109517037D01*
X135551716Y-108884729D01*
X135551716Y-108884728D01*
X135497560Y-108845382D01*
X135497549Y-108845375D01*
X135308215Y-108748903D01*
X135106132Y-108683243D01*
X135106122Y-108683241D01*
X134896246Y-108650000D01*
X134683754Y-108650000D01*
X134473877Y-108683241D01*
X134473867Y-108683243D01*
X134271782Y-108748904D01*
X134271779Y-108748905D01*
X134082455Y-108845371D01*
X134082441Y-108845380D01*
X134028282Y-108884727D01*
X134028282Y-108884729D01*
X134660590Y-109517037D01*
X134597007Y-109534075D01*
X134482993Y-109599901D01*
X134389901Y-109692993D01*
X134324075Y-109807007D01*
X134307037Y-109870590D01*
X133674729Y-109238282D01*
X133674727Y-109238282D01*
X133649743Y-109272671D01*
X133602958Y-109304228D01*
X133546834Y-109298330D01*
X133507632Y-109257736D01*
X133500499Y-109224179D01*
X133500499Y-109118486D01*
X133500499Y-109118482D01*
X133485646Y-109024696D01*
X133485645Y-109024694D01*
X133449435Y-108953627D01*
X133449434Y-108953626D01*
X133428049Y-108911657D01*
X133338343Y-108821951D01*
X133338339Y-108821948D01*
X133225305Y-108764354D01*
X133225300Y-108764352D01*
X133131519Y-108749500D01*
X131368486Y-108749500D01*
X131274694Y-108764354D01*
X131161660Y-108821948D01*
X131161656Y-108821951D01*
X131071951Y-108911656D01*
X131071948Y-108911660D01*
X131014354Y-109024694D01*
X131014352Y-109024699D01*
X130999500Y-109118480D01*
X126386954Y-109118480D01*
X126314646Y-109046172D01*
X126314642Y-109046169D01*
X126314635Y-109046163D01*
X126155402Y-108930474D01*
X125980029Y-108841117D01*
X125792832Y-108780292D01*
X125792822Y-108780290D01*
X125657081Y-108758791D01*
X125598417Y-108749500D01*
X125401583Y-108749500D01*
X125356517Y-108756637D01*
X125207177Y-108780290D01*
X125207167Y-108780292D01*
X125019970Y-108841117D01*
X124844597Y-108930474D01*
X124685364Y-109046163D01*
X124685349Y-109046176D01*
X124546176Y-109185349D01*
X124546163Y-109185364D01*
X124430474Y-109344597D01*
X124366507Y-109470140D01*
X124325234Y-109508628D01*
X124268878Y-109511581D01*
X124223809Y-109477619D01*
X124210499Y-109432686D01*
X124210499Y-109118486D01*
X124210499Y-109118482D01*
X124195646Y-109024696D01*
X124138050Y-108911658D01*
X124048342Y-108821950D01*
X124048340Y-108821949D01*
X124048339Y-108821948D01*
X123935305Y-108764354D01*
X123935300Y-108764352D01*
X123841519Y-108749500D01*
X122078486Y-108749500D01*
X121984694Y-108764354D01*
X121871660Y-108821948D01*
X121871656Y-108821951D01*
X121781951Y-108911656D01*
X121781948Y-108911660D01*
X121724354Y-109024694D01*
X121724352Y-109024699D01*
X121709500Y-109118480D01*
X116126954Y-109118480D01*
X116054646Y-109046172D01*
X116054642Y-109046169D01*
X116054635Y-109046163D01*
X115895402Y-108930474D01*
X115720029Y-108841117D01*
X115532832Y-108780292D01*
X115532822Y-108780290D01*
X115397081Y-108758791D01*
X115338417Y-108749500D01*
X115141583Y-108749500D01*
X115096517Y-108756637D01*
X114947177Y-108780290D01*
X114947167Y-108780292D01*
X114759970Y-108841117D01*
X114584597Y-108930474D01*
X114425364Y-109046163D01*
X114425349Y-109046176D01*
X114286176Y-109185349D01*
X114286163Y-109185364D01*
X114170474Y-109344597D01*
X114106507Y-109470140D01*
X114065234Y-109508628D01*
X114008878Y-109511581D01*
X113963809Y-109477619D01*
X113950499Y-109432686D01*
X113950499Y-109118486D01*
X113950499Y-109118482D01*
X113935646Y-109024696D01*
X113878050Y-108911658D01*
X113788342Y-108821950D01*
X113788340Y-108821949D01*
X113788339Y-108821948D01*
X113675305Y-108764354D01*
X113675300Y-108764352D01*
X113581519Y-108749500D01*
X111818486Y-108749500D01*
X111724694Y-108764354D01*
X111611660Y-108821948D01*
X111611656Y-108821951D01*
X111521951Y-108911656D01*
X111521948Y-108911660D01*
X111464354Y-109024694D01*
X111464352Y-109024699D01*
X111449500Y-109118480D01*
X110650500Y-109118480D01*
X110650500Y-103602172D01*
X111220000Y-103602172D01*
X111220000Y-104250000D01*
X112136988Y-104250000D01*
X112104075Y-104307007D01*
X112070000Y-104434174D01*
X112070000Y-104565826D01*
X112104075Y-104692993D01*
X112136988Y-104750000D01*
X111220000Y-104750000D01*
X111220000Y-105397827D01*
X111226401Y-105457373D01*
X111226401Y-105457374D01*
X111276647Y-105592090D01*
X111362811Y-105707188D01*
X111477909Y-105793352D01*
X111477908Y-105793352D01*
X111612625Y-105843598D01*
X111672173Y-105850000D01*
X112320000Y-105850000D01*
X112320000Y-104933012D01*
X112377007Y-104965925D01*
X112504174Y-105000000D01*
X112635826Y-105000000D01*
X112762993Y-104965925D01*
X112820000Y-104933012D01*
X112820000Y-105850000D01*
X113467827Y-105850000D01*
X113527373Y-105843598D01*
X113527374Y-105843598D01*
X113662090Y-105793352D01*
X113777188Y-105707188D01*
X113863352Y-105592090D01*
X113913598Y-105457374D01*
X113913598Y-105457373D01*
X113920000Y-105397827D01*
X113920000Y-105243492D01*
X113939301Y-105190462D01*
X113988174Y-105162245D01*
X114043750Y-105172045D01*
X114069244Y-105195000D01*
X114156163Y-105314635D01*
X114156169Y-105314642D01*
X114156172Y-105314646D01*
X114295354Y-105453828D01*
X114295358Y-105453831D01*
X114295364Y-105453836D01*
X114393847Y-105525388D01*
X114454595Y-105569524D01*
X114454597Y-105569525D01*
X114629970Y-105658882D01*
X114629972Y-105658882D01*
X114629975Y-105658884D01*
X114738107Y-105694018D01*
X114817167Y-105719707D01*
X114817169Y-105719707D01*
X114817174Y-105719709D01*
X115011583Y-105750500D01*
X115011584Y-105750500D01*
X115208416Y-105750500D01*
X115208417Y-105750500D01*
X115402826Y-105719709D01*
X115590025Y-105658884D01*
X115765405Y-105569524D01*
X115924646Y-105453828D01*
X116063828Y-105314646D01*
X116179524Y-105155405D01*
X116268884Y-104980025D01*
X116301538Y-104879525D01*
X116336282Y-104835056D01*
X116391482Y-104823323D01*
X116441310Y-104849817D01*
X116458462Y-104879526D01*
X116491117Y-104980029D01*
X116580474Y-105155402D01*
X116696163Y-105314635D01*
X116696169Y-105314642D01*
X116696172Y-105314646D01*
X116835354Y-105453828D01*
X116835358Y-105453831D01*
X116835364Y-105453836D01*
X116933847Y-105525388D01*
X116994595Y-105569524D01*
X116994597Y-105569525D01*
X117169970Y-105658882D01*
X117169972Y-105658882D01*
X117169975Y-105658884D01*
X117278107Y-105694018D01*
X117357167Y-105719707D01*
X117357169Y-105719707D01*
X117357174Y-105719709D01*
X117551583Y-105750500D01*
X117551584Y-105750500D01*
X117748416Y-105750500D01*
X117748417Y-105750500D01*
X117942826Y-105719709D01*
X118130025Y-105658884D01*
X118305405Y-105569524D01*
X118464646Y-105453828D01*
X118603828Y-105314646D01*
X118719524Y-105155405D01*
X118808884Y-104980025D01*
X118841538Y-104879525D01*
X118876282Y-104835056D01*
X118931482Y-104823323D01*
X118981310Y-104849817D01*
X118998462Y-104879526D01*
X119031117Y-104980029D01*
X119120474Y-105155402D01*
X119236163Y-105314635D01*
X119236169Y-105314642D01*
X119236172Y-105314646D01*
X119375354Y-105453828D01*
X119375358Y-105453831D01*
X119375364Y-105453836D01*
X119473847Y-105525388D01*
X119534595Y-105569524D01*
X119534597Y-105569525D01*
X119709970Y-105658882D01*
X119709972Y-105658882D01*
X119709975Y-105658884D01*
X119818107Y-105694018D01*
X119897167Y-105719707D01*
X119897169Y-105719707D01*
X119897174Y-105719709D01*
X120091583Y-105750500D01*
X120091584Y-105750500D01*
X120288416Y-105750500D01*
X120288417Y-105750500D01*
X120482826Y-105719709D01*
X120670025Y-105658884D01*
X120845405Y-105569524D01*
X121004646Y-105453828D01*
X121143828Y-105314646D01*
X121259524Y-105155405D01*
X121348884Y-104980025D01*
X121381538Y-104879525D01*
X121416282Y-104835056D01*
X121471482Y-104823323D01*
X121521310Y-104849817D01*
X121538462Y-104879526D01*
X121571117Y-104980029D01*
X121660474Y-105155402D01*
X121776163Y-105314635D01*
X121776169Y-105314642D01*
X121776172Y-105314646D01*
X121915354Y-105453828D01*
X121915358Y-105453831D01*
X121915364Y-105453836D01*
X122013847Y-105525388D01*
X122074595Y-105569524D01*
X122074597Y-105569525D01*
X122249970Y-105658882D01*
X122249972Y-105658882D01*
X122249975Y-105658884D01*
X122358107Y-105694018D01*
X122437167Y-105719707D01*
X122437169Y-105719707D01*
X122437174Y-105719709D01*
X122631583Y-105750500D01*
X122631584Y-105750500D01*
X122828416Y-105750500D01*
X122828417Y-105750500D01*
X123022826Y-105719709D01*
X123210025Y-105658884D01*
X123385405Y-105569524D01*
X123544646Y-105453828D01*
X123683828Y-105314646D01*
X123799524Y-105155405D01*
X123888884Y-104980025D01*
X123921538Y-104879524D01*
X123956280Y-104835057D01*
X124011480Y-104823324D01*
X124061308Y-104849817D01*
X124078461Y-104879526D01*
X124111118Y-104980030D01*
X124200474Y-105155402D01*
X124316163Y-105314635D01*
X124316169Y-105314642D01*
X124316172Y-105314646D01*
X124455354Y-105453828D01*
X124455358Y-105453831D01*
X124455364Y-105453836D01*
X124553847Y-105525388D01*
X124614595Y-105569524D01*
X124614597Y-105569525D01*
X124789970Y-105658882D01*
X124789972Y-105658882D01*
X124789975Y-105658884D01*
X124898107Y-105694018D01*
X124977167Y-105719707D01*
X124977169Y-105719707D01*
X124977174Y-105719709D01*
X125171583Y-105750500D01*
X125171584Y-105750500D01*
X125368416Y-105750500D01*
X125368417Y-105750500D01*
X125562826Y-105719709D01*
X125750025Y-105658884D01*
X125925405Y-105569524D01*
X126084646Y-105453828D01*
X126223828Y-105314646D01*
X126339524Y-105155405D01*
X126428884Y-104980025D01*
X126461538Y-104879525D01*
X126496282Y-104835056D01*
X126551482Y-104823323D01*
X126601310Y-104849817D01*
X126618462Y-104879526D01*
X126651117Y-104980029D01*
X126740474Y-105155402D01*
X126856163Y-105314635D01*
X126856169Y-105314642D01*
X126856172Y-105314646D01*
X126995354Y-105453828D01*
X126995358Y-105453831D01*
X126995364Y-105453836D01*
X127093847Y-105525388D01*
X127154595Y-105569524D01*
X127154597Y-105569525D01*
X127329970Y-105658882D01*
X127329972Y-105658882D01*
X127329975Y-105658884D01*
X127438107Y-105694018D01*
X127517167Y-105719707D01*
X127517169Y-105719707D01*
X127517174Y-105719709D01*
X127711583Y-105750500D01*
X127711584Y-105750500D01*
X127908416Y-105750500D01*
X127908417Y-105750500D01*
X128102826Y-105719709D01*
X128290025Y-105658884D01*
X128465405Y-105569524D01*
X128624646Y-105453828D01*
X128763828Y-105314646D01*
X128879524Y-105155405D01*
X128968884Y-104980025D01*
X129001538Y-104879525D01*
X129036282Y-104835056D01*
X129091482Y-104823323D01*
X129141310Y-104849817D01*
X129158462Y-104879526D01*
X129191117Y-104980029D01*
X129280474Y-105155402D01*
X129396163Y-105314635D01*
X129396169Y-105314642D01*
X129396172Y-105314646D01*
X129535354Y-105453828D01*
X129535358Y-105453831D01*
X129535364Y-105453836D01*
X129633847Y-105525388D01*
X129694595Y-105569524D01*
X129694597Y-105569525D01*
X129869970Y-105658882D01*
X129869972Y-105658882D01*
X129869975Y-105658884D01*
X129978107Y-105694018D01*
X130057167Y-105719707D01*
X130057169Y-105719707D01*
X130057174Y-105719709D01*
X130251583Y-105750500D01*
X130251584Y-105750500D01*
X130448416Y-105750500D01*
X130448417Y-105750500D01*
X130642826Y-105719709D01*
X130830025Y-105658884D01*
X131005405Y-105569524D01*
X131164646Y-105453828D01*
X131303828Y-105314646D01*
X131419524Y-105155405D01*
X131508884Y-104980025D01*
X131541538Y-104879525D01*
X131576282Y-104835056D01*
X131631482Y-104823323D01*
X131681310Y-104849817D01*
X131698462Y-104879526D01*
X131731117Y-104980029D01*
X131820474Y-105155402D01*
X131936163Y-105314635D01*
X131936169Y-105314642D01*
X131936172Y-105314646D01*
X132075354Y-105453828D01*
X132075358Y-105453831D01*
X132075364Y-105453836D01*
X132173847Y-105525388D01*
X132234595Y-105569524D01*
X132234597Y-105569525D01*
X132409970Y-105658882D01*
X132409972Y-105658882D01*
X132409975Y-105658884D01*
X132518107Y-105694018D01*
X132597167Y-105719707D01*
X132597169Y-105719707D01*
X132597174Y-105719709D01*
X132791583Y-105750500D01*
X132791584Y-105750500D01*
X132988416Y-105750500D01*
X132988417Y-105750500D01*
X133182826Y-105719709D01*
X133370025Y-105658884D01*
X133545405Y-105569524D01*
X133704646Y-105453828D01*
X133843828Y-105314646D01*
X133959524Y-105155405D01*
X134048884Y-104980025D01*
X134081538Y-104879525D01*
X134116282Y-104835056D01*
X134171482Y-104823323D01*
X134221310Y-104849817D01*
X134238462Y-104879526D01*
X134271117Y-104980029D01*
X134360474Y-105155402D01*
X134476163Y-105314635D01*
X134476169Y-105314642D01*
X134476172Y-105314646D01*
X134615354Y-105453828D01*
X134615358Y-105453831D01*
X134615364Y-105453836D01*
X134713847Y-105525388D01*
X134774595Y-105569524D01*
X134774597Y-105569525D01*
X134949970Y-105658882D01*
X134949972Y-105658882D01*
X134949975Y-105658884D01*
X135058107Y-105694018D01*
X135137167Y-105719707D01*
X135137169Y-105719707D01*
X135137174Y-105719709D01*
X135331583Y-105750500D01*
X135331584Y-105750500D01*
X135528416Y-105750500D01*
X135528417Y-105750500D01*
X135722826Y-105719709D01*
X135910025Y-105658884D01*
X136085405Y-105569524D01*
X136244646Y-105453828D01*
X136383828Y-105314646D01*
X136499524Y-105155405D01*
X136588884Y-104980025D01*
X136649709Y-104792826D01*
X136680500Y-104598417D01*
X136680500Y-104401583D01*
X136649709Y-104207174D01*
X136645101Y-104192993D01*
X136588882Y-104019970D01*
X136499525Y-103844597D01*
X136383836Y-103685364D01*
X136383831Y-103685358D01*
X136383828Y-103685354D01*
X136244646Y-103546172D01*
X136244642Y-103546169D01*
X136244635Y-103546163D01*
X136085402Y-103430474D01*
X135910029Y-103341117D01*
X135722832Y-103280292D01*
X135722822Y-103280290D01*
X135587081Y-103258791D01*
X135528417Y-103249500D01*
X135331583Y-103249500D01*
X135286517Y-103256637D01*
X135137177Y-103280290D01*
X135137167Y-103280292D01*
X134949970Y-103341117D01*
X134774597Y-103430474D01*
X134615364Y-103546163D01*
X134615349Y-103546176D01*
X134476176Y-103685349D01*
X134476163Y-103685364D01*
X134360474Y-103844597D01*
X134271117Y-104019970D01*
X134238462Y-104120473D01*
X134203718Y-104164943D01*
X134148518Y-104176676D01*
X134098690Y-104150182D01*
X134081538Y-104120473D01*
X134048882Y-104019970D01*
X133959525Y-103844597D01*
X133843836Y-103685364D01*
X133843831Y-103685358D01*
X133843828Y-103685354D01*
X133704646Y-103546172D01*
X133704642Y-103546169D01*
X133704635Y-103546163D01*
X133545402Y-103430474D01*
X133370029Y-103341117D01*
X133182832Y-103280292D01*
X133182822Y-103280290D01*
X133047081Y-103258791D01*
X132988417Y-103249500D01*
X132791583Y-103249500D01*
X132746517Y-103256637D01*
X132597177Y-103280290D01*
X132597167Y-103280292D01*
X132409970Y-103341117D01*
X132234597Y-103430474D01*
X132075364Y-103546163D01*
X132075349Y-103546176D01*
X131936176Y-103685349D01*
X131936163Y-103685364D01*
X131820474Y-103844597D01*
X131731117Y-104019970D01*
X131698462Y-104120473D01*
X131663718Y-104164943D01*
X131608518Y-104176676D01*
X131558690Y-104150182D01*
X131541538Y-104120473D01*
X131508882Y-104019970D01*
X131419525Y-103844597D01*
X131303836Y-103685364D01*
X131303831Y-103685358D01*
X131303828Y-103685354D01*
X131164646Y-103546172D01*
X131164642Y-103546169D01*
X131164635Y-103546163D01*
X131005402Y-103430474D01*
X130830029Y-103341117D01*
X130642832Y-103280292D01*
X130642822Y-103280290D01*
X130507081Y-103258791D01*
X130448417Y-103249500D01*
X130251583Y-103249500D01*
X130206517Y-103256637D01*
X130057177Y-103280290D01*
X130057167Y-103280292D01*
X129869970Y-103341117D01*
X129694597Y-103430474D01*
X129535364Y-103546163D01*
X129535349Y-103546176D01*
X129396176Y-103685349D01*
X129396163Y-103685364D01*
X129280474Y-103844597D01*
X129191117Y-104019970D01*
X129158462Y-104120473D01*
X129123718Y-104164943D01*
X129068518Y-104176676D01*
X129018690Y-104150182D01*
X129001538Y-104120473D01*
X128968882Y-104019970D01*
X128879525Y-103844597D01*
X128763836Y-103685364D01*
X128763831Y-103685358D01*
X128763828Y-103685354D01*
X128624646Y-103546172D01*
X128624642Y-103546169D01*
X128624635Y-103546163D01*
X128465402Y-103430474D01*
X128290029Y-103341117D01*
X128102832Y-103280292D01*
X128102822Y-103280290D01*
X127967081Y-103258791D01*
X127908417Y-103249500D01*
X127711583Y-103249500D01*
X127666517Y-103256637D01*
X127517177Y-103280290D01*
X127517167Y-103280292D01*
X127329970Y-103341117D01*
X127154597Y-103430474D01*
X126995364Y-103546163D01*
X126995349Y-103546176D01*
X126856176Y-103685349D01*
X126856163Y-103685364D01*
X126740474Y-103844597D01*
X126651117Y-104019970D01*
X126618462Y-104120473D01*
X126583718Y-104164943D01*
X126528518Y-104176676D01*
X126478690Y-104150182D01*
X126461538Y-104120473D01*
X126428882Y-104019970D01*
X126339525Y-103844597D01*
X126223836Y-103685364D01*
X126223831Y-103685358D01*
X126223828Y-103685354D01*
X126084646Y-103546172D01*
X126084642Y-103546169D01*
X126084635Y-103546163D01*
X125925402Y-103430474D01*
X125750029Y-103341117D01*
X125562832Y-103280292D01*
X125562822Y-103280290D01*
X125427081Y-103258791D01*
X125368417Y-103249500D01*
X125171583Y-103249500D01*
X125126517Y-103256637D01*
X124977177Y-103280290D01*
X124977167Y-103280292D01*
X124789970Y-103341117D01*
X124614597Y-103430474D01*
X124455364Y-103546163D01*
X124455349Y-103546176D01*
X124413006Y-103588520D01*
X124361860Y-103612370D01*
X124307350Y-103597764D01*
X124296334Y-103588520D01*
X122649150Y-101941336D01*
X122625300Y-101890190D01*
X122639906Y-101835680D01*
X122686133Y-101803311D01*
X122707486Y-101800500D01*
X123727142Y-101800500D01*
X123780172Y-101819801D01*
X123785478Y-101824663D01*
X123860986Y-101900171D01*
X123922594Y-101941336D01*
X123975717Y-101976832D01*
X124099535Y-102028119D01*
X124109215Y-102032893D01*
X124114342Y-102035853D01*
X124241635Y-102069961D01*
X124241639Y-102069961D01*
X124373416Y-102069961D01*
X124373420Y-102069961D01*
X124500714Y-102035853D01*
X124505847Y-102032888D01*
X124515509Y-102028123D01*
X124639339Y-101976832D01*
X124754070Y-101900171D01*
X124851642Y-101802599D01*
X124928303Y-101687868D01*
X124981108Y-101560385D01*
X125008028Y-101425050D01*
X125008028Y-101287064D01*
X124981108Y-101151729D01*
X124928303Y-101024246D01*
X124851642Y-100909515D01*
X124754070Y-100811943D01*
X124754071Y-100811943D01*
X124639338Y-100735281D01*
X124550986Y-100698685D01*
X124509379Y-100660559D01*
X124501746Y-100634891D01*
X124501290Y-100634982D01*
X124500500Y-100631010D01*
X124500500Y-100631007D01*
X124473580Y-100495672D01*
X124420775Y-100368189D01*
X124344114Y-100253458D01*
X124246542Y-100155886D01*
X124246543Y-100155886D01*
X124131810Y-100079224D01*
X124004332Y-100026421D01*
X124004328Y-100026420D01*
X123868993Y-99999500D01*
X123868990Y-99999500D01*
X123841485Y-99999500D01*
X123788455Y-99980199D01*
X123783149Y-99975336D01*
X123594149Y-99786335D01*
X123570299Y-99735189D01*
X123569985Y-99727999D01*
X123569985Y-91554843D01*
X123589286Y-91501813D01*
X123594149Y-91496507D01*
X123613599Y-91477057D01*
X123690260Y-91362326D01*
X123743065Y-91234843D01*
X123769985Y-91099508D01*
X123769985Y-90961522D01*
X123743065Y-90826187D01*
X123743063Y-90826182D01*
X123715039Y-90758525D01*
X123703641Y-90731007D01*
X130399500Y-90731007D01*
X130399500Y-90868993D01*
X130417906Y-90961525D01*
X130426420Y-91004327D01*
X130426421Y-91004332D01*
X130479224Y-91131810D01*
X130555886Y-91246542D01*
X130575336Y-91265992D01*
X130599186Y-91317138D01*
X130599500Y-91324328D01*
X130599500Y-99112819D01*
X130585598Y-99158650D01*
X130581690Y-99164500D01*
X130579222Y-99168193D01*
X130526421Y-99295667D01*
X130526420Y-99295672D01*
X130499500Y-99431007D01*
X130499500Y-99568993D01*
X130526420Y-99704327D01*
X130526421Y-99704332D01*
X130579224Y-99831810D01*
X130655886Y-99946542D01*
X130753457Y-100044113D01*
X130753456Y-100044113D01*
X130806005Y-100079225D01*
X130868189Y-100120775D01*
X130995672Y-100173580D01*
X131131007Y-100200500D01*
X131131010Y-100200500D01*
X131268990Y-100200500D01*
X131268993Y-100200500D01*
X131404328Y-100173580D01*
X131531811Y-100120775D01*
X131646542Y-100044114D01*
X131744114Y-99946542D01*
X131820775Y-99831811D01*
X131873580Y-99704328D01*
X131900500Y-99568993D01*
X131900500Y-99431007D01*
X131873580Y-99295672D01*
X131854160Y-99248789D01*
X131820775Y-99168189D01*
X131773081Y-99096810D01*
X131744114Y-99053458D01*
X131646542Y-98955886D01*
X131646541Y-98955885D01*
X131646540Y-98955884D01*
X131637163Y-98949618D01*
X131603795Y-98904107D01*
X131600500Y-98881024D01*
X131600500Y-97816750D01*
X131619801Y-97763720D01*
X131668674Y-97735503D01*
X131724250Y-97745303D01*
X131741336Y-97758414D01*
X134255336Y-100272414D01*
X134279186Y-100323560D01*
X134279500Y-100330750D01*
X134279500Y-100405545D01*
X134307828Y-100584405D01*
X134307831Y-100584419D01*
X134363785Y-100756630D01*
X134363789Y-100756639D01*
X134446004Y-100917994D01*
X134446007Y-100917998D01*
X134552438Y-101064490D01*
X134552444Y-101064497D01*
X134552447Y-101064501D01*
X134680499Y-101192553D01*
X134680503Y-101192556D01*
X134680509Y-101192561D01*
X134778170Y-101263515D01*
X134827006Y-101298996D01*
X134988361Y-101381211D01*
X134988365Y-101381212D01*
X134988369Y-101381214D01*
X135160580Y-101437168D01*
X135160585Y-101437169D01*
X135160591Y-101437171D01*
X135339454Y-101465500D01*
X135339455Y-101465500D01*
X135520545Y-101465500D01*
X135520546Y-101465500D01*
X135699409Y-101437171D01*
X135699416Y-101437168D01*
X135699419Y-101437168D01*
X135871630Y-101381214D01*
X135871630Y-101381213D01*
X135871639Y-101381211D01*
X136032994Y-101298996D01*
X136179501Y-101192553D01*
X136307553Y-101064501D01*
X136413996Y-100917994D01*
X136496211Y-100756639D01*
X136552171Y-100584409D01*
X136580500Y-100405546D01*
X136580500Y-100224454D01*
X136552171Y-100045591D01*
X136552169Y-100045585D01*
X136552168Y-100045580D01*
X136496214Y-99873369D01*
X136496212Y-99873365D01*
X136496211Y-99873361D01*
X136413996Y-99712006D01*
X136310089Y-99568989D01*
X136307561Y-99565509D01*
X136307556Y-99565503D01*
X136307553Y-99565499D01*
X136179501Y-99437447D01*
X136179497Y-99437444D01*
X136179490Y-99437438D01*
X136032998Y-99331007D01*
X136032994Y-99331004D01*
X135871639Y-99248789D01*
X135871630Y-99248785D01*
X135699419Y-99192831D01*
X135699405Y-99192828D01*
X135598546Y-99176854D01*
X135549189Y-99149495D01*
X135528965Y-99096810D01*
X135547337Y-99043451D01*
X135595710Y-99014386D01*
X135598546Y-99013886D01*
X135722705Y-98994221D01*
X135722715Y-98994219D01*
X135909837Y-98933418D01*
X136085137Y-98844099D01*
X136120126Y-98818678D01*
X135518584Y-98217138D01*
X135603694Y-98194333D01*
X135706306Y-98135090D01*
X135790090Y-98051306D01*
X135849333Y-97948694D01*
X135872137Y-97863585D01*
X136473678Y-98465126D01*
X136499099Y-98430137D01*
X136588418Y-98254837D01*
X136649219Y-98067715D01*
X136649221Y-98067705D01*
X136680000Y-97873376D01*
X136680000Y-97676623D01*
X136649221Y-97482294D01*
X136649219Y-97482284D01*
X136588418Y-97295162D01*
X136499101Y-97119865D01*
X136499096Y-97119859D01*
X136473678Y-97084873D01*
X136473677Y-97084873D01*
X135872137Y-97686413D01*
X135849333Y-97601306D01*
X135790090Y-97498694D01*
X135706306Y-97414910D01*
X135603694Y-97355667D01*
X135518584Y-97332861D01*
X136120125Y-96731321D01*
X136120125Y-96731319D01*
X136085149Y-96705908D01*
X136085134Y-96705898D01*
X135909837Y-96616581D01*
X135722715Y-96555780D01*
X135722705Y-96555778D01*
X135598546Y-96536113D01*
X135549188Y-96508754D01*
X135528965Y-96456068D01*
X135547338Y-96402710D01*
X135595711Y-96373645D01*
X135598496Y-96373153D01*
X135699409Y-96357171D01*
X135699417Y-96357168D01*
X135699419Y-96357168D01*
X135871630Y-96301214D01*
X135871630Y-96301213D01*
X135871639Y-96301211D01*
X136032994Y-96218996D01*
X136179501Y-96112553D01*
X136307553Y-95984501D01*
X136413996Y-95837994D01*
X136496211Y-95676639D01*
X136552171Y-95504409D01*
X136580500Y-95325546D01*
X136580500Y-95144454D01*
X136552171Y-94965591D01*
X136552169Y-94965585D01*
X136552168Y-94965580D01*
X136496214Y-94793369D01*
X136496212Y-94793365D01*
X136496211Y-94793361D01*
X136413996Y-94632006D01*
X136345728Y-94538042D01*
X136307561Y-94485509D01*
X136307556Y-94485503D01*
X136307553Y-94485499D01*
X136179501Y-94357447D01*
X136179497Y-94357444D01*
X136179490Y-94357438D01*
X136032998Y-94251007D01*
X136032994Y-94251004D01*
X135871639Y-94168789D01*
X135871630Y-94168785D01*
X135699419Y-94112831D01*
X135699405Y-94112828D01*
X135574519Y-94093048D01*
X135520546Y-94084500D01*
X135339454Y-94084500D01*
X135297992Y-94091066D01*
X135160594Y-94112828D01*
X135160580Y-94112831D01*
X134988369Y-94168785D01*
X134988360Y-94168789D01*
X134902885Y-94212341D01*
X134827006Y-94251004D01*
X134827003Y-94251005D01*
X134827001Y-94251007D01*
X134680509Y-94357438D01*
X134680494Y-94357451D01*
X134552451Y-94485494D01*
X134552438Y-94485509D01*
X134446007Y-94632001D01*
X134446005Y-94632003D01*
X134446004Y-94632006D01*
X134444166Y-94635614D01*
X134363789Y-94793360D01*
X134363785Y-94793369D01*
X134307831Y-94965580D01*
X134307828Y-94965594D01*
X134279500Y-95144454D01*
X134279500Y-95325545D01*
X134307828Y-95504405D01*
X134307831Y-95504419D01*
X134363785Y-95676630D01*
X134363789Y-95676639D01*
X134446004Y-95837994D01*
X134446007Y-95837998D01*
X134552438Y-95984490D01*
X134552444Y-95984497D01*
X134552447Y-95984501D01*
X134680499Y-96112553D01*
X134680503Y-96112556D01*
X134680509Y-96112561D01*
X134778170Y-96183515D01*
X134827006Y-96218996D01*
X134988361Y-96301211D01*
X134988365Y-96301212D01*
X134988369Y-96301214D01*
X135160580Y-96357168D01*
X135160584Y-96357168D01*
X135160591Y-96357171D01*
X135261453Y-96373146D01*
X135310810Y-96400504D01*
X135331034Y-96453188D01*
X135312662Y-96506547D01*
X135264289Y-96535613D01*
X135261453Y-96536113D01*
X135137294Y-96555778D01*
X135137284Y-96555780D01*
X134950162Y-96616581D01*
X134774865Y-96705898D01*
X134774852Y-96705907D01*
X134739873Y-96731319D01*
X134739873Y-96731321D01*
X135341414Y-97332861D01*
X135256306Y-97355667D01*
X135153694Y-97414910D01*
X135069910Y-97498694D01*
X135010667Y-97601306D01*
X134987861Y-97686415D01*
X134386320Y-97084873D01*
X134386319Y-97084873D01*
X134360907Y-97119852D01*
X134360898Y-97119865D01*
X134271581Y-97295162D01*
X134210780Y-97482284D01*
X134210778Y-97482294D01*
X134180000Y-97676623D01*
X134180000Y-97733750D01*
X134160699Y-97786780D01*
X134111826Y-97814997D01*
X134056250Y-97805197D01*
X134039164Y-97792086D01*
X133074664Y-96827586D01*
X133050814Y-96776440D01*
X133050500Y-96769250D01*
X133050500Y-92604454D01*
X134279500Y-92604454D01*
X134279500Y-92785545D01*
X134307828Y-92964405D01*
X134307831Y-92964419D01*
X134363785Y-93136630D01*
X134363789Y-93136639D01*
X134446004Y-93297994D01*
X134446007Y-93297998D01*
X134552438Y-93444490D01*
X134552444Y-93444497D01*
X134552447Y-93444501D01*
X134680499Y-93572553D01*
X134680503Y-93572556D01*
X134680509Y-93572561D01*
X134778170Y-93643515D01*
X134827006Y-93678996D01*
X134988361Y-93761211D01*
X134988365Y-93761212D01*
X134988369Y-93761214D01*
X135160580Y-93817168D01*
X135160585Y-93817169D01*
X135160591Y-93817171D01*
X135339454Y-93845500D01*
X135339455Y-93845500D01*
X135520545Y-93845500D01*
X135520546Y-93845500D01*
X135699409Y-93817171D01*
X135699416Y-93817168D01*
X135699419Y-93817168D01*
X135871630Y-93761214D01*
X135871630Y-93761213D01*
X135871639Y-93761211D01*
X136032994Y-93678996D01*
X136179501Y-93572553D01*
X136307553Y-93444501D01*
X136413996Y-93297994D01*
X136496211Y-93136639D01*
X136496214Y-93136630D01*
X136552168Y-92964419D01*
X136552168Y-92964416D01*
X136552171Y-92964409D01*
X136580500Y-92785546D01*
X136580500Y-92604454D01*
X136552171Y-92425591D01*
X136552169Y-92425585D01*
X136552168Y-92425580D01*
X136496214Y-92253369D01*
X136496212Y-92253365D01*
X136496211Y-92253361D01*
X136413996Y-92092006D01*
X136375803Y-92039438D01*
X136307561Y-91945509D01*
X136307556Y-91945503D01*
X136307553Y-91945499D01*
X136179501Y-91817447D01*
X136179497Y-91817444D01*
X136179490Y-91817438D01*
X136032998Y-91711007D01*
X136032994Y-91711004D01*
X135871639Y-91628789D01*
X135871630Y-91628785D01*
X135699419Y-91572831D01*
X135699405Y-91572828D01*
X135574519Y-91553048D01*
X135520546Y-91544500D01*
X135339454Y-91544500D01*
X135297992Y-91551066D01*
X135160594Y-91572828D01*
X135160580Y-91572831D01*
X134988369Y-91628785D01*
X134988360Y-91628789D01*
X134902885Y-91672341D01*
X134827006Y-91711004D01*
X134827003Y-91711005D01*
X134827001Y-91711007D01*
X134680509Y-91817438D01*
X134680494Y-91817451D01*
X134552451Y-91945494D01*
X134552438Y-91945509D01*
X134446007Y-92092001D01*
X134363789Y-92253360D01*
X134363785Y-92253369D01*
X134307831Y-92425580D01*
X134307828Y-92425594D01*
X134279500Y-92604454D01*
X133050500Y-92604454D01*
X133050500Y-90064454D01*
X134279500Y-90064454D01*
X134279500Y-90245545D01*
X134307828Y-90424405D01*
X134307831Y-90424419D01*
X134363785Y-90596630D01*
X134363789Y-90596639D01*
X134446004Y-90757994D01*
X134446007Y-90757998D01*
X134552438Y-90904490D01*
X134552444Y-90904497D01*
X134552447Y-90904501D01*
X134680499Y-91032553D01*
X134680503Y-91032556D01*
X134680509Y-91032561D01*
X134772650Y-91099504D01*
X134827006Y-91138996D01*
X134988361Y-91221211D01*
X134988365Y-91221212D01*
X134988369Y-91221214D01*
X135160580Y-91277168D01*
X135160585Y-91277169D01*
X135160591Y-91277171D01*
X135339454Y-91305500D01*
X135339455Y-91305500D01*
X135520545Y-91305500D01*
X135520546Y-91305500D01*
X135699409Y-91277171D01*
X135699416Y-91277168D01*
X135699419Y-91277168D01*
X135871630Y-91221214D01*
X135871630Y-91221213D01*
X135871639Y-91221211D01*
X136032994Y-91138996D01*
X136179501Y-91032553D01*
X136307553Y-90904501D01*
X136413996Y-90757994D01*
X136496211Y-90596639D01*
X136552171Y-90424409D01*
X136580500Y-90245546D01*
X136580500Y-90064454D01*
X136552171Y-89885591D01*
X136552169Y-89885585D01*
X136552168Y-89885580D01*
X136496214Y-89713369D01*
X136496212Y-89713365D01*
X136496211Y-89713361D01*
X136413996Y-89552006D01*
X136378515Y-89503170D01*
X136307561Y-89405509D01*
X136307556Y-89405503D01*
X136307553Y-89405499D01*
X136179501Y-89277447D01*
X136179497Y-89277444D01*
X136179490Y-89277438D01*
X136032998Y-89171007D01*
X136032994Y-89171004D01*
X135871639Y-89088789D01*
X135871630Y-89088785D01*
X135699419Y-89032831D01*
X135699405Y-89032828D01*
X135574519Y-89013048D01*
X135520546Y-89004500D01*
X135339454Y-89004500D01*
X135297992Y-89011066D01*
X135160594Y-89032828D01*
X135160580Y-89032831D01*
X134988369Y-89088785D01*
X134988360Y-89088789D01*
X134902885Y-89132341D01*
X134827006Y-89171004D01*
X134827003Y-89171005D01*
X134827001Y-89171007D01*
X134680509Y-89277438D01*
X134680494Y-89277451D01*
X134552451Y-89405494D01*
X134552438Y-89405509D01*
X134446007Y-89552001D01*
X134363789Y-89713360D01*
X134363785Y-89713369D01*
X134307831Y-89885580D01*
X134307828Y-89885594D01*
X134279500Y-90064454D01*
X133050500Y-90064454D01*
X133050500Y-87524454D01*
X134279500Y-87524454D01*
X134279500Y-87705545D01*
X134307828Y-87884405D01*
X134307831Y-87884419D01*
X134363785Y-88056630D01*
X134363789Y-88056639D01*
X134446004Y-88217994D01*
X134446007Y-88217998D01*
X134552438Y-88364490D01*
X134552444Y-88364497D01*
X134552447Y-88364501D01*
X134680499Y-88492553D01*
X134680503Y-88492556D01*
X134680509Y-88492561D01*
X134778170Y-88563515D01*
X134827006Y-88598996D01*
X134988361Y-88681211D01*
X134988365Y-88681212D01*
X134988369Y-88681214D01*
X135160580Y-88737168D01*
X135160585Y-88737169D01*
X135160591Y-88737171D01*
X135339454Y-88765500D01*
X135339455Y-88765500D01*
X135520545Y-88765500D01*
X135520546Y-88765500D01*
X135699409Y-88737171D01*
X135699416Y-88737168D01*
X135699419Y-88737168D01*
X135871630Y-88681214D01*
X135871630Y-88681213D01*
X135871639Y-88681211D01*
X136032994Y-88598996D01*
X136179501Y-88492553D01*
X136307553Y-88364501D01*
X136413996Y-88217994D01*
X136496211Y-88056639D01*
X136530697Y-87950500D01*
X136552168Y-87884419D01*
X136552168Y-87884416D01*
X136552171Y-87884409D01*
X136580500Y-87705546D01*
X136580500Y-87524454D01*
X136552171Y-87345591D01*
X136552169Y-87345585D01*
X136552168Y-87345580D01*
X136496214Y-87173369D01*
X136496212Y-87173365D01*
X136496211Y-87173361D01*
X136413996Y-87012006D01*
X136378515Y-86963170D01*
X136307561Y-86865509D01*
X136307556Y-86865503D01*
X136307553Y-86865499D01*
X136179501Y-86737447D01*
X136179497Y-86737444D01*
X136179490Y-86737438D01*
X136032998Y-86631007D01*
X136032994Y-86631004D01*
X135871639Y-86548789D01*
X135871630Y-86548785D01*
X135699419Y-86492831D01*
X135699405Y-86492828D01*
X135574519Y-86473048D01*
X135520546Y-86464500D01*
X135339454Y-86464500D01*
X135297992Y-86471066D01*
X135160594Y-86492828D01*
X135160580Y-86492831D01*
X134988369Y-86548785D01*
X134988360Y-86548789D01*
X134902885Y-86592341D01*
X134827006Y-86631004D01*
X134827003Y-86631005D01*
X134827001Y-86631007D01*
X134680509Y-86737438D01*
X134680494Y-86737451D01*
X134552451Y-86865494D01*
X134552438Y-86865509D01*
X134446007Y-87012001D01*
X134363789Y-87173360D01*
X134363785Y-87173369D01*
X134307831Y-87345580D01*
X134307828Y-87345594D01*
X134279500Y-87524454D01*
X133050500Y-87524454D01*
X133050500Y-84984454D01*
X134279500Y-84984454D01*
X134279500Y-85165545D01*
X134307828Y-85344405D01*
X134307831Y-85344419D01*
X134363785Y-85516630D01*
X134363789Y-85516639D01*
X134446004Y-85677994D01*
X134446007Y-85677998D01*
X134552438Y-85824490D01*
X134552444Y-85824497D01*
X134552447Y-85824501D01*
X134680499Y-85952553D01*
X134680503Y-85952556D01*
X134680509Y-85952561D01*
X134778170Y-86023515D01*
X134827006Y-86058996D01*
X134988361Y-86141211D01*
X134988365Y-86141212D01*
X134988369Y-86141214D01*
X135160580Y-86197168D01*
X135160585Y-86197169D01*
X135160591Y-86197171D01*
X135339454Y-86225500D01*
X135339455Y-86225500D01*
X135520545Y-86225500D01*
X135520546Y-86225500D01*
X135699409Y-86197171D01*
X135699416Y-86197168D01*
X135699419Y-86197168D01*
X135871630Y-86141214D01*
X135871630Y-86141213D01*
X135871639Y-86141211D01*
X136032994Y-86058996D01*
X136179501Y-85952553D01*
X136307553Y-85824501D01*
X136413996Y-85677994D01*
X136496211Y-85516639D01*
X136518025Y-85449501D01*
X136552168Y-85344419D01*
X136552168Y-85344416D01*
X136552171Y-85344409D01*
X136580500Y-85165546D01*
X136580500Y-84984454D01*
X136552171Y-84805591D01*
X136552169Y-84805585D01*
X136552168Y-84805580D01*
X136496214Y-84633369D01*
X136496212Y-84633365D01*
X136496211Y-84633361D01*
X136413996Y-84472006D01*
X136378515Y-84423170D01*
X136307561Y-84325509D01*
X136307556Y-84325503D01*
X136307553Y-84325499D01*
X136179501Y-84197447D01*
X136179497Y-84197444D01*
X136179490Y-84197438D01*
X136032998Y-84091007D01*
X136032994Y-84091004D01*
X135871639Y-84008789D01*
X135871630Y-84008785D01*
X135699419Y-83952831D01*
X135699405Y-83952828D01*
X135574519Y-83933048D01*
X135520546Y-83924500D01*
X135339454Y-83924500D01*
X135297992Y-83931066D01*
X135160594Y-83952828D01*
X135160580Y-83952831D01*
X134988369Y-84008785D01*
X134988360Y-84008789D01*
X134902885Y-84052341D01*
X134827006Y-84091004D01*
X134827003Y-84091005D01*
X134827001Y-84091007D01*
X134680509Y-84197438D01*
X134680494Y-84197451D01*
X134552451Y-84325494D01*
X134552438Y-84325509D01*
X134446007Y-84472001D01*
X134363789Y-84633360D01*
X134363785Y-84633369D01*
X134307831Y-84805580D01*
X134307828Y-84805594D01*
X134279500Y-84984454D01*
X133050500Y-84984454D01*
X133050500Y-82444454D01*
X134279500Y-82444454D01*
X134279500Y-82625545D01*
X134307828Y-82804405D01*
X134307831Y-82804419D01*
X134363785Y-82976630D01*
X134363789Y-82976639D01*
X134446004Y-83137994D01*
X134446007Y-83137998D01*
X134552438Y-83284490D01*
X134552444Y-83284497D01*
X134552447Y-83284501D01*
X134680499Y-83412553D01*
X134680503Y-83412556D01*
X134680509Y-83412561D01*
X134778170Y-83483515D01*
X134827006Y-83518996D01*
X134988361Y-83601211D01*
X134988365Y-83601212D01*
X134988369Y-83601214D01*
X135160580Y-83657168D01*
X135160585Y-83657169D01*
X135160591Y-83657171D01*
X135339454Y-83685500D01*
X135339455Y-83685500D01*
X135520545Y-83685500D01*
X135520546Y-83685500D01*
X135699409Y-83657171D01*
X135699416Y-83657168D01*
X135699419Y-83657168D01*
X135871630Y-83601214D01*
X135871630Y-83601213D01*
X135871639Y-83601211D01*
X136032994Y-83518996D01*
X136179501Y-83412553D01*
X136307553Y-83284501D01*
X136413996Y-83137994D01*
X136496211Y-82976639D01*
X136552171Y-82804409D01*
X136580500Y-82625546D01*
X136580500Y-82444454D01*
X136552171Y-82265591D01*
X136552169Y-82265585D01*
X136552168Y-82265580D01*
X136496214Y-82093369D01*
X136496212Y-82093365D01*
X136496211Y-82093361D01*
X136413996Y-81932006D01*
X136378515Y-81883170D01*
X136307561Y-81785509D01*
X136307556Y-81785503D01*
X136307553Y-81785499D01*
X136179501Y-81657447D01*
X136179497Y-81657444D01*
X136179490Y-81657438D01*
X136032998Y-81551007D01*
X136032994Y-81551004D01*
X135871639Y-81468789D01*
X135871630Y-81468785D01*
X135699419Y-81412831D01*
X135699405Y-81412828D01*
X135574519Y-81393048D01*
X135520546Y-81384500D01*
X135339454Y-81384500D01*
X135297992Y-81391066D01*
X135160594Y-81412828D01*
X135160580Y-81412831D01*
X134988369Y-81468785D01*
X134988360Y-81468789D01*
X134902885Y-81512341D01*
X134827006Y-81551004D01*
X134827003Y-81551005D01*
X134827001Y-81551007D01*
X134680509Y-81657438D01*
X134680494Y-81657451D01*
X134552451Y-81785494D01*
X134552438Y-81785509D01*
X134446007Y-81932001D01*
X134363789Y-82093360D01*
X134363785Y-82093369D01*
X134307831Y-82265580D01*
X134307828Y-82265594D01*
X134279500Y-82444454D01*
X133050500Y-82444454D01*
X133050500Y-79904454D01*
X134279500Y-79904454D01*
X134279500Y-80085545D01*
X134307828Y-80264405D01*
X134307831Y-80264419D01*
X134363785Y-80436630D01*
X134363789Y-80436639D01*
X134446004Y-80597994D01*
X134446007Y-80597998D01*
X134552438Y-80744490D01*
X134552444Y-80744497D01*
X134552447Y-80744501D01*
X134680499Y-80872553D01*
X134680503Y-80872556D01*
X134680509Y-80872561D01*
X134778170Y-80943515D01*
X134827006Y-80978996D01*
X134988361Y-81061211D01*
X134988365Y-81061212D01*
X134988369Y-81061214D01*
X135160580Y-81117168D01*
X135160585Y-81117169D01*
X135160591Y-81117171D01*
X135339454Y-81145500D01*
X135339455Y-81145500D01*
X135520545Y-81145500D01*
X135520546Y-81145500D01*
X135699409Y-81117171D01*
X135699416Y-81117168D01*
X135699419Y-81117168D01*
X135871630Y-81061214D01*
X135871630Y-81061213D01*
X135871639Y-81061211D01*
X136032994Y-80978996D01*
X136179501Y-80872553D01*
X136307553Y-80744501D01*
X136413996Y-80597994D01*
X136496211Y-80436639D01*
X136552171Y-80264409D01*
X136580500Y-80085546D01*
X136580500Y-79904454D01*
X136552171Y-79725591D01*
X136552169Y-79725585D01*
X136552168Y-79725580D01*
X136496214Y-79553369D01*
X136496212Y-79553365D01*
X136496211Y-79553361D01*
X136413996Y-79392006D01*
X136378515Y-79343170D01*
X136307561Y-79245509D01*
X136307556Y-79245503D01*
X136307553Y-79245499D01*
X136179501Y-79117447D01*
X136179497Y-79117444D01*
X136179490Y-79117438D01*
X136032998Y-79011007D01*
X136032994Y-79011004D01*
X135871639Y-78928789D01*
X135871630Y-78928785D01*
X135699419Y-78872831D01*
X135699405Y-78872828D01*
X135574519Y-78853048D01*
X135520546Y-78844500D01*
X135339454Y-78844500D01*
X135297992Y-78851066D01*
X135160594Y-78872828D01*
X135160580Y-78872831D01*
X134988369Y-78928785D01*
X134988360Y-78928789D01*
X134902885Y-78972341D01*
X134827006Y-79011004D01*
X134827003Y-79011005D01*
X134827001Y-79011007D01*
X134680509Y-79117438D01*
X134680494Y-79117451D01*
X134552451Y-79245494D01*
X134552438Y-79245509D01*
X134446007Y-79392001D01*
X134363789Y-79553360D01*
X134363785Y-79553369D01*
X134307831Y-79725580D01*
X134307828Y-79725594D01*
X134279500Y-79904454D01*
X133050500Y-79904454D01*
X133050500Y-77364454D01*
X134279500Y-77364454D01*
X134279500Y-77545545D01*
X134307828Y-77724405D01*
X134307831Y-77724419D01*
X134363785Y-77896630D01*
X134363789Y-77896639D01*
X134446004Y-78057994D01*
X134446007Y-78057998D01*
X134552438Y-78204490D01*
X134552444Y-78204497D01*
X134552447Y-78204501D01*
X134680499Y-78332553D01*
X134680503Y-78332556D01*
X134680509Y-78332561D01*
X134778170Y-78403515D01*
X134827006Y-78438996D01*
X134988361Y-78521211D01*
X134988365Y-78521212D01*
X134988369Y-78521214D01*
X135160580Y-78577168D01*
X135160585Y-78577169D01*
X135160591Y-78577171D01*
X135339454Y-78605500D01*
X135339455Y-78605500D01*
X135520545Y-78605500D01*
X135520546Y-78605500D01*
X135699409Y-78577171D01*
X135699416Y-78577168D01*
X135699419Y-78577168D01*
X135871630Y-78521214D01*
X135871630Y-78521213D01*
X135871639Y-78521211D01*
X136032994Y-78438996D01*
X136179501Y-78332553D01*
X136307553Y-78204501D01*
X136413996Y-78057994D01*
X136496211Y-77896639D01*
X136552171Y-77724409D01*
X136580500Y-77545546D01*
X136580500Y-77364454D01*
X136552171Y-77185591D01*
X136552169Y-77185585D01*
X136552168Y-77185580D01*
X136496214Y-77013369D01*
X136496212Y-77013365D01*
X136496211Y-77013361D01*
X136413996Y-76852006D01*
X136378515Y-76803170D01*
X136307561Y-76705509D01*
X136307556Y-76705503D01*
X136307553Y-76705499D01*
X136179501Y-76577447D01*
X136179497Y-76577444D01*
X136179490Y-76577438D01*
X136032998Y-76471007D01*
X136032994Y-76471004D01*
X135871639Y-76388789D01*
X135871630Y-76388785D01*
X135699419Y-76332831D01*
X135699405Y-76332828D01*
X135574519Y-76313048D01*
X135520546Y-76304500D01*
X135339454Y-76304500D01*
X135297992Y-76311066D01*
X135160594Y-76332828D01*
X135160580Y-76332831D01*
X134988369Y-76388785D01*
X134988360Y-76388789D01*
X134905504Y-76431007D01*
X134827006Y-76471004D01*
X134827003Y-76471005D01*
X134827001Y-76471007D01*
X134680509Y-76577438D01*
X134680494Y-76577451D01*
X134552451Y-76705494D01*
X134552438Y-76705509D01*
X134446007Y-76852001D01*
X134363789Y-77013360D01*
X134363785Y-77013369D01*
X134307831Y-77185580D01*
X134307828Y-77185594D01*
X134279500Y-77364454D01*
X133050500Y-77364454D01*
X133050500Y-74824454D01*
X134279500Y-74824454D01*
X134279500Y-75005545D01*
X134307828Y-75184405D01*
X134307831Y-75184419D01*
X134363785Y-75356630D01*
X134363789Y-75356639D01*
X134446004Y-75517994D01*
X134446007Y-75517998D01*
X134552438Y-75664490D01*
X134552444Y-75664497D01*
X134552447Y-75664501D01*
X134680499Y-75792553D01*
X134680503Y-75792556D01*
X134680509Y-75792561D01*
X134778170Y-75863515D01*
X134827006Y-75898996D01*
X134988361Y-75981211D01*
X134988365Y-75981212D01*
X134988369Y-75981214D01*
X135160580Y-76037168D01*
X135160585Y-76037169D01*
X135160591Y-76037171D01*
X135339454Y-76065500D01*
X135339455Y-76065500D01*
X135520545Y-76065500D01*
X135520546Y-76065500D01*
X135699409Y-76037171D01*
X135699416Y-76037168D01*
X135699419Y-76037168D01*
X135871630Y-75981214D01*
X135871630Y-75981213D01*
X135871639Y-75981211D01*
X136032994Y-75898996D01*
X136179501Y-75792553D01*
X136307553Y-75664501D01*
X136413996Y-75517994D01*
X136496211Y-75356639D01*
X136552171Y-75184409D01*
X136580500Y-75005546D01*
X136580500Y-74824454D01*
X136552171Y-74645591D01*
X136552169Y-74645585D01*
X136552168Y-74645580D01*
X136496214Y-74473369D01*
X136496212Y-74473365D01*
X136496211Y-74473361D01*
X136413996Y-74312006D01*
X136378515Y-74263170D01*
X136307561Y-74165509D01*
X136307556Y-74165503D01*
X136307553Y-74165499D01*
X136179501Y-74037447D01*
X136179497Y-74037444D01*
X136179490Y-74037438D01*
X136032998Y-73931007D01*
X136032994Y-73931004D01*
X135871639Y-73848789D01*
X135871630Y-73848785D01*
X135699419Y-73792831D01*
X135699405Y-73792828D01*
X135574519Y-73773048D01*
X135520546Y-73764500D01*
X135339454Y-73764500D01*
X135297992Y-73771066D01*
X135160594Y-73792828D01*
X135160580Y-73792831D01*
X134988369Y-73848785D01*
X134988360Y-73848789D01*
X134902885Y-73892341D01*
X134827006Y-73931004D01*
X134827003Y-73931005D01*
X134827001Y-73931007D01*
X134680509Y-74037438D01*
X134680494Y-74037451D01*
X134552451Y-74165494D01*
X134552438Y-74165509D01*
X134446007Y-74312001D01*
X134363789Y-74473360D01*
X134363785Y-74473369D01*
X134307831Y-74645580D01*
X134307828Y-74645594D01*
X134279500Y-74824454D01*
X133050500Y-74824454D01*
X133050500Y-72284454D01*
X134279500Y-72284454D01*
X134279500Y-72465545D01*
X134307828Y-72644405D01*
X134307831Y-72644419D01*
X134363785Y-72816630D01*
X134363789Y-72816639D01*
X134446004Y-72977994D01*
X134446007Y-72977998D01*
X134552438Y-73124490D01*
X134552444Y-73124497D01*
X134552447Y-73124501D01*
X134680499Y-73252553D01*
X134680503Y-73252556D01*
X134680509Y-73252561D01*
X134778170Y-73323515D01*
X134827006Y-73358996D01*
X134988361Y-73441211D01*
X134988365Y-73441212D01*
X134988369Y-73441214D01*
X135160580Y-73497168D01*
X135160585Y-73497169D01*
X135160591Y-73497171D01*
X135339454Y-73525500D01*
X135339455Y-73525500D01*
X135520545Y-73525500D01*
X135520546Y-73525500D01*
X135699409Y-73497171D01*
X135699416Y-73497168D01*
X135699419Y-73497168D01*
X135871630Y-73441214D01*
X135871630Y-73441213D01*
X135871639Y-73441211D01*
X136032994Y-73358996D01*
X136179501Y-73252553D01*
X136307553Y-73124501D01*
X136413996Y-72977994D01*
X136496211Y-72816639D01*
X136552171Y-72644409D01*
X136580500Y-72465546D01*
X136580500Y-72284454D01*
X136552171Y-72105591D01*
X136552169Y-72105585D01*
X136552168Y-72105580D01*
X136496214Y-71933369D01*
X136496212Y-71933365D01*
X136496211Y-71933361D01*
X136413996Y-71772006D01*
X136378515Y-71723170D01*
X136307561Y-71625509D01*
X136307556Y-71625503D01*
X136307553Y-71625499D01*
X136179501Y-71497447D01*
X136179497Y-71497444D01*
X136179490Y-71497438D01*
X136032998Y-71391007D01*
X136032994Y-71391004D01*
X135871639Y-71308789D01*
X135871630Y-71308785D01*
X135699419Y-71252831D01*
X135699405Y-71252828D01*
X135574519Y-71233048D01*
X135520546Y-71224500D01*
X135339454Y-71224500D01*
X135297992Y-71231066D01*
X135160594Y-71252828D01*
X135160580Y-71252831D01*
X134988369Y-71308785D01*
X134988360Y-71308789D01*
X134902885Y-71352341D01*
X134827006Y-71391004D01*
X134827003Y-71391005D01*
X134827001Y-71391007D01*
X134680509Y-71497438D01*
X134680494Y-71497451D01*
X134552451Y-71625494D01*
X134552438Y-71625509D01*
X134446007Y-71772001D01*
X134363789Y-71933360D01*
X134363785Y-71933369D01*
X134307831Y-72105580D01*
X134307828Y-72105594D01*
X134279500Y-72284454D01*
X133050500Y-72284454D01*
X133050500Y-69744454D01*
X134279500Y-69744454D01*
X134279500Y-69925545D01*
X134307828Y-70104405D01*
X134307831Y-70104419D01*
X134363785Y-70276630D01*
X134363789Y-70276639D01*
X134446004Y-70437994D01*
X134446007Y-70437998D01*
X134552438Y-70584490D01*
X134552444Y-70584497D01*
X134552447Y-70584501D01*
X134680499Y-70712553D01*
X134680503Y-70712556D01*
X134680509Y-70712561D01*
X134778170Y-70783515D01*
X134827006Y-70818996D01*
X134988361Y-70901211D01*
X134988365Y-70901212D01*
X134988369Y-70901214D01*
X135160580Y-70957168D01*
X135160585Y-70957169D01*
X135160591Y-70957171D01*
X135339454Y-70985500D01*
X135339455Y-70985500D01*
X135520545Y-70985500D01*
X135520546Y-70985500D01*
X135699409Y-70957171D01*
X135699416Y-70957168D01*
X135699419Y-70957168D01*
X135871630Y-70901214D01*
X135871630Y-70901213D01*
X135871639Y-70901211D01*
X136032994Y-70818996D01*
X136179501Y-70712553D01*
X136307553Y-70584501D01*
X136413996Y-70437994D01*
X136496211Y-70276639D01*
X136552171Y-70104409D01*
X136580500Y-69925546D01*
X136580500Y-69744454D01*
X136552171Y-69565591D01*
X136552169Y-69565585D01*
X136552168Y-69565580D01*
X136496214Y-69393369D01*
X136496212Y-69393365D01*
X136496211Y-69393361D01*
X136413996Y-69232006D01*
X136378515Y-69183170D01*
X136307561Y-69085509D01*
X136307556Y-69085503D01*
X136307553Y-69085499D01*
X136179501Y-68957447D01*
X136179497Y-68957444D01*
X136179490Y-68957438D01*
X136032998Y-68851007D01*
X136032994Y-68851004D01*
X135871639Y-68768789D01*
X135871630Y-68768785D01*
X135699419Y-68712831D01*
X135699405Y-68712828D01*
X135574519Y-68693048D01*
X135520546Y-68684500D01*
X135339454Y-68684500D01*
X135297992Y-68691066D01*
X135160594Y-68712828D01*
X135160580Y-68712831D01*
X134988369Y-68768785D01*
X134988360Y-68768789D01*
X134902885Y-68812341D01*
X134827006Y-68851004D01*
X134827003Y-68851005D01*
X134827001Y-68851007D01*
X134680509Y-68957438D01*
X134680494Y-68957451D01*
X134552451Y-69085494D01*
X134552438Y-69085509D01*
X134446007Y-69232001D01*
X134363789Y-69393360D01*
X134363785Y-69393369D01*
X134307831Y-69565580D01*
X134307828Y-69565594D01*
X134279500Y-69744454D01*
X133050500Y-69744454D01*
X133050500Y-67721161D01*
X133050500Y-67721158D01*
X133019737Y-67566503D01*
X132959394Y-67420821D01*
X132959394Y-67420820D01*
X132871789Y-67289711D01*
X132786532Y-67204454D01*
X134279500Y-67204454D01*
X134279500Y-67385545D01*
X134307828Y-67564405D01*
X134307831Y-67564419D01*
X134363785Y-67736630D01*
X134363789Y-67736639D01*
X134446004Y-67897994D01*
X134446007Y-67897998D01*
X134552438Y-68044490D01*
X134552444Y-68044497D01*
X134552447Y-68044501D01*
X134680499Y-68172553D01*
X134680503Y-68172556D01*
X134680509Y-68172561D01*
X134778170Y-68243515D01*
X134827006Y-68278996D01*
X134988361Y-68361211D01*
X134988365Y-68361212D01*
X134988369Y-68361214D01*
X135160580Y-68417168D01*
X135160585Y-68417169D01*
X135160591Y-68417171D01*
X135339454Y-68445500D01*
X135339455Y-68445500D01*
X135520545Y-68445500D01*
X135520546Y-68445500D01*
X135699409Y-68417171D01*
X135699416Y-68417168D01*
X135699419Y-68417168D01*
X135871630Y-68361214D01*
X135871630Y-68361213D01*
X135871639Y-68361211D01*
X136032994Y-68278996D01*
X136179501Y-68172553D01*
X136307553Y-68044501D01*
X136413996Y-67897994D01*
X136496211Y-67736639D01*
X136523115Y-67653836D01*
X136552168Y-67564419D01*
X136552168Y-67564416D01*
X136552171Y-67564409D01*
X136580500Y-67385546D01*
X136580500Y-67204454D01*
X136552171Y-67025591D01*
X136552169Y-67025585D01*
X136552168Y-67025580D01*
X136496214Y-66853369D01*
X136496212Y-66853365D01*
X136496211Y-66853361D01*
X136413996Y-66692006D01*
X136378515Y-66643170D01*
X136307561Y-66545509D01*
X136307556Y-66545503D01*
X136307553Y-66545499D01*
X136179501Y-66417447D01*
X136179497Y-66417444D01*
X136179490Y-66417438D01*
X136032998Y-66311007D01*
X136032994Y-66311004D01*
X135871639Y-66228789D01*
X135871630Y-66228785D01*
X135699419Y-66172831D01*
X135699405Y-66172828D01*
X135574519Y-66153048D01*
X135520546Y-66144500D01*
X135339454Y-66144500D01*
X135297992Y-66151066D01*
X135160594Y-66172828D01*
X135160580Y-66172831D01*
X134988369Y-66228785D01*
X134988360Y-66228789D01*
X134902885Y-66272341D01*
X134827006Y-66311004D01*
X134827003Y-66311005D01*
X134827001Y-66311007D01*
X134680509Y-66417438D01*
X134680494Y-66417451D01*
X134552451Y-66545494D01*
X134552438Y-66545509D01*
X134446007Y-66692001D01*
X134363789Y-66853360D01*
X134363785Y-66853369D01*
X134307831Y-67025580D01*
X134307828Y-67025594D01*
X134279500Y-67204454D01*
X132786532Y-67204454D01*
X132760288Y-67178210D01*
X132629179Y-67090605D01*
X132483501Y-67030264D01*
X132483497Y-67030263D01*
X132328842Y-66999500D01*
X132171158Y-66999500D01*
X132016503Y-67030263D01*
X132016498Y-67030264D01*
X131870820Y-67090605D01*
X131739711Y-67178210D01*
X131628210Y-67289711D01*
X131540605Y-67420820D01*
X131480264Y-67566498D01*
X131480263Y-67566503D01*
X131449500Y-67721158D01*
X131449500Y-67721161D01*
X131449500Y-90063082D01*
X131430199Y-90116112D01*
X131381326Y-90144329D01*
X131335429Y-90139302D01*
X131304333Y-90126421D01*
X131304328Y-90126420D01*
X131168993Y-90099500D01*
X131031007Y-90099500D01*
X130895672Y-90126420D01*
X130895667Y-90126421D01*
X130768189Y-90179224D01*
X130653457Y-90255886D01*
X130555886Y-90353457D01*
X130479224Y-90468189D01*
X130426421Y-90595667D01*
X130426420Y-90595672D01*
X130399500Y-90731007D01*
X123703641Y-90731007D01*
X123690260Y-90698704D01*
X123621416Y-90595672D01*
X123613599Y-90583973D01*
X123516027Y-90486401D01*
X123516028Y-90486401D01*
X123401295Y-90409739D01*
X123273815Y-90356935D01*
X123193331Y-90340925D01*
X123145086Y-90311648D01*
X123131586Y-90282687D01*
X123130304Y-90283077D01*
X123129126Y-90279194D01*
X123076323Y-90151716D01*
X123064600Y-90134171D01*
X122999662Y-90036985D01*
X122902090Y-89939413D01*
X122902091Y-89939413D01*
X122787358Y-89862751D01*
X122659880Y-89809948D01*
X122659876Y-89809947D01*
X122524541Y-89783027D01*
X122386555Y-89783027D01*
X122251220Y-89809947D01*
X122251215Y-89809948D01*
X122123737Y-89862751D01*
X122009005Y-89939413D01*
X121911434Y-90036984D01*
X121868792Y-90100802D01*
X121823281Y-90134171D01*
X121766969Y-90130480D01*
X121731600Y-90100802D01*
X121706396Y-90063082D01*
X121682921Y-90027949D01*
X121585349Y-89930377D01*
X121585350Y-89930377D01*
X121470617Y-89853715D01*
X121343139Y-89800912D01*
X121343135Y-89800911D01*
X121207800Y-89773991D01*
X121069814Y-89773991D01*
X120934479Y-89800911D01*
X120934474Y-89800912D01*
X120806996Y-89853715D01*
X120692264Y-89930377D01*
X120594693Y-90027948D01*
X120518031Y-90142680D01*
X120465228Y-90270158D01*
X120465227Y-90270163D01*
X120438307Y-90405498D01*
X120438307Y-90543484D01*
X120465227Y-90678818D01*
X120465228Y-90678823D01*
X120518031Y-90806301D01*
X120594693Y-90921033D01*
X120614143Y-90940483D01*
X120637993Y-90991629D01*
X120638307Y-90998819D01*
X120638307Y-101954699D01*
X120672415Y-102081994D01*
X120738307Y-102196121D01*
X120738311Y-102196126D01*
X121947253Y-103405067D01*
X121971103Y-103456213D01*
X121956497Y-103510723D01*
X121937412Y-103530145D01*
X121915353Y-103546172D01*
X121776176Y-103685349D01*
X121776163Y-103685364D01*
X121660474Y-103844597D01*
X121571117Y-104019970D01*
X121538462Y-104120473D01*
X121503718Y-104164943D01*
X121448518Y-104176676D01*
X121398690Y-104150182D01*
X121381538Y-104120473D01*
X121348882Y-104019970D01*
X121259525Y-103844597D01*
X121143836Y-103685364D01*
X121143831Y-103685358D01*
X121143828Y-103685354D01*
X121004646Y-103546172D01*
X121004642Y-103546169D01*
X121004635Y-103546163D01*
X120845402Y-103430474D01*
X120670029Y-103341117D01*
X120482832Y-103280292D01*
X120482822Y-103280290D01*
X120347081Y-103258791D01*
X120288417Y-103249500D01*
X120091583Y-103249500D01*
X120046517Y-103256637D01*
X119897177Y-103280290D01*
X119897167Y-103280292D01*
X119709970Y-103341117D01*
X119534597Y-103430474D01*
X119375364Y-103546163D01*
X119375349Y-103546176D01*
X119236176Y-103685349D01*
X119236163Y-103685364D01*
X119120474Y-103844597D01*
X119031117Y-104019970D01*
X118998462Y-104120473D01*
X118963718Y-104164943D01*
X118908518Y-104176676D01*
X118858690Y-104150182D01*
X118841538Y-104120473D01*
X118808882Y-104019970D01*
X118719525Y-103844597D01*
X118603836Y-103685364D01*
X118603831Y-103685358D01*
X118603828Y-103685354D01*
X118464646Y-103546172D01*
X118464642Y-103546169D01*
X118464635Y-103546163D01*
X118305402Y-103430474D01*
X118130029Y-103341117D01*
X117942832Y-103280292D01*
X117942822Y-103280290D01*
X117807081Y-103258791D01*
X117748417Y-103249500D01*
X117551583Y-103249500D01*
X117506517Y-103256637D01*
X117357177Y-103280290D01*
X117357167Y-103280292D01*
X117169970Y-103341117D01*
X116994597Y-103430474D01*
X116835364Y-103546163D01*
X116835349Y-103546176D01*
X116696176Y-103685349D01*
X116696163Y-103685364D01*
X116580474Y-103844597D01*
X116491117Y-104019970D01*
X116458462Y-104120473D01*
X116423718Y-104164943D01*
X116368518Y-104176676D01*
X116318690Y-104150182D01*
X116301538Y-104120473D01*
X116268882Y-104019970D01*
X116179525Y-103844597D01*
X116063836Y-103685364D01*
X116063831Y-103685358D01*
X116063828Y-103685354D01*
X115924646Y-103546172D01*
X115924642Y-103546169D01*
X115924635Y-103546163D01*
X115765402Y-103430474D01*
X115590029Y-103341117D01*
X115402832Y-103280292D01*
X115402822Y-103280290D01*
X115267081Y-103258791D01*
X115208417Y-103249500D01*
X115011583Y-103249500D01*
X114966517Y-103256637D01*
X114817177Y-103280290D01*
X114817167Y-103280292D01*
X114629970Y-103341117D01*
X114454597Y-103430474D01*
X114295364Y-103546163D01*
X114295349Y-103546176D01*
X114156176Y-103685349D01*
X114156163Y-103685364D01*
X114069244Y-103804999D01*
X114022459Y-103836556D01*
X113966334Y-103830657D01*
X113927132Y-103790063D01*
X113920000Y-103756507D01*
X113920000Y-103602172D01*
X113913598Y-103542626D01*
X113913598Y-103542625D01*
X113863352Y-103407909D01*
X113777188Y-103292811D01*
X113662090Y-103206647D01*
X113662091Y-103206647D01*
X113527374Y-103156401D01*
X113467827Y-103150000D01*
X112820000Y-103150000D01*
X112820000Y-104066988D01*
X112762993Y-104034075D01*
X112635826Y-104000000D01*
X112504174Y-104000000D01*
X112377007Y-104034075D01*
X112320000Y-104066988D01*
X112320000Y-103150000D01*
X111672173Y-103150000D01*
X111612626Y-103156401D01*
X111612625Y-103156401D01*
X111477909Y-103206647D01*
X111362811Y-103292811D01*
X111276647Y-103407909D01*
X111226401Y-103542625D01*
X111226401Y-103542626D01*
X111220000Y-103602172D01*
X110650500Y-103602172D01*
X110650500Y-97676623D01*
X111320000Y-97676623D01*
X111320000Y-97873376D01*
X111350778Y-98067705D01*
X111350780Y-98067715D01*
X111411581Y-98254837D01*
X111500898Y-98430134D01*
X111500908Y-98430149D01*
X111526319Y-98465125D01*
X111526321Y-98465125D01*
X112127861Y-97863584D01*
X112150667Y-97948694D01*
X112209910Y-98051306D01*
X112293694Y-98135090D01*
X112396306Y-98194333D01*
X112481413Y-98217137D01*
X111879873Y-98818677D01*
X111879873Y-98818678D01*
X111914859Y-98844096D01*
X111914865Y-98844101D01*
X112090162Y-98933418D01*
X112277284Y-98994219D01*
X112277294Y-98994221D01*
X112401453Y-99013886D01*
X112450810Y-99041245D01*
X112471034Y-99093930D01*
X112452662Y-99147289D01*
X112404289Y-99176354D01*
X112401453Y-99176854D01*
X112300594Y-99192828D01*
X112300580Y-99192831D01*
X112128369Y-99248785D01*
X112128360Y-99248789D01*
X112042885Y-99292341D01*
X111967006Y-99331004D01*
X111967003Y-99331005D01*
X111967001Y-99331007D01*
X111820509Y-99437438D01*
X111820494Y-99437451D01*
X111692451Y-99565494D01*
X111692438Y-99565509D01*
X111586007Y-99712001D01*
X111586005Y-99712003D01*
X111586004Y-99712006D01*
X111548131Y-99786335D01*
X111503789Y-99873360D01*
X111503785Y-99873369D01*
X111447831Y-100045580D01*
X111447828Y-100045594D01*
X111419500Y-100224454D01*
X111419500Y-100405545D01*
X111447828Y-100584405D01*
X111447831Y-100584419D01*
X111503785Y-100756630D01*
X111503789Y-100756639D01*
X111586004Y-100917994D01*
X111586007Y-100917998D01*
X111692438Y-101064490D01*
X111692444Y-101064497D01*
X111692447Y-101064501D01*
X111820499Y-101192553D01*
X111820503Y-101192556D01*
X111820509Y-101192561D01*
X111918170Y-101263515D01*
X111967006Y-101298996D01*
X112128361Y-101381211D01*
X112128365Y-101381212D01*
X112128369Y-101381214D01*
X112300580Y-101437168D01*
X112300585Y-101437169D01*
X112300591Y-101437171D01*
X112479454Y-101465500D01*
X112479455Y-101465500D01*
X112660545Y-101465500D01*
X112660546Y-101465500D01*
X112839409Y-101437171D01*
X112839416Y-101437168D01*
X112839419Y-101437168D01*
X113011630Y-101381214D01*
X113011630Y-101381213D01*
X113011639Y-101381211D01*
X113172994Y-101298996D01*
X113319501Y-101192553D01*
X113447553Y-101064501D01*
X113553996Y-100917994D01*
X113636211Y-100756639D01*
X113692171Y-100584409D01*
X113720500Y-100405546D01*
X113720500Y-100224454D01*
X113692171Y-100045591D01*
X113692169Y-100045585D01*
X113692168Y-100045580D01*
X113636214Y-99873369D01*
X113636212Y-99873365D01*
X113636211Y-99873361D01*
X113553996Y-99712006D01*
X113450089Y-99568989D01*
X113447561Y-99565509D01*
X113447556Y-99565503D01*
X113447553Y-99565499D01*
X113319501Y-99437447D01*
X113319497Y-99437444D01*
X113319490Y-99437438D01*
X113172998Y-99331007D01*
X113172994Y-99331004D01*
X113011639Y-99248789D01*
X113011630Y-99248785D01*
X112839419Y-99192831D01*
X112839405Y-99192828D01*
X112738546Y-99176854D01*
X112689189Y-99149495D01*
X112668965Y-99096810D01*
X112687337Y-99043451D01*
X112735710Y-99014386D01*
X112738546Y-99013886D01*
X112862705Y-98994221D01*
X112862715Y-98994219D01*
X113049837Y-98933418D01*
X113225137Y-98844099D01*
X113260126Y-98818678D01*
X112658585Y-98217137D01*
X112743694Y-98194333D01*
X112846306Y-98135090D01*
X112930090Y-98051306D01*
X112989333Y-97948694D01*
X113012137Y-97863585D01*
X113613678Y-98465126D01*
X113639099Y-98430137D01*
X113728418Y-98254837D01*
X113789219Y-98067715D01*
X113789221Y-98067705D01*
X113820000Y-97873376D01*
X113820000Y-97676623D01*
X113789221Y-97482294D01*
X113789219Y-97482284D01*
X113728418Y-97295162D01*
X113639101Y-97119865D01*
X113639096Y-97119859D01*
X113613678Y-97084873D01*
X113613677Y-97084873D01*
X113012137Y-97686413D01*
X112989333Y-97601306D01*
X112930090Y-97498694D01*
X112846306Y-97414910D01*
X112743694Y-97355667D01*
X112658584Y-97332861D01*
X113260125Y-96731321D01*
X113260125Y-96731319D01*
X113225149Y-96705908D01*
X113225134Y-96705898D01*
X113049837Y-96616581D01*
X112862715Y-96555780D01*
X112862705Y-96555778D01*
X112738546Y-96536113D01*
X112689188Y-96508754D01*
X112668965Y-96456068D01*
X112687338Y-96402710D01*
X112735711Y-96373645D01*
X112738496Y-96373153D01*
X112839409Y-96357171D01*
X112839417Y-96357168D01*
X112839419Y-96357168D01*
X113011630Y-96301214D01*
X113011630Y-96301213D01*
X113011639Y-96301211D01*
X113172994Y-96218996D01*
X113319501Y-96112553D01*
X113447553Y-95984501D01*
X113553996Y-95837994D01*
X113636211Y-95676639D01*
X113692171Y-95504409D01*
X113720500Y-95325546D01*
X113720500Y-95144454D01*
X113692171Y-94965591D01*
X113692169Y-94965585D01*
X113692168Y-94965580D01*
X113636214Y-94793369D01*
X113636212Y-94793365D01*
X113636211Y-94793361D01*
X113553996Y-94632006D01*
X113485728Y-94538042D01*
X113447561Y-94485509D01*
X113447556Y-94485503D01*
X113447553Y-94485499D01*
X113319501Y-94357447D01*
X113319497Y-94357444D01*
X113319490Y-94357438D01*
X113172998Y-94251007D01*
X113172994Y-94251004D01*
X113011639Y-94168789D01*
X113011630Y-94168785D01*
X112839419Y-94112831D01*
X112839405Y-94112828D01*
X112714519Y-94093048D01*
X112660546Y-94084500D01*
X112479454Y-94084500D01*
X112437992Y-94091066D01*
X112300594Y-94112828D01*
X112300580Y-94112831D01*
X112128369Y-94168785D01*
X112128360Y-94168789D01*
X112042885Y-94212341D01*
X111967006Y-94251004D01*
X111967003Y-94251005D01*
X111967001Y-94251007D01*
X111820509Y-94357438D01*
X111820494Y-94357451D01*
X111692451Y-94485494D01*
X111692438Y-94485509D01*
X111586007Y-94632001D01*
X111586005Y-94632003D01*
X111586004Y-94632006D01*
X111584166Y-94635614D01*
X111503789Y-94793360D01*
X111503785Y-94793369D01*
X111447831Y-94965580D01*
X111447828Y-94965594D01*
X111419500Y-95144454D01*
X111419500Y-95325545D01*
X111447828Y-95504405D01*
X111447831Y-95504419D01*
X111503785Y-95676630D01*
X111503789Y-95676639D01*
X111586004Y-95837994D01*
X111586007Y-95837998D01*
X111692438Y-95984490D01*
X111692444Y-95984497D01*
X111692447Y-95984501D01*
X111820499Y-96112553D01*
X111820503Y-96112556D01*
X111820509Y-96112561D01*
X111918170Y-96183515D01*
X111967006Y-96218996D01*
X112128361Y-96301211D01*
X112128365Y-96301212D01*
X112128369Y-96301214D01*
X112300580Y-96357168D01*
X112300584Y-96357168D01*
X112300591Y-96357171D01*
X112401453Y-96373146D01*
X112450810Y-96400504D01*
X112471034Y-96453188D01*
X112452662Y-96506547D01*
X112404289Y-96535613D01*
X112401453Y-96536113D01*
X112277294Y-96555778D01*
X112277284Y-96555780D01*
X112090162Y-96616581D01*
X111914865Y-96705898D01*
X111914852Y-96705907D01*
X111879873Y-96731319D01*
X111879873Y-96731321D01*
X112481414Y-97332861D01*
X112396306Y-97355667D01*
X112293694Y-97414910D01*
X112209910Y-97498694D01*
X112150667Y-97601306D01*
X112127862Y-97686414D01*
X111526321Y-97084873D01*
X111526319Y-97084873D01*
X111500907Y-97119852D01*
X111500898Y-97119865D01*
X111411581Y-97295162D01*
X111350780Y-97482284D01*
X111350778Y-97482294D01*
X111320000Y-97676623D01*
X110650500Y-97676623D01*
X110650500Y-92604454D01*
X111419500Y-92604454D01*
X111419500Y-92785545D01*
X111447828Y-92964405D01*
X111447831Y-92964419D01*
X111503785Y-93136630D01*
X111503789Y-93136639D01*
X111586004Y-93297994D01*
X111586007Y-93297998D01*
X111692438Y-93444490D01*
X111692444Y-93444497D01*
X111692447Y-93444501D01*
X111820499Y-93572553D01*
X111820503Y-93572556D01*
X111820509Y-93572561D01*
X111918170Y-93643515D01*
X111967006Y-93678996D01*
X112128361Y-93761211D01*
X112128365Y-93761212D01*
X112128369Y-93761214D01*
X112300580Y-93817168D01*
X112300585Y-93817169D01*
X112300591Y-93817171D01*
X112479454Y-93845500D01*
X112479455Y-93845500D01*
X112660545Y-93845500D01*
X112660546Y-93845500D01*
X112839409Y-93817171D01*
X112839416Y-93817168D01*
X112839419Y-93817168D01*
X113011630Y-93761214D01*
X113011630Y-93761213D01*
X113011639Y-93761211D01*
X113172994Y-93678996D01*
X113319501Y-93572553D01*
X113447553Y-93444501D01*
X113506702Y-93363089D01*
X116052418Y-93363089D01*
X116052418Y-93501075D01*
X116079338Y-93636409D01*
X116079339Y-93636414D01*
X116132142Y-93763892D01*
X116208804Y-93878624D01*
X116306375Y-93976195D01*
X116306374Y-93976195D01*
X116421107Y-94052857D01*
X116548590Y-94105662D01*
X116683925Y-94132582D01*
X116683928Y-94132582D01*
X116821908Y-94132582D01*
X116821911Y-94132582D01*
X116957246Y-94105662D01*
X117084729Y-94052857D01*
X117130151Y-94022507D01*
X118499500Y-94022507D01*
X118499500Y-94160493D01*
X118526420Y-94295827D01*
X118526421Y-94295832D01*
X118579224Y-94423310D01*
X118655886Y-94538042D01*
X118753457Y-94635613D01*
X118753456Y-94635613D01*
X118868189Y-94712275D01*
X118995672Y-94765080D01*
X119131007Y-94792000D01*
X119131010Y-94792000D01*
X119268990Y-94792000D01*
X119268993Y-94792000D01*
X119404328Y-94765080D01*
X119531811Y-94712275D01*
X119646542Y-94635614D01*
X119744114Y-94538042D01*
X119820775Y-94423311D01*
X119873580Y-94295828D01*
X119900500Y-94160493D01*
X119900500Y-94022507D01*
X119873580Y-93887172D01*
X119844583Y-93817168D01*
X119820775Y-93759689D01*
X119744114Y-93644958D01*
X119724664Y-93625508D01*
X119700814Y-93574362D01*
X119700500Y-93567172D01*
X119700500Y-86601583D01*
X125009500Y-86601583D01*
X125009500Y-86798416D01*
X125040290Y-86992822D01*
X125040292Y-86992832D01*
X125101117Y-87180029D01*
X125190474Y-87355402D01*
X125306163Y-87514635D01*
X125306169Y-87514642D01*
X125306172Y-87514646D01*
X125445354Y-87653828D01*
X125445358Y-87653831D01*
X125445364Y-87653836D01*
X125474914Y-87675305D01*
X125604595Y-87769524D01*
X125604597Y-87769525D01*
X125779970Y-87858882D01*
X125779972Y-87858882D01*
X125779975Y-87858884D01*
X125888107Y-87894018D01*
X125967167Y-87919707D01*
X125967169Y-87919707D01*
X125967174Y-87919709D01*
X126161583Y-87950500D01*
X126161584Y-87950500D01*
X126358416Y-87950500D01*
X126358417Y-87950500D01*
X126552826Y-87919709D01*
X126740025Y-87858884D01*
X126915405Y-87769524D01*
X127074646Y-87653828D01*
X127213828Y-87514646D01*
X127329524Y-87355405D01*
X127393492Y-87229858D01*
X127434764Y-87191372D01*
X127491120Y-87188418D01*
X127536190Y-87222380D01*
X127549500Y-87267313D01*
X127549500Y-87581513D01*
X127564354Y-87675305D01*
X127612362Y-87769525D01*
X127621950Y-87788342D01*
X127711658Y-87878050D01*
X127824696Y-87935646D01*
X127824699Y-87935647D01*
X127860719Y-87941351D01*
X127918481Y-87950500D01*
X129681518Y-87950499D01*
X129775304Y-87935646D01*
X129888342Y-87878050D01*
X129978050Y-87788342D01*
X130035646Y-87675304D01*
X130050500Y-87581519D01*
X130050499Y-85818482D01*
X130035646Y-85724696D01*
X129978050Y-85611658D01*
X129888342Y-85521950D01*
X129888340Y-85521949D01*
X129888339Y-85521948D01*
X129775305Y-85464354D01*
X129775300Y-85464352D01*
X129681519Y-85449500D01*
X127918486Y-85449500D01*
X127824694Y-85464354D01*
X127711660Y-85521948D01*
X127711656Y-85521951D01*
X127621951Y-85611656D01*
X127621948Y-85611660D01*
X127564354Y-85724694D01*
X127564352Y-85724699D01*
X127549500Y-85818480D01*
X127549500Y-86132685D01*
X127530199Y-86185715D01*
X127481326Y-86213932D01*
X127425750Y-86204132D01*
X127393492Y-86170139D01*
X127329525Y-86044597D01*
X127213836Y-85885364D01*
X127213831Y-85885358D01*
X127213828Y-85885354D01*
X127074646Y-85746172D01*
X127074642Y-85746169D01*
X127074635Y-85746163D01*
X126915402Y-85630474D01*
X126740029Y-85541117D01*
X126552832Y-85480292D01*
X126552822Y-85480290D01*
X126417081Y-85458791D01*
X126358417Y-85449500D01*
X126161583Y-85449500D01*
X126116517Y-85456637D01*
X125967177Y-85480290D01*
X125967167Y-85480292D01*
X125779970Y-85541117D01*
X125604597Y-85630474D01*
X125445364Y-85746163D01*
X125445349Y-85746176D01*
X125306176Y-85885349D01*
X125306163Y-85885364D01*
X125190474Y-86044597D01*
X125101117Y-86219970D01*
X125040292Y-86407167D01*
X125040290Y-86407177D01*
X125009500Y-86601583D01*
X119700500Y-86601583D01*
X119700500Y-78141486D01*
X119719801Y-78088456D01*
X119724664Y-78083150D01*
X120583150Y-77224664D01*
X120634296Y-77200814D01*
X120641486Y-77200500D01*
X120668990Y-77200500D01*
X120668993Y-77200500D01*
X120804328Y-77173580D01*
X120931811Y-77120775D01*
X121046542Y-77044114D01*
X121144114Y-76946542D01*
X121220775Y-76831811D01*
X121273580Y-76704328D01*
X121300500Y-76568993D01*
X121300500Y-76431007D01*
X121273580Y-76295672D01*
X121220775Y-76168189D01*
X121144114Y-76053458D01*
X121046542Y-75955886D01*
X121046543Y-75955886D01*
X120931810Y-75879224D01*
X120804332Y-75826421D01*
X120804328Y-75826420D01*
X120668993Y-75799500D01*
X120531007Y-75799500D01*
X120395672Y-75826420D01*
X120395667Y-75826421D01*
X120268189Y-75879224D01*
X120153457Y-75955886D01*
X120055886Y-76053457D01*
X119979224Y-76168189D01*
X119926421Y-76295667D01*
X119926420Y-76295672D01*
X119899500Y-76431007D01*
X119899500Y-76431010D01*
X119899500Y-76458514D01*
X119880199Y-76511544D01*
X119875336Y-76516850D01*
X118892686Y-77499500D01*
X118846641Y-77545545D01*
X118799500Y-77592685D01*
X118733608Y-77706812D01*
X118699500Y-77834107D01*
X118699500Y-93567172D01*
X118680199Y-93620202D01*
X118675336Y-93625508D01*
X118655886Y-93644957D01*
X118579224Y-93759689D01*
X118526421Y-93887167D01*
X118526420Y-93887172D01*
X118499500Y-94022507D01*
X117130151Y-94022507D01*
X117199460Y-93976196D01*
X117297032Y-93878624D01*
X117373693Y-93763893D01*
X117426498Y-93636410D01*
X117453418Y-93501075D01*
X117453418Y-93473568D01*
X117459578Y-93456642D01*
X117461148Y-93438702D01*
X117471476Y-93423951D01*
X117472719Y-93420538D01*
X117477582Y-93415232D01*
X117584598Y-93308216D01*
X117635744Y-93284366D01*
X117642934Y-93284052D01*
X117670438Y-93284052D01*
X117670441Y-93284052D01*
X117805776Y-93257132D01*
X117933259Y-93204327D01*
X118047990Y-93127666D01*
X118145562Y-93030094D01*
X118222223Y-92915363D01*
X118275028Y-92787880D01*
X118301948Y-92652545D01*
X118301948Y-92514559D01*
X118275028Y-92379224D01*
X118222223Y-92251741D01*
X118145562Y-92137010D01*
X118047990Y-92039438D01*
X118047991Y-92039438D01*
X117933258Y-91962776D01*
X117805780Y-91909973D01*
X117805776Y-91909972D01*
X117670441Y-91883052D01*
X117532455Y-91883052D01*
X117397120Y-91909972D01*
X117397115Y-91909973D01*
X117269637Y-91962776D01*
X117154905Y-92039438D01*
X117057334Y-92137009D01*
X116980672Y-92251741D01*
X116927869Y-92379219D01*
X116927868Y-92379224D01*
X116900948Y-92514559D01*
X116900948Y-92514562D01*
X116900948Y-92542066D01*
X116894787Y-92558991D01*
X116893218Y-92576932D01*
X116882889Y-92591682D01*
X116881647Y-92595096D01*
X116876784Y-92600402D01*
X116769768Y-92707418D01*
X116718622Y-92731268D01*
X116711432Y-92731582D01*
X116683925Y-92731582D01*
X116548590Y-92758502D01*
X116548585Y-92758503D01*
X116421107Y-92811306D01*
X116306375Y-92887968D01*
X116208804Y-92985539D01*
X116132142Y-93100271D01*
X116079339Y-93227749D01*
X116079338Y-93227754D01*
X116052418Y-93363089D01*
X113506702Y-93363089D01*
X113553996Y-93297994D01*
X113636211Y-93136639D01*
X113636214Y-93136630D01*
X113692168Y-92964419D01*
X113692168Y-92964416D01*
X113692171Y-92964409D01*
X113720500Y-92785546D01*
X113720500Y-92604454D01*
X113692171Y-92425591D01*
X113692169Y-92425585D01*
X113692168Y-92425580D01*
X113636214Y-92253369D01*
X113636212Y-92253365D01*
X113636211Y-92253361D01*
X113553996Y-92092006D01*
X113515803Y-92039438D01*
X113447561Y-91945509D01*
X113447556Y-91945503D01*
X113447553Y-91945499D01*
X113319501Y-91817447D01*
X113319497Y-91817444D01*
X113319490Y-91817438D01*
X113172998Y-91711007D01*
X113172994Y-91711004D01*
X113011639Y-91628789D01*
X113011630Y-91628785D01*
X112839419Y-91572831D01*
X112839405Y-91572828D01*
X112714519Y-91553048D01*
X112660546Y-91544500D01*
X112479454Y-91544500D01*
X112437992Y-91551066D01*
X112300594Y-91572828D01*
X112300580Y-91572831D01*
X112128369Y-91628785D01*
X112128360Y-91628789D01*
X112042885Y-91672341D01*
X111967006Y-91711004D01*
X111967003Y-91711005D01*
X111967001Y-91711007D01*
X111820509Y-91817438D01*
X111820494Y-91817451D01*
X111692451Y-91945494D01*
X111692438Y-91945509D01*
X111586007Y-92092001D01*
X111503789Y-92253360D01*
X111503785Y-92253369D01*
X111447831Y-92425580D01*
X111447828Y-92425594D01*
X111419500Y-92604454D01*
X110650500Y-92604454D01*
X110650500Y-90064454D01*
X111419500Y-90064454D01*
X111419500Y-90245545D01*
X111447828Y-90424405D01*
X111447831Y-90424419D01*
X111503785Y-90596630D01*
X111503789Y-90596639D01*
X111586004Y-90757994D01*
X111586007Y-90757998D01*
X111692438Y-90904490D01*
X111692444Y-90904497D01*
X111692447Y-90904501D01*
X111820499Y-91032553D01*
X111820503Y-91032556D01*
X111820509Y-91032561D01*
X111912650Y-91099504D01*
X111967006Y-91138996D01*
X112128361Y-91221211D01*
X112128365Y-91221212D01*
X112128369Y-91221214D01*
X112300580Y-91277168D01*
X112300585Y-91277169D01*
X112300591Y-91277171D01*
X112479454Y-91305500D01*
X112479455Y-91305500D01*
X112660545Y-91305500D01*
X112660546Y-91305500D01*
X112839409Y-91277171D01*
X112839416Y-91277168D01*
X112839419Y-91277168D01*
X113011630Y-91221214D01*
X113011630Y-91221213D01*
X113011639Y-91221211D01*
X113172994Y-91138996D01*
X113319501Y-91032553D01*
X113447553Y-90904501D01*
X113553996Y-90757994D01*
X113636211Y-90596639D01*
X113692171Y-90424409D01*
X113720500Y-90245546D01*
X113720500Y-90064454D01*
X113692171Y-89885591D01*
X113692169Y-89885585D01*
X113692168Y-89885580D01*
X113636214Y-89713369D01*
X113636212Y-89713365D01*
X113636211Y-89713361D01*
X113553996Y-89552006D01*
X113518515Y-89503170D01*
X113447561Y-89405509D01*
X113447556Y-89405503D01*
X113447553Y-89405499D01*
X113319501Y-89277447D01*
X113319497Y-89277444D01*
X113319490Y-89277438D01*
X113172998Y-89171007D01*
X113172994Y-89171004D01*
X113011639Y-89088789D01*
X113011630Y-89088785D01*
X112839419Y-89032831D01*
X112839405Y-89032828D01*
X112714519Y-89013048D01*
X112660546Y-89004500D01*
X112479454Y-89004500D01*
X112437992Y-89011066D01*
X112300594Y-89032828D01*
X112300580Y-89032831D01*
X112128369Y-89088785D01*
X112128360Y-89088789D01*
X112042885Y-89132341D01*
X111967006Y-89171004D01*
X111967003Y-89171005D01*
X111967001Y-89171007D01*
X111820509Y-89277438D01*
X111820494Y-89277451D01*
X111692451Y-89405494D01*
X111692438Y-89405509D01*
X111586007Y-89552001D01*
X111503789Y-89713360D01*
X111503785Y-89713369D01*
X111447831Y-89885580D01*
X111447828Y-89885594D01*
X111419500Y-90064454D01*
X110650500Y-90064454D01*
X110650500Y-87524454D01*
X111419500Y-87524454D01*
X111419500Y-87705545D01*
X111447828Y-87884405D01*
X111447831Y-87884419D01*
X111503785Y-88056630D01*
X111503789Y-88056639D01*
X111586004Y-88217994D01*
X111586007Y-88217998D01*
X111692438Y-88364490D01*
X111692444Y-88364497D01*
X111692447Y-88364501D01*
X111820499Y-88492553D01*
X111820503Y-88492556D01*
X111820509Y-88492561D01*
X111918170Y-88563515D01*
X111967006Y-88598996D01*
X112128361Y-88681211D01*
X112128365Y-88681212D01*
X112128369Y-88681214D01*
X112300580Y-88737168D01*
X112300585Y-88737169D01*
X112300591Y-88737171D01*
X112479454Y-88765500D01*
X112479455Y-88765500D01*
X112660545Y-88765500D01*
X112660546Y-88765500D01*
X112839409Y-88737171D01*
X112839416Y-88737168D01*
X112839419Y-88737168D01*
X113011630Y-88681214D01*
X113011630Y-88681213D01*
X113011639Y-88681211D01*
X113172994Y-88598996D01*
X113319501Y-88492553D01*
X113447553Y-88364501D01*
X113553996Y-88217994D01*
X113636211Y-88056639D01*
X113670697Y-87950500D01*
X113692168Y-87884419D01*
X113692168Y-87884416D01*
X113692171Y-87884409D01*
X113720500Y-87705546D01*
X113720500Y-87524454D01*
X113692171Y-87345591D01*
X113692169Y-87345585D01*
X113692168Y-87345580D01*
X113636214Y-87173369D01*
X113636212Y-87173365D01*
X113636211Y-87173361D01*
X113553996Y-87012006D01*
X113518515Y-86963170D01*
X113447561Y-86865509D01*
X113447556Y-86865503D01*
X113447553Y-86865499D01*
X113319501Y-86737447D01*
X113319497Y-86737444D01*
X113319490Y-86737438D01*
X113172998Y-86631007D01*
X113172994Y-86631004D01*
X113011639Y-86548789D01*
X113011630Y-86548785D01*
X112839419Y-86492831D01*
X112839405Y-86492828D01*
X112714519Y-86473048D01*
X112660546Y-86464500D01*
X112479454Y-86464500D01*
X112437992Y-86471066D01*
X112300594Y-86492828D01*
X112300580Y-86492831D01*
X112128369Y-86548785D01*
X112128360Y-86548789D01*
X112042885Y-86592341D01*
X111967006Y-86631004D01*
X111967003Y-86631005D01*
X111967001Y-86631007D01*
X111820509Y-86737438D01*
X111820494Y-86737451D01*
X111692451Y-86865494D01*
X111692438Y-86865509D01*
X111586007Y-87012001D01*
X111503789Y-87173360D01*
X111503785Y-87173369D01*
X111447831Y-87345580D01*
X111447828Y-87345594D01*
X111419500Y-87524454D01*
X110650500Y-87524454D01*
X110650500Y-84984454D01*
X111419500Y-84984454D01*
X111419500Y-85165545D01*
X111447828Y-85344405D01*
X111447831Y-85344419D01*
X111503785Y-85516630D01*
X111503789Y-85516639D01*
X111586004Y-85677994D01*
X111586007Y-85677998D01*
X111692438Y-85824490D01*
X111692444Y-85824497D01*
X111692447Y-85824501D01*
X111820499Y-85952553D01*
X111820503Y-85952556D01*
X111820509Y-85952561D01*
X111918170Y-86023515D01*
X111967006Y-86058996D01*
X112128361Y-86141211D01*
X112128365Y-86141212D01*
X112128369Y-86141214D01*
X112300580Y-86197168D01*
X112300585Y-86197169D01*
X112300591Y-86197171D01*
X112479454Y-86225500D01*
X112479455Y-86225500D01*
X112660545Y-86225500D01*
X112660546Y-86225500D01*
X112839409Y-86197171D01*
X112839416Y-86197168D01*
X112839419Y-86197168D01*
X113011630Y-86141214D01*
X113011630Y-86141213D01*
X113011639Y-86141211D01*
X113172994Y-86058996D01*
X113319501Y-85952553D01*
X113447553Y-85824501D01*
X113553996Y-85677994D01*
X113636211Y-85516639D01*
X113658025Y-85449501D01*
X113692168Y-85344419D01*
X113692168Y-85344416D01*
X113692171Y-85344409D01*
X113720500Y-85165546D01*
X113720500Y-84984454D01*
X113692171Y-84805591D01*
X113692169Y-84805585D01*
X113692168Y-84805580D01*
X113636214Y-84633369D01*
X113636212Y-84633365D01*
X113636211Y-84633361D01*
X113553996Y-84472006D01*
X113518515Y-84423170D01*
X113447561Y-84325509D01*
X113447556Y-84325503D01*
X113447553Y-84325499D01*
X113319501Y-84197447D01*
X113319497Y-84197444D01*
X113319490Y-84197438D01*
X113172998Y-84091007D01*
X113172994Y-84091004D01*
X113011639Y-84008789D01*
X113011630Y-84008785D01*
X112839419Y-83952831D01*
X112839405Y-83952828D01*
X112714519Y-83933048D01*
X112660546Y-83924500D01*
X112479454Y-83924500D01*
X112437992Y-83931066D01*
X112300594Y-83952828D01*
X112300580Y-83952831D01*
X112128369Y-84008785D01*
X112128360Y-84008789D01*
X112042885Y-84052341D01*
X111967006Y-84091004D01*
X111967003Y-84091005D01*
X111967001Y-84091007D01*
X111820509Y-84197438D01*
X111820494Y-84197451D01*
X111692451Y-84325494D01*
X111692438Y-84325509D01*
X111586007Y-84472001D01*
X111503789Y-84633360D01*
X111503785Y-84633369D01*
X111447831Y-84805580D01*
X111447828Y-84805594D01*
X111419500Y-84984454D01*
X110650500Y-84984454D01*
X110650500Y-82444454D01*
X111419500Y-82444454D01*
X111419500Y-82625545D01*
X111447828Y-82804405D01*
X111447831Y-82804419D01*
X111503785Y-82976630D01*
X111503789Y-82976639D01*
X111586004Y-83137994D01*
X111586007Y-83137998D01*
X111692438Y-83284490D01*
X111692444Y-83284497D01*
X111692447Y-83284501D01*
X111820499Y-83412553D01*
X111820503Y-83412556D01*
X111820509Y-83412561D01*
X111918170Y-83483515D01*
X111967006Y-83518996D01*
X112128361Y-83601211D01*
X112128365Y-83601212D01*
X112128369Y-83601214D01*
X112300580Y-83657168D01*
X112300585Y-83657169D01*
X112300591Y-83657171D01*
X112479454Y-83685500D01*
X112479455Y-83685500D01*
X112660545Y-83685500D01*
X112660546Y-83685500D01*
X112839409Y-83657171D01*
X112839416Y-83657168D01*
X112839419Y-83657168D01*
X113011630Y-83601214D01*
X113011630Y-83601213D01*
X113011639Y-83601211D01*
X113172994Y-83518996D01*
X113319501Y-83412553D01*
X113447553Y-83284501D01*
X113553996Y-83137994D01*
X113636211Y-82976639D01*
X113692171Y-82804409D01*
X113720500Y-82625546D01*
X113720500Y-82444454D01*
X113692171Y-82265591D01*
X113692169Y-82265585D01*
X113692168Y-82265580D01*
X113636214Y-82093369D01*
X113636212Y-82093365D01*
X113636211Y-82093361D01*
X113553996Y-81932006D01*
X113518515Y-81883170D01*
X113447561Y-81785509D01*
X113447556Y-81785503D01*
X113447553Y-81785499D01*
X113319501Y-81657447D01*
X113319497Y-81657444D01*
X113319490Y-81657438D01*
X113172998Y-81551007D01*
X113172994Y-81551004D01*
X113011639Y-81468789D01*
X113011630Y-81468785D01*
X112839419Y-81412831D01*
X112839405Y-81412828D01*
X112714519Y-81393048D01*
X112660546Y-81384500D01*
X112479454Y-81384500D01*
X112437992Y-81391066D01*
X112300594Y-81412828D01*
X112300580Y-81412831D01*
X112128369Y-81468785D01*
X112128360Y-81468789D01*
X112042885Y-81512341D01*
X111967006Y-81551004D01*
X111967003Y-81551005D01*
X111967001Y-81551007D01*
X111820509Y-81657438D01*
X111820494Y-81657451D01*
X111692451Y-81785494D01*
X111692438Y-81785509D01*
X111586007Y-81932001D01*
X111503789Y-82093360D01*
X111503785Y-82093369D01*
X111447831Y-82265580D01*
X111447828Y-82265594D01*
X111419500Y-82444454D01*
X110650500Y-82444454D01*
X110650500Y-79904454D01*
X111419500Y-79904454D01*
X111419500Y-80085545D01*
X111447828Y-80264405D01*
X111447831Y-80264419D01*
X111503785Y-80436630D01*
X111503789Y-80436639D01*
X111586004Y-80597994D01*
X111586007Y-80597998D01*
X111692438Y-80744490D01*
X111692444Y-80744497D01*
X111692447Y-80744501D01*
X111820499Y-80872553D01*
X111820503Y-80872556D01*
X111820509Y-80872561D01*
X111918170Y-80943515D01*
X111967006Y-80978996D01*
X112128361Y-81061211D01*
X112128365Y-81061212D01*
X112128369Y-81061214D01*
X112300580Y-81117168D01*
X112300585Y-81117169D01*
X112300591Y-81117171D01*
X112479454Y-81145500D01*
X112479455Y-81145500D01*
X112660545Y-81145500D01*
X112660546Y-81145500D01*
X112839409Y-81117171D01*
X112839416Y-81117168D01*
X112839419Y-81117168D01*
X113011630Y-81061214D01*
X113011630Y-81061213D01*
X113011639Y-81061211D01*
X113172994Y-80978996D01*
X113319501Y-80872553D01*
X113447553Y-80744501D01*
X113553996Y-80597994D01*
X113636211Y-80436639D01*
X113692171Y-80264409D01*
X113720500Y-80085546D01*
X113720500Y-79904454D01*
X113692171Y-79725591D01*
X113692169Y-79725585D01*
X113692168Y-79725580D01*
X113636214Y-79553369D01*
X113636212Y-79553365D01*
X113636211Y-79553361D01*
X113553996Y-79392006D01*
X113518515Y-79343170D01*
X113447561Y-79245509D01*
X113447556Y-79245503D01*
X113447553Y-79245499D01*
X113319501Y-79117447D01*
X113319497Y-79117444D01*
X113319490Y-79117438D01*
X113172998Y-79011007D01*
X113172994Y-79011004D01*
X113011639Y-78928789D01*
X113011630Y-78928785D01*
X112839419Y-78872831D01*
X112839405Y-78872828D01*
X112714519Y-78853048D01*
X112660546Y-78844500D01*
X112479454Y-78844500D01*
X112437992Y-78851066D01*
X112300594Y-78872828D01*
X112300580Y-78872831D01*
X112128369Y-78928785D01*
X112128360Y-78928789D01*
X112042885Y-78972341D01*
X111967006Y-79011004D01*
X111967003Y-79011005D01*
X111967001Y-79011007D01*
X111820509Y-79117438D01*
X111820494Y-79117451D01*
X111692451Y-79245494D01*
X111692438Y-79245509D01*
X111586007Y-79392001D01*
X111503789Y-79553360D01*
X111503785Y-79553369D01*
X111447831Y-79725580D01*
X111447828Y-79725594D01*
X111419500Y-79904454D01*
X110650500Y-79904454D01*
X110650500Y-77364454D01*
X111419500Y-77364454D01*
X111419500Y-77545545D01*
X111447828Y-77724405D01*
X111447831Y-77724419D01*
X111503785Y-77896630D01*
X111503789Y-77896639D01*
X111586004Y-78057994D01*
X111586007Y-78057998D01*
X111692438Y-78204490D01*
X111692444Y-78204497D01*
X111692447Y-78204501D01*
X111820499Y-78332553D01*
X111820503Y-78332556D01*
X111820509Y-78332561D01*
X111918170Y-78403515D01*
X111967006Y-78438996D01*
X112128361Y-78521211D01*
X112128365Y-78521212D01*
X112128369Y-78521214D01*
X112300580Y-78577168D01*
X112300585Y-78577169D01*
X112300591Y-78577171D01*
X112479454Y-78605500D01*
X112479455Y-78605500D01*
X112660545Y-78605500D01*
X112660546Y-78605500D01*
X112839409Y-78577171D01*
X112839416Y-78577168D01*
X112839419Y-78577168D01*
X113011630Y-78521214D01*
X113011630Y-78521213D01*
X113011639Y-78521211D01*
X113172994Y-78438996D01*
X113319501Y-78332553D01*
X113447553Y-78204501D01*
X113553996Y-78057994D01*
X113636211Y-77896639D01*
X113692171Y-77724409D01*
X113720500Y-77545546D01*
X113720500Y-77364454D01*
X113692171Y-77185591D01*
X113692169Y-77185585D01*
X113692168Y-77185580D01*
X113636214Y-77013369D01*
X113636212Y-77013365D01*
X113636211Y-77013361D01*
X113553996Y-76852006D01*
X113518515Y-76803170D01*
X113447561Y-76705509D01*
X113447556Y-76705503D01*
X113447553Y-76705499D01*
X113319501Y-76577447D01*
X113319497Y-76577444D01*
X113319490Y-76577438D01*
X113172998Y-76471007D01*
X113172994Y-76471004D01*
X113011639Y-76388789D01*
X113011630Y-76388785D01*
X112839419Y-76332831D01*
X112839405Y-76332828D01*
X112714519Y-76313048D01*
X112660546Y-76304500D01*
X112479454Y-76304500D01*
X112437992Y-76311066D01*
X112300594Y-76332828D01*
X112300580Y-76332831D01*
X112128369Y-76388785D01*
X112128360Y-76388789D01*
X112045504Y-76431007D01*
X111967006Y-76471004D01*
X111967003Y-76471005D01*
X111967001Y-76471007D01*
X111820509Y-76577438D01*
X111820494Y-76577451D01*
X111692451Y-76705494D01*
X111692438Y-76705509D01*
X111586007Y-76852001D01*
X111503789Y-77013360D01*
X111503785Y-77013369D01*
X111447831Y-77185580D01*
X111447828Y-77185594D01*
X111419500Y-77364454D01*
X110650500Y-77364454D01*
X110650500Y-74824454D01*
X111419500Y-74824454D01*
X111419500Y-75005545D01*
X111447828Y-75184405D01*
X111447831Y-75184419D01*
X111503785Y-75356630D01*
X111503789Y-75356639D01*
X111586004Y-75517994D01*
X111586007Y-75517998D01*
X111692438Y-75664490D01*
X111692444Y-75664497D01*
X111692447Y-75664501D01*
X111820499Y-75792553D01*
X111820503Y-75792556D01*
X111820509Y-75792561D01*
X111918170Y-75863515D01*
X111967006Y-75898996D01*
X112128361Y-75981211D01*
X112128365Y-75981212D01*
X112128369Y-75981214D01*
X112300580Y-76037168D01*
X112300585Y-76037169D01*
X112300591Y-76037171D01*
X112479454Y-76065500D01*
X112479455Y-76065500D01*
X112660545Y-76065500D01*
X112660546Y-76065500D01*
X112839409Y-76037171D01*
X112839416Y-76037168D01*
X112839419Y-76037168D01*
X113011630Y-75981214D01*
X113011630Y-75981213D01*
X113011639Y-75981211D01*
X113172994Y-75898996D01*
X113319501Y-75792553D01*
X113447553Y-75664501D01*
X113553996Y-75517994D01*
X113636211Y-75356639D01*
X113692171Y-75184409D01*
X113720500Y-75005546D01*
X113720500Y-74824454D01*
X113692171Y-74645591D01*
X113692169Y-74645585D01*
X113692168Y-74645580D01*
X113636214Y-74473369D01*
X113636212Y-74473365D01*
X113636211Y-74473361D01*
X113553996Y-74312006D01*
X113518515Y-74263170D01*
X113447561Y-74165509D01*
X113447556Y-74165503D01*
X113447553Y-74165499D01*
X113319501Y-74037447D01*
X113319497Y-74037444D01*
X113319490Y-74037438D01*
X113172998Y-73931007D01*
X113172994Y-73931004D01*
X113011639Y-73848789D01*
X113011630Y-73848785D01*
X112839419Y-73792831D01*
X112839405Y-73792828D01*
X112714519Y-73773048D01*
X112660546Y-73764500D01*
X112479454Y-73764500D01*
X112437992Y-73771066D01*
X112300594Y-73792828D01*
X112300580Y-73792831D01*
X112128369Y-73848785D01*
X112128360Y-73848789D01*
X112042885Y-73892341D01*
X111967006Y-73931004D01*
X111967003Y-73931005D01*
X111967001Y-73931007D01*
X111820509Y-74037438D01*
X111820494Y-74037451D01*
X111692451Y-74165494D01*
X111692438Y-74165509D01*
X111586007Y-74312001D01*
X111503789Y-74473360D01*
X111503785Y-74473369D01*
X111447831Y-74645580D01*
X111447828Y-74645594D01*
X111419500Y-74824454D01*
X110650500Y-74824454D01*
X110650500Y-72284454D01*
X111419500Y-72284454D01*
X111419500Y-72465545D01*
X111447828Y-72644405D01*
X111447831Y-72644419D01*
X111503785Y-72816630D01*
X111503789Y-72816639D01*
X111586004Y-72977994D01*
X111586007Y-72977998D01*
X111692438Y-73124490D01*
X111692444Y-73124497D01*
X111692447Y-73124501D01*
X111820499Y-73252553D01*
X111820503Y-73252556D01*
X111820509Y-73252561D01*
X111918170Y-73323515D01*
X111967006Y-73358996D01*
X112128361Y-73441211D01*
X112128365Y-73441212D01*
X112128369Y-73441214D01*
X112300580Y-73497168D01*
X112300585Y-73497169D01*
X112300591Y-73497171D01*
X112479454Y-73525500D01*
X112479455Y-73525500D01*
X112660545Y-73525500D01*
X112660546Y-73525500D01*
X112839409Y-73497171D01*
X112839416Y-73497168D01*
X112839419Y-73497168D01*
X113011630Y-73441214D01*
X113011630Y-73441213D01*
X113011639Y-73441211D01*
X113172994Y-73358996D01*
X113319501Y-73252553D01*
X113447553Y-73124501D01*
X113553996Y-72977994D01*
X113636211Y-72816639D01*
X113692171Y-72644409D01*
X113720500Y-72465546D01*
X113720500Y-72284454D01*
X113692171Y-72105591D01*
X113692169Y-72105585D01*
X113692168Y-72105580D01*
X113636214Y-71933369D01*
X113636212Y-71933365D01*
X113636211Y-71933361D01*
X113553996Y-71772006D01*
X113518515Y-71723170D01*
X113447561Y-71625509D01*
X113447556Y-71625503D01*
X113447553Y-71625499D01*
X113319501Y-71497447D01*
X113319497Y-71497444D01*
X113319490Y-71497438D01*
X113172998Y-71391007D01*
X113172994Y-71391004D01*
X113011639Y-71308789D01*
X113011630Y-71308785D01*
X112839419Y-71252831D01*
X112839405Y-71252828D01*
X112714519Y-71233048D01*
X112660546Y-71224500D01*
X112479454Y-71224500D01*
X112437992Y-71231066D01*
X112300594Y-71252828D01*
X112300580Y-71252831D01*
X112128369Y-71308785D01*
X112128360Y-71308789D01*
X112042885Y-71352341D01*
X111967006Y-71391004D01*
X111967003Y-71391005D01*
X111967001Y-71391007D01*
X111820509Y-71497438D01*
X111820494Y-71497451D01*
X111692451Y-71625494D01*
X111692438Y-71625509D01*
X111586007Y-71772001D01*
X111503789Y-71933360D01*
X111503785Y-71933369D01*
X111447831Y-72105580D01*
X111447828Y-72105594D01*
X111419500Y-72284454D01*
X110650500Y-72284454D01*
X110650500Y-69744454D01*
X111419500Y-69744454D01*
X111419500Y-69925545D01*
X111447828Y-70104405D01*
X111447831Y-70104419D01*
X111503785Y-70276630D01*
X111503789Y-70276639D01*
X111586004Y-70437994D01*
X111586007Y-70437998D01*
X111692438Y-70584490D01*
X111692444Y-70584497D01*
X111692447Y-70584501D01*
X111820499Y-70712553D01*
X111820503Y-70712556D01*
X111820509Y-70712561D01*
X111918170Y-70783515D01*
X111967006Y-70818996D01*
X112128361Y-70901211D01*
X112128365Y-70901212D01*
X112128369Y-70901214D01*
X112300580Y-70957168D01*
X112300585Y-70957169D01*
X112300591Y-70957171D01*
X112479454Y-70985500D01*
X112479455Y-70985500D01*
X112660545Y-70985500D01*
X112660546Y-70985500D01*
X112839409Y-70957171D01*
X112839416Y-70957168D01*
X112839419Y-70957168D01*
X113011630Y-70901214D01*
X113011630Y-70901213D01*
X113011639Y-70901211D01*
X113172994Y-70818996D01*
X113319501Y-70712553D01*
X113447553Y-70584501D01*
X113553996Y-70437994D01*
X113636211Y-70276639D01*
X113692171Y-70104409D01*
X113720500Y-69925546D01*
X113720500Y-69744454D01*
X113692171Y-69565591D01*
X113692169Y-69565585D01*
X113692168Y-69565580D01*
X113636214Y-69393369D01*
X113636212Y-69393365D01*
X113636211Y-69393361D01*
X113553996Y-69232006D01*
X113518515Y-69183170D01*
X113447561Y-69085509D01*
X113447556Y-69085503D01*
X113447553Y-69085499D01*
X113319501Y-68957447D01*
X113319497Y-68957444D01*
X113319490Y-68957438D01*
X113172998Y-68851007D01*
X113172994Y-68851004D01*
X113011639Y-68768789D01*
X113011630Y-68768785D01*
X112839419Y-68712831D01*
X112839405Y-68712828D01*
X112714519Y-68693048D01*
X112660546Y-68684500D01*
X112479454Y-68684500D01*
X112437992Y-68691066D01*
X112300594Y-68712828D01*
X112300580Y-68712831D01*
X112128369Y-68768785D01*
X112128360Y-68768789D01*
X112042885Y-68812341D01*
X111967006Y-68851004D01*
X111967003Y-68851005D01*
X111967001Y-68851007D01*
X111820509Y-68957438D01*
X111820494Y-68957451D01*
X111692451Y-69085494D01*
X111692438Y-69085509D01*
X111586007Y-69232001D01*
X111503789Y-69393360D01*
X111503785Y-69393369D01*
X111447831Y-69565580D01*
X111447828Y-69565594D01*
X111419500Y-69744454D01*
X110650500Y-69744454D01*
X110650500Y-67204454D01*
X111419500Y-67204454D01*
X111419500Y-67385545D01*
X111447828Y-67564405D01*
X111447831Y-67564419D01*
X111503785Y-67736630D01*
X111503789Y-67736639D01*
X111586004Y-67897994D01*
X111586007Y-67897998D01*
X111692438Y-68044490D01*
X111692444Y-68044497D01*
X111692447Y-68044501D01*
X111820499Y-68172553D01*
X111820503Y-68172556D01*
X111820509Y-68172561D01*
X111918170Y-68243515D01*
X111967006Y-68278996D01*
X112128361Y-68361211D01*
X112128365Y-68361212D01*
X112128369Y-68361214D01*
X112300580Y-68417168D01*
X112300585Y-68417169D01*
X112300591Y-68417171D01*
X112479454Y-68445500D01*
X112479455Y-68445500D01*
X112660545Y-68445500D01*
X112660546Y-68445500D01*
X112839409Y-68417171D01*
X112839416Y-68417168D01*
X112839419Y-68417168D01*
X113011630Y-68361214D01*
X113011630Y-68361213D01*
X113011639Y-68361211D01*
X113172994Y-68278996D01*
X113319501Y-68172553D01*
X113447553Y-68044501D01*
X113553996Y-67897994D01*
X113636211Y-67736639D01*
X113663115Y-67653836D01*
X113692168Y-67564419D01*
X113692168Y-67564416D01*
X113692171Y-67564409D01*
X113720500Y-67385546D01*
X113720500Y-67204454D01*
X113692171Y-67025591D01*
X113692169Y-67025585D01*
X113692168Y-67025580D01*
X113636214Y-66853369D01*
X113636212Y-66853365D01*
X113636211Y-66853361D01*
X113553996Y-66692006D01*
X113521177Y-66646834D01*
X113488301Y-66601583D01*
X120684500Y-66601583D01*
X120684500Y-66798416D01*
X120715290Y-66992822D01*
X120715292Y-66992832D01*
X120776117Y-67180029D01*
X120865474Y-67355402D01*
X120981163Y-67514635D01*
X120981169Y-67514642D01*
X120981172Y-67514646D01*
X121120354Y-67653828D01*
X121120358Y-67653831D01*
X121120364Y-67653836D01*
X121149914Y-67675305D01*
X121279595Y-67769524D01*
X121279597Y-67769525D01*
X121454970Y-67858882D01*
X121454972Y-67858882D01*
X121454975Y-67858884D01*
X121513962Y-67878050D01*
X121642167Y-67919707D01*
X121642169Y-67919707D01*
X121642174Y-67919709D01*
X121836583Y-67950500D01*
X121836584Y-67950500D01*
X122033416Y-67950500D01*
X122033417Y-67950500D01*
X122227826Y-67919709D01*
X122415025Y-67858884D01*
X122590405Y-67769524D01*
X122749646Y-67653828D01*
X122888828Y-67514646D01*
X123004524Y-67355405D01*
X123068492Y-67229858D01*
X123109764Y-67191372D01*
X123166120Y-67188418D01*
X123211190Y-67222380D01*
X123224500Y-67267313D01*
X123224500Y-67581513D01*
X123239354Y-67675305D01*
X123287362Y-67769525D01*
X123296950Y-67788342D01*
X123386658Y-67878050D01*
X123499696Y-67935646D01*
X123499699Y-67935647D01*
X123535719Y-67941351D01*
X123593481Y-67950500D01*
X125356518Y-67950499D01*
X125450304Y-67935646D01*
X125563342Y-67878050D01*
X125653050Y-67788342D01*
X125710646Y-67675304D01*
X125725500Y-67581519D01*
X125725499Y-65818482D01*
X125710646Y-65724696D01*
X125653050Y-65611658D01*
X125563342Y-65521950D01*
X125563340Y-65521949D01*
X125563339Y-65521948D01*
X125450305Y-65464354D01*
X125450300Y-65464352D01*
X125356519Y-65449500D01*
X123593486Y-65449500D01*
X123499694Y-65464354D01*
X123386660Y-65521948D01*
X123386656Y-65521951D01*
X123296951Y-65611656D01*
X123296948Y-65611660D01*
X123239354Y-65724694D01*
X123239352Y-65724699D01*
X123224500Y-65818480D01*
X123224500Y-66132685D01*
X123205199Y-66185715D01*
X123156326Y-66213932D01*
X123100750Y-66204132D01*
X123068492Y-66170139D01*
X123004525Y-66044597D01*
X122888836Y-65885364D01*
X122888831Y-65885358D01*
X122888828Y-65885354D01*
X122749646Y-65746172D01*
X122749642Y-65746169D01*
X122749635Y-65746163D01*
X122590402Y-65630474D01*
X122415029Y-65541117D01*
X122227832Y-65480292D01*
X122227822Y-65480290D01*
X122092081Y-65458791D01*
X122033417Y-65449500D01*
X121836583Y-65449500D01*
X121791517Y-65456637D01*
X121642177Y-65480290D01*
X121642167Y-65480292D01*
X121454970Y-65541117D01*
X121279597Y-65630474D01*
X121120364Y-65746163D01*
X121120349Y-65746176D01*
X120981176Y-65885349D01*
X120981163Y-65885364D01*
X120865474Y-66044597D01*
X120776117Y-66219970D01*
X120715292Y-66407167D01*
X120715290Y-66407177D01*
X120684500Y-66601583D01*
X113488301Y-66601583D01*
X113447561Y-66545509D01*
X113447556Y-66545503D01*
X113447553Y-66545499D01*
X113319501Y-66417447D01*
X113319497Y-66417444D01*
X113319490Y-66417438D01*
X113172998Y-66311007D01*
X113172994Y-66311004D01*
X113011639Y-66228789D01*
X113011630Y-66228785D01*
X112839419Y-66172831D01*
X112839405Y-66172828D01*
X112714519Y-66153048D01*
X112660546Y-66144500D01*
X112479454Y-66144500D01*
X112437992Y-66151066D01*
X112300594Y-66172828D01*
X112300580Y-66172831D01*
X112128369Y-66228785D01*
X112128360Y-66228789D01*
X112042885Y-66272341D01*
X111967006Y-66311004D01*
X111967003Y-66311005D01*
X111967001Y-66311007D01*
X111820509Y-66417438D01*
X111820494Y-66417451D01*
X111692451Y-66545494D01*
X111692438Y-66545509D01*
X111586007Y-66692001D01*
X111503789Y-66853360D01*
X111503785Y-66853369D01*
X111447831Y-67025580D01*
X111447828Y-67025594D01*
X111419500Y-67204454D01*
X110650500Y-67204454D01*
X110650500Y-63973480D01*
X111419500Y-63973480D01*
X111419500Y-65536513D01*
X111434354Y-65630305D01*
X111491948Y-65743339D01*
X111491950Y-65743342D01*
X111581658Y-65833050D01*
X111694696Y-65890646D01*
X111694699Y-65890647D01*
X111730719Y-65896351D01*
X111788481Y-65905500D01*
X113351518Y-65905499D01*
X113445304Y-65890646D01*
X113558342Y-65833050D01*
X113648050Y-65743342D01*
X113705646Y-65630304D01*
X113720500Y-65536519D01*
X113720499Y-64664454D01*
X134279500Y-64664454D01*
X134279500Y-64845545D01*
X134307828Y-65024405D01*
X134307831Y-65024419D01*
X134363785Y-65196630D01*
X134363789Y-65196639D01*
X134446004Y-65357994D01*
X134446007Y-65357998D01*
X134552438Y-65504490D01*
X134552444Y-65504497D01*
X134552447Y-65504501D01*
X134680499Y-65632553D01*
X134680503Y-65632556D01*
X134680509Y-65632561D01*
X134778170Y-65703515D01*
X134827006Y-65738996D01*
X134988361Y-65821211D01*
X134988365Y-65821212D01*
X134988369Y-65821214D01*
X135160580Y-65877168D01*
X135160585Y-65877169D01*
X135160591Y-65877171D01*
X135339454Y-65905500D01*
X135339455Y-65905500D01*
X135520545Y-65905500D01*
X135520546Y-65905500D01*
X135699409Y-65877171D01*
X135699416Y-65877168D01*
X135699419Y-65877168D01*
X135871630Y-65821214D01*
X135871630Y-65821213D01*
X135871639Y-65821211D01*
X136032994Y-65738996D01*
X136179501Y-65632553D01*
X136307553Y-65504501D01*
X136413996Y-65357994D01*
X136496211Y-65196639D01*
X136552171Y-65024409D01*
X136580500Y-64845546D01*
X136580500Y-64664454D01*
X136552171Y-64485591D01*
X136552169Y-64485585D01*
X136552168Y-64485580D01*
X136496214Y-64313369D01*
X136496212Y-64313365D01*
X136496211Y-64313361D01*
X136413996Y-64152006D01*
X136378515Y-64103170D01*
X136307561Y-64005509D01*
X136307556Y-64005503D01*
X136307553Y-64005499D01*
X136179501Y-63877447D01*
X136179497Y-63877444D01*
X136179490Y-63877438D01*
X136032998Y-63771007D01*
X136032994Y-63771004D01*
X135871639Y-63688789D01*
X135871630Y-63688785D01*
X135699419Y-63632831D01*
X135699405Y-63632828D01*
X135574519Y-63613048D01*
X135520546Y-63604500D01*
X135339454Y-63604500D01*
X135297992Y-63611066D01*
X135160594Y-63632828D01*
X135160580Y-63632831D01*
X134988369Y-63688785D01*
X134988360Y-63688789D01*
X134902885Y-63732341D01*
X134827006Y-63771004D01*
X134827003Y-63771005D01*
X134827001Y-63771007D01*
X134680509Y-63877438D01*
X134680494Y-63877451D01*
X134552451Y-64005494D01*
X134552438Y-64005509D01*
X134446007Y-64152001D01*
X134363789Y-64313360D01*
X134363785Y-64313369D01*
X134307831Y-64485580D01*
X134307828Y-64485594D01*
X134279500Y-64664454D01*
X113720499Y-64664454D01*
X113720499Y-63973482D01*
X113705646Y-63879696D01*
X113704495Y-63877438D01*
X113648051Y-63766660D01*
X113648050Y-63766658D01*
X113558342Y-63676950D01*
X113558340Y-63676949D01*
X113558339Y-63676948D01*
X113445305Y-63619354D01*
X113445300Y-63619352D01*
X113351519Y-63604500D01*
X111788486Y-63604500D01*
X111694694Y-63619354D01*
X111581660Y-63676948D01*
X111581656Y-63676951D01*
X111491951Y-63766656D01*
X111491948Y-63766660D01*
X111434354Y-63879694D01*
X111434352Y-63879699D01*
X111419500Y-63973480D01*
X110650500Y-63973480D01*
X110650500Y-63305405D01*
X110651206Y-63294637D01*
X110664398Y-63194431D01*
X110669972Y-63173627D01*
X110706567Y-63085278D01*
X110717329Y-63066639D01*
X110775550Y-62990764D01*
X110790764Y-62975550D01*
X110866639Y-62917329D01*
X110885278Y-62906567D01*
X110973628Y-62869971D01*
X110994430Y-62864398D01*
X111094637Y-62851205D01*
X111105405Y-62850500D01*
X111155514Y-62850500D01*
X136844486Y-62850500D01*
X136894595Y-62850500D01*
X136905363Y-62851206D01*
G37*
%TD.AperFunction*%
%TD*%
M02*
