%TF.GenerationSoftware,KiCad,Pcbnew,9.0.0*%
%TF.CreationDate,2026-03-10T14:32:51+01:00*%
%TF.ProjectId,ESP32_Shield,45535033-325f-4536-9869-656c642e6b69,rev?*%
%TF.SameCoordinates,Original*%
%TF.FileFunction,Paste,Top*%
%TF.FilePolarity,Positive*%
%FSLAX46Y46*%
G04 Gerber Fmt 4.6, Leading zero omitted, Abs format (unit mm)*
G04 Created by KiCad (PCBNEW 9.0.0) date 2026-03-10 14:32:51*
%MOMM*%
%LPD*%
G01*
G04 APERTURE LIST*
G04 Aperture macros list*
%AMRoundRect*
0 Rectangle with rounded corners*
0 $1 Rounding radius*
0 $2 $3 $4 $5 $6 $7 $8 $9 X,Y pos of 4 corners*
0 Add a 4 corners polygon primitive as box body*
4,1,4,$2,$3,$4,$5,$6,$7,$8,$9,$2,$3,0*
0 Add four circle primitives for the rounded corners*
1,1,$1+$1,$2,$3*
1,1,$1+$1,$4,$5*
1,1,$1+$1,$6,$7*
1,1,$1+$1,$8,$9*
0 Add four rect primitives between the rounded corners*
20,1,$1+$1,$2,$3,$4,$5,0*
20,1,$1+$1,$4,$5,$6,$7,0*
20,1,$1+$1,$6,$7,$8,$9,0*
20,1,$1+$1,$8,$9,$2,$3,0*%
%AMFreePoly0*
4,1,6,0.450000,-0.800000,-0.450000,-0.800000,-0.450000,0.530000,-0.180000,0.800000,0.450000,0.800000,0.450000,-0.800000,0.450000,-0.800000,$1*%
G04 Aperture macros list end*
%ADD10RoundRect,0.237500X-0.300000X-0.237500X0.300000X-0.237500X0.300000X0.237500X-0.300000X0.237500X0*%
%ADD11RoundRect,0.250000X-0.390000X0.300000X-0.390000X-0.300000X0.390000X-0.300000X0.390000X0.300000X0*%
%ADD12RoundRect,0.100000X-0.100000X0.637500X-0.100000X-0.637500X0.100000X-0.637500X0.100000X0.637500X0*%
%ADD13RoundRect,0.237500X-0.237500X0.250000X-0.237500X-0.250000X0.237500X-0.250000X0.237500X0.250000X0*%
%ADD14RoundRect,0.237500X-0.237500X0.300000X-0.237500X-0.300000X0.237500X-0.300000X0.237500X0.300000X0*%
%ADD15RoundRect,0.237500X0.250000X0.237500X-0.250000X0.237500X-0.250000X-0.237500X0.250000X-0.237500X0*%
%ADD16RoundRect,0.150000X0.150000X-0.587500X0.150000X0.587500X-0.150000X0.587500X-0.150000X-0.587500X0*%
%ADD17RoundRect,0.150000X-0.150000X0.587500X-0.150000X-0.587500X0.150000X-0.587500X0.150000X0.587500X0*%
%ADD18RoundRect,0.237500X-0.250000X-0.237500X0.250000X-0.237500X0.250000X0.237500X-0.250000X0.237500X0*%
%ADD19FreePoly0,180.000000*%
%ADD20R,0.550000X0.250000*%
%ADD21RoundRect,0.237500X0.300000X0.237500X-0.300000X0.237500X-0.300000X-0.237500X0.300000X-0.237500X0*%
G04 APERTURE END LIST*
D10*
%TO.C,C1*%
X128237500Y-90100000D03*
X129962500Y-90100000D03*
%TD*%
D11*
%TO.C,U6*%
X126960000Y-94477500D03*
X125380000Y-94477500D03*
X123800000Y-94477500D03*
X126960000Y-95847500D03*
X125380000Y-95847500D03*
X123800000Y-95847500D03*
D12*
X129605000Y-92300000D03*
X128955000Y-92300000D03*
X128305000Y-92300000D03*
X127655000Y-92300000D03*
X127005000Y-92300000D03*
X126355000Y-92300000D03*
X125705000Y-92300000D03*
X125055000Y-92300000D03*
X124405000Y-92300000D03*
X123755000Y-92300000D03*
X123105000Y-92300000D03*
X122455000Y-92300000D03*
X121805000Y-92300000D03*
X121155000Y-92300000D03*
X121155000Y-98025000D03*
X121805000Y-98025000D03*
X122455000Y-98025000D03*
X123105000Y-98025000D03*
X123755000Y-98025000D03*
X124405000Y-98025000D03*
X125055000Y-98025000D03*
X125705000Y-98025000D03*
X126355000Y-98025000D03*
X127005000Y-98025000D03*
X127655000Y-98025000D03*
X128305000Y-98025000D03*
X128955000Y-98025000D03*
X129605000Y-98025000D03*
%TD*%
D13*
%TO.C,R14*%
X117300000Y-82687500D03*
X117300000Y-84512500D03*
%TD*%
D14*
%TO.C,C14*%
X123500000Y-82637500D03*
X123500000Y-84362500D03*
%TD*%
D15*
%TO.C,R22*%
X116925000Y-91500000D03*
X115100000Y-91500000D03*
%TD*%
D16*
%TO.C,Q1*%
X117300000Y-79687500D03*
X119200000Y-79687500D03*
X118250000Y-77812500D03*
%TD*%
D15*
%TO.C,R13*%
X128912500Y-71000000D03*
X127087500Y-71000000D03*
%TD*%
%TO.C,R18*%
X128912500Y-73900000D03*
X127087500Y-73900000D03*
%TD*%
D17*
%TO.C,Q4*%
X117850000Y-94662500D03*
X115950000Y-94662500D03*
X116900000Y-96537500D03*
%TD*%
D10*
%TO.C,C12*%
X122937500Y-89400000D03*
X124662500Y-89400000D03*
%TD*%
D18*
%TO.C,R21*%
X117337500Y-75500000D03*
X119162500Y-75500000D03*
%TD*%
D16*
%TO.C,Q3*%
X117300000Y-72187500D03*
X119200000Y-72187500D03*
X118250000Y-70312500D03*
%TD*%
D19*
%TO.C,U7*%
X123075000Y-72500000D03*
D20*
X124250000Y-73250000D03*
X124250000Y-72750000D03*
X124250000Y-72250000D03*
X124250000Y-71750000D03*
X121900000Y-71750000D03*
X121900000Y-72250000D03*
X121900000Y-72750000D03*
X121900000Y-73250000D03*
%TD*%
D10*
%TO.C,C15*%
X127137500Y-77000000D03*
X128862500Y-77000000D03*
%TD*%
D13*
%TO.C,R15*%
X120500000Y-82687500D03*
X120500000Y-84512500D03*
%TD*%
D21*
%TO.C,C13*%
X127249308Y-100056391D03*
X125524308Y-100056391D03*
%TD*%
M02*
