%TF.GenerationSoftware,KiCad,Pcbnew,9.0.0*%
%TF.CreationDate,2026-03-10T14:32:51+01:00*%
%TF.ProjectId,ESP32_Shield,45535033-325f-4536-9869-656c642e6b69,rev?*%
%TF.SameCoordinates,Original*%
%TF.FileFunction,Copper,L1,Top*%
%TF.FilePolarity,Positive*%
%FSLAX46Y46*%
G04 Gerber Fmt 4.6, Leading zero omitted, Abs format (unit mm)*
G04 Created by KiCad (PCBNEW 9.0.0) date 2026-03-10 14:32:51*
%MOMM*%
%LPD*%
G01*
G04 APERTURE LIST*
G04 Aperture macros list*
%AMRoundRect*
0 Rectangle with rounded corners*
0 $1 Rounding radius*
0 $2 $3 $4 $5 $6 $7 $8 $9 X,Y pos of 4 corners*
0 Add a 4 corners polygon primitive as box body*
4,1,4,$2,$3,$4,$5,$6,$7,$8,$9,$2,$3,0*
0 Add four circle primitives for the rounded corners*
1,1,$1+$1,$2,$3*
1,1,$1+$1,$4,$5*
1,1,$1+$1,$6,$7*
1,1,$1+$1,$8,$9*
0 Add four rect primitives between the rounded corners*
20,1,$1+$1,$2,$3,$4,$5,0*
20,1,$1+$1,$4,$5,$6,$7,0*
20,1,$1+$1,$6,$7,$8,$9,0*
20,1,$1+$1,$8,$9,$2,$3,0*%
%AMFreePoly0*
4,1,6,0.500000,-0.850000,-0.500000,-0.850000,-0.500000,0.550000,-0.200000,0.850000,0.500000,0.850000,0.500000,-0.850000,0.500000,-0.850000,$1*%
G04 Aperture macros list end*
%TA.AperFunction,SMDPad,CuDef*%
%ADD10RoundRect,0.237500X-0.300000X-0.237500X0.300000X-0.237500X0.300000X0.237500X-0.300000X0.237500X0*%
%TD*%
%TA.AperFunction,SMDPad,CuDef*%
%ADD11RoundRect,0.100000X-0.100000X0.637500X-0.100000X-0.637500X0.100000X-0.637500X0.100000X0.637500X0*%
%TD*%
%TA.AperFunction,HeatsinkPad*%
%ADD12R,4.750000X2.740000*%
%TD*%
%TA.AperFunction,SMDPad,CuDef*%
%ADD13RoundRect,0.237500X-0.237500X0.250000X-0.237500X-0.250000X0.237500X-0.250000X0.237500X0.250000X0*%
%TD*%
%TA.AperFunction,ComponentPad*%
%ADD14R,1.700000X1.700000*%
%TD*%
%TA.AperFunction,ComponentPad*%
%ADD15O,1.700000X1.700000*%
%TD*%
%TA.AperFunction,SMDPad,CuDef*%
%ADD16RoundRect,0.237500X-0.237500X0.300000X-0.237500X-0.300000X0.237500X-0.300000X0.237500X0.300000X0*%
%TD*%
%TA.AperFunction,SMDPad,CuDef*%
%ADD17RoundRect,0.237500X0.250000X0.237500X-0.250000X0.237500X-0.250000X-0.237500X0.250000X-0.237500X0*%
%TD*%
%TA.AperFunction,ComponentPad*%
%ADD18C,1.700000*%
%TD*%
%TA.AperFunction,SMDPad,CuDef*%
%ADD19RoundRect,0.150000X0.150000X-0.587500X0.150000X0.587500X-0.150000X0.587500X-0.150000X-0.587500X0*%
%TD*%
%TA.AperFunction,SMDPad,CuDef*%
%ADD20RoundRect,0.150000X-0.150000X0.587500X-0.150000X-0.587500X0.150000X-0.587500X0.150000X0.587500X0*%
%TD*%
%TA.AperFunction,ComponentPad*%
%ADD21R,1.500000X1.500000*%
%TD*%
%TA.AperFunction,ComponentPad*%
%ADD22C,1.500000*%
%TD*%
%TA.AperFunction,SMDPad,CuDef*%
%ADD23RoundRect,0.237500X-0.250000X-0.237500X0.250000X-0.237500X0.250000X0.237500X-0.250000X0.237500X0*%
%TD*%
%TA.AperFunction,SMDPad,CuDef*%
%ADD24R,0.550000X0.250000*%
%TD*%
%TA.AperFunction,SMDPad,CuDef*%
%ADD25FreePoly0,180.000000*%
%TD*%
%TA.AperFunction,SMDPad,CuDef*%
%ADD26RoundRect,0.237500X0.300000X0.237500X-0.300000X0.237500X-0.300000X-0.237500X0.300000X-0.237500X0*%
%TD*%
%TA.AperFunction,ViaPad*%
%ADD27C,0.600000*%
%TD*%
%TA.AperFunction,Conductor*%
%ADD28C,0.200000*%
%TD*%
%TA.AperFunction,Conductor*%
%ADD29C,0.800000*%
%TD*%
%TA.AperFunction,Conductor*%
%ADD30C,0.400000*%
%TD*%
G04 APERTURE END LIST*
D10*
%TO.P,C1,1*%
%TO.N,GND*%
X128237500Y-90100000D03*
%TO.P,C1,2*%
%TO.N,Net-(ADC1-Pin_2)*%
X129962500Y-90100000D03*
%TD*%
D11*
%TO.P,U6,1,DVDD*%
%TO.N,Net-(ADC1-Pin_2)*%
X129605000Y-92300000D03*
%TO.P,U6,2,DGND*%
%TO.N,GND*%
X128955000Y-92300000D03*
%TO.P,U6,3,CLKIN/XTAL1*%
X128305000Y-92300000D03*
%TO.P,U6,4,XTAL2*%
%TO.N,unconnected-(U6-XTAL2-Pad4)*%
X127655000Y-92300000D03*
%TO.P,U6,5,DGND*%
%TO.N,GND*%
X127005000Y-92300000D03*
%TO.P,U6,6,DGND*%
X126355000Y-92300000D03*
%TO.P,U6,7,A1*%
X125705000Y-92300000D03*
%TO.P,U6,8,A0*%
X125055000Y-92300000D03*
%TO.P,U6,9,CAP*%
%TO.N,Net-(C12-Pad2)*%
X124405000Y-92300000D03*
%TO.P,U6,10,CAP*%
%TO.N,Net-(C12-Pad1)*%
X123755000Y-92300000D03*
%TO.P,U6,11,AINP1*%
%TO.N,Net-(J1-Pin_10)*%
X123105000Y-92300000D03*
%TO.P,U6,12,AINN1*%
%TO.N,Net-(J1-Pin_9)*%
X122455000Y-92300000D03*
%TO.P,U6,13,AINP3*%
%TO.N,Net-(J1-Pin_6)*%
X121805000Y-92300000D03*
%TO.P,U6,14,AINN3*%
%TO.N,Net-(J1-Pin_5)*%
X121155000Y-92300000D03*
%TO.P,U6,15,AINN4*%
%TO.N,Net-(J1-Pin_3)*%
X121155000Y-98025000D03*
%TO.P,U6,16,AINP4*%
%TO.N,Net-(J1-Pin_4)*%
X121805000Y-98025000D03*
%TO.P,U6,17,AINN2*%
%TO.N,Net-(J1-Pin_7)*%
X122455000Y-98025000D03*
%TO.P,U6,18,AINP2*%
%TO.N,Net-(J1-Pin_8)*%
X123105000Y-98025000D03*
%TO.P,U6,19,REFN*%
%TO.N,GND*%
X123755000Y-98025000D03*
%TO.P,U6,20,REFP*%
%TO.N,Net-(ADC1-Pin_2)*%
X124405000Y-98025000D03*
%TO.P,U6,21,AGND*%
%TO.N,GND*%
X125055000Y-98025000D03*
%TO.P,U6,22,AVDD*%
%TO.N,Net-(ADC1-Pin_2)*%
X125705000Y-98025000D03*
%TO.P,U6,23,GAIN0*%
X126355000Y-98025000D03*
%TO.P,U6,24,GAIN1*%
X127005000Y-98025000D03*
%TO.P,U6,25,SPEED*%
%TO.N,GND*%
X127655000Y-98025000D03*
%TO.P,U6,26,~{PWDN}*%
%TO.N,!PWDN*%
X128305000Y-98025000D03*
%TO.P,U6,27,SCLK*%
%TO.N,SCLK*%
X128955000Y-98025000D03*
%TO.P,U6,28,~{DRDY}/DOUT*%
%TO.N,D_RDY_OUT*%
X129605000Y-98025000D03*
D12*
%TO.P,U6,29*%
%TO.N,N/C*%
X125380000Y-95162500D03*
%TD*%
D13*
%TO.P,R14,1*%
%TO.N,Net-(Q3-D)*%
X117300000Y-82687500D03*
%TO.P,R14,2*%
%TO.N,bat_adc*%
X117300000Y-84512500D03*
%TD*%
D14*
%TO.P,ESP32,1,Pin_1*%
%TO.N,+5V*%
X122960000Y-110000000D03*
D15*
%TO.P,ESP32,2,Pin_2*%
%TO.N,Net-(ESP32-Pin_2)*%
X125500000Y-110000000D03*
%TD*%
D16*
%TO.P,C14,1*%
%TO.N,GND*%
X123500000Y-82637500D03*
%TO.P,C14,2*%
%TO.N,bat_adc*%
X123500000Y-84362500D03*
%TD*%
D17*
%TO.P,R22,1*%
%TO.N,!EN_DMS*%
X116925000Y-91500000D03*
%TO.P,R22,2*%
%TO.N,Net-(DMS1-Pin_2)*%
X115100000Y-91500000D03*
%TD*%
D14*
%TO.P,V_IN1,1,Pin_1*%
%TO.N,Net-(PWR1-Pin_1)*%
X112710000Y-116000000D03*
D18*
%TO.P,V_IN1,2,Pin_2*%
%TO.N,GND*%
X115250000Y-116000000D03*
%TD*%
D14*
%TO.P,ADC1,1,Pin_1*%
%TO.N,+3.3V*%
X128800000Y-86700000D03*
D15*
%TO.P,ADC1,2,Pin_2*%
%TO.N,Net-(ADC1-Pin_2)*%
X126260000Y-86700000D03*
%TD*%
D19*
%TO.P,Q1,1,G*%
%TO.N,en_meas*%
X117300000Y-79687500D03*
%TO.P,Q1,2,S*%
%TO.N,GND*%
X119200000Y-79687500D03*
%TO.P,Q1,3,D*%
%TO.N,Net-(Q1-D)*%
X118250000Y-77812500D03*
%TD*%
D14*
%TO.P,THRM1,1,Pin_1*%
%TO.N,+3.3V*%
X124475000Y-66700000D03*
D15*
%TO.P,THRM1,2,Pin_2*%
%TO.N,Net-(THRM1-Pin_2)*%
X121935000Y-66700000D03*
%TD*%
D17*
%TO.P,R13,1*%
%TO.N,SCL*%
X128912500Y-71000000D03*
%TO.P,R13,2*%
%TO.N,+3.3V*%
X127087500Y-71000000D03*
%TD*%
%TO.P,R18,1*%
%TO.N,SDA*%
X128912500Y-73900000D03*
%TO.P,R18,2*%
%TO.N,+3.3V*%
X127087500Y-73900000D03*
%TD*%
D14*
%TO.P,PWR1,1,Pin_1*%
%TO.N,Net-(PWR1-Pin_1)*%
X112700000Y-110000000D03*
D18*
%TO.P,PWR1,2,Pin_2*%
%TO.N,+5V*%
X115240000Y-110000000D03*
%TD*%
D20*
%TO.P,Q4,1,G*%
%TO.N,!EN_DMS*%
X117850000Y-94662500D03*
%TO.P,Q4,2,S*%
%TO.N,Net-(DMS1-Pin_2)*%
X115950000Y-94662500D03*
%TO.P,Q4,3,D*%
%TO.N,Net-(J1-Pin_2)*%
X116900000Y-96537500D03*
%TD*%
D10*
%TO.P,C12,1*%
%TO.N,Net-(C12-Pad1)*%
X122937500Y-89400000D03*
%TO.P,C12,2*%
%TO.N,Net-(C12-Pad2)*%
X124662500Y-89400000D03*
%TD*%
D14*
%TO.P,BAT1,1,Pin_1*%
%TO.N,+BATT*%
X132250000Y-110000000D03*
D18*
%TO.P,BAT1,2,Pin_2*%
%TO.N,GND*%
X134790000Y-110000000D03*
%TD*%
D21*
%TO.P,U2,1,EN*%
%TO.N,unconnected-(U2-EN-Pad1)*%
X112570000Y-64755000D03*
D22*
%TO.P,U2,2,IO36*%
%TO.N,unconnected-(U2-IO36-Pad2)*%
X112570000Y-67295000D03*
%TO.P,U2,3,IO39*%
%TO.N,unconnected-(U2-IO39-Pad3)*%
X112570000Y-69835000D03*
%TO.P,U2,4,IO39*%
%TO.N,unconnected-(U2-IO39-Pad4)*%
X112570000Y-72375000D03*
%TO.P,U2,5,IO34*%
%TO.N,unconnected-(U2-IO34-Pad5)*%
X112570000Y-74915000D03*
%TO.P,U2,6,IO35*%
%TO.N,unconnected-(U2-IO35-Pad6)*%
X112570000Y-77455000D03*
%TO.P,U2,7,IO32*%
%TO.N,unconnected-(U2-IO32-Pad7)*%
X112570000Y-79995000D03*
%TO.P,U2,8,IO33*%
%TO.N,MODE_PD*%
X112570000Y-82535000D03*
%TO.P,U2,9,IO26*%
%TO.N,!PWDN*%
X112570000Y-85075000D03*
%TO.P,U2,10,IO27*%
%TO.N,CS_Display*%
X112570000Y-87615000D03*
%TO.P,U2,11,IO14*%
%TO.N,SPI_CLK*%
X112570000Y-90155000D03*
%TO.P,U2,12,IO12*%
%TO.N,bat_adc*%
X112570000Y-92695000D03*
%TO.P,U2,13,IO13*%
%TO.N,TARA_PD*%
X112570000Y-95235000D03*
%TO.P,U2,14,GND*%
%TO.N,GND*%
X112570000Y-97775000D03*
%TO.P,U2,15,5V*%
%TO.N,Net-(ESP32-Pin_2)*%
X112570000Y-100315000D03*
%TO.P,U2,16,3V3*%
%TO.N,+3.3V*%
X135430000Y-100315000D03*
%TO.P,U2,17,GND*%
%TO.N,GND*%
X135430000Y-97775000D03*
%TO.P,U2,18,IO15*%
%TO.N,SCLK*%
X135430000Y-95235000D03*
%TO.P,U2,19,IO2*%
%TO.N,D_RDY_OUT*%
X135430000Y-92695000D03*
%TO.P,U2,20,IO4*%
%TO.N,unconnected-(U2-IO4-Pad20)*%
X135430000Y-90155000D03*
%TO.P,U2,21,IO16*%
%TO.N,unconnected-(U2-IO16-Pad21)*%
X135430000Y-87615000D03*
%TO.P,U2,22,IO17*%
%TO.N,!EN_DMS*%
X135430000Y-85075000D03*
%TO.P,U2,23,IO5*%
%TO.N,en_meas*%
X135430000Y-82535000D03*
%TO.P,U2,24,IO18*%
%TO.N,unconnected-(U2-IO18-Pad24)*%
X135430000Y-79995000D03*
%TO.P,U2,25,IO19*%
%TO.N,MISO*%
X135430000Y-77455000D03*
%TO.P,U2,26,IO21*%
%TO.N,SDA*%
X135430000Y-74915000D03*
%TO.P,U2,27,IO3*%
%TO.N,unconnected-(U2-IO3-Pad27)*%
X135430000Y-72375000D03*
%TO.P,U2,28,IO1*%
%TO.N,unconnected-(U2-IO1-Pad28)*%
X135430000Y-69835000D03*
%TO.P,U2,29,IO23*%
%TO.N,SCL*%
X135430000Y-67295000D03*
%TO.P,U2,30,IO23*%
%TO.N,MOSI*%
X135430000Y-64755000D03*
%TD*%
D23*
%TO.P,R21,1*%
%TO.N,Net-(Q1-D)*%
X117337500Y-75500000D03*
%TO.P,R21,2*%
%TO.N,+BATT*%
X119162500Y-75500000D03*
%TD*%
D19*
%TO.P,Q3,1,G*%
%TO.N,Net-(Q1-D)*%
X117300000Y-72187500D03*
%TO.P,Q3,2,S*%
%TO.N,+BATT*%
X119200000Y-72187500D03*
%TO.P,Q3,3,D*%
%TO.N,Net-(Q3-D)*%
X118250000Y-70312500D03*
%TD*%
D24*
%TO.P,U7,1,SDA*%
%TO.N,SDA*%
X124250000Y-73250000D03*
%TO.P,U7,2,ADDR*%
%TO.N,GND*%
X124250000Y-72750000D03*
%TO.P,U7,3,ALERT*%
%TO.N,unconnected-(U7-ALERT-Pad3)*%
X124250000Y-72250000D03*
%TO.P,U7,4,SCL*%
%TO.N,SCL*%
X124250000Y-71750000D03*
%TO.P,U7,5,VDD*%
%TO.N,Net-(THRM1-Pin_2)*%
X121900000Y-71750000D03*
%TO.P,U7,6,~{RESET}*%
%TO.N,unconnected-(U7-~{RESET}-Pad6)*%
X121900000Y-72250000D03*
%TO.P,U7,7,R*%
%TO.N,GND*%
X121900000Y-72750000D03*
%TO.P,U7,8,VSS*%
X121900000Y-73250000D03*
D25*
%TO.P,U7,9,VSS*%
X123075000Y-72500000D03*
%TD*%
D10*
%TO.P,C15,1*%
%TO.N,Net-(THRM1-Pin_2)*%
X127137500Y-77000000D03*
%TO.P,C15,2*%
%TO.N,GND*%
X128862500Y-77000000D03*
%TD*%
D13*
%TO.P,R15,1*%
%TO.N,GND*%
X120500000Y-82687500D03*
%TO.P,R15,2*%
%TO.N,bat_adc*%
X120500000Y-84512500D03*
%TD*%
D26*
%TO.P,C13,1*%
%TO.N,GND*%
X127249308Y-100056391D03*
%TO.P,C13,2*%
%TO.N,Net-(ADC1-Pin_2)*%
X125524308Y-100056391D03*
%TD*%
D14*
%TO.P,DMS1,1,Pin_1*%
%TO.N,+3.3V*%
X135275000Y-116000000D03*
D15*
%TO.P,DMS1,2,Pin_2*%
%TO.N,Net-(DMS1-Pin_2)*%
X132735000Y-116000000D03*
%TD*%
D14*
%TO.P,J1,1,Pin_1*%
%TO.N,GND*%
X112570000Y-104500000D03*
D18*
%TO.P,J1,2,Pin_2*%
%TO.N,Net-(J1-Pin_2)*%
X115110000Y-104500000D03*
%TO.P,J1,3,Pin_3*%
%TO.N,Net-(J1-Pin_3)*%
X117650000Y-104500000D03*
%TO.P,J1,4,Pin_4*%
%TO.N,Net-(J1-Pin_4)*%
X120190000Y-104500000D03*
%TO.P,J1,5,Pin_5*%
%TO.N,Net-(J1-Pin_5)*%
X122730000Y-104500000D03*
%TO.P,J1,6,Pin_6*%
%TO.N,Net-(J1-Pin_6)*%
X125270000Y-104500000D03*
%TO.P,J1,7,Pin_7*%
%TO.N,Net-(J1-Pin_7)*%
X127810000Y-104500000D03*
%TO.P,J1,8,Pin_8*%
%TO.N,Net-(J1-Pin_8)*%
X130350000Y-104500000D03*
%TO.P,J1,9,Pin_9*%
%TO.N,Net-(J1-Pin_9)*%
X132890000Y-104500000D03*
%TO.P,J1,10,Pin_10*%
%TO.N,Net-(J1-Pin_10)*%
X135430000Y-104500000D03*
%TD*%
D27*
%TO.N,+3.3V*%
X132250000Y-87250000D03*
X132250000Y-70200000D03*
X132250000Y-67800000D03*
X132250000Y-73100000D03*
%TO.N,GND*%
X119380000Y-116840000D03*
X114100000Y-93500000D03*
X136525000Y-86360000D03*
X126100000Y-81500000D03*
X123500000Y-81250000D03*
X121920000Y-113030000D03*
X118110000Y-87630000D03*
X125500000Y-70800000D03*
X120850000Y-72786657D03*
X131074357Y-86090564D03*
X125730000Y-75565000D03*
X123825000Y-79375000D03*
X114200000Y-87900000D03*
X118917966Y-102390703D03*
X118917966Y-100105075D03*
X129540000Y-113030000D03*
X113665000Y-78740000D03*
X128905000Y-65405000D03*
X129540000Y-78105000D03*
X111200000Y-96400000D03*
X136525000Y-93980000D03*
X130810000Y-76200000D03*
X111125000Y-73660000D03*
X119806238Y-97146283D03*
X113800000Y-106700000D03*
X113665000Y-76200000D03*
X136525000Y-88900000D03*
X126365000Y-63500000D03*
X113665000Y-71120000D03*
X127635000Y-79375000D03*
X125730000Y-79375000D03*
X128133220Y-91061039D03*
X112600000Y-102300000D03*
X128700000Y-81500000D03*
X130810000Y-106680000D03*
X113665000Y-66040000D03*
X113665000Y-68580000D03*
X121920000Y-78105000D03*
X129000000Y-100500000D03*
X111125000Y-78740000D03*
X121920000Y-114935000D03*
X121400000Y-87000000D03*
X115300000Y-86500000D03*
X123825000Y-63500000D03*
X127000000Y-114935000D03*
X113665000Y-81280000D03*
X116205000Y-68580000D03*
X111125000Y-76200000D03*
X135255000Y-106680000D03*
X124460000Y-116840000D03*
X133500000Y-73000000D03*
X134343287Y-96739846D03*
X111125000Y-68580000D03*
X131074357Y-88277354D03*
X127000000Y-113030000D03*
X130810000Y-74930000D03*
X119380000Y-114935000D03*
X118745000Y-66040000D03*
X130810000Y-78105000D03*
X120750000Y-79750000D03*
X129540000Y-114935000D03*
X125728163Y-90575086D03*
X124460000Y-113030000D03*
X120500000Y-81250000D03*
X121920000Y-79375000D03*
X136525000Y-96520000D03*
X111125000Y-113030000D03*
X121000000Y-102800000D03*
X133985000Y-66040000D03*
X123066452Y-70493236D03*
X119380000Y-113030000D03*
X121285000Y-63500000D03*
X133985000Y-91440000D03*
X132080000Y-100330000D03*
X115600000Y-76800000D03*
X128905000Y-67945000D03*
X130175000Y-109855000D03*
X120850000Y-73500000D03*
X133600000Y-78300000D03*
X133985000Y-88900000D03*
X118745000Y-63500000D03*
X130000000Y-77000000D03*
X136525000Y-91440000D03*
X124460000Y-114935000D03*
X114300000Y-113030000D03*
X111125000Y-66040000D03*
X136525000Y-66040000D03*
X116840000Y-113030000D03*
X129540000Y-93980000D03*
X128905000Y-63500000D03*
X111125000Y-81280000D03*
X133985000Y-83820000D03*
X126362373Y-90953964D03*
X129540000Y-116840000D03*
X136525000Y-73660000D03*
X123825000Y-75565000D03*
X116205000Y-66040000D03*
X121920000Y-116840000D03*
X136525000Y-83820000D03*
X115700000Y-73700000D03*
X119982843Y-94812675D03*
X128948633Y-91044566D03*
X136525000Y-76200000D03*
X128905000Y-108585000D03*
X121920000Y-74930000D03*
X129540000Y-95885000D03*
X136525000Y-71120000D03*
X131445000Y-63500000D03*
X133350000Y-100330000D03*
X130900000Y-81500000D03*
X136525000Y-78740000D03*
X123825000Y-78105000D03*
X127000000Y-90500000D03*
X126400000Y-89800000D03*
X115600000Y-79200000D03*
X130810000Y-79375000D03*
X136525000Y-99060000D03*
X113665000Y-73660000D03*
X124300000Y-99300000D03*
X119300000Y-70100000D03*
X121100000Y-70100000D03*
X136525000Y-81280000D03*
X133500000Y-74900000D03*
X127000000Y-116840000D03*
X116205000Y-63500000D03*
X125730000Y-78105000D03*
X131445000Y-65405000D03*
X130810000Y-67945000D03*
X111200000Y-99200000D03*
X125500000Y-72750000D03*
X133985000Y-86360000D03*
X135255000Y-102235000D03*
X136525000Y-68580000D03*
X114400000Y-83200000D03*
X129540000Y-79375000D03*
X128400000Y-99300000D03*
X111125000Y-71120000D03*
X118100000Y-90400000D03*
X127635000Y-78105000D03*
X125061007Y-91003383D03*
X119701223Y-99077262D03*
X131000000Y-72100000D03*
X118745000Y-68580000D03*
%TO.N,Net-(J1-Pin_9)*%
X122455548Y-90483527D03*
X124307528Y-101356057D03*
%TO.N,Net-(J1-Pin_10)*%
X123800000Y-100700000D03*
X123069485Y-91030515D03*
%TO.N,Net-(J1-Pin_6)*%
X121774888Y-90959677D03*
%TO.N,Net-(J1-Pin_5)*%
X121138807Y-90474491D03*
%TO.N,+BATT*%
X120600000Y-76500000D03*
X119200000Y-94091500D03*
%TO.N,!EN_DMS*%
X117601448Y-92583552D03*
X116752918Y-93432082D03*
%TO.N,Net-(ADC1-Pin_2)*%
X131200000Y-99500000D03*
X131100000Y-90800000D03*
%TD*%
D28*
%TO.N,+3.3V*%
X128500000Y-87250000D02*
X132250000Y-87250000D01*
D29*
X135275000Y-113685000D02*
X136893818Y-112066182D01*
X136893818Y-112066182D02*
X136893818Y-101778818D01*
D28*
X131150000Y-66700000D02*
X132250000Y-67800000D01*
D29*
X135275000Y-116000000D02*
X135275000Y-113685000D01*
X136893818Y-101778818D02*
X135430000Y-100315000D01*
D28*
X127087500Y-71000000D02*
X127863500Y-70224000D01*
X127087500Y-73900000D02*
X127887500Y-73100000D01*
X132226000Y-70224000D02*
X132250000Y-70200000D01*
X124475000Y-66700000D02*
X131150000Y-66700000D01*
X127863500Y-70224000D02*
X132226000Y-70224000D01*
X127887500Y-73100000D02*
X132250000Y-73100000D01*
%TO.N,GND*%
X125055000Y-92300000D02*
X125055000Y-91009390D01*
X123075000Y-72500000D02*
X123075000Y-70501784D01*
X128305000Y-91232819D02*
X128133220Y-91061039D01*
X124558607Y-99300000D02*
X125055000Y-98803607D01*
X127800000Y-90100000D02*
X127500000Y-89800000D01*
X128305000Y-92300000D02*
X128305000Y-91232819D01*
X125705000Y-92300000D02*
X125705000Y-90598249D01*
X121900000Y-72750000D02*
X120886657Y-72750000D01*
X128036130Y-99063500D02*
X127804000Y-98831370D01*
X123755000Y-98025000D02*
X123755000Y-98755000D01*
X120687500Y-79687500D02*
X120750000Y-79750000D01*
X125055000Y-98803607D02*
X125055000Y-98025000D01*
X121100000Y-73250000D02*
X120850000Y-73500000D01*
X123755000Y-98755000D02*
X124300000Y-99300000D01*
X120500000Y-82687500D02*
X120500000Y-81250000D01*
X128955000Y-91050933D02*
X128948633Y-91044566D01*
X127500000Y-89800000D02*
X126400000Y-89800000D01*
X128163500Y-99063500D02*
X128036130Y-99063500D01*
X128400000Y-99300000D02*
X128163500Y-99063500D01*
X127562500Y-100500000D02*
X129000000Y-100500000D01*
X121900000Y-73250000D02*
X121100000Y-73250000D01*
X123075000Y-70501784D02*
X123066452Y-70493236D01*
X127005000Y-90505000D02*
X127000000Y-90500000D01*
X126355000Y-90961337D02*
X126362373Y-90953964D01*
X127804000Y-98831370D02*
X127804000Y-98704000D01*
X128237500Y-90100000D02*
X127800000Y-90100000D01*
X125055000Y-91009390D02*
X125061007Y-91003383D01*
X126355000Y-92300000D02*
X126355000Y-90961337D01*
X124300000Y-99300000D02*
X124558607Y-99300000D01*
X127005000Y-92300000D02*
X127005000Y-90505000D01*
X127655000Y-98555000D02*
X127655000Y-98025000D01*
X124250000Y-72750000D02*
X125500000Y-72750000D01*
X127804000Y-98704000D02*
X127655000Y-98555000D01*
X123500000Y-82637500D02*
X123500000Y-81250000D01*
X128955000Y-92300000D02*
X128955000Y-91050933D01*
X119200000Y-79687500D02*
X120687500Y-79687500D01*
X128862500Y-77000000D02*
X130000000Y-77000000D01*
X125705000Y-90598249D02*
X125728163Y-90575086D01*
X120886657Y-72750000D02*
X120850000Y-72786657D01*
%TO.N,Net-(C12-Pad2)*%
X124662500Y-89950000D02*
X124662500Y-89400000D01*
X124405000Y-92300000D02*
X124405000Y-90207500D01*
X124405000Y-90207500D02*
X124662500Y-89950000D01*
%TO.N,Net-(C12-Pad1)*%
X122937500Y-89400000D02*
X122937500Y-90050000D01*
X123755000Y-90867500D02*
X123755000Y-92300000D01*
X122937500Y-90050000D02*
X123755000Y-90867500D01*
%TO.N,Net-(J1-Pin_2)*%
X115110000Y-97290000D02*
X115110000Y-104500000D01*
X115862500Y-96537500D02*
X115110000Y-97290000D01*
X116900000Y-96537500D02*
X115862500Y-96537500D01*
%TO.N,Net-(J1-Pin_9)*%
X124737490Y-101553385D02*
X125475255Y-101553385D01*
X122455000Y-90484075D02*
X122455548Y-90483527D01*
X124307528Y-101356057D02*
X124540162Y-101356057D01*
X130491000Y-102101000D02*
X132890000Y-104500000D01*
X124540162Y-101356057D02*
X124737490Y-101553385D01*
X122455000Y-92300000D02*
X122455000Y-90484075D01*
X126022870Y-102101000D02*
X130491000Y-102101000D01*
X125475255Y-101553385D02*
X126022870Y-102101000D01*
%TO.N,Net-(J1-Pin_10)*%
X124500000Y-100700000D02*
X123800000Y-100700000D01*
X130757100Y-101800000D02*
X130657100Y-101700000D01*
X132730000Y-101800000D02*
X130757100Y-101800000D01*
X123105000Y-92300000D02*
X123105000Y-91066030D01*
X126188970Y-101700000D02*
X125641355Y-101152385D01*
X123105000Y-91066030D02*
X123069485Y-91030515D01*
X130657100Y-101700000D02*
X126188970Y-101700000D01*
X135430000Y-104500000D02*
X132730000Y-101800000D01*
X125641355Y-101152385D02*
X124952385Y-101152385D01*
X124952385Y-101152385D02*
X124500000Y-100700000D01*
%TO.N,Net-(J1-Pin_8)*%
X123105000Y-98025000D02*
X123105000Y-101437900D01*
X128352000Y-102502000D02*
X130350000Y-104500000D01*
X123105000Y-101437900D02*
X124169100Y-102502000D01*
X124169100Y-102502000D02*
X128352000Y-102502000D01*
%TO.N,Net-(J1-Pin_7)*%
X126310000Y-103000000D02*
X124100000Y-103000000D01*
X122455000Y-101355000D02*
X122455000Y-98025000D01*
X124100000Y-103000000D02*
X122455000Y-101355000D01*
X127810000Y-104500000D02*
X126310000Y-103000000D01*
%TO.N,Net-(J1-Pin_6)*%
X121774888Y-92269888D02*
X121805000Y-92300000D01*
X121774888Y-90959677D02*
X121774888Y-92269888D01*
%TO.N,Net-(J1-Pin_5)*%
X121138807Y-92283807D02*
X121155000Y-92300000D01*
X121138807Y-90474491D02*
X121138807Y-92283807D01*
%TO.N,Net-(J1-Pin_4)*%
X121805000Y-98695000D02*
X120190000Y-100310000D01*
X120190000Y-100310000D02*
X120190000Y-104500000D01*
X121805000Y-98025000D02*
X121805000Y-98695000D01*
%TO.N,Net-(J1-Pin_3)*%
X121155000Y-98025000D02*
X118975000Y-98025000D01*
X118975000Y-98025000D02*
X117650000Y-99350000D01*
X117650000Y-99350000D02*
X117650000Y-104500000D01*
%TO.N,+BATT*%
X120100000Y-75500000D02*
X119162500Y-75500000D01*
X118320240Y-106798000D02*
X116499000Y-104976760D01*
X119200000Y-72187500D02*
X119200000Y-75462500D01*
X120600000Y-76500000D02*
X120600000Y-76000000D01*
X119200000Y-96600000D02*
X119200000Y-94091500D01*
X118400000Y-97400000D02*
X119200000Y-96600000D01*
X132250000Y-110000000D02*
X129048000Y-106798000D01*
X116499000Y-99301000D02*
X118400000Y-97400000D01*
X129048000Y-106798000D02*
X118320240Y-106798000D01*
X120600000Y-76000000D02*
X120100000Y-75500000D01*
X116499000Y-104976760D02*
X116499000Y-99301000D01*
X119200000Y-75462500D02*
X119162500Y-75500000D01*
%TO.N,!EN_DMS*%
X118500000Y-91500000D02*
X124925000Y-85075000D01*
X117850000Y-94529164D02*
X116752918Y-93432082D01*
X117601448Y-92583552D02*
X117601448Y-92176448D01*
X117601448Y-92176448D02*
X116925000Y-91500000D01*
X116925000Y-91500000D02*
X118500000Y-91500000D01*
X117850000Y-94662500D02*
X117850000Y-94529164D01*
X124925000Y-85075000D02*
X135430000Y-85075000D01*
%TO.N,Net-(Q1-D)*%
X118250000Y-77750000D02*
X117337500Y-76837500D01*
X117337500Y-75500000D02*
X117337500Y-72225000D01*
X117337500Y-72225000D02*
X117300000Y-72187500D01*
X117337500Y-76837500D02*
X117337500Y-75500000D01*
X118250000Y-77812500D02*
X118250000Y-77750000D01*
%TO.N,SDA*%
X125676000Y-74676000D02*
X124250000Y-73250000D01*
X128912500Y-73900000D02*
X128136500Y-74676000D01*
X128912500Y-73900000D02*
X134415000Y-73900000D01*
X134415000Y-73900000D02*
X135430000Y-74915000D01*
X128136500Y-74676000D02*
X125676000Y-74676000D01*
%TO.N,D_RDY_OUT*%
X134935000Y-92695000D02*
X135430000Y-92695000D01*
X129605000Y-98025000D02*
X134935000Y-92695000D01*
%TO.N,SCLK*%
X130786557Y-99063500D02*
X134615057Y-95235000D01*
X129256001Y-99063500D02*
X130786557Y-99063500D01*
X134615057Y-95235000D02*
X135430000Y-95235000D01*
X128955000Y-98762499D02*
X129256001Y-99063500D01*
X128955000Y-98025000D02*
X128955000Y-98762499D01*
%TO.N,!PWDN*%
X128305000Y-93740500D02*
X128305000Y-98025000D01*
X116136500Y-91967134D02*
X117660866Y-93491500D01*
X116136500Y-88641500D02*
X116136500Y-91967134D01*
X112570000Y-85075000D02*
X116136500Y-88641500D01*
X128056000Y-93491500D02*
X128305000Y-93740500D01*
X117660866Y-93491500D02*
X128056000Y-93491500D01*
%TO.N,bat_adc*%
X117300000Y-85050000D02*
X117300000Y-84512500D01*
X123500000Y-85250000D02*
X122750000Y-86000000D01*
X111519000Y-84639661D02*
X112134661Y-84024000D01*
X112570000Y-92695000D02*
X111519000Y-91644000D01*
X120500000Y-86000000D02*
X118250000Y-86000000D01*
X112134661Y-84024000D02*
X116811500Y-84024000D01*
X123500000Y-84362500D02*
X123500000Y-85250000D01*
X118250000Y-86000000D02*
X117300000Y-85050000D01*
X111519000Y-91644000D02*
X111519000Y-84639661D01*
X122750000Y-86000000D02*
X120500000Y-86000000D01*
X120500000Y-84512500D02*
X120500000Y-86000000D01*
X116811500Y-84024000D02*
X117300000Y-84512500D01*
D29*
%TO.N,Net-(PWR1-Pin_1)*%
X112710000Y-112790000D02*
X112710000Y-116000000D01*
X112700000Y-112780000D02*
X112710000Y-112790000D01*
X113235000Y-110000000D02*
X113235000Y-109638000D01*
X112700000Y-110000000D02*
X112700000Y-112780000D01*
%TO.N,+5V*%
X115775000Y-110000000D02*
X115500000Y-110000000D01*
X115240000Y-110000000D02*
X122960000Y-110000000D01*
D28*
%TO.N,SCL*%
X134300000Y-68425000D02*
X134300000Y-70549943D01*
X124276000Y-71776000D02*
X128136500Y-71776000D01*
X124250000Y-71750000D02*
X124276000Y-71776000D01*
X134300000Y-70549943D02*
X133849943Y-71000000D01*
X133849943Y-71000000D02*
X128912500Y-71000000D01*
X135430000Y-67295000D02*
X134300000Y-68425000D01*
X128136500Y-71776000D02*
X128912500Y-71000000D01*
%TO.N,en_meas*%
X133544000Y-80649000D02*
X135430000Y-82535000D01*
X119899000Y-81001057D02*
X120251057Y-80649000D01*
X118613557Y-81001057D02*
X119899000Y-81001057D01*
X117300000Y-79687500D02*
X118613557Y-81001057D01*
X120251057Y-80649000D02*
X133544000Y-80649000D01*
%TO.N,Net-(Q3-D)*%
X114750000Y-80137500D02*
X114750000Y-73358032D01*
X114750000Y-73358032D02*
X117795532Y-70312500D01*
X117795532Y-70312500D02*
X118250000Y-70312500D01*
X117300000Y-82687500D02*
X114750000Y-80137500D01*
%TO.N,Net-(ADC1-Pin_2)*%
X125705000Y-98025000D02*
X125705000Y-97367630D01*
X131100000Y-89700000D02*
X131100000Y-90800000D01*
X126400000Y-97000000D02*
X126800000Y-97000000D01*
X129605000Y-90820000D02*
X129962500Y-90462500D01*
X124405000Y-97287501D02*
X124405000Y-98025000D01*
X127005000Y-97205000D02*
X127005000Y-98025000D01*
X129424000Y-101276000D02*
X129200000Y-101276000D01*
X125705000Y-100130000D02*
X125705000Y-98025000D01*
X130650000Y-89250000D02*
X129900000Y-89250000D01*
X130800000Y-89400000D02*
X130650000Y-89250000D01*
X131200000Y-99500000D02*
X129424000Y-101276000D01*
X126355000Y-97045000D02*
X126400000Y-97000000D01*
X129900000Y-89250000D02*
X129450000Y-89250000D01*
X125323870Y-96986500D02*
X124706001Y-96986500D01*
X126750000Y-89250000D02*
X125960000Y-88460000D01*
X129450000Y-89250000D02*
X126750000Y-89250000D01*
X129962500Y-90100000D02*
X129962500Y-89312500D01*
X125837500Y-100500000D02*
X125837500Y-100262500D01*
X126613500Y-101276000D02*
X129200000Y-101276000D01*
X129962500Y-90462500D02*
X129962500Y-89762500D01*
X125705000Y-97367630D02*
X125323870Y-96986500D01*
X125837500Y-100262500D02*
X125705000Y-100130000D01*
X126800000Y-97000000D02*
X127005000Y-97205000D01*
X125960000Y-88460000D02*
X125960000Y-87250000D01*
X126355000Y-98025000D02*
X126355000Y-97045000D01*
X129605000Y-92300000D02*
X129605000Y-90820000D01*
X125705000Y-97195000D02*
X125900000Y-97000000D01*
X125705000Y-98025000D02*
X125705000Y-97195000D01*
X124706001Y-96986500D02*
X124405000Y-97287501D01*
X130800000Y-89400000D02*
X131100000Y-89700000D01*
X125900000Y-97000000D02*
X126400000Y-97000000D01*
X125837500Y-100500000D02*
X126613500Y-101276000D01*
X129962500Y-89312500D02*
X129900000Y-89250000D01*
%TO.N,Net-(THRM1-Pin_2)*%
X127137500Y-77000000D02*
X122500000Y-77000000D01*
X121935000Y-66700000D02*
X120250000Y-68385000D01*
X120250000Y-68385000D02*
X120250000Y-71700000D01*
X122500000Y-77000000D02*
X120250000Y-74750000D01*
X121900000Y-71750000D02*
X120300000Y-71750000D01*
X120300000Y-71750000D02*
X120250000Y-71700000D01*
X120250000Y-74750000D02*
X120250000Y-72250000D01*
X120250000Y-71700000D02*
X120250000Y-72250000D01*
D30*
%TO.N,Net-(DMS1-Pin_2)*%
X132735000Y-114900134D02*
X125133866Y-107299000D01*
X132735000Y-116000000D02*
X132735000Y-114900134D01*
X115950000Y-94662500D02*
X115100000Y-93812500D01*
X113859000Y-96753500D02*
X115950000Y-94662500D01*
X116139818Y-107299000D02*
X113859000Y-105018182D01*
X113859000Y-105018182D02*
X113859000Y-96753500D01*
X125133866Y-107299000D02*
X116139818Y-107299000D01*
X115100000Y-93812500D02*
X115100000Y-91500000D01*
D29*
%TO.N,Net-(ESP32-Pin_2)*%
X124802081Y-108100000D02*
X125500000Y-108797919D01*
X111119000Y-101766000D02*
X111119000Y-105951000D01*
X112570000Y-100315000D02*
X111119000Y-101766000D01*
X125500000Y-108797919D02*
X125500000Y-110000000D01*
X111119000Y-105951000D02*
X113268000Y-108100000D01*
X113268000Y-108100000D02*
X124802081Y-108100000D01*
%TD*%
%TA.AperFunction,Conductor*%
%TO.N,GND*%
G36*
X110774250Y-106742303D02*
G01*
X110791336Y-106755414D01*
X112644586Y-108608664D01*
X112668436Y-108659810D01*
X112653830Y-108714320D01*
X112607603Y-108746689D01*
X112586250Y-108749500D01*
X111818486Y-108749500D01*
X111724694Y-108764354D01*
X111611660Y-108821948D01*
X111611656Y-108821951D01*
X111521951Y-108911656D01*
X111521948Y-108911660D01*
X111464354Y-109024694D01*
X111464352Y-109024699D01*
X111449500Y-109118480D01*
X111449500Y-110881513D01*
X111464354Y-110975305D01*
X111512362Y-111069525D01*
X111521950Y-111088342D01*
X111611658Y-111178050D01*
X111724696Y-111235646D01*
X111724699Y-111235647D01*
X111796741Y-111247056D01*
X111818481Y-111250500D01*
X111818481Y-111250499D01*
X111818482Y-111250500D01*
X111821717Y-111250755D01*
X111821604Y-111252188D01*
X111869994Y-111269770D01*
X111898238Y-111318627D01*
X111899500Y-111332999D01*
X111899500Y-112701158D01*
X111899500Y-112858842D01*
X111899644Y-112859564D01*
X111907915Y-112901147D01*
X111909500Y-112917241D01*
X111909500Y-114667000D01*
X111890199Y-114720030D01*
X111841326Y-114748247D01*
X111831705Y-114749091D01*
X111831718Y-114749246D01*
X111828493Y-114749500D01*
X111828486Y-114749500D01*
X111828482Y-114749501D01*
X111762753Y-114759910D01*
X111734694Y-114764354D01*
X111621660Y-114821948D01*
X111621656Y-114821951D01*
X111531951Y-114911656D01*
X111531948Y-114911660D01*
X111474354Y-115024694D01*
X111474352Y-115024699D01*
X111459500Y-115118480D01*
X111459500Y-116881513D01*
X111474354Y-116975305D01*
X111522362Y-117069525D01*
X111531950Y-117088342D01*
X111621658Y-117178050D01*
X111734696Y-117235646D01*
X111734699Y-117235647D01*
X111770719Y-117241351D01*
X111828481Y-117250500D01*
X113591518Y-117250499D01*
X113685304Y-117235646D01*
X113798342Y-117178050D01*
X113888050Y-117088342D01*
X113945646Y-116975304D01*
X113960500Y-116881519D01*
X113960499Y-116775817D01*
X113979800Y-116722790D01*
X114028672Y-116694572D01*
X114084248Y-116704372D01*
X114109743Y-116727327D01*
X114134727Y-116761716D01*
X114134729Y-116761716D01*
X114767037Y-116129408D01*
X114784075Y-116192993D01*
X114849901Y-116307007D01*
X114942993Y-116400099D01*
X115057007Y-116465925D01*
X115120590Y-116482962D01*
X114488281Y-117115270D01*
X114488282Y-117115271D01*
X114542441Y-117154619D01*
X114542440Y-117154619D01*
X114731784Y-117251096D01*
X114933867Y-117316756D01*
X114933877Y-117316758D01*
X115143754Y-117350000D01*
X115356246Y-117350000D01*
X115566122Y-117316758D01*
X115566132Y-117316756D01*
X115768215Y-117251096D01*
X115957550Y-117154624D01*
X115957554Y-117154621D01*
X116011717Y-117115270D01*
X115379409Y-116482962D01*
X115442993Y-116465925D01*
X115557007Y-116400099D01*
X115650099Y-116307007D01*
X115715925Y-116192993D01*
X115732962Y-116129409D01*
X116365270Y-116761717D01*
X116404621Y-116707554D01*
X116404624Y-116707550D01*
X116501096Y-116518215D01*
X116566756Y-116316132D01*
X116566758Y-116316122D01*
X116600000Y-116106246D01*
X116600000Y-115893753D01*
X116566758Y-115683877D01*
X116566756Y-115683867D01*
X116501096Y-115481784D01*
X116404619Y-115292441D01*
X116365271Y-115238282D01*
X116365270Y-115238281D01*
X115732962Y-115870589D01*
X115715925Y-115807007D01*
X115650099Y-115692993D01*
X115557007Y-115599901D01*
X115442993Y-115534075D01*
X115379409Y-115517037D01*
X116011716Y-114884729D01*
X116011716Y-114884728D01*
X115957560Y-114845382D01*
X115957549Y-114845375D01*
X115768215Y-114748903D01*
X115566132Y-114683243D01*
X115566122Y-114683241D01*
X115356246Y-114650000D01*
X115143754Y-114650000D01*
X114933877Y-114683241D01*
X114933867Y-114683243D01*
X114731782Y-114748904D01*
X114731779Y-114748905D01*
X114542455Y-114845371D01*
X114542441Y-114845380D01*
X114488282Y-114884727D01*
X114488282Y-114884729D01*
X115120590Y-115517037D01*
X115057007Y-115534075D01*
X114942993Y-115599901D01*
X114849901Y-115692993D01*
X114784075Y-115807007D01*
X114767037Y-115870590D01*
X114134729Y-115238282D01*
X114134727Y-115238282D01*
X114109743Y-115272671D01*
X114062958Y-115304228D01*
X114006834Y-115298330D01*
X113967632Y-115257736D01*
X113960499Y-115224179D01*
X113960499Y-115118486D01*
X113960499Y-115118482D01*
X113945646Y-115024696D01*
X113945645Y-115024694D01*
X113909435Y-114953627D01*
X113909434Y-114953626D01*
X113888049Y-114911657D01*
X113798343Y-114821951D01*
X113798339Y-114821948D01*
X113685305Y-114764354D01*
X113685300Y-114764352D01*
X113591517Y-114749499D01*
X113588283Y-114749245D01*
X113588394Y-114747823D01*
X113539970Y-114730199D01*
X113511753Y-114681326D01*
X113510500Y-114667000D01*
X113510500Y-112711159D01*
X113502085Y-112668850D01*
X113500500Y-112652757D01*
X113500500Y-111332999D01*
X113519801Y-111279969D01*
X113568674Y-111251752D01*
X113578294Y-111250910D01*
X113578282Y-111250754D01*
X113581506Y-111250500D01*
X113581512Y-111250499D01*
X113581518Y-111250499D01*
X113675304Y-111235646D01*
X113788342Y-111178050D01*
X113878050Y-111088342D01*
X113935646Y-110975304D01*
X113950500Y-110881519D01*
X113950499Y-110567311D01*
X113969800Y-110514283D01*
X114018673Y-110486066D01*
X114074249Y-110495866D01*
X114106507Y-110529859D01*
X114170474Y-110655402D01*
X114286163Y-110814635D01*
X114286169Y-110814642D01*
X114286172Y-110814646D01*
X114425354Y-110953828D01*
X114425358Y-110953831D01*
X114425364Y-110953836D01*
X114454914Y-110975305D01*
X114584595Y-111069524D01*
X114584597Y-111069525D01*
X114759970Y-111158882D01*
X114759972Y-111158882D01*
X114759975Y-111158884D01*
X114818962Y-111178050D01*
X114947167Y-111219707D01*
X114947169Y-111219707D01*
X114947174Y-111219709D01*
X115141583Y-111250500D01*
X115141584Y-111250500D01*
X115338416Y-111250500D01*
X115338417Y-111250500D01*
X115532826Y-111219709D01*
X115720025Y-111158884D01*
X115895405Y-111069524D01*
X116054646Y-110953828D01*
X116183810Y-110824664D01*
X116234956Y-110800814D01*
X116242146Y-110800500D01*
X121627001Y-110800500D01*
X121680031Y-110819801D01*
X121708248Y-110868674D01*
X121709089Y-110878294D01*
X121709246Y-110878282D01*
X121709499Y-110881506D01*
X121724354Y-110975305D01*
X121772362Y-111069525D01*
X121781950Y-111088342D01*
X121871658Y-111178050D01*
X121984696Y-111235646D01*
X121984699Y-111235647D01*
X122020719Y-111241351D01*
X122078481Y-111250500D01*
X123841518Y-111250499D01*
X123935304Y-111235646D01*
X124048342Y-111178050D01*
X124138050Y-111088342D01*
X124195646Y-110975304D01*
X124210500Y-110881519D01*
X124210499Y-110567311D01*
X124229800Y-110514284D01*
X124278673Y-110486067D01*
X124334249Y-110495867D01*
X124366507Y-110529860D01*
X124430474Y-110655402D01*
X124546163Y-110814635D01*
X124546169Y-110814642D01*
X124546172Y-110814646D01*
X124685354Y-110953828D01*
X124685358Y-110953831D01*
X124685364Y-110953836D01*
X124714914Y-110975305D01*
X124844595Y-111069524D01*
X124844597Y-111069525D01*
X125019970Y-111158882D01*
X125019972Y-111158882D01*
X125019975Y-111158884D01*
X125078962Y-111178050D01*
X125207167Y-111219707D01*
X125207169Y-111219707D01*
X125207174Y-111219709D01*
X125401583Y-111250500D01*
X125401584Y-111250500D01*
X125598416Y-111250500D01*
X125598417Y-111250500D01*
X125792826Y-111219709D01*
X125980025Y-111158884D01*
X126155405Y-111069524D01*
X126314646Y-110953828D01*
X126453828Y-110814646D01*
X126569524Y-110655405D01*
X126658884Y-110480025D01*
X126719709Y-110292826D01*
X126750500Y-110098417D01*
X126750500Y-109964041D01*
X126769801Y-109911011D01*
X126818674Y-109882794D01*
X126874250Y-109892594D01*
X126891335Y-109905704D01*
X131917742Y-114932112D01*
X131941592Y-114983257D01*
X131926986Y-115037767D01*
X131917743Y-115048783D01*
X131781170Y-115185356D01*
X131781163Y-115185364D01*
X131665474Y-115344597D01*
X131576117Y-115519970D01*
X131515292Y-115707167D01*
X131515290Y-115707177D01*
X131484500Y-115901583D01*
X131484500Y-116098416D01*
X131515290Y-116292822D01*
X131515292Y-116292832D01*
X131576117Y-116480029D01*
X131665474Y-116655402D01*
X131781163Y-116814635D01*
X131781169Y-116814642D01*
X131781172Y-116814646D01*
X131920354Y-116953828D01*
X131920358Y-116953831D01*
X131920364Y-116953836D01*
X131949914Y-116975305D01*
X132079595Y-117069524D01*
X132079597Y-117069525D01*
X132254970Y-117158882D01*
X132254972Y-117158882D01*
X132254975Y-117158884D01*
X132313962Y-117178050D01*
X132442167Y-117219707D01*
X132442169Y-117219707D01*
X132442174Y-117219709D01*
X132636583Y-117250500D01*
X132636584Y-117250500D01*
X132833416Y-117250500D01*
X132833417Y-117250500D01*
X133027826Y-117219709D01*
X133215025Y-117158884D01*
X133390405Y-117069524D01*
X133549646Y-116953828D01*
X133688828Y-116814646D01*
X133804524Y-116655405D01*
X133868492Y-116529858D01*
X133909764Y-116491372D01*
X133966120Y-116488418D01*
X134011190Y-116522380D01*
X134024500Y-116567313D01*
X134024500Y-116881513D01*
X134039354Y-116975305D01*
X134087362Y-117069525D01*
X134096950Y-117088342D01*
X134186658Y-117178050D01*
X134299696Y-117235646D01*
X134299699Y-117235647D01*
X134335719Y-117241351D01*
X134393481Y-117250500D01*
X136156518Y-117250499D01*
X136250304Y-117235646D01*
X136363342Y-117178050D01*
X136453050Y-117088342D01*
X136510646Y-116975304D01*
X136525500Y-116881519D01*
X136525499Y-115118482D01*
X136510646Y-115024696D01*
X136453050Y-114911658D01*
X136363342Y-114821950D01*
X136363340Y-114821949D01*
X136363339Y-114821948D01*
X136250305Y-114764354D01*
X136250300Y-114764352D01*
X136156517Y-114749499D01*
X136153283Y-114749245D01*
X136153394Y-114747823D01*
X136104970Y-114730199D01*
X136076753Y-114681326D01*
X136075500Y-114667000D01*
X136075500Y-114050750D01*
X136094801Y-113997720D01*
X136099664Y-113992414D01*
X137208664Y-112883414D01*
X137259810Y-112859564D01*
X137314320Y-112874170D01*
X137346689Y-112920397D01*
X137349500Y-112941750D01*
X137349500Y-117494594D01*
X137348794Y-117505362D01*
X137348794Y-117505363D01*
X137335601Y-117605569D01*
X137330027Y-117626372D01*
X137293433Y-117714717D01*
X137282665Y-117733368D01*
X137224456Y-117809227D01*
X137209227Y-117824456D01*
X137133368Y-117882665D01*
X137114717Y-117893433D01*
X137026372Y-117930027D01*
X137005569Y-117935601D01*
X136921717Y-117946640D01*
X136905361Y-117948794D01*
X136894595Y-117949500D01*
X111105405Y-117949500D01*
X111094638Y-117948794D01*
X111075904Y-117946327D01*
X110994430Y-117935601D01*
X110973627Y-117930027D01*
X110885282Y-117893433D01*
X110866634Y-117882666D01*
X110790769Y-117824453D01*
X110775546Y-117809230D01*
X110717331Y-117733363D01*
X110706566Y-117714717D01*
X110669972Y-117626372D01*
X110664398Y-117605568D01*
X110651206Y-117505362D01*
X110650500Y-117494594D01*
X110650500Y-106813750D01*
X110669801Y-106760720D01*
X110718674Y-106732503D01*
X110774250Y-106742303D01*
G37*
%TD.AperFunction*%
%TA.AperFunction,Conductor*%
G36*
X128859544Y-107317801D02*
G01*
X128864850Y-107322664D01*
X130975336Y-109433150D01*
X130999186Y-109484296D01*
X130999500Y-109491486D01*
X130999500Y-110881513D01*
X131014354Y-110975305D01*
X131062362Y-111069525D01*
X131071950Y-111088342D01*
X131161658Y-111178050D01*
X131274696Y-111235646D01*
X131274699Y-111235647D01*
X131310719Y-111241351D01*
X131368481Y-111250500D01*
X133131518Y-111250499D01*
X133225304Y-111235646D01*
X133338342Y-111178050D01*
X133428050Y-111088342D01*
X133485646Y-110975304D01*
X133500500Y-110881519D01*
X133500499Y-110775817D01*
X133519800Y-110722790D01*
X133568672Y-110694572D01*
X133624248Y-110704372D01*
X133649743Y-110727327D01*
X133674727Y-110761716D01*
X133674729Y-110761716D01*
X134307037Y-110129408D01*
X134324075Y-110192993D01*
X134389901Y-110307007D01*
X134482993Y-110400099D01*
X134597007Y-110465925D01*
X134660590Y-110482962D01*
X134028281Y-111115270D01*
X134028282Y-111115271D01*
X134082441Y-111154619D01*
X134082440Y-111154619D01*
X134271784Y-111251096D01*
X134473867Y-111316756D01*
X134473877Y-111316758D01*
X134683754Y-111350000D01*
X134896246Y-111350000D01*
X135106122Y-111316758D01*
X135106132Y-111316756D01*
X135308215Y-111251096D01*
X135497550Y-111154624D01*
X135497554Y-111154621D01*
X135551717Y-111115270D01*
X134919409Y-110482962D01*
X134982993Y-110465925D01*
X135097007Y-110400099D01*
X135190099Y-110307007D01*
X135255925Y-110192993D01*
X135272962Y-110129409D01*
X135905270Y-110761717D01*
X135905270Y-110761716D01*
X135944074Y-110708309D01*
X135990860Y-110676752D01*
X136046984Y-110682651D01*
X136086186Y-110723245D01*
X136093318Y-110756801D01*
X136093318Y-111700432D01*
X136074017Y-111753462D01*
X136069154Y-111758768D01*
X134653210Y-113174711D01*
X134565605Y-113305820D01*
X134505264Y-113451498D01*
X134505263Y-113451503D01*
X134474500Y-113606158D01*
X134474500Y-113606161D01*
X134474500Y-114667000D01*
X134455199Y-114720030D01*
X134406326Y-114748247D01*
X134396705Y-114749091D01*
X134396718Y-114749246D01*
X134393493Y-114749500D01*
X134393486Y-114749500D01*
X134393482Y-114749501D01*
X134327753Y-114759910D01*
X134299694Y-114764354D01*
X134186660Y-114821948D01*
X134186656Y-114821951D01*
X134096951Y-114911656D01*
X134096948Y-114911660D01*
X134039354Y-115024694D01*
X134039352Y-115024699D01*
X134024500Y-115118480D01*
X134024500Y-115432685D01*
X134005199Y-115485715D01*
X133956326Y-115513932D01*
X133900750Y-115504132D01*
X133868492Y-115470139D01*
X133804525Y-115344597D01*
X133688836Y-115185364D01*
X133688829Y-115185356D01*
X133688828Y-115185354D01*
X133549646Y-115046172D01*
X133549642Y-115046169D01*
X133549635Y-115046163D01*
X133390409Y-114930478D01*
X133389611Y-114930071D01*
X133380543Y-114925451D01*
X133342058Y-114884178D01*
X133335501Y-114851945D01*
X133335501Y-114821079D01*
X133335501Y-114821077D01*
X133294577Y-114668349D01*
X133215520Y-114531418D01*
X133215519Y-114531417D01*
X133215515Y-114531412D01*
X126123437Y-107439336D01*
X126099587Y-107388190D01*
X126114193Y-107333680D01*
X126160420Y-107301311D01*
X126181773Y-107298500D01*
X128806514Y-107298500D01*
X128859544Y-107317801D01*
G37*
%TD.AperFunction*%
%TA.AperFunction,Conductor*%
G36*
X134221310Y-104849817D02*
G01*
X134238462Y-104879526D01*
X134271117Y-104980029D01*
X134360474Y-105155402D01*
X134476163Y-105314635D01*
X134476169Y-105314642D01*
X134476172Y-105314646D01*
X134615354Y-105453828D01*
X134615358Y-105453831D01*
X134615364Y-105453836D01*
X134713847Y-105525388D01*
X134774595Y-105569524D01*
X134774597Y-105569525D01*
X134949970Y-105658882D01*
X134949972Y-105658882D01*
X134949975Y-105658884D01*
X135003896Y-105676404D01*
X135137167Y-105719707D01*
X135137169Y-105719707D01*
X135137174Y-105719709D01*
X135331583Y-105750500D01*
X135331584Y-105750500D01*
X135528416Y-105750500D01*
X135528417Y-105750500D01*
X135722826Y-105719709D01*
X135910025Y-105658884D01*
X135973365Y-105626610D01*
X136029376Y-105619733D01*
X136076705Y-105650469D01*
X136093318Y-105700119D01*
X136093318Y-109243198D01*
X136074017Y-109296228D01*
X136025144Y-109324445D01*
X135969568Y-109314645D01*
X135944074Y-109291690D01*
X135905271Y-109238282D01*
X135905270Y-109238281D01*
X135272962Y-109870590D01*
X135255925Y-109807007D01*
X135190099Y-109692993D01*
X135097007Y-109599901D01*
X134982993Y-109534075D01*
X134919409Y-109517037D01*
X135551716Y-108884729D01*
X135551716Y-108884728D01*
X135497560Y-108845382D01*
X135497549Y-108845375D01*
X135308215Y-108748903D01*
X135106132Y-108683243D01*
X135106122Y-108683241D01*
X134896246Y-108650000D01*
X134683754Y-108650000D01*
X134473877Y-108683241D01*
X134473867Y-108683243D01*
X134271782Y-108748904D01*
X134271779Y-108748905D01*
X134082455Y-108845371D01*
X134082441Y-108845380D01*
X134028282Y-108884727D01*
X134028282Y-108884729D01*
X134660590Y-109517037D01*
X134597007Y-109534075D01*
X134482993Y-109599901D01*
X134389901Y-109692993D01*
X134324075Y-109807007D01*
X134307037Y-109870590D01*
X133674729Y-109238282D01*
X133674727Y-109238282D01*
X133649743Y-109272671D01*
X133602958Y-109304228D01*
X133546834Y-109298330D01*
X133507632Y-109257736D01*
X133500499Y-109224179D01*
X133500499Y-109118486D01*
X133500499Y-109118482D01*
X133485646Y-109024696D01*
X133483485Y-109020454D01*
X133449435Y-108953627D01*
X133449434Y-108953626D01*
X133434677Y-108924664D01*
X133428050Y-108911658D01*
X133338342Y-108821950D01*
X133338340Y-108821949D01*
X133338339Y-108821948D01*
X133225305Y-108764354D01*
X133225300Y-108764352D01*
X133131519Y-108749500D01*
X131741486Y-108749500D01*
X131688456Y-108730199D01*
X131683150Y-108725336D01*
X129355319Y-106397504D01*
X129355314Y-106397500D01*
X129241187Y-106331608D01*
X129113892Y-106297500D01*
X118561725Y-106297500D01*
X118508695Y-106278199D01*
X118503389Y-106273336D01*
X118043257Y-105813203D01*
X118019407Y-105762057D01*
X118034013Y-105707547D01*
X118076097Y-105676405D01*
X118130025Y-105658884D01*
X118305405Y-105569524D01*
X118464646Y-105453828D01*
X118603828Y-105314646D01*
X118719524Y-105155405D01*
X118808884Y-104980025D01*
X118841538Y-104879525D01*
X118876282Y-104835056D01*
X118931482Y-104823323D01*
X118981310Y-104849817D01*
X118998462Y-104879526D01*
X119031117Y-104980029D01*
X119120474Y-105155402D01*
X119236163Y-105314635D01*
X119236169Y-105314642D01*
X119236172Y-105314646D01*
X119375354Y-105453828D01*
X119375358Y-105453831D01*
X119375364Y-105453836D01*
X119473847Y-105525388D01*
X119534595Y-105569524D01*
X119534597Y-105569525D01*
X119709970Y-105658882D01*
X119709972Y-105658882D01*
X119709975Y-105658884D01*
X119763896Y-105676404D01*
X119897167Y-105719707D01*
X119897169Y-105719707D01*
X119897174Y-105719709D01*
X120091583Y-105750500D01*
X120091584Y-105750500D01*
X120288416Y-105750500D01*
X120288417Y-105750500D01*
X120482826Y-105719709D01*
X120670025Y-105658884D01*
X120845405Y-105569524D01*
X121004646Y-105453828D01*
X121143828Y-105314646D01*
X121259524Y-105155405D01*
X121348884Y-104980025D01*
X121381538Y-104879525D01*
X121416282Y-104835056D01*
X121471482Y-104823323D01*
X121521310Y-104849817D01*
X121538462Y-104879526D01*
X121571117Y-104980029D01*
X121660474Y-105155402D01*
X121776163Y-105314635D01*
X121776169Y-105314642D01*
X121776172Y-105314646D01*
X121915354Y-105453828D01*
X121915358Y-105453831D01*
X121915364Y-105453836D01*
X122013847Y-105525388D01*
X122074595Y-105569524D01*
X122074597Y-105569525D01*
X122249970Y-105658882D01*
X122249972Y-105658882D01*
X122249975Y-105658884D01*
X122303896Y-105676404D01*
X122437167Y-105719707D01*
X122437169Y-105719707D01*
X122437174Y-105719709D01*
X122631583Y-105750500D01*
X122631584Y-105750500D01*
X122828416Y-105750500D01*
X122828417Y-105750500D01*
X123022826Y-105719709D01*
X123210025Y-105658884D01*
X123385405Y-105569524D01*
X123544646Y-105453828D01*
X123683828Y-105314646D01*
X123799524Y-105155405D01*
X123888884Y-104980025D01*
X123921538Y-104879525D01*
X123956282Y-104835056D01*
X124011482Y-104823323D01*
X124061310Y-104849817D01*
X124078462Y-104879526D01*
X124111117Y-104980029D01*
X124200474Y-105155402D01*
X124316163Y-105314635D01*
X124316169Y-105314642D01*
X124316172Y-105314646D01*
X124455354Y-105453828D01*
X124455358Y-105453831D01*
X124455364Y-105453836D01*
X124553847Y-105525388D01*
X124614595Y-105569524D01*
X124614597Y-105569525D01*
X124789970Y-105658882D01*
X124789972Y-105658882D01*
X124789975Y-105658884D01*
X124843896Y-105676404D01*
X124977167Y-105719707D01*
X124977169Y-105719707D01*
X124977174Y-105719709D01*
X125171583Y-105750500D01*
X125171584Y-105750500D01*
X125368416Y-105750500D01*
X125368417Y-105750500D01*
X125562826Y-105719709D01*
X125750025Y-105658884D01*
X125925405Y-105569524D01*
X126084646Y-105453828D01*
X126223828Y-105314646D01*
X126339524Y-105155405D01*
X126428884Y-104980025D01*
X126461538Y-104879525D01*
X126496282Y-104835056D01*
X126551482Y-104823323D01*
X126601310Y-104849817D01*
X126618462Y-104879526D01*
X126651117Y-104980029D01*
X126740474Y-105155402D01*
X126856163Y-105314635D01*
X126856169Y-105314642D01*
X126856172Y-105314646D01*
X126995354Y-105453828D01*
X126995358Y-105453831D01*
X126995364Y-105453836D01*
X127093847Y-105525388D01*
X127154595Y-105569524D01*
X127154597Y-105569525D01*
X127329970Y-105658882D01*
X127329972Y-105658882D01*
X127329975Y-105658884D01*
X127383896Y-105676404D01*
X127517167Y-105719707D01*
X127517169Y-105719707D01*
X127517174Y-105719709D01*
X127711583Y-105750500D01*
X127711584Y-105750500D01*
X127908416Y-105750500D01*
X127908417Y-105750500D01*
X128102826Y-105719709D01*
X128290025Y-105658884D01*
X128465405Y-105569524D01*
X128624646Y-105453828D01*
X128763828Y-105314646D01*
X128879524Y-105155405D01*
X128968884Y-104980025D01*
X129001538Y-104879525D01*
X129036282Y-104835056D01*
X129091482Y-104823323D01*
X129141310Y-104849817D01*
X129158462Y-104879526D01*
X129191117Y-104980029D01*
X129280474Y-105155402D01*
X129396163Y-105314635D01*
X129396169Y-105314642D01*
X129396172Y-105314646D01*
X129535354Y-105453828D01*
X129535358Y-105453831D01*
X129535364Y-105453836D01*
X129633847Y-105525388D01*
X129694595Y-105569524D01*
X129694597Y-105569525D01*
X129869970Y-105658882D01*
X129869972Y-105658882D01*
X129869975Y-105658884D01*
X129923896Y-105676404D01*
X130057167Y-105719707D01*
X130057169Y-105719707D01*
X130057174Y-105719709D01*
X130251583Y-105750500D01*
X130251584Y-105750500D01*
X130448416Y-105750500D01*
X130448417Y-105750500D01*
X130642826Y-105719709D01*
X130830025Y-105658884D01*
X131005405Y-105569524D01*
X131164646Y-105453828D01*
X131303828Y-105314646D01*
X131419524Y-105155405D01*
X131508884Y-104980025D01*
X131541538Y-104879525D01*
X131576282Y-104835056D01*
X131631482Y-104823323D01*
X131681310Y-104849817D01*
X131698462Y-104879526D01*
X131731117Y-104980029D01*
X131820474Y-105155402D01*
X131936163Y-105314635D01*
X131936169Y-105314642D01*
X131936172Y-105314646D01*
X132075354Y-105453828D01*
X132075358Y-105453831D01*
X132075364Y-105453836D01*
X132173847Y-105525388D01*
X132234595Y-105569524D01*
X132234597Y-105569525D01*
X132409970Y-105658882D01*
X132409972Y-105658882D01*
X132409975Y-105658884D01*
X132463896Y-105676404D01*
X132597167Y-105719707D01*
X132597169Y-105719707D01*
X132597174Y-105719709D01*
X132791583Y-105750500D01*
X132791584Y-105750500D01*
X132988416Y-105750500D01*
X132988417Y-105750500D01*
X133182826Y-105719709D01*
X133370025Y-105658884D01*
X133545405Y-105569524D01*
X133704646Y-105453828D01*
X133843828Y-105314646D01*
X133959524Y-105155405D01*
X134048884Y-104980025D01*
X134081538Y-104879525D01*
X134116282Y-104835056D01*
X134171482Y-104823323D01*
X134221310Y-104849817D01*
G37*
%TD.AperFunction*%
%TA.AperFunction,Conductor*%
G36*
X112820000Y-105850000D02*
G01*
X113467827Y-105850000D01*
X113527373Y-105843598D01*
X113527374Y-105843598D01*
X113662086Y-105793353D01*
X113675114Y-105783601D01*
X113729134Y-105767272D01*
X113781011Y-105789486D01*
X113782892Y-105791309D01*
X115150246Y-107158664D01*
X115174096Y-107209810D01*
X115159490Y-107264320D01*
X115113263Y-107296689D01*
X115091910Y-107299500D01*
X113633750Y-107299500D01*
X113580720Y-107280199D01*
X113575414Y-107275336D01*
X112290914Y-105990836D01*
X112267064Y-105939690D01*
X112281670Y-105885180D01*
X112296481Y-105874808D01*
X112295837Y-105874164D01*
X112320000Y-105850001D01*
X112320000Y-104933012D01*
X112377007Y-104965925D01*
X112504174Y-105000000D01*
X112635826Y-105000000D01*
X112762993Y-104965925D01*
X112820000Y-104933012D01*
X112820000Y-105850000D01*
G37*
%TD.AperFunction*%
%TA.AperFunction,Conductor*%
G36*
X120492142Y-98532830D02*
G01*
X120513251Y-98536553D01*
X120518035Y-98542254D01*
X120525031Y-98544801D01*
X120535748Y-98563363D01*
X120549526Y-98579783D01*
X120551415Y-98590500D01*
X120553248Y-98593674D01*
X120554501Y-98608000D01*
X120554501Y-98710379D01*
X120560907Y-98769976D01*
X120560910Y-98769986D01*
X120611204Y-98904833D01*
X120686586Y-99005529D01*
X120702915Y-99059549D01*
X120680700Y-99111426D01*
X120678878Y-99113306D01*
X120080185Y-99712001D01*
X119882686Y-99909500D01*
X119845644Y-99946542D01*
X119789500Y-100002685D01*
X119723608Y-100116812D01*
X119689500Y-100244107D01*
X119689500Y-103300992D01*
X119670199Y-103354022D01*
X119644454Y-103374500D01*
X119534594Y-103430476D01*
X119534591Y-103430478D01*
X119375364Y-103546163D01*
X119375349Y-103546176D01*
X119236176Y-103685349D01*
X119236163Y-103685364D01*
X119120474Y-103844597D01*
X119031117Y-104019970D01*
X118998462Y-104120473D01*
X118963718Y-104164943D01*
X118908518Y-104176676D01*
X118858690Y-104150182D01*
X118841538Y-104120473D01*
X118808882Y-104019970D01*
X118719525Y-103844597D01*
X118603836Y-103685364D01*
X118603831Y-103685358D01*
X118603828Y-103685354D01*
X118464646Y-103546172D01*
X118464642Y-103546169D01*
X118464635Y-103546163D01*
X118305408Y-103430478D01*
X118305405Y-103430476D01*
X118195546Y-103374500D01*
X118157058Y-103333227D01*
X118150500Y-103300992D01*
X118150500Y-99591486D01*
X118169801Y-99538456D01*
X118174664Y-99533150D01*
X119158150Y-98549664D01*
X119209296Y-98525814D01*
X119216486Y-98525500D01*
X120472001Y-98525500D01*
X120492142Y-98532830D01*
G37*
%TD.AperFunction*%
%TA.AperFunction,Conductor*%
G36*
X121919320Y-99384906D02*
G01*
X121951689Y-99431133D01*
X121954500Y-99452486D01*
X121954500Y-101420892D01*
X121988608Y-101548187D01*
X122054500Y-101662314D01*
X122054504Y-101662319D01*
X123696614Y-103304427D01*
X123696619Y-103304433D01*
X123696620Y-103304433D01*
X123699498Y-103307311D01*
X123699500Y-103307314D01*
X123792686Y-103400500D01*
X123906814Y-103466392D01*
X124034107Y-103500500D01*
X124034108Y-103500500D01*
X124301854Y-103500500D01*
X124354884Y-103519801D01*
X124383101Y-103568674D01*
X124373301Y-103624250D01*
X124360190Y-103641336D01*
X124316176Y-103685349D01*
X124316163Y-103685364D01*
X124200474Y-103844597D01*
X124111117Y-104019970D01*
X124078462Y-104120473D01*
X124043718Y-104164943D01*
X123988518Y-104176676D01*
X123938690Y-104150182D01*
X123921538Y-104120473D01*
X123888882Y-104019970D01*
X123799525Y-103844597D01*
X123683836Y-103685364D01*
X123683831Y-103685358D01*
X123683828Y-103685354D01*
X123544646Y-103546172D01*
X123544642Y-103546169D01*
X123544635Y-103546163D01*
X123385402Y-103430474D01*
X123210029Y-103341117D01*
X123022832Y-103280292D01*
X123022822Y-103280290D01*
X122887081Y-103258791D01*
X122828417Y-103249500D01*
X122631583Y-103249500D01*
X122586517Y-103256637D01*
X122437177Y-103280290D01*
X122437167Y-103280292D01*
X122249970Y-103341117D01*
X122074597Y-103430474D01*
X121915364Y-103546163D01*
X121915349Y-103546176D01*
X121776176Y-103685349D01*
X121776163Y-103685364D01*
X121660474Y-103844597D01*
X121571117Y-104019970D01*
X121538462Y-104120473D01*
X121503718Y-104164943D01*
X121448518Y-104176676D01*
X121398690Y-104150182D01*
X121381538Y-104120473D01*
X121348882Y-104019970D01*
X121259525Y-103844597D01*
X121143836Y-103685364D01*
X121143831Y-103685358D01*
X121143828Y-103685354D01*
X121004646Y-103546172D01*
X121004642Y-103546169D01*
X121004635Y-103546163D01*
X120845408Y-103430478D01*
X120845405Y-103430476D01*
X120735546Y-103374500D01*
X120697058Y-103333227D01*
X120690500Y-103300992D01*
X120690500Y-100551486D01*
X120709801Y-100498456D01*
X120714664Y-100493150D01*
X121813664Y-99394150D01*
X121864810Y-99370300D01*
X121919320Y-99384906D01*
G37*
%TD.AperFunction*%
%TA.AperFunction,Conductor*%
G36*
X113241887Y-101340406D02*
G01*
X113258500Y-101390056D01*
X113258500Y-103067500D01*
X113239199Y-103120530D01*
X113190326Y-103148747D01*
X113176000Y-103150000D01*
X112820000Y-103150000D01*
X112820000Y-104066988D01*
X112762993Y-104034075D01*
X112635826Y-104000000D01*
X112504174Y-104000000D01*
X112377007Y-104034075D01*
X112320000Y-104066988D01*
X112320000Y-103150000D01*
X112002000Y-103150000D01*
X111948970Y-103130699D01*
X111920753Y-103081826D01*
X111919500Y-103067500D01*
X111919500Y-102131750D01*
X111938801Y-102078720D01*
X111943664Y-102073414D01*
X112527414Y-101489664D01*
X112578560Y-101465814D01*
X112585750Y-101465500D01*
X112660545Y-101465500D01*
X112660546Y-101465500D01*
X112839409Y-101437171D01*
X112839416Y-101437168D01*
X112839419Y-101437168D01*
X113011630Y-101381214D01*
X113011630Y-101381213D01*
X113011639Y-101381211D01*
X113138546Y-101316547D01*
X113194558Y-101309670D01*
X113241887Y-101340406D01*
G37*
%TD.AperFunction*%
%TA.AperFunction,Conductor*%
G36*
X134610228Y-96044054D02*
G01*
X134621244Y-96053298D01*
X134680499Y-96112553D01*
X134680503Y-96112556D01*
X134680509Y-96112561D01*
X134778170Y-96183515D01*
X134827006Y-96218996D01*
X134988361Y-96301211D01*
X134988365Y-96301212D01*
X134988369Y-96301214D01*
X135160580Y-96357168D01*
X135160584Y-96357168D01*
X135160591Y-96357171D01*
X135261453Y-96373146D01*
X135310810Y-96400504D01*
X135331034Y-96453188D01*
X135312662Y-96506547D01*
X135264289Y-96535613D01*
X135261453Y-96536113D01*
X135137294Y-96555778D01*
X135137284Y-96555780D01*
X134950162Y-96616581D01*
X134774865Y-96705898D01*
X134774852Y-96705907D01*
X134739873Y-96731319D01*
X134739873Y-96731321D01*
X135341414Y-97332861D01*
X135256306Y-97355667D01*
X135153694Y-97414910D01*
X135069910Y-97498694D01*
X135010667Y-97601306D01*
X134987862Y-97686414D01*
X134386321Y-97084873D01*
X134386319Y-97084873D01*
X134360907Y-97119852D01*
X134360898Y-97119865D01*
X134271581Y-97295162D01*
X134210780Y-97482284D01*
X134210778Y-97482294D01*
X134180000Y-97676623D01*
X134180000Y-97873376D01*
X134210778Y-98067705D01*
X134210780Y-98067715D01*
X134271581Y-98254837D01*
X134360898Y-98430134D01*
X134360908Y-98430149D01*
X134386319Y-98465125D01*
X134386321Y-98465125D01*
X134987861Y-97863584D01*
X135010667Y-97948694D01*
X135069910Y-98051306D01*
X135153694Y-98135090D01*
X135256306Y-98194333D01*
X135341413Y-98217137D01*
X134739873Y-98818677D01*
X134739873Y-98818678D01*
X134774859Y-98844096D01*
X134774865Y-98844101D01*
X134950162Y-98933418D01*
X135137284Y-98994219D01*
X135137294Y-98994221D01*
X135261453Y-99013886D01*
X135310810Y-99041245D01*
X135331034Y-99093930D01*
X135312662Y-99147289D01*
X135264289Y-99176354D01*
X135261453Y-99176854D01*
X135160594Y-99192828D01*
X135160580Y-99192831D01*
X134988369Y-99248785D01*
X134988360Y-99248789D01*
X134902885Y-99292341D01*
X134827006Y-99331004D01*
X134827003Y-99331005D01*
X134827001Y-99331007D01*
X134680509Y-99437438D01*
X134680494Y-99437451D01*
X134552451Y-99565494D01*
X134552438Y-99565509D01*
X134446007Y-99712001D01*
X134363789Y-99873360D01*
X134363785Y-99873369D01*
X134307831Y-100045580D01*
X134307828Y-100045594D01*
X134287279Y-100175336D01*
X134279500Y-100224454D01*
X134279500Y-100405546D01*
X134285597Y-100444039D01*
X134307828Y-100584405D01*
X134307831Y-100584419D01*
X134363785Y-100756630D01*
X134363789Y-100756639D01*
X134446004Y-100917994D01*
X134446007Y-100917998D01*
X134552438Y-101064490D01*
X134552444Y-101064497D01*
X134552447Y-101064501D01*
X134680499Y-101192553D01*
X134680503Y-101192556D01*
X134680509Y-101192561D01*
X134741499Y-101236872D01*
X134827006Y-101298996D01*
X134988361Y-101381211D01*
X134988365Y-101381212D01*
X134988369Y-101381214D01*
X135160580Y-101437168D01*
X135160585Y-101437169D01*
X135160591Y-101437171D01*
X135339454Y-101465500D01*
X135414250Y-101465500D01*
X135467280Y-101484801D01*
X135472586Y-101489664D01*
X136069154Y-102086232D01*
X136093004Y-102137378D01*
X136093318Y-102144568D01*
X136093318Y-103299880D01*
X136074017Y-103352910D01*
X136025144Y-103381127D01*
X135973364Y-103373388D01*
X135910029Y-103341117D01*
X135722832Y-103280292D01*
X135722822Y-103280290D01*
X135587081Y-103258791D01*
X135528417Y-103249500D01*
X135331583Y-103249500D01*
X135286517Y-103256637D01*
X135137177Y-103280290D01*
X135137167Y-103280292D01*
X135019910Y-103318392D01*
X134963511Y-103316423D01*
X134936080Y-103298266D01*
X133037319Y-101399504D01*
X133037314Y-101399500D01*
X132923187Y-101333608D01*
X132795892Y-101299500D01*
X130986520Y-101299500D01*
X130945270Y-101288447D01*
X130850287Y-101233608D01*
X130722992Y-101199500D01*
X130407486Y-101199500D01*
X130354456Y-101180199D01*
X130326239Y-101131326D01*
X130336039Y-101075750D01*
X130349150Y-101058664D01*
X131183149Y-100224664D01*
X131234295Y-100200814D01*
X131241485Y-100200500D01*
X131268990Y-100200500D01*
X131268993Y-100200500D01*
X131404328Y-100173580D01*
X131531811Y-100120775D01*
X131646542Y-100044114D01*
X131744114Y-99946542D01*
X131820775Y-99831811D01*
X131873580Y-99704328D01*
X131900500Y-99568993D01*
X131900500Y-99431007D01*
X131873580Y-99295672D01*
X131872462Y-99292974D01*
X131820775Y-99168189D01*
X131782847Y-99111426D01*
X131744114Y-99053458D01*
X131682598Y-98991942D01*
X131658749Y-98940796D01*
X131673355Y-98886285D01*
X131682593Y-98875276D01*
X134504572Y-96053298D01*
X134555718Y-96029448D01*
X134610228Y-96044054D01*
G37*
%TD.AperFunction*%
%TA.AperFunction,Conductor*%
G36*
X136905363Y-62851206D02*
G01*
X137005568Y-62864398D01*
X137026372Y-62869972D01*
X137114717Y-62906566D01*
X137133363Y-62917331D01*
X137209230Y-62975546D01*
X137224453Y-62990769D01*
X137282666Y-63066634D01*
X137293433Y-63085282D01*
X137330027Y-63173627D01*
X137335601Y-63194430D01*
X137348794Y-63294636D01*
X137349500Y-63305405D01*
X137349500Y-100903250D01*
X137330199Y-100956280D01*
X137281326Y-100984497D01*
X137225750Y-100974697D01*
X137208664Y-100961586D01*
X136604664Y-100357586D01*
X136580814Y-100306440D01*
X136580500Y-100299250D01*
X136580500Y-100224454D01*
X136573491Y-100180199D01*
X136552171Y-100045591D01*
X136552169Y-100045585D01*
X136552168Y-100045580D01*
X136496214Y-99873369D01*
X136496212Y-99873365D01*
X136496211Y-99873361D01*
X136413996Y-99712006D01*
X136310089Y-99568989D01*
X136307561Y-99565509D01*
X136307556Y-99565503D01*
X136307553Y-99565499D01*
X136179501Y-99437447D01*
X136179497Y-99437444D01*
X136179490Y-99437438D01*
X136032998Y-99331007D01*
X136032994Y-99331004D01*
X135871639Y-99248789D01*
X135871630Y-99248785D01*
X135699419Y-99192831D01*
X135699405Y-99192828D01*
X135598546Y-99176854D01*
X135549189Y-99149495D01*
X135528965Y-99096810D01*
X135547337Y-99043451D01*
X135595710Y-99014386D01*
X135598546Y-99013886D01*
X135722705Y-98994221D01*
X135722715Y-98994219D01*
X135909837Y-98933418D01*
X136085137Y-98844099D01*
X136120126Y-98818678D01*
X135518585Y-98217137D01*
X135603694Y-98194333D01*
X135706306Y-98135090D01*
X135790090Y-98051306D01*
X135849333Y-97948694D01*
X135872137Y-97863585D01*
X136473678Y-98465126D01*
X136499099Y-98430137D01*
X136588418Y-98254837D01*
X136649219Y-98067715D01*
X136649221Y-98067705D01*
X136680000Y-97873376D01*
X136680000Y-97676623D01*
X136649221Y-97482294D01*
X136649219Y-97482284D01*
X136588418Y-97295162D01*
X136499101Y-97119865D01*
X136499096Y-97119859D01*
X136473678Y-97084873D01*
X136473677Y-97084873D01*
X135872137Y-97686413D01*
X135849333Y-97601306D01*
X135790090Y-97498694D01*
X135706306Y-97414910D01*
X135603694Y-97355667D01*
X135518584Y-97332861D01*
X136120125Y-96731321D01*
X136120125Y-96731319D01*
X136085149Y-96705908D01*
X136085134Y-96705898D01*
X135909837Y-96616581D01*
X135722715Y-96555780D01*
X135722705Y-96555778D01*
X135598546Y-96536113D01*
X135549188Y-96508754D01*
X135528965Y-96456068D01*
X135547338Y-96402710D01*
X135595711Y-96373645D01*
X135598496Y-96373153D01*
X135699409Y-96357171D01*
X135699417Y-96357168D01*
X135699419Y-96357168D01*
X135871630Y-96301214D01*
X135871630Y-96301213D01*
X135871639Y-96301211D01*
X136032994Y-96218996D01*
X136179501Y-96112553D01*
X136307553Y-95984501D01*
X136413996Y-95837994D01*
X136496211Y-95676639D01*
X136507166Y-95642922D01*
X136552168Y-95504419D01*
X136552168Y-95504416D01*
X136552171Y-95504409D01*
X136580500Y-95325546D01*
X136580500Y-95144454D01*
X136552171Y-94965591D01*
X136552169Y-94965585D01*
X136552168Y-94965580D01*
X136496214Y-94793369D01*
X136496212Y-94793365D01*
X136496211Y-94793361D01*
X136413996Y-94632006D01*
X136345728Y-94538042D01*
X136307561Y-94485509D01*
X136307556Y-94485503D01*
X136307553Y-94485499D01*
X136179501Y-94357447D01*
X136179497Y-94357444D01*
X136179490Y-94357438D01*
X136032998Y-94251007D01*
X136032994Y-94251004D01*
X135871639Y-94168789D01*
X135871630Y-94168785D01*
X135699419Y-94112831D01*
X135699405Y-94112828D01*
X135574519Y-94093048D01*
X135520546Y-94084500D01*
X135339454Y-94084500D01*
X135297992Y-94091066D01*
X135160594Y-94112828D01*
X135160580Y-94112831D01*
X134988369Y-94168785D01*
X134988360Y-94168789D01*
X134902885Y-94212341D01*
X134827006Y-94251004D01*
X134827003Y-94251005D01*
X134827001Y-94251007D01*
X134680509Y-94357438D01*
X134680494Y-94357451D01*
X134552451Y-94485494D01*
X134552438Y-94485509D01*
X134446007Y-94632001D01*
X134446005Y-94632003D01*
X134446004Y-94632006D01*
X134430467Y-94662499D01*
X134368545Y-94784027D01*
X134336289Y-94818018D01*
X134307742Y-94834500D01*
X134307737Y-94834504D01*
X130603407Y-98538836D01*
X130552261Y-98562686D01*
X130545071Y-98563000D01*
X130288000Y-98563000D01*
X130234970Y-98543699D01*
X130206753Y-98494826D01*
X130205500Y-98480500D01*
X130205499Y-98166485D01*
X130224800Y-98113455D01*
X130229652Y-98108160D01*
X134679769Y-93658043D01*
X134730914Y-93634194D01*
X134785424Y-93648800D01*
X134786501Y-93649568D01*
X134827006Y-93678996D01*
X134988361Y-93761211D01*
X134988365Y-93761212D01*
X134988369Y-93761214D01*
X135160580Y-93817168D01*
X135160585Y-93817169D01*
X135160591Y-93817171D01*
X135339454Y-93845500D01*
X135339455Y-93845500D01*
X135520545Y-93845500D01*
X135520546Y-93845500D01*
X135699409Y-93817171D01*
X135699416Y-93817168D01*
X135699419Y-93817168D01*
X135871630Y-93761214D01*
X135871630Y-93761213D01*
X135871639Y-93761211D01*
X136032994Y-93678996D01*
X136179501Y-93572553D01*
X136307553Y-93444501D01*
X136413996Y-93297994D01*
X136496211Y-93136639D01*
X136496214Y-93136630D01*
X136552168Y-92964419D01*
X136552168Y-92964416D01*
X136552171Y-92964409D01*
X136580500Y-92785546D01*
X136580500Y-92604454D01*
X136552171Y-92425591D01*
X136552169Y-92425585D01*
X136552168Y-92425580D01*
X136496214Y-92253369D01*
X136496212Y-92253365D01*
X136496211Y-92253361D01*
X136413996Y-92092006D01*
X136348315Y-92001603D01*
X136307561Y-91945509D01*
X136307556Y-91945503D01*
X136307553Y-91945499D01*
X136179501Y-91817447D01*
X136179497Y-91817444D01*
X136179490Y-91817438D01*
X136032998Y-91711007D01*
X136032994Y-91711004D01*
X135871639Y-91628789D01*
X135871630Y-91628785D01*
X135699419Y-91572831D01*
X135699405Y-91572828D01*
X135574519Y-91553048D01*
X135520546Y-91544500D01*
X135339454Y-91544500D01*
X135297992Y-91551066D01*
X135160594Y-91572828D01*
X135160580Y-91572831D01*
X134988369Y-91628785D01*
X134988360Y-91628789D01*
X134902885Y-91672341D01*
X134827006Y-91711004D01*
X134827003Y-91711005D01*
X134827001Y-91711007D01*
X134680509Y-91817438D01*
X134680494Y-91817451D01*
X134552451Y-91945494D01*
X134552438Y-91945509D01*
X134446007Y-92092001D01*
X134363789Y-92253360D01*
X134363785Y-92253369D01*
X134307831Y-92425580D01*
X134307828Y-92425594D01*
X134279500Y-92604454D01*
X134279500Y-92608513D01*
X134260199Y-92661543D01*
X134255336Y-92666849D01*
X130007509Y-96914675D01*
X129956363Y-96938525D01*
X129920343Y-96933638D01*
X129812479Y-96893407D01*
X129756692Y-96887410D01*
X129752873Y-96887000D01*
X129752872Y-96887000D01*
X129457120Y-96887000D01*
X129397520Y-96893408D01*
X129397517Y-96893408D01*
X129397517Y-96893409D01*
X129385027Y-96898067D01*
X129308829Y-96926486D01*
X129252398Y-96926932D01*
X129251171Y-96926486D01*
X129174972Y-96898067D01*
X129162483Y-96893409D01*
X129162482Y-96893408D01*
X129162480Y-96893408D01*
X129111036Y-96887877D01*
X129102873Y-96887000D01*
X129102872Y-96887000D01*
X128888000Y-96887000D01*
X128834970Y-96867699D01*
X128806753Y-96818826D01*
X128805500Y-96804500D01*
X128805500Y-93674611D01*
X128805500Y-93674608D01*
X128797555Y-93644958D01*
X128771392Y-93547314D01*
X128767747Y-93541000D01*
X128763077Y-93532911D01*
X128760333Y-93523979D01*
X128760644Y-93517885D01*
X128755000Y-93496815D01*
X128755000Y-92382500D01*
X128774301Y-92329470D01*
X128823174Y-92301253D01*
X128837500Y-92300000D01*
X128922001Y-92300000D01*
X128975031Y-92319301D01*
X129003248Y-92368174D01*
X129004501Y-92382500D01*
X129004501Y-92985379D01*
X129010907Y-93044976D01*
X129010910Y-93044986D01*
X129061204Y-93179833D01*
X129138544Y-93283144D01*
X129155000Y-93332585D01*
X129155000Y-93529511D01*
X129211626Y-93522057D01*
X129211633Y-93522055D01*
X129357586Y-93461600D01*
X129370589Y-93451622D01*
X129424410Y-93434649D01*
X129429629Y-93435043D01*
X129457127Y-93438000D01*
X129752872Y-93437999D01*
X129752879Y-93437999D01*
X129812476Y-93431592D01*
X129812477Y-93431591D01*
X129812483Y-93431591D01*
X129947331Y-93381296D01*
X130062546Y-93295046D01*
X130148796Y-93179831D01*
X130199091Y-93044983D01*
X130205500Y-92985373D01*
X130205499Y-91614628D01*
X130205499Y-91614627D01*
X130205499Y-91614620D01*
X130199092Y-91555023D01*
X130199091Y-91555019D01*
X130199091Y-91555017D01*
X130148796Y-91420169D01*
X130138147Y-91405944D01*
X130121956Y-91384315D01*
X130105500Y-91334874D01*
X130105500Y-91061486D01*
X130111660Y-91044560D01*
X130113230Y-91026620D01*
X130123558Y-91011869D01*
X130124801Y-91008456D01*
X130129664Y-91003150D01*
X130133151Y-90999663D01*
X130184297Y-90975813D01*
X130191487Y-90975499D01*
X130326925Y-90975499D01*
X130326934Y-90975499D01*
X130351963Y-90973529D01*
X130406341Y-90988610D01*
X130434653Y-91024204D01*
X130479224Y-91131811D01*
X130555886Y-91246542D01*
X130653457Y-91344113D01*
X130653456Y-91344113D01*
X130745993Y-91405944D01*
X130768189Y-91420775D01*
X130895672Y-91473580D01*
X131031007Y-91500500D01*
X131031010Y-91500500D01*
X131168990Y-91500500D01*
X131168993Y-91500500D01*
X131304328Y-91473580D01*
X131431811Y-91420775D01*
X131546542Y-91344114D01*
X131644114Y-91246542D01*
X131720775Y-91131811D01*
X131773580Y-91004328D01*
X131800500Y-90868993D01*
X131800500Y-90731007D01*
X131773580Y-90595672D01*
X131720775Y-90468189D01*
X131644114Y-90353458D01*
X131624664Y-90334008D01*
X131600814Y-90282862D01*
X131600500Y-90275672D01*
X131600500Y-90064454D01*
X134279500Y-90064454D01*
X134279500Y-90245546D01*
X134285410Y-90282862D01*
X134307828Y-90424405D01*
X134307831Y-90424419D01*
X134363785Y-90596630D01*
X134363789Y-90596639D01*
X134446004Y-90757994D01*
X134446007Y-90757998D01*
X134552438Y-90904490D01*
X134552444Y-90904497D01*
X134552447Y-90904501D01*
X134680499Y-91032553D01*
X134680503Y-91032556D01*
X134680509Y-91032561D01*
X134766899Y-91095326D01*
X134827006Y-91138996D01*
X134988361Y-91221211D01*
X134988365Y-91221212D01*
X134988369Y-91221214D01*
X135160580Y-91277168D01*
X135160585Y-91277169D01*
X135160591Y-91277171D01*
X135339454Y-91305500D01*
X135339455Y-91305500D01*
X135520545Y-91305500D01*
X135520546Y-91305500D01*
X135699409Y-91277171D01*
X135699416Y-91277168D01*
X135699419Y-91277168D01*
X135871630Y-91221214D01*
X135871630Y-91221213D01*
X135871639Y-91221211D01*
X136032994Y-91138996D01*
X136179501Y-91032553D01*
X136307553Y-90904501D01*
X136413996Y-90757994D01*
X136496211Y-90596639D01*
X136531624Y-90487648D01*
X136552168Y-90424419D01*
X136552168Y-90424416D01*
X136552171Y-90424409D01*
X136580500Y-90245546D01*
X136580500Y-90064454D01*
X136552171Y-89885591D01*
X136552169Y-89885585D01*
X136552168Y-89885580D01*
X136496214Y-89713369D01*
X136496212Y-89713365D01*
X136496211Y-89713361D01*
X136413996Y-89552006D01*
X136378515Y-89503170D01*
X136307561Y-89405509D01*
X136307556Y-89405503D01*
X136307553Y-89405499D01*
X136179501Y-89277447D01*
X136179497Y-89277444D01*
X136179490Y-89277438D01*
X136032998Y-89171007D01*
X136032994Y-89171004D01*
X135871639Y-89088789D01*
X135871630Y-89088785D01*
X135699419Y-89032831D01*
X135699405Y-89032828D01*
X135574519Y-89013048D01*
X135520546Y-89004500D01*
X135339454Y-89004500D01*
X135297992Y-89011066D01*
X135160594Y-89032828D01*
X135160580Y-89032831D01*
X134988369Y-89088785D01*
X134988360Y-89088789D01*
X134970136Y-89098075D01*
X134827006Y-89171004D01*
X134827003Y-89171005D01*
X134827001Y-89171007D01*
X134680509Y-89277438D01*
X134680494Y-89277451D01*
X134552451Y-89405494D01*
X134552438Y-89405509D01*
X134446007Y-89552001D01*
X134446005Y-89552003D01*
X134446004Y-89552006D01*
X134407341Y-89627885D01*
X134363789Y-89713360D01*
X134363785Y-89713369D01*
X134307831Y-89885580D01*
X134307828Y-89885594D01*
X134299758Y-89936547D01*
X134279500Y-90064454D01*
X131600500Y-90064454D01*
X131600500Y-89634112D01*
X131600500Y-89634108D01*
X131566392Y-89506814D01*
X131500500Y-89392686D01*
X131407314Y-89299500D01*
X131107314Y-88999500D01*
X131035477Y-88927663D01*
X130957319Y-88849504D01*
X130957314Y-88849500D01*
X130843187Y-88783608D01*
X130715892Y-88749500D01*
X129965892Y-88749500D01*
X129515892Y-88749500D01*
X126991486Y-88749500D01*
X126938456Y-88730199D01*
X126933150Y-88725336D01*
X126484664Y-88276850D01*
X126460814Y-88225704D01*
X126460500Y-88218514D01*
X126460500Y-88004793D01*
X126479801Y-87951763D01*
X126528674Y-87923546D01*
X126530095Y-87923309D01*
X126530376Y-87923264D01*
X126552826Y-87919709D01*
X126740025Y-87858884D01*
X126915405Y-87769524D01*
X127074646Y-87653828D01*
X127213828Y-87514646D01*
X127329524Y-87355405D01*
X127393492Y-87229858D01*
X127434764Y-87191372D01*
X127491120Y-87188418D01*
X127536190Y-87222380D01*
X127549500Y-87267313D01*
X127549500Y-87581513D01*
X127564354Y-87675305D01*
X127621948Y-87788339D01*
X127621950Y-87788342D01*
X127711658Y-87878050D01*
X127711660Y-87878051D01*
X127800948Y-87923546D01*
X127824696Y-87935646D01*
X127824699Y-87935647D01*
X127860719Y-87941351D01*
X127918481Y-87950500D01*
X129681518Y-87950499D01*
X129775304Y-87935646D01*
X129888342Y-87878050D01*
X129978050Y-87788342D01*
X129978053Y-87788334D01*
X129980839Y-87784503D01*
X130027627Y-87752949D01*
X130047580Y-87750500D01*
X131725672Y-87750500D01*
X131778702Y-87769801D01*
X131784008Y-87774664D01*
X131803457Y-87794113D01*
X131803456Y-87794113D01*
X131918189Y-87870775D01*
X132036326Y-87919709D01*
X132045672Y-87923580D01*
X132181007Y-87950500D01*
X132181010Y-87950500D01*
X132318990Y-87950500D01*
X132318993Y-87950500D01*
X132454328Y-87923580D01*
X132581811Y-87870775D01*
X132696542Y-87794114D01*
X132794114Y-87696542D01*
X132870775Y-87581811D01*
X132894533Y-87524454D01*
X134279500Y-87524454D01*
X134279500Y-87705545D01*
X134307828Y-87884405D01*
X134307831Y-87884419D01*
X134363785Y-88056630D01*
X134363789Y-88056639D01*
X134446004Y-88217994D01*
X134446007Y-88217998D01*
X134552438Y-88364490D01*
X134552444Y-88364497D01*
X134552447Y-88364501D01*
X134680499Y-88492553D01*
X134680503Y-88492556D01*
X134680509Y-88492561D01*
X134728389Y-88527347D01*
X134827006Y-88598996D01*
X134988361Y-88681211D01*
X134988365Y-88681212D01*
X134988369Y-88681214D01*
X135160580Y-88737168D01*
X135160585Y-88737169D01*
X135160591Y-88737171D01*
X135339454Y-88765500D01*
X135339455Y-88765500D01*
X135520545Y-88765500D01*
X135520546Y-88765500D01*
X135699409Y-88737171D01*
X135699416Y-88737168D01*
X135699419Y-88737168D01*
X135871630Y-88681214D01*
X135871630Y-88681213D01*
X135871639Y-88681211D01*
X136032994Y-88598996D01*
X136179501Y-88492553D01*
X136307553Y-88364501D01*
X136413996Y-88217994D01*
X136496211Y-88056639D01*
X136530697Y-87950500D01*
X136552168Y-87884419D01*
X136552168Y-87884416D01*
X136552171Y-87884409D01*
X136580500Y-87705546D01*
X136580500Y-87524454D01*
X136552171Y-87345591D01*
X136552169Y-87345585D01*
X136552168Y-87345580D01*
X136496214Y-87173369D01*
X136496212Y-87173365D01*
X136496211Y-87173361D01*
X136413996Y-87012006D01*
X136378515Y-86963170D01*
X136307561Y-86865509D01*
X136307556Y-86865503D01*
X136307553Y-86865499D01*
X136179501Y-86737447D01*
X136179497Y-86737444D01*
X136179490Y-86737438D01*
X136032998Y-86631007D01*
X136032994Y-86631004D01*
X135871639Y-86548789D01*
X135871630Y-86548785D01*
X135699419Y-86492831D01*
X135699405Y-86492828D01*
X135574519Y-86473048D01*
X135520546Y-86464500D01*
X135339454Y-86464500D01*
X135297992Y-86471066D01*
X135160594Y-86492828D01*
X135160580Y-86492831D01*
X134988369Y-86548785D01*
X134988360Y-86548789D01*
X134934132Y-86576420D01*
X134827006Y-86631004D01*
X134827003Y-86631005D01*
X134827001Y-86631007D01*
X134680509Y-86737438D01*
X134680494Y-86737451D01*
X134552451Y-86865494D01*
X134552438Y-86865509D01*
X134446007Y-87012001D01*
X134363789Y-87173360D01*
X134363785Y-87173369D01*
X134307831Y-87345580D01*
X134307828Y-87345594D01*
X134279500Y-87524454D01*
X132894533Y-87524454D01*
X132923580Y-87454328D01*
X132950500Y-87318993D01*
X132950500Y-87181007D01*
X132923580Y-87045672D01*
X132870775Y-86918189D01*
X132794114Y-86803458D01*
X132696542Y-86705886D01*
X132696543Y-86705886D01*
X132581810Y-86629224D01*
X132454332Y-86576421D01*
X132454328Y-86576420D01*
X132318993Y-86549500D01*
X132181007Y-86549500D01*
X132045672Y-86576420D01*
X132045667Y-86576421D01*
X131918189Y-86629224D01*
X131803457Y-86705886D01*
X131784008Y-86725336D01*
X131732862Y-86749186D01*
X131725672Y-86749500D01*
X130133000Y-86749500D01*
X130079970Y-86730199D01*
X130051753Y-86681326D01*
X130050500Y-86667000D01*
X130050499Y-85818486D01*
X130050499Y-85818482D01*
X130035646Y-85724696D01*
X130022681Y-85699250D01*
X130020747Y-85695454D01*
X130013870Y-85639441D01*
X130044605Y-85592112D01*
X130094255Y-85575500D01*
X134343224Y-85575500D01*
X134396254Y-85594801D01*
X134416731Y-85620544D01*
X134446004Y-85677994D01*
X134446007Y-85677998D01*
X134446009Y-85678001D01*
X134552438Y-85824490D01*
X134552444Y-85824497D01*
X134552447Y-85824501D01*
X134680499Y-85952553D01*
X134680503Y-85952556D01*
X134680509Y-85952561D01*
X134778170Y-86023515D01*
X134827006Y-86058996D01*
X134988361Y-86141211D01*
X134988365Y-86141212D01*
X134988369Y-86141214D01*
X135160580Y-86197168D01*
X135160585Y-86197169D01*
X135160591Y-86197171D01*
X135339454Y-86225500D01*
X135339455Y-86225500D01*
X135520545Y-86225500D01*
X135520546Y-86225500D01*
X135699409Y-86197171D01*
X135699416Y-86197168D01*
X135699419Y-86197168D01*
X135871630Y-86141214D01*
X135871630Y-86141213D01*
X135871639Y-86141211D01*
X136032994Y-86058996D01*
X136179501Y-85952553D01*
X136307553Y-85824501D01*
X136413996Y-85677994D01*
X136496211Y-85516639D01*
X136521628Y-85438412D01*
X136552168Y-85344419D01*
X136552168Y-85344416D01*
X136552171Y-85344409D01*
X136580500Y-85165546D01*
X136580500Y-84984454D01*
X136552171Y-84805591D01*
X136552169Y-84805585D01*
X136552168Y-84805580D01*
X136496214Y-84633369D01*
X136496212Y-84633365D01*
X136496211Y-84633361D01*
X136413996Y-84472006D01*
X136378515Y-84423170D01*
X136307561Y-84325509D01*
X136307556Y-84325503D01*
X136307553Y-84325499D01*
X136179501Y-84197447D01*
X136179497Y-84197444D01*
X136179490Y-84197438D01*
X136032998Y-84091007D01*
X136032994Y-84091004D01*
X135871639Y-84008789D01*
X135871630Y-84008785D01*
X135699419Y-83952831D01*
X135699405Y-83952828D01*
X135574519Y-83933048D01*
X135520546Y-83924500D01*
X135339454Y-83924500D01*
X135297992Y-83931066D01*
X135160594Y-83952828D01*
X135160580Y-83952831D01*
X134988369Y-84008785D01*
X134988360Y-84008789D01*
X134902885Y-84052341D01*
X134827006Y-84091004D01*
X134827003Y-84091005D01*
X134827001Y-84091007D01*
X134680509Y-84197438D01*
X134680494Y-84197451D01*
X134552451Y-84325494D01*
X134552438Y-84325509D01*
X134446009Y-84471998D01*
X134446002Y-84472009D01*
X134416732Y-84529455D01*
X134375459Y-84567942D01*
X134343224Y-84574500D01*
X124859106Y-84574500D01*
X124731812Y-84608608D01*
X124617685Y-84674500D01*
X124617684Y-84674500D01*
X124516335Y-84775850D01*
X124465189Y-84799699D01*
X124410679Y-84785093D01*
X124378310Y-84738865D01*
X124375499Y-84717520D01*
X124375499Y-83998066D01*
X124372654Y-83961902D01*
X124327681Y-83807106D01*
X124245626Y-83668357D01*
X124205961Y-83628692D01*
X124182112Y-83577548D01*
X124196717Y-83523038D01*
X124205962Y-83512020D01*
X124319941Y-83398040D01*
X124319943Y-83398038D01*
X124410451Y-83251306D01*
X124464681Y-83087648D01*
X124474999Y-82986642D01*
X124475000Y-82986641D01*
X124475000Y-82887500D01*
X122525001Y-82887500D01*
X122525001Y-82986643D01*
X122535318Y-83087648D01*
X122589548Y-83251306D01*
X122680056Y-83398038D01*
X122680061Y-83398045D01*
X122794036Y-83512020D01*
X122817886Y-83563166D01*
X122803280Y-83617676D01*
X122794038Y-83628691D01*
X122754374Y-83668355D01*
X122672320Y-83807104D01*
X122672317Y-83807110D01*
X122627346Y-83961900D01*
X122624500Y-83998061D01*
X122624500Y-84726924D01*
X122624501Y-84726942D01*
X122627345Y-84763092D01*
X122627347Y-84763103D01*
X122672317Y-84917889D01*
X122672318Y-84917891D01*
X122672319Y-84917894D01*
X122672320Y-84917895D01*
X122754376Y-85056646D01*
X122811621Y-85113891D01*
X122835471Y-85165037D01*
X122820865Y-85219547D01*
X122811622Y-85230563D01*
X122566848Y-85475336D01*
X122515705Y-85499186D01*
X122508514Y-85499500D01*
X121083000Y-85499500D01*
X121062858Y-85492169D01*
X121041750Y-85488447D01*
X121036965Y-85482745D01*
X121029970Y-85480199D01*
X121019252Y-85461636D01*
X121005475Y-85445217D01*
X121003585Y-85434499D01*
X121001753Y-85431326D01*
X121000500Y-85417000D01*
X121000500Y-85395239D01*
X121019801Y-85342209D01*
X121041001Y-85324230D01*
X121131643Y-85270626D01*
X121245626Y-85156643D01*
X121327681Y-85017894D01*
X121372654Y-84863098D01*
X121375500Y-84826935D01*
X121375499Y-84198066D01*
X121372654Y-84161902D01*
X121327681Y-84007106D01*
X121245626Y-83868357D01*
X121245624Y-83868355D01*
X121245623Y-83868353D01*
X121131645Y-83754375D01*
X121089069Y-83729196D01*
X121053249Y-83685588D01*
X121053840Y-83629158D01*
X121087755Y-83587968D01*
X121198035Y-83519946D01*
X121198045Y-83519938D01*
X121319938Y-83398045D01*
X121319943Y-83398038D01*
X121410451Y-83251306D01*
X121464681Y-83087648D01*
X121474999Y-82986642D01*
X121475000Y-82986641D01*
X121475000Y-82937500D01*
X119525001Y-82937500D01*
X119525001Y-82986643D01*
X119535318Y-83087648D01*
X119589548Y-83251306D01*
X119680056Y-83398038D01*
X119680061Y-83398045D01*
X119801954Y-83519938D01*
X119801960Y-83519943D01*
X119912245Y-83587968D01*
X119947247Y-83632235D01*
X119945605Y-83688645D01*
X119910931Y-83729196D01*
X119868352Y-83754377D01*
X119754376Y-83868353D01*
X119672320Y-84007104D01*
X119672317Y-84007110D01*
X119627346Y-84161900D01*
X119624500Y-84198061D01*
X119624500Y-84826924D01*
X119624501Y-84826942D01*
X119627345Y-84863092D01*
X119627347Y-84863103D01*
X119672317Y-85017889D01*
X119672318Y-85017891D01*
X119672319Y-85017894D01*
X119725308Y-85107494D01*
X119754376Y-85156646D01*
X119868352Y-85270622D01*
X119868354Y-85270623D01*
X119868357Y-85270626D01*
X119958996Y-85324228D01*
X119976644Y-85345713D01*
X119994525Y-85367022D01*
X119994627Y-85367606D01*
X119994816Y-85367835D01*
X119999500Y-85395239D01*
X119999500Y-85417000D01*
X119980199Y-85470030D01*
X119931326Y-85498247D01*
X119917000Y-85499500D01*
X118491486Y-85499500D01*
X118438456Y-85480199D01*
X118433150Y-85475336D01*
X118116454Y-85158640D01*
X118092604Y-85107494D01*
X118103779Y-85058308D01*
X118127681Y-85017894D01*
X118172654Y-84863098D01*
X118175500Y-84826935D01*
X118175499Y-84198066D01*
X118172654Y-84161902D01*
X118127681Y-84007106D01*
X118045626Y-83868357D01*
X118045624Y-83868355D01*
X118045623Y-83868353D01*
X117931647Y-83754377D01*
X117931644Y-83754375D01*
X117931643Y-83754374D01*
X117792894Y-83672319D01*
X117792890Y-83672317D01*
X117790682Y-83671012D01*
X117754861Y-83627404D01*
X117755452Y-83570974D01*
X117790682Y-83528988D01*
X117792890Y-83527682D01*
X117792894Y-83527681D01*
X117931643Y-83445626D01*
X118045626Y-83331643D01*
X118127681Y-83192894D01*
X118172654Y-83038098D01*
X118175500Y-83001935D01*
X118175499Y-82388357D01*
X119525000Y-82388357D01*
X119525000Y-82437500D01*
X120250000Y-82437500D01*
X120750000Y-82437500D01*
X121474999Y-82437500D01*
X121474999Y-82388359D01*
X121474998Y-82388356D01*
X121465425Y-82294637D01*
X121465425Y-82294635D01*
X121464784Y-82288357D01*
X122525000Y-82288357D01*
X122525000Y-82387500D01*
X123250000Y-82387500D01*
X123750000Y-82387500D01*
X124474999Y-82387500D01*
X124474999Y-82288359D01*
X124474998Y-82288356D01*
X124464681Y-82187351D01*
X124410451Y-82023693D01*
X124319943Y-81876961D01*
X124319938Y-81876954D01*
X124198045Y-81755061D01*
X124198038Y-81755056D01*
X124051306Y-81664548D01*
X123887648Y-81610318D01*
X123786642Y-81600000D01*
X123750000Y-81600000D01*
X123750000Y-82387500D01*
X123250000Y-82387500D01*
X123250000Y-81600000D01*
X123249999Y-81599999D01*
X123213361Y-81600000D01*
X123213355Y-81600001D01*
X123112351Y-81610318D01*
X122948693Y-81664548D01*
X122801961Y-81755056D01*
X122801954Y-81755061D01*
X122680061Y-81876954D01*
X122680056Y-81876961D01*
X122589548Y-82023693D01*
X122535318Y-82187351D01*
X122525000Y-82288357D01*
X121464784Y-82288357D01*
X121464681Y-82287352D01*
X121410451Y-82123693D01*
X121319943Y-81976961D01*
X121319938Y-81976954D01*
X121198045Y-81855061D01*
X121198038Y-81855056D01*
X121051306Y-81764548D01*
X120887648Y-81710318D01*
X120786642Y-81700000D01*
X120750000Y-81700000D01*
X120750000Y-82437500D01*
X120250000Y-82437500D01*
X120250000Y-81700000D01*
X120249999Y-81699999D01*
X120213361Y-81700000D01*
X120213355Y-81700001D01*
X120112351Y-81710318D01*
X119948693Y-81764548D01*
X119801961Y-81855056D01*
X119801954Y-81855061D01*
X119680061Y-81976954D01*
X119680056Y-81976961D01*
X119589548Y-82123693D01*
X119535318Y-82287351D01*
X119525000Y-82388357D01*
X118175499Y-82388357D01*
X118175499Y-82373066D01*
X118172654Y-82336902D01*
X118127681Y-82182106D01*
X118045626Y-82043357D01*
X118045624Y-82043355D01*
X118045623Y-82043353D01*
X117931646Y-81929376D01*
X117843016Y-81876961D01*
X117792894Y-81847319D01*
X117792891Y-81847318D01*
X117792889Y-81847317D01*
X117638099Y-81802346D01*
X117601938Y-81799500D01*
X117601935Y-81799500D01*
X117153986Y-81799500D01*
X117100956Y-81780199D01*
X117095650Y-81775336D01*
X115274664Y-79954350D01*
X115250814Y-79903204D01*
X115250500Y-79896014D01*
X115250500Y-73599518D01*
X115269801Y-73546488D01*
X115274664Y-73541182D01*
X116458664Y-72357182D01*
X116509810Y-72333332D01*
X116564320Y-72347938D01*
X116596689Y-72394165D01*
X116599500Y-72415518D01*
X116599500Y-72818102D01*
X116608815Y-72895672D01*
X116610123Y-72906563D01*
X116610123Y-72906565D01*
X116665637Y-73047339D01*
X116665638Y-73047341D01*
X116665639Y-73047342D01*
X116757078Y-73167922D01*
X116797439Y-73198528D01*
X116804349Y-73203768D01*
X116834941Y-73251190D01*
X116837000Y-73269505D01*
X116837000Y-74622367D01*
X116817699Y-74675397D01*
X116796496Y-74693378D01*
X116693354Y-74754375D01*
X116579376Y-74868353D01*
X116497320Y-75007104D01*
X116497317Y-75007110D01*
X116452346Y-75161900D01*
X116449500Y-75198061D01*
X116449500Y-75801924D01*
X116449501Y-75801942D01*
X116452345Y-75838092D01*
X116452347Y-75838103D01*
X116497317Y-75992889D01*
X116497318Y-75992891D01*
X116497319Y-75992894D01*
X116579374Y-76131643D01*
X116579376Y-76131646D01*
X116693352Y-76245622D01*
X116693354Y-76245623D01*
X116693357Y-76245626D01*
X116796496Y-76306621D01*
X116832316Y-76350228D01*
X116837000Y-76377632D01*
X116837000Y-76903392D01*
X116871108Y-77030687D01*
X116937000Y-77144814D01*
X116937004Y-77144819D01*
X117525336Y-77733150D01*
X117549186Y-77784296D01*
X117549500Y-77791486D01*
X117549500Y-78443102D01*
X117550593Y-78452201D01*
X117551189Y-78457167D01*
X117538346Y-78512119D01*
X117493185Y-78545960D01*
X117469277Y-78549500D01*
X117106898Y-78549500D01*
X117018436Y-78560123D01*
X117018434Y-78560123D01*
X116877660Y-78615637D01*
X116877654Y-78615641D01*
X116757078Y-78707076D01*
X116757076Y-78707078D01*
X116665641Y-78827654D01*
X116665637Y-78827660D01*
X116610123Y-78968434D01*
X116610123Y-78968436D01*
X116599500Y-79056898D01*
X116599500Y-80318102D01*
X116610123Y-80406563D01*
X116610123Y-80406565D01*
X116665637Y-80547339D01*
X116665641Y-80547345D01*
X116757076Y-80667921D01*
X116757078Y-80667923D01*
X116877654Y-80759358D01*
X116877660Y-80759362D01*
X116888075Y-80763469D01*
X117018436Y-80814877D01*
X117106898Y-80825500D01*
X117106906Y-80825500D01*
X117493094Y-80825500D01*
X117493102Y-80825500D01*
X117581564Y-80814877D01*
X117630195Y-80795698D01*
X117686608Y-80794200D01*
X117718796Y-80814111D01*
X118306237Y-81401552D01*
X118306242Y-81401556D01*
X118306243Y-81401557D01*
X118420371Y-81467449D01*
X118547664Y-81501557D01*
X118547665Y-81501557D01*
X118547668Y-81501557D01*
X119964888Y-81501557D01*
X119964892Y-81501557D01*
X120092186Y-81467449D01*
X120206314Y-81401557D01*
X120434207Y-81173664D01*
X120485352Y-81149814D01*
X120492543Y-81149500D01*
X133302514Y-81149500D01*
X133355544Y-81168801D01*
X133360850Y-81173664D01*
X134307626Y-82120440D01*
X134331476Y-82171586D01*
X134327753Y-82204269D01*
X134307829Y-82265591D01*
X134307828Y-82265594D01*
X134279500Y-82444454D01*
X134279500Y-82625545D01*
X134307828Y-82804405D01*
X134307831Y-82804419D01*
X134363785Y-82976630D01*
X134363789Y-82976639D01*
X134446004Y-83137994D01*
X134446007Y-83137998D01*
X134552438Y-83284490D01*
X134552444Y-83284497D01*
X134552447Y-83284501D01*
X134680499Y-83412553D01*
X134680503Y-83412556D01*
X134680509Y-83412561D01*
X134726020Y-83445626D01*
X134827006Y-83518996D01*
X134988361Y-83601211D01*
X134988365Y-83601212D01*
X134988369Y-83601214D01*
X135160580Y-83657168D01*
X135160585Y-83657169D01*
X135160591Y-83657171D01*
X135339454Y-83685500D01*
X135339455Y-83685500D01*
X135520545Y-83685500D01*
X135520546Y-83685500D01*
X135699409Y-83657171D01*
X135699416Y-83657168D01*
X135699419Y-83657168D01*
X135871630Y-83601214D01*
X135871630Y-83601213D01*
X135871639Y-83601211D01*
X136032994Y-83518996D01*
X136179501Y-83412553D01*
X136307553Y-83284501D01*
X136413996Y-83137994D01*
X136496211Y-82976639D01*
X136552171Y-82804409D01*
X136580500Y-82625546D01*
X136580500Y-82444454D01*
X136552171Y-82265591D01*
X136552169Y-82265585D01*
X136552168Y-82265580D01*
X136496214Y-82093369D01*
X136496212Y-82093365D01*
X136496211Y-82093361D01*
X136413996Y-81932006D01*
X136373999Y-81876954D01*
X136307561Y-81785509D01*
X136307556Y-81785503D01*
X136307553Y-81785499D01*
X136179501Y-81657447D01*
X136179497Y-81657444D01*
X136179490Y-81657438D01*
X136032998Y-81551007D01*
X136032994Y-81551004D01*
X135871639Y-81468789D01*
X135871630Y-81468785D01*
X135699419Y-81412831D01*
X135699405Y-81412828D01*
X135574519Y-81393048D01*
X135520546Y-81384500D01*
X135339454Y-81384500D01*
X135297992Y-81391066D01*
X135160594Y-81412828D01*
X135160591Y-81412829D01*
X135099269Y-81432753D01*
X135042870Y-81430782D01*
X135015440Y-81412626D01*
X134671588Y-81068773D01*
X134647738Y-81017627D01*
X134662344Y-80963117D01*
X134708572Y-80930748D01*
X134764790Y-80935667D01*
X134778408Y-80943687D01*
X134827006Y-80978996D01*
X134988361Y-81061211D01*
X134988365Y-81061212D01*
X134988369Y-81061214D01*
X135160580Y-81117168D01*
X135160585Y-81117169D01*
X135160591Y-81117171D01*
X135339454Y-81145500D01*
X135339455Y-81145500D01*
X135520545Y-81145500D01*
X135520546Y-81145500D01*
X135699409Y-81117171D01*
X135699416Y-81117168D01*
X135699419Y-81117168D01*
X135871630Y-81061214D01*
X135871630Y-81061213D01*
X135871639Y-81061211D01*
X136032994Y-80978996D01*
X136179501Y-80872553D01*
X136307553Y-80744501D01*
X136413996Y-80597994D01*
X136496211Y-80436639D01*
X136496214Y-80436630D01*
X136552168Y-80264419D01*
X136552168Y-80264416D01*
X136552171Y-80264409D01*
X136580500Y-80085546D01*
X136580500Y-79904454D01*
X136552171Y-79725591D01*
X136552169Y-79725585D01*
X136552168Y-79725580D01*
X136496214Y-79553369D01*
X136496212Y-79553365D01*
X136496211Y-79553361D01*
X136413996Y-79392006D01*
X136378515Y-79343170D01*
X136307561Y-79245509D01*
X136307556Y-79245503D01*
X136307553Y-79245499D01*
X136179501Y-79117447D01*
X136179497Y-79117444D01*
X136179490Y-79117438D01*
X136032998Y-79011007D01*
X136032994Y-79011004D01*
X135871639Y-78928789D01*
X135871630Y-78928785D01*
X135699419Y-78872831D01*
X135699405Y-78872828D01*
X135574519Y-78853048D01*
X135520546Y-78844500D01*
X135339454Y-78844500D01*
X135297992Y-78851066D01*
X135160594Y-78872828D01*
X135160580Y-78872831D01*
X134988369Y-78928785D01*
X134988360Y-78928789D01*
X134945751Y-78950500D01*
X134827006Y-79011004D01*
X134827003Y-79011005D01*
X134827001Y-79011007D01*
X134680509Y-79117438D01*
X134680494Y-79117451D01*
X134552451Y-79245494D01*
X134552438Y-79245509D01*
X134446007Y-79392001D01*
X134363789Y-79553360D01*
X134363785Y-79553369D01*
X134307831Y-79725580D01*
X134307828Y-79725594D01*
X134279500Y-79904454D01*
X134279500Y-80085545D01*
X134307828Y-80264405D01*
X134307831Y-80264419D01*
X134363785Y-80436630D01*
X134363789Y-80436639D01*
X134446004Y-80597994D01*
X134446007Y-80597998D01*
X134481305Y-80646582D01*
X134496860Y-80700829D01*
X134473906Y-80752383D01*
X134423184Y-80777122D01*
X134368427Y-80763469D01*
X134356225Y-80753410D01*
X133851319Y-80248504D01*
X133851314Y-80248500D01*
X133737187Y-80182608D01*
X133609892Y-80148500D01*
X120316950Y-80148500D01*
X120185165Y-80148500D01*
X120185164Y-80148500D01*
X120155010Y-80156579D01*
X120103850Y-80170287D01*
X120047634Y-80165369D01*
X120007730Y-80125465D01*
X120000000Y-80090599D01*
X120000000Y-79937500D01*
X118399999Y-79937500D01*
X118387242Y-79950257D01*
X118336095Y-79974106D01*
X118281585Y-79959499D01*
X118270570Y-79950256D01*
X118024664Y-79704350D01*
X118000814Y-79653204D01*
X118000500Y-79646014D01*
X118000500Y-79056902D01*
X117998811Y-79042833D01*
X118011654Y-78987881D01*
X118056815Y-78954040D01*
X118080723Y-78950500D01*
X118317500Y-78950500D01*
X118370530Y-78969801D01*
X118398747Y-79018674D01*
X118400000Y-79033000D01*
X118400000Y-79437500D01*
X118950000Y-79437500D01*
X119450000Y-79437500D01*
X120000000Y-79437500D01*
X120000000Y-79034364D01*
X119999999Y-79034354D01*
X119997099Y-78997507D01*
X119951283Y-78839805D01*
X119951280Y-78839800D01*
X119867682Y-78698442D01*
X119751557Y-78582317D01*
X119610199Y-78498719D01*
X119610194Y-78498716D01*
X119452491Y-78452900D01*
X119452493Y-78452900D01*
X119450000Y-78452703D01*
X119450000Y-79437500D01*
X118950000Y-79437500D01*
X118950000Y-78452201D01*
X118950008Y-78451042D01*
X118950069Y-78446690D01*
X118950500Y-78443102D01*
X118950500Y-77181898D01*
X118939877Y-77093436D01*
X118884361Y-76952658D01*
X118879723Y-76946542D01*
X118792923Y-76832078D01*
X118792921Y-76832076D01*
X118672345Y-76740641D01*
X118672339Y-76740637D01*
X118531564Y-76685123D01*
X118530215Y-76684961D01*
X118443102Y-76674500D01*
X118056898Y-76674500D01*
X118002459Y-76681037D01*
X117968431Y-76685123D01*
X117964622Y-76686626D01*
X117959727Y-76686755D01*
X117955715Y-76689565D01*
X117932004Y-76687490D01*
X117908209Y-76688121D01*
X117903101Y-76684961D01*
X117899496Y-76684646D01*
X117876026Y-76668212D01*
X117862164Y-76654350D01*
X117838314Y-76603204D01*
X117838000Y-76596014D01*
X117838000Y-76377632D01*
X117857301Y-76324602D01*
X117878501Y-76306623D01*
X117981643Y-76245626D01*
X118095626Y-76131643D01*
X118177681Y-75992894D01*
X118177682Y-75992890D01*
X118178988Y-75990682D01*
X118222596Y-75954861D01*
X118279026Y-75955452D01*
X118321012Y-75990682D01*
X118322317Y-75992890D01*
X118322319Y-75992894D01*
X118404374Y-76131643D01*
X118404375Y-76131644D01*
X118404377Y-76131647D01*
X118518353Y-76245623D01*
X118518355Y-76245624D01*
X118518357Y-76245626D01*
X118657106Y-76327681D01*
X118811902Y-76372654D01*
X118848065Y-76375500D01*
X119476934Y-76375499D01*
X119513098Y-76372654D01*
X119667894Y-76327681D01*
X119794739Y-76252665D01*
X119850207Y-76242285D01*
X119899373Y-76269988D01*
X119919228Y-76322813D01*
X119917648Y-76339771D01*
X119899500Y-76431007D01*
X119899500Y-76568993D01*
X119926420Y-76704326D01*
X119926420Y-76704327D01*
X119926421Y-76704332D01*
X119979224Y-76831810D01*
X120055886Y-76946542D01*
X120153457Y-77044113D01*
X120153456Y-77044113D01*
X120268189Y-77120775D01*
X120326236Y-77144819D01*
X120395672Y-77173580D01*
X120531007Y-77200500D01*
X120531010Y-77200500D01*
X120668990Y-77200500D01*
X120668993Y-77200500D01*
X120804328Y-77173580D01*
X120931811Y-77120775D01*
X121046542Y-77044114D01*
X121144114Y-76946542D01*
X121220775Y-76831811D01*
X121273580Y-76704328D01*
X121280455Y-76669760D01*
X121309731Y-76621516D01*
X121363169Y-76603376D01*
X121415765Y-76623829D01*
X121419706Y-76627520D01*
X122099500Y-77307314D01*
X122192686Y-77400500D01*
X122306814Y-77466392D01*
X122434108Y-77500500D01*
X122565893Y-77500500D01*
X126204760Y-77500500D01*
X126257790Y-77519801D01*
X126275770Y-77541003D01*
X126329374Y-77631643D01*
X126329376Y-77631646D01*
X126443353Y-77745623D01*
X126443355Y-77745624D01*
X126443357Y-77745626D01*
X126582106Y-77827681D01*
X126736902Y-77872654D01*
X126773065Y-77875500D01*
X127501934Y-77875499D01*
X127538098Y-77872654D01*
X127692894Y-77827681D01*
X127831643Y-77745626D01*
X127871308Y-77705960D01*
X127922451Y-77682112D01*
X127976961Y-77696717D01*
X127987978Y-77705962D01*
X128101954Y-77819938D01*
X128101961Y-77819943D01*
X128248693Y-77910451D01*
X128412351Y-77964681D01*
X128513357Y-77974999D01*
X128612499Y-77974999D01*
X129112500Y-77974999D01*
X129211641Y-77974999D01*
X129211643Y-77974998D01*
X129312648Y-77964681D01*
X129476306Y-77910451D01*
X129623038Y-77819943D01*
X129623045Y-77819938D01*
X129744938Y-77698045D01*
X129744943Y-77698038D01*
X129835451Y-77551306D01*
X129889681Y-77387647D01*
X129892050Y-77364454D01*
X134279500Y-77364454D01*
X134279500Y-77545545D01*
X134307828Y-77724405D01*
X134307831Y-77724419D01*
X134363785Y-77896630D01*
X134363789Y-77896639D01*
X134446004Y-78057994D01*
X134446007Y-78057998D01*
X134552438Y-78204490D01*
X134552444Y-78204497D01*
X134552447Y-78204501D01*
X134680499Y-78332553D01*
X134680503Y-78332556D01*
X134680509Y-78332561D01*
X134778170Y-78403515D01*
X134827006Y-78438996D01*
X134988361Y-78521211D01*
X134988365Y-78521212D01*
X134988369Y-78521214D01*
X135160580Y-78577168D01*
X135160585Y-78577169D01*
X135160591Y-78577171D01*
X135339454Y-78605500D01*
X135339455Y-78605500D01*
X135520545Y-78605500D01*
X135520546Y-78605500D01*
X135699409Y-78577171D01*
X135699416Y-78577168D01*
X135699419Y-78577168D01*
X135871630Y-78521214D01*
X135871630Y-78521213D01*
X135871639Y-78521211D01*
X136032994Y-78438996D01*
X136179501Y-78332553D01*
X136307553Y-78204501D01*
X136413996Y-78057994D01*
X136496211Y-77896639D01*
X136518616Y-77827682D01*
X136552168Y-77724419D01*
X136552168Y-77724416D01*
X136552171Y-77724409D01*
X136580500Y-77545546D01*
X136580500Y-77364454D01*
X136552171Y-77185591D01*
X136552169Y-77185585D01*
X136552168Y-77185580D01*
X136496214Y-77013369D01*
X136496212Y-77013365D01*
X136496211Y-77013361D01*
X136413996Y-76852006D01*
X136333084Y-76740639D01*
X136307561Y-76705509D01*
X136307556Y-76705503D01*
X136307553Y-76705499D01*
X136179501Y-76577447D01*
X136179497Y-76577444D01*
X136179490Y-76577438D01*
X136045474Y-76480071D01*
X136032994Y-76471004D01*
X135871639Y-76388789D01*
X135871630Y-76388785D01*
X135699419Y-76332831D01*
X135699405Y-76332828D01*
X135574519Y-76313048D01*
X135520546Y-76304500D01*
X135339454Y-76304500D01*
X135326069Y-76306620D01*
X135160594Y-76332828D01*
X135160580Y-76332831D01*
X134988369Y-76388785D01*
X134988360Y-76388789D01*
X134905504Y-76431007D01*
X134827006Y-76471004D01*
X134827003Y-76471005D01*
X134827001Y-76471007D01*
X134680509Y-76577438D01*
X134680494Y-76577451D01*
X134552451Y-76705494D01*
X134552438Y-76705509D01*
X134446007Y-76852001D01*
X134446005Y-76852003D01*
X134446004Y-76852006D01*
X134407341Y-76927885D01*
X134363789Y-77013360D01*
X134363785Y-77013369D01*
X134307831Y-77185580D01*
X134307828Y-77185594D01*
X134279500Y-77364454D01*
X129892050Y-77364454D01*
X129893238Y-77352829D01*
X129893238Y-77352828D01*
X129899999Y-77286642D01*
X129900000Y-77286641D01*
X129900000Y-77250000D01*
X129112500Y-77250000D01*
X129112500Y-77974999D01*
X128612499Y-77974999D01*
X128612500Y-77974998D01*
X128612500Y-76750000D01*
X129112500Y-76750000D01*
X129899999Y-76750000D01*
X129899999Y-76713359D01*
X129899998Y-76713356D01*
X129889681Y-76612351D01*
X129835451Y-76448693D01*
X129744943Y-76301961D01*
X129744938Y-76301954D01*
X129623045Y-76180061D01*
X129623038Y-76180056D01*
X129476306Y-76089548D01*
X129312648Y-76035318D01*
X129211642Y-76025000D01*
X129112500Y-76025000D01*
X129112500Y-76750000D01*
X128612500Y-76750000D01*
X128612500Y-76025000D01*
X128513360Y-76025000D01*
X128513355Y-76025001D01*
X128412351Y-76035318D01*
X128248693Y-76089548D01*
X128101961Y-76180056D01*
X128101958Y-76180058D01*
X127987978Y-76294038D01*
X127936832Y-76317887D01*
X127882322Y-76303281D01*
X127871311Y-76294042D01*
X127831643Y-76254374D01*
X127692894Y-76172319D01*
X127692891Y-76172318D01*
X127692889Y-76172317D01*
X127538099Y-76127346D01*
X127526043Y-76126397D01*
X127501935Y-76124500D01*
X127501933Y-76124500D01*
X126773075Y-76124500D01*
X126773057Y-76124501D01*
X126736907Y-76127345D01*
X126736896Y-76127347D01*
X126582110Y-76172317D01*
X126582104Y-76172320D01*
X126443353Y-76254376D01*
X126329376Y-76368353D01*
X126296694Y-76423615D01*
X126292322Y-76431010D01*
X126275771Y-76458996D01*
X126232164Y-76494816D01*
X126204760Y-76499500D01*
X122741486Y-76499500D01*
X122688456Y-76480199D01*
X122683150Y-76475336D01*
X120774664Y-74566850D01*
X120750814Y-74515704D01*
X120750500Y-74508514D01*
X120750500Y-73422827D01*
X121125000Y-73422827D01*
X121131401Y-73482373D01*
X121131401Y-73482374D01*
X121181647Y-73617090D01*
X121267811Y-73732188D01*
X121382909Y-73818352D01*
X121382908Y-73818352D01*
X121517625Y-73868598D01*
X121577173Y-73875000D01*
X121775000Y-73875000D01*
X121775000Y-73375000D01*
X121125000Y-73375000D01*
X121125000Y-73422827D01*
X120750500Y-73422827D01*
X120750500Y-72333000D01*
X120769801Y-72279970D01*
X120818674Y-72251753D01*
X120833000Y-72250500D01*
X121115954Y-72250500D01*
X121168984Y-72269801D01*
X121197201Y-72318674D01*
X121187401Y-72374250D01*
X121182000Y-72382439D01*
X121181647Y-72382909D01*
X121131401Y-72517625D01*
X121131401Y-72517626D01*
X121125000Y-72577172D01*
X121125000Y-72625000D01*
X121274436Y-72625000D01*
X121287693Y-72629657D01*
X121300902Y-72629360D01*
X121319181Y-72640718D01*
X121326031Y-72643125D01*
X121329567Y-72645959D01*
X121386658Y-72703050D01*
X121425481Y-72722831D01*
X121432086Y-72728125D01*
X121442610Y-72745441D01*
X121456433Y-72760265D01*
X121456887Y-72768932D01*
X121461395Y-72776350D01*
X121458325Y-72796383D01*
X121459386Y-72816621D01*
X121454162Y-72823552D01*
X121452848Y-72832133D01*
X121437619Y-72845505D01*
X121425423Y-72861691D01*
X121416015Y-72864477D01*
X121410444Y-72869370D01*
X121398597Y-72869636D01*
X121380491Y-72875000D01*
X121125000Y-72875000D01*
X121125000Y-72922827D01*
X121131953Y-72987508D01*
X121131084Y-72987601D01*
X121131084Y-73012398D01*
X121131953Y-73012492D01*
X121125000Y-73077172D01*
X121125000Y-73125000D01*
X121817500Y-73125000D01*
X121870530Y-73144301D01*
X121898747Y-73193174D01*
X121900000Y-73207500D01*
X121900000Y-73250000D01*
X121942500Y-73250000D01*
X121995530Y-73269301D01*
X122023747Y-73318174D01*
X122025000Y-73332500D01*
X122025000Y-73875000D01*
X122222827Y-73875000D01*
X122282373Y-73868598D01*
X122282374Y-73868598D01*
X122417086Y-73818353D01*
X122417089Y-73818352D01*
X122486603Y-73766314D01*
X122540622Y-73749985D01*
X122548950Y-73750874D01*
X122575001Y-73755000D01*
X123274993Y-73755000D01*
X123275004Y-73754999D01*
X123338359Y-73750013D01*
X123458863Y-73710859D01*
X123561377Y-73636377D01*
X123561961Y-73635879D01*
X123562172Y-73635800D01*
X123564000Y-73634472D01*
X123564368Y-73634978D01*
X123614820Y-73616112D01*
X123668017Y-73634947D01*
X123673881Y-73640273D01*
X123736658Y-73703050D01*
X123849696Y-73760646D01*
X123849699Y-73760647D01*
X123885483Y-73766314D01*
X123943481Y-73775500D01*
X124033512Y-73775499D01*
X124086542Y-73794800D01*
X124091849Y-73799663D01*
X125275500Y-74983314D01*
X125368686Y-75076500D01*
X125482814Y-75142392D01*
X125610108Y-75176500D01*
X125610112Y-75176500D01*
X128202388Y-75176500D01*
X128202392Y-75176500D01*
X128329686Y-75142392D01*
X128443814Y-75076500D01*
X128720651Y-74799662D01*
X128771795Y-74775813D01*
X128778986Y-74775499D01*
X129226925Y-74775499D01*
X129226934Y-74775499D01*
X129263098Y-74772654D01*
X129417894Y-74727681D01*
X129556643Y-74645626D01*
X129670626Y-74531643D01*
X129724229Y-74441003D01*
X129767836Y-74405184D01*
X129795240Y-74400500D01*
X134173514Y-74400500D01*
X134190439Y-74406660D01*
X134208380Y-74408230D01*
X134223130Y-74418558D01*
X134226544Y-74419801D01*
X134231850Y-74424664D01*
X134307626Y-74500440D01*
X134331476Y-74551586D01*
X134327753Y-74584269D01*
X134307829Y-74645591D01*
X134307828Y-74645594D01*
X134287704Y-74772654D01*
X134279500Y-74824454D01*
X134279500Y-75005546D01*
X134285677Y-75044547D01*
X134307828Y-75184405D01*
X134307831Y-75184419D01*
X134363785Y-75356630D01*
X134363789Y-75356639D01*
X134446004Y-75517994D01*
X134446007Y-75517998D01*
X134552438Y-75664490D01*
X134552444Y-75664497D01*
X134552447Y-75664501D01*
X134680499Y-75792553D01*
X134680503Y-75792556D01*
X134680509Y-75792561D01*
X134778170Y-75863515D01*
X134827006Y-75898996D01*
X134988361Y-75981211D01*
X134988365Y-75981212D01*
X134988369Y-75981214D01*
X135160580Y-76037168D01*
X135160585Y-76037169D01*
X135160591Y-76037171D01*
X135339454Y-76065500D01*
X135339455Y-76065500D01*
X135520545Y-76065500D01*
X135520546Y-76065500D01*
X135699409Y-76037171D01*
X135699416Y-76037168D01*
X135699419Y-76037168D01*
X135871630Y-75981214D01*
X135871630Y-75981213D01*
X135871639Y-75981211D01*
X136032994Y-75898996D01*
X136179501Y-75792553D01*
X136307553Y-75664501D01*
X136413996Y-75517994D01*
X136496211Y-75356639D01*
X136547734Y-75198065D01*
X136552168Y-75184419D01*
X136552168Y-75184416D01*
X136552171Y-75184409D01*
X136580500Y-75005546D01*
X136580500Y-74824454D01*
X136552171Y-74645591D01*
X136552169Y-74645585D01*
X136552168Y-74645580D01*
X136496214Y-74473369D01*
X136496212Y-74473365D01*
X136496211Y-74473361D01*
X136413996Y-74312006D01*
X136378515Y-74263170D01*
X136307561Y-74165509D01*
X136307556Y-74165503D01*
X136307553Y-74165499D01*
X136179501Y-74037447D01*
X136179497Y-74037444D01*
X136179490Y-74037438D01*
X136032998Y-73931007D01*
X136032994Y-73931004D01*
X135871639Y-73848789D01*
X135871630Y-73848785D01*
X135699419Y-73792831D01*
X135699405Y-73792828D01*
X135574519Y-73773048D01*
X135520546Y-73764500D01*
X135339454Y-73764500D01*
X135297992Y-73771066D01*
X135160594Y-73792828D01*
X135160591Y-73792829D01*
X135099269Y-73812753D01*
X135042870Y-73810782D01*
X135015440Y-73792626D01*
X134722319Y-73499504D01*
X134722314Y-73499500D01*
X134608187Y-73433608D01*
X134480892Y-73399500D01*
X133005176Y-73399500D01*
X132952146Y-73380199D01*
X132923929Y-73331326D01*
X132924261Y-73300905D01*
X132934150Y-73251190D01*
X132950500Y-73168993D01*
X132950500Y-73031007D01*
X132923580Y-72895672D01*
X132912465Y-72868839D01*
X132870775Y-72768189D01*
X132794113Y-72653457D01*
X132696542Y-72555886D01*
X132696543Y-72555886D01*
X132581810Y-72479224D01*
X132454332Y-72426421D01*
X132454328Y-72426420D01*
X132318993Y-72399500D01*
X132181007Y-72399500D01*
X132045672Y-72426420D01*
X132045667Y-72426421D01*
X131918189Y-72479224D01*
X131803457Y-72555886D01*
X131784008Y-72575336D01*
X131732862Y-72599186D01*
X131725672Y-72599500D01*
X127821607Y-72599500D01*
X127694312Y-72633608D01*
X127580185Y-72699500D01*
X127580180Y-72699504D01*
X127279348Y-73000336D01*
X127228202Y-73024186D01*
X127221012Y-73024500D01*
X126773075Y-73024500D01*
X126773057Y-73024501D01*
X126736907Y-73027345D01*
X126736896Y-73027347D01*
X126582110Y-73072317D01*
X126582104Y-73072320D01*
X126443353Y-73154376D01*
X126329376Y-73268353D01*
X126247320Y-73407104D01*
X126247317Y-73407110D01*
X126202346Y-73561900D01*
X126202346Y-73561902D01*
X126199500Y-73598065D01*
X126199500Y-73875000D01*
X126199501Y-74093000D01*
X126180200Y-74146030D01*
X126131327Y-74174247D01*
X126117001Y-74175500D01*
X125917486Y-74175500D01*
X125864456Y-74156199D01*
X125859150Y-74151336D01*
X124957488Y-73249674D01*
X124933638Y-73198528D01*
X124948244Y-73144018D01*
X124949781Y-73141895D01*
X124968353Y-73117086D01*
X125018598Y-72982374D01*
X125018598Y-72982373D01*
X125025000Y-72922827D01*
X125025000Y-72875000D01*
X124875564Y-72875000D01*
X124858638Y-72868839D01*
X124840698Y-72867270D01*
X124825947Y-72856941D01*
X124822534Y-72855699D01*
X124817228Y-72850836D01*
X124774728Y-72808336D01*
X124750878Y-72757190D01*
X124765484Y-72702680D01*
X124774728Y-72691664D01*
X124817228Y-72649164D01*
X124868374Y-72625314D01*
X124875564Y-72625000D01*
X125025000Y-72625000D01*
X125025000Y-72577172D01*
X125018598Y-72517626D01*
X125018598Y-72517625D01*
X124970188Y-72387831D01*
X124969740Y-72331399D01*
X125005671Y-72287882D01*
X125018265Y-72284454D01*
X134279500Y-72284454D01*
X134279500Y-72465545D01*
X134307828Y-72644405D01*
X134307831Y-72644419D01*
X134363782Y-72816621D01*
X134363789Y-72816639D01*
X134446004Y-72977994D01*
X134446007Y-72977998D01*
X134552438Y-73124490D01*
X134552444Y-73124497D01*
X134552447Y-73124501D01*
X134680499Y-73252553D01*
X134680503Y-73252556D01*
X134680509Y-73252561D01*
X134770819Y-73318174D01*
X134827006Y-73358996D01*
X134988361Y-73441211D01*
X134988365Y-73441212D01*
X134988369Y-73441214D01*
X135160580Y-73497168D01*
X135160585Y-73497169D01*
X135160591Y-73497171D01*
X135339454Y-73525500D01*
X135339455Y-73525500D01*
X135520545Y-73525500D01*
X135520546Y-73525500D01*
X135699409Y-73497171D01*
X135699416Y-73497168D01*
X135699419Y-73497168D01*
X135871630Y-73441214D01*
X135871630Y-73441213D01*
X135871639Y-73441211D01*
X136032994Y-73358996D01*
X136179501Y-73252553D01*
X136307553Y-73124501D01*
X136413996Y-72977994D01*
X136496211Y-72816639D01*
X136496213Y-72816630D01*
X136496218Y-72816621D01*
X136552168Y-72644419D01*
X136552168Y-72644416D01*
X136552171Y-72644409D01*
X136580500Y-72465546D01*
X136580500Y-72284454D01*
X136552171Y-72105591D01*
X136552169Y-72105585D01*
X136552168Y-72105580D01*
X136496214Y-71933369D01*
X136496212Y-71933365D01*
X136496211Y-71933361D01*
X136413996Y-71772006D01*
X136378515Y-71723170D01*
X136307561Y-71625509D01*
X136307556Y-71625503D01*
X136307553Y-71625499D01*
X136179501Y-71497447D01*
X136179497Y-71497444D01*
X136179490Y-71497438D01*
X136032998Y-71391007D01*
X136032994Y-71391004D01*
X135871639Y-71308789D01*
X135871630Y-71308785D01*
X135699419Y-71252831D01*
X135699405Y-71252828D01*
X135550132Y-71229186D01*
X135520546Y-71224500D01*
X135339454Y-71224500D01*
X135309868Y-71229186D01*
X135160594Y-71252828D01*
X135160580Y-71252831D01*
X134988369Y-71308785D01*
X134988360Y-71308789D01*
X134902885Y-71352341D01*
X134827006Y-71391004D01*
X134827003Y-71391005D01*
X134827001Y-71391007D01*
X134680509Y-71497438D01*
X134680494Y-71497451D01*
X134552451Y-71625494D01*
X134552438Y-71625509D01*
X134446007Y-71772001D01*
X134446005Y-71772003D01*
X134446004Y-71772006D01*
X134407341Y-71847885D01*
X134363789Y-71933360D01*
X134363785Y-71933369D01*
X134307831Y-72105580D01*
X134307828Y-72105594D01*
X134279500Y-72284454D01*
X125018265Y-72284454D01*
X125047486Y-72276500D01*
X128202388Y-72276500D01*
X128202392Y-72276500D01*
X128329686Y-72242392D01*
X128443814Y-72176500D01*
X128720651Y-71899662D01*
X128771795Y-71875813D01*
X128778986Y-71875499D01*
X129226925Y-71875499D01*
X129226934Y-71875499D01*
X129263098Y-71872654D01*
X129417894Y-71827681D01*
X129556643Y-71745626D01*
X129670626Y-71631643D01*
X129724229Y-71541003D01*
X129767836Y-71505184D01*
X129795240Y-71500500D01*
X133915831Y-71500500D01*
X133915835Y-71500500D01*
X134043129Y-71466392D01*
X134157257Y-71400500D01*
X134700500Y-70857257D01*
X134707631Y-70844904D01*
X134750858Y-70808628D01*
X134807292Y-70808625D01*
X134824087Y-70817555D01*
X134824243Y-70817302D01*
X134826998Y-70818990D01*
X134827006Y-70818996D01*
X134988361Y-70901211D01*
X134988365Y-70901212D01*
X134988369Y-70901214D01*
X135160580Y-70957168D01*
X135160585Y-70957169D01*
X135160591Y-70957171D01*
X135339454Y-70985500D01*
X135339455Y-70985500D01*
X135520545Y-70985500D01*
X135520546Y-70985500D01*
X135699409Y-70957171D01*
X135699416Y-70957168D01*
X135699419Y-70957168D01*
X135871630Y-70901214D01*
X135871630Y-70901213D01*
X135871639Y-70901211D01*
X136032994Y-70818996D01*
X136179501Y-70712553D01*
X136307553Y-70584501D01*
X136413996Y-70437994D01*
X136496211Y-70276639D01*
X136544718Y-70127347D01*
X136552168Y-70104419D01*
X136552168Y-70104416D01*
X136552171Y-70104409D01*
X136580500Y-69925546D01*
X136580500Y-69744454D01*
X136552171Y-69565591D01*
X136552169Y-69565585D01*
X136552168Y-69565580D01*
X136496214Y-69393369D01*
X136496212Y-69393365D01*
X136496211Y-69393361D01*
X136413996Y-69232006D01*
X136372216Y-69174500D01*
X136307561Y-69085509D01*
X136307556Y-69085503D01*
X136307553Y-69085499D01*
X136179501Y-68957447D01*
X136179497Y-68957444D01*
X136179490Y-68957438D01*
X136032998Y-68851007D01*
X136032994Y-68851004D01*
X135871639Y-68768789D01*
X135871630Y-68768785D01*
X135699419Y-68712831D01*
X135699405Y-68712828D01*
X135574519Y-68693048D01*
X135520546Y-68684500D01*
X135339454Y-68684500D01*
X135297992Y-68691066D01*
X135160594Y-68712828D01*
X135160580Y-68712831D01*
X134988369Y-68768785D01*
X134988355Y-68768791D01*
X134920454Y-68803389D01*
X134908103Y-68804905D01*
X134897326Y-68811128D01*
X134880948Y-68808240D01*
X134864442Y-68810267D01*
X134854004Y-68803488D01*
X134841750Y-68801328D01*
X134831059Y-68788588D01*
X134817113Y-68779531D01*
X134812903Y-68766951D01*
X134805475Y-68758098D01*
X134800500Y-68729881D01*
X134800500Y-68666484D01*
X134819801Y-68613454D01*
X134824654Y-68608158D01*
X135015441Y-68417371D01*
X135066584Y-68393522D01*
X135099266Y-68397245D01*
X135160591Y-68417171D01*
X135339454Y-68445500D01*
X135339455Y-68445500D01*
X135520545Y-68445500D01*
X135520546Y-68445500D01*
X135699409Y-68417171D01*
X135699416Y-68417168D01*
X135699419Y-68417168D01*
X135871630Y-68361214D01*
X135871630Y-68361213D01*
X135871639Y-68361211D01*
X136032994Y-68278996D01*
X136179501Y-68172553D01*
X136307553Y-68044501D01*
X136413996Y-67897994D01*
X136496211Y-67736639D01*
X136523115Y-67653836D01*
X136552168Y-67564419D01*
X136552168Y-67564416D01*
X136552171Y-67564409D01*
X136580500Y-67385546D01*
X136580500Y-67204454D01*
X136552171Y-67025591D01*
X136552169Y-67025585D01*
X136552168Y-67025580D01*
X136496214Y-66853369D01*
X136496212Y-66853365D01*
X136496211Y-66853361D01*
X136413996Y-66692006D01*
X136378515Y-66643170D01*
X136307561Y-66545509D01*
X136307556Y-66545503D01*
X136307553Y-66545499D01*
X136179501Y-66417447D01*
X136179497Y-66417444D01*
X136179490Y-66417438D01*
X136032998Y-66311007D01*
X136032994Y-66311004D01*
X135871639Y-66228789D01*
X135871630Y-66228785D01*
X135699419Y-66172831D01*
X135699405Y-66172828D01*
X135574519Y-66153048D01*
X135520546Y-66144500D01*
X135339454Y-66144500D01*
X135297992Y-66151066D01*
X135160594Y-66172828D01*
X135160580Y-66172831D01*
X134988369Y-66228785D01*
X134988360Y-66228789D01*
X134902885Y-66272341D01*
X134827006Y-66311004D01*
X134827003Y-66311005D01*
X134827001Y-66311007D01*
X134680509Y-66417438D01*
X134680494Y-66417451D01*
X134552451Y-66545494D01*
X134552438Y-66545509D01*
X134446007Y-66692001D01*
X134363789Y-66853360D01*
X134363785Y-66853369D01*
X134307831Y-67025580D01*
X134307828Y-67025594D01*
X134279500Y-67204454D01*
X134279500Y-67385545D01*
X134307828Y-67564405D01*
X134307831Y-67564420D01*
X134327752Y-67625730D01*
X134325782Y-67682129D01*
X134307626Y-67709559D01*
X133981082Y-68036102D01*
X133981080Y-68036105D01*
X133899504Y-68117680D01*
X133899500Y-68117685D01*
X133833608Y-68231812D01*
X133799500Y-68359107D01*
X133799500Y-70308457D01*
X133793339Y-70325382D01*
X133791770Y-70343323D01*
X133781441Y-70358073D01*
X133780199Y-70361487D01*
X133775336Y-70366793D01*
X133666793Y-70475336D01*
X133615647Y-70499186D01*
X133608457Y-70499500D01*
X133005176Y-70499500D01*
X132952146Y-70480199D01*
X132923929Y-70431326D01*
X132924261Y-70400905D01*
X132932781Y-70358073D01*
X132950500Y-70268993D01*
X132950500Y-70131007D01*
X132923580Y-69995672D01*
X132870775Y-69868189D01*
X132794114Y-69753458D01*
X132696542Y-69655886D01*
X132696543Y-69655886D01*
X132581810Y-69579224D01*
X132454332Y-69526421D01*
X132454328Y-69526420D01*
X132318993Y-69499500D01*
X132181007Y-69499500D01*
X132045672Y-69526420D01*
X132045667Y-69526421D01*
X131918189Y-69579224D01*
X131803457Y-69655886D01*
X131760008Y-69699336D01*
X131708862Y-69723186D01*
X131701672Y-69723500D01*
X127797607Y-69723500D01*
X127670312Y-69757608D01*
X127556185Y-69823500D01*
X127556180Y-69823504D01*
X127279348Y-70100336D01*
X127228202Y-70124186D01*
X127221012Y-70124500D01*
X126773075Y-70124500D01*
X126773057Y-70124501D01*
X126736907Y-70127345D01*
X126736896Y-70127347D01*
X126582110Y-70172317D01*
X126582104Y-70172320D01*
X126443353Y-70254376D01*
X126329376Y-70368353D01*
X126247320Y-70507104D01*
X126247317Y-70507110D01*
X126202346Y-70661900D01*
X126202346Y-70661902D01*
X126199500Y-70698065D01*
X126199500Y-70985500D01*
X126199501Y-71193000D01*
X126180200Y-71246030D01*
X126131327Y-71274247D01*
X126117001Y-71275500D01*
X124741051Y-71275500D01*
X124703597Y-71266508D01*
X124650305Y-71239354D01*
X124650300Y-71239352D01*
X124556519Y-71224500D01*
X123943486Y-71224500D01*
X123849694Y-71239354D01*
X123787386Y-71271102D01*
X123731373Y-71277980D01*
X123712478Y-71271102D01*
X123700153Y-71264822D01*
X123700148Y-71264820D01*
X123575000Y-71245000D01*
X122575000Y-71245000D01*
X122449851Y-71264820D01*
X122437518Y-71271104D01*
X122381505Y-71277979D01*
X122362614Y-71271102D01*
X122300304Y-71239354D01*
X122300303Y-71239353D01*
X122300302Y-71239353D01*
X122300300Y-71239352D01*
X122206519Y-71224500D01*
X121593486Y-71224500D01*
X121499709Y-71239352D01*
X121499696Y-71239354D01*
X121497428Y-71240509D01*
X121459977Y-71249500D01*
X120833000Y-71249500D01*
X120779970Y-71230199D01*
X120751753Y-71181326D01*
X120750500Y-71167000D01*
X120750500Y-68626485D01*
X120769801Y-68573455D01*
X120774653Y-68568160D01*
X121441081Y-67901731D01*
X121492226Y-67877882D01*
X121524905Y-67881605D01*
X121642174Y-67919709D01*
X121836583Y-67950500D01*
X121836584Y-67950500D01*
X122033416Y-67950500D01*
X122033417Y-67950500D01*
X122227826Y-67919709D01*
X122415025Y-67858884D01*
X122590405Y-67769524D01*
X122749646Y-67653828D01*
X122888828Y-67514646D01*
X123004524Y-67355405D01*
X123068492Y-67229858D01*
X123109764Y-67191372D01*
X123166120Y-67188418D01*
X123211190Y-67222380D01*
X123224500Y-67267313D01*
X123224500Y-67581513D01*
X123239354Y-67675305D01*
X123296948Y-67788339D01*
X123296950Y-67788342D01*
X123386658Y-67878050D01*
X123499696Y-67935646D01*
X123499699Y-67935647D01*
X123535719Y-67941351D01*
X123593481Y-67950500D01*
X125356518Y-67950499D01*
X125450304Y-67935646D01*
X125563342Y-67878050D01*
X125653050Y-67788342D01*
X125710646Y-67675304D01*
X125710883Y-67673811D01*
X125725500Y-67581519D01*
X125725500Y-67283000D01*
X125744801Y-67229970D01*
X125793674Y-67201753D01*
X125808000Y-67200500D01*
X130908514Y-67200500D01*
X130961544Y-67219801D01*
X130966850Y-67224664D01*
X131525336Y-67783150D01*
X131549186Y-67834296D01*
X131549500Y-67841486D01*
X131549500Y-67868993D01*
X131565713Y-67950499D01*
X131576420Y-68004327D01*
X131576421Y-68004332D01*
X131629224Y-68131810D01*
X131705886Y-68246542D01*
X131803457Y-68344113D01*
X131803456Y-68344113D01*
X131877402Y-68393522D01*
X131918189Y-68420775D01*
X132045672Y-68473580D01*
X132181007Y-68500500D01*
X132181010Y-68500500D01*
X132318990Y-68500500D01*
X132318993Y-68500500D01*
X132454328Y-68473580D01*
X132581811Y-68420775D01*
X132696542Y-68344114D01*
X132794114Y-68246542D01*
X132870775Y-68131811D01*
X132923580Y-68004328D01*
X132950500Y-67868993D01*
X132950500Y-67731007D01*
X132923580Y-67595672D01*
X132910630Y-67564409D01*
X132870775Y-67468189D01*
X132794114Y-67353458D01*
X132696542Y-67255886D01*
X132696543Y-67255886D01*
X132581810Y-67179224D01*
X132454332Y-67126421D01*
X132454328Y-67126420D01*
X132318993Y-67099500D01*
X132318990Y-67099500D01*
X132291486Y-67099500D01*
X132238456Y-67080199D01*
X132233150Y-67075336D01*
X131457319Y-66299504D01*
X131457314Y-66299500D01*
X131343187Y-66233608D01*
X131215892Y-66199500D01*
X125807999Y-66199500D01*
X125754969Y-66180199D01*
X125726752Y-66131326D01*
X125725499Y-66117000D01*
X125725499Y-65818486D01*
X125725499Y-65818482D01*
X125710646Y-65724696D01*
X125653050Y-65611658D01*
X125563342Y-65521950D01*
X125563340Y-65521949D01*
X125563339Y-65521948D01*
X125450305Y-65464354D01*
X125450300Y-65464352D01*
X125356519Y-65449500D01*
X123593486Y-65449500D01*
X123499694Y-65464354D01*
X123386660Y-65521948D01*
X123386656Y-65521951D01*
X123296951Y-65611656D01*
X123296948Y-65611660D01*
X123239354Y-65724694D01*
X123239352Y-65724699D01*
X123224500Y-65818480D01*
X123224500Y-66132685D01*
X123205199Y-66185715D01*
X123156326Y-66213932D01*
X123100750Y-66204132D01*
X123068492Y-66170139D01*
X123004525Y-66044597D01*
X122888836Y-65885364D01*
X122888831Y-65885358D01*
X122888828Y-65885354D01*
X122749646Y-65746172D01*
X122749642Y-65746169D01*
X122749635Y-65746163D01*
X122590402Y-65630474D01*
X122415029Y-65541117D01*
X122227832Y-65480292D01*
X122227822Y-65480290D01*
X122092081Y-65458791D01*
X122033417Y-65449500D01*
X121836583Y-65449500D01*
X121791517Y-65456637D01*
X121642177Y-65480290D01*
X121642167Y-65480292D01*
X121454970Y-65541117D01*
X121279597Y-65630474D01*
X121120364Y-65746163D01*
X121120349Y-65746176D01*
X120981176Y-65885349D01*
X120981163Y-65885364D01*
X120865474Y-66044597D01*
X120776117Y-66219970D01*
X120715292Y-66407167D01*
X120715290Y-66407177D01*
X120684500Y-66601583D01*
X120684500Y-66798416D01*
X120715290Y-66992822D01*
X120715292Y-66992832D01*
X120753392Y-67110088D01*
X120751423Y-67166487D01*
X120733266Y-67193918D01*
X120138847Y-67788339D01*
X119942686Y-67984500D01*
X119902687Y-68024499D01*
X119849500Y-68077685D01*
X119783608Y-68191812D01*
X119749500Y-68319107D01*
X119749500Y-71046102D01*
X119730199Y-71099132D01*
X119681326Y-71127349D01*
X119626565Y-71118013D01*
X119622343Y-71115639D01*
X119481564Y-71060123D01*
X119393102Y-71049500D01*
X119030723Y-71049500D01*
X118977693Y-71030199D01*
X118949476Y-70981326D01*
X118948811Y-70957167D01*
X118948816Y-70957120D01*
X118950500Y-70943102D01*
X118950500Y-69681898D01*
X118939877Y-69593436D01*
X118884361Y-69452658D01*
X118839394Y-69393360D01*
X118792923Y-69332078D01*
X118792921Y-69332076D01*
X118672345Y-69240641D01*
X118672339Y-69240637D01*
X118531564Y-69185123D01*
X118443102Y-69174500D01*
X118056898Y-69174500D01*
X117968436Y-69185123D01*
X117968434Y-69185123D01*
X117827660Y-69240637D01*
X117827654Y-69240641D01*
X117707078Y-69332076D01*
X117707076Y-69332078D01*
X117615641Y-69452654D01*
X117615637Y-69452660D01*
X117560123Y-69593434D01*
X117560123Y-69593436D01*
X117549500Y-69681898D01*
X117549500Y-69681905D01*
X117549500Y-69828987D01*
X117530199Y-69882017D01*
X117508252Y-69900433D01*
X117488217Y-69912000D01*
X117488212Y-69912004D01*
X115190452Y-72209766D01*
X114442686Y-72957532D01*
X114417845Y-72982373D01*
X114349500Y-73050717D01*
X114283608Y-73164844D01*
X114249500Y-73292139D01*
X114249500Y-80203392D01*
X114283608Y-80330687D01*
X114349500Y-80444814D01*
X114349504Y-80444819D01*
X116400336Y-82495650D01*
X116424186Y-82546796D01*
X116424500Y-82553986D01*
X116424500Y-83001924D01*
X116424501Y-83001942D01*
X116427345Y-83038092D01*
X116427347Y-83038103D01*
X116472317Y-83192889D01*
X116472318Y-83192891D01*
X116472319Y-83192894D01*
X116526488Y-83284490D01*
X116554376Y-83331646D01*
X116605394Y-83382664D01*
X116629244Y-83433810D01*
X116614638Y-83488320D01*
X116568411Y-83520689D01*
X116547058Y-83523500D01*
X113407726Y-83523500D01*
X113354696Y-83504199D01*
X113326479Y-83455326D01*
X113336279Y-83399750D01*
X113349390Y-83382664D01*
X113447553Y-83284501D01*
X113553996Y-83137994D01*
X113636211Y-82976639D01*
X113692171Y-82804409D01*
X113720500Y-82625546D01*
X113720500Y-82444454D01*
X113692171Y-82265591D01*
X113692169Y-82265585D01*
X113692168Y-82265580D01*
X113636214Y-82093369D01*
X113636212Y-82093365D01*
X113636211Y-82093361D01*
X113553996Y-81932006D01*
X113513999Y-81876954D01*
X113447561Y-81785509D01*
X113447556Y-81785503D01*
X113447553Y-81785499D01*
X113319501Y-81657447D01*
X113319497Y-81657444D01*
X113319490Y-81657438D01*
X113172998Y-81551007D01*
X113172994Y-81551004D01*
X113011639Y-81468789D01*
X113011630Y-81468785D01*
X112839419Y-81412831D01*
X112839405Y-81412828D01*
X112714519Y-81393048D01*
X112660546Y-81384500D01*
X112479454Y-81384500D01*
X112437992Y-81391066D01*
X112300594Y-81412828D01*
X112300580Y-81412831D01*
X112128369Y-81468785D01*
X112128360Y-81468789D01*
X112042885Y-81512341D01*
X111967006Y-81551004D01*
X111967003Y-81551005D01*
X111967001Y-81551007D01*
X111820509Y-81657438D01*
X111820494Y-81657451D01*
X111692451Y-81785494D01*
X111692438Y-81785509D01*
X111586007Y-81932001D01*
X111503789Y-82093360D01*
X111503785Y-82093369D01*
X111447831Y-82265580D01*
X111447828Y-82265594D01*
X111419500Y-82444454D01*
X111419500Y-82625545D01*
X111447828Y-82804405D01*
X111447831Y-82804419D01*
X111503785Y-82976630D01*
X111503789Y-82976639D01*
X111586004Y-83137994D01*
X111586007Y-83137998D01*
X111692438Y-83284490D01*
X111692444Y-83284497D01*
X111692447Y-83284501D01*
X111820499Y-83412553D01*
X111820503Y-83412556D01*
X111820509Y-83412561D01*
X111882536Y-83457626D01*
X111914093Y-83504411D01*
X111908195Y-83560535D01*
X111875295Y-83595816D01*
X111827349Y-83623498D01*
X111827341Y-83623504D01*
X111359843Y-84091004D01*
X111211686Y-84239161D01*
X111165093Y-84285754D01*
X111118500Y-84332346D01*
X111052608Y-84446473D01*
X111018500Y-84573768D01*
X111018500Y-91709892D01*
X111052608Y-91837187D01*
X111118500Y-91951314D01*
X111118504Y-91951319D01*
X111447626Y-92280440D01*
X111471476Y-92331586D01*
X111467753Y-92364269D01*
X111447829Y-92425591D01*
X111447828Y-92425594D01*
X111419500Y-92604454D01*
X111419500Y-92785545D01*
X111447828Y-92964405D01*
X111447831Y-92964419D01*
X111503785Y-93136630D01*
X111503789Y-93136639D01*
X111586004Y-93297994D01*
X111586007Y-93297998D01*
X111692438Y-93444490D01*
X111692444Y-93444497D01*
X111692447Y-93444501D01*
X111820499Y-93572553D01*
X111820503Y-93572556D01*
X111820509Y-93572561D01*
X111869592Y-93608221D01*
X111967006Y-93678996D01*
X112128361Y-93761211D01*
X112128365Y-93761212D01*
X112128369Y-93761214D01*
X112300580Y-93817168D01*
X112300585Y-93817169D01*
X112300591Y-93817171D01*
X112479454Y-93845500D01*
X112479455Y-93845500D01*
X112660545Y-93845500D01*
X112660546Y-93845500D01*
X112839409Y-93817171D01*
X112839416Y-93817168D01*
X112839419Y-93817168D01*
X113011630Y-93761214D01*
X113011630Y-93761213D01*
X113011639Y-93761211D01*
X113172994Y-93678996D01*
X113319501Y-93572553D01*
X113447553Y-93444501D01*
X113553996Y-93297994D01*
X113636211Y-93136639D01*
X113636214Y-93136630D01*
X113692168Y-92964419D01*
X113692168Y-92964416D01*
X113692171Y-92964409D01*
X113720500Y-92785546D01*
X113720500Y-92604454D01*
X113692171Y-92425591D01*
X113692169Y-92425585D01*
X113692168Y-92425580D01*
X113636214Y-92253369D01*
X113636212Y-92253365D01*
X113636211Y-92253361D01*
X113553996Y-92092006D01*
X113488315Y-92001603D01*
X113447561Y-91945509D01*
X113447556Y-91945503D01*
X113447553Y-91945499D01*
X113319501Y-91817447D01*
X113319497Y-91817444D01*
X113319490Y-91817438D01*
X113172998Y-91711007D01*
X113172994Y-91711004D01*
X113011639Y-91628789D01*
X113011630Y-91628785D01*
X112839419Y-91572831D01*
X112839405Y-91572828D01*
X112714519Y-91553048D01*
X112660546Y-91544500D01*
X112479454Y-91544500D01*
X112437992Y-91551066D01*
X112300594Y-91572828D01*
X112300591Y-91572829D01*
X112239269Y-91592753D01*
X112236993Y-91592673D01*
X112235129Y-91593979D01*
X112209045Y-91591696D01*
X112182870Y-91590782D01*
X112180475Y-91589196D01*
X112178910Y-91589060D01*
X112155440Y-91572626D01*
X112043664Y-91460850D01*
X112019814Y-91409704D01*
X112019500Y-91402514D01*
X112019500Y-91299391D01*
X112038801Y-91246361D01*
X112087674Y-91218144D01*
X112127494Y-91220929D01*
X112128359Y-91221210D01*
X112128361Y-91221211D01*
X112205766Y-91246361D01*
X112300584Y-91277169D01*
X112300586Y-91277169D01*
X112300591Y-91277171D01*
X112479454Y-91305500D01*
X112479455Y-91305500D01*
X112660545Y-91305500D01*
X112660546Y-91305500D01*
X112839409Y-91277171D01*
X112839416Y-91277168D01*
X112839419Y-91277168D01*
X113011630Y-91221214D01*
X113011630Y-91221213D01*
X113011639Y-91221211D01*
X113172994Y-91138996D01*
X113319501Y-91032553D01*
X113447553Y-90904501D01*
X113553996Y-90757994D01*
X113636211Y-90596639D01*
X113671624Y-90487648D01*
X113692168Y-90424419D01*
X113692168Y-90424416D01*
X113692171Y-90424409D01*
X113720500Y-90245546D01*
X113720500Y-90064454D01*
X113692171Y-89885591D01*
X113692169Y-89885585D01*
X113692168Y-89885580D01*
X113636214Y-89713369D01*
X113636212Y-89713365D01*
X113636211Y-89713361D01*
X113553996Y-89552006D01*
X113518515Y-89503170D01*
X113447561Y-89405509D01*
X113447556Y-89405503D01*
X113447553Y-89405499D01*
X113319501Y-89277447D01*
X113319497Y-89277444D01*
X113319490Y-89277438D01*
X113172998Y-89171007D01*
X113172994Y-89171004D01*
X113011639Y-89088789D01*
X113011630Y-89088785D01*
X112839419Y-89032831D01*
X112839405Y-89032828D01*
X112714519Y-89013048D01*
X112660546Y-89004500D01*
X112479454Y-89004500D01*
X112437992Y-89011066D01*
X112300594Y-89032828D01*
X112300580Y-89032831D01*
X112127493Y-89089070D01*
X112071094Y-89087100D01*
X112029157Y-89049339D01*
X112019500Y-89010608D01*
X112019500Y-88759391D01*
X112038801Y-88706361D01*
X112087674Y-88678144D01*
X112127494Y-88680929D01*
X112128359Y-88681210D01*
X112128361Y-88681211D01*
X112205766Y-88706361D01*
X112300584Y-88737169D01*
X112300586Y-88737169D01*
X112300591Y-88737171D01*
X112479454Y-88765500D01*
X112479455Y-88765500D01*
X112660545Y-88765500D01*
X112660546Y-88765500D01*
X112839409Y-88737171D01*
X112839416Y-88737168D01*
X112839419Y-88737168D01*
X113011630Y-88681214D01*
X113011630Y-88681213D01*
X113011639Y-88681211D01*
X113172994Y-88598996D01*
X113319501Y-88492553D01*
X113447553Y-88364501D01*
X113553996Y-88217994D01*
X113636211Y-88056639D01*
X113670697Y-87950500D01*
X113692168Y-87884419D01*
X113692168Y-87884416D01*
X113692171Y-87884409D01*
X113720500Y-87705546D01*
X113720500Y-87524454D01*
X113692171Y-87345591D01*
X113692169Y-87345585D01*
X113692168Y-87345580D01*
X113636214Y-87173369D01*
X113636212Y-87173365D01*
X113636211Y-87173361D01*
X113553996Y-87012006D01*
X113518693Y-86963415D01*
X113503138Y-86909168D01*
X113526092Y-86857613D01*
X113576814Y-86832875D01*
X113631571Y-86846528D01*
X113643773Y-86856587D01*
X115611836Y-88824650D01*
X115635686Y-88875796D01*
X115636000Y-88882986D01*
X115636000Y-90571331D01*
X115616699Y-90624361D01*
X115567826Y-90652578D01*
X115530483Y-90650555D01*
X115450599Y-90627346D01*
X115438543Y-90626397D01*
X115414435Y-90624500D01*
X115414433Y-90624500D01*
X114785575Y-90624500D01*
X114785557Y-90624501D01*
X114749407Y-90627345D01*
X114749396Y-90627347D01*
X114594610Y-90672317D01*
X114594604Y-90672320D01*
X114455853Y-90754376D01*
X114341876Y-90868353D01*
X114259820Y-91007104D01*
X114259817Y-91007110D01*
X114214846Y-91161900D01*
X114212000Y-91198061D01*
X114212000Y-91801924D01*
X114212001Y-91801942D01*
X114214845Y-91838092D01*
X114214847Y-91838103D01*
X114259817Y-91992889D01*
X114259818Y-91992891D01*
X114259819Y-91992894D01*
X114281343Y-92029289D01*
X114341876Y-92131646D01*
X114455852Y-92245622D01*
X114455854Y-92245623D01*
X114455857Y-92245626D01*
X114458996Y-92247482D01*
X114494815Y-92291088D01*
X114499500Y-92318493D01*
X114499500Y-93728375D01*
X114499499Y-93728393D01*
X114499499Y-93733443D01*
X114499499Y-93891557D01*
X114526413Y-93992000D01*
X114540422Y-94044282D01*
X114540425Y-94044289D01*
X114569360Y-94094405D01*
X114619477Y-94181213D01*
X114619482Y-94181219D01*
X114735979Y-94297716D01*
X114735993Y-94297728D01*
X115042428Y-94604163D01*
X115066278Y-94655309D01*
X115051672Y-94709819D01*
X115042427Y-94720835D01*
X113490286Y-96272978D01*
X113490284Y-96272980D01*
X113462054Y-96301210D01*
X113378476Y-96384787D01*
X113328360Y-96471594D01*
X113328360Y-96471595D01*
X113299424Y-96521712D01*
X113273443Y-96618671D01*
X113241073Y-96664899D01*
X113186563Y-96679504D01*
X113156300Y-96670826D01*
X113049837Y-96616581D01*
X112862715Y-96555780D01*
X112862705Y-96555778D01*
X112738546Y-96536113D01*
X112689188Y-96508754D01*
X112668965Y-96456068D01*
X112687338Y-96402710D01*
X112735711Y-96373645D01*
X112738496Y-96373153D01*
X112839409Y-96357171D01*
X112839417Y-96357168D01*
X112839419Y-96357168D01*
X113011630Y-96301214D01*
X113011630Y-96301213D01*
X113011639Y-96301211D01*
X113172994Y-96218996D01*
X113319501Y-96112553D01*
X113447553Y-95984501D01*
X113553996Y-95837994D01*
X113636211Y-95676639D01*
X113647166Y-95642922D01*
X113692168Y-95504419D01*
X113692168Y-95504416D01*
X113692171Y-95504409D01*
X113720500Y-95325546D01*
X113720500Y-95144454D01*
X113692171Y-94965591D01*
X113692169Y-94965585D01*
X113692168Y-94965580D01*
X113636214Y-94793369D01*
X113636212Y-94793365D01*
X113636211Y-94793361D01*
X113553996Y-94632006D01*
X113485728Y-94538042D01*
X113447561Y-94485509D01*
X113447556Y-94485503D01*
X113447553Y-94485499D01*
X113319501Y-94357447D01*
X113319497Y-94357444D01*
X113319490Y-94357438D01*
X113172998Y-94251007D01*
X113172994Y-94251004D01*
X113011639Y-94168789D01*
X113011630Y-94168785D01*
X112839419Y-94112831D01*
X112839405Y-94112828D01*
X112714519Y-94093048D01*
X112660546Y-94084500D01*
X112479454Y-94084500D01*
X112437992Y-94091066D01*
X112300594Y-94112828D01*
X112300580Y-94112831D01*
X112128369Y-94168785D01*
X112128360Y-94168789D01*
X112042885Y-94212341D01*
X111967006Y-94251004D01*
X111967003Y-94251005D01*
X111967001Y-94251007D01*
X111820509Y-94357438D01*
X111820494Y-94357451D01*
X111692451Y-94485494D01*
X111692438Y-94485509D01*
X111586007Y-94632001D01*
X111586005Y-94632003D01*
X111586004Y-94632006D01*
X111570467Y-94662499D01*
X111503789Y-94793360D01*
X111503785Y-94793369D01*
X111447831Y-94965580D01*
X111447828Y-94965594D01*
X111419500Y-95144454D01*
X111419500Y-95325546D01*
X111421530Y-95338360D01*
X111447828Y-95504405D01*
X111447831Y-95504419D01*
X111503785Y-95676630D01*
X111503789Y-95676639D01*
X111586004Y-95837994D01*
X111586007Y-95837998D01*
X111692438Y-95984490D01*
X111692444Y-95984497D01*
X111692447Y-95984501D01*
X111820499Y-96112553D01*
X111820503Y-96112556D01*
X111820509Y-96112561D01*
X111918170Y-96183515D01*
X111967006Y-96218996D01*
X112128361Y-96301211D01*
X112128365Y-96301212D01*
X112128369Y-96301214D01*
X112300580Y-96357168D01*
X112300584Y-96357168D01*
X112300591Y-96357171D01*
X112401453Y-96373146D01*
X112450810Y-96400504D01*
X112471034Y-96453188D01*
X112452662Y-96506547D01*
X112404289Y-96535613D01*
X112401453Y-96536113D01*
X112277294Y-96555778D01*
X112277284Y-96555780D01*
X112090162Y-96616581D01*
X111914865Y-96705898D01*
X111914852Y-96705907D01*
X111879873Y-96731319D01*
X111879873Y-96731320D01*
X112481415Y-97332861D01*
X112396306Y-97355667D01*
X112293694Y-97414910D01*
X112209910Y-97498694D01*
X112150667Y-97601306D01*
X112127862Y-97686414D01*
X111526321Y-97084873D01*
X111526319Y-97084873D01*
X111500907Y-97119852D01*
X111500898Y-97119865D01*
X111411581Y-97295162D01*
X111350780Y-97482284D01*
X111350778Y-97482294D01*
X111320000Y-97676623D01*
X111320000Y-97873376D01*
X111350778Y-98067705D01*
X111350780Y-98067715D01*
X111411581Y-98254837D01*
X111500898Y-98430134D01*
X111500908Y-98430149D01*
X111526319Y-98465125D01*
X111526321Y-98465125D01*
X112127861Y-97863584D01*
X112150667Y-97948694D01*
X112209910Y-98051306D01*
X112293694Y-98135090D01*
X112396306Y-98194333D01*
X112481414Y-98217137D01*
X111879872Y-98818678D01*
X111914861Y-98844098D01*
X111914865Y-98844101D01*
X112090162Y-98933418D01*
X112277284Y-98994219D01*
X112277294Y-98994221D01*
X112401453Y-99013886D01*
X112450810Y-99041245D01*
X112471034Y-99093930D01*
X112452662Y-99147289D01*
X112404289Y-99176354D01*
X112401453Y-99176854D01*
X112300594Y-99192828D01*
X112300580Y-99192831D01*
X112128369Y-99248785D01*
X112128360Y-99248789D01*
X112042885Y-99292341D01*
X111967006Y-99331004D01*
X111967003Y-99331005D01*
X111967001Y-99331007D01*
X111820509Y-99437438D01*
X111820494Y-99437451D01*
X111692451Y-99565494D01*
X111692438Y-99565509D01*
X111586007Y-99712001D01*
X111503789Y-99873360D01*
X111503785Y-99873369D01*
X111447831Y-100045580D01*
X111447828Y-100045594D01*
X111419500Y-100224454D01*
X111419500Y-100299250D01*
X111400199Y-100352280D01*
X111395336Y-100357586D01*
X110791336Y-100961586D01*
X110740190Y-100985436D01*
X110685680Y-100970830D01*
X110653311Y-100924603D01*
X110650500Y-100903250D01*
X110650500Y-79904454D01*
X111419500Y-79904454D01*
X111419500Y-80085545D01*
X111447828Y-80264405D01*
X111447831Y-80264419D01*
X111503785Y-80436630D01*
X111503789Y-80436639D01*
X111586004Y-80597994D01*
X111586007Y-80597998D01*
X111692438Y-80744490D01*
X111692444Y-80744497D01*
X111692447Y-80744501D01*
X111820499Y-80872553D01*
X111820503Y-80872556D01*
X111820509Y-80872561D01*
X111900598Y-80930748D01*
X111967006Y-80978996D01*
X112128361Y-81061211D01*
X112128365Y-81061212D01*
X112128369Y-81061214D01*
X112300580Y-81117168D01*
X112300585Y-81117169D01*
X112300591Y-81117171D01*
X112479454Y-81145500D01*
X112479455Y-81145500D01*
X112660545Y-81145500D01*
X112660546Y-81145500D01*
X112839409Y-81117171D01*
X112839416Y-81117168D01*
X112839419Y-81117168D01*
X113011630Y-81061214D01*
X113011630Y-81061213D01*
X113011639Y-81061211D01*
X113172994Y-80978996D01*
X113319501Y-80872553D01*
X113447553Y-80744501D01*
X113553996Y-80597994D01*
X113636211Y-80436639D01*
X113636214Y-80436630D01*
X113692168Y-80264419D01*
X113692168Y-80264416D01*
X113692171Y-80264409D01*
X113720500Y-80085546D01*
X113720500Y-79904454D01*
X113692171Y-79725591D01*
X113692169Y-79725585D01*
X113692168Y-79725580D01*
X113636214Y-79553369D01*
X113636212Y-79553365D01*
X113636211Y-79553361D01*
X113553996Y-79392006D01*
X113518515Y-79343170D01*
X113447561Y-79245509D01*
X113447556Y-79245503D01*
X113447553Y-79245499D01*
X113319501Y-79117447D01*
X113319497Y-79117444D01*
X113319490Y-79117438D01*
X113172998Y-79011007D01*
X113172994Y-79011004D01*
X113011639Y-78928789D01*
X113011630Y-78928785D01*
X112839419Y-78872831D01*
X112839405Y-78872828D01*
X112714519Y-78853048D01*
X112660546Y-78844500D01*
X112479454Y-78844500D01*
X112437992Y-78851066D01*
X112300594Y-78872828D01*
X112300580Y-78872831D01*
X112128369Y-78928785D01*
X112128360Y-78928789D01*
X112085751Y-78950500D01*
X111967006Y-79011004D01*
X111967003Y-79011005D01*
X111967001Y-79011007D01*
X111820509Y-79117438D01*
X111820494Y-79117451D01*
X111692451Y-79245494D01*
X111692438Y-79245509D01*
X111586007Y-79392001D01*
X111503789Y-79553360D01*
X111503785Y-79553369D01*
X111447831Y-79725580D01*
X111447828Y-79725594D01*
X111419500Y-79904454D01*
X110650500Y-79904454D01*
X110650500Y-77364454D01*
X111419500Y-77364454D01*
X111419500Y-77545545D01*
X111447828Y-77724405D01*
X111447831Y-77724419D01*
X111503785Y-77896630D01*
X111503789Y-77896639D01*
X111586004Y-78057994D01*
X111586007Y-78057998D01*
X111692438Y-78204490D01*
X111692444Y-78204497D01*
X111692447Y-78204501D01*
X111820499Y-78332553D01*
X111820503Y-78332556D01*
X111820509Y-78332561D01*
X111918170Y-78403515D01*
X111967006Y-78438996D01*
X112128361Y-78521211D01*
X112128365Y-78521212D01*
X112128369Y-78521214D01*
X112300580Y-78577168D01*
X112300585Y-78577169D01*
X112300591Y-78577171D01*
X112479454Y-78605500D01*
X112479455Y-78605500D01*
X112660545Y-78605500D01*
X112660546Y-78605500D01*
X112839409Y-78577171D01*
X112839416Y-78577168D01*
X112839419Y-78577168D01*
X113011630Y-78521214D01*
X113011630Y-78521213D01*
X113011639Y-78521211D01*
X113172994Y-78438996D01*
X113319501Y-78332553D01*
X113447553Y-78204501D01*
X113553996Y-78057994D01*
X113636211Y-77896639D01*
X113658616Y-77827682D01*
X113692168Y-77724419D01*
X113692168Y-77724416D01*
X113692171Y-77724409D01*
X113720500Y-77545546D01*
X113720500Y-77364454D01*
X113692171Y-77185591D01*
X113692169Y-77185585D01*
X113692168Y-77185580D01*
X113636214Y-77013369D01*
X113636212Y-77013365D01*
X113636211Y-77013361D01*
X113553996Y-76852006D01*
X113473084Y-76740639D01*
X113447561Y-76705509D01*
X113447556Y-76705503D01*
X113447553Y-76705499D01*
X113319501Y-76577447D01*
X113319497Y-76577444D01*
X113319490Y-76577438D01*
X113185474Y-76480071D01*
X113172994Y-76471004D01*
X113011639Y-76388789D01*
X113011630Y-76388785D01*
X112839419Y-76332831D01*
X112839405Y-76332828D01*
X112714519Y-76313048D01*
X112660546Y-76304500D01*
X112479454Y-76304500D01*
X112466069Y-76306620D01*
X112300594Y-76332828D01*
X112300580Y-76332831D01*
X112128369Y-76388785D01*
X112128360Y-76388789D01*
X112045504Y-76431007D01*
X111967006Y-76471004D01*
X111967003Y-76471005D01*
X111967001Y-76471007D01*
X111820509Y-76577438D01*
X111820494Y-76577451D01*
X111692451Y-76705494D01*
X111692438Y-76705509D01*
X111586007Y-76852001D01*
X111586005Y-76852003D01*
X111586004Y-76852006D01*
X111547341Y-76927885D01*
X111503789Y-77013360D01*
X111503785Y-77013369D01*
X111447831Y-77185580D01*
X111447828Y-77185594D01*
X111419500Y-77364454D01*
X110650500Y-77364454D01*
X110650500Y-74824454D01*
X111419500Y-74824454D01*
X111419500Y-75005546D01*
X111425677Y-75044547D01*
X111447828Y-75184405D01*
X111447831Y-75184419D01*
X111503785Y-75356630D01*
X111503789Y-75356639D01*
X111586004Y-75517994D01*
X111586007Y-75517998D01*
X111692438Y-75664490D01*
X111692444Y-75664497D01*
X111692447Y-75664501D01*
X111820499Y-75792553D01*
X111820503Y-75792556D01*
X111820509Y-75792561D01*
X111918170Y-75863515D01*
X111967006Y-75898996D01*
X112128361Y-75981211D01*
X112128365Y-75981212D01*
X112128369Y-75981214D01*
X112300580Y-76037168D01*
X112300585Y-76037169D01*
X112300591Y-76037171D01*
X112479454Y-76065500D01*
X112479455Y-76065500D01*
X112660545Y-76065500D01*
X112660546Y-76065500D01*
X112839409Y-76037171D01*
X112839416Y-76037168D01*
X112839419Y-76037168D01*
X113011630Y-75981214D01*
X113011630Y-75981213D01*
X113011639Y-75981211D01*
X113172994Y-75898996D01*
X113319501Y-75792553D01*
X113447553Y-75664501D01*
X113553996Y-75517994D01*
X113636211Y-75356639D01*
X113687734Y-75198065D01*
X113692168Y-75184419D01*
X113692168Y-75184416D01*
X113692171Y-75184409D01*
X113720500Y-75005546D01*
X113720500Y-74824454D01*
X113692171Y-74645591D01*
X113692169Y-74645585D01*
X113692168Y-74645580D01*
X113636214Y-74473369D01*
X113636212Y-74473365D01*
X113636211Y-74473361D01*
X113553996Y-74312006D01*
X113518515Y-74263170D01*
X113447561Y-74165509D01*
X113447556Y-74165503D01*
X113447553Y-74165499D01*
X113319501Y-74037447D01*
X113319497Y-74037444D01*
X113319490Y-74037438D01*
X113172998Y-73931007D01*
X113172994Y-73931004D01*
X113011639Y-73848789D01*
X113011630Y-73848785D01*
X112839419Y-73792831D01*
X112839405Y-73792828D01*
X112714519Y-73773048D01*
X112660546Y-73764500D01*
X112479454Y-73764500D01*
X112437992Y-73771066D01*
X112300594Y-73792828D01*
X112300580Y-73792831D01*
X112128369Y-73848785D01*
X112128360Y-73848789D01*
X112076919Y-73875000D01*
X111967006Y-73931004D01*
X111967003Y-73931005D01*
X111967001Y-73931007D01*
X111820509Y-74037438D01*
X111820494Y-74037451D01*
X111692451Y-74165494D01*
X111692438Y-74165509D01*
X111586007Y-74312001D01*
X111503789Y-74473360D01*
X111503785Y-74473369D01*
X111447831Y-74645580D01*
X111447828Y-74645594D01*
X111427704Y-74772654D01*
X111419500Y-74824454D01*
X110650500Y-74824454D01*
X110650500Y-72284454D01*
X111419500Y-72284454D01*
X111419500Y-72465545D01*
X111447828Y-72644405D01*
X111447831Y-72644419D01*
X111503782Y-72816621D01*
X111503789Y-72816639D01*
X111586004Y-72977994D01*
X111586007Y-72977998D01*
X111692438Y-73124490D01*
X111692444Y-73124497D01*
X111692447Y-73124501D01*
X111820499Y-73252553D01*
X111820503Y-73252556D01*
X111820509Y-73252561D01*
X111910819Y-73318174D01*
X111967006Y-73358996D01*
X112128361Y-73441211D01*
X112128365Y-73441212D01*
X112128369Y-73441214D01*
X112300580Y-73497168D01*
X112300585Y-73497169D01*
X112300591Y-73497171D01*
X112479454Y-73525500D01*
X112479455Y-73525500D01*
X112660545Y-73525500D01*
X112660546Y-73525500D01*
X112839409Y-73497171D01*
X112839416Y-73497168D01*
X112839419Y-73497168D01*
X113011630Y-73441214D01*
X113011630Y-73441213D01*
X113011639Y-73441211D01*
X113172994Y-73358996D01*
X113319501Y-73252553D01*
X113447553Y-73124501D01*
X113553996Y-72977994D01*
X113636211Y-72816639D01*
X113636213Y-72816630D01*
X113636218Y-72816621D01*
X113692168Y-72644419D01*
X113692168Y-72644416D01*
X113692171Y-72644409D01*
X113720500Y-72465546D01*
X113720500Y-72284454D01*
X113692171Y-72105591D01*
X113692169Y-72105585D01*
X113692168Y-72105580D01*
X113636214Y-71933369D01*
X113636212Y-71933365D01*
X113636211Y-71933361D01*
X113553996Y-71772006D01*
X113518515Y-71723170D01*
X113447561Y-71625509D01*
X113447556Y-71625503D01*
X113447553Y-71625499D01*
X113319501Y-71497447D01*
X113319497Y-71497444D01*
X113319490Y-71497438D01*
X113172998Y-71391007D01*
X113172994Y-71391004D01*
X113011639Y-71308789D01*
X113011630Y-71308785D01*
X112839419Y-71252831D01*
X112839405Y-71252828D01*
X112690132Y-71229186D01*
X112660546Y-71224500D01*
X112479454Y-71224500D01*
X112449868Y-71229186D01*
X112300594Y-71252828D01*
X112300580Y-71252831D01*
X112128369Y-71308785D01*
X112128360Y-71308789D01*
X112042885Y-71352341D01*
X111967006Y-71391004D01*
X111967003Y-71391005D01*
X111967001Y-71391007D01*
X111820509Y-71497438D01*
X111820494Y-71497451D01*
X111692451Y-71625494D01*
X111692438Y-71625509D01*
X111586007Y-71772001D01*
X111586005Y-71772003D01*
X111586004Y-71772006D01*
X111547341Y-71847885D01*
X111503789Y-71933360D01*
X111503785Y-71933369D01*
X111447831Y-72105580D01*
X111447828Y-72105594D01*
X111419500Y-72284454D01*
X110650500Y-72284454D01*
X110650500Y-69744454D01*
X111419500Y-69744454D01*
X111419500Y-69925545D01*
X111447828Y-70104405D01*
X111447831Y-70104419D01*
X111503785Y-70276630D01*
X111503789Y-70276639D01*
X111586004Y-70437994D01*
X111586007Y-70437998D01*
X111692438Y-70584490D01*
X111692444Y-70584497D01*
X111692447Y-70584501D01*
X111820499Y-70712553D01*
X111820503Y-70712556D01*
X111820509Y-70712561D01*
X111893445Y-70765551D01*
X111967006Y-70818996D01*
X112128361Y-70901211D01*
X112128365Y-70901212D01*
X112128369Y-70901214D01*
X112300580Y-70957168D01*
X112300585Y-70957169D01*
X112300591Y-70957171D01*
X112479454Y-70985500D01*
X112479455Y-70985500D01*
X112660545Y-70985500D01*
X112660546Y-70985500D01*
X112839409Y-70957171D01*
X112839416Y-70957168D01*
X112839419Y-70957168D01*
X113011630Y-70901214D01*
X113011630Y-70901213D01*
X113011639Y-70901211D01*
X113172994Y-70818996D01*
X113319501Y-70712553D01*
X113447553Y-70584501D01*
X113553996Y-70437994D01*
X113636211Y-70276639D01*
X113684718Y-70127347D01*
X113692168Y-70104419D01*
X113692168Y-70104416D01*
X113692171Y-70104409D01*
X113720500Y-69925546D01*
X113720500Y-69744454D01*
X113692171Y-69565591D01*
X113692169Y-69565585D01*
X113692168Y-69565580D01*
X113636214Y-69393369D01*
X113636212Y-69393365D01*
X113636211Y-69393361D01*
X113553996Y-69232006D01*
X113512216Y-69174500D01*
X113447561Y-69085509D01*
X113447556Y-69085503D01*
X113447553Y-69085499D01*
X113319501Y-68957447D01*
X113319497Y-68957444D01*
X113319490Y-68957438D01*
X113172998Y-68851007D01*
X113172994Y-68851004D01*
X113011639Y-68768789D01*
X113011630Y-68768785D01*
X112839419Y-68712831D01*
X112839405Y-68712828D01*
X112714519Y-68693048D01*
X112660546Y-68684500D01*
X112479454Y-68684500D01*
X112437992Y-68691066D01*
X112300594Y-68712828D01*
X112300580Y-68712831D01*
X112128369Y-68768785D01*
X112128360Y-68768789D01*
X112046956Y-68810267D01*
X111967006Y-68851004D01*
X111967003Y-68851005D01*
X111967001Y-68851007D01*
X111820509Y-68957438D01*
X111820494Y-68957451D01*
X111692451Y-69085494D01*
X111692438Y-69085509D01*
X111586007Y-69232001D01*
X111586005Y-69232003D01*
X111586004Y-69232006D01*
X111547341Y-69307885D01*
X111503789Y-69393360D01*
X111503785Y-69393369D01*
X111447831Y-69565580D01*
X111447828Y-69565594D01*
X111419500Y-69744454D01*
X110650500Y-69744454D01*
X110650500Y-67204454D01*
X111419500Y-67204454D01*
X111419500Y-67385545D01*
X111447828Y-67564405D01*
X111447831Y-67564419D01*
X111503785Y-67736630D01*
X111503789Y-67736639D01*
X111586004Y-67897994D01*
X111586007Y-67897998D01*
X111692438Y-68044490D01*
X111692444Y-68044497D01*
X111692447Y-68044501D01*
X111820499Y-68172553D01*
X111820503Y-68172556D01*
X111820509Y-68172561D01*
X111902062Y-68231812D01*
X111967006Y-68278996D01*
X112128361Y-68361211D01*
X112128365Y-68361212D01*
X112128369Y-68361214D01*
X112300580Y-68417168D01*
X112300585Y-68417169D01*
X112300591Y-68417171D01*
X112479454Y-68445500D01*
X112479455Y-68445500D01*
X112660545Y-68445500D01*
X112660546Y-68445500D01*
X112839409Y-68417171D01*
X112839416Y-68417168D01*
X112839419Y-68417168D01*
X113011630Y-68361214D01*
X113011630Y-68361213D01*
X113011639Y-68361211D01*
X113172994Y-68278996D01*
X113319501Y-68172553D01*
X113447553Y-68044501D01*
X113553996Y-67897994D01*
X113636211Y-67736639D01*
X113663115Y-67653836D01*
X113692168Y-67564419D01*
X113692168Y-67564416D01*
X113692171Y-67564409D01*
X113720500Y-67385546D01*
X113720500Y-67204454D01*
X113692171Y-67025591D01*
X113692169Y-67025585D01*
X113692168Y-67025580D01*
X113636214Y-66853369D01*
X113636212Y-66853365D01*
X113636211Y-66853361D01*
X113553996Y-66692006D01*
X113518515Y-66643170D01*
X113447561Y-66545509D01*
X113447556Y-66545503D01*
X113447553Y-66545499D01*
X113319501Y-66417447D01*
X113319497Y-66417444D01*
X113319490Y-66417438D01*
X113172998Y-66311007D01*
X113172994Y-66311004D01*
X113011639Y-66228789D01*
X113011630Y-66228785D01*
X112839419Y-66172831D01*
X112839405Y-66172828D01*
X112714519Y-66153048D01*
X112660546Y-66144500D01*
X112479454Y-66144500D01*
X112437992Y-66151066D01*
X112300594Y-66172828D01*
X112300580Y-66172831D01*
X112128369Y-66228785D01*
X112128360Y-66228789D01*
X112042885Y-66272341D01*
X111967006Y-66311004D01*
X111967003Y-66311005D01*
X111967001Y-66311007D01*
X111820509Y-66417438D01*
X111820494Y-66417451D01*
X111692451Y-66545494D01*
X111692438Y-66545509D01*
X111586007Y-66692001D01*
X111503789Y-66853360D01*
X111503785Y-66853369D01*
X111447831Y-67025580D01*
X111447828Y-67025594D01*
X111419500Y-67204454D01*
X110650500Y-67204454D01*
X110650500Y-63973480D01*
X111419500Y-63973480D01*
X111419500Y-65536513D01*
X111434354Y-65630305D01*
X111491948Y-65743339D01*
X111491950Y-65743342D01*
X111581658Y-65833050D01*
X111694696Y-65890646D01*
X111694699Y-65890647D01*
X111730719Y-65896351D01*
X111788481Y-65905500D01*
X113351518Y-65905499D01*
X113445304Y-65890646D01*
X113558342Y-65833050D01*
X113648050Y-65743342D01*
X113705646Y-65630304D01*
X113720500Y-65536519D01*
X113720499Y-64664454D01*
X134279500Y-64664454D01*
X134279500Y-64845545D01*
X134307828Y-65024405D01*
X134307831Y-65024419D01*
X134363785Y-65196630D01*
X134363789Y-65196639D01*
X134446004Y-65357994D01*
X134446007Y-65357998D01*
X134552438Y-65504490D01*
X134552444Y-65504497D01*
X134552447Y-65504501D01*
X134680499Y-65632553D01*
X134680503Y-65632556D01*
X134680509Y-65632561D01*
X134778170Y-65703515D01*
X134827006Y-65738996D01*
X134988361Y-65821211D01*
X134988365Y-65821212D01*
X134988369Y-65821214D01*
X135160580Y-65877168D01*
X135160585Y-65877169D01*
X135160591Y-65877171D01*
X135339454Y-65905500D01*
X135339455Y-65905500D01*
X135520545Y-65905500D01*
X135520546Y-65905500D01*
X135699409Y-65877171D01*
X135699416Y-65877168D01*
X135699419Y-65877168D01*
X135871630Y-65821214D01*
X135871630Y-65821213D01*
X135871639Y-65821211D01*
X136032994Y-65738996D01*
X136179501Y-65632553D01*
X136307553Y-65504501D01*
X136413996Y-65357994D01*
X136496211Y-65196639D01*
X136552171Y-65024409D01*
X136580500Y-64845546D01*
X136580500Y-64664454D01*
X136552171Y-64485591D01*
X136552169Y-64485585D01*
X136552168Y-64485580D01*
X136496214Y-64313369D01*
X136496212Y-64313365D01*
X136496211Y-64313361D01*
X136413996Y-64152006D01*
X136378515Y-64103170D01*
X136307561Y-64005509D01*
X136307556Y-64005503D01*
X136307553Y-64005499D01*
X136179501Y-63877447D01*
X136179497Y-63877444D01*
X136179490Y-63877438D01*
X136032998Y-63771007D01*
X136032994Y-63771004D01*
X135871639Y-63688789D01*
X135871630Y-63688785D01*
X135699419Y-63632831D01*
X135699405Y-63632828D01*
X135574519Y-63613048D01*
X135520546Y-63604500D01*
X135339454Y-63604500D01*
X135297992Y-63611066D01*
X135160594Y-63632828D01*
X135160580Y-63632831D01*
X134988369Y-63688785D01*
X134988360Y-63688789D01*
X134902885Y-63732341D01*
X134827006Y-63771004D01*
X134827003Y-63771005D01*
X134827001Y-63771007D01*
X134680509Y-63877438D01*
X134680494Y-63877451D01*
X134552451Y-64005494D01*
X134552438Y-64005509D01*
X134446007Y-64152001D01*
X134363789Y-64313360D01*
X134363785Y-64313369D01*
X134307831Y-64485580D01*
X134307828Y-64485594D01*
X134279500Y-64664454D01*
X113720499Y-64664454D01*
X113720499Y-63973482D01*
X113705646Y-63879696D01*
X113704495Y-63877438D01*
X113648051Y-63766660D01*
X113648050Y-63766658D01*
X113558342Y-63676950D01*
X113558340Y-63676949D01*
X113558339Y-63676948D01*
X113445305Y-63619354D01*
X113445300Y-63619352D01*
X113351519Y-63604500D01*
X111788486Y-63604500D01*
X111694694Y-63619354D01*
X111581660Y-63676948D01*
X111581656Y-63676951D01*
X111491951Y-63766656D01*
X111491948Y-63766660D01*
X111434354Y-63879694D01*
X111434352Y-63879699D01*
X111419500Y-63973480D01*
X110650500Y-63973480D01*
X110650500Y-63305405D01*
X110651206Y-63294637D01*
X110664398Y-63194431D01*
X110669972Y-63173627D01*
X110706567Y-63085278D01*
X110717329Y-63066639D01*
X110775550Y-62990764D01*
X110790764Y-62975550D01*
X110866639Y-62917329D01*
X110885278Y-62906567D01*
X110973628Y-62869971D01*
X110994430Y-62864398D01*
X111094637Y-62851205D01*
X111105405Y-62850500D01*
X111155514Y-62850500D01*
X136844486Y-62850500D01*
X136894595Y-62850500D01*
X136905363Y-62851206D01*
G37*
%TD.AperFunction*%
%TA.AperFunction,Conductor*%
G36*
X128643780Y-99159093D02*
G01*
X128948681Y-99463995D01*
X128948686Y-99463999D01*
X128948687Y-99464000D01*
X129062815Y-99529892D01*
X129190109Y-99564000D01*
X129321894Y-99564000D01*
X130229015Y-99564000D01*
X130282045Y-99583301D01*
X130310262Y-99632174D01*
X130300462Y-99687750D01*
X130287351Y-99704835D01*
X129753969Y-100238217D01*
X129240850Y-100751336D01*
X129189704Y-100775186D01*
X129182514Y-100775500D01*
X128266575Y-100775500D01*
X128213545Y-100756199D01*
X128185328Y-100707326D01*
X128195128Y-100651750D01*
X128196358Y-100649689D01*
X128222259Y-100607697D01*
X128276489Y-100444039D01*
X128286807Y-100343033D01*
X128286808Y-100343032D01*
X128286808Y-100306391D01*
X127331808Y-100306391D01*
X127278778Y-100287090D01*
X127250561Y-100238217D01*
X127249308Y-100223891D01*
X127249308Y-99888891D01*
X127268609Y-99835861D01*
X127317482Y-99807644D01*
X127331808Y-99806391D01*
X128286807Y-99806391D01*
X128286807Y-99769750D01*
X128286806Y-99769747D01*
X128276489Y-99668742D01*
X128222259Y-99505084D01*
X128131751Y-99358352D01*
X128131746Y-99358345D01*
X128075172Y-99301771D01*
X128051322Y-99250625D01*
X128065928Y-99196115D01*
X128112155Y-99163746D01*
X128142324Y-99161408D01*
X128157127Y-99163000D01*
X128452872Y-99162999D01*
X128452879Y-99162999D01*
X128512476Y-99156592D01*
X128512477Y-99156591D01*
X128512483Y-99156591D01*
X128556614Y-99140130D01*
X128613044Y-99139683D01*
X128643780Y-99159093D01*
G37*
%TD.AperFunction*%
%TA.AperFunction,Conductor*%
G36*
X123773936Y-98777363D02*
G01*
X123778530Y-98777088D01*
X123797864Y-98791432D01*
X123818617Y-98803634D01*
X123821842Y-98809221D01*
X123823852Y-98810712D01*
X123824661Y-98814103D01*
X123832298Y-98827330D01*
X123861204Y-98904833D01*
X123938544Y-99008144D01*
X123955000Y-99057585D01*
X123955000Y-99254511D01*
X124011626Y-99247057D01*
X124011633Y-99247055D01*
X124157586Y-99186600D01*
X124170589Y-99176622D01*
X124224410Y-99159649D01*
X124229629Y-99160043D01*
X124257127Y-99163000D01*
X124552872Y-99162999D01*
X124552878Y-99162999D01*
X124580364Y-99160044D01*
X124624425Y-99167477D01*
X124755500Y-99229404D01*
X124774028Y-99248120D01*
X124793436Y-99265903D01*
X124793712Y-99268003D01*
X124795203Y-99269509D01*
X124797364Y-99295740D01*
X124800803Y-99321853D01*
X124799684Y-99323891D01*
X124799838Y-99325752D01*
X124794616Y-99333129D01*
X124778595Y-99362334D01*
X124716182Y-99424747D01*
X124634128Y-99563495D01*
X124634125Y-99563501D01*
X124589154Y-99718291D01*
X124586308Y-99754452D01*
X124586308Y-100117000D01*
X124567007Y-100170030D01*
X124518134Y-100198247D01*
X124503808Y-100199500D01*
X124324328Y-100199500D01*
X124271298Y-100180199D01*
X124265992Y-100175336D01*
X124246542Y-100155886D01*
X124246543Y-100155886D01*
X124131810Y-100079224D01*
X124004332Y-100026421D01*
X124004328Y-100026420D01*
X123868993Y-99999500D01*
X123731007Y-99999500D01*
X123723860Y-100000921D01*
X123704093Y-100004853D01*
X123648317Y-99996267D01*
X123611109Y-99953837D01*
X123605500Y-99923938D01*
X123605500Y-98990124D01*
X123614214Y-98953221D01*
X123617521Y-98946607D01*
X123648796Y-98904831D01*
X123679242Y-98823200D01*
X123681214Y-98819258D01*
X123698696Y-98802708D01*
X123714318Y-98784389D01*
X123718855Y-98783625D01*
X123722197Y-98780463D01*
X123746228Y-98779023D01*
X123769970Y-98775031D01*
X123773936Y-98777363D01*
G37*
%TD.AperFunction*%
%TA.AperFunction,Conductor*%
G36*
X122575030Y-94011301D02*
G01*
X122603247Y-94060174D01*
X122604500Y-94074500D01*
X122604500Y-96564013D01*
X122619354Y-96657805D01*
X122675015Y-96767046D01*
X122681893Y-96823059D01*
X122651157Y-96870387D01*
X122601507Y-96887000D01*
X122307120Y-96887000D01*
X122247520Y-96893408D01*
X122247517Y-96893408D01*
X122247517Y-96893409D01*
X122235027Y-96898067D01*
X122158829Y-96926486D01*
X122102398Y-96926932D01*
X122101171Y-96926486D01*
X122024972Y-96898067D01*
X122012483Y-96893409D01*
X122012482Y-96893408D01*
X122012480Y-96893408D01*
X121961036Y-96887877D01*
X121952873Y-96887000D01*
X121952872Y-96887000D01*
X121657120Y-96887000D01*
X121597520Y-96893408D01*
X121597517Y-96893408D01*
X121597517Y-96893409D01*
X121585027Y-96898067D01*
X121508829Y-96926486D01*
X121452398Y-96926932D01*
X121451171Y-96926486D01*
X121374972Y-96898067D01*
X121362483Y-96893409D01*
X121362482Y-96893408D01*
X121362480Y-96893408D01*
X121311036Y-96887877D01*
X121302873Y-96887000D01*
X121302872Y-96887000D01*
X121007120Y-96887000D01*
X120947523Y-96893407D01*
X120947513Y-96893410D01*
X120812667Y-96943704D01*
X120697454Y-97029954D01*
X120611204Y-97145167D01*
X120560908Y-97280017D01*
X120560908Y-97280019D01*
X120554500Y-97339627D01*
X120554500Y-97442000D01*
X120535199Y-97495030D01*
X120486326Y-97523247D01*
X120472000Y-97524500D01*
X119182486Y-97524500D01*
X119129456Y-97505199D01*
X119101239Y-97456326D01*
X119111039Y-97400750D01*
X119124150Y-97383664D01*
X119600495Y-96907319D01*
X119600500Y-96907314D01*
X119666392Y-96793186D01*
X119700500Y-96665892D01*
X119700500Y-96534107D01*
X119700500Y-94615828D01*
X119719801Y-94562798D01*
X119724664Y-94557492D01*
X119744114Y-94538042D01*
X119820775Y-94423311D01*
X119873580Y-94295828D01*
X119900500Y-94160493D01*
X119900500Y-94074500D01*
X119919801Y-94021470D01*
X119968674Y-93993253D01*
X119983000Y-93992000D01*
X122522000Y-93992000D01*
X122575030Y-94011301D01*
G37*
%TD.AperFunction*%
%TA.AperFunction,Conductor*%
G36*
X125719848Y-88927663D02*
G01*
X126349500Y-89557314D01*
X126442686Y-89650500D01*
X126556814Y-89716392D01*
X126684108Y-89750500D01*
X127117500Y-89750500D01*
X127170530Y-89769801D01*
X127198747Y-89818674D01*
X127200000Y-89833000D01*
X127200000Y-89850000D01*
X128155000Y-89850000D01*
X128208030Y-89869301D01*
X128236247Y-89918174D01*
X128237500Y-89932500D01*
X128237500Y-90100000D01*
X128405000Y-90100000D01*
X128458030Y-90119301D01*
X128486247Y-90168174D01*
X128487500Y-90182500D01*
X128487500Y-90981627D01*
X128504686Y-91018483D01*
X128505000Y-91025673D01*
X128505000Y-92217500D01*
X128497669Y-92237641D01*
X128493947Y-92258750D01*
X128488245Y-92263534D01*
X128485699Y-92270530D01*
X128467136Y-92281247D01*
X128450717Y-92295025D01*
X128439999Y-92296914D01*
X128436826Y-92298747D01*
X128422500Y-92300000D01*
X128338000Y-92300000D01*
X128284970Y-92280699D01*
X128256753Y-92231826D01*
X128255500Y-92217500D01*
X128255499Y-91614620D01*
X128249092Y-91555023D01*
X128249091Y-91555019D01*
X128249091Y-91555017D01*
X128198796Y-91420169D01*
X128198795Y-91420167D01*
X128198795Y-91420166D01*
X128121456Y-91316856D01*
X128105000Y-91267415D01*
X128105000Y-91163500D01*
X128070000Y-91163500D01*
X128016970Y-91144199D01*
X127988753Y-91095326D01*
X127987500Y-91081000D01*
X127987500Y-90350000D01*
X127200001Y-90350000D01*
X127200001Y-90386643D01*
X127210318Y-90487648D01*
X127264548Y-90651306D01*
X127355056Y-90798038D01*
X127355061Y-90798045D01*
X127476954Y-90919938D01*
X127476960Y-90919943D01*
X127621801Y-91009283D01*
X127624835Y-91013120D01*
X127629482Y-91014646D01*
X127642034Y-91034872D01*
X127656803Y-91053550D01*
X127656660Y-91058439D01*
X127659240Y-91062596D01*
X127655853Y-91086164D01*
X127655161Y-91109960D01*
X127651909Y-91113613D01*
X127651214Y-91118456D01*
X127633469Y-91134334D01*
X127617644Y-91152117D01*
X127611853Y-91153677D01*
X127609159Y-91156088D01*
X127587168Y-91160327D01*
X127581115Y-91161958D01*
X127579772Y-91162000D01*
X127507128Y-91162001D01*
X127476563Y-91165286D01*
X127473441Y-91165386D01*
X127449404Y-91157494D01*
X127424843Y-91151431D01*
X127420594Y-91148380D01*
X127407587Y-91138400D01*
X127261634Y-91077945D01*
X127261629Y-91077944D01*
X127205000Y-91070487D01*
X127205000Y-91267415D01*
X127188544Y-91316856D01*
X127111204Y-91420166D01*
X127060908Y-91555017D01*
X127060908Y-91555019D01*
X127056965Y-91591696D01*
X127054500Y-91614627D01*
X127054500Y-92299999D01*
X127054501Y-92417500D01*
X127035200Y-92470530D01*
X126986327Y-92498747D01*
X126972001Y-92500000D01*
X125137500Y-92500000D01*
X125084470Y-92480699D01*
X125056253Y-92431826D01*
X125055000Y-92417500D01*
X125055000Y-92299999D01*
X125036118Y-92281117D01*
X125034969Y-92280699D01*
X125033970Y-92278969D01*
X125030837Y-92275836D01*
X125031676Y-92274996D01*
X125006752Y-92231826D01*
X125005499Y-92217500D01*
X125005499Y-91614620D01*
X124999092Y-91555023D01*
X124999091Y-91555019D01*
X124999091Y-91555017D01*
X124948796Y-91420169D01*
X124938147Y-91405944D01*
X124921956Y-91384315D01*
X124905500Y-91334874D01*
X124905500Y-91070487D01*
X125255000Y-91070487D01*
X125255000Y-92100000D01*
X125505000Y-92100000D01*
X125505000Y-91070487D01*
X125905000Y-91070487D01*
X125905000Y-92100000D01*
X126155000Y-92100000D01*
X126155000Y-91070487D01*
X126555000Y-91070487D01*
X126555000Y-92100000D01*
X126805000Y-92100000D01*
X126805000Y-91070487D01*
X126804999Y-91070487D01*
X126748370Y-91077944D01*
X126748365Y-91077945D01*
X126711571Y-91093186D01*
X126655191Y-91095648D01*
X126648429Y-91093186D01*
X126611634Y-91077945D01*
X126611629Y-91077944D01*
X126555000Y-91070487D01*
X126155000Y-91070487D01*
X126154999Y-91070487D01*
X126098370Y-91077944D01*
X126098365Y-91077945D01*
X126061571Y-91093186D01*
X126005191Y-91095648D01*
X125998429Y-91093186D01*
X125961634Y-91077945D01*
X125961629Y-91077944D01*
X125905000Y-91070487D01*
X125505000Y-91070487D01*
X125504999Y-91070487D01*
X125448370Y-91077944D01*
X125448365Y-91077945D01*
X125411571Y-91093186D01*
X125355191Y-91095648D01*
X125348429Y-91093186D01*
X125311634Y-91077945D01*
X125311629Y-91077944D01*
X125255000Y-91070487D01*
X124905500Y-91070487D01*
X124905500Y-90448986D01*
X124911659Y-90432063D01*
X124913229Y-90414120D01*
X124923559Y-90399366D01*
X124924801Y-90395956D01*
X124929653Y-90390659D01*
X125026359Y-90293953D01*
X125061677Y-90273067D01*
X125101673Y-90261446D01*
X125217894Y-90227681D01*
X125356643Y-90145626D01*
X125470626Y-90031643D01*
X125552681Y-89892894D01*
X125597654Y-89738098D01*
X125600500Y-89701935D01*
X125600499Y-89098066D01*
X125597654Y-89061902D01*
X125582288Y-89009013D01*
X125586027Y-88952708D01*
X125625087Y-88911976D01*
X125681190Y-88905880D01*
X125719848Y-88927663D01*
G37*
%TD.AperFunction*%
%TA.AperFunction,Conductor*%
G36*
X116395031Y-84543801D02*
G01*
X116423248Y-84592674D01*
X116424501Y-84607000D01*
X116424501Y-84826941D01*
X116427345Y-84863092D01*
X116427347Y-84863103D01*
X116472317Y-85017889D01*
X116472318Y-85017891D01*
X116472319Y-85017894D01*
X116525308Y-85107494D01*
X116554376Y-85156646D01*
X116668354Y-85270624D01*
X116807101Y-85352679D01*
X116807106Y-85352681D01*
X116910465Y-85382709D01*
X116945783Y-85403597D01*
X117942680Y-86400495D01*
X117942685Y-86400499D01*
X117942686Y-86400500D01*
X118056814Y-86466392D01*
X118184108Y-86500500D01*
X118315893Y-86500500D01*
X120434108Y-86500500D01*
X120565892Y-86500500D01*
X122592514Y-86500500D01*
X122645544Y-86519801D01*
X122673761Y-86568674D01*
X122663961Y-86624250D01*
X122650850Y-86641336D01*
X118316850Y-90975336D01*
X118265704Y-90999186D01*
X118258514Y-90999500D01*
X117807740Y-90999500D01*
X117754710Y-90980199D01*
X117736729Y-90958996D01*
X117735544Y-90956992D01*
X117683126Y-90868357D01*
X117683124Y-90868355D01*
X117683123Y-90868353D01*
X117569146Y-90754376D01*
X117529631Y-90731007D01*
X117430394Y-90672319D01*
X117430391Y-90672318D01*
X117430389Y-90672317D01*
X117275599Y-90627346D01*
X117239438Y-90624500D01*
X117239435Y-90624500D01*
X116719500Y-90624500D01*
X116666470Y-90605199D01*
X116638253Y-90556326D01*
X116637000Y-90542000D01*
X116637000Y-88575612D01*
X116637000Y-88575608D01*
X116602892Y-88448314D01*
X116537000Y-88334186D01*
X116443814Y-88241000D01*
X113692372Y-85489558D01*
X113668522Y-85438412D01*
X113672245Y-85405733D01*
X113692171Y-85344409D01*
X113720500Y-85165546D01*
X113720500Y-84984454D01*
X113692171Y-84805591D01*
X113692169Y-84805585D01*
X113692168Y-84805580D01*
X113635930Y-84632493D01*
X113637900Y-84576094D01*
X113675661Y-84534157D01*
X113714392Y-84524500D01*
X116342001Y-84524500D01*
X116395031Y-84543801D01*
G37*
%TD.AperFunction*%
%TD*%
M02*
