%TF.GenerationSoftware,KiCad,Pcbnew,9.0.0*%
%TF.CreationDate,2026-03-10T17:38:38+01:00*%
%TF.ProjectId,ESP32_Shield,45535033-325f-4536-9869-656c642e6b69,rev?*%
%TF.SameCoordinates,Original*%
%TF.FileFunction,Soldermask,Top*%
%TF.FilePolarity,Negative*%
%FSLAX46Y46*%
G04 Gerber Fmt 4.6, Leading zero omitted, Abs format (unit mm)*
G04 Created by KiCad (PCBNEW 9.0.0) date 2026-03-10 17:38:38*
%MOMM*%
%LPD*%
G01*
G04 APERTURE LIST*
G04 Aperture macros list*
%AMRoundRect*
0 Rectangle with rounded corners*
0 $1 Rounding radius*
0 $2 $3 $4 $5 $6 $7 $8 $9 X,Y pos of 4 corners*
0 Add a 4 corners polygon primitive as box body*
4,1,4,$2,$3,$4,$5,$6,$7,$8,$9,$2,$3,0*
0 Add four circle primitives for the rounded corners*
1,1,$1+$1,$2,$3*
1,1,$1+$1,$4,$5*
1,1,$1+$1,$6,$7*
1,1,$1+$1,$8,$9*
0 Add four rect primitives between the rounded corners*
20,1,$1+$1,$2,$3,$4,$5,0*
20,1,$1+$1,$4,$5,$6,$7,0*
20,1,$1+$1,$6,$7,$8,$9,0*
20,1,$1+$1,$8,$9,$2,$3,0*%
%AMFreePoly0*
4,1,6,0.500000,-0.850000,-0.500000,-0.850000,-0.500000,0.550000,-0.200000,0.850000,0.500000,0.850000,0.500000,-0.850000,0.500000,-0.850000,$1*%
G04 Aperture macros list end*
%ADD10C,0.010000*%
%ADD11C,1.600000*%
%ADD12R,1.700000X1.700000*%
%ADD13O,1.700000X1.700000*%
%ADD14RoundRect,0.237500X0.250000X0.237500X-0.250000X0.237500X-0.250000X-0.237500X0.250000X-0.237500X0*%
%ADD15R,3.400000X0.980000*%
%ADD16RoundRect,0.237500X0.300000X0.237500X-0.300000X0.237500X-0.300000X-0.237500X0.300000X-0.237500X0*%
%ADD17RoundRect,0.237500X-0.237500X0.300000X-0.237500X-0.300000X0.237500X-0.300000X0.237500X0.300000X0*%
%ADD18R,1.000000X1.600000*%
%ADD19RoundRect,0.237500X-0.300000X-0.237500X0.300000X-0.237500X0.300000X0.237500X-0.300000X0.237500X0*%
%ADD20RoundRect,0.100000X-0.100000X0.637500X-0.100000X-0.637500X0.100000X-0.637500X0.100000X0.637500X0*%
%ADD21R,4.750000X2.740000*%
%ADD22RoundRect,0.237500X-0.237500X0.250000X-0.237500X-0.250000X0.237500X-0.250000X0.237500X0.250000X0*%
%ADD23C,1.700000*%
%ADD24RoundRect,0.150000X0.150000X-0.587500X0.150000X0.587500X-0.150000X0.587500X-0.150000X-0.587500X0*%
%ADD25RoundRect,0.150000X-0.150000X0.587500X-0.150000X-0.587500X0.150000X-0.587500X0.150000X0.587500X0*%
%ADD26R,1.500000X1.500000*%
%ADD27C,1.500000*%
%ADD28RoundRect,0.237500X-0.250000X-0.237500X0.250000X-0.237500X0.250000X0.237500X-0.250000X0.237500X0*%
%ADD29R,0.550000X0.250000*%
%ADD30FreePoly0,180.000000*%
G04 APERTURE END LIST*
D10*
%TO.C,U4*%
X122613000Y-116106000D02*
X122619000Y-116106000D01*
X122625000Y-116108000D01*
X122631000Y-116109000D01*
X122637000Y-116111000D01*
X122643000Y-116113000D01*
X122649000Y-116115000D01*
X122654000Y-116118000D01*
X122660000Y-116121000D01*
X122665000Y-116124000D01*
X122671000Y-116128000D01*
X122676000Y-116132000D01*
X122680000Y-116136000D01*
X122685000Y-116140000D01*
X122689000Y-116145000D01*
X122693000Y-116149000D01*
X122697000Y-116154000D01*
X122701000Y-116160000D01*
X122704000Y-116165000D01*
X122707000Y-116171000D01*
X122710000Y-116176000D01*
X122712000Y-116182000D01*
X122714000Y-116188000D01*
X122716000Y-116194000D01*
X122717000Y-116200000D01*
X122719000Y-116206000D01*
X122719000Y-116212000D01*
X122720000Y-116219000D01*
X122720000Y-116225000D01*
X122720000Y-116375000D01*
X122720000Y-116381000D01*
X122719000Y-116388000D01*
X122719000Y-116394000D01*
X122717000Y-116400000D01*
X122716000Y-116406000D01*
X122714000Y-116412000D01*
X122712000Y-116418000D01*
X122710000Y-116424000D01*
X122707000Y-116429000D01*
X122704000Y-116435000D01*
X122701000Y-116440000D01*
X122697000Y-116446000D01*
X122693000Y-116451000D01*
X122689000Y-116455000D01*
X122685000Y-116460000D01*
X122680000Y-116464000D01*
X122676000Y-116468000D01*
X122671000Y-116472000D01*
X122665000Y-116476000D01*
X122660000Y-116479000D01*
X122654000Y-116482000D01*
X122649000Y-116485000D01*
X122643000Y-116487000D01*
X122637000Y-116489000D01*
X122631000Y-116491000D01*
X122625000Y-116492000D01*
X122619000Y-116494000D01*
X122613000Y-116494000D01*
X122606000Y-116495000D01*
X122600000Y-116495000D01*
X122100000Y-116495000D01*
X122094000Y-116495000D01*
X122087000Y-116494000D01*
X122081000Y-116494000D01*
X122075000Y-116492000D01*
X122069000Y-116491000D01*
X122063000Y-116489000D01*
X122057000Y-116487000D01*
X122051000Y-116485000D01*
X122046000Y-116482000D01*
X122040000Y-116479000D01*
X122035000Y-116476000D01*
X122029000Y-116472000D01*
X122024000Y-116468000D01*
X122020000Y-116464000D01*
X122015000Y-116460000D01*
X122011000Y-116455000D01*
X122007000Y-116451000D01*
X122003000Y-116446000D01*
X121999000Y-116440000D01*
X121996000Y-116435000D01*
X121993000Y-116429000D01*
X121990000Y-116424000D01*
X121988000Y-116418000D01*
X121986000Y-116412000D01*
X121984000Y-116406000D01*
X121983000Y-116400000D01*
X121981000Y-116394000D01*
X121981000Y-116388000D01*
X121980000Y-116381000D01*
X121980000Y-116375000D01*
X121980000Y-116225000D01*
X121980000Y-116219000D01*
X121981000Y-116212000D01*
X121981000Y-116206000D01*
X121983000Y-116200000D01*
X121984000Y-116194000D01*
X121986000Y-116188000D01*
X121988000Y-116182000D01*
X121990000Y-116176000D01*
X121993000Y-116171000D01*
X121996000Y-116165000D01*
X121999000Y-116160000D01*
X122003000Y-116154000D01*
X122007000Y-116149000D01*
X122011000Y-116145000D01*
X122015000Y-116140000D01*
X122020000Y-116136000D01*
X122024000Y-116132000D01*
X122029000Y-116128000D01*
X122035000Y-116124000D01*
X122040000Y-116121000D01*
X122046000Y-116118000D01*
X122051000Y-116115000D01*
X122057000Y-116113000D01*
X122063000Y-116111000D01*
X122069000Y-116109000D01*
X122075000Y-116108000D01*
X122081000Y-116106000D01*
X122087000Y-116106000D01*
X122094000Y-116105000D01*
X122100000Y-116105000D01*
X122600000Y-116105000D01*
X122606000Y-116105000D01*
X122613000Y-116106000D01*
G36*
X122613000Y-116106000D02*
G01*
X122619000Y-116106000D01*
X122625000Y-116108000D01*
X122631000Y-116109000D01*
X122637000Y-116111000D01*
X122643000Y-116113000D01*
X122649000Y-116115000D01*
X122654000Y-116118000D01*
X122660000Y-116121000D01*
X122665000Y-116124000D01*
X122671000Y-116128000D01*
X122676000Y-116132000D01*
X122680000Y-116136000D01*
X122685000Y-116140000D01*
X122689000Y-116145000D01*
X122693000Y-116149000D01*
X122697000Y-116154000D01*
X122701000Y-116160000D01*
X122704000Y-116165000D01*
X122707000Y-116171000D01*
X122710000Y-116176000D01*
X122712000Y-116182000D01*
X122714000Y-116188000D01*
X122716000Y-116194000D01*
X122717000Y-116200000D01*
X122719000Y-116206000D01*
X122719000Y-116212000D01*
X122720000Y-116219000D01*
X122720000Y-116225000D01*
X122720000Y-116375000D01*
X122720000Y-116381000D01*
X122719000Y-116388000D01*
X122719000Y-116394000D01*
X122717000Y-116400000D01*
X122716000Y-116406000D01*
X122714000Y-116412000D01*
X122712000Y-116418000D01*
X122710000Y-116424000D01*
X122707000Y-116429000D01*
X122704000Y-116435000D01*
X122701000Y-116440000D01*
X122697000Y-116446000D01*
X122693000Y-116451000D01*
X122689000Y-116455000D01*
X122685000Y-116460000D01*
X122680000Y-116464000D01*
X122676000Y-116468000D01*
X122671000Y-116472000D01*
X122665000Y-116476000D01*
X122660000Y-116479000D01*
X122654000Y-116482000D01*
X122649000Y-116485000D01*
X122643000Y-116487000D01*
X122637000Y-116489000D01*
X122631000Y-116491000D01*
X122625000Y-116492000D01*
X122619000Y-116494000D01*
X122613000Y-116494000D01*
X122606000Y-116495000D01*
X122600000Y-116495000D01*
X122100000Y-116495000D01*
X122094000Y-116495000D01*
X122087000Y-116494000D01*
X122081000Y-116494000D01*
X122075000Y-116492000D01*
X122069000Y-116491000D01*
X122063000Y-116489000D01*
X122057000Y-116487000D01*
X122051000Y-116485000D01*
X122046000Y-116482000D01*
X122040000Y-116479000D01*
X122035000Y-116476000D01*
X122029000Y-116472000D01*
X122024000Y-116468000D01*
X122020000Y-116464000D01*
X122015000Y-116460000D01*
X122011000Y-116455000D01*
X122007000Y-116451000D01*
X122003000Y-116446000D01*
X121999000Y-116440000D01*
X121996000Y-116435000D01*
X121993000Y-116429000D01*
X121990000Y-116424000D01*
X121988000Y-116418000D01*
X121986000Y-116412000D01*
X121984000Y-116406000D01*
X121983000Y-116400000D01*
X121981000Y-116394000D01*
X121981000Y-116388000D01*
X121980000Y-116381000D01*
X121980000Y-116375000D01*
X121980000Y-116225000D01*
X121980000Y-116219000D01*
X121981000Y-116212000D01*
X121981000Y-116206000D01*
X121983000Y-116200000D01*
X121984000Y-116194000D01*
X121986000Y-116188000D01*
X121988000Y-116182000D01*
X121990000Y-116176000D01*
X121993000Y-116171000D01*
X121996000Y-116165000D01*
X121999000Y-116160000D01*
X122003000Y-116154000D01*
X122007000Y-116149000D01*
X122011000Y-116145000D01*
X122015000Y-116140000D01*
X122020000Y-116136000D01*
X122024000Y-116132000D01*
X122029000Y-116128000D01*
X122035000Y-116124000D01*
X122040000Y-116121000D01*
X122046000Y-116118000D01*
X122051000Y-116115000D01*
X122057000Y-116113000D01*
X122063000Y-116111000D01*
X122069000Y-116109000D01*
X122075000Y-116108000D01*
X122081000Y-116106000D01*
X122087000Y-116106000D01*
X122094000Y-116105000D01*
X122100000Y-116105000D01*
X122600000Y-116105000D01*
X122606000Y-116105000D01*
X122613000Y-116106000D01*
G37*
X122613000Y-115606000D02*
X122619000Y-115606000D01*
X122625000Y-115608000D01*
X122631000Y-115609000D01*
X122637000Y-115611000D01*
X122643000Y-115613000D01*
X122649000Y-115615000D01*
X122654000Y-115618000D01*
X122660000Y-115621000D01*
X122665000Y-115624000D01*
X122671000Y-115628000D01*
X122676000Y-115632000D01*
X122680000Y-115636000D01*
X122685000Y-115640000D01*
X122689000Y-115645000D01*
X122693000Y-115649000D01*
X122697000Y-115654000D01*
X122701000Y-115660000D01*
X122704000Y-115665000D01*
X122707000Y-115671000D01*
X122710000Y-115676000D01*
X122712000Y-115682000D01*
X122714000Y-115688000D01*
X122716000Y-115694000D01*
X122717000Y-115700000D01*
X122719000Y-115706000D01*
X122719000Y-115712000D01*
X122720000Y-115719000D01*
X122720000Y-115725000D01*
X122720000Y-115875000D01*
X122720000Y-115881000D01*
X122719000Y-115888000D01*
X122719000Y-115894000D01*
X122717000Y-115900000D01*
X122716000Y-115906000D01*
X122714000Y-115912000D01*
X122712000Y-115918000D01*
X122710000Y-115924000D01*
X122707000Y-115929000D01*
X122704000Y-115935000D01*
X122701000Y-115940000D01*
X122697000Y-115946000D01*
X122693000Y-115951000D01*
X122689000Y-115955000D01*
X122685000Y-115960000D01*
X122680000Y-115964000D01*
X122676000Y-115968000D01*
X122671000Y-115972000D01*
X122665000Y-115976000D01*
X122660000Y-115979000D01*
X122654000Y-115982000D01*
X122649000Y-115985000D01*
X122643000Y-115987000D01*
X122637000Y-115989000D01*
X122631000Y-115991000D01*
X122625000Y-115992000D01*
X122619000Y-115994000D01*
X122613000Y-115994000D01*
X122606000Y-115995000D01*
X122600000Y-115995000D01*
X122100000Y-115995000D01*
X122094000Y-115995000D01*
X122087000Y-115994000D01*
X122081000Y-115994000D01*
X122075000Y-115992000D01*
X122069000Y-115991000D01*
X122063000Y-115989000D01*
X122057000Y-115987000D01*
X122051000Y-115985000D01*
X122046000Y-115982000D01*
X122040000Y-115979000D01*
X122035000Y-115976000D01*
X122029000Y-115972000D01*
X122024000Y-115968000D01*
X122020000Y-115964000D01*
X122015000Y-115960000D01*
X122011000Y-115955000D01*
X122007000Y-115951000D01*
X122003000Y-115946000D01*
X121999000Y-115940000D01*
X121996000Y-115935000D01*
X121993000Y-115929000D01*
X121990000Y-115924000D01*
X121988000Y-115918000D01*
X121986000Y-115912000D01*
X121984000Y-115906000D01*
X121983000Y-115900000D01*
X121981000Y-115894000D01*
X121981000Y-115888000D01*
X121980000Y-115881000D01*
X121980000Y-115875000D01*
X121980000Y-115725000D01*
X121980000Y-115719000D01*
X121981000Y-115712000D01*
X121981000Y-115706000D01*
X121983000Y-115700000D01*
X121984000Y-115694000D01*
X121986000Y-115688000D01*
X121988000Y-115682000D01*
X121990000Y-115676000D01*
X121993000Y-115671000D01*
X121996000Y-115665000D01*
X121999000Y-115660000D01*
X122003000Y-115654000D01*
X122007000Y-115649000D01*
X122011000Y-115645000D01*
X122015000Y-115640000D01*
X122020000Y-115636000D01*
X122024000Y-115632000D01*
X122029000Y-115628000D01*
X122035000Y-115624000D01*
X122040000Y-115621000D01*
X122046000Y-115618000D01*
X122051000Y-115615000D01*
X122057000Y-115613000D01*
X122063000Y-115611000D01*
X122069000Y-115609000D01*
X122075000Y-115608000D01*
X122081000Y-115606000D01*
X122087000Y-115606000D01*
X122094000Y-115605000D01*
X122100000Y-115605000D01*
X122600000Y-115605000D01*
X122606000Y-115605000D01*
X122613000Y-115606000D01*
G36*
X122613000Y-115606000D02*
G01*
X122619000Y-115606000D01*
X122625000Y-115608000D01*
X122631000Y-115609000D01*
X122637000Y-115611000D01*
X122643000Y-115613000D01*
X122649000Y-115615000D01*
X122654000Y-115618000D01*
X122660000Y-115621000D01*
X122665000Y-115624000D01*
X122671000Y-115628000D01*
X122676000Y-115632000D01*
X122680000Y-115636000D01*
X122685000Y-115640000D01*
X122689000Y-115645000D01*
X122693000Y-115649000D01*
X122697000Y-115654000D01*
X122701000Y-115660000D01*
X122704000Y-115665000D01*
X122707000Y-115671000D01*
X122710000Y-115676000D01*
X122712000Y-115682000D01*
X122714000Y-115688000D01*
X122716000Y-115694000D01*
X122717000Y-115700000D01*
X122719000Y-115706000D01*
X122719000Y-115712000D01*
X122720000Y-115719000D01*
X122720000Y-115725000D01*
X122720000Y-115875000D01*
X122720000Y-115881000D01*
X122719000Y-115888000D01*
X122719000Y-115894000D01*
X122717000Y-115900000D01*
X122716000Y-115906000D01*
X122714000Y-115912000D01*
X122712000Y-115918000D01*
X122710000Y-115924000D01*
X122707000Y-115929000D01*
X122704000Y-115935000D01*
X122701000Y-115940000D01*
X122697000Y-115946000D01*
X122693000Y-115951000D01*
X122689000Y-115955000D01*
X122685000Y-115960000D01*
X122680000Y-115964000D01*
X122676000Y-115968000D01*
X122671000Y-115972000D01*
X122665000Y-115976000D01*
X122660000Y-115979000D01*
X122654000Y-115982000D01*
X122649000Y-115985000D01*
X122643000Y-115987000D01*
X122637000Y-115989000D01*
X122631000Y-115991000D01*
X122625000Y-115992000D01*
X122619000Y-115994000D01*
X122613000Y-115994000D01*
X122606000Y-115995000D01*
X122600000Y-115995000D01*
X122100000Y-115995000D01*
X122094000Y-115995000D01*
X122087000Y-115994000D01*
X122081000Y-115994000D01*
X122075000Y-115992000D01*
X122069000Y-115991000D01*
X122063000Y-115989000D01*
X122057000Y-115987000D01*
X122051000Y-115985000D01*
X122046000Y-115982000D01*
X122040000Y-115979000D01*
X122035000Y-115976000D01*
X122029000Y-115972000D01*
X122024000Y-115968000D01*
X122020000Y-115964000D01*
X122015000Y-115960000D01*
X122011000Y-115955000D01*
X122007000Y-115951000D01*
X122003000Y-115946000D01*
X121999000Y-115940000D01*
X121996000Y-115935000D01*
X121993000Y-115929000D01*
X121990000Y-115924000D01*
X121988000Y-115918000D01*
X121986000Y-115912000D01*
X121984000Y-115906000D01*
X121983000Y-115900000D01*
X121981000Y-115894000D01*
X121981000Y-115888000D01*
X121980000Y-115881000D01*
X121980000Y-115875000D01*
X121980000Y-115725000D01*
X121980000Y-115719000D01*
X121981000Y-115712000D01*
X121981000Y-115706000D01*
X121983000Y-115700000D01*
X121984000Y-115694000D01*
X121986000Y-115688000D01*
X121988000Y-115682000D01*
X121990000Y-115676000D01*
X121993000Y-115671000D01*
X121996000Y-115665000D01*
X121999000Y-115660000D01*
X122003000Y-115654000D01*
X122007000Y-115649000D01*
X122011000Y-115645000D01*
X122015000Y-115640000D01*
X122020000Y-115636000D01*
X122024000Y-115632000D01*
X122029000Y-115628000D01*
X122035000Y-115624000D01*
X122040000Y-115621000D01*
X122046000Y-115618000D01*
X122051000Y-115615000D01*
X122057000Y-115613000D01*
X122063000Y-115611000D01*
X122069000Y-115609000D01*
X122075000Y-115608000D01*
X122081000Y-115606000D01*
X122087000Y-115606000D01*
X122094000Y-115605000D01*
X122100000Y-115605000D01*
X122600000Y-115605000D01*
X122606000Y-115605000D01*
X122613000Y-115606000D01*
G37*
X122613000Y-115106000D02*
X122619000Y-115106000D01*
X122625000Y-115108000D01*
X122631000Y-115109000D01*
X122637000Y-115111000D01*
X122643000Y-115113000D01*
X122649000Y-115115000D01*
X122654000Y-115118000D01*
X122660000Y-115121000D01*
X122665000Y-115124000D01*
X122671000Y-115128000D01*
X122676000Y-115132000D01*
X122680000Y-115136000D01*
X122685000Y-115140000D01*
X122689000Y-115145000D01*
X122693000Y-115149000D01*
X122697000Y-115154000D01*
X122701000Y-115160000D01*
X122704000Y-115165000D01*
X122707000Y-115171000D01*
X122710000Y-115176000D01*
X122712000Y-115182000D01*
X122714000Y-115188000D01*
X122716000Y-115194000D01*
X122717000Y-115200000D01*
X122719000Y-115206000D01*
X122719000Y-115212000D01*
X122720000Y-115219000D01*
X122720000Y-115225000D01*
X122720000Y-115375000D01*
X122720000Y-115381000D01*
X122719000Y-115388000D01*
X122719000Y-115394000D01*
X122717000Y-115400000D01*
X122716000Y-115406000D01*
X122714000Y-115412000D01*
X122712000Y-115418000D01*
X122710000Y-115424000D01*
X122707000Y-115429000D01*
X122704000Y-115435000D01*
X122701000Y-115440000D01*
X122697000Y-115446000D01*
X122693000Y-115451000D01*
X122689000Y-115455000D01*
X122685000Y-115460000D01*
X122680000Y-115464000D01*
X122676000Y-115468000D01*
X122671000Y-115472000D01*
X122665000Y-115476000D01*
X122660000Y-115479000D01*
X122654000Y-115482000D01*
X122649000Y-115485000D01*
X122643000Y-115487000D01*
X122637000Y-115489000D01*
X122631000Y-115491000D01*
X122625000Y-115492000D01*
X122619000Y-115494000D01*
X122613000Y-115494000D01*
X122606000Y-115495000D01*
X122600000Y-115495000D01*
X122100000Y-115495000D01*
X122094000Y-115495000D01*
X122087000Y-115494000D01*
X122081000Y-115494000D01*
X122075000Y-115492000D01*
X122069000Y-115491000D01*
X122063000Y-115489000D01*
X122057000Y-115487000D01*
X122051000Y-115485000D01*
X122046000Y-115482000D01*
X122040000Y-115479000D01*
X122035000Y-115476000D01*
X122029000Y-115472000D01*
X122024000Y-115468000D01*
X122020000Y-115464000D01*
X122015000Y-115460000D01*
X122011000Y-115455000D01*
X122007000Y-115451000D01*
X122003000Y-115446000D01*
X121999000Y-115440000D01*
X121996000Y-115435000D01*
X121993000Y-115429000D01*
X121990000Y-115424000D01*
X121988000Y-115418000D01*
X121986000Y-115412000D01*
X121984000Y-115406000D01*
X121983000Y-115400000D01*
X121981000Y-115394000D01*
X121981000Y-115388000D01*
X121980000Y-115381000D01*
X121980000Y-115375000D01*
X121980000Y-115225000D01*
X121980000Y-115219000D01*
X121981000Y-115212000D01*
X121981000Y-115206000D01*
X121983000Y-115200000D01*
X121984000Y-115194000D01*
X121986000Y-115188000D01*
X121988000Y-115182000D01*
X121990000Y-115176000D01*
X121993000Y-115171000D01*
X121996000Y-115165000D01*
X121999000Y-115160000D01*
X122003000Y-115154000D01*
X122007000Y-115149000D01*
X122011000Y-115145000D01*
X122015000Y-115140000D01*
X122020000Y-115136000D01*
X122024000Y-115132000D01*
X122029000Y-115128000D01*
X122035000Y-115124000D01*
X122040000Y-115121000D01*
X122046000Y-115118000D01*
X122051000Y-115115000D01*
X122057000Y-115113000D01*
X122063000Y-115111000D01*
X122069000Y-115109000D01*
X122075000Y-115108000D01*
X122081000Y-115106000D01*
X122087000Y-115106000D01*
X122094000Y-115105000D01*
X122100000Y-115105000D01*
X122600000Y-115105000D01*
X122606000Y-115105000D01*
X122613000Y-115106000D01*
G36*
X122613000Y-115106000D02*
G01*
X122619000Y-115106000D01*
X122625000Y-115108000D01*
X122631000Y-115109000D01*
X122637000Y-115111000D01*
X122643000Y-115113000D01*
X122649000Y-115115000D01*
X122654000Y-115118000D01*
X122660000Y-115121000D01*
X122665000Y-115124000D01*
X122671000Y-115128000D01*
X122676000Y-115132000D01*
X122680000Y-115136000D01*
X122685000Y-115140000D01*
X122689000Y-115145000D01*
X122693000Y-115149000D01*
X122697000Y-115154000D01*
X122701000Y-115160000D01*
X122704000Y-115165000D01*
X122707000Y-115171000D01*
X122710000Y-115176000D01*
X122712000Y-115182000D01*
X122714000Y-115188000D01*
X122716000Y-115194000D01*
X122717000Y-115200000D01*
X122719000Y-115206000D01*
X122719000Y-115212000D01*
X122720000Y-115219000D01*
X122720000Y-115225000D01*
X122720000Y-115375000D01*
X122720000Y-115381000D01*
X122719000Y-115388000D01*
X122719000Y-115394000D01*
X122717000Y-115400000D01*
X122716000Y-115406000D01*
X122714000Y-115412000D01*
X122712000Y-115418000D01*
X122710000Y-115424000D01*
X122707000Y-115429000D01*
X122704000Y-115435000D01*
X122701000Y-115440000D01*
X122697000Y-115446000D01*
X122693000Y-115451000D01*
X122689000Y-115455000D01*
X122685000Y-115460000D01*
X122680000Y-115464000D01*
X122676000Y-115468000D01*
X122671000Y-115472000D01*
X122665000Y-115476000D01*
X122660000Y-115479000D01*
X122654000Y-115482000D01*
X122649000Y-115485000D01*
X122643000Y-115487000D01*
X122637000Y-115489000D01*
X122631000Y-115491000D01*
X122625000Y-115492000D01*
X122619000Y-115494000D01*
X122613000Y-115494000D01*
X122606000Y-115495000D01*
X122600000Y-115495000D01*
X122100000Y-115495000D01*
X122094000Y-115495000D01*
X122087000Y-115494000D01*
X122081000Y-115494000D01*
X122075000Y-115492000D01*
X122069000Y-115491000D01*
X122063000Y-115489000D01*
X122057000Y-115487000D01*
X122051000Y-115485000D01*
X122046000Y-115482000D01*
X122040000Y-115479000D01*
X122035000Y-115476000D01*
X122029000Y-115472000D01*
X122024000Y-115468000D01*
X122020000Y-115464000D01*
X122015000Y-115460000D01*
X122011000Y-115455000D01*
X122007000Y-115451000D01*
X122003000Y-115446000D01*
X121999000Y-115440000D01*
X121996000Y-115435000D01*
X121993000Y-115429000D01*
X121990000Y-115424000D01*
X121988000Y-115418000D01*
X121986000Y-115412000D01*
X121984000Y-115406000D01*
X121983000Y-115400000D01*
X121981000Y-115394000D01*
X121981000Y-115388000D01*
X121980000Y-115381000D01*
X121980000Y-115375000D01*
X121980000Y-115225000D01*
X121980000Y-115219000D01*
X121981000Y-115212000D01*
X121981000Y-115206000D01*
X121983000Y-115200000D01*
X121984000Y-115194000D01*
X121986000Y-115188000D01*
X121988000Y-115182000D01*
X121990000Y-115176000D01*
X121993000Y-115171000D01*
X121996000Y-115165000D01*
X121999000Y-115160000D01*
X122003000Y-115154000D01*
X122007000Y-115149000D01*
X122011000Y-115145000D01*
X122015000Y-115140000D01*
X122020000Y-115136000D01*
X122024000Y-115132000D01*
X122029000Y-115128000D01*
X122035000Y-115124000D01*
X122040000Y-115121000D01*
X122046000Y-115118000D01*
X122051000Y-115115000D01*
X122057000Y-115113000D01*
X122063000Y-115111000D01*
X122069000Y-115109000D01*
X122075000Y-115108000D01*
X122081000Y-115106000D01*
X122087000Y-115106000D01*
X122094000Y-115105000D01*
X122100000Y-115105000D01*
X122600000Y-115105000D01*
X122606000Y-115105000D01*
X122613000Y-115106000D01*
G37*
X122613000Y-116606000D02*
X122619000Y-116606000D01*
X122625000Y-116608000D01*
X122631000Y-116609000D01*
X122637000Y-116611000D01*
X122643000Y-116613000D01*
X122649000Y-116615000D01*
X122654000Y-116618000D01*
X122660000Y-116621000D01*
X122665000Y-116624000D01*
X122671000Y-116628000D01*
X122676000Y-116632000D01*
X122680000Y-116636000D01*
X122685000Y-116640000D01*
X122689000Y-116645000D01*
X122693000Y-116649000D01*
X122697000Y-116654000D01*
X122701000Y-116660000D01*
X122704000Y-116665000D01*
X122707000Y-116671000D01*
X122710000Y-116676000D01*
X122712000Y-116682000D01*
X122714000Y-116688000D01*
X122716000Y-116694000D01*
X122717000Y-116700000D01*
X122719000Y-116706000D01*
X122719000Y-116712000D01*
X122720000Y-116719000D01*
X122720000Y-116725000D01*
X122720000Y-116875000D01*
X122720000Y-116881000D01*
X122719000Y-116888000D01*
X122719000Y-116894000D01*
X122717000Y-116900000D01*
X122716000Y-116906000D01*
X122714000Y-116912000D01*
X122712000Y-116918000D01*
X122710000Y-116924000D01*
X122707000Y-116929000D01*
X122704000Y-116935000D01*
X122701000Y-116940000D01*
X122697000Y-116946000D01*
X122693000Y-116951000D01*
X122689000Y-116955000D01*
X122685000Y-116960000D01*
X122680000Y-116964000D01*
X122676000Y-116968000D01*
X122671000Y-116972000D01*
X122665000Y-116976000D01*
X122660000Y-116979000D01*
X122654000Y-116982000D01*
X122649000Y-116985000D01*
X122643000Y-116987000D01*
X122637000Y-116989000D01*
X122631000Y-116991000D01*
X122625000Y-116992000D01*
X122619000Y-116994000D01*
X122613000Y-116994000D01*
X122606000Y-116995000D01*
X122600000Y-116995000D01*
X122100000Y-116995000D01*
X122094000Y-116995000D01*
X122087000Y-116994000D01*
X122081000Y-116994000D01*
X122075000Y-116992000D01*
X122069000Y-116991000D01*
X122063000Y-116989000D01*
X122057000Y-116987000D01*
X122051000Y-116985000D01*
X122046000Y-116982000D01*
X122040000Y-116979000D01*
X122035000Y-116976000D01*
X122029000Y-116972000D01*
X122024000Y-116968000D01*
X122020000Y-116964000D01*
X122015000Y-116960000D01*
X122011000Y-116955000D01*
X122007000Y-116951000D01*
X122003000Y-116946000D01*
X121999000Y-116940000D01*
X121996000Y-116935000D01*
X121993000Y-116929000D01*
X121990000Y-116924000D01*
X121988000Y-116918000D01*
X121986000Y-116912000D01*
X121984000Y-116906000D01*
X121983000Y-116900000D01*
X121981000Y-116894000D01*
X121981000Y-116888000D01*
X121980000Y-116881000D01*
X121980000Y-116875000D01*
X121980000Y-116725000D01*
X121980000Y-116719000D01*
X121981000Y-116712000D01*
X121981000Y-116706000D01*
X121983000Y-116700000D01*
X121984000Y-116694000D01*
X121986000Y-116688000D01*
X121988000Y-116682000D01*
X121990000Y-116676000D01*
X121993000Y-116671000D01*
X121996000Y-116665000D01*
X121999000Y-116660000D01*
X122003000Y-116654000D01*
X122007000Y-116649000D01*
X122011000Y-116645000D01*
X122015000Y-116640000D01*
X122020000Y-116636000D01*
X122024000Y-116632000D01*
X122029000Y-116628000D01*
X122035000Y-116624000D01*
X122040000Y-116621000D01*
X122046000Y-116618000D01*
X122051000Y-116615000D01*
X122057000Y-116613000D01*
X122063000Y-116611000D01*
X122069000Y-116609000D01*
X122075000Y-116608000D01*
X122081000Y-116606000D01*
X122087000Y-116606000D01*
X122094000Y-116605000D01*
X122100000Y-116605000D01*
X122600000Y-116605000D01*
X122606000Y-116605000D01*
X122613000Y-116606000D01*
G36*
X122613000Y-116606000D02*
G01*
X122619000Y-116606000D01*
X122625000Y-116608000D01*
X122631000Y-116609000D01*
X122637000Y-116611000D01*
X122643000Y-116613000D01*
X122649000Y-116615000D01*
X122654000Y-116618000D01*
X122660000Y-116621000D01*
X122665000Y-116624000D01*
X122671000Y-116628000D01*
X122676000Y-116632000D01*
X122680000Y-116636000D01*
X122685000Y-116640000D01*
X122689000Y-116645000D01*
X122693000Y-116649000D01*
X122697000Y-116654000D01*
X122701000Y-116660000D01*
X122704000Y-116665000D01*
X122707000Y-116671000D01*
X122710000Y-116676000D01*
X122712000Y-116682000D01*
X122714000Y-116688000D01*
X122716000Y-116694000D01*
X122717000Y-116700000D01*
X122719000Y-116706000D01*
X122719000Y-116712000D01*
X122720000Y-116719000D01*
X122720000Y-116725000D01*
X122720000Y-116875000D01*
X122720000Y-116881000D01*
X122719000Y-116888000D01*
X122719000Y-116894000D01*
X122717000Y-116900000D01*
X122716000Y-116906000D01*
X122714000Y-116912000D01*
X122712000Y-116918000D01*
X122710000Y-116924000D01*
X122707000Y-116929000D01*
X122704000Y-116935000D01*
X122701000Y-116940000D01*
X122697000Y-116946000D01*
X122693000Y-116951000D01*
X122689000Y-116955000D01*
X122685000Y-116960000D01*
X122680000Y-116964000D01*
X122676000Y-116968000D01*
X122671000Y-116972000D01*
X122665000Y-116976000D01*
X122660000Y-116979000D01*
X122654000Y-116982000D01*
X122649000Y-116985000D01*
X122643000Y-116987000D01*
X122637000Y-116989000D01*
X122631000Y-116991000D01*
X122625000Y-116992000D01*
X122619000Y-116994000D01*
X122613000Y-116994000D01*
X122606000Y-116995000D01*
X122600000Y-116995000D01*
X122100000Y-116995000D01*
X122094000Y-116995000D01*
X122087000Y-116994000D01*
X122081000Y-116994000D01*
X122075000Y-116992000D01*
X122069000Y-116991000D01*
X122063000Y-116989000D01*
X122057000Y-116987000D01*
X122051000Y-116985000D01*
X122046000Y-116982000D01*
X122040000Y-116979000D01*
X122035000Y-116976000D01*
X122029000Y-116972000D01*
X122024000Y-116968000D01*
X122020000Y-116964000D01*
X122015000Y-116960000D01*
X122011000Y-116955000D01*
X122007000Y-116951000D01*
X122003000Y-116946000D01*
X121999000Y-116940000D01*
X121996000Y-116935000D01*
X121993000Y-116929000D01*
X121990000Y-116924000D01*
X121988000Y-116918000D01*
X121986000Y-116912000D01*
X121984000Y-116906000D01*
X121983000Y-116900000D01*
X121981000Y-116894000D01*
X121981000Y-116888000D01*
X121980000Y-116881000D01*
X121980000Y-116875000D01*
X121980000Y-116725000D01*
X121980000Y-116719000D01*
X121981000Y-116712000D01*
X121981000Y-116706000D01*
X121983000Y-116700000D01*
X121984000Y-116694000D01*
X121986000Y-116688000D01*
X121988000Y-116682000D01*
X121990000Y-116676000D01*
X121993000Y-116671000D01*
X121996000Y-116665000D01*
X121999000Y-116660000D01*
X122003000Y-116654000D01*
X122007000Y-116649000D01*
X122011000Y-116645000D01*
X122015000Y-116640000D01*
X122020000Y-116636000D01*
X122024000Y-116632000D01*
X122029000Y-116628000D01*
X122035000Y-116624000D01*
X122040000Y-116621000D01*
X122046000Y-116618000D01*
X122051000Y-116615000D01*
X122057000Y-116613000D01*
X122063000Y-116611000D01*
X122069000Y-116609000D01*
X122075000Y-116608000D01*
X122081000Y-116606000D01*
X122087000Y-116606000D01*
X122094000Y-116605000D01*
X122100000Y-116605000D01*
X122600000Y-116605000D01*
X122606000Y-116605000D01*
X122613000Y-116606000D01*
G37*
X122613000Y-117106000D02*
X122619000Y-117106000D01*
X122625000Y-117108000D01*
X122631000Y-117109000D01*
X122637000Y-117111000D01*
X122643000Y-117113000D01*
X122649000Y-117115000D01*
X122654000Y-117118000D01*
X122660000Y-117121000D01*
X122665000Y-117124000D01*
X122671000Y-117128000D01*
X122676000Y-117132000D01*
X122680000Y-117136000D01*
X122685000Y-117140000D01*
X122689000Y-117145000D01*
X122693000Y-117149000D01*
X122697000Y-117154000D01*
X122701000Y-117160000D01*
X122704000Y-117165000D01*
X122707000Y-117171000D01*
X122710000Y-117176000D01*
X122712000Y-117182000D01*
X122714000Y-117188000D01*
X122716000Y-117194000D01*
X122717000Y-117200000D01*
X122719000Y-117206000D01*
X122719000Y-117212000D01*
X122720000Y-117219000D01*
X122720000Y-117225000D01*
X122720000Y-117375000D01*
X122720000Y-117381000D01*
X122719000Y-117388000D01*
X122719000Y-117394000D01*
X122717000Y-117400000D01*
X122716000Y-117406000D01*
X122714000Y-117412000D01*
X122712000Y-117418000D01*
X122710000Y-117424000D01*
X122707000Y-117429000D01*
X122704000Y-117435000D01*
X122701000Y-117440000D01*
X122697000Y-117446000D01*
X122693000Y-117451000D01*
X122689000Y-117455000D01*
X122685000Y-117460000D01*
X122680000Y-117464000D01*
X122676000Y-117468000D01*
X122671000Y-117472000D01*
X122665000Y-117476000D01*
X122660000Y-117479000D01*
X122654000Y-117482000D01*
X122649000Y-117485000D01*
X122643000Y-117487000D01*
X122637000Y-117489000D01*
X122631000Y-117491000D01*
X122625000Y-117492000D01*
X122619000Y-117494000D01*
X122613000Y-117494000D01*
X122606000Y-117495000D01*
X122600000Y-117495000D01*
X122100000Y-117495000D01*
X122094000Y-117495000D01*
X122087000Y-117494000D01*
X122081000Y-117494000D01*
X122075000Y-117492000D01*
X122069000Y-117491000D01*
X122063000Y-117489000D01*
X122057000Y-117487000D01*
X122051000Y-117485000D01*
X122046000Y-117482000D01*
X122040000Y-117479000D01*
X122035000Y-117476000D01*
X122029000Y-117472000D01*
X122024000Y-117468000D01*
X122020000Y-117464000D01*
X122015000Y-117460000D01*
X122011000Y-117455000D01*
X122007000Y-117451000D01*
X122003000Y-117446000D01*
X121999000Y-117440000D01*
X121996000Y-117435000D01*
X121993000Y-117429000D01*
X121990000Y-117424000D01*
X121988000Y-117418000D01*
X121986000Y-117412000D01*
X121984000Y-117406000D01*
X121983000Y-117400000D01*
X121981000Y-117394000D01*
X121981000Y-117388000D01*
X121980000Y-117381000D01*
X121980000Y-117375000D01*
X121980000Y-117225000D01*
X121980000Y-117219000D01*
X121981000Y-117212000D01*
X121981000Y-117206000D01*
X121983000Y-117200000D01*
X121984000Y-117194000D01*
X121986000Y-117188000D01*
X121988000Y-117182000D01*
X121990000Y-117176000D01*
X121993000Y-117171000D01*
X121996000Y-117165000D01*
X121999000Y-117160000D01*
X122003000Y-117154000D01*
X122007000Y-117149000D01*
X122011000Y-117145000D01*
X122015000Y-117140000D01*
X122020000Y-117136000D01*
X122024000Y-117132000D01*
X122029000Y-117128000D01*
X122035000Y-117124000D01*
X122040000Y-117121000D01*
X122046000Y-117118000D01*
X122051000Y-117115000D01*
X122057000Y-117113000D01*
X122063000Y-117111000D01*
X122069000Y-117109000D01*
X122075000Y-117108000D01*
X122081000Y-117106000D01*
X122087000Y-117106000D01*
X122094000Y-117105000D01*
X122100000Y-117105000D01*
X122600000Y-117105000D01*
X122606000Y-117105000D01*
X122613000Y-117106000D01*
G36*
X122613000Y-117106000D02*
G01*
X122619000Y-117106000D01*
X122625000Y-117108000D01*
X122631000Y-117109000D01*
X122637000Y-117111000D01*
X122643000Y-117113000D01*
X122649000Y-117115000D01*
X122654000Y-117118000D01*
X122660000Y-117121000D01*
X122665000Y-117124000D01*
X122671000Y-117128000D01*
X122676000Y-117132000D01*
X122680000Y-117136000D01*
X122685000Y-117140000D01*
X122689000Y-117145000D01*
X122693000Y-117149000D01*
X122697000Y-117154000D01*
X122701000Y-117160000D01*
X122704000Y-117165000D01*
X122707000Y-117171000D01*
X122710000Y-117176000D01*
X122712000Y-117182000D01*
X122714000Y-117188000D01*
X122716000Y-117194000D01*
X122717000Y-117200000D01*
X122719000Y-117206000D01*
X122719000Y-117212000D01*
X122720000Y-117219000D01*
X122720000Y-117225000D01*
X122720000Y-117375000D01*
X122720000Y-117381000D01*
X122719000Y-117388000D01*
X122719000Y-117394000D01*
X122717000Y-117400000D01*
X122716000Y-117406000D01*
X122714000Y-117412000D01*
X122712000Y-117418000D01*
X122710000Y-117424000D01*
X122707000Y-117429000D01*
X122704000Y-117435000D01*
X122701000Y-117440000D01*
X122697000Y-117446000D01*
X122693000Y-117451000D01*
X122689000Y-117455000D01*
X122685000Y-117460000D01*
X122680000Y-117464000D01*
X122676000Y-117468000D01*
X122671000Y-117472000D01*
X122665000Y-117476000D01*
X122660000Y-117479000D01*
X122654000Y-117482000D01*
X122649000Y-117485000D01*
X122643000Y-117487000D01*
X122637000Y-117489000D01*
X122631000Y-117491000D01*
X122625000Y-117492000D01*
X122619000Y-117494000D01*
X122613000Y-117494000D01*
X122606000Y-117495000D01*
X122600000Y-117495000D01*
X122100000Y-117495000D01*
X122094000Y-117495000D01*
X122087000Y-117494000D01*
X122081000Y-117494000D01*
X122075000Y-117492000D01*
X122069000Y-117491000D01*
X122063000Y-117489000D01*
X122057000Y-117487000D01*
X122051000Y-117485000D01*
X122046000Y-117482000D01*
X122040000Y-117479000D01*
X122035000Y-117476000D01*
X122029000Y-117472000D01*
X122024000Y-117468000D01*
X122020000Y-117464000D01*
X122015000Y-117460000D01*
X122011000Y-117455000D01*
X122007000Y-117451000D01*
X122003000Y-117446000D01*
X121999000Y-117440000D01*
X121996000Y-117435000D01*
X121993000Y-117429000D01*
X121990000Y-117424000D01*
X121988000Y-117418000D01*
X121986000Y-117412000D01*
X121984000Y-117406000D01*
X121983000Y-117400000D01*
X121981000Y-117394000D01*
X121981000Y-117388000D01*
X121980000Y-117381000D01*
X121980000Y-117375000D01*
X121980000Y-117225000D01*
X121980000Y-117219000D01*
X121981000Y-117212000D01*
X121981000Y-117206000D01*
X121983000Y-117200000D01*
X121984000Y-117194000D01*
X121986000Y-117188000D01*
X121988000Y-117182000D01*
X121990000Y-117176000D01*
X121993000Y-117171000D01*
X121996000Y-117165000D01*
X121999000Y-117160000D01*
X122003000Y-117154000D01*
X122007000Y-117149000D01*
X122011000Y-117145000D01*
X122015000Y-117140000D01*
X122020000Y-117136000D01*
X122024000Y-117132000D01*
X122029000Y-117128000D01*
X122035000Y-117124000D01*
X122040000Y-117121000D01*
X122046000Y-117118000D01*
X122051000Y-117115000D01*
X122057000Y-117113000D01*
X122063000Y-117111000D01*
X122069000Y-117109000D01*
X122075000Y-117108000D01*
X122081000Y-117106000D01*
X122087000Y-117106000D01*
X122094000Y-117105000D01*
X122100000Y-117105000D01*
X122600000Y-117105000D01*
X122606000Y-117105000D01*
X122613000Y-117106000D01*
G37*
X124413000Y-116106000D02*
X124419000Y-116106000D01*
X124425000Y-116108000D01*
X124431000Y-116109000D01*
X124437000Y-116111000D01*
X124443000Y-116113000D01*
X124449000Y-116115000D01*
X124454000Y-116118000D01*
X124460000Y-116121000D01*
X124465000Y-116124000D01*
X124471000Y-116128000D01*
X124476000Y-116132000D01*
X124480000Y-116136000D01*
X124485000Y-116140000D01*
X124489000Y-116145000D01*
X124493000Y-116149000D01*
X124497000Y-116154000D01*
X124501000Y-116160000D01*
X124504000Y-116165000D01*
X124507000Y-116171000D01*
X124510000Y-116176000D01*
X124512000Y-116182000D01*
X124514000Y-116188000D01*
X124516000Y-116194000D01*
X124517000Y-116200000D01*
X124519000Y-116206000D01*
X124519000Y-116212000D01*
X124520000Y-116219000D01*
X124520000Y-116225000D01*
X124520000Y-116375000D01*
X124520000Y-116381000D01*
X124519000Y-116388000D01*
X124519000Y-116394000D01*
X124517000Y-116400000D01*
X124516000Y-116406000D01*
X124514000Y-116412000D01*
X124512000Y-116418000D01*
X124510000Y-116424000D01*
X124507000Y-116429000D01*
X124504000Y-116435000D01*
X124501000Y-116440000D01*
X124497000Y-116446000D01*
X124493000Y-116451000D01*
X124489000Y-116455000D01*
X124485000Y-116460000D01*
X124480000Y-116464000D01*
X124476000Y-116468000D01*
X124471000Y-116472000D01*
X124465000Y-116476000D01*
X124460000Y-116479000D01*
X124454000Y-116482000D01*
X124449000Y-116485000D01*
X124443000Y-116487000D01*
X124437000Y-116489000D01*
X124431000Y-116491000D01*
X124425000Y-116492000D01*
X124419000Y-116494000D01*
X124413000Y-116494000D01*
X124406000Y-116495000D01*
X124400000Y-116495000D01*
X123200000Y-116495000D01*
X123194000Y-116495000D01*
X123187000Y-116494000D01*
X123181000Y-116494000D01*
X123175000Y-116492000D01*
X123169000Y-116491000D01*
X123163000Y-116489000D01*
X123157000Y-116487000D01*
X123151000Y-116485000D01*
X123146000Y-116482000D01*
X123140000Y-116479000D01*
X123135000Y-116476000D01*
X123129000Y-116472000D01*
X123124000Y-116468000D01*
X123120000Y-116464000D01*
X123115000Y-116460000D01*
X123111000Y-116455000D01*
X123107000Y-116451000D01*
X123103000Y-116446000D01*
X123099000Y-116440000D01*
X123096000Y-116435000D01*
X123093000Y-116429000D01*
X123090000Y-116424000D01*
X123088000Y-116418000D01*
X123086000Y-116412000D01*
X123084000Y-116406000D01*
X123083000Y-116400000D01*
X123081000Y-116394000D01*
X123081000Y-116388000D01*
X123080000Y-116381000D01*
X123080000Y-116375000D01*
X123080000Y-116225000D01*
X123080000Y-116219000D01*
X123081000Y-116212000D01*
X123081000Y-116206000D01*
X123083000Y-116200000D01*
X123084000Y-116194000D01*
X123086000Y-116188000D01*
X123088000Y-116182000D01*
X123090000Y-116176000D01*
X123093000Y-116171000D01*
X123096000Y-116165000D01*
X123099000Y-116160000D01*
X123103000Y-116154000D01*
X123107000Y-116149000D01*
X123111000Y-116145000D01*
X123115000Y-116140000D01*
X123120000Y-116136000D01*
X123124000Y-116132000D01*
X123129000Y-116128000D01*
X123135000Y-116124000D01*
X123140000Y-116121000D01*
X123146000Y-116118000D01*
X123151000Y-116115000D01*
X123157000Y-116113000D01*
X123163000Y-116111000D01*
X123169000Y-116109000D01*
X123175000Y-116108000D01*
X123181000Y-116106000D01*
X123187000Y-116106000D01*
X123194000Y-116105000D01*
X123200000Y-116105000D01*
X124400000Y-116105000D01*
X124406000Y-116105000D01*
X124413000Y-116106000D01*
G36*
X124413000Y-116106000D02*
G01*
X124419000Y-116106000D01*
X124425000Y-116108000D01*
X124431000Y-116109000D01*
X124437000Y-116111000D01*
X124443000Y-116113000D01*
X124449000Y-116115000D01*
X124454000Y-116118000D01*
X124460000Y-116121000D01*
X124465000Y-116124000D01*
X124471000Y-116128000D01*
X124476000Y-116132000D01*
X124480000Y-116136000D01*
X124485000Y-116140000D01*
X124489000Y-116145000D01*
X124493000Y-116149000D01*
X124497000Y-116154000D01*
X124501000Y-116160000D01*
X124504000Y-116165000D01*
X124507000Y-116171000D01*
X124510000Y-116176000D01*
X124512000Y-116182000D01*
X124514000Y-116188000D01*
X124516000Y-116194000D01*
X124517000Y-116200000D01*
X124519000Y-116206000D01*
X124519000Y-116212000D01*
X124520000Y-116219000D01*
X124520000Y-116225000D01*
X124520000Y-116375000D01*
X124520000Y-116381000D01*
X124519000Y-116388000D01*
X124519000Y-116394000D01*
X124517000Y-116400000D01*
X124516000Y-116406000D01*
X124514000Y-116412000D01*
X124512000Y-116418000D01*
X124510000Y-116424000D01*
X124507000Y-116429000D01*
X124504000Y-116435000D01*
X124501000Y-116440000D01*
X124497000Y-116446000D01*
X124493000Y-116451000D01*
X124489000Y-116455000D01*
X124485000Y-116460000D01*
X124480000Y-116464000D01*
X124476000Y-116468000D01*
X124471000Y-116472000D01*
X124465000Y-116476000D01*
X124460000Y-116479000D01*
X124454000Y-116482000D01*
X124449000Y-116485000D01*
X124443000Y-116487000D01*
X124437000Y-116489000D01*
X124431000Y-116491000D01*
X124425000Y-116492000D01*
X124419000Y-116494000D01*
X124413000Y-116494000D01*
X124406000Y-116495000D01*
X124400000Y-116495000D01*
X123200000Y-116495000D01*
X123194000Y-116495000D01*
X123187000Y-116494000D01*
X123181000Y-116494000D01*
X123175000Y-116492000D01*
X123169000Y-116491000D01*
X123163000Y-116489000D01*
X123157000Y-116487000D01*
X123151000Y-116485000D01*
X123146000Y-116482000D01*
X123140000Y-116479000D01*
X123135000Y-116476000D01*
X123129000Y-116472000D01*
X123124000Y-116468000D01*
X123120000Y-116464000D01*
X123115000Y-116460000D01*
X123111000Y-116455000D01*
X123107000Y-116451000D01*
X123103000Y-116446000D01*
X123099000Y-116440000D01*
X123096000Y-116435000D01*
X123093000Y-116429000D01*
X123090000Y-116424000D01*
X123088000Y-116418000D01*
X123086000Y-116412000D01*
X123084000Y-116406000D01*
X123083000Y-116400000D01*
X123081000Y-116394000D01*
X123081000Y-116388000D01*
X123080000Y-116381000D01*
X123080000Y-116375000D01*
X123080000Y-116225000D01*
X123080000Y-116219000D01*
X123081000Y-116212000D01*
X123081000Y-116206000D01*
X123083000Y-116200000D01*
X123084000Y-116194000D01*
X123086000Y-116188000D01*
X123088000Y-116182000D01*
X123090000Y-116176000D01*
X123093000Y-116171000D01*
X123096000Y-116165000D01*
X123099000Y-116160000D01*
X123103000Y-116154000D01*
X123107000Y-116149000D01*
X123111000Y-116145000D01*
X123115000Y-116140000D01*
X123120000Y-116136000D01*
X123124000Y-116132000D01*
X123129000Y-116128000D01*
X123135000Y-116124000D01*
X123140000Y-116121000D01*
X123146000Y-116118000D01*
X123151000Y-116115000D01*
X123157000Y-116113000D01*
X123163000Y-116111000D01*
X123169000Y-116109000D01*
X123175000Y-116108000D01*
X123181000Y-116106000D01*
X123187000Y-116106000D01*
X123194000Y-116105000D01*
X123200000Y-116105000D01*
X124400000Y-116105000D01*
X124406000Y-116105000D01*
X124413000Y-116106000D01*
G37*
X124413000Y-117106000D02*
X124419000Y-117106000D01*
X124425000Y-117108000D01*
X124431000Y-117109000D01*
X124437000Y-117111000D01*
X124443000Y-117113000D01*
X124449000Y-117115000D01*
X124454000Y-117118000D01*
X124460000Y-117121000D01*
X124465000Y-117124000D01*
X124471000Y-117128000D01*
X124476000Y-117132000D01*
X124480000Y-117136000D01*
X124485000Y-117140000D01*
X124489000Y-117145000D01*
X124493000Y-117149000D01*
X124497000Y-117154000D01*
X124501000Y-117160000D01*
X124504000Y-117165000D01*
X124507000Y-117171000D01*
X124510000Y-117176000D01*
X124512000Y-117182000D01*
X124514000Y-117188000D01*
X124516000Y-117194000D01*
X124517000Y-117200000D01*
X124519000Y-117206000D01*
X124519000Y-117212000D01*
X124520000Y-117219000D01*
X124520000Y-117225000D01*
X124520000Y-117375000D01*
X124520000Y-117381000D01*
X124519000Y-117388000D01*
X124519000Y-117394000D01*
X124517000Y-117400000D01*
X124516000Y-117406000D01*
X124514000Y-117412000D01*
X124512000Y-117418000D01*
X124510000Y-117424000D01*
X124507000Y-117429000D01*
X124504000Y-117435000D01*
X124501000Y-117440000D01*
X124497000Y-117446000D01*
X124493000Y-117451000D01*
X124489000Y-117455000D01*
X124485000Y-117460000D01*
X124480000Y-117464000D01*
X124476000Y-117468000D01*
X124471000Y-117472000D01*
X124465000Y-117476000D01*
X124460000Y-117479000D01*
X124454000Y-117482000D01*
X124449000Y-117485000D01*
X124443000Y-117487000D01*
X124437000Y-117489000D01*
X124431000Y-117491000D01*
X124425000Y-117492000D01*
X124419000Y-117494000D01*
X124413000Y-117494000D01*
X124406000Y-117495000D01*
X124400000Y-117495000D01*
X123600000Y-117495000D01*
X123594000Y-117495000D01*
X123587000Y-117494000D01*
X123581000Y-117494000D01*
X123575000Y-117492000D01*
X123569000Y-117491000D01*
X123563000Y-117489000D01*
X123557000Y-117487000D01*
X123551000Y-117485000D01*
X123546000Y-117482000D01*
X123540000Y-117479000D01*
X123535000Y-117476000D01*
X123529000Y-117472000D01*
X123524000Y-117468000D01*
X123520000Y-117464000D01*
X123515000Y-117460000D01*
X123511000Y-117455000D01*
X123507000Y-117451000D01*
X123503000Y-117446000D01*
X123499000Y-117440000D01*
X123496000Y-117435000D01*
X123493000Y-117429000D01*
X123490000Y-117424000D01*
X123488000Y-117418000D01*
X123486000Y-117412000D01*
X123484000Y-117406000D01*
X123483000Y-117400000D01*
X123481000Y-117394000D01*
X123481000Y-117388000D01*
X123480000Y-117381000D01*
X123480000Y-117375000D01*
X123480000Y-117225000D01*
X123480000Y-117219000D01*
X123481000Y-117212000D01*
X123481000Y-117206000D01*
X123483000Y-117200000D01*
X123484000Y-117194000D01*
X123486000Y-117188000D01*
X123488000Y-117182000D01*
X123490000Y-117176000D01*
X123493000Y-117171000D01*
X123496000Y-117165000D01*
X123499000Y-117160000D01*
X123503000Y-117154000D01*
X123507000Y-117149000D01*
X123511000Y-117145000D01*
X123515000Y-117140000D01*
X123520000Y-117136000D01*
X123524000Y-117132000D01*
X123529000Y-117128000D01*
X123535000Y-117124000D01*
X123540000Y-117121000D01*
X123546000Y-117118000D01*
X123551000Y-117115000D01*
X123557000Y-117113000D01*
X123563000Y-117111000D01*
X123569000Y-117109000D01*
X123575000Y-117108000D01*
X123581000Y-117106000D01*
X123587000Y-117106000D01*
X123594000Y-117105000D01*
X123600000Y-117105000D01*
X124400000Y-117105000D01*
X124406000Y-117105000D01*
X124413000Y-117106000D01*
G36*
X124413000Y-117106000D02*
G01*
X124419000Y-117106000D01*
X124425000Y-117108000D01*
X124431000Y-117109000D01*
X124437000Y-117111000D01*
X124443000Y-117113000D01*
X124449000Y-117115000D01*
X124454000Y-117118000D01*
X124460000Y-117121000D01*
X124465000Y-117124000D01*
X124471000Y-117128000D01*
X124476000Y-117132000D01*
X124480000Y-117136000D01*
X124485000Y-117140000D01*
X124489000Y-117145000D01*
X124493000Y-117149000D01*
X124497000Y-117154000D01*
X124501000Y-117160000D01*
X124504000Y-117165000D01*
X124507000Y-117171000D01*
X124510000Y-117176000D01*
X124512000Y-117182000D01*
X124514000Y-117188000D01*
X124516000Y-117194000D01*
X124517000Y-117200000D01*
X124519000Y-117206000D01*
X124519000Y-117212000D01*
X124520000Y-117219000D01*
X124520000Y-117225000D01*
X124520000Y-117375000D01*
X124520000Y-117381000D01*
X124519000Y-117388000D01*
X124519000Y-117394000D01*
X124517000Y-117400000D01*
X124516000Y-117406000D01*
X124514000Y-117412000D01*
X124512000Y-117418000D01*
X124510000Y-117424000D01*
X124507000Y-117429000D01*
X124504000Y-117435000D01*
X124501000Y-117440000D01*
X124497000Y-117446000D01*
X124493000Y-117451000D01*
X124489000Y-117455000D01*
X124485000Y-117460000D01*
X124480000Y-117464000D01*
X124476000Y-117468000D01*
X124471000Y-117472000D01*
X124465000Y-117476000D01*
X124460000Y-117479000D01*
X124454000Y-117482000D01*
X124449000Y-117485000D01*
X124443000Y-117487000D01*
X124437000Y-117489000D01*
X124431000Y-117491000D01*
X124425000Y-117492000D01*
X124419000Y-117494000D01*
X124413000Y-117494000D01*
X124406000Y-117495000D01*
X124400000Y-117495000D01*
X123600000Y-117495000D01*
X123594000Y-117495000D01*
X123587000Y-117494000D01*
X123581000Y-117494000D01*
X123575000Y-117492000D01*
X123569000Y-117491000D01*
X123563000Y-117489000D01*
X123557000Y-117487000D01*
X123551000Y-117485000D01*
X123546000Y-117482000D01*
X123540000Y-117479000D01*
X123535000Y-117476000D01*
X123529000Y-117472000D01*
X123524000Y-117468000D01*
X123520000Y-117464000D01*
X123515000Y-117460000D01*
X123511000Y-117455000D01*
X123507000Y-117451000D01*
X123503000Y-117446000D01*
X123499000Y-117440000D01*
X123496000Y-117435000D01*
X123493000Y-117429000D01*
X123490000Y-117424000D01*
X123488000Y-117418000D01*
X123486000Y-117412000D01*
X123484000Y-117406000D01*
X123483000Y-117400000D01*
X123481000Y-117394000D01*
X123481000Y-117388000D01*
X123480000Y-117381000D01*
X123480000Y-117375000D01*
X123480000Y-117225000D01*
X123480000Y-117219000D01*
X123481000Y-117212000D01*
X123481000Y-117206000D01*
X123483000Y-117200000D01*
X123484000Y-117194000D01*
X123486000Y-117188000D01*
X123488000Y-117182000D01*
X123490000Y-117176000D01*
X123493000Y-117171000D01*
X123496000Y-117165000D01*
X123499000Y-117160000D01*
X123503000Y-117154000D01*
X123507000Y-117149000D01*
X123511000Y-117145000D01*
X123515000Y-117140000D01*
X123520000Y-117136000D01*
X123524000Y-117132000D01*
X123529000Y-117128000D01*
X123535000Y-117124000D01*
X123540000Y-117121000D01*
X123546000Y-117118000D01*
X123551000Y-117115000D01*
X123557000Y-117113000D01*
X123563000Y-117111000D01*
X123569000Y-117109000D01*
X123575000Y-117108000D01*
X123581000Y-117106000D01*
X123587000Y-117106000D01*
X123594000Y-117105000D01*
X123600000Y-117105000D01*
X124400000Y-117105000D01*
X124406000Y-117105000D01*
X124413000Y-117106000D01*
G37*
X124413000Y-116606000D02*
X124419000Y-116606000D01*
X124425000Y-116608000D01*
X124431000Y-116609000D01*
X124437000Y-116611000D01*
X124443000Y-116613000D01*
X124449000Y-116615000D01*
X124454000Y-116618000D01*
X124460000Y-116621000D01*
X124465000Y-116624000D01*
X124471000Y-116628000D01*
X124476000Y-116632000D01*
X124480000Y-116636000D01*
X124485000Y-116640000D01*
X124489000Y-116645000D01*
X124493000Y-116649000D01*
X124497000Y-116654000D01*
X124501000Y-116660000D01*
X124504000Y-116665000D01*
X124507000Y-116671000D01*
X124510000Y-116676000D01*
X124512000Y-116682000D01*
X124514000Y-116688000D01*
X124516000Y-116694000D01*
X124517000Y-116700000D01*
X124519000Y-116706000D01*
X124519000Y-116712000D01*
X124520000Y-116719000D01*
X124520000Y-116725000D01*
X124520000Y-116875000D01*
X124520000Y-116881000D01*
X124519000Y-116888000D01*
X124519000Y-116894000D01*
X124517000Y-116900000D01*
X124516000Y-116906000D01*
X124514000Y-116912000D01*
X124512000Y-116918000D01*
X124510000Y-116924000D01*
X124507000Y-116929000D01*
X124504000Y-116935000D01*
X124501000Y-116940000D01*
X124497000Y-116946000D01*
X124493000Y-116951000D01*
X124489000Y-116955000D01*
X124485000Y-116960000D01*
X124480000Y-116964000D01*
X124476000Y-116968000D01*
X124471000Y-116972000D01*
X124465000Y-116976000D01*
X124460000Y-116979000D01*
X124454000Y-116982000D01*
X124449000Y-116985000D01*
X124443000Y-116987000D01*
X124437000Y-116989000D01*
X124431000Y-116991000D01*
X124425000Y-116992000D01*
X124419000Y-116994000D01*
X124413000Y-116994000D01*
X124406000Y-116995000D01*
X124400000Y-116995000D01*
X123600000Y-116995000D01*
X123594000Y-116995000D01*
X123587000Y-116994000D01*
X123581000Y-116994000D01*
X123575000Y-116992000D01*
X123569000Y-116991000D01*
X123563000Y-116989000D01*
X123557000Y-116987000D01*
X123551000Y-116985000D01*
X123546000Y-116982000D01*
X123540000Y-116979000D01*
X123535000Y-116976000D01*
X123529000Y-116972000D01*
X123524000Y-116968000D01*
X123520000Y-116964000D01*
X123515000Y-116960000D01*
X123511000Y-116955000D01*
X123507000Y-116951000D01*
X123503000Y-116946000D01*
X123499000Y-116940000D01*
X123496000Y-116935000D01*
X123493000Y-116929000D01*
X123490000Y-116924000D01*
X123488000Y-116918000D01*
X123486000Y-116912000D01*
X123484000Y-116906000D01*
X123483000Y-116900000D01*
X123481000Y-116894000D01*
X123481000Y-116888000D01*
X123480000Y-116881000D01*
X123480000Y-116875000D01*
X123480000Y-116725000D01*
X123480000Y-116719000D01*
X123481000Y-116712000D01*
X123481000Y-116706000D01*
X123483000Y-116700000D01*
X123484000Y-116694000D01*
X123486000Y-116688000D01*
X123488000Y-116682000D01*
X123490000Y-116676000D01*
X123493000Y-116671000D01*
X123496000Y-116665000D01*
X123499000Y-116660000D01*
X123503000Y-116654000D01*
X123507000Y-116649000D01*
X123511000Y-116645000D01*
X123515000Y-116640000D01*
X123520000Y-116636000D01*
X123524000Y-116632000D01*
X123529000Y-116628000D01*
X123535000Y-116624000D01*
X123540000Y-116621000D01*
X123546000Y-116618000D01*
X123551000Y-116615000D01*
X123557000Y-116613000D01*
X123563000Y-116611000D01*
X123569000Y-116609000D01*
X123575000Y-116608000D01*
X123581000Y-116606000D01*
X123587000Y-116606000D01*
X123594000Y-116605000D01*
X123600000Y-116605000D01*
X124400000Y-116605000D01*
X124406000Y-116605000D01*
X124413000Y-116606000D01*
G36*
X124413000Y-116606000D02*
G01*
X124419000Y-116606000D01*
X124425000Y-116608000D01*
X124431000Y-116609000D01*
X124437000Y-116611000D01*
X124443000Y-116613000D01*
X124449000Y-116615000D01*
X124454000Y-116618000D01*
X124460000Y-116621000D01*
X124465000Y-116624000D01*
X124471000Y-116628000D01*
X124476000Y-116632000D01*
X124480000Y-116636000D01*
X124485000Y-116640000D01*
X124489000Y-116645000D01*
X124493000Y-116649000D01*
X124497000Y-116654000D01*
X124501000Y-116660000D01*
X124504000Y-116665000D01*
X124507000Y-116671000D01*
X124510000Y-116676000D01*
X124512000Y-116682000D01*
X124514000Y-116688000D01*
X124516000Y-116694000D01*
X124517000Y-116700000D01*
X124519000Y-116706000D01*
X124519000Y-116712000D01*
X124520000Y-116719000D01*
X124520000Y-116725000D01*
X124520000Y-116875000D01*
X124520000Y-116881000D01*
X124519000Y-116888000D01*
X124519000Y-116894000D01*
X124517000Y-116900000D01*
X124516000Y-116906000D01*
X124514000Y-116912000D01*
X124512000Y-116918000D01*
X124510000Y-116924000D01*
X124507000Y-116929000D01*
X124504000Y-116935000D01*
X124501000Y-116940000D01*
X124497000Y-116946000D01*
X124493000Y-116951000D01*
X124489000Y-116955000D01*
X124485000Y-116960000D01*
X124480000Y-116964000D01*
X124476000Y-116968000D01*
X124471000Y-116972000D01*
X124465000Y-116976000D01*
X124460000Y-116979000D01*
X124454000Y-116982000D01*
X124449000Y-116985000D01*
X124443000Y-116987000D01*
X124437000Y-116989000D01*
X124431000Y-116991000D01*
X124425000Y-116992000D01*
X124419000Y-116994000D01*
X124413000Y-116994000D01*
X124406000Y-116995000D01*
X124400000Y-116995000D01*
X123600000Y-116995000D01*
X123594000Y-116995000D01*
X123587000Y-116994000D01*
X123581000Y-116994000D01*
X123575000Y-116992000D01*
X123569000Y-116991000D01*
X123563000Y-116989000D01*
X123557000Y-116987000D01*
X123551000Y-116985000D01*
X123546000Y-116982000D01*
X123540000Y-116979000D01*
X123535000Y-116976000D01*
X123529000Y-116972000D01*
X123524000Y-116968000D01*
X123520000Y-116964000D01*
X123515000Y-116960000D01*
X123511000Y-116955000D01*
X123507000Y-116951000D01*
X123503000Y-116946000D01*
X123499000Y-116940000D01*
X123496000Y-116935000D01*
X123493000Y-116929000D01*
X123490000Y-116924000D01*
X123488000Y-116918000D01*
X123486000Y-116912000D01*
X123484000Y-116906000D01*
X123483000Y-116900000D01*
X123481000Y-116894000D01*
X123481000Y-116888000D01*
X123480000Y-116881000D01*
X123480000Y-116875000D01*
X123480000Y-116725000D01*
X123480000Y-116719000D01*
X123481000Y-116712000D01*
X123481000Y-116706000D01*
X123483000Y-116700000D01*
X123484000Y-116694000D01*
X123486000Y-116688000D01*
X123488000Y-116682000D01*
X123490000Y-116676000D01*
X123493000Y-116671000D01*
X123496000Y-116665000D01*
X123499000Y-116660000D01*
X123503000Y-116654000D01*
X123507000Y-116649000D01*
X123511000Y-116645000D01*
X123515000Y-116640000D01*
X123520000Y-116636000D01*
X123524000Y-116632000D01*
X123529000Y-116628000D01*
X123535000Y-116624000D01*
X123540000Y-116621000D01*
X123546000Y-116618000D01*
X123551000Y-116615000D01*
X123557000Y-116613000D01*
X123563000Y-116611000D01*
X123569000Y-116609000D01*
X123575000Y-116608000D01*
X123581000Y-116606000D01*
X123587000Y-116606000D01*
X123594000Y-116605000D01*
X123600000Y-116605000D01*
X124400000Y-116605000D01*
X124406000Y-116605000D01*
X124413000Y-116606000D01*
G37*
X124413000Y-115606000D02*
X124419000Y-115606000D01*
X124425000Y-115608000D01*
X124431000Y-115609000D01*
X124437000Y-115611000D01*
X124443000Y-115613000D01*
X124449000Y-115615000D01*
X124454000Y-115618000D01*
X124460000Y-115621000D01*
X124465000Y-115624000D01*
X124471000Y-115628000D01*
X124476000Y-115632000D01*
X124480000Y-115636000D01*
X124485000Y-115640000D01*
X124489000Y-115645000D01*
X124493000Y-115649000D01*
X124497000Y-115654000D01*
X124501000Y-115660000D01*
X124504000Y-115665000D01*
X124507000Y-115671000D01*
X124510000Y-115676000D01*
X124512000Y-115682000D01*
X124514000Y-115688000D01*
X124516000Y-115694000D01*
X124517000Y-115700000D01*
X124519000Y-115706000D01*
X124519000Y-115712000D01*
X124520000Y-115719000D01*
X124520000Y-115725000D01*
X124520000Y-115875000D01*
X124520000Y-115881000D01*
X124519000Y-115888000D01*
X124519000Y-115894000D01*
X124517000Y-115900000D01*
X124516000Y-115906000D01*
X124514000Y-115912000D01*
X124512000Y-115918000D01*
X124510000Y-115924000D01*
X124507000Y-115929000D01*
X124504000Y-115935000D01*
X124501000Y-115940000D01*
X124497000Y-115946000D01*
X124493000Y-115951000D01*
X124489000Y-115955000D01*
X124485000Y-115960000D01*
X124480000Y-115964000D01*
X124476000Y-115968000D01*
X124471000Y-115972000D01*
X124465000Y-115976000D01*
X124460000Y-115979000D01*
X124454000Y-115982000D01*
X124449000Y-115985000D01*
X124443000Y-115987000D01*
X124437000Y-115989000D01*
X124431000Y-115991000D01*
X124425000Y-115992000D01*
X124419000Y-115994000D01*
X124413000Y-115994000D01*
X124406000Y-115995000D01*
X124400000Y-115995000D01*
X123600000Y-115995000D01*
X123594000Y-115995000D01*
X123587000Y-115994000D01*
X123581000Y-115994000D01*
X123575000Y-115992000D01*
X123569000Y-115991000D01*
X123563000Y-115989000D01*
X123557000Y-115987000D01*
X123551000Y-115985000D01*
X123546000Y-115982000D01*
X123540000Y-115979000D01*
X123535000Y-115976000D01*
X123529000Y-115972000D01*
X123524000Y-115968000D01*
X123520000Y-115964000D01*
X123515000Y-115960000D01*
X123511000Y-115955000D01*
X123507000Y-115951000D01*
X123503000Y-115946000D01*
X123499000Y-115940000D01*
X123496000Y-115935000D01*
X123493000Y-115929000D01*
X123490000Y-115924000D01*
X123488000Y-115918000D01*
X123486000Y-115912000D01*
X123484000Y-115906000D01*
X123483000Y-115900000D01*
X123481000Y-115894000D01*
X123481000Y-115888000D01*
X123480000Y-115881000D01*
X123480000Y-115875000D01*
X123480000Y-115725000D01*
X123480000Y-115719000D01*
X123481000Y-115712000D01*
X123481000Y-115706000D01*
X123483000Y-115700000D01*
X123484000Y-115694000D01*
X123486000Y-115688000D01*
X123488000Y-115682000D01*
X123490000Y-115676000D01*
X123493000Y-115671000D01*
X123496000Y-115665000D01*
X123499000Y-115660000D01*
X123503000Y-115654000D01*
X123507000Y-115649000D01*
X123511000Y-115645000D01*
X123515000Y-115640000D01*
X123520000Y-115636000D01*
X123524000Y-115632000D01*
X123529000Y-115628000D01*
X123535000Y-115624000D01*
X123540000Y-115621000D01*
X123546000Y-115618000D01*
X123551000Y-115615000D01*
X123557000Y-115613000D01*
X123563000Y-115611000D01*
X123569000Y-115609000D01*
X123575000Y-115608000D01*
X123581000Y-115606000D01*
X123587000Y-115606000D01*
X123594000Y-115605000D01*
X123600000Y-115605000D01*
X124400000Y-115605000D01*
X124406000Y-115605000D01*
X124413000Y-115606000D01*
G36*
X124413000Y-115606000D02*
G01*
X124419000Y-115606000D01*
X124425000Y-115608000D01*
X124431000Y-115609000D01*
X124437000Y-115611000D01*
X124443000Y-115613000D01*
X124449000Y-115615000D01*
X124454000Y-115618000D01*
X124460000Y-115621000D01*
X124465000Y-115624000D01*
X124471000Y-115628000D01*
X124476000Y-115632000D01*
X124480000Y-115636000D01*
X124485000Y-115640000D01*
X124489000Y-115645000D01*
X124493000Y-115649000D01*
X124497000Y-115654000D01*
X124501000Y-115660000D01*
X124504000Y-115665000D01*
X124507000Y-115671000D01*
X124510000Y-115676000D01*
X124512000Y-115682000D01*
X124514000Y-115688000D01*
X124516000Y-115694000D01*
X124517000Y-115700000D01*
X124519000Y-115706000D01*
X124519000Y-115712000D01*
X124520000Y-115719000D01*
X124520000Y-115725000D01*
X124520000Y-115875000D01*
X124520000Y-115881000D01*
X124519000Y-115888000D01*
X124519000Y-115894000D01*
X124517000Y-115900000D01*
X124516000Y-115906000D01*
X124514000Y-115912000D01*
X124512000Y-115918000D01*
X124510000Y-115924000D01*
X124507000Y-115929000D01*
X124504000Y-115935000D01*
X124501000Y-115940000D01*
X124497000Y-115946000D01*
X124493000Y-115951000D01*
X124489000Y-115955000D01*
X124485000Y-115960000D01*
X124480000Y-115964000D01*
X124476000Y-115968000D01*
X124471000Y-115972000D01*
X124465000Y-115976000D01*
X124460000Y-115979000D01*
X124454000Y-115982000D01*
X124449000Y-115985000D01*
X124443000Y-115987000D01*
X124437000Y-115989000D01*
X124431000Y-115991000D01*
X124425000Y-115992000D01*
X124419000Y-115994000D01*
X124413000Y-115994000D01*
X124406000Y-115995000D01*
X124400000Y-115995000D01*
X123600000Y-115995000D01*
X123594000Y-115995000D01*
X123587000Y-115994000D01*
X123581000Y-115994000D01*
X123575000Y-115992000D01*
X123569000Y-115991000D01*
X123563000Y-115989000D01*
X123557000Y-115987000D01*
X123551000Y-115985000D01*
X123546000Y-115982000D01*
X123540000Y-115979000D01*
X123535000Y-115976000D01*
X123529000Y-115972000D01*
X123524000Y-115968000D01*
X123520000Y-115964000D01*
X123515000Y-115960000D01*
X123511000Y-115955000D01*
X123507000Y-115951000D01*
X123503000Y-115946000D01*
X123499000Y-115940000D01*
X123496000Y-115935000D01*
X123493000Y-115929000D01*
X123490000Y-115924000D01*
X123488000Y-115918000D01*
X123486000Y-115912000D01*
X123484000Y-115906000D01*
X123483000Y-115900000D01*
X123481000Y-115894000D01*
X123481000Y-115888000D01*
X123480000Y-115881000D01*
X123480000Y-115875000D01*
X123480000Y-115725000D01*
X123480000Y-115719000D01*
X123481000Y-115712000D01*
X123481000Y-115706000D01*
X123483000Y-115700000D01*
X123484000Y-115694000D01*
X123486000Y-115688000D01*
X123488000Y-115682000D01*
X123490000Y-115676000D01*
X123493000Y-115671000D01*
X123496000Y-115665000D01*
X123499000Y-115660000D01*
X123503000Y-115654000D01*
X123507000Y-115649000D01*
X123511000Y-115645000D01*
X123515000Y-115640000D01*
X123520000Y-115636000D01*
X123524000Y-115632000D01*
X123529000Y-115628000D01*
X123535000Y-115624000D01*
X123540000Y-115621000D01*
X123546000Y-115618000D01*
X123551000Y-115615000D01*
X123557000Y-115613000D01*
X123563000Y-115611000D01*
X123569000Y-115609000D01*
X123575000Y-115608000D01*
X123581000Y-115606000D01*
X123587000Y-115606000D01*
X123594000Y-115605000D01*
X123600000Y-115605000D01*
X124400000Y-115605000D01*
X124406000Y-115605000D01*
X124413000Y-115606000D01*
G37*
X124413000Y-115106000D02*
X124419000Y-115106000D01*
X124425000Y-115108000D01*
X124431000Y-115109000D01*
X124437000Y-115111000D01*
X124443000Y-115113000D01*
X124449000Y-115115000D01*
X124454000Y-115118000D01*
X124460000Y-115121000D01*
X124465000Y-115124000D01*
X124471000Y-115128000D01*
X124476000Y-115132000D01*
X124480000Y-115136000D01*
X124485000Y-115140000D01*
X124489000Y-115145000D01*
X124493000Y-115149000D01*
X124497000Y-115154000D01*
X124501000Y-115160000D01*
X124504000Y-115165000D01*
X124507000Y-115171000D01*
X124510000Y-115176000D01*
X124512000Y-115182000D01*
X124514000Y-115188000D01*
X124516000Y-115194000D01*
X124517000Y-115200000D01*
X124519000Y-115206000D01*
X124519000Y-115212000D01*
X124520000Y-115219000D01*
X124520000Y-115225000D01*
X124520000Y-115375000D01*
X124520000Y-115381000D01*
X124519000Y-115388000D01*
X124519000Y-115394000D01*
X124517000Y-115400000D01*
X124516000Y-115406000D01*
X124514000Y-115412000D01*
X124512000Y-115418000D01*
X124510000Y-115424000D01*
X124507000Y-115429000D01*
X124504000Y-115435000D01*
X124501000Y-115440000D01*
X124497000Y-115446000D01*
X124493000Y-115451000D01*
X124489000Y-115455000D01*
X124485000Y-115460000D01*
X124480000Y-115464000D01*
X124476000Y-115468000D01*
X124471000Y-115472000D01*
X124465000Y-115476000D01*
X124460000Y-115479000D01*
X124454000Y-115482000D01*
X124449000Y-115485000D01*
X124443000Y-115487000D01*
X124437000Y-115489000D01*
X124431000Y-115491000D01*
X124425000Y-115492000D01*
X124419000Y-115494000D01*
X124413000Y-115494000D01*
X124406000Y-115495000D01*
X124400000Y-115495000D01*
X123600000Y-115495000D01*
X123594000Y-115495000D01*
X123587000Y-115494000D01*
X123581000Y-115494000D01*
X123575000Y-115492000D01*
X123569000Y-115491000D01*
X123563000Y-115489000D01*
X123557000Y-115487000D01*
X123551000Y-115485000D01*
X123546000Y-115482000D01*
X123540000Y-115479000D01*
X123535000Y-115476000D01*
X123529000Y-115472000D01*
X123524000Y-115468000D01*
X123520000Y-115464000D01*
X123515000Y-115460000D01*
X123511000Y-115455000D01*
X123507000Y-115451000D01*
X123503000Y-115446000D01*
X123499000Y-115440000D01*
X123496000Y-115435000D01*
X123493000Y-115429000D01*
X123490000Y-115424000D01*
X123488000Y-115418000D01*
X123486000Y-115412000D01*
X123484000Y-115406000D01*
X123483000Y-115400000D01*
X123481000Y-115394000D01*
X123481000Y-115388000D01*
X123480000Y-115381000D01*
X123480000Y-115375000D01*
X123480000Y-115225000D01*
X123480000Y-115219000D01*
X123481000Y-115212000D01*
X123481000Y-115206000D01*
X123483000Y-115200000D01*
X123484000Y-115194000D01*
X123486000Y-115188000D01*
X123488000Y-115182000D01*
X123490000Y-115176000D01*
X123493000Y-115171000D01*
X123496000Y-115165000D01*
X123499000Y-115160000D01*
X123503000Y-115154000D01*
X123507000Y-115149000D01*
X123511000Y-115145000D01*
X123515000Y-115140000D01*
X123520000Y-115136000D01*
X123524000Y-115132000D01*
X123529000Y-115128000D01*
X123535000Y-115124000D01*
X123540000Y-115121000D01*
X123546000Y-115118000D01*
X123551000Y-115115000D01*
X123557000Y-115113000D01*
X123563000Y-115111000D01*
X123569000Y-115109000D01*
X123575000Y-115108000D01*
X123581000Y-115106000D01*
X123587000Y-115106000D01*
X123594000Y-115105000D01*
X123600000Y-115105000D01*
X124400000Y-115105000D01*
X124406000Y-115105000D01*
X124413000Y-115106000D01*
G36*
X124413000Y-115106000D02*
G01*
X124419000Y-115106000D01*
X124425000Y-115108000D01*
X124431000Y-115109000D01*
X124437000Y-115111000D01*
X124443000Y-115113000D01*
X124449000Y-115115000D01*
X124454000Y-115118000D01*
X124460000Y-115121000D01*
X124465000Y-115124000D01*
X124471000Y-115128000D01*
X124476000Y-115132000D01*
X124480000Y-115136000D01*
X124485000Y-115140000D01*
X124489000Y-115145000D01*
X124493000Y-115149000D01*
X124497000Y-115154000D01*
X124501000Y-115160000D01*
X124504000Y-115165000D01*
X124507000Y-115171000D01*
X124510000Y-115176000D01*
X124512000Y-115182000D01*
X124514000Y-115188000D01*
X124516000Y-115194000D01*
X124517000Y-115200000D01*
X124519000Y-115206000D01*
X124519000Y-115212000D01*
X124520000Y-115219000D01*
X124520000Y-115225000D01*
X124520000Y-115375000D01*
X124520000Y-115381000D01*
X124519000Y-115388000D01*
X124519000Y-115394000D01*
X124517000Y-115400000D01*
X124516000Y-115406000D01*
X124514000Y-115412000D01*
X124512000Y-115418000D01*
X124510000Y-115424000D01*
X124507000Y-115429000D01*
X124504000Y-115435000D01*
X124501000Y-115440000D01*
X124497000Y-115446000D01*
X124493000Y-115451000D01*
X124489000Y-115455000D01*
X124485000Y-115460000D01*
X124480000Y-115464000D01*
X124476000Y-115468000D01*
X124471000Y-115472000D01*
X124465000Y-115476000D01*
X124460000Y-115479000D01*
X124454000Y-115482000D01*
X124449000Y-115485000D01*
X124443000Y-115487000D01*
X124437000Y-115489000D01*
X124431000Y-115491000D01*
X124425000Y-115492000D01*
X124419000Y-115494000D01*
X124413000Y-115494000D01*
X124406000Y-115495000D01*
X124400000Y-115495000D01*
X123600000Y-115495000D01*
X123594000Y-115495000D01*
X123587000Y-115494000D01*
X123581000Y-115494000D01*
X123575000Y-115492000D01*
X123569000Y-115491000D01*
X123563000Y-115489000D01*
X123557000Y-115487000D01*
X123551000Y-115485000D01*
X123546000Y-115482000D01*
X123540000Y-115479000D01*
X123535000Y-115476000D01*
X123529000Y-115472000D01*
X123524000Y-115468000D01*
X123520000Y-115464000D01*
X123515000Y-115460000D01*
X123511000Y-115455000D01*
X123507000Y-115451000D01*
X123503000Y-115446000D01*
X123499000Y-115440000D01*
X123496000Y-115435000D01*
X123493000Y-115429000D01*
X123490000Y-115424000D01*
X123488000Y-115418000D01*
X123486000Y-115412000D01*
X123484000Y-115406000D01*
X123483000Y-115400000D01*
X123481000Y-115394000D01*
X123481000Y-115388000D01*
X123480000Y-115381000D01*
X123480000Y-115375000D01*
X123480000Y-115225000D01*
X123480000Y-115219000D01*
X123481000Y-115212000D01*
X123481000Y-115206000D01*
X123483000Y-115200000D01*
X123484000Y-115194000D01*
X123486000Y-115188000D01*
X123488000Y-115182000D01*
X123490000Y-115176000D01*
X123493000Y-115171000D01*
X123496000Y-115165000D01*
X123499000Y-115160000D01*
X123503000Y-115154000D01*
X123507000Y-115149000D01*
X123511000Y-115145000D01*
X123515000Y-115140000D01*
X123520000Y-115136000D01*
X123524000Y-115132000D01*
X123529000Y-115128000D01*
X123535000Y-115124000D01*
X123540000Y-115121000D01*
X123546000Y-115118000D01*
X123551000Y-115115000D01*
X123557000Y-115113000D01*
X123563000Y-115111000D01*
X123569000Y-115109000D01*
X123575000Y-115108000D01*
X123581000Y-115106000D01*
X123587000Y-115106000D01*
X123594000Y-115105000D01*
X123600000Y-115105000D01*
X124400000Y-115105000D01*
X124406000Y-115105000D01*
X124413000Y-115106000D01*
G37*
%TD*%
D11*
%TO.C,J1*%
X125270000Y-104500000D03*
X135430000Y-104500000D03*
X132890000Y-104500000D03*
X130350000Y-104500000D03*
X127810000Y-104500000D03*
X115110000Y-104500000D03*
X122730000Y-104500000D03*
X120190000Y-104500000D03*
X117650000Y-104500000D03*
D12*
X112570000Y-104500000D03*
%TD*%
D13*
%TO.C,ESP5V1*%
X125500000Y-110000000D03*
D12*
X122960000Y-110000000D03*
%TD*%
D14*
%TO.C,R9*%
X120412500Y-117400000D03*
X118587500Y-117400000D03*
%TD*%
%TO.C,R8*%
X123412500Y-120100000D03*
X121587500Y-120100000D03*
%TD*%
D15*
%TO.C,L1*%
X128300000Y-114715000D03*
X128300000Y-117085000D03*
%TD*%
D12*
%TO.C,ESP3.3V1*%
X135325000Y-121550000D03*
D13*
X132785000Y-121550000D03*
%TD*%
D16*
%TO.C,C7*%
X127862500Y-120100000D03*
X126137500Y-120100000D03*
%TD*%
D17*
%TO.C,C6*%
X119800000Y-113437500D03*
X119800000Y-115162500D03*
%TD*%
D18*
%TO.C,S1*%
X113000000Y-121400000D03*
X115500000Y-121400000D03*
X118000000Y-121400000D03*
X113000000Y-123800000D03*
X115500000Y-123800000D03*
X118000000Y-123800000D03*
%TD*%
D19*
%TO.C,C1*%
X128237500Y-90100000D03*
X129962500Y-90100000D03*
%TD*%
D20*
%TO.C,U6*%
X129605000Y-92300000D03*
X128955000Y-92300000D03*
X128305000Y-92300000D03*
X127655000Y-92300000D03*
X127005000Y-92300000D03*
X126355000Y-92300000D03*
X125705000Y-92300000D03*
X125055000Y-92300000D03*
X124405000Y-92300000D03*
X123755000Y-92300000D03*
X123105000Y-92300000D03*
X122455000Y-92300000D03*
X121805000Y-92300000D03*
X121155000Y-92300000D03*
X121155000Y-98025000D03*
X121805000Y-98025000D03*
X122455000Y-98025000D03*
X123105000Y-98025000D03*
X123755000Y-98025000D03*
X124405000Y-98025000D03*
X125055000Y-98025000D03*
X125705000Y-98025000D03*
X126355000Y-98025000D03*
X127005000Y-98025000D03*
X127655000Y-98025000D03*
X128305000Y-98025000D03*
X128955000Y-98025000D03*
X129605000Y-98025000D03*
D21*
X125380000Y-95162500D03*
%TD*%
D22*
%TO.C,R14*%
X117300000Y-82687500D03*
X117300000Y-84512500D03*
%TD*%
D17*
%TO.C,C14*%
X123500000Y-82637500D03*
X123500000Y-84362500D03*
%TD*%
D14*
%TO.C,R22*%
X116925000Y-91500000D03*
X115100000Y-91500000D03*
%TD*%
D12*
%TO.C,6V_IN1*%
X112710000Y-116000000D03*
D23*
X115250000Y-116000000D03*
%TD*%
D12*
%TO.C,ADC1*%
X128800000Y-86700000D03*
D13*
X126260000Y-86700000D03*
%TD*%
D24*
%TO.C,Q1*%
X117300000Y-79687500D03*
X119200000Y-79687500D03*
X118250000Y-77812500D03*
%TD*%
D12*
%TO.C,THRM1*%
X124475000Y-66700000D03*
D13*
X121935000Y-66700000D03*
%TD*%
D14*
%TO.C,R13*%
X128912500Y-71000000D03*
X127087500Y-71000000D03*
%TD*%
%TO.C,R18*%
X128912500Y-73900000D03*
X127087500Y-73900000D03*
%TD*%
D12*
%TO.C,PWR1*%
X112700000Y-110000000D03*
D23*
X115240000Y-110000000D03*
%TD*%
D25*
%TO.C,Q4*%
X117850000Y-94662500D03*
X115950000Y-94662500D03*
X116900000Y-96537500D03*
%TD*%
D19*
%TO.C,C12*%
X122937500Y-89400000D03*
X124662500Y-89400000D03*
%TD*%
D12*
%TO.C,BAT1*%
X132250000Y-110000000D03*
D23*
X134790000Y-110000000D03*
%TD*%
D26*
%TO.C,U2*%
X112570000Y-64755000D03*
D27*
X112570000Y-67295000D03*
X112570000Y-69835000D03*
X112570000Y-72375000D03*
X112570000Y-74915000D03*
X112570000Y-77455000D03*
X112570000Y-79995000D03*
X112570000Y-82535000D03*
X112570000Y-85075000D03*
X112570000Y-87615000D03*
X112570000Y-90155000D03*
X112570000Y-92695000D03*
X112570000Y-95235000D03*
X112570000Y-97775000D03*
X112570000Y-100315000D03*
X135430000Y-100315000D03*
X135430000Y-97775000D03*
X135430000Y-95235000D03*
X135430000Y-92695000D03*
X135430000Y-90155000D03*
X135430000Y-87615000D03*
X135430000Y-85075000D03*
X135430000Y-82535000D03*
X135430000Y-79995000D03*
X135430000Y-77455000D03*
X135430000Y-74915000D03*
X135430000Y-72375000D03*
X135430000Y-69835000D03*
X135430000Y-67295000D03*
X135430000Y-64755000D03*
%TD*%
D28*
%TO.C,R21*%
X117337500Y-75500000D03*
X119162500Y-75500000D03*
%TD*%
D24*
%TO.C,Q3*%
X117300000Y-72187500D03*
X119200000Y-72187500D03*
X118250000Y-70312500D03*
%TD*%
D29*
%TO.C,U7*%
X124250000Y-73250000D03*
X124250000Y-72750000D03*
X124250000Y-72250000D03*
X124250000Y-71750000D03*
X121900000Y-71750000D03*
X121900000Y-72250000D03*
X121900000Y-72750000D03*
X121900000Y-73250000D03*
D30*
X123075000Y-72500000D03*
%TD*%
D19*
%TO.C,C15*%
X127137500Y-77000000D03*
X128862500Y-77000000D03*
%TD*%
D22*
%TO.C,R15*%
X120500000Y-82687500D03*
X120500000Y-84512500D03*
%TD*%
D16*
%TO.C,C13*%
X127249308Y-100056391D03*
X125524308Y-100056391D03*
%TD*%
D12*
%TO.C,DMS1*%
X135275000Y-116000000D03*
D13*
X132735000Y-116000000D03*
%TD*%
M02*
