%TF.GenerationSoftware,KiCad,Pcbnew,9.0.0*%
%TF.CreationDate,2026-03-10T17:38:38+01:00*%
%TF.ProjectId,ESP32_Shield,45535033-325f-4536-9869-656c642e6b69,rev?*%
%TF.SameCoordinates,Original*%
%TF.FileFunction,Legend,Top*%
%TF.FilePolarity,Positive*%
%FSLAX46Y46*%
G04 Gerber Fmt 4.6, Leading zero omitted, Abs format (unit mm)*
G04 Created by KiCad (PCBNEW 9.0.0) date 2026-03-10 17:38:38*
%MOMM*%
%LPD*%
G01*
G04 APERTURE LIST*
%ADD10C,0.100000*%
%ADD11C,0.150000*%
%ADD12C,0.160000*%
%ADD13C,0.120000*%
%ADD14C,0.200000*%
%ADD15C,0.127000*%
G04 APERTURE END LIST*
D10*
G36*
X120661779Y-123270000D02*
G01*
X120661779Y-122600969D01*
X120424033Y-122600969D01*
X120424033Y-122466538D01*
X121060725Y-122466538D01*
X121060725Y-122600969D01*
X120823517Y-122600969D01*
X120823517Y-123270000D01*
X120661779Y-123270000D01*
G37*
G36*
X121317229Y-122466538D02*
G01*
X121317229Y-122760753D01*
X121357570Y-122721215D01*
X121400078Y-122694220D01*
X121445461Y-122678266D01*
X121494842Y-122672875D01*
X121545962Y-122677968D01*
X121590488Y-122692658D01*
X121628772Y-122715918D01*
X121654724Y-122743265D01*
X121672865Y-122775630D01*
X121684228Y-122811458D01*
X121689790Y-122853988D01*
X121692142Y-122927473D01*
X121692142Y-123270000D01*
X121538562Y-123270000D01*
X121538562Y-122961912D01*
X121535653Y-122878420D01*
X121529818Y-122845505D01*
X121517748Y-122823353D01*
X121498946Y-122806231D01*
X121474823Y-122795531D01*
X121443454Y-122791674D01*
X121406925Y-122796431D01*
X121375163Y-122810334D01*
X121349496Y-122833292D01*
X121331151Y-122866657D01*
X121321289Y-122908870D01*
X121317229Y-122977836D01*
X121317229Y-123270000D01*
X121163649Y-123270000D01*
X121163649Y-122466538D01*
X121317229Y-122466538D01*
G37*
G36*
X122175999Y-122678571D02*
G01*
X122232547Y-122694972D01*
X122282646Y-122721706D01*
X122327369Y-122759288D01*
X122363942Y-122804932D01*
X122390002Y-122855782D01*
X122405990Y-122912866D01*
X122411535Y-122977592D01*
X122405942Y-123042857D01*
X122389807Y-123100496D01*
X122363489Y-123151915D01*
X122326538Y-123198143D01*
X122281349Y-123236393D01*
X122231355Y-123263439D01*
X122175566Y-123279932D01*
X122112581Y-123285631D01*
X122060253Y-123281588D01*
X122009709Y-123269510D01*
X121960369Y-123249190D01*
X121915719Y-123220939D01*
X121879287Y-123185569D01*
X121850265Y-123142407D01*
X121829950Y-123094085D01*
X121817105Y-123037469D01*
X121813122Y-122979253D01*
X121969944Y-122979253D01*
X121975114Y-123036488D01*
X121989182Y-123080364D01*
X122010928Y-123113879D01*
X122040773Y-123140082D01*
X122074043Y-123155378D01*
X122112044Y-123160579D01*
X122150034Y-123155372D01*
X122183202Y-123140072D01*
X122212868Y-123113879D01*
X122234431Y-123080365D01*
X122248442Y-123036156D01*
X122253607Y-122978129D01*
X122248486Y-122921645D01*
X122234516Y-122878122D01*
X122212868Y-122844675D01*
X122183198Y-122818453D01*
X122150030Y-122803138D01*
X122112044Y-122797927D01*
X122074047Y-122803132D01*
X122040776Y-122818443D01*
X122010928Y-122844675D01*
X121989184Y-122878160D01*
X121975115Y-122922018D01*
X121969944Y-122979253D01*
X121813122Y-122979253D01*
X121812554Y-122970949D01*
X121816688Y-122920320D01*
X121829133Y-122870660D01*
X121850265Y-122821374D01*
X121879169Y-122776631D01*
X121914595Y-122740102D01*
X121957096Y-122710976D01*
X122004456Y-122689986D01*
X122055643Y-122677236D01*
X122111507Y-122672875D01*
X122175999Y-122678571D01*
G37*
G36*
X122520516Y-122688506D02*
G01*
X122662030Y-122688506D01*
X122662030Y-122767739D01*
X122703565Y-122724757D01*
X122746998Y-122695674D01*
X122793051Y-122678614D01*
X122842916Y-122672875D01*
X122879503Y-122675614D01*
X122911507Y-122683455D01*
X122939685Y-122696078D01*
X122964901Y-122713787D01*
X122987255Y-122736940D01*
X123006901Y-122766273D01*
X123047654Y-122724380D01*
X123089406Y-122696078D01*
X123135173Y-122678682D01*
X123183977Y-122672875D01*
X123225929Y-122676013D01*
X123261640Y-122684890D01*
X123292177Y-122699009D01*
X123318995Y-122718937D01*
X123340940Y-122744251D01*
X123358318Y-122775701D01*
X123369401Y-122818987D01*
X123374145Y-122896650D01*
X123374145Y-123270000D01*
X123220565Y-123270000D01*
X123220565Y-122936657D01*
X123218083Y-122877595D01*
X123212187Y-122842973D01*
X123204738Y-122824647D01*
X123188191Y-122806504D01*
X123166850Y-122795569D01*
X123139134Y-122791674D01*
X123108119Y-122796532D01*
X123078464Y-122811458D01*
X123054423Y-122835254D01*
X123037480Y-122869392D01*
X123028675Y-122913094D01*
X123024926Y-122989902D01*
X123024926Y-123270000D01*
X122871346Y-123270000D01*
X122871346Y-122950383D01*
X122868652Y-122872671D01*
X122863140Y-122840572D01*
X122852326Y-122818519D01*
X122837690Y-122803789D01*
X122818440Y-122794976D01*
X122790990Y-122791674D01*
X122757114Y-122796527D01*
X122727048Y-122810921D01*
X122702931Y-122833997D01*
X122686308Y-122866364D01*
X122677763Y-122908596D01*
X122674047Y-122986629D01*
X122674047Y-123270000D01*
X122520516Y-123270000D01*
X122520516Y-122688506D01*
G37*
G36*
X123823307Y-122676224D02*
G01*
X123872846Y-122684932D01*
X123907473Y-122697348D01*
X123939018Y-122716081D01*
X123962138Y-122736773D01*
X123978255Y-122759483D01*
X123988260Y-122785980D01*
X123995747Y-122829785D01*
X123998771Y-122897773D01*
X123997159Y-123078122D01*
X123999351Y-123150010D01*
X124004535Y-123191646D01*
X124014735Y-123228421D01*
X124032135Y-123270000D01*
X123880216Y-123270000D01*
X123865464Y-123225254D01*
X123859993Y-123207473D01*
X123818639Y-123242119D01*
X123775826Y-123266092D01*
X123729749Y-123280699D01*
X123680181Y-123285631D01*
X123635576Y-123282235D01*
X123597925Y-123272659D01*
X123566014Y-123257468D01*
X123538911Y-123236734D01*
X123516306Y-123210648D01*
X123500353Y-123181775D01*
X123490635Y-123149535D01*
X123487278Y-123113098D01*
X123488659Y-123096587D01*
X123640809Y-123096587D01*
X123643476Y-123117217D01*
X123651359Y-123135686D01*
X123664842Y-123152616D01*
X123682111Y-123165605D01*
X123702235Y-123173469D01*
X123726050Y-123176210D01*
X123752882Y-123173256D01*
X123779116Y-123164290D01*
X123805282Y-123148757D01*
X123828624Y-123125235D01*
X123841919Y-123097711D01*
X123846033Y-123073501D01*
X123847927Y-123022484D01*
X123847927Y-122991758D01*
X123754480Y-123015352D01*
X123696404Y-123030673D01*
X123670851Y-123042267D01*
X123653777Y-123058300D01*
X123644070Y-123076143D01*
X123640809Y-123096587D01*
X123488659Y-123096587D01*
X123489979Y-123080807D01*
X123497843Y-123051610D01*
X123510774Y-123024926D01*
X123528466Y-123001194D01*
X123550258Y-122981519D01*
X123576622Y-122965624D01*
X123624034Y-122947603D01*
X123698743Y-122929623D01*
X123797831Y-122907921D01*
X123847927Y-122891716D01*
X123847927Y-122875987D01*
X123845057Y-122846442D01*
X123837485Y-122825561D01*
X123826043Y-122811067D01*
X123810031Y-122801417D01*
X123783936Y-122794458D01*
X123743538Y-122791674D01*
X123705530Y-122796250D01*
X123679595Y-122808332D01*
X123659956Y-122829537D01*
X123642470Y-122866706D01*
X123503105Y-122841695D01*
X123523562Y-122787194D01*
X123550571Y-122745476D01*
X123583949Y-122714249D01*
X123613078Y-122697507D01*
X123650026Y-122684546D01*
X123696495Y-122676001D01*
X123754480Y-122672875D01*
X123823307Y-122676224D01*
G37*
G36*
X124095736Y-123104305D02*
G01*
X124249853Y-123085547D01*
X124259046Y-123113732D01*
X124272352Y-123135913D01*
X124289713Y-123153154D01*
X124310984Y-123165364D01*
X124338478Y-123173299D01*
X124373879Y-123176210D01*
X124413155Y-123173278D01*
X124442256Y-123165478D01*
X124463517Y-123153838D01*
X124478649Y-123135628D01*
X124483740Y-123111974D01*
X124480925Y-123095386D01*
X124472798Y-123082323D01*
X124457282Y-123072846D01*
X124421458Y-123061660D01*
X124295245Y-123029547D01*
X124222666Y-123004522D01*
X124185910Y-122985457D01*
X124155446Y-122958985D01*
X124134305Y-122928709D01*
X124121489Y-122893885D01*
X124117034Y-122853224D01*
X124120791Y-122816404D01*
X124131786Y-122783258D01*
X124150122Y-122752940D01*
X124176580Y-122724898D01*
X124207370Y-122703769D01*
X124246982Y-122687518D01*
X124297469Y-122676806D01*
X124361325Y-122672875D01*
X124422818Y-122675927D01*
X124471337Y-122684201D01*
X124509185Y-122696603D01*
X124538353Y-122712393D01*
X124572397Y-122742266D01*
X124598947Y-122780653D01*
X124618171Y-122829190D01*
X124473384Y-122857327D01*
X124459596Y-122824715D01*
X124438115Y-122801639D01*
X124419801Y-122791464D01*
X124395656Y-122784772D01*
X124364061Y-122782295D01*
X124323545Y-122784714D01*
X124295664Y-122790904D01*
X124277159Y-122799637D01*
X124263939Y-122813908D01*
X124259672Y-122831437D01*
X124263356Y-122846710D01*
X124274961Y-122859965D01*
X124308458Y-122874728D01*
X124418429Y-122904124D01*
X124499931Y-122927190D01*
X124554802Y-122950544D01*
X124589741Y-122973489D01*
X124616044Y-123004037D01*
X124632142Y-123041796D01*
X124637857Y-123088967D01*
X124633742Y-123127641D01*
X124621586Y-123163126D01*
X124601085Y-123196277D01*
X124571179Y-123227648D01*
X124536656Y-123251509D01*
X124493566Y-123269600D01*
X124440061Y-123281361D01*
X124373879Y-123285631D01*
X124313897Y-123282128D01*
X124263579Y-123272338D01*
X124221422Y-123257086D01*
X124186154Y-123236831D01*
X124154474Y-123210139D01*
X124129109Y-123179475D01*
X124109569Y-123144424D01*
X124095736Y-123104305D01*
G37*
G36*
X125511747Y-122469601D02*
G01*
X125571840Y-122477421D01*
X125611751Y-122488227D01*
X125647812Y-122506328D01*
X125678684Y-122531787D01*
X125704954Y-122565408D01*
X125724209Y-122603687D01*
X125735910Y-122645679D01*
X125739930Y-122692267D01*
X125736387Y-122736995D01*
X125726213Y-122776260D01*
X125709752Y-122811003D01*
X125686880Y-122841939D01*
X125658730Y-122867520D01*
X125623791Y-122888597D01*
X125580863Y-122905048D01*
X125528415Y-122916336D01*
X125577364Y-122949296D01*
X125615024Y-122983600D01*
X125650723Y-123028216D01*
X125707152Y-123113684D01*
X125804947Y-123270000D01*
X125611507Y-123270000D01*
X125494563Y-123095415D01*
X125436153Y-123011187D01*
X125409323Y-122977787D01*
X125385050Y-122956904D01*
X125360669Y-122944521D01*
X125331189Y-122938184D01*
X125279239Y-122935484D01*
X125246461Y-122935484D01*
X125246461Y-123270000D01*
X125084675Y-123270000D01*
X125084675Y-122807306D01*
X125246461Y-122807306D01*
X125366140Y-122807306D01*
X125471909Y-122803940D01*
X125511514Y-122797341D01*
X125537453Y-122783643D01*
X125556845Y-122762951D01*
X125568924Y-122736330D01*
X125573258Y-122701939D01*
X125570657Y-122675333D01*
X125563354Y-122653574D01*
X125551667Y-122635652D01*
X125526354Y-122615426D01*
X125490753Y-122603754D01*
X125372686Y-122600969D01*
X125246461Y-122600969D01*
X125246461Y-122807306D01*
X125084675Y-122807306D01*
X125084675Y-122466538D01*
X125425150Y-122466538D01*
X125511747Y-122469601D01*
G37*
G36*
X126219097Y-122678571D02*
G01*
X126275645Y-122694972D01*
X126325744Y-122721706D01*
X126370467Y-122759288D01*
X126407040Y-122804932D01*
X126433101Y-122855782D01*
X126449089Y-122912866D01*
X126454633Y-122977592D01*
X126449041Y-123042857D01*
X126432905Y-123100496D01*
X126406587Y-123151915D01*
X126369637Y-123198143D01*
X126324447Y-123236393D01*
X126274453Y-123263439D01*
X126218664Y-123279932D01*
X126155680Y-123285631D01*
X126103352Y-123281588D01*
X126052808Y-123269510D01*
X126003468Y-123249190D01*
X125958817Y-123220939D01*
X125922386Y-123185569D01*
X125893363Y-123142407D01*
X125873048Y-123094085D01*
X125860203Y-123037469D01*
X125856220Y-122979253D01*
X126013042Y-122979253D01*
X126018212Y-123036488D01*
X126032281Y-123080364D01*
X126054026Y-123113879D01*
X126083871Y-123140082D01*
X126117142Y-123155378D01*
X126155143Y-123160579D01*
X126193132Y-123155372D01*
X126226300Y-123140072D01*
X126255966Y-123113879D01*
X126277529Y-123080365D01*
X126291540Y-123036156D01*
X126296706Y-122978129D01*
X126291584Y-122921645D01*
X126277614Y-122878122D01*
X126255966Y-122844675D01*
X126226297Y-122818453D01*
X126193129Y-122803138D01*
X126155143Y-122797927D01*
X126117145Y-122803132D01*
X126083875Y-122818443D01*
X126054026Y-122844675D01*
X126032283Y-122878160D01*
X126018213Y-122922018D01*
X126013042Y-122979253D01*
X125856220Y-122979253D01*
X125855652Y-122970949D01*
X125859786Y-122920320D01*
X125872231Y-122870660D01*
X125893363Y-122821374D01*
X125922267Y-122776631D01*
X125957693Y-122740102D01*
X126000195Y-122710976D01*
X126047554Y-122689986D01*
X126098741Y-122677236D01*
X126154605Y-122672875D01*
X126219097Y-122678571D01*
G37*
G36*
X127081116Y-122854200D02*
G01*
X126929734Y-122882337D01*
X126922003Y-122853566D01*
X126910347Y-122831377D01*
X126895003Y-122814487D01*
X126875834Y-122802115D01*
X126852775Y-122794410D01*
X126824808Y-122791674D01*
X126788430Y-122796371D01*
X126758424Y-122809816D01*
X126733265Y-122832219D01*
X126715844Y-122861439D01*
X126703789Y-122904914D01*
X126699120Y-122967725D01*
X126703945Y-123037911D01*
X126716276Y-123085662D01*
X126733803Y-123117006D01*
X126759571Y-123141197D01*
X126790120Y-123155580D01*
X126827006Y-123160579D01*
X126855172Y-123157586D01*
X126878693Y-123149080D01*
X126898569Y-123135226D01*
X126914032Y-123116406D01*
X126927374Y-123088316D01*
X126937941Y-123048032D01*
X127088785Y-123073042D01*
X127073451Y-123124774D01*
X127053151Y-123167691D01*
X127028217Y-123203088D01*
X126998611Y-123231946D01*
X126964168Y-123254531D01*
X126923694Y-123271260D01*
X126876070Y-123281866D01*
X126819923Y-123285631D01*
X126757339Y-123280173D01*
X126703663Y-123264611D01*
X126657233Y-123239501D01*
X126616859Y-123204494D01*
X126584927Y-123162001D01*
X126561403Y-123111508D01*
X126546498Y-123051443D01*
X126541193Y-122979790D01*
X126546543Y-122907264D01*
X126561541Y-122846742D01*
X126585160Y-122796124D01*
X126617152Y-122753768D01*
X126657612Y-122718968D01*
X126704430Y-122693922D01*
X126758853Y-122678350D01*
X126822609Y-122672875D01*
X126876165Y-122676071D01*
X126921283Y-122685025D01*
X126959272Y-122699018D01*
X126991235Y-122717669D01*
X127027908Y-122751420D01*
X127057910Y-122796171D01*
X127081116Y-122854200D01*
G37*
G36*
X127350223Y-122466538D02*
G01*
X127350223Y-122760753D01*
X127390564Y-122721215D01*
X127433072Y-122694220D01*
X127478455Y-122678266D01*
X127527836Y-122672875D01*
X127578956Y-122677968D01*
X127623482Y-122692658D01*
X127661766Y-122715918D01*
X127687718Y-122743265D01*
X127705858Y-122775630D01*
X127717222Y-122811458D01*
X127722783Y-122853988D01*
X127725136Y-122927473D01*
X127725136Y-123270000D01*
X127571556Y-123270000D01*
X127571556Y-122961912D01*
X127568647Y-122878420D01*
X127562812Y-122845505D01*
X127550742Y-122823353D01*
X127531939Y-122806231D01*
X127507816Y-122795531D01*
X127476448Y-122791674D01*
X127439919Y-122796431D01*
X127408157Y-122810334D01*
X127382489Y-122833292D01*
X127364145Y-122866657D01*
X127354282Y-122908870D01*
X127350223Y-122977836D01*
X127350223Y-123270000D01*
X127196643Y-123270000D01*
X127196643Y-122466538D01*
X127350223Y-122466538D01*
G37*
G36*
X128165854Y-122678660D02*
G01*
X128219960Y-122695140D01*
X128266518Y-122721769D01*
X128306775Y-122759043D01*
X128331637Y-122793771D01*
X128351752Y-122836039D01*
X128366784Y-122887203D01*
X128376017Y-122948906D01*
X128378387Y-123023021D01*
X127993656Y-123023021D01*
X127998985Y-123067066D01*
X128011601Y-123101711D01*
X128030830Y-123128974D01*
X128056521Y-123150050D01*
X128085643Y-123162542D01*
X128119344Y-123166831D01*
X128153120Y-123161840D01*
X128180013Y-123147585D01*
X128200747Y-123123880D01*
X128217187Y-123085547D01*
X128370181Y-123110558D01*
X128345917Y-123164465D01*
X128314884Y-123207362D01*
X128276978Y-123240886D01*
X128232543Y-123265114D01*
X128180068Y-123280269D01*
X128117683Y-123285631D01*
X128056974Y-123281129D01*
X128005635Y-123268431D01*
X127962065Y-123248309D01*
X127925012Y-123220906D01*
X127893663Y-123185736D01*
X127869301Y-123144646D01*
X127851410Y-123097934D01*
X127840198Y-123044650D01*
X127836266Y-122983649D01*
X127840227Y-122929232D01*
X127996392Y-122929232D01*
X128225931Y-122929232D01*
X128220835Y-122885464D01*
X128209067Y-122852076D01*
X128191493Y-122826748D01*
X128167813Y-122807108D01*
X128141545Y-122795592D01*
X128111723Y-122791674D01*
X128079841Y-122795869D01*
X128052528Y-122808070D01*
X128028632Y-122828702D01*
X128011042Y-122855138D01*
X128000086Y-122888050D01*
X127996392Y-122929232D01*
X127840227Y-122929232D01*
X127841566Y-122910837D01*
X127856447Y-122849812D01*
X127879906Y-122798542D01*
X127911688Y-122755429D01*
X127952103Y-122719157D01*
X127996697Y-122693677D01*
X128046359Y-122678209D01*
X128102393Y-122672875D01*
X128165854Y-122678660D01*
G37*
G36*
X128769371Y-122688506D02*
G01*
X128769371Y-122810432D01*
X128664445Y-122810432D01*
X128664445Y-123046566D01*
X128667424Y-123130146D01*
X128672297Y-123140890D01*
X128681102Y-123149734D01*
X128692671Y-123155447D01*
X128707090Y-123157452D01*
X128730380Y-123154411D01*
X128768834Y-123142700D01*
X128781926Y-123262526D01*
X128745558Y-123275120D01*
X128705316Y-123282926D01*
X128660586Y-123285631D01*
X128620469Y-123281994D01*
X128585701Y-123271563D01*
X128555932Y-123254763D01*
X128536803Y-123235170D01*
X128524144Y-123210285D01*
X128515261Y-123174842D01*
X128511908Y-123141004D01*
X128510327Y-123065666D01*
X128510327Y-122810432D01*
X128439839Y-122810432D01*
X128439839Y-122688506D01*
X128510327Y-122688506D01*
X128510327Y-122575959D01*
X128664445Y-122485296D01*
X128664445Y-122688506D01*
X128769371Y-122688506D01*
G37*
G36*
X129160801Y-122678660D02*
G01*
X129214908Y-122695140D01*
X129261466Y-122721769D01*
X129301723Y-122759043D01*
X129326585Y-122793771D01*
X129346699Y-122836039D01*
X129361732Y-122887203D01*
X129370965Y-122948906D01*
X129373335Y-123023021D01*
X128988604Y-123023021D01*
X128993933Y-123067066D01*
X129006548Y-123101711D01*
X129025778Y-123128974D01*
X129051469Y-123150050D01*
X129080591Y-123162542D01*
X129114291Y-123166831D01*
X129148068Y-123161840D01*
X129174961Y-123147585D01*
X129195695Y-123123880D01*
X129212135Y-123085547D01*
X129365129Y-123110558D01*
X129340864Y-123164465D01*
X129309832Y-123207362D01*
X129271926Y-123240886D01*
X129227491Y-123265114D01*
X129175015Y-123280269D01*
X129112630Y-123285631D01*
X129051922Y-123281129D01*
X129000583Y-123268431D01*
X128957012Y-123248309D01*
X128919960Y-123220906D01*
X128888611Y-123185736D01*
X128864249Y-123144646D01*
X128846357Y-123097934D01*
X128835146Y-123044650D01*
X128831214Y-122983649D01*
X128835175Y-122929232D01*
X128991339Y-122929232D01*
X129220879Y-122929232D01*
X129215782Y-122885464D01*
X129204014Y-122852076D01*
X129186441Y-122826748D01*
X129162760Y-122807108D01*
X129136493Y-122795592D01*
X129106671Y-122791674D01*
X129074788Y-122795869D01*
X129047475Y-122808070D01*
X129023579Y-122828702D01*
X129005989Y-122855138D01*
X128995034Y-122888050D01*
X128991339Y-122929232D01*
X128835175Y-122929232D01*
X128836514Y-122910837D01*
X128851395Y-122849812D01*
X128874854Y-122798542D01*
X128906636Y-122755429D01*
X128947051Y-122719157D01*
X128991645Y-122693677D01*
X129041307Y-122678209D01*
X129097341Y-122672875D01*
X129160801Y-122678660D01*
G37*
G36*
X129793775Y-122676224D02*
G01*
X129843313Y-122684932D01*
X129877941Y-122697348D01*
X129909486Y-122716081D01*
X129932605Y-122736773D01*
X129948722Y-122759483D01*
X129958728Y-122785980D01*
X129966215Y-122829785D01*
X129969239Y-122897773D01*
X129967627Y-123078122D01*
X129969819Y-123150010D01*
X129975003Y-123191646D01*
X129985203Y-123228421D01*
X130002602Y-123270000D01*
X129850683Y-123270000D01*
X129835931Y-123225254D01*
X129830460Y-123207473D01*
X129789106Y-123242119D01*
X129746294Y-123266092D01*
X129700217Y-123280699D01*
X129650648Y-123285631D01*
X129606044Y-123282235D01*
X129568392Y-123272659D01*
X129536482Y-123257468D01*
X129509378Y-123236734D01*
X129486774Y-123210648D01*
X129470821Y-123181775D01*
X129461103Y-123149535D01*
X129457745Y-123113098D01*
X129459126Y-123096587D01*
X129611277Y-123096587D01*
X129613944Y-123117217D01*
X129621827Y-123135686D01*
X129635310Y-123152616D01*
X129652578Y-123165605D01*
X129672702Y-123173469D01*
X129696517Y-123176210D01*
X129723349Y-123173256D01*
X129749584Y-123164290D01*
X129775750Y-123148757D01*
X129799092Y-123125235D01*
X129812386Y-123097711D01*
X129816500Y-123073501D01*
X129818394Y-123022484D01*
X129818394Y-122991758D01*
X129724947Y-123015352D01*
X129666872Y-123030673D01*
X129641318Y-123042267D01*
X129624245Y-123058300D01*
X129614538Y-123076143D01*
X129611277Y-123096587D01*
X129459126Y-123096587D01*
X129460446Y-123080807D01*
X129468311Y-123051610D01*
X129481242Y-123024926D01*
X129498934Y-123001194D01*
X129520726Y-122981519D01*
X129547090Y-122965624D01*
X129594501Y-122947603D01*
X129669211Y-122929623D01*
X129768298Y-122907921D01*
X129818394Y-122891716D01*
X129818394Y-122875987D01*
X129815525Y-122846442D01*
X129807953Y-122825561D01*
X129796510Y-122811067D01*
X129780499Y-122801417D01*
X129754404Y-122794458D01*
X129714005Y-122791674D01*
X129675998Y-122796250D01*
X129650062Y-122808332D01*
X129630424Y-122829537D01*
X129612937Y-122866706D01*
X129473572Y-122841695D01*
X129494030Y-122787194D01*
X129521039Y-122745476D01*
X129554417Y-122714249D01*
X129583545Y-122697507D01*
X129620493Y-122684546D01*
X129666963Y-122676001D01*
X129724947Y-122672875D01*
X129793775Y-122676224D01*
G37*
G36*
X130502323Y-123270000D02*
G01*
X130502323Y-123183098D01*
X130479102Y-123211881D01*
X130451452Y-123236641D01*
X130418939Y-123257592D01*
X130383661Y-123273246D01*
X130347491Y-123282526D01*
X130309958Y-123285631D01*
X130271624Y-123282654D01*
X130236839Y-123273991D01*
X130204982Y-123259790D01*
X130176609Y-123240016D01*
X130154410Y-123215974D01*
X130137766Y-123187201D01*
X130127011Y-123155273D01*
X130119728Y-123113027D01*
X130117006Y-123057997D01*
X130117006Y-122688506D01*
X130270586Y-122688506D01*
X130270586Y-122956196D01*
X130273493Y-123067574D01*
X130279036Y-123106748D01*
X130291096Y-123131705D01*
X130309909Y-123150662D01*
X130334539Y-123162559D01*
X130366769Y-123166831D01*
X130404244Y-123161370D01*
X130437257Y-123145191D01*
X130463789Y-123120536D01*
X130479902Y-123091409D01*
X130487527Y-123047975D01*
X130491381Y-122934263D01*
X130491381Y-122688506D01*
X130644961Y-122688506D01*
X130644961Y-123270000D01*
X130502323Y-123270000D01*
G37*
G36*
X120891251Y-123812887D02*
G01*
X120944026Y-123818501D01*
X120988611Y-123830858D01*
X121027655Y-123851620D01*
X121061139Y-123880618D01*
X121089106Y-123918689D01*
X121102688Y-123947463D01*
X121110914Y-123978572D01*
X121113726Y-124012576D01*
X121110327Y-124049300D01*
X121100268Y-124083597D01*
X121083391Y-124116086D01*
X121060767Y-124144865D01*
X121033524Y-124168285D01*
X121001130Y-124186721D01*
X121047460Y-124204995D01*
X121084489Y-124229321D01*
X121113677Y-124259701D01*
X121135409Y-124295762D01*
X121148534Y-124335796D01*
X121153049Y-124380894D01*
X121150263Y-124416899D01*
X121141874Y-124452333D01*
X121127648Y-124487579D01*
X121108357Y-124520228D01*
X121085278Y-124547666D01*
X121058234Y-124570427D01*
X121027596Y-124587979D01*
X120991746Y-124600784D01*
X120949741Y-124608528D01*
X120895456Y-124611641D01*
X120754640Y-124614000D01*
X120481967Y-124614000D01*
X120481967Y-124479568D01*
X120643754Y-124479568D01*
X120793475Y-124479568D01*
X120873107Y-124477925D01*
X120904410Y-124474635D01*
X120937376Y-124463121D01*
X120963126Y-124442443D01*
X120975398Y-124424162D01*
X120983089Y-124401695D01*
X120985840Y-124373909D01*
X120981284Y-124339719D01*
X120968353Y-124312311D01*
X120947378Y-124290714D01*
X120917794Y-124275430D01*
X120875203Y-124267628D01*
X120774375Y-124263853D01*
X120643754Y-124263853D01*
X120643754Y-124479568D01*
X120481967Y-124479568D01*
X120481967Y-124129422D01*
X120643754Y-124129422D01*
X120749755Y-124129422D01*
X120867285Y-124126686D01*
X120905284Y-124116703D01*
X120932547Y-124098159D01*
X120945567Y-124081055D01*
X120953531Y-124060599D01*
X120956336Y-124035828D01*
X120950967Y-124001625D01*
X120935819Y-123975744D01*
X120920725Y-123962829D01*
X120900836Y-123953385D01*
X120874905Y-123947705D01*
X120736664Y-123944969D01*
X120643754Y-123944969D01*
X120643754Y-124129422D01*
X120481967Y-124129422D01*
X120481967Y-123810538D01*
X120802219Y-123810538D01*
X120891251Y-123812887D01*
G37*
G36*
X122012051Y-124614000D02*
G01*
X121836050Y-124614000D01*
X121766099Y-124432674D01*
X121445896Y-124432674D01*
X121379755Y-124614000D01*
X121208150Y-124614000D01*
X121330783Y-124298242D01*
X121495624Y-124298242D01*
X121714221Y-124298242D01*
X121603824Y-123998117D01*
X121495624Y-124298242D01*
X121330783Y-124298242D01*
X121520195Y-123810538D01*
X121691263Y-123810538D01*
X122012051Y-124614000D01*
G37*
G36*
X122582456Y-124470189D02*
G01*
X122582456Y-124614000D01*
X122044193Y-124614000D01*
X122053845Y-124561418D01*
X122071223Y-124510631D01*
X122096657Y-124461152D01*
X122129449Y-124414955D01*
X122184573Y-124352481D01*
X122269337Y-124269568D01*
X122362003Y-124179329D01*
X122396636Y-124138752D01*
X122414787Y-124106046D01*
X122425038Y-124075013D01*
X122428339Y-124045011D01*
X122424933Y-124011942D01*
X122415553Y-123986255D01*
X122400739Y-123966267D01*
X122380749Y-123951363D01*
X122355806Y-123942055D01*
X122324487Y-123938717D01*
X122293651Y-123942166D01*
X122268583Y-123951893D01*
X122247990Y-123967684D01*
X122232889Y-123988881D01*
X122221596Y-124019828D01*
X122215212Y-124063769D01*
X122062219Y-124048480D01*
X122073838Y-123985122D01*
X122092479Y-123935135D01*
X122117245Y-123896026D01*
X122147997Y-123865933D01*
X122185262Y-123842245D01*
X122227171Y-123825005D01*
X122274532Y-123814281D01*
X122328346Y-123810538D01*
X122387440Y-123814984D01*
X122437173Y-123827500D01*
X122479173Y-123847310D01*
X122514703Y-123874286D01*
X122544516Y-123908321D01*
X122565432Y-123945564D01*
X122578100Y-123986717D01*
X122582456Y-124032799D01*
X122577575Y-124085604D01*
X122563063Y-124135479D01*
X122539023Y-124183656D01*
X122501563Y-124237572D01*
X122467226Y-124275939D01*
X122401032Y-124339471D01*
X122308953Y-124427691D01*
X122277543Y-124470189D01*
X122582456Y-124470189D01*
G37*
G36*
X123024035Y-123814009D02*
G01*
X123063679Y-123823971D01*
X123098763Y-123840064D01*
X123130000Y-123862367D01*
X123156287Y-123890003D01*
X123177822Y-123923600D01*
X123194606Y-123964106D01*
X123206252Y-124012771D01*
X123057606Y-124029380D01*
X123051464Y-123999294D01*
X123041816Y-123977022D01*
X123029176Y-123960845D01*
X123012687Y-123948731D01*
X122993128Y-123941321D01*
X122969630Y-123938717D01*
X122939367Y-123943545D01*
X122912316Y-123958043D01*
X122887369Y-123983706D01*
X122870475Y-124016441D01*
X122855555Y-124074450D01*
X122845017Y-124169087D01*
X122876101Y-124138915D01*
X122909762Y-124118052D01*
X122946622Y-124105556D01*
X122987655Y-124101285D01*
X123034168Y-124105845D01*
X123076544Y-124119235D01*
X123115742Y-124141586D01*
X123152421Y-124173776D01*
X123181970Y-124211902D01*
X123203238Y-124255095D01*
X123216405Y-124304320D01*
X123221004Y-124360866D01*
X123216111Y-124420980D01*
X123202181Y-124472619D01*
X123179807Y-124517289D01*
X123148855Y-124556114D01*
X123110554Y-124588053D01*
X123067584Y-124610803D01*
X123019019Y-124624775D01*
X122963572Y-124629631D01*
X122916170Y-124625753D01*
X122873247Y-124614460D01*
X122833976Y-124595907D01*
X122797731Y-124569768D01*
X122764124Y-124535256D01*
X122738759Y-124497804D01*
X122717496Y-124450330D01*
X122700906Y-124390813D01*
X122694605Y-124348263D01*
X122858108Y-124348263D01*
X122862428Y-124396038D01*
X122874231Y-124433002D01*
X122892547Y-124461543D01*
X122917545Y-124484377D01*
X122943474Y-124497225D01*
X122971242Y-124501452D01*
X122998165Y-124497792D01*
X123021524Y-124487070D01*
X123042267Y-124468773D01*
X123056879Y-124445150D01*
X123066863Y-124410693D01*
X123070697Y-124361648D01*
X123066641Y-124311325D01*
X123055949Y-124275080D01*
X123040069Y-124249443D01*
X123017721Y-124229488D01*
X122992566Y-124217814D01*
X122963572Y-124213832D01*
X122935565Y-124217620D01*
X122910915Y-124228775D01*
X122888688Y-124247879D01*
X122872530Y-124272359D01*
X122862003Y-124305004D01*
X122858108Y-124348263D01*
X122694605Y-124348263D01*
X122689958Y-124316879D01*
X122685966Y-124225849D01*
X122690109Y-124132634D01*
X122701484Y-124056789D01*
X122718745Y-123995601D01*
X122740905Y-123946665D01*
X122767397Y-123907942D01*
X122802297Y-123872551D01*
X122840331Y-123845600D01*
X122881944Y-123826365D01*
X122927834Y-123814596D01*
X122978911Y-123810538D01*
X123024035Y-123814009D01*
G37*
G36*
X123250167Y-124835967D02*
G01*
X123250167Y-124735926D01*
X123888471Y-124735926D01*
X123888471Y-124835967D01*
X123250167Y-124835967D01*
G37*
G36*
X124110048Y-124097768D02*
G01*
X124148416Y-124061436D01*
X124188760Y-124036566D01*
X124231743Y-124021848D01*
X124278381Y-124016875D01*
X124329806Y-124021866D01*
X124375443Y-124036360D01*
X124416502Y-124060286D01*
X124453796Y-124094446D01*
X124482682Y-124134806D01*
X124504307Y-124184086D01*
X124518207Y-124244121D01*
X124523210Y-124317196D01*
X124518112Y-124392818D01*
X124503937Y-124455112D01*
X124481878Y-124506382D01*
X124452428Y-124548494D01*
X124414208Y-124584712D01*
X124373355Y-124609679D01*
X124329160Y-124624567D01*
X124280530Y-124629631D01*
X124247998Y-124626809D01*
X124215444Y-124618233D01*
X124182442Y-124603497D01*
X124152045Y-124583850D01*
X124124328Y-124559099D01*
X124099106Y-124528759D01*
X124099106Y-124614000D01*
X123956468Y-124614000D01*
X123956468Y-124312360D01*
X124108974Y-124312360D01*
X124112818Y-124373526D01*
X124122858Y-124417518D01*
X124137404Y-124448403D01*
X124159889Y-124476627D01*
X124184652Y-124495701D01*
X124212170Y-124506980D01*
X124243405Y-124510831D01*
X124275222Y-124506032D01*
X124303722Y-124491681D01*
X124330013Y-124466526D01*
X124348493Y-124434827D01*
X124361039Y-124389731D01*
X124365819Y-124326868D01*
X124360916Y-124259773D01*
X124348190Y-124212713D01*
X124329720Y-124180566D01*
X124303109Y-124155396D01*
X124272783Y-124140698D01*
X124237397Y-124135674D01*
X124202615Y-124140551D01*
X124172421Y-124154874D01*
X124145561Y-124179443D01*
X124126461Y-124210784D01*
X124113747Y-124253878D01*
X124108974Y-124312360D01*
X123956468Y-124312360D01*
X123956468Y-123810538D01*
X124110048Y-123810538D01*
X124110048Y-124097768D01*
G37*
G36*
X124793928Y-124614000D02*
G01*
X124640348Y-124614000D01*
X124640348Y-124032506D01*
X124782986Y-124032506D01*
X124782986Y-124115011D01*
X124820668Y-124062807D01*
X124848834Y-124036707D01*
X124879858Y-124021894D01*
X124915219Y-124016875D01*
X124949434Y-124020024D01*
X124982974Y-124029534D01*
X125016336Y-124045793D01*
X124968806Y-124179540D01*
X124929855Y-124160190D01*
X124896657Y-124154432D01*
X124866470Y-124159047D01*
X124841995Y-124172360D01*
X124823257Y-124195235D01*
X124806775Y-124237084D01*
X124798082Y-124296568D01*
X124793928Y-124433260D01*
X124793928Y-124614000D01*
G37*
G36*
X125610188Y-124614000D02*
G01*
X125456608Y-124614000D01*
X125456608Y-124316365D01*
X125453377Y-124230111D01*
X125446741Y-124194195D01*
X125433668Y-124169301D01*
X125414794Y-124151062D01*
X125390893Y-124139663D01*
X125361500Y-124135674D01*
X125323533Y-124141215D01*
X125289937Y-124157656D01*
X125263185Y-124183209D01*
X125246461Y-124215835D01*
X125238405Y-124259730D01*
X125234738Y-124349826D01*
X125234738Y-124614000D01*
X125081158Y-124614000D01*
X125081158Y-124032506D01*
X125223796Y-124032506D01*
X125223796Y-124117747D01*
X125256985Y-124080256D01*
X125292252Y-124052279D01*
X125329924Y-124032691D01*
X125370594Y-124020897D01*
X125415087Y-124016875D01*
X125464280Y-124021594D01*
X125507948Y-124035290D01*
X125545930Y-124057006D01*
X125571646Y-124082332D01*
X125589880Y-124112681D01*
X125601688Y-124147203D01*
X125607726Y-124187404D01*
X125610188Y-124251103D01*
X125610188Y-124614000D01*
G37*
G36*
X126294068Y-124614000D02*
G01*
X126140488Y-124614000D01*
X126140488Y-124316365D01*
X126137257Y-124230111D01*
X126130621Y-124194195D01*
X126117548Y-124169301D01*
X126098674Y-124151062D01*
X126074773Y-124139663D01*
X126045380Y-124135674D01*
X126007413Y-124141215D01*
X125973817Y-124157656D01*
X125947065Y-124183209D01*
X125930341Y-124215835D01*
X125922285Y-124259730D01*
X125918618Y-124349826D01*
X125918618Y-124614000D01*
X125765038Y-124614000D01*
X125765038Y-124032506D01*
X125907676Y-124032506D01*
X125907676Y-124117747D01*
X125940865Y-124080256D01*
X125976132Y-124052279D01*
X126013804Y-124032691D01*
X126054474Y-124020897D01*
X126098967Y-124016875D01*
X126148160Y-124021594D01*
X126191828Y-124035290D01*
X126229810Y-124057006D01*
X126255526Y-124082332D01*
X126273760Y-124112681D01*
X126285568Y-124147203D01*
X126291606Y-124187404D01*
X126294068Y-124251103D01*
X126294068Y-124614000D01*
G37*
G36*
X126359281Y-124835967D02*
G01*
X126359281Y-124735926D01*
X126997585Y-124735926D01*
X126997585Y-124835967D01*
X126359281Y-124835967D01*
G37*
G36*
X127557976Y-124470189D02*
G01*
X127557976Y-124614000D01*
X127019713Y-124614000D01*
X127029365Y-124561418D01*
X127046743Y-124510631D01*
X127072177Y-124461152D01*
X127104969Y-124414955D01*
X127160093Y-124352481D01*
X127244856Y-124269568D01*
X127337523Y-124179329D01*
X127372156Y-124138752D01*
X127390306Y-124106046D01*
X127400558Y-124075013D01*
X127403859Y-124045011D01*
X127400453Y-124011942D01*
X127391073Y-123986255D01*
X127376259Y-123966267D01*
X127356269Y-123951363D01*
X127331326Y-123942055D01*
X127300006Y-123938717D01*
X127269171Y-123942166D01*
X127244103Y-123951893D01*
X127223510Y-123967684D01*
X127208409Y-123988881D01*
X127197116Y-124019828D01*
X127190732Y-124063769D01*
X127037739Y-124048480D01*
X127049358Y-123985122D01*
X127067999Y-123935135D01*
X127092765Y-123896026D01*
X127123517Y-123865933D01*
X127160782Y-123842245D01*
X127202691Y-123825005D01*
X127250052Y-123814281D01*
X127303866Y-123810538D01*
X127362960Y-123814984D01*
X127412693Y-123827500D01*
X127454693Y-123847310D01*
X127490223Y-123874286D01*
X127520036Y-123908321D01*
X127540952Y-123945564D01*
X127553620Y-123986717D01*
X127557976Y-124032799D01*
X127553095Y-124085604D01*
X127538583Y-124135479D01*
X127514543Y-124183656D01*
X127477083Y-124237572D01*
X127442746Y-124275939D01*
X127376552Y-124339471D01*
X127284473Y-124427691D01*
X127253063Y-124470189D01*
X127557976Y-124470189D01*
G37*
G36*
X128111284Y-124317000D02*
G01*
X128210739Y-124317000D01*
X128210739Y-124451431D01*
X128111284Y-124451431D01*
X128111284Y-124614000D01*
X127962637Y-124614000D01*
X127962637Y-124451431D01*
X127634717Y-124451431D01*
X127634717Y-124317538D01*
X127635086Y-124317000D01*
X127778429Y-124317000D01*
X127962637Y-124317000D01*
X127962637Y-124048235D01*
X127778429Y-124317000D01*
X127635086Y-124317000D01*
X127982274Y-123810538D01*
X128111284Y-123810538D01*
X128111284Y-124317000D01*
G37*
G36*
X128676559Y-124614000D02*
G01*
X128522979Y-124614000D01*
X128522979Y-124036903D01*
X128463823Y-124085080D01*
X128397965Y-124124182D01*
X128324605Y-124154432D01*
X128324605Y-124013748D01*
X128363331Y-123997906D01*
X128406625Y-123973529D01*
X128455226Y-123939010D01*
X128498258Y-123899213D01*
X128530084Y-123856548D01*
X128551946Y-123810538D01*
X128676559Y-123810538D01*
X128676559Y-124614000D01*
G37*
D11*
G36*
X122038045Y-112635209D02*
G01*
X122038045Y-111831747D01*
X122632093Y-111831747D01*
X122632093Y-111966178D01*
X122199783Y-111966178D01*
X122199783Y-112144378D01*
X122602002Y-112144378D01*
X122602002Y-112278809D01*
X122199783Y-112278809D01*
X122199783Y-112500777D01*
X122647382Y-112500777D01*
X122647382Y-112635209D01*
X122038045Y-112635209D01*
G37*
G36*
X122743467Y-112378851D02*
G01*
X122900857Y-112363220D01*
X122914581Y-112412885D01*
X122933984Y-112449937D01*
X122958499Y-112476988D01*
X122989392Y-112496485D01*
X123027806Y-112508835D01*
X123075735Y-112513282D01*
X123126962Y-112509069D01*
X123165224Y-112497779D01*
X123193509Y-112480700D01*
X123216145Y-112456882D01*
X123228907Y-112431789D01*
X123233125Y-112404497D01*
X123228872Y-112378342D01*
X123216468Y-112356869D01*
X123195632Y-112339731D01*
X123158240Y-112322675D01*
X123028743Y-112287114D01*
X122942703Y-112260707D01*
X122884092Y-112233745D01*
X122846196Y-112206953D01*
X122813425Y-112171142D01*
X122790700Y-112132634D01*
X122777081Y-112090753D01*
X122772434Y-112044483D01*
X122776265Y-112004387D01*
X122787711Y-111966162D01*
X122807117Y-111929151D01*
X122833240Y-111896612D01*
X122866255Y-111869413D01*
X122907159Y-111847330D01*
X122951572Y-111832269D01*
X123003677Y-111822659D01*
X123064793Y-111819242D01*
X123141286Y-111824154D01*
X123202937Y-111837666D01*
X123252412Y-111858411D01*
X123291890Y-111885725D01*
X123325273Y-111921436D01*
X123349544Y-111962211D01*
X123365202Y-112008979D01*
X123371953Y-112063094D01*
X123210166Y-112069347D01*
X123199741Y-112029821D01*
X123184716Y-112001061D01*
X123165617Y-111980687D01*
X123141313Y-111966596D01*
X123108068Y-111957199D01*
X123063181Y-111953673D01*
X123016923Y-111957344D01*
X122980831Y-111967355D01*
X122952783Y-111982738D01*
X122938379Y-111996720D01*
X122929976Y-112013053D01*
X122927089Y-112032564D01*
X122932944Y-112058715D01*
X122951123Y-112081363D01*
X122974142Y-112095507D01*
X123019876Y-112113364D01*
X123099769Y-112135439D01*
X123209493Y-112166542D01*
X123274354Y-112193617D01*
X123309678Y-112216188D01*
X123338986Y-112243264D01*
X123362867Y-112275146D01*
X123380142Y-112310947D01*
X123391012Y-112353092D01*
X123394863Y-112402934D01*
X123390637Y-112447794D01*
X123378010Y-112490607D01*
X123356615Y-112532089D01*
X123327817Y-112568551D01*
X123292065Y-112598250D01*
X123248415Y-112621580D01*
X123200872Y-112637124D01*
X123143367Y-112647207D01*
X123074074Y-112650840D01*
X122997393Y-112645807D01*
X122934450Y-112631841D01*
X122882872Y-112610179D01*
X122840725Y-112581377D01*
X122805235Y-112544119D01*
X122777123Y-112498922D01*
X122756334Y-112444438D01*
X122743467Y-112378851D01*
G37*
G36*
X123925359Y-111835674D02*
G01*
X123982804Y-111843813D01*
X124025917Y-111860420D01*
X124064111Y-111886316D01*
X124098136Y-111922459D01*
X124123218Y-111965057D01*
X124138976Y-112016452D01*
X124144591Y-112078823D01*
X124141334Y-112127552D01*
X124132191Y-112168587D01*
X124117822Y-112203192D01*
X124097881Y-112235053D01*
X124075226Y-112261239D01*
X124049776Y-112282375D01*
X124007416Y-112306609D01*
X123965854Y-112320428D01*
X123901430Y-112328605D01*
X123798059Y-112331957D01*
X123692595Y-112331957D01*
X123692595Y-112635209D01*
X123530857Y-112635209D01*
X123530857Y-112197525D01*
X123692595Y-112197525D01*
X123781109Y-112197525D01*
X123868860Y-112193450D01*
X123908994Y-112184727D01*
X123937930Y-112168186D01*
X123959552Y-112144720D01*
X123973181Y-112115620D01*
X123977871Y-112081315D01*
X123974849Y-112052625D01*
X123966233Y-112028475D01*
X123952176Y-112007895D01*
X123933563Y-111991048D01*
X123912081Y-111979069D01*
X123887159Y-111971747D01*
X123850953Y-111967960D01*
X123770753Y-111966178D01*
X123692595Y-111966178D01*
X123692595Y-112197525D01*
X123530857Y-112197525D01*
X123530857Y-111831747D01*
X123790439Y-111831747D01*
X123925359Y-111835674D01*
G37*
G36*
X124245561Y-112432194D02*
G01*
X124398603Y-112416367D01*
X124406157Y-112449565D01*
X124419131Y-112476605D01*
X124437389Y-112498628D01*
X124460303Y-112515637D01*
X124484842Y-112525570D01*
X124511737Y-112528914D01*
X124541942Y-112524520D01*
X124568720Y-112511471D01*
X124593118Y-112488809D01*
X124610561Y-112460087D01*
X124622143Y-112420829D01*
X124626482Y-112367811D01*
X124622217Y-112318285D01*
X124610780Y-112281397D01*
X124593411Y-112254190D01*
X124569209Y-112233168D01*
X124540952Y-112220630D01*
X124507340Y-112216283D01*
X124475876Y-112219820D01*
X124446033Y-112230434D01*
X124417135Y-112248659D01*
X124388736Y-112275683D01*
X124264123Y-112257365D01*
X124342818Y-111841126D01*
X124748896Y-111841126D01*
X124748896Y-111984936D01*
X124459224Y-111984936D01*
X124435191Y-112119758D01*
X124470143Y-112105500D01*
X124504990Y-112097128D01*
X124540118Y-112094357D01*
X124589645Y-112099135D01*
X124634379Y-112113104D01*
X124675369Y-112136311D01*
X124713335Y-112169584D01*
X124743910Y-112209158D01*
X124765955Y-112254147D01*
X124779627Y-112305582D01*
X124784409Y-112364832D01*
X124780739Y-112414098D01*
X124769956Y-112459897D01*
X124752139Y-112502866D01*
X124727012Y-112543520D01*
X124693005Y-112582458D01*
X124654993Y-112612075D01*
X124612468Y-112633265D01*
X124564555Y-112646308D01*
X124510076Y-112650840D01*
X124454941Y-112646801D01*
X124407177Y-112635292D01*
X124365577Y-112616869D01*
X124329190Y-112591587D01*
X124298013Y-112559736D01*
X124273827Y-112523072D01*
X124256292Y-112480894D01*
X124245561Y-112432194D01*
G37*
G36*
X125103781Y-112635209D02*
G01*
X124817431Y-111831747D01*
X124992846Y-111831747D01*
X125195617Y-112425746D01*
X125391792Y-111831747D01*
X125563397Y-111831747D01*
X125276461Y-112635209D01*
X125103781Y-112635209D01*
G37*
G36*
X126004842Y-112635209D02*
G01*
X125851262Y-112635209D01*
X125851262Y-112058112D01*
X125792106Y-112106289D01*
X125726248Y-112145391D01*
X125652888Y-112175641D01*
X125652888Y-112034957D01*
X125691613Y-112019115D01*
X125734907Y-111994738D01*
X125783509Y-111960219D01*
X125826541Y-111920422D01*
X125858367Y-111877757D01*
X125880229Y-111831747D01*
X126004842Y-111831747D01*
X126004842Y-112635209D01*
G37*
D12*
G36*
X123790212Y-113193538D02*
G01*
X123951950Y-113193538D01*
X123951950Y-113632638D01*
X123953914Y-113728131D01*
X123957958Y-113768144D01*
X123968206Y-113799429D01*
X123984565Y-113825800D01*
X124007393Y-113848060D01*
X124034998Y-113864115D01*
X124069979Y-113874443D01*
X124114274Y-113878200D01*
X124159404Y-113874516D01*
X124193132Y-113864644D01*
X124218077Y-113849721D01*
X124238578Y-113828929D01*
X124252391Y-113805801D01*
X124260136Y-113779770D01*
X124265105Y-113731437D01*
X124267268Y-113642066D01*
X124267268Y-113193538D01*
X124429054Y-113193538D01*
X124429054Y-113616567D01*
X124425033Y-113750972D01*
X124415914Y-113821487D01*
X124404417Y-113860107D01*
X124388270Y-113893564D01*
X124367554Y-113922554D01*
X124342156Y-113947545D01*
X124311005Y-113969441D01*
X124273276Y-113988207D01*
X124233151Y-114001021D01*
X124182516Y-114009515D01*
X124119208Y-114012631D01*
X124042330Y-114009036D01*
X123985742Y-113999600D01*
X123945111Y-113986009D01*
X123907327Y-113965809D01*
X123876382Y-113942730D01*
X123851420Y-113916790D01*
X123822484Y-113872433D01*
X123806039Y-113827495D01*
X123794843Y-113750044D01*
X123790212Y-113623113D01*
X123790212Y-113193538D01*
G37*
G36*
X125015335Y-113700000D02*
G01*
X125114790Y-113700000D01*
X125114790Y-113834431D01*
X125015335Y-113834431D01*
X125015335Y-113997000D01*
X124866688Y-113997000D01*
X124866688Y-113834431D01*
X124538768Y-113834431D01*
X124538768Y-113700538D01*
X124539137Y-113700000D01*
X124682480Y-113700000D01*
X124866688Y-113700000D01*
X124866688Y-113431235D01*
X124682480Y-113700000D01*
X124539137Y-113700000D01*
X124886325Y-113193538D01*
X125015335Y-113193538D01*
X125015335Y-113700000D01*
G37*
G36*
X118703461Y-119230206D02*
G01*
X118763554Y-119238026D01*
X118803465Y-119248832D01*
X118839526Y-119266933D01*
X118870398Y-119292392D01*
X118896669Y-119326013D01*
X118915923Y-119364292D01*
X118927624Y-119406284D01*
X118931644Y-119452872D01*
X118928101Y-119497600D01*
X118917928Y-119536865D01*
X118901467Y-119571608D01*
X118878595Y-119602544D01*
X118850445Y-119628125D01*
X118815505Y-119649202D01*
X118772578Y-119665653D01*
X118720130Y-119676941D01*
X118769078Y-119709901D01*
X118806738Y-119744205D01*
X118842438Y-119788821D01*
X118898867Y-119874289D01*
X118996662Y-120030605D01*
X118803221Y-120030605D01*
X118686278Y-119856020D01*
X118627867Y-119771792D01*
X118601037Y-119738392D01*
X118576764Y-119717509D01*
X118552384Y-119705126D01*
X118522903Y-119698789D01*
X118470953Y-119696089D01*
X118438176Y-119696089D01*
X118438176Y-120030605D01*
X118276389Y-120030605D01*
X118276389Y-119567911D01*
X118438176Y-119567911D01*
X118557855Y-119567911D01*
X118663623Y-119564545D01*
X118703228Y-119557946D01*
X118729167Y-119544248D01*
X118748560Y-119523556D01*
X118760639Y-119496935D01*
X118764973Y-119462544D01*
X118762371Y-119435938D01*
X118755069Y-119414179D01*
X118743382Y-119396257D01*
X118718068Y-119376031D01*
X118682468Y-119364359D01*
X118564401Y-119361574D01*
X118438176Y-119361574D01*
X118438176Y-119567911D01*
X118276389Y-119567911D01*
X118276389Y-119227143D01*
X118616864Y-119227143D01*
X118703461Y-119230206D01*
G37*
G36*
X119342594Y-119231027D02*
G01*
X119385700Y-119242331D01*
X119425081Y-119260886D01*
X119461371Y-119287008D01*
X119494966Y-119321470D01*
X119520305Y-119358888D01*
X119541563Y-119406405D01*
X119558162Y-119466066D01*
X119569124Y-119540279D01*
X119573124Y-119631756D01*
X119568985Y-119724647D01*
X119557618Y-119800277D01*
X119540364Y-119861338D01*
X119518201Y-119910215D01*
X119491693Y-119948930D01*
X119456807Y-119984254D01*
X119418733Y-120011174D01*
X119377020Y-120030402D01*
X119330962Y-120042174D01*
X119279641Y-120046236D01*
X119232926Y-120042768D01*
X119192718Y-120032911D01*
X119157933Y-120017165D01*
X119127722Y-119995580D01*
X119102473Y-119968576D01*
X119081545Y-119935117D01*
X119065022Y-119894099D01*
X119053375Y-119844101D01*
X119202021Y-119827394D01*
X119208147Y-119857282D01*
X119217789Y-119879543D01*
X119230451Y-119895831D01*
X119246970Y-119907951D01*
X119266876Y-119915417D01*
X119291121Y-119918057D01*
X119320635Y-119913264D01*
X119347222Y-119898805D01*
X119371965Y-119873068D01*
X119388788Y-119840366D01*
X119403778Y-119782514D01*
X119414610Y-119688274D01*
X119383317Y-119718077D01*
X119349235Y-119738777D01*
X119311718Y-119751224D01*
X119269774Y-119755489D01*
X119224121Y-119750974D01*
X119182289Y-119737683D01*
X119143349Y-119715429D01*
X119106669Y-119683291D01*
X119077174Y-119645293D01*
X119055903Y-119602031D01*
X119042704Y-119552501D01*
X119038128Y-119495908D01*
X119188930Y-119495908D01*
X119192969Y-119545760D01*
X119203635Y-119581788D01*
X119219509Y-119607380D01*
X119241883Y-119627307D01*
X119267056Y-119638966D01*
X119296054Y-119642942D01*
X119324041Y-119639135D01*
X119348588Y-119627932D01*
X119370646Y-119608748D01*
X119386679Y-119584141D01*
X119397121Y-119551433D01*
X119400981Y-119508218D01*
X119396706Y-119460891D01*
X119384998Y-119424057D01*
X119366787Y-119395427D01*
X119341946Y-119372518D01*
X119315942Y-119359590D01*
X119287848Y-119355322D01*
X119260917Y-119359007D01*
X119237646Y-119369794D01*
X119217066Y-119388197D01*
X119202621Y-119411919D01*
X119192731Y-119446562D01*
X119188930Y-119495908D01*
X119038128Y-119495908D01*
X119038085Y-119495371D01*
X119042972Y-119435858D01*
X119056913Y-119384527D01*
X119079357Y-119339920D01*
X119110479Y-119300953D01*
X119148949Y-119268812D01*
X119191862Y-119245979D01*
X119240107Y-119231993D01*
X119294931Y-119227143D01*
X119342594Y-119231027D01*
G37*
G36*
X122293896Y-121061601D02*
G01*
X122353989Y-121069421D01*
X122393900Y-121080227D01*
X122429961Y-121098328D01*
X122460833Y-121123787D01*
X122487104Y-121157408D01*
X122506358Y-121195687D01*
X122518059Y-121237679D01*
X122522079Y-121284267D01*
X122518536Y-121328995D01*
X122508363Y-121368260D01*
X122491902Y-121403003D01*
X122469030Y-121433939D01*
X122440880Y-121459520D01*
X122405940Y-121480597D01*
X122363013Y-121497048D01*
X122310565Y-121508336D01*
X122359513Y-121541296D01*
X122397173Y-121575600D01*
X122432873Y-121620216D01*
X122489302Y-121705684D01*
X122587097Y-121862000D01*
X122393656Y-121862000D01*
X122276713Y-121687415D01*
X122218302Y-121603187D01*
X122191472Y-121569787D01*
X122167199Y-121548904D01*
X122142819Y-121536521D01*
X122113338Y-121530184D01*
X122061388Y-121527484D01*
X122028611Y-121527484D01*
X122028611Y-121862000D01*
X121866824Y-121862000D01*
X121866824Y-121399306D01*
X122028611Y-121399306D01*
X122148290Y-121399306D01*
X122254058Y-121395940D01*
X122293663Y-121389341D01*
X122319602Y-121375643D01*
X122338995Y-121354951D01*
X122351074Y-121328330D01*
X122355408Y-121293939D01*
X122352806Y-121267333D01*
X122345504Y-121245574D01*
X122333817Y-121227652D01*
X122308503Y-121207426D01*
X122272903Y-121195754D01*
X122154836Y-121192969D01*
X122028611Y-121192969D01*
X122028611Y-121399306D01*
X121866824Y-121399306D01*
X121866824Y-121058538D01*
X122207299Y-121058538D01*
X122293896Y-121061601D01*
G37*
G36*
X122956241Y-121062683D02*
G01*
X123003784Y-121074282D01*
X123043402Y-121092502D01*
X123076413Y-121117108D01*
X123104084Y-121148405D01*
X123123573Y-121183037D01*
X123135430Y-121221701D01*
X123139525Y-121265412D01*
X123136216Y-121301718D01*
X123126553Y-121334584D01*
X123110558Y-121364721D01*
X123088938Y-121391129D01*
X123062035Y-121413228D01*
X123029127Y-121431204D01*
X123071067Y-121452441D01*
X123104457Y-121478456D01*
X123130488Y-121509362D01*
X123149597Y-121544963D01*
X123161187Y-121584179D01*
X123165171Y-121627917D01*
X123160462Y-121682381D01*
X123146955Y-121729785D01*
X123125044Y-121771432D01*
X123094389Y-121808266D01*
X123057064Y-121838000D01*
X123014038Y-121859512D01*
X122964215Y-121872919D01*
X122906127Y-121877631D01*
X122851853Y-121873762D01*
X122804086Y-121862671D01*
X122761798Y-121844817D01*
X122724166Y-121820234D01*
X122686705Y-121783300D01*
X122660270Y-121740858D01*
X122644054Y-121691811D01*
X122638388Y-121634463D01*
X122639609Y-121620199D01*
X122789769Y-121620199D01*
X122793776Y-121661613D01*
X122804837Y-121694202D01*
X122822254Y-121719899D01*
X122845873Y-121739879D01*
X122872579Y-121751667D01*
X122903440Y-121755705D01*
X122933602Y-121751796D01*
X122959458Y-121740436D01*
X122982086Y-121721267D01*
X122998649Y-121696494D01*
X123009331Y-121664085D01*
X123013251Y-121621811D01*
X123009455Y-121585225D01*
X122998767Y-121555320D01*
X122981549Y-121530660D01*
X122958538Y-121511529D01*
X122932136Y-121500147D01*
X122901242Y-121496221D01*
X122865742Y-121500903D01*
X122838458Y-121513962D01*
X122817369Y-121535349D01*
X122801903Y-121562443D01*
X122792812Y-121590542D01*
X122789769Y-121620199D01*
X122639609Y-121620199D01*
X122642022Y-121592005D01*
X122652746Y-121552427D01*
X122670628Y-121515077D01*
X122695477Y-121482398D01*
X122728863Y-121454486D01*
X122772281Y-121431204D01*
X122734849Y-121411456D01*
X122706461Y-121388393D01*
X122685673Y-121361986D01*
X122670636Y-121331666D01*
X122661650Y-121299656D01*
X122659599Y-121276549D01*
X122803935Y-121276549D01*
X122807089Y-121306241D01*
X122815861Y-121329764D01*
X122829874Y-121348503D01*
X122848630Y-121362570D01*
X122871314Y-121371230D01*
X122899044Y-121374295D01*
X122927119Y-121371193D01*
X122950056Y-121362433D01*
X122968995Y-121348210D01*
X122983187Y-121329299D01*
X122992049Y-121305686D01*
X122995226Y-121276012D01*
X122992139Y-121248163D01*
X122983415Y-121225384D01*
X122969239Y-121206549D01*
X122950502Y-121192287D01*
X122928002Y-121183547D01*
X122900656Y-121180464D01*
X122872241Y-121183609D01*
X122849139Y-121192473D01*
X122830167Y-121206842D01*
X122815839Y-121225845D01*
X122807042Y-121248712D01*
X122803935Y-121276549D01*
X122659599Y-121276549D01*
X122658611Y-121265412D01*
X122662677Y-121221670D01*
X122674446Y-121182993D01*
X122693774Y-121148372D01*
X122721186Y-121117108D01*
X122753930Y-121092564D01*
X122793509Y-121074342D01*
X122841309Y-121062707D01*
X122899092Y-121058538D01*
X122956241Y-121062683D01*
G37*
G36*
X126832771Y-113482000D02*
G01*
X126832771Y-112687917D01*
X126994557Y-112687917D01*
X126994557Y-113347568D01*
X127396776Y-113347568D01*
X127396776Y-113482000D01*
X126832771Y-113482000D01*
G37*
G36*
X127871340Y-113482000D02*
G01*
X127717760Y-113482000D01*
X127717760Y-112904903D01*
X127658604Y-112953080D01*
X127592746Y-112992182D01*
X127519386Y-113022432D01*
X127519386Y-112881748D01*
X127558112Y-112865906D01*
X127601405Y-112841529D01*
X127650007Y-112807010D01*
X127693039Y-112767213D01*
X127724865Y-112724548D01*
X127746727Y-112678538D01*
X127871340Y-112678538D01*
X127871340Y-113482000D01*
G37*
G36*
X131549881Y-119532000D02*
G01*
X131549881Y-118728538D01*
X132143929Y-118728538D01*
X132143929Y-118862969D01*
X131711619Y-118862969D01*
X131711619Y-119041169D01*
X132113838Y-119041169D01*
X132113838Y-119175600D01*
X131711619Y-119175600D01*
X131711619Y-119397568D01*
X132159218Y-119397568D01*
X132159218Y-119532000D01*
X131549881Y-119532000D01*
G37*
G36*
X132255303Y-119275642D02*
G01*
X132412693Y-119260011D01*
X132426417Y-119309676D01*
X132445820Y-119346728D01*
X132470335Y-119373779D01*
X132501228Y-119393276D01*
X132539642Y-119405626D01*
X132587571Y-119410073D01*
X132638798Y-119405860D01*
X132677060Y-119394570D01*
X132705345Y-119377491D01*
X132727981Y-119353673D01*
X132740743Y-119328580D01*
X132744961Y-119301288D01*
X132740708Y-119275133D01*
X132728304Y-119253660D01*
X132707468Y-119236522D01*
X132670076Y-119219466D01*
X132540579Y-119183905D01*
X132454539Y-119157498D01*
X132395928Y-119130536D01*
X132358032Y-119103744D01*
X132325261Y-119067933D01*
X132302536Y-119029425D01*
X132288917Y-118987544D01*
X132284270Y-118941274D01*
X132288101Y-118901178D01*
X132299547Y-118862953D01*
X132318953Y-118825942D01*
X132345076Y-118793403D01*
X132378091Y-118766204D01*
X132418995Y-118744121D01*
X132463408Y-118729060D01*
X132515513Y-118719450D01*
X132576629Y-118716033D01*
X132653122Y-118720945D01*
X132714773Y-118734457D01*
X132764248Y-118755202D01*
X132803726Y-118782516D01*
X132837109Y-118818227D01*
X132861380Y-118859002D01*
X132877038Y-118905770D01*
X132883789Y-118959885D01*
X132722002Y-118966138D01*
X132711577Y-118926612D01*
X132696552Y-118897852D01*
X132677453Y-118877478D01*
X132653149Y-118863387D01*
X132619904Y-118853990D01*
X132575017Y-118850464D01*
X132528759Y-118854135D01*
X132492667Y-118864146D01*
X132464619Y-118879529D01*
X132450215Y-118893511D01*
X132441812Y-118909844D01*
X132438925Y-118929355D01*
X132444780Y-118955506D01*
X132462959Y-118978154D01*
X132485978Y-118992298D01*
X132531712Y-119010155D01*
X132611605Y-119032230D01*
X132721329Y-119063333D01*
X132786190Y-119090408D01*
X132821514Y-119112979D01*
X132850822Y-119140055D01*
X132874703Y-119171937D01*
X132891978Y-119207738D01*
X132902848Y-119249883D01*
X132906699Y-119299725D01*
X132902473Y-119344585D01*
X132889846Y-119387398D01*
X132868451Y-119428880D01*
X132839653Y-119465342D01*
X132803901Y-119495041D01*
X132760251Y-119518371D01*
X132712708Y-119533915D01*
X132655203Y-119543998D01*
X132585910Y-119547631D01*
X132509229Y-119542598D01*
X132446286Y-119528632D01*
X132394708Y-119506970D01*
X132352561Y-119478168D01*
X132317071Y-119440910D01*
X132288959Y-119395713D01*
X132268170Y-119341229D01*
X132255303Y-119275642D01*
G37*
G36*
X133437195Y-118732465D02*
G01*
X133494640Y-118740604D01*
X133537753Y-118757211D01*
X133575947Y-118783107D01*
X133609972Y-118819250D01*
X133635054Y-118861848D01*
X133650812Y-118913243D01*
X133656427Y-118975614D01*
X133653170Y-119024343D01*
X133644027Y-119065378D01*
X133629658Y-119099983D01*
X133609717Y-119131844D01*
X133587062Y-119158030D01*
X133561612Y-119179166D01*
X133519252Y-119203400D01*
X133477690Y-119217219D01*
X133413266Y-119225396D01*
X133309895Y-119228748D01*
X133204431Y-119228748D01*
X133204431Y-119532000D01*
X133042693Y-119532000D01*
X133042693Y-119094316D01*
X133204431Y-119094316D01*
X133292945Y-119094316D01*
X133380696Y-119090241D01*
X133420830Y-119081518D01*
X133449766Y-119064977D01*
X133471388Y-119041511D01*
X133485017Y-119012411D01*
X133489707Y-118978106D01*
X133486685Y-118949416D01*
X133478069Y-118925266D01*
X133464012Y-118904686D01*
X133445399Y-118887839D01*
X133423917Y-118875860D01*
X133398995Y-118868538D01*
X133362789Y-118864751D01*
X133282589Y-118862969D01*
X133204431Y-118862969D01*
X133204431Y-119094316D01*
X133042693Y-119094316D01*
X133042693Y-118728538D01*
X133302275Y-118728538D01*
X133437195Y-118732465D01*
G37*
G36*
X133749728Y-119316333D02*
G01*
X133898374Y-119297526D01*
X133906344Y-119335786D01*
X133919261Y-119365416D01*
X133936622Y-119388140D01*
X133958983Y-119405612D01*
X133983833Y-119415931D01*
X134012044Y-119419452D01*
X134042172Y-119415417D01*
X134068520Y-119403571D01*
X134092107Y-119383353D01*
X134109673Y-119357490D01*
X134120693Y-119325558D01*
X134124640Y-119285900D01*
X134120859Y-119248392D01*
X134110306Y-119218264D01*
X134093475Y-119193919D01*
X134070942Y-119174891D01*
X134045935Y-119163755D01*
X134017515Y-119159969D01*
X133986846Y-119162567D01*
X133947027Y-119171448D01*
X133963977Y-119047422D01*
X134004603Y-119044775D01*
X134035539Y-119035496D01*
X134059037Y-119020555D01*
X134077161Y-118999630D01*
X134088057Y-118974768D01*
X134091863Y-118944742D01*
X134088995Y-118918938D01*
X134080907Y-118897932D01*
X134067781Y-118880653D01*
X134050430Y-118867591D01*
X134029475Y-118859558D01*
X134003887Y-118856717D01*
X133978734Y-118859775D01*
X133956566Y-118868725D01*
X133936622Y-118883828D01*
X133921139Y-118903565D01*
X133909708Y-118929437D01*
X133902770Y-118963011D01*
X133761207Y-118939173D01*
X133773531Y-118891103D01*
X133788533Y-118852672D01*
X133805757Y-118822327D01*
X133827853Y-118795634D01*
X133855299Y-118772770D01*
X133888799Y-118753598D01*
X133925092Y-118739869D01*
X133964708Y-118731440D01*
X134008234Y-118728538D01*
X134063810Y-118733377D01*
X134111694Y-118747201D01*
X134153318Y-118769546D01*
X134189707Y-118800736D01*
X134214888Y-118832066D01*
X134232243Y-118864420D01*
X134242523Y-118898254D01*
X134245980Y-118934191D01*
X134241582Y-118973775D01*
X134228632Y-119009627D01*
X134206788Y-119042731D01*
X134174806Y-119073680D01*
X134130649Y-119102621D01*
X134174110Y-119116839D01*
X134210427Y-119138819D01*
X134240753Y-119168859D01*
X134263457Y-119205039D01*
X134277251Y-119246019D01*
X134282030Y-119293081D01*
X134277141Y-119344322D01*
X134262830Y-119390772D01*
X134239042Y-119433483D01*
X134204947Y-119473186D01*
X134164243Y-119505646D01*
X134119332Y-119528689D01*
X134069363Y-119542767D01*
X134013168Y-119547631D01*
X133959498Y-119543373D01*
X133912233Y-119531129D01*
X133870271Y-119511290D01*
X133832770Y-119483688D01*
X133800939Y-119449487D01*
X133776654Y-119410708D01*
X133759537Y-119366656D01*
X133749728Y-119316333D01*
G37*
G36*
X134410160Y-119532000D02*
G01*
X134410160Y-119378810D01*
X134563691Y-119378810D01*
X134563691Y-119532000D01*
X134410160Y-119532000D01*
G37*
G36*
X134682931Y-119316333D02*
G01*
X134831577Y-119297526D01*
X134839548Y-119335786D01*
X134852464Y-119365416D01*
X134869825Y-119388140D01*
X134892186Y-119405612D01*
X134917036Y-119415931D01*
X134945247Y-119419452D01*
X134975376Y-119415417D01*
X135001723Y-119403571D01*
X135025310Y-119383353D01*
X135042876Y-119357490D01*
X135053896Y-119325558D01*
X135057843Y-119285900D01*
X135054062Y-119248392D01*
X135043509Y-119218264D01*
X135026678Y-119193919D01*
X135004145Y-119174891D01*
X134979138Y-119163755D01*
X134950718Y-119159969D01*
X134920049Y-119162567D01*
X134880230Y-119171448D01*
X134897180Y-119047422D01*
X134937806Y-119044775D01*
X134968742Y-119035496D01*
X134992240Y-119020555D01*
X135010364Y-118999630D01*
X135021260Y-118974768D01*
X135025066Y-118944742D01*
X135022198Y-118918938D01*
X135014110Y-118897932D01*
X135000984Y-118880653D01*
X134983633Y-118867591D01*
X134962678Y-118859558D01*
X134937090Y-118856717D01*
X134911937Y-118859775D01*
X134889769Y-118868725D01*
X134869825Y-118883828D01*
X134854342Y-118903565D01*
X134842911Y-118929437D01*
X134835973Y-118963011D01*
X134694410Y-118939173D01*
X134706734Y-118891103D01*
X134721736Y-118852672D01*
X134738960Y-118822327D01*
X134761056Y-118795634D01*
X134788502Y-118772770D01*
X134822002Y-118753598D01*
X134858295Y-118739869D01*
X134897911Y-118731440D01*
X134941437Y-118728538D01*
X134997013Y-118733377D01*
X135044897Y-118747201D01*
X135086521Y-118769546D01*
X135122910Y-118800736D01*
X135148091Y-118832066D01*
X135165446Y-118864420D01*
X135175726Y-118898254D01*
X135179183Y-118934191D01*
X135174785Y-118973775D01*
X135161835Y-119009627D01*
X135139991Y-119042731D01*
X135108009Y-119073680D01*
X135063852Y-119102621D01*
X135107313Y-119116839D01*
X135143630Y-119138819D01*
X135173956Y-119168859D01*
X135196660Y-119205039D01*
X135210454Y-119246019D01*
X135215233Y-119293081D01*
X135210344Y-119344322D01*
X135196033Y-119390772D01*
X135172245Y-119433483D01*
X135138150Y-119473186D01*
X135097446Y-119505646D01*
X135052535Y-119528689D01*
X135002566Y-119542767D01*
X134946371Y-119547631D01*
X134892701Y-119543373D01*
X134845436Y-119531129D01*
X134803474Y-119511290D01*
X134765973Y-119483688D01*
X134734143Y-119449487D01*
X134709857Y-119410708D01*
X134692740Y-119366656D01*
X134682931Y-119316333D01*
G37*
G36*
X135548820Y-119532000D02*
G01*
X135262470Y-118728538D01*
X135437885Y-118728538D01*
X135640656Y-119322537D01*
X135836832Y-118728538D01*
X136008437Y-118728538D01*
X135721500Y-119532000D01*
X135548820Y-119532000D01*
G37*
G36*
X136449881Y-119532000D02*
G01*
X136296301Y-119532000D01*
X136296301Y-118954903D01*
X136237145Y-119003080D01*
X136171287Y-119042182D01*
X136097927Y-119072432D01*
X136097927Y-118931748D01*
X136136653Y-118915906D01*
X136179946Y-118891529D01*
X136228548Y-118857010D01*
X136271580Y-118817213D01*
X136303406Y-118774548D01*
X136325268Y-118728538D01*
X136449881Y-118728538D01*
X136449881Y-119532000D01*
G37*
G36*
X126828904Y-118835000D02*
G01*
X126985757Y-118885021D01*
X126963377Y-118949833D01*
X126935735Y-119002968D01*
X126903213Y-119046125D01*
X126865785Y-119080611D01*
X126822534Y-119107801D01*
X126773370Y-119127699D01*
X126717263Y-119140143D01*
X126652951Y-119144505D01*
X126589828Y-119139911D01*
X126532929Y-119126597D01*
X126481249Y-119104915D01*
X126433988Y-119074740D01*
X126390586Y-119035475D01*
X126354804Y-118990474D01*
X126326505Y-118939196D01*
X126305610Y-118880731D01*
X126292472Y-118813911D01*
X126287857Y-118737352D01*
X126292581Y-118655893D01*
X126305956Y-118585565D01*
X126327081Y-118524783D01*
X126355480Y-118472192D01*
X126391123Y-118426724D01*
X126434666Y-118387168D01*
X126482822Y-118356582D01*
X126536239Y-118334458D01*
X126595839Y-118320780D01*
X126662770Y-118316033D01*
X126735345Y-118321886D01*
X126798285Y-118338612D01*
X126853276Y-118365566D01*
X126901591Y-118402935D01*
X126933578Y-118440132D01*
X126961043Y-118488556D01*
X126983559Y-118550506D01*
X126823433Y-118588022D01*
X126810177Y-118548658D01*
X126790459Y-118516253D01*
X126764131Y-118489690D01*
X126732411Y-118469866D01*
X126696276Y-118457786D01*
X126654563Y-118453591D01*
X126611256Y-118457772D01*
X126573398Y-118469833D01*
X126539883Y-118489619D01*
X126509972Y-118517729D01*
X126487757Y-118550727D01*
X126470415Y-118594446D01*
X126458827Y-118651572D01*
X126454529Y-118725335D01*
X126458859Y-118804137D01*
X126470436Y-118864164D01*
X126487558Y-118909175D01*
X126509190Y-118942321D01*
X126538746Y-118970731D01*
X126571743Y-118990652D01*
X126608894Y-119002759D01*
X126651291Y-119006947D01*
X126692696Y-119002239D01*
X126729288Y-118988497D01*
X126762226Y-118965475D01*
X126788688Y-118934929D01*
X126811132Y-118892465D01*
X126828904Y-118835000D01*
G37*
G36*
X127090537Y-118481727D02*
G01*
X127090537Y-118337917D01*
X127615757Y-118337917D01*
X127615757Y-118450464D01*
X127575305Y-118495552D01*
X127531318Y-118556019D01*
X127483475Y-118634868D01*
X127442283Y-118716503D01*
X127408144Y-118801540D01*
X127380990Y-118890297D01*
X127360740Y-118981321D01*
X127349575Y-119061470D01*
X127346308Y-119132000D01*
X127198199Y-119132000D01*
X127203750Y-119049639D01*
X127216816Y-118965699D01*
X127237692Y-118879851D01*
X127266783Y-118791769D01*
X127315351Y-118679109D01*
X127373001Y-118576022D01*
X127439755Y-118481727D01*
X127090537Y-118481727D01*
G37*
G36*
X117878904Y-112535000D02*
G01*
X118035757Y-112585021D01*
X118013377Y-112649833D01*
X117985735Y-112702968D01*
X117953213Y-112746125D01*
X117915785Y-112780611D01*
X117872534Y-112807801D01*
X117823370Y-112827699D01*
X117767263Y-112840143D01*
X117702951Y-112844505D01*
X117639828Y-112839911D01*
X117582929Y-112826597D01*
X117531249Y-112804915D01*
X117483988Y-112774740D01*
X117440586Y-112735475D01*
X117404804Y-112690474D01*
X117376505Y-112639196D01*
X117355610Y-112580731D01*
X117342472Y-112513911D01*
X117337857Y-112437352D01*
X117342581Y-112355893D01*
X117355956Y-112285565D01*
X117377081Y-112224783D01*
X117405480Y-112172192D01*
X117441123Y-112126724D01*
X117484666Y-112087168D01*
X117532822Y-112056582D01*
X117586239Y-112034458D01*
X117645839Y-112020780D01*
X117712770Y-112016033D01*
X117785345Y-112021886D01*
X117848285Y-112038612D01*
X117903276Y-112065566D01*
X117951591Y-112102935D01*
X117983578Y-112140132D01*
X118011043Y-112188556D01*
X118033559Y-112250506D01*
X117873433Y-112288022D01*
X117860177Y-112248658D01*
X117840459Y-112216253D01*
X117814131Y-112189690D01*
X117782411Y-112169866D01*
X117746276Y-112157786D01*
X117704563Y-112153591D01*
X117661256Y-112157772D01*
X117623398Y-112169833D01*
X117589883Y-112189619D01*
X117559972Y-112217729D01*
X117537757Y-112250727D01*
X117520415Y-112294446D01*
X117508827Y-112351572D01*
X117504529Y-112425335D01*
X117508859Y-112504137D01*
X117520436Y-112564164D01*
X117537558Y-112609175D01*
X117559190Y-112642321D01*
X117588746Y-112670731D01*
X117621743Y-112690652D01*
X117658894Y-112702759D01*
X117701291Y-112706947D01*
X117742696Y-112702239D01*
X117779288Y-112688497D01*
X117812226Y-112665475D01*
X117838688Y-112634929D01*
X117861132Y-112592465D01*
X117878904Y-112535000D01*
G37*
G36*
X118478606Y-112032009D02*
G01*
X118518250Y-112041971D01*
X118553334Y-112058064D01*
X118584570Y-112080367D01*
X118610858Y-112108003D01*
X118632393Y-112141600D01*
X118649177Y-112182106D01*
X118660823Y-112230771D01*
X118512177Y-112247380D01*
X118506034Y-112217294D01*
X118496387Y-112195022D01*
X118483747Y-112178845D01*
X118467258Y-112166731D01*
X118447699Y-112159321D01*
X118424201Y-112156717D01*
X118393938Y-112161545D01*
X118366887Y-112176043D01*
X118341940Y-112201706D01*
X118325046Y-112234441D01*
X118310126Y-112292450D01*
X118299588Y-112387087D01*
X118330672Y-112356915D01*
X118364333Y-112336052D01*
X118401193Y-112323556D01*
X118442226Y-112319285D01*
X118488739Y-112323845D01*
X118531114Y-112337235D01*
X118570313Y-112359586D01*
X118606992Y-112391776D01*
X118636541Y-112429902D01*
X118657809Y-112473095D01*
X118670976Y-112522320D01*
X118675575Y-112578866D01*
X118670682Y-112638980D01*
X118656751Y-112690619D01*
X118634378Y-112735289D01*
X118603426Y-112774114D01*
X118565125Y-112806053D01*
X118522155Y-112828803D01*
X118473589Y-112842775D01*
X118418143Y-112847631D01*
X118370741Y-112843753D01*
X118327817Y-112832460D01*
X118288547Y-112813907D01*
X118252302Y-112787768D01*
X118218695Y-112753256D01*
X118193330Y-112715804D01*
X118172067Y-112668330D01*
X118155477Y-112608813D01*
X118149176Y-112566263D01*
X118312679Y-112566263D01*
X118316999Y-112614038D01*
X118328802Y-112651002D01*
X118347117Y-112679543D01*
X118372116Y-112702377D01*
X118398045Y-112715225D01*
X118425813Y-112719452D01*
X118452736Y-112715792D01*
X118476095Y-112705070D01*
X118496838Y-112686773D01*
X118511450Y-112663150D01*
X118521434Y-112628693D01*
X118525268Y-112579648D01*
X118521211Y-112529325D01*
X118510519Y-112493080D01*
X118494640Y-112467443D01*
X118472292Y-112447488D01*
X118447137Y-112435814D01*
X118418143Y-112431832D01*
X118390135Y-112435620D01*
X118365485Y-112446775D01*
X118343258Y-112465879D01*
X118327100Y-112490359D01*
X118316574Y-112523004D01*
X118312679Y-112566263D01*
X118149176Y-112566263D01*
X118144529Y-112534879D01*
X118140537Y-112443849D01*
X118144680Y-112350634D01*
X118156055Y-112274789D01*
X118173316Y-112213601D01*
X118195476Y-112164665D01*
X118221967Y-112125942D01*
X118256867Y-112090551D01*
X118294902Y-112063600D01*
X118336515Y-112044365D01*
X118382405Y-112032596D01*
X118433482Y-112028538D01*
X118478606Y-112032009D01*
G37*
G36*
X114856176Y-119625642D02*
G01*
X115013566Y-119610011D01*
X115027290Y-119659676D01*
X115046693Y-119696728D01*
X115071208Y-119723779D01*
X115102101Y-119743276D01*
X115140514Y-119755626D01*
X115188444Y-119760073D01*
X115239671Y-119755860D01*
X115277933Y-119744570D01*
X115306218Y-119727491D01*
X115328854Y-119703673D01*
X115341616Y-119678580D01*
X115345834Y-119651288D01*
X115341581Y-119625133D01*
X115329177Y-119603660D01*
X115308341Y-119586522D01*
X115270949Y-119569466D01*
X115141452Y-119533905D01*
X115055412Y-119507498D01*
X114996800Y-119480536D01*
X114958905Y-119453744D01*
X114926134Y-119417933D01*
X114903409Y-119379425D01*
X114889790Y-119337544D01*
X114885143Y-119291274D01*
X114888974Y-119251178D01*
X114900420Y-119212953D01*
X114919826Y-119175942D01*
X114945948Y-119143403D01*
X114978964Y-119116204D01*
X115019868Y-119094121D01*
X115064281Y-119079060D01*
X115116386Y-119069450D01*
X115177502Y-119066033D01*
X115253995Y-119070945D01*
X115315646Y-119084457D01*
X115365121Y-119105202D01*
X115404599Y-119132516D01*
X115437982Y-119168227D01*
X115462253Y-119209002D01*
X115477911Y-119255770D01*
X115484662Y-119309885D01*
X115322875Y-119316138D01*
X115312450Y-119276612D01*
X115297425Y-119247852D01*
X115278325Y-119227478D01*
X115254022Y-119213387D01*
X115220777Y-119203990D01*
X115175890Y-119200464D01*
X115129632Y-119204135D01*
X115093540Y-119214146D01*
X115065492Y-119229529D01*
X115051088Y-119243511D01*
X115042685Y-119259844D01*
X115039798Y-119279355D01*
X115045653Y-119305506D01*
X115063831Y-119328154D01*
X115086851Y-119342298D01*
X115132584Y-119360155D01*
X115212478Y-119382230D01*
X115322202Y-119413333D01*
X115387062Y-119440408D01*
X115422387Y-119462979D01*
X115451695Y-119490055D01*
X115475576Y-119521937D01*
X115492851Y-119557738D01*
X115503721Y-119599883D01*
X115507572Y-119649725D01*
X115503346Y-119694585D01*
X115490718Y-119737398D01*
X115469323Y-119778880D01*
X115440526Y-119815342D01*
X115404774Y-119845041D01*
X115361124Y-119868371D01*
X115313580Y-119883915D01*
X115256076Y-119893998D01*
X115186783Y-119897631D01*
X115110102Y-119892598D01*
X115047159Y-119878632D01*
X114995580Y-119856970D01*
X114953434Y-119828168D01*
X114917944Y-119790910D01*
X114889832Y-119745713D01*
X114869043Y-119691229D01*
X114856176Y-119625642D01*
G37*
G36*
X116002603Y-119882000D02*
G01*
X115849023Y-119882000D01*
X115849023Y-119304903D01*
X115789867Y-119353080D01*
X115724009Y-119392182D01*
X115650649Y-119422432D01*
X115650649Y-119281748D01*
X115689375Y-119265906D01*
X115732669Y-119241529D01*
X115781270Y-119207010D01*
X115824302Y-119167213D01*
X115856128Y-119124548D01*
X115877990Y-119078538D01*
X116002603Y-119078538D01*
X116002603Y-119882000D01*
G37*
D11*
G36*
X115832000Y-83917410D02*
G01*
X115657415Y-84034353D01*
X115573187Y-84092764D01*
X115539787Y-84119594D01*
X115518904Y-84143867D01*
X115506521Y-84168247D01*
X115500184Y-84197728D01*
X115497484Y-84249678D01*
X115497484Y-84282455D01*
X115832000Y-84282455D01*
X115832000Y-84444242D01*
X115028538Y-84444242D01*
X115028538Y-84156230D01*
X115162969Y-84156230D01*
X115162969Y-84282455D01*
X115369306Y-84282455D01*
X115369306Y-84162776D01*
X115365940Y-84057008D01*
X115359341Y-84017403D01*
X115345643Y-83991464D01*
X115324951Y-83972071D01*
X115298330Y-83959992D01*
X115263939Y-83955658D01*
X115237333Y-83958260D01*
X115215574Y-83965562D01*
X115197652Y-83977249D01*
X115177426Y-84002563D01*
X115165754Y-84038163D01*
X115162969Y-84156230D01*
X115028538Y-84156230D01*
X115028538Y-84103767D01*
X115031601Y-84017170D01*
X115039421Y-83957077D01*
X115050227Y-83917166D01*
X115068328Y-83881105D01*
X115093787Y-83850233D01*
X115127408Y-83823962D01*
X115165687Y-83804708D01*
X115207679Y-83793007D01*
X115254267Y-83788987D01*
X115298995Y-83792530D01*
X115338260Y-83802703D01*
X115373003Y-83819164D01*
X115403939Y-83842036D01*
X115429520Y-83870186D01*
X115450597Y-83905126D01*
X115467048Y-83948053D01*
X115478336Y-84000501D01*
X115511296Y-83951553D01*
X115545600Y-83913893D01*
X115590216Y-83878193D01*
X115675684Y-83821764D01*
X115832000Y-83723969D01*
X115832000Y-83917410D01*
G37*
G36*
X115832000Y-83277591D02*
G01*
X115832000Y-83431171D01*
X115254903Y-83431171D01*
X115303080Y-83490328D01*
X115342182Y-83556185D01*
X115372432Y-83629545D01*
X115231748Y-83629545D01*
X115215906Y-83590820D01*
X115191529Y-83547526D01*
X115157010Y-83498924D01*
X115117213Y-83455892D01*
X115074548Y-83424066D01*
X115028538Y-83402204D01*
X115028538Y-83277591D01*
X115832000Y-83277591D01*
G37*
G36*
X115669431Y-82598596D02*
G01*
X115832000Y-82598596D01*
X115832000Y-82747242D01*
X115669431Y-82747242D01*
X115669431Y-83075163D01*
X115535538Y-83075163D01*
X115057183Y-82747242D01*
X115266235Y-82747242D01*
X115535000Y-82931450D01*
X115535000Y-82747242D01*
X115266235Y-82747242D01*
X115057183Y-82747242D01*
X115028538Y-82727605D01*
X115028538Y-82598596D01*
X115535000Y-82598596D01*
X115535000Y-82499140D01*
X115669431Y-82499140D01*
X115669431Y-82598596D01*
G37*
G36*
X122035000Y-83932162D02*
G01*
X122085021Y-83775309D01*
X122149833Y-83797689D01*
X122202968Y-83825331D01*
X122246125Y-83857853D01*
X122280611Y-83895281D01*
X122307801Y-83938532D01*
X122327699Y-83987696D01*
X122340143Y-84043803D01*
X122344505Y-84108115D01*
X122339911Y-84171238D01*
X122326597Y-84228137D01*
X122304915Y-84279817D01*
X122274740Y-84327078D01*
X122235475Y-84370480D01*
X122190474Y-84406262D01*
X122139196Y-84434561D01*
X122080731Y-84455456D01*
X122013911Y-84468594D01*
X121937352Y-84473209D01*
X121855893Y-84468485D01*
X121785565Y-84455110D01*
X121724783Y-84433985D01*
X121672192Y-84405586D01*
X121626724Y-84369943D01*
X121587168Y-84326400D01*
X121556582Y-84278244D01*
X121534458Y-84224827D01*
X121520780Y-84165227D01*
X121516033Y-84098296D01*
X121521886Y-84025721D01*
X121538612Y-83962781D01*
X121565566Y-83907790D01*
X121602935Y-83859475D01*
X121640132Y-83827488D01*
X121688556Y-83800023D01*
X121750506Y-83777507D01*
X121788022Y-83937633D01*
X121748658Y-83950889D01*
X121716253Y-83970607D01*
X121689690Y-83996935D01*
X121669866Y-84028655D01*
X121657786Y-84064790D01*
X121653591Y-84106503D01*
X121657772Y-84149810D01*
X121669833Y-84187668D01*
X121689619Y-84221183D01*
X121717729Y-84251094D01*
X121750727Y-84273309D01*
X121794446Y-84290651D01*
X121851572Y-84302239D01*
X121925335Y-84306537D01*
X122004137Y-84302207D01*
X122064164Y-84290630D01*
X122109175Y-84273508D01*
X122142321Y-84251876D01*
X122170731Y-84222320D01*
X122190652Y-84189323D01*
X122202759Y-84152172D01*
X122206947Y-84109775D01*
X122202239Y-84068370D01*
X122188497Y-84031778D01*
X122165475Y-83998840D01*
X122134929Y-83972378D01*
X122092465Y-83949934D01*
X122035000Y-83932162D01*
G37*
G36*
X122332000Y-83277591D02*
G01*
X122332000Y-83431171D01*
X121754903Y-83431171D01*
X121803080Y-83490328D01*
X121842182Y-83556185D01*
X121872432Y-83629545D01*
X121731748Y-83629545D01*
X121715906Y-83590820D01*
X121691529Y-83547526D01*
X121657010Y-83498924D01*
X121617213Y-83455892D01*
X121574548Y-83424066D01*
X121528538Y-83402204D01*
X121528538Y-83277591D01*
X122332000Y-83277591D01*
G37*
G36*
X122169431Y-82598596D02*
G01*
X122332000Y-82598596D01*
X122332000Y-82747242D01*
X122169431Y-82747242D01*
X122169431Y-83075163D01*
X122035538Y-83075163D01*
X121557183Y-82747242D01*
X121766235Y-82747242D01*
X122035000Y-82931450D01*
X122035000Y-82747242D01*
X121766235Y-82747242D01*
X121557183Y-82747242D01*
X121528538Y-82727605D01*
X121528538Y-82598596D01*
X122035000Y-82598596D01*
X122035000Y-82499140D01*
X122169431Y-82499140D01*
X122169431Y-82598596D01*
G37*
G36*
X115495329Y-89631601D02*
G01*
X115555422Y-89639421D01*
X115595333Y-89650227D01*
X115631394Y-89668328D01*
X115662266Y-89693787D01*
X115688537Y-89727408D01*
X115707791Y-89765687D01*
X115719492Y-89807679D01*
X115723512Y-89854267D01*
X115719969Y-89898995D01*
X115709796Y-89938260D01*
X115693335Y-89973003D01*
X115670463Y-90003939D01*
X115642313Y-90029520D01*
X115607373Y-90050597D01*
X115564446Y-90067048D01*
X115511998Y-90078336D01*
X115560946Y-90111296D01*
X115598606Y-90145600D01*
X115634306Y-90190216D01*
X115690735Y-90275684D01*
X115788530Y-90432000D01*
X115595089Y-90432000D01*
X115478146Y-90257415D01*
X115419735Y-90173187D01*
X115392905Y-90139787D01*
X115368632Y-90118904D01*
X115344252Y-90106521D01*
X115314771Y-90100184D01*
X115262821Y-90097484D01*
X115230044Y-90097484D01*
X115230044Y-90432000D01*
X115068257Y-90432000D01*
X115068257Y-89969306D01*
X115230044Y-89969306D01*
X115349723Y-89969306D01*
X115455491Y-89965940D01*
X115495096Y-89959341D01*
X115521035Y-89945643D01*
X115540428Y-89924951D01*
X115552507Y-89898330D01*
X115556841Y-89863939D01*
X115554239Y-89837333D01*
X115546937Y-89815574D01*
X115535250Y-89797652D01*
X115509936Y-89777426D01*
X115474336Y-89765754D01*
X115356269Y-89762969D01*
X115230044Y-89762969D01*
X115230044Y-89969306D01*
X115068257Y-89969306D01*
X115068257Y-89628538D01*
X115408732Y-89628538D01*
X115495329Y-89631601D01*
G37*
G36*
X116360595Y-90288189D02*
G01*
X116360595Y-90432000D01*
X115822333Y-90432000D01*
X115831984Y-90379418D01*
X115849362Y-90328631D01*
X115874796Y-90279152D01*
X115907588Y-90232955D01*
X115962712Y-90170481D01*
X116047476Y-90087568D01*
X116140142Y-89997329D01*
X116174775Y-89956752D01*
X116192926Y-89924046D01*
X116203177Y-89893013D01*
X116206478Y-89863011D01*
X116203073Y-89829942D01*
X116193692Y-89804255D01*
X116178878Y-89784267D01*
X116158888Y-89769363D01*
X116133946Y-89760055D01*
X116102626Y-89756717D01*
X116071791Y-89760166D01*
X116046722Y-89769893D01*
X116026129Y-89785684D01*
X116011028Y-89806881D01*
X115999735Y-89837828D01*
X115993352Y-89881769D01*
X115840358Y-89866480D01*
X115851977Y-89803122D01*
X115870619Y-89753135D01*
X115895384Y-89714026D01*
X115926136Y-89683933D01*
X115963401Y-89660245D01*
X116005310Y-89643005D01*
X116052671Y-89632281D01*
X116106485Y-89628538D01*
X116165580Y-89632984D01*
X116215312Y-89645500D01*
X116257312Y-89665310D01*
X116292842Y-89692286D01*
X116322655Y-89726321D01*
X116343572Y-89763564D01*
X116356239Y-89804717D01*
X116360595Y-89850799D01*
X116355715Y-89903604D01*
X116341202Y-89953479D01*
X116317162Y-90001656D01*
X116279702Y-90055572D01*
X116245365Y-90093939D01*
X116179172Y-90157471D01*
X116087092Y-90245691D01*
X116055682Y-90288189D01*
X116360595Y-90288189D01*
G37*
G36*
X116982731Y-90288189D02*
G01*
X116982731Y-90432000D01*
X116444468Y-90432000D01*
X116454119Y-90379418D01*
X116471497Y-90328631D01*
X116496932Y-90279152D01*
X116529723Y-90232955D01*
X116584847Y-90170481D01*
X116669611Y-90087568D01*
X116762277Y-89997329D01*
X116796911Y-89956752D01*
X116815061Y-89924046D01*
X116825313Y-89893013D01*
X116828613Y-89863011D01*
X116825208Y-89829942D01*
X116815828Y-89804255D01*
X116801014Y-89784267D01*
X116781024Y-89769363D01*
X116756081Y-89760055D01*
X116724761Y-89756717D01*
X116693926Y-89760166D01*
X116668857Y-89769893D01*
X116648264Y-89785684D01*
X116633163Y-89806881D01*
X116621870Y-89837828D01*
X116615487Y-89881769D01*
X116462493Y-89866480D01*
X116474113Y-89803122D01*
X116492754Y-89753135D01*
X116517519Y-89714026D01*
X116548271Y-89683933D01*
X116585537Y-89660245D01*
X116627446Y-89643005D01*
X116674807Y-89632281D01*
X116728620Y-89628538D01*
X116787715Y-89632984D01*
X116837447Y-89645500D01*
X116879447Y-89665310D01*
X116914978Y-89692286D01*
X116944791Y-89726321D01*
X116965707Y-89763564D01*
X116978375Y-89804717D01*
X116982731Y-89850799D01*
X116977850Y-89903604D01*
X116963338Y-89953479D01*
X116939298Y-90001656D01*
X116901837Y-90055572D01*
X116867501Y-90093939D01*
X116801307Y-90157471D01*
X116709227Y-90245691D01*
X116677818Y-90288189D01*
X116982731Y-90288189D01*
G37*
G36*
X114219583Y-113432009D02*
G01*
X114259227Y-113441971D01*
X114294311Y-113458064D01*
X114325548Y-113480367D01*
X114351835Y-113508003D01*
X114373371Y-113541600D01*
X114390154Y-113582106D01*
X114401800Y-113630771D01*
X114253154Y-113647380D01*
X114247012Y-113617294D01*
X114237364Y-113595022D01*
X114224724Y-113578845D01*
X114208235Y-113566731D01*
X114188676Y-113559321D01*
X114165178Y-113556717D01*
X114134915Y-113561545D01*
X114107865Y-113576043D01*
X114082917Y-113601706D01*
X114066023Y-113634441D01*
X114051103Y-113692450D01*
X114040565Y-113787087D01*
X114071650Y-113756915D01*
X114105310Y-113736052D01*
X114142170Y-113723556D01*
X114183203Y-113719285D01*
X114229716Y-113723845D01*
X114272092Y-113737235D01*
X114311290Y-113759586D01*
X114347969Y-113791776D01*
X114377518Y-113829902D01*
X114398786Y-113873095D01*
X114411954Y-113922320D01*
X114416553Y-113978866D01*
X114411660Y-114038980D01*
X114397729Y-114090619D01*
X114375355Y-114135289D01*
X114344403Y-114174114D01*
X114306102Y-114206053D01*
X114263132Y-114228803D01*
X114214567Y-114242775D01*
X114159121Y-114247631D01*
X114111719Y-114243753D01*
X114068795Y-114232460D01*
X114029524Y-114213907D01*
X113993279Y-114187768D01*
X113959672Y-114153256D01*
X113934307Y-114115804D01*
X113913045Y-114068330D01*
X113896454Y-114008813D01*
X113890153Y-113966263D01*
X114053657Y-113966263D01*
X114057976Y-114014038D01*
X114069780Y-114051002D01*
X114088095Y-114079543D01*
X114113093Y-114102377D01*
X114139022Y-114115225D01*
X114166790Y-114119452D01*
X114193713Y-114115792D01*
X114217072Y-114105070D01*
X114237816Y-114086773D01*
X114252427Y-114063150D01*
X114262411Y-114028693D01*
X114266245Y-113979648D01*
X114262189Y-113929325D01*
X114251497Y-113893080D01*
X114235617Y-113867443D01*
X114213269Y-113847488D01*
X114188114Y-113835814D01*
X114159121Y-113831832D01*
X114131113Y-113835620D01*
X114106463Y-113846775D01*
X114084236Y-113865879D01*
X114068078Y-113890359D01*
X114057551Y-113923004D01*
X114053657Y-113966263D01*
X113890153Y-113966263D01*
X113885506Y-113934879D01*
X113881514Y-113843849D01*
X113885658Y-113750634D01*
X113897032Y-113674789D01*
X113914293Y-113613601D01*
X113936454Y-113564665D01*
X113962945Y-113525942D01*
X113997845Y-113490551D01*
X114035879Y-113463600D01*
X114077492Y-113444365D01*
X114123382Y-113432596D01*
X114174459Y-113428538D01*
X114219583Y-113432009D01*
G37*
G36*
X114741933Y-114232000D02*
G01*
X114455583Y-113428538D01*
X114630998Y-113428538D01*
X114833768Y-114022537D01*
X115029944Y-113428538D01*
X115201549Y-113428538D01*
X114914613Y-114232000D01*
X114741933Y-114232000D01*
G37*
G36*
X115192121Y-114453967D02*
G01*
X115192121Y-114353926D01*
X115830426Y-114353926D01*
X115830426Y-114453967D01*
X115192121Y-114453967D01*
G37*
G36*
X115901158Y-114232000D02*
G01*
X115901158Y-113428538D01*
X116062945Y-113428538D01*
X116062945Y-114232000D01*
X115901158Y-114232000D01*
G37*
G36*
X116218821Y-114232000D02*
G01*
X116218821Y-113428538D01*
X116376211Y-113428538D01*
X116704082Y-113966410D01*
X116704082Y-113428538D01*
X116854389Y-113428538D01*
X116854389Y-114232000D01*
X116692065Y-114232000D01*
X116369079Y-113702139D01*
X116369079Y-114232000D01*
X116218821Y-114232000D01*
G37*
G36*
X117384347Y-114232000D02*
G01*
X117230767Y-114232000D01*
X117230767Y-113654903D01*
X117171611Y-113703080D01*
X117105753Y-113742182D01*
X117032393Y-113772432D01*
X117032393Y-113631748D01*
X117071119Y-113615906D01*
X117114413Y-113591529D01*
X117163015Y-113557010D01*
X117206046Y-113517213D01*
X117237873Y-113474548D01*
X117259735Y-113428538D01*
X117384347Y-113428538D01*
X117384347Y-114232000D01*
G37*
G36*
X127080607Y-82882000D02*
G01*
X126904606Y-82882000D01*
X126834655Y-82700674D01*
X126514452Y-82700674D01*
X126448312Y-82882000D01*
X126276707Y-82882000D01*
X126399339Y-82566242D01*
X126564180Y-82566242D01*
X126782778Y-82566242D01*
X126672380Y-82266117D01*
X126564180Y-82566242D01*
X126399339Y-82566242D01*
X126588751Y-82078538D01*
X126759819Y-82078538D01*
X127080607Y-82882000D01*
G37*
G36*
X127555411Y-82082999D02*
G01*
X127613838Y-82093877D01*
X127658751Y-82111418D01*
X127698813Y-82135968D01*
X127734641Y-82167882D01*
X127765035Y-82205325D01*
X127790541Y-82248480D01*
X127811138Y-82298064D01*
X127825045Y-82350047D01*
X127834103Y-82412739D01*
X127837369Y-82487938D01*
X127834374Y-82553878D01*
X127825949Y-82610477D01*
X127812799Y-82658957D01*
X127789077Y-82715293D01*
X127760420Y-82762182D01*
X127726972Y-82800862D01*
X127697016Y-82825338D01*
X127659557Y-82846796D01*
X127613301Y-82865000D01*
X127555135Y-82877207D01*
X127470126Y-82882000D01*
X127165750Y-82882000D01*
X127165750Y-82747568D01*
X127327488Y-82747568D01*
X127448291Y-82747568D01*
X127511338Y-82745240D01*
X127546085Y-82739850D01*
X127582691Y-82726197D01*
X127611396Y-82706291D01*
X127626412Y-82688915D01*
X127640625Y-82663664D01*
X127653748Y-82628378D01*
X127665496Y-82569164D01*
X127670161Y-82480562D01*
X127665415Y-82392479D01*
X127653748Y-82336849D01*
X127633326Y-82290968D01*
X127607830Y-82258692D01*
X127574976Y-82235457D01*
X127532994Y-82220688D01*
X127491035Y-82215422D01*
X127400175Y-82212969D01*
X127327488Y-82212969D01*
X127327488Y-82747568D01*
X127165750Y-82747568D01*
X127165750Y-82078538D01*
X127461382Y-82078538D01*
X127555411Y-82082999D01*
G37*
G36*
X128487055Y-82585000D02*
G01*
X128643908Y-82635021D01*
X128621528Y-82699833D01*
X128593887Y-82752968D01*
X128561364Y-82796125D01*
X128523936Y-82830611D01*
X128480686Y-82857801D01*
X128431521Y-82877699D01*
X128375414Y-82890143D01*
X128311103Y-82894505D01*
X128247979Y-82889911D01*
X128191080Y-82876597D01*
X128139401Y-82854915D01*
X128092139Y-82824740D01*
X128048737Y-82785475D01*
X128012955Y-82740474D01*
X127984656Y-82689196D01*
X127963762Y-82630731D01*
X127950623Y-82563911D01*
X127946009Y-82487352D01*
X127950733Y-82405893D01*
X127964107Y-82335565D01*
X127985232Y-82274783D01*
X128013631Y-82222192D01*
X128049275Y-82176724D01*
X128092817Y-82137168D01*
X128140973Y-82106582D01*
X128194390Y-82084458D01*
X128253991Y-82070780D01*
X128320921Y-82066033D01*
X128393496Y-82071886D01*
X128456436Y-82088612D01*
X128511428Y-82115566D01*
X128559742Y-82152935D01*
X128591729Y-82190132D01*
X128619195Y-82238556D01*
X128641710Y-82300506D01*
X128481584Y-82338022D01*
X128468329Y-82298658D01*
X128448610Y-82266253D01*
X128422282Y-82239690D01*
X128390562Y-82219866D01*
X128354427Y-82207786D01*
X128312715Y-82203591D01*
X128269408Y-82207772D01*
X128231550Y-82219833D01*
X128198035Y-82239619D01*
X128168123Y-82267729D01*
X128145909Y-82300727D01*
X128128567Y-82344446D01*
X128116978Y-82401572D01*
X128112680Y-82475335D01*
X128117011Y-82554137D01*
X128128588Y-82614164D01*
X128145710Y-82659175D01*
X128167342Y-82692321D01*
X128196898Y-82720731D01*
X128229894Y-82740652D01*
X128267045Y-82752759D01*
X128309442Y-82756947D01*
X128350847Y-82752239D01*
X128387439Y-82738497D01*
X128420377Y-82715475D01*
X128446839Y-82684929D01*
X128469283Y-82642465D01*
X128487055Y-82585000D01*
G37*
G36*
X129141626Y-82882000D02*
G01*
X128988046Y-82882000D01*
X128988046Y-82304903D01*
X128928890Y-82353080D01*
X128863032Y-82392182D01*
X128789672Y-82422432D01*
X128789672Y-82281748D01*
X128828398Y-82265906D01*
X128871692Y-82241529D01*
X128920293Y-82207010D01*
X128963325Y-82167213D01*
X128995151Y-82124548D01*
X129017014Y-82078538D01*
X129141626Y-82078538D01*
X129141626Y-82882000D01*
G37*
G36*
X116313284Y-77850174D02*
G01*
X116300583Y-77886181D01*
X116283681Y-77921737D01*
X116213193Y-78029399D01*
X116232079Y-78082844D01*
X116243656Y-78140710D01*
X116247631Y-78203740D01*
X116242775Y-78278099D01*
X116228938Y-78342917D01*
X116206863Y-78399625D01*
X116176803Y-78449401D01*
X116138503Y-78493119D01*
X116093490Y-78529329D01*
X116041501Y-78558108D01*
X115981492Y-78579474D01*
X115912128Y-78592984D01*
X115831832Y-78597752D01*
X115751832Y-78592981D01*
X115682631Y-78579454D01*
X115622672Y-78558043D01*
X115570637Y-78529177D01*
X115525503Y-78492826D01*
X115486864Y-78448912D01*
X115456676Y-78399417D01*
X115434613Y-78343551D01*
X115420846Y-78280231D01*
X115416105Y-78209211D01*
X115553591Y-78209211D01*
X115558115Y-78257426D01*
X115571142Y-78299488D01*
X115592440Y-78336611D01*
X115622565Y-78369630D01*
X115658323Y-78394855D01*
X115703356Y-78414026D01*
X115759717Y-78426529D01*
X115829927Y-78431081D01*
X115901336Y-78426514D01*
X115958561Y-78413986D01*
X116004185Y-78394809D01*
X116040318Y-78369630D01*
X116071079Y-78336524D01*
X116092586Y-78300116D01*
X116105596Y-78259683D01*
X116110073Y-78214145D01*
X116107132Y-78179920D01*
X116098448Y-78148004D01*
X116069129Y-78198145D01*
X116047547Y-78247997D01*
X115953758Y-78202665D01*
X115975014Y-78150858D01*
X116002598Y-78100096D01*
X116036898Y-78050160D01*
X115997144Y-78023274D01*
X115948434Y-78003461D01*
X115894379Y-77991992D01*
X115829390Y-77987878D01*
X115758981Y-77992425D01*
X115702599Y-78004897D01*
X115657678Y-78023994D01*
X115622125Y-78049085D01*
X115592222Y-78081936D01*
X115571056Y-78118949D01*
X115558096Y-78160966D01*
X115553591Y-78209211D01*
X115416105Y-78209211D01*
X115416033Y-78208136D01*
X115420806Y-78136712D01*
X115434464Y-78073922D01*
X115456362Y-78018468D01*
X115486339Y-77969285D01*
X115524721Y-77925596D01*
X115569564Y-77889423D01*
X115621251Y-77860705D01*
X115680800Y-77839406D01*
X115749518Y-77825952D01*
X115828950Y-77821207D01*
X115897542Y-77824671D01*
X115957845Y-77834535D01*
X116010911Y-77850174D01*
X116049535Y-77867180D01*
X116088134Y-77890299D01*
X116126926Y-77920125D01*
X116165004Y-77858057D01*
X116194484Y-77790579D01*
X116313284Y-77850174D01*
G37*
G36*
X116232000Y-77335261D02*
G01*
X116232000Y-77488841D01*
X115654903Y-77488841D01*
X115703080Y-77547997D01*
X115742182Y-77613855D01*
X115772432Y-77687215D01*
X115631748Y-77687215D01*
X115615906Y-77648490D01*
X115591529Y-77605196D01*
X115557010Y-77556594D01*
X115517213Y-77513562D01*
X115474548Y-77481736D01*
X115428538Y-77459874D01*
X115428538Y-77335261D01*
X116232000Y-77335261D01*
G37*
G36*
X121539410Y-64850145D02*
G01*
X121539410Y-64181114D01*
X121301664Y-64181114D01*
X121301664Y-64046683D01*
X121938356Y-64046683D01*
X121938356Y-64181114D01*
X121701148Y-64181114D01*
X121701148Y-64850145D01*
X121539410Y-64850145D01*
G37*
G36*
X122043478Y-64850145D02*
G01*
X122043478Y-64046683D01*
X122205265Y-64046683D01*
X122205265Y-64362440D01*
X122522194Y-64362440D01*
X122522194Y-64046683D01*
X122683981Y-64046683D01*
X122683981Y-64850145D01*
X122522194Y-64850145D01*
X122522194Y-64496872D01*
X122205265Y-64496872D01*
X122205265Y-64850145D01*
X122043478Y-64850145D01*
G37*
G36*
X123278701Y-64049746D02*
G01*
X123338794Y-64057566D01*
X123378705Y-64068372D01*
X123414766Y-64086473D01*
X123445638Y-64111932D01*
X123471908Y-64145553D01*
X123491163Y-64183832D01*
X123502864Y-64225824D01*
X123506884Y-64272412D01*
X123503341Y-64317140D01*
X123493167Y-64356405D01*
X123476706Y-64391148D01*
X123453834Y-64422084D01*
X123425684Y-64447665D01*
X123390745Y-64468742D01*
X123347817Y-64485193D01*
X123295370Y-64496481D01*
X123344318Y-64529441D01*
X123381978Y-64563745D01*
X123417677Y-64608361D01*
X123474106Y-64693829D01*
X123571901Y-64850145D01*
X123378461Y-64850145D01*
X123261517Y-64675560D01*
X123203107Y-64591332D01*
X123176277Y-64557932D01*
X123152004Y-64537049D01*
X123127624Y-64524666D01*
X123098143Y-64518329D01*
X123046193Y-64515629D01*
X123013416Y-64515629D01*
X123013416Y-64850145D01*
X122851629Y-64850145D01*
X122851629Y-64387451D01*
X123013416Y-64387451D01*
X123133095Y-64387451D01*
X123238863Y-64384085D01*
X123278468Y-64377486D01*
X123304407Y-64363788D01*
X123323799Y-64343096D01*
X123335879Y-64316475D01*
X123340212Y-64282084D01*
X123337611Y-64255478D01*
X123330309Y-64233719D01*
X123318621Y-64215797D01*
X123293308Y-64195571D01*
X123257707Y-64183899D01*
X123139640Y-64181114D01*
X123013416Y-64181114D01*
X123013416Y-64387451D01*
X122851629Y-64387451D01*
X122851629Y-64046683D01*
X123192104Y-64046683D01*
X123278701Y-64049746D01*
G37*
G36*
X123657044Y-64850145D02*
G01*
X123657044Y-64046683D01*
X123899138Y-64046683D01*
X124044511Y-64594764D01*
X124188224Y-64046683D01*
X124430903Y-64046683D01*
X124430903Y-64850145D01*
X124280596Y-64850145D01*
X124280596Y-64217702D01*
X124121594Y-64850145D01*
X123965816Y-64850145D01*
X123807351Y-64217702D01*
X123807351Y-64850145D01*
X123657044Y-64850145D01*
G37*
G36*
X124950701Y-64850145D02*
G01*
X124797121Y-64850145D01*
X124797121Y-64273048D01*
X124737965Y-64321225D01*
X124672107Y-64360327D01*
X124598747Y-64390577D01*
X124598747Y-64249893D01*
X124637472Y-64234051D01*
X124680766Y-64209674D01*
X124729368Y-64175155D01*
X124772400Y-64135358D01*
X124804226Y-64092693D01*
X124826088Y-64046683D01*
X124950701Y-64046683D01*
X124950701Y-64850145D01*
G37*
G36*
X127482829Y-68631601D02*
G01*
X127542922Y-68639421D01*
X127582833Y-68650227D01*
X127618894Y-68668328D01*
X127649766Y-68693787D01*
X127676037Y-68727408D01*
X127695291Y-68765687D01*
X127706992Y-68807679D01*
X127711012Y-68854267D01*
X127707469Y-68898995D01*
X127697296Y-68938260D01*
X127680835Y-68973003D01*
X127657963Y-69003939D01*
X127629813Y-69029520D01*
X127594873Y-69050597D01*
X127551946Y-69067048D01*
X127499498Y-69078336D01*
X127548446Y-69111296D01*
X127586106Y-69145600D01*
X127621806Y-69190216D01*
X127678235Y-69275684D01*
X127776030Y-69432000D01*
X127582589Y-69432000D01*
X127465646Y-69257415D01*
X127407235Y-69173187D01*
X127380405Y-69139787D01*
X127356132Y-69118904D01*
X127331752Y-69106521D01*
X127302271Y-69100184D01*
X127250321Y-69097484D01*
X127217544Y-69097484D01*
X127217544Y-69432000D01*
X127055757Y-69432000D01*
X127055757Y-68969306D01*
X127217544Y-68969306D01*
X127337223Y-68969306D01*
X127442991Y-68965940D01*
X127482596Y-68959341D01*
X127508535Y-68945643D01*
X127527928Y-68924951D01*
X127540007Y-68898330D01*
X127544341Y-68863939D01*
X127541739Y-68837333D01*
X127534437Y-68815574D01*
X127522750Y-68797652D01*
X127497436Y-68777426D01*
X127461836Y-68765754D01*
X127343769Y-68762969D01*
X127217544Y-68762969D01*
X127217544Y-68969306D01*
X127055757Y-68969306D01*
X127055757Y-68628538D01*
X127396232Y-68628538D01*
X127482829Y-68631601D01*
G37*
G36*
X128222408Y-69432000D02*
G01*
X128068828Y-69432000D01*
X128068828Y-68854903D01*
X128009671Y-68903080D01*
X127943814Y-68942182D01*
X127870454Y-68972432D01*
X127870454Y-68831748D01*
X127909179Y-68815906D01*
X127952473Y-68791529D01*
X128001075Y-68757010D01*
X128044107Y-68717213D01*
X128075933Y-68674548D01*
X128097795Y-68628538D01*
X128222408Y-68628538D01*
X128222408Y-69432000D01*
G37*
G36*
X128446134Y-69216333D02*
G01*
X128594780Y-69197526D01*
X128602751Y-69235786D01*
X128615667Y-69265416D01*
X128633029Y-69288140D01*
X128655390Y-69305612D01*
X128680239Y-69315931D01*
X128708451Y-69319452D01*
X128738579Y-69315417D01*
X128764927Y-69303571D01*
X128788514Y-69283353D01*
X128806080Y-69257490D01*
X128817099Y-69225558D01*
X128821047Y-69185900D01*
X128817265Y-69148392D01*
X128806713Y-69118264D01*
X128789882Y-69093919D01*
X128767349Y-69074891D01*
X128742342Y-69063755D01*
X128713922Y-69059969D01*
X128683252Y-69062567D01*
X128643434Y-69071448D01*
X128660384Y-68947422D01*
X128701010Y-68944775D01*
X128731946Y-68935496D01*
X128755443Y-68920555D01*
X128773568Y-68899630D01*
X128784464Y-68874768D01*
X128788270Y-68844742D01*
X128785402Y-68818938D01*
X128777313Y-68797932D01*
X128764187Y-68780653D01*
X128746837Y-68767591D01*
X128725882Y-68759558D01*
X128700293Y-68756717D01*
X128675141Y-68759775D01*
X128652972Y-68768725D01*
X128633029Y-68783828D01*
X128617546Y-68803565D01*
X128606115Y-68829437D01*
X128599177Y-68863011D01*
X128457614Y-68839173D01*
X128469938Y-68791103D01*
X128484939Y-68752672D01*
X128502164Y-68722327D01*
X128524260Y-68695634D01*
X128551706Y-68672770D01*
X128585206Y-68653598D01*
X128621499Y-68639869D01*
X128661115Y-68631440D01*
X128704641Y-68628538D01*
X128760216Y-68633377D01*
X128808101Y-68647201D01*
X128849724Y-68669546D01*
X128886113Y-68700736D01*
X128911295Y-68732066D01*
X128928650Y-68764420D01*
X128938930Y-68798254D01*
X128942387Y-68834191D01*
X128937989Y-68873775D01*
X128925039Y-68909627D01*
X128903195Y-68942731D01*
X128871213Y-68973680D01*
X128827055Y-69002621D01*
X128870516Y-69016839D01*
X128906834Y-69038819D01*
X128937160Y-69068859D01*
X128959864Y-69105039D01*
X128973658Y-69146019D01*
X128978437Y-69193081D01*
X128973548Y-69244322D01*
X128959237Y-69290772D01*
X128935449Y-69333483D01*
X128901354Y-69373186D01*
X128860650Y-69405646D01*
X128815739Y-69428689D01*
X128765770Y-69442767D01*
X128709575Y-69447631D01*
X128655905Y-69443373D01*
X128608640Y-69431129D01*
X128566678Y-69411290D01*
X128529177Y-69383688D01*
X128497346Y-69349487D01*
X128473061Y-69310708D01*
X128455944Y-69266656D01*
X128446134Y-69216333D01*
G37*
G36*
X127482829Y-72031601D02*
G01*
X127542922Y-72039421D01*
X127582833Y-72050227D01*
X127618894Y-72068328D01*
X127649766Y-72093787D01*
X127676037Y-72127408D01*
X127695291Y-72165687D01*
X127706992Y-72207679D01*
X127711012Y-72254267D01*
X127707469Y-72298995D01*
X127697296Y-72338260D01*
X127680835Y-72373003D01*
X127657963Y-72403939D01*
X127629813Y-72429520D01*
X127594873Y-72450597D01*
X127551946Y-72467048D01*
X127499498Y-72478336D01*
X127548446Y-72511296D01*
X127586106Y-72545600D01*
X127621806Y-72590216D01*
X127678235Y-72675684D01*
X127776030Y-72832000D01*
X127582589Y-72832000D01*
X127465646Y-72657415D01*
X127407235Y-72573187D01*
X127380405Y-72539787D01*
X127356132Y-72518904D01*
X127331752Y-72506521D01*
X127302271Y-72500184D01*
X127250321Y-72497484D01*
X127217544Y-72497484D01*
X127217544Y-72832000D01*
X127055757Y-72832000D01*
X127055757Y-72369306D01*
X127217544Y-72369306D01*
X127337223Y-72369306D01*
X127442991Y-72365940D01*
X127482596Y-72359341D01*
X127508535Y-72345643D01*
X127527928Y-72324951D01*
X127540007Y-72298330D01*
X127544341Y-72263939D01*
X127541739Y-72237333D01*
X127534437Y-72215574D01*
X127522750Y-72197652D01*
X127497436Y-72177426D01*
X127461836Y-72165754D01*
X127343769Y-72162969D01*
X127217544Y-72162969D01*
X127217544Y-72369306D01*
X127055757Y-72369306D01*
X127055757Y-72028538D01*
X127396232Y-72028538D01*
X127482829Y-72031601D01*
G37*
G36*
X128222408Y-72832000D02*
G01*
X128068828Y-72832000D01*
X128068828Y-72254903D01*
X128009671Y-72303080D01*
X127943814Y-72342182D01*
X127870454Y-72372432D01*
X127870454Y-72231748D01*
X127909179Y-72215906D01*
X127952473Y-72191529D01*
X128001075Y-72157010D01*
X128044107Y-72117213D01*
X128075933Y-72074548D01*
X128097795Y-72028538D01*
X128222408Y-72028538D01*
X128222408Y-72832000D01*
G37*
G36*
X128767309Y-72032683D02*
G01*
X128814853Y-72044282D01*
X128854470Y-72062502D01*
X128887481Y-72087108D01*
X128915152Y-72118405D01*
X128934641Y-72153037D01*
X128946499Y-72191701D01*
X128950593Y-72235412D01*
X128947285Y-72271718D01*
X128937621Y-72304584D01*
X128921626Y-72334721D01*
X128900006Y-72361129D01*
X128873103Y-72383228D01*
X128840196Y-72401204D01*
X128882136Y-72422441D01*
X128915526Y-72448456D01*
X128941556Y-72479362D01*
X128960665Y-72514963D01*
X128972255Y-72554179D01*
X128976239Y-72597917D01*
X128971530Y-72652381D01*
X128958024Y-72699785D01*
X128936112Y-72741432D01*
X128905457Y-72778266D01*
X128868133Y-72808000D01*
X128825107Y-72829512D01*
X128775283Y-72842919D01*
X128717195Y-72847631D01*
X128662921Y-72843762D01*
X128615154Y-72832671D01*
X128572866Y-72814817D01*
X128535234Y-72790234D01*
X128497773Y-72753300D01*
X128471339Y-72710858D01*
X128455123Y-72661811D01*
X128449456Y-72604463D01*
X128450677Y-72590199D01*
X128600838Y-72590199D01*
X128604844Y-72631613D01*
X128615905Y-72664202D01*
X128633322Y-72689899D01*
X128656942Y-72709879D01*
X128683648Y-72721667D01*
X128714508Y-72725705D01*
X128744670Y-72721796D01*
X128770527Y-72710436D01*
X128793154Y-72691267D01*
X128809717Y-72666494D01*
X128820399Y-72634085D01*
X128824320Y-72591811D01*
X128820523Y-72555225D01*
X128809836Y-72525320D01*
X128792617Y-72500660D01*
X128769607Y-72481529D01*
X128743205Y-72470147D01*
X128712310Y-72466221D01*
X128676811Y-72470903D01*
X128649527Y-72483962D01*
X128628437Y-72505349D01*
X128612972Y-72532443D01*
X128603880Y-72560542D01*
X128600838Y-72590199D01*
X128450677Y-72590199D01*
X128453090Y-72562005D01*
X128463814Y-72522427D01*
X128481696Y-72485077D01*
X128506546Y-72452398D01*
X128539931Y-72424486D01*
X128583350Y-72401204D01*
X128545917Y-72381456D01*
X128517530Y-72358393D01*
X128496741Y-72331986D01*
X128481704Y-72301666D01*
X128472718Y-72269656D01*
X128470667Y-72246549D01*
X128615004Y-72246549D01*
X128618157Y-72276241D01*
X128626930Y-72299764D01*
X128640942Y-72318503D01*
X128659698Y-72332570D01*
X128682382Y-72341230D01*
X128710112Y-72344295D01*
X128738187Y-72341193D01*
X128761124Y-72332433D01*
X128780063Y-72318210D01*
X128794256Y-72299299D01*
X128803117Y-72275686D01*
X128806295Y-72246012D01*
X128803207Y-72218163D01*
X128794483Y-72195384D01*
X128780307Y-72176549D01*
X128761571Y-72162287D01*
X128739070Y-72153547D01*
X128711724Y-72150464D01*
X128683309Y-72153609D01*
X128660208Y-72162473D01*
X128641235Y-72176842D01*
X128626907Y-72195845D01*
X128618111Y-72218712D01*
X128615004Y-72246549D01*
X128470667Y-72246549D01*
X128469679Y-72235412D01*
X128473745Y-72191670D01*
X128485514Y-72152993D01*
X128504842Y-72118372D01*
X128532254Y-72087108D01*
X128564998Y-72062564D01*
X128604577Y-72044342D01*
X128652377Y-72032707D01*
X128710161Y-72028538D01*
X128767309Y-72032683D01*
G37*
G36*
X114359239Y-111832465D02*
G01*
X114416685Y-111840604D01*
X114459798Y-111857211D01*
X114497991Y-111883107D01*
X114532017Y-111919250D01*
X114557099Y-111961848D01*
X114572857Y-112013243D01*
X114578471Y-112075614D01*
X114575215Y-112124343D01*
X114566072Y-112165378D01*
X114551702Y-112199983D01*
X114531761Y-112231844D01*
X114509106Y-112258030D01*
X114483656Y-112279166D01*
X114441297Y-112303400D01*
X114399735Y-112317219D01*
X114335310Y-112325396D01*
X114231940Y-112328748D01*
X114126476Y-112328748D01*
X114126476Y-112632000D01*
X113964738Y-112632000D01*
X113964738Y-112194316D01*
X114126476Y-112194316D01*
X114214989Y-112194316D01*
X114302740Y-112190241D01*
X114342875Y-112181518D01*
X114371811Y-112164977D01*
X114393433Y-112141511D01*
X114407061Y-112112411D01*
X114411751Y-112078106D01*
X114408729Y-112049416D01*
X114400114Y-112025266D01*
X114386057Y-112004686D01*
X114367444Y-111987839D01*
X114345962Y-111975860D01*
X114321040Y-111968538D01*
X114284834Y-111964751D01*
X114204633Y-111962969D01*
X114126476Y-111962969D01*
X114126476Y-112194316D01*
X113964738Y-112194316D01*
X113964738Y-111828538D01*
X114224319Y-111828538D01*
X114359239Y-111832465D01*
G37*
G36*
X114824815Y-112632000D02*
G01*
X114633524Y-111828538D01*
X114799120Y-111828538D01*
X114919923Y-112380429D01*
X115066371Y-111828538D01*
X115258737Y-111828538D01*
X115399176Y-112389759D01*
X115522128Y-111828538D01*
X115684989Y-111828538D01*
X115490425Y-112632000D01*
X115318820Y-112632000D01*
X115159281Y-112031309D01*
X115000230Y-112632000D01*
X114824815Y-112632000D01*
G37*
G36*
X116195446Y-111831601D02*
G01*
X116255539Y-111839421D01*
X116295450Y-111850227D01*
X116331510Y-111868328D01*
X116362383Y-111893787D01*
X116388653Y-111927408D01*
X116407908Y-111965687D01*
X116419608Y-112007679D01*
X116423629Y-112054267D01*
X116420085Y-112098995D01*
X116409912Y-112138260D01*
X116393451Y-112173003D01*
X116370579Y-112203939D01*
X116342429Y-112229520D01*
X116307489Y-112250597D01*
X116264562Y-112267048D01*
X116212114Y-112278336D01*
X116261062Y-112311296D01*
X116298723Y-112345600D01*
X116334422Y-112390216D01*
X116390851Y-112475684D01*
X116488646Y-112632000D01*
X116295206Y-112632000D01*
X116178262Y-112457415D01*
X116119851Y-112373187D01*
X116093021Y-112339787D01*
X116068749Y-112318904D01*
X116044368Y-112306521D01*
X116014888Y-112300184D01*
X115962938Y-112297484D01*
X115930160Y-112297484D01*
X115930160Y-112632000D01*
X115768374Y-112632000D01*
X115768374Y-112169306D01*
X115930160Y-112169306D01*
X116049839Y-112169306D01*
X116155608Y-112165940D01*
X116195213Y-112159341D01*
X116221151Y-112145643D01*
X116240544Y-112124951D01*
X116252623Y-112098330D01*
X116256957Y-112063939D01*
X116254356Y-112037333D01*
X116247053Y-112015574D01*
X116235366Y-111997652D01*
X116210052Y-111977426D01*
X116174452Y-111965754D01*
X116056385Y-111962969D01*
X115930160Y-111962969D01*
X115930160Y-112169306D01*
X115768374Y-112169306D01*
X115768374Y-111828538D01*
X116108848Y-111828538D01*
X116195446Y-111831601D01*
G37*
G36*
X116935024Y-112632000D02*
G01*
X116781444Y-112632000D01*
X116781444Y-112054903D01*
X116722288Y-112103080D01*
X116656430Y-112142182D01*
X116583070Y-112172432D01*
X116583070Y-112031748D01*
X116621796Y-112015906D01*
X116665090Y-111991529D01*
X116713691Y-111957010D01*
X116756723Y-111917213D01*
X116788549Y-111874548D01*
X116810411Y-111828538D01*
X116935024Y-111828538D01*
X116935024Y-112632000D01*
G37*
G36*
X114913284Y-95550174D02*
G01*
X114900583Y-95586181D01*
X114883681Y-95621737D01*
X114813193Y-95729399D01*
X114832079Y-95782844D01*
X114843656Y-95840710D01*
X114847631Y-95903740D01*
X114842775Y-95978099D01*
X114828938Y-96042917D01*
X114806863Y-96099625D01*
X114776803Y-96149401D01*
X114738503Y-96193119D01*
X114693490Y-96229329D01*
X114641501Y-96258108D01*
X114581492Y-96279474D01*
X114512128Y-96292984D01*
X114431832Y-96297752D01*
X114351832Y-96292981D01*
X114282631Y-96279454D01*
X114222672Y-96258043D01*
X114170637Y-96229177D01*
X114125503Y-96192826D01*
X114086864Y-96148912D01*
X114056676Y-96099417D01*
X114034613Y-96043551D01*
X114020846Y-95980231D01*
X114016105Y-95909211D01*
X114153591Y-95909211D01*
X114158115Y-95957426D01*
X114171142Y-95999488D01*
X114192440Y-96036611D01*
X114222565Y-96069630D01*
X114258323Y-96094855D01*
X114303356Y-96114026D01*
X114359717Y-96126529D01*
X114429927Y-96131081D01*
X114501336Y-96126514D01*
X114558561Y-96113986D01*
X114604185Y-96094809D01*
X114640318Y-96069630D01*
X114671079Y-96036524D01*
X114692586Y-96000116D01*
X114705596Y-95959683D01*
X114710073Y-95914145D01*
X114707132Y-95879920D01*
X114698448Y-95848004D01*
X114669129Y-95898145D01*
X114647547Y-95947997D01*
X114553758Y-95902665D01*
X114575014Y-95850858D01*
X114602598Y-95800096D01*
X114636898Y-95750160D01*
X114597144Y-95723274D01*
X114548434Y-95703461D01*
X114494379Y-95691992D01*
X114429390Y-95687878D01*
X114358981Y-95692425D01*
X114302599Y-95704897D01*
X114257678Y-95723994D01*
X114222125Y-95749085D01*
X114192222Y-95781936D01*
X114171056Y-95818949D01*
X114158096Y-95860966D01*
X114153591Y-95909211D01*
X114016105Y-95909211D01*
X114016033Y-95908136D01*
X114020806Y-95836712D01*
X114034464Y-95773922D01*
X114056362Y-95718468D01*
X114086339Y-95669285D01*
X114124721Y-95625596D01*
X114169564Y-95589423D01*
X114221251Y-95560705D01*
X114280800Y-95539406D01*
X114349518Y-95525952D01*
X114428950Y-95521207D01*
X114497542Y-95524671D01*
X114557845Y-95534535D01*
X114610911Y-95550174D01*
X114649535Y-95567180D01*
X114688134Y-95590299D01*
X114726926Y-95620125D01*
X114765004Y-95558057D01*
X114794484Y-95490579D01*
X114913284Y-95550174D01*
G37*
G36*
X114669431Y-94978401D02*
G01*
X114832000Y-94978401D01*
X114832000Y-95127048D01*
X114669431Y-95127048D01*
X114669431Y-95454968D01*
X114535538Y-95454968D01*
X114057185Y-95127048D01*
X114266235Y-95127048D01*
X114535000Y-95311255D01*
X114535000Y-95127048D01*
X114266235Y-95127048D01*
X114057185Y-95127048D01*
X114028538Y-95107410D01*
X114028538Y-94978401D01*
X114535000Y-94978401D01*
X114535000Y-94878946D01*
X114669431Y-94878946D01*
X114669431Y-94978401D01*
G37*
G36*
X132591517Y-111834096D02*
G01*
X132644292Y-111839710D01*
X132688877Y-111852067D01*
X132727921Y-111872829D01*
X132761405Y-111901827D01*
X132789372Y-111939898D01*
X132802954Y-111968672D01*
X132811180Y-111999781D01*
X132813992Y-112033785D01*
X132810593Y-112070509D01*
X132800534Y-112104806D01*
X132783657Y-112137295D01*
X132761033Y-112166074D01*
X132733790Y-112189494D01*
X132701396Y-112207930D01*
X132747726Y-112226204D01*
X132784755Y-112250530D01*
X132813943Y-112280910D01*
X132835675Y-112316971D01*
X132848800Y-112357005D01*
X132853315Y-112402103D01*
X132850529Y-112438108D01*
X132842140Y-112473542D01*
X132827914Y-112508788D01*
X132808623Y-112541437D01*
X132785544Y-112568875D01*
X132758500Y-112591636D01*
X132727862Y-112609188D01*
X132692012Y-112621993D01*
X132650007Y-112629737D01*
X132595722Y-112632850D01*
X132454906Y-112635209D01*
X132182233Y-112635209D01*
X132182233Y-112500777D01*
X132344020Y-112500777D01*
X132493741Y-112500777D01*
X132573373Y-112499134D01*
X132604676Y-112495844D01*
X132637642Y-112484330D01*
X132663392Y-112463652D01*
X132675664Y-112445371D01*
X132683355Y-112422904D01*
X132686106Y-112395118D01*
X132681550Y-112360928D01*
X132668619Y-112333520D01*
X132647644Y-112311923D01*
X132618060Y-112296639D01*
X132575469Y-112288837D01*
X132474641Y-112285062D01*
X132344020Y-112285062D01*
X132344020Y-112500777D01*
X132182233Y-112500777D01*
X132182233Y-112150631D01*
X132344020Y-112150631D01*
X132450021Y-112150631D01*
X132567551Y-112147895D01*
X132605550Y-112137912D01*
X132632813Y-112119368D01*
X132645833Y-112102264D01*
X132653797Y-112081808D01*
X132656602Y-112057037D01*
X132651233Y-112022834D01*
X132636085Y-111996953D01*
X132620991Y-111984038D01*
X132601102Y-111974594D01*
X132575171Y-111968914D01*
X132436930Y-111966178D01*
X132344020Y-111966178D01*
X132344020Y-112150631D01*
X132182233Y-112150631D01*
X132182233Y-111831747D01*
X132502485Y-111831747D01*
X132591517Y-111834096D01*
G37*
G36*
X133712317Y-112635209D02*
G01*
X133536316Y-112635209D01*
X133466365Y-112453883D01*
X133146162Y-112453883D01*
X133080021Y-112635209D01*
X132908416Y-112635209D01*
X133031049Y-112319451D01*
X133195890Y-112319451D01*
X133414487Y-112319451D01*
X133304090Y-112019326D01*
X133195890Y-112319451D01*
X133031049Y-112319451D01*
X133220461Y-111831747D01*
X133391529Y-111831747D01*
X133712317Y-112635209D01*
G37*
G36*
X133895499Y-112635209D02*
G01*
X133895499Y-111966178D01*
X133657753Y-111966178D01*
X133657753Y-111831747D01*
X134294446Y-111831747D01*
X134294446Y-111966178D01*
X134057237Y-111966178D01*
X134057237Y-112635209D01*
X133895499Y-112635209D01*
G37*
G36*
X134758067Y-112635209D02*
G01*
X134604487Y-112635209D01*
X134604487Y-112058112D01*
X134545331Y-112106289D01*
X134479473Y-112145391D01*
X134406113Y-112175641D01*
X134406113Y-112034957D01*
X134444839Y-112019115D01*
X134488133Y-111994738D01*
X134536734Y-111960219D01*
X134579766Y-111920422D01*
X134611592Y-111877757D01*
X134633455Y-111831747D01*
X134758067Y-111831747D01*
X134758067Y-112635209D01*
G37*
G36*
X116218297Y-75594903D02*
G01*
X116043712Y-75711846D01*
X115959484Y-75770257D01*
X115926084Y-75797087D01*
X115905201Y-75821360D01*
X115892818Y-75845740D01*
X115886481Y-75875221D01*
X115883781Y-75927171D01*
X115883781Y-75959948D01*
X116218297Y-75959948D01*
X116218297Y-76121735D01*
X115414835Y-76121735D01*
X115414835Y-75833723D01*
X115549266Y-75833723D01*
X115549266Y-75959948D01*
X115755603Y-75959948D01*
X115755603Y-75840269D01*
X115752237Y-75734501D01*
X115745638Y-75694896D01*
X115731940Y-75668957D01*
X115711248Y-75649564D01*
X115684627Y-75637485D01*
X115650236Y-75633151D01*
X115623630Y-75635753D01*
X115601871Y-75643055D01*
X115583949Y-75654742D01*
X115563723Y-75680056D01*
X115552051Y-75715656D01*
X115549266Y-75833723D01*
X115414835Y-75833723D01*
X115414835Y-75781260D01*
X115417898Y-75694663D01*
X115425718Y-75634570D01*
X115436524Y-75594659D01*
X115454625Y-75558598D01*
X115480084Y-75527726D01*
X115513705Y-75501455D01*
X115551984Y-75482201D01*
X115593976Y-75470500D01*
X115640564Y-75466480D01*
X115685292Y-75470023D01*
X115724557Y-75480196D01*
X115759300Y-75496657D01*
X115790236Y-75519529D01*
X115815817Y-75547679D01*
X115836894Y-75582619D01*
X115853345Y-75625546D01*
X115864633Y-75677994D01*
X115897593Y-75629046D01*
X115931897Y-75591386D01*
X115976513Y-75555686D01*
X116061981Y-75499257D01*
X116218297Y-75401462D01*
X116218297Y-75594903D01*
G37*
G36*
X116074486Y-74829397D02*
G01*
X116218297Y-74829397D01*
X116218297Y-75367659D01*
X116165715Y-75358008D01*
X116114928Y-75340630D01*
X116065449Y-75315196D01*
X116019252Y-75282404D01*
X115956778Y-75227280D01*
X115873865Y-75142516D01*
X115783626Y-75049850D01*
X115743049Y-75015217D01*
X115710343Y-74997066D01*
X115679310Y-74986815D01*
X115649308Y-74983514D01*
X115616239Y-74986919D01*
X115590552Y-74996300D01*
X115570564Y-75011114D01*
X115555660Y-75031104D01*
X115546352Y-75056046D01*
X115543014Y-75087366D01*
X115546463Y-75118201D01*
X115556190Y-75143270D01*
X115571981Y-75163863D01*
X115593178Y-75178964D01*
X115624125Y-75190257D01*
X115668066Y-75196640D01*
X115652777Y-75349634D01*
X115589419Y-75338015D01*
X115539432Y-75319373D01*
X115500323Y-75294608D01*
X115470230Y-75263856D01*
X115446542Y-75226591D01*
X115429302Y-75184682D01*
X115418578Y-75137321D01*
X115414835Y-75083507D01*
X115419281Y-75024412D01*
X115431797Y-74974680D01*
X115451607Y-74932680D01*
X115478583Y-74897150D01*
X115512618Y-74867337D01*
X115549861Y-74846420D01*
X115591014Y-74833753D01*
X115637096Y-74829397D01*
X115689901Y-74834277D01*
X115739776Y-74848790D01*
X115787953Y-74872830D01*
X115841869Y-74910290D01*
X115880236Y-74944627D01*
X115943768Y-75010820D01*
X116031988Y-75102900D01*
X116074486Y-75134310D01*
X116074486Y-74829397D01*
G37*
G36*
X116218297Y-74332949D02*
G01*
X116218297Y-74486529D01*
X115641200Y-74486529D01*
X115689377Y-74545685D01*
X115728479Y-74611543D01*
X115758729Y-74684903D01*
X115618045Y-74684903D01*
X115602203Y-74646177D01*
X115577826Y-74602883D01*
X115543307Y-74554282D01*
X115503510Y-74511250D01*
X115460845Y-74479424D01*
X115414835Y-74457562D01*
X115414835Y-74332949D01*
X116218297Y-74332949D01*
G37*
G36*
X115913284Y-70950174D02*
G01*
X115900583Y-70986181D01*
X115883681Y-71021737D01*
X115813193Y-71129399D01*
X115832079Y-71182844D01*
X115843656Y-71240710D01*
X115847631Y-71303740D01*
X115842775Y-71378099D01*
X115828938Y-71442917D01*
X115806863Y-71499625D01*
X115776803Y-71549401D01*
X115738503Y-71593119D01*
X115693490Y-71629329D01*
X115641501Y-71658108D01*
X115581492Y-71679474D01*
X115512128Y-71692984D01*
X115431832Y-71697752D01*
X115351832Y-71692981D01*
X115282631Y-71679454D01*
X115222672Y-71658043D01*
X115170637Y-71629177D01*
X115125503Y-71592826D01*
X115086864Y-71548912D01*
X115056676Y-71499417D01*
X115034613Y-71443551D01*
X115020846Y-71380231D01*
X115016105Y-71309211D01*
X115153591Y-71309211D01*
X115158115Y-71357426D01*
X115171142Y-71399488D01*
X115192440Y-71436611D01*
X115222565Y-71469630D01*
X115258323Y-71494855D01*
X115303356Y-71514026D01*
X115359717Y-71526529D01*
X115429927Y-71531081D01*
X115501336Y-71526514D01*
X115558561Y-71513986D01*
X115604185Y-71494809D01*
X115640318Y-71469630D01*
X115671079Y-71436524D01*
X115692586Y-71400116D01*
X115705596Y-71359683D01*
X115710073Y-71314145D01*
X115707132Y-71279920D01*
X115698448Y-71248004D01*
X115669129Y-71298145D01*
X115647547Y-71347997D01*
X115553758Y-71302665D01*
X115575014Y-71250858D01*
X115602598Y-71200096D01*
X115636898Y-71150160D01*
X115597144Y-71123274D01*
X115548434Y-71103461D01*
X115494379Y-71091992D01*
X115429390Y-71087878D01*
X115358981Y-71092425D01*
X115302599Y-71104897D01*
X115257678Y-71123994D01*
X115222125Y-71149085D01*
X115192222Y-71181936D01*
X115171056Y-71218949D01*
X115158096Y-71260966D01*
X115153591Y-71309211D01*
X115016105Y-71309211D01*
X115016033Y-71308136D01*
X115020806Y-71236712D01*
X115034464Y-71173922D01*
X115056362Y-71118468D01*
X115086339Y-71069285D01*
X115124721Y-71025596D01*
X115169564Y-70989423D01*
X115221251Y-70960705D01*
X115280800Y-70939406D01*
X115349518Y-70925952D01*
X115428950Y-70921207D01*
X115497542Y-70924671D01*
X115557845Y-70934535D01*
X115610911Y-70950174D01*
X115649535Y-70967180D01*
X115688134Y-70990299D01*
X115726926Y-71020125D01*
X115765004Y-70958057D01*
X115794484Y-70890579D01*
X115913284Y-70950174D01*
G37*
G36*
X115616333Y-70833670D02*
G01*
X115597526Y-70685024D01*
X115635786Y-70677053D01*
X115665416Y-70664137D01*
X115688140Y-70646775D01*
X115705612Y-70624414D01*
X115715931Y-70599565D01*
X115719452Y-70571353D01*
X115715417Y-70541225D01*
X115703571Y-70514878D01*
X115683353Y-70491290D01*
X115657490Y-70473724D01*
X115625558Y-70462705D01*
X115585900Y-70458757D01*
X115548392Y-70462539D01*
X115518264Y-70473091D01*
X115493919Y-70489923D01*
X115474891Y-70512455D01*
X115463755Y-70537463D01*
X115459969Y-70565882D01*
X115462567Y-70596552D01*
X115471448Y-70636371D01*
X115347422Y-70619420D01*
X115344775Y-70578794D01*
X115335496Y-70547858D01*
X115320555Y-70524361D01*
X115299630Y-70506236D01*
X115274768Y-70495340D01*
X115244742Y-70491535D01*
X115218938Y-70494402D01*
X115197932Y-70502491D01*
X115180653Y-70515617D01*
X115167591Y-70532967D01*
X115159558Y-70553922D01*
X115156717Y-70579511D01*
X115159775Y-70604663D01*
X115168725Y-70626832D01*
X115183828Y-70646775D01*
X115203565Y-70662258D01*
X115229437Y-70673690D01*
X115263011Y-70680627D01*
X115239173Y-70822191D01*
X115191103Y-70809866D01*
X115152672Y-70794865D01*
X115122327Y-70777641D01*
X115095634Y-70755544D01*
X115072770Y-70728098D01*
X115053598Y-70694598D01*
X115039869Y-70658306D01*
X115031440Y-70618689D01*
X115028538Y-70575163D01*
X115033377Y-70519588D01*
X115047201Y-70471703D01*
X115069546Y-70430080D01*
X115100736Y-70393691D01*
X115132066Y-70368509D01*
X115164420Y-70351154D01*
X115198254Y-70340874D01*
X115234191Y-70337417D01*
X115273775Y-70341815D01*
X115309627Y-70354765D01*
X115342731Y-70376609D01*
X115373680Y-70408592D01*
X115402621Y-70452749D01*
X115416839Y-70409288D01*
X115438819Y-70372970D01*
X115468859Y-70342644D01*
X115505039Y-70319941D01*
X115546019Y-70306147D01*
X115593081Y-70301367D01*
X115644322Y-70306256D01*
X115690772Y-70320567D01*
X115733483Y-70344356D01*
X115773186Y-70378450D01*
X115805646Y-70419155D01*
X115828689Y-70464065D01*
X115842767Y-70514034D01*
X115847631Y-70570230D01*
X115843373Y-70623900D01*
X115831129Y-70671164D01*
X115811290Y-70713126D01*
X115783688Y-70750627D01*
X115749487Y-70782458D01*
X115710708Y-70806743D01*
X115666656Y-70823860D01*
X115616333Y-70833670D01*
G37*
G36*
X122440212Y-74278538D02*
G01*
X122601950Y-74278538D01*
X122601950Y-74717638D01*
X122603914Y-74813131D01*
X122607958Y-74853144D01*
X122618206Y-74884429D01*
X122634565Y-74910800D01*
X122657393Y-74933060D01*
X122684998Y-74949115D01*
X122719979Y-74959443D01*
X122764274Y-74963200D01*
X122809404Y-74959516D01*
X122843132Y-74949644D01*
X122868077Y-74934721D01*
X122888578Y-74913929D01*
X122902391Y-74890801D01*
X122910136Y-74864770D01*
X122915105Y-74816437D01*
X122917268Y-74727066D01*
X122917268Y-74278538D01*
X123079054Y-74278538D01*
X123079054Y-74701567D01*
X123075033Y-74835972D01*
X123065914Y-74906487D01*
X123054417Y-74945107D01*
X123038270Y-74978564D01*
X123017554Y-75007554D01*
X122992156Y-75032545D01*
X122961005Y-75054441D01*
X122923276Y-75073207D01*
X122883151Y-75086021D01*
X122832516Y-75094515D01*
X122769208Y-75097631D01*
X122692330Y-75094036D01*
X122635742Y-75084600D01*
X122595111Y-75071009D01*
X122557327Y-75050809D01*
X122526382Y-75027730D01*
X122501420Y-75001790D01*
X122472484Y-74957433D01*
X122456039Y-74912495D01*
X122444843Y-74835044D01*
X122440212Y-74708113D01*
X122440212Y-74278538D01*
G37*
G36*
X123215537Y-74431727D02*
G01*
X123215537Y-74287917D01*
X123740757Y-74287917D01*
X123740757Y-74400464D01*
X123700305Y-74445552D01*
X123656318Y-74506019D01*
X123608475Y-74584868D01*
X123567283Y-74666503D01*
X123533144Y-74751540D01*
X123505990Y-74840297D01*
X123485740Y-74931321D01*
X123474575Y-75011470D01*
X123471308Y-75082000D01*
X123323199Y-75082000D01*
X123328750Y-74999639D01*
X123341816Y-74915699D01*
X123362692Y-74829851D01*
X123391783Y-74741769D01*
X123440351Y-74629109D01*
X123498001Y-74526022D01*
X123564755Y-74431727D01*
X123215537Y-74431727D01*
G37*
G36*
X127867837Y-75605000D02*
G01*
X128024690Y-75655021D01*
X128002310Y-75719833D01*
X127974668Y-75772968D01*
X127942146Y-75816125D01*
X127904718Y-75850611D01*
X127861467Y-75877801D01*
X127812303Y-75897699D01*
X127756196Y-75910143D01*
X127691884Y-75914505D01*
X127628761Y-75909911D01*
X127571862Y-75896597D01*
X127520182Y-75874915D01*
X127472921Y-75844740D01*
X127429519Y-75805475D01*
X127393737Y-75760474D01*
X127365438Y-75709196D01*
X127344543Y-75650731D01*
X127331405Y-75583911D01*
X127326790Y-75507352D01*
X127331514Y-75425893D01*
X127344889Y-75355565D01*
X127366014Y-75294783D01*
X127394413Y-75242192D01*
X127430056Y-75196724D01*
X127473599Y-75157168D01*
X127521755Y-75126582D01*
X127575172Y-75104458D01*
X127634772Y-75090780D01*
X127701703Y-75086033D01*
X127774278Y-75091886D01*
X127837218Y-75108612D01*
X127892209Y-75135566D01*
X127940524Y-75172935D01*
X127972511Y-75210132D01*
X127999976Y-75258556D01*
X128022492Y-75320506D01*
X127862366Y-75358022D01*
X127849110Y-75318658D01*
X127829392Y-75286253D01*
X127803064Y-75259690D01*
X127771344Y-75239866D01*
X127735209Y-75227786D01*
X127693496Y-75223591D01*
X127650189Y-75227772D01*
X127612331Y-75239833D01*
X127578816Y-75259619D01*
X127548905Y-75287729D01*
X127526690Y-75320727D01*
X127509348Y-75364446D01*
X127497760Y-75421572D01*
X127493462Y-75495335D01*
X127497792Y-75574137D01*
X127509369Y-75634164D01*
X127526491Y-75679175D01*
X127548123Y-75712321D01*
X127577679Y-75740731D01*
X127610676Y-75760652D01*
X127647827Y-75772759D01*
X127690224Y-75776947D01*
X127731629Y-75772239D01*
X127768221Y-75758497D01*
X127801159Y-75735475D01*
X127827621Y-75704929D01*
X127850065Y-75662465D01*
X127867837Y-75605000D01*
G37*
G36*
X128522408Y-75902000D02*
G01*
X128368828Y-75902000D01*
X128368828Y-75324903D01*
X128309671Y-75373080D01*
X128243814Y-75412182D01*
X128170454Y-75442432D01*
X128170454Y-75301748D01*
X128209179Y-75285906D01*
X128252473Y-75261529D01*
X128301075Y-75227010D01*
X128344107Y-75187213D01*
X128375933Y-75144548D01*
X128397795Y-75098538D01*
X128522408Y-75098538D01*
X128522408Y-75902000D01*
G37*
G36*
X128753803Y-75698985D02*
G01*
X128906846Y-75683158D01*
X128914400Y-75716356D01*
X128927374Y-75743396D01*
X128945632Y-75765419D01*
X128968546Y-75782428D01*
X128993085Y-75792361D01*
X129019979Y-75795705D01*
X129050185Y-75791311D01*
X129076963Y-75778262D01*
X129101361Y-75755600D01*
X129118804Y-75726878D01*
X129130386Y-75687620D01*
X129134725Y-75634602D01*
X129130460Y-75585076D01*
X129119023Y-75548188D01*
X129101654Y-75520981D01*
X129077452Y-75499959D01*
X129049195Y-75487421D01*
X129015583Y-75483074D01*
X128984118Y-75486611D01*
X128954276Y-75497225D01*
X128925378Y-75515450D01*
X128896979Y-75542474D01*
X128772366Y-75524156D01*
X128851061Y-75107917D01*
X129257139Y-75107917D01*
X129257139Y-75251727D01*
X128967467Y-75251727D01*
X128943434Y-75386549D01*
X128978385Y-75372291D01*
X129013233Y-75363919D01*
X129048360Y-75361148D01*
X129097888Y-75365926D01*
X129142622Y-75379895D01*
X129183611Y-75403102D01*
X129221577Y-75436375D01*
X129252152Y-75475949D01*
X129274197Y-75520938D01*
X129287870Y-75572373D01*
X129292652Y-75631623D01*
X129288981Y-75680889D01*
X129278199Y-75726688D01*
X129260381Y-75769657D01*
X129235255Y-75810311D01*
X129201248Y-75849249D01*
X129163236Y-75878866D01*
X129120711Y-75900056D01*
X129072798Y-75913099D01*
X129018318Y-75917631D01*
X128963184Y-75913592D01*
X128915420Y-75902083D01*
X128873820Y-75883660D01*
X128837432Y-75858378D01*
X128806256Y-75826527D01*
X128782069Y-75789863D01*
X128764534Y-75747685D01*
X128753803Y-75698985D01*
G37*
G36*
X119332000Y-84017410D02*
G01*
X119157415Y-84134353D01*
X119073187Y-84192764D01*
X119039787Y-84219594D01*
X119018904Y-84243867D01*
X119006521Y-84268247D01*
X119000184Y-84297728D01*
X118997484Y-84349678D01*
X118997484Y-84382455D01*
X119332000Y-84382455D01*
X119332000Y-84544242D01*
X118528538Y-84544242D01*
X118528538Y-84256230D01*
X118662969Y-84256230D01*
X118662969Y-84382455D01*
X118869306Y-84382455D01*
X118869306Y-84262776D01*
X118865940Y-84157008D01*
X118859341Y-84117403D01*
X118845643Y-84091464D01*
X118824951Y-84072071D01*
X118798330Y-84059992D01*
X118763939Y-84055658D01*
X118737333Y-84058260D01*
X118715574Y-84065562D01*
X118697652Y-84077249D01*
X118677426Y-84102563D01*
X118665754Y-84138163D01*
X118662969Y-84256230D01*
X118528538Y-84256230D01*
X118528538Y-84203767D01*
X118531601Y-84117170D01*
X118539421Y-84057077D01*
X118550227Y-84017166D01*
X118568328Y-83981105D01*
X118593787Y-83950233D01*
X118627408Y-83923962D01*
X118665687Y-83904708D01*
X118707679Y-83893007D01*
X118754267Y-83888987D01*
X118798995Y-83892530D01*
X118838260Y-83902703D01*
X118873003Y-83919164D01*
X118903939Y-83942036D01*
X118929520Y-83970186D01*
X118950597Y-84005126D01*
X118967048Y-84048053D01*
X118978336Y-84100501D01*
X119011296Y-84051553D01*
X119045600Y-84013893D01*
X119090216Y-83978193D01*
X119175684Y-83921764D01*
X119332000Y-83823969D01*
X119332000Y-84017410D01*
G37*
G36*
X119332000Y-83377591D02*
G01*
X119332000Y-83531171D01*
X118754903Y-83531171D01*
X118803080Y-83590328D01*
X118842182Y-83656185D01*
X118872432Y-83729545D01*
X118731748Y-83729545D01*
X118715906Y-83690820D01*
X118691529Y-83647526D01*
X118657010Y-83598924D01*
X118617213Y-83555892D01*
X118574548Y-83524066D01*
X118528538Y-83502204D01*
X118528538Y-83377591D01*
X119332000Y-83377591D01*
G37*
G36*
X119128985Y-83146196D02*
G01*
X119113158Y-82993153D01*
X119146356Y-82985599D01*
X119173396Y-82972625D01*
X119195419Y-82954367D01*
X119212428Y-82931453D01*
X119222361Y-82906914D01*
X119225705Y-82880020D01*
X119221311Y-82849814D01*
X119208262Y-82823036D01*
X119185600Y-82798638D01*
X119156878Y-82781195D01*
X119117620Y-82769613D01*
X119064602Y-82765274D01*
X119015076Y-82769539D01*
X118978188Y-82780976D01*
X118950981Y-82798345D01*
X118929959Y-82822547D01*
X118917421Y-82850804D01*
X118913074Y-82884416D01*
X118916611Y-82915881D01*
X118927225Y-82945723D01*
X118945450Y-82974621D01*
X118972474Y-83003020D01*
X118954156Y-83127633D01*
X118537917Y-83048938D01*
X118537917Y-82642860D01*
X118681727Y-82642860D01*
X118681727Y-82932532D01*
X118816549Y-82956565D01*
X118802291Y-82921614D01*
X118793919Y-82886766D01*
X118791148Y-82851639D01*
X118795926Y-82802111D01*
X118809895Y-82757377D01*
X118833102Y-82716388D01*
X118866375Y-82678422D01*
X118905949Y-82647847D01*
X118950938Y-82625802D01*
X119002373Y-82612129D01*
X119061623Y-82607347D01*
X119110889Y-82611018D01*
X119156688Y-82621800D01*
X119199657Y-82639618D01*
X119240311Y-82664744D01*
X119279249Y-82698751D01*
X119308866Y-82736763D01*
X119330056Y-82779288D01*
X119343099Y-82827201D01*
X119347631Y-82881681D01*
X119343592Y-82936815D01*
X119332083Y-82984579D01*
X119313660Y-83026179D01*
X119288378Y-83062567D01*
X119256527Y-83093743D01*
X119219863Y-83117930D01*
X119177685Y-83135465D01*
X119128985Y-83146196D01*
G37*
G36*
X132438940Y-113253915D02*
G01*
X132497367Y-113264793D01*
X132542279Y-113282334D01*
X132582342Y-113306884D01*
X132618169Y-113338798D01*
X132648564Y-113376241D01*
X132674069Y-113419396D01*
X132694666Y-113468980D01*
X132708573Y-113520963D01*
X132717632Y-113583655D01*
X132720898Y-113658854D01*
X132717902Y-113724794D01*
X132709477Y-113781393D01*
X132696327Y-113829873D01*
X132672605Y-113886209D01*
X132643948Y-113933098D01*
X132610500Y-113971778D01*
X132580544Y-113996254D01*
X132543085Y-114017712D01*
X132496829Y-114035916D01*
X132438663Y-114048123D01*
X132353654Y-114052916D01*
X132049279Y-114052916D01*
X132049279Y-113918484D01*
X132211016Y-113918484D01*
X132331819Y-113918484D01*
X132394866Y-113916156D01*
X132429614Y-113910766D01*
X132466219Y-113897113D01*
X132494924Y-113877207D01*
X132509940Y-113859831D01*
X132524153Y-113834580D01*
X132537276Y-113799294D01*
X132549024Y-113740080D01*
X132553689Y-113651478D01*
X132548943Y-113563395D01*
X132537276Y-113507765D01*
X132516854Y-113461884D01*
X132491358Y-113429608D01*
X132458504Y-113406373D01*
X132416522Y-113391604D01*
X132374563Y-113386338D01*
X132283703Y-113383885D01*
X132211016Y-113383885D01*
X132211016Y-113918484D01*
X132049279Y-113918484D01*
X132049279Y-113249454D01*
X132344910Y-113249454D01*
X132438940Y-113253915D01*
G37*
G36*
X132855769Y-114052916D02*
G01*
X132855769Y-113249454D01*
X133097862Y-113249454D01*
X133243235Y-113797535D01*
X133386948Y-113249454D01*
X133629628Y-113249454D01*
X133629628Y-114052916D01*
X133479321Y-114052916D01*
X133479321Y-113420473D01*
X133320319Y-114052916D01*
X133164540Y-114052916D01*
X133006076Y-113420473D01*
X133006076Y-114052916D01*
X132855769Y-114052916D01*
G37*
G36*
X133749404Y-113796558D02*
G01*
X133906794Y-113780927D01*
X133920518Y-113830592D01*
X133939921Y-113867644D01*
X133964436Y-113894695D01*
X133995329Y-113914192D01*
X134033743Y-113926542D01*
X134081672Y-113930989D01*
X134132899Y-113926776D01*
X134171161Y-113915486D01*
X134199446Y-113898407D01*
X134222082Y-113874589D01*
X134234844Y-113849496D01*
X134239062Y-113822204D01*
X134234809Y-113796049D01*
X134222405Y-113774576D01*
X134201569Y-113757438D01*
X134164178Y-113740382D01*
X134034680Y-113704821D01*
X133948641Y-113678414D01*
X133890029Y-113651452D01*
X133852133Y-113624660D01*
X133819362Y-113588849D01*
X133796637Y-113550341D01*
X133783018Y-113508460D01*
X133778372Y-113462190D01*
X133782202Y-113422094D01*
X133793648Y-113383869D01*
X133813054Y-113346858D01*
X133839177Y-113314319D01*
X133872192Y-113287120D01*
X133913096Y-113265037D01*
X133957509Y-113249976D01*
X134009615Y-113240366D01*
X134070730Y-113236949D01*
X134147223Y-113241861D01*
X134208875Y-113255373D01*
X134258349Y-113276118D01*
X134297827Y-113303432D01*
X134331210Y-113339143D01*
X134355481Y-113379918D01*
X134371139Y-113426686D01*
X134377890Y-113480801D01*
X134216104Y-113487054D01*
X134205678Y-113447528D01*
X134190653Y-113418768D01*
X134171554Y-113398394D01*
X134147250Y-113384303D01*
X134114005Y-113374906D01*
X134069118Y-113371380D01*
X134022860Y-113375051D01*
X133986768Y-113385062D01*
X133958720Y-113400445D01*
X133944316Y-113414427D01*
X133935913Y-113430760D01*
X133933026Y-113450271D01*
X133938882Y-113476422D01*
X133957060Y-113499070D01*
X133980079Y-113513214D01*
X134025813Y-113531071D01*
X134105706Y-113553146D01*
X134215430Y-113584249D01*
X134280291Y-113611324D01*
X134315615Y-113633895D01*
X134344923Y-113660971D01*
X134368804Y-113692853D01*
X134386079Y-113728654D01*
X134396950Y-113770799D01*
X134400800Y-113820641D01*
X134396574Y-113865501D01*
X134383947Y-113908314D01*
X134362552Y-113949796D01*
X134333754Y-113986258D01*
X134298002Y-114015957D01*
X134254352Y-114039287D01*
X134206809Y-114054831D01*
X134149304Y-114064914D01*
X134080011Y-114068547D01*
X134003330Y-114063514D01*
X133940387Y-114049548D01*
X133888809Y-114027886D01*
X133846662Y-113999084D01*
X133811172Y-113961826D01*
X133783060Y-113916629D01*
X133762271Y-113862145D01*
X133749404Y-113796558D01*
G37*
G36*
X134895831Y-114052916D02*
G01*
X134742252Y-114052916D01*
X134742252Y-113475819D01*
X134683095Y-113523996D01*
X134617237Y-113563098D01*
X134543877Y-113593348D01*
X134543877Y-113452664D01*
X134582603Y-113436822D01*
X134625897Y-113412445D01*
X134674499Y-113377926D01*
X134717530Y-113338129D01*
X134749357Y-113295464D01*
X134771219Y-113249454D01*
X134895831Y-113249454D01*
X134895831Y-114052916D01*
G37*
D13*
%TO.C,J1*%
X136810000Y-105880000D02*
X136810000Y-103120000D01*
X113840000Y-105880000D02*
X136810000Y-105880000D01*
X113840000Y-105880000D02*
X113840000Y-103120000D01*
X113840000Y-103120000D02*
X136810000Y-103120000D01*
X112570000Y-105880000D02*
X111190000Y-105880000D01*
X111190000Y-105880000D02*
X111190000Y-104500000D01*
%TO.C,ESP5V1*%
X126830000Y-111330000D02*
X126830000Y-108670000D01*
X124230000Y-111330000D02*
X126830000Y-111330000D01*
X124230000Y-111330000D02*
X124230000Y-108670000D01*
X124230000Y-108670000D02*
X126830000Y-108670000D01*
X122960000Y-111330000D02*
X121630000Y-111330000D01*
X121630000Y-111330000D02*
X121630000Y-110000000D01*
D14*
%TO.C,U4*%
X121600000Y-115050000D02*
G75*
G02*
X121400000Y-115050000I-100000J0D01*
G01*
X121400000Y-115050000D02*
G75*
G02*
X121600000Y-115050000I100000J0D01*
G01*
D15*
X122250000Y-114800000D02*
X124250000Y-114800000D01*
X122250000Y-117800000D02*
X124250000Y-117800000D01*
D13*
%TO.C,R9*%
X119754724Y-117922500D02*
X119245276Y-117922500D01*
X119754724Y-116877500D02*
X119245276Y-116877500D01*
%TO.C,R8*%
X122754724Y-120622500D02*
X122245276Y-120622500D01*
X122754724Y-119577500D02*
X122245276Y-119577500D01*
%TO.C,L1*%
X130454000Y-113746000D02*
X130454000Y-118054000D01*
X126146000Y-118054000D02*
X126146000Y-113746000D01*
%TO.C,ESP3.3V1*%
X136655000Y-120220000D02*
X136655000Y-121550000D01*
X135325000Y-120220000D02*
X136655000Y-120220000D01*
X134055000Y-120220000D02*
X131455000Y-120220000D01*
X134055000Y-120220000D02*
X134055000Y-122880000D01*
X131455000Y-120220000D02*
X131455000Y-122880000D01*
X134055000Y-122880000D02*
X131455000Y-122880000D01*
%TO.C,C7*%
X127146267Y-120610000D02*
X126853733Y-120610000D01*
X127146267Y-119590000D02*
X126853733Y-119590000D01*
%TO.C,C6*%
X120310000Y-114153733D02*
X120310000Y-114446267D01*
X119290000Y-114153733D02*
X119290000Y-114446267D01*
%TO.C,S1*%
X110890000Y-120690000D02*
X110890000Y-124510000D01*
X110890000Y-124510000D02*
X112240000Y-124510000D01*
X112240000Y-120690000D02*
X110890000Y-120690000D01*
X114740000Y-120690000D02*
X113760000Y-120690000D01*
X114740000Y-124510000D02*
X113760000Y-124510000D01*
X117240000Y-120690000D02*
X116260000Y-120690000D01*
X117240000Y-124510000D02*
X116260000Y-124510000D01*
X120110000Y-120690000D02*
X118760000Y-120690000D01*
X120110000Y-120690000D02*
X120110000Y-124510000D01*
X120110000Y-124510000D02*
X118760000Y-124510000D01*
%TO.C,C1*%
X128953733Y-89590000D02*
X129246267Y-89590000D01*
X128953733Y-90610000D02*
X129246267Y-90610000D01*
%TO.C,U6*%
X120420000Y-92852500D02*
X120695000Y-92852500D01*
X120420000Y-97472500D02*
X120420000Y-92852500D01*
X120695000Y-97472500D02*
X120420000Y-97472500D01*
X130065000Y-92852500D02*
X130340000Y-92852500D01*
X130340000Y-92852500D02*
X130340000Y-97472500D01*
X130340000Y-97472500D02*
X130065000Y-97472500D01*
X130540000Y-92552500D02*
X130070000Y-92212500D01*
X130540000Y-91872500D01*
X130540000Y-92552500D01*
G36*
X130540000Y-92552500D02*
G01*
X130070000Y-92212500D01*
X130540000Y-91872500D01*
X130540000Y-92552500D01*
G37*
%TO.C,R14*%
X116777500Y-83345276D02*
X116777500Y-83854724D01*
X117822500Y-83345276D02*
X117822500Y-83854724D01*
%TO.C,C14*%
X122990000Y-83353733D02*
X122990000Y-83646267D01*
X124010000Y-83353733D02*
X124010000Y-83646267D01*
%TO.C,R22*%
X116267224Y-90977500D02*
X115757776Y-90977500D01*
X116267224Y-92022500D02*
X115757776Y-92022500D01*
%TO.C,6V_IN1*%
X111330000Y-117380000D02*
X111330000Y-116000000D01*
X112710000Y-117380000D02*
X111330000Y-117380000D01*
X113980000Y-114620000D02*
X116630000Y-114620000D01*
X113980000Y-117380000D02*
X113980000Y-114620000D01*
X113980000Y-117380000D02*
X116630000Y-117380000D01*
X116630000Y-117380000D02*
X116630000Y-114620000D01*
%TO.C,ADC1*%
X124930000Y-85370000D02*
X124930000Y-88030000D01*
X127530000Y-85370000D02*
X124930000Y-85370000D01*
X127530000Y-85370000D02*
X127530000Y-88030000D01*
X127530000Y-88030000D02*
X124930000Y-88030000D01*
X128800000Y-85370000D02*
X130130000Y-85370000D01*
X130130000Y-85370000D02*
X130130000Y-86700000D01*
%TO.C,Q1*%
X116690000Y-78750000D02*
X116690000Y-78100000D01*
X116690000Y-78750000D02*
X116690000Y-79400000D01*
X119810000Y-78750000D02*
X119810000Y-78100000D01*
X119810000Y-78750000D02*
X119810000Y-79400000D01*
X116740000Y-79912500D02*
X116410000Y-80152500D01*
X116410000Y-79672500D01*
X116740000Y-79912500D01*
G36*
X116740000Y-79912500D02*
G01*
X116410000Y-80152500D01*
X116410000Y-79672500D01*
X116740000Y-79912500D01*
G37*
%TO.C,THRM1*%
X120605000Y-65370000D02*
X120605000Y-68030000D01*
X123205000Y-65370000D02*
X120605000Y-65370000D01*
X123205000Y-65370000D02*
X123205000Y-68030000D01*
X123205000Y-68030000D02*
X120605000Y-68030000D01*
X124475000Y-65370000D02*
X125805000Y-65370000D01*
X125805000Y-65370000D02*
X125805000Y-66700000D01*
%TO.C,R13*%
X128254724Y-70477500D02*
X127745276Y-70477500D01*
X128254724Y-71522500D02*
X127745276Y-71522500D01*
%TO.C,R18*%
X128254724Y-73377500D02*
X127745276Y-73377500D01*
X128254724Y-74422500D02*
X127745276Y-74422500D01*
%TO.C,PWR1*%
X111320000Y-111380000D02*
X111320000Y-110000000D01*
X112700000Y-111380000D02*
X111320000Y-111380000D01*
X113970000Y-108620000D02*
X116620000Y-108620000D01*
X113970000Y-111380000D02*
X113970000Y-108620000D01*
X113970000Y-111380000D02*
X116620000Y-111380000D01*
X116620000Y-111380000D02*
X116620000Y-108620000D01*
%TO.C,Q4*%
X115340000Y-94840000D02*
X115390000Y-94840000D01*
X115340000Y-96360000D02*
X115340000Y-94840000D01*
X116340000Y-96360000D02*
X115340000Y-96360000D01*
X116510000Y-94840000D02*
X117290000Y-94840000D01*
X118410000Y-94840000D02*
X118460000Y-94840000D01*
X118460000Y-94840000D02*
X118460000Y-96360000D01*
X118460000Y-96360000D02*
X117460000Y-96360000D01*
X117280000Y-94300000D02*
X116950000Y-94540000D01*
X116950000Y-94060000D01*
X117280000Y-94300000D01*
G36*
X117280000Y-94300000D02*
G01*
X116950000Y-94540000D01*
X116950000Y-94060000D01*
X117280000Y-94300000D01*
G37*
%TO.C,C12*%
X123653733Y-88890000D02*
X123946267Y-88890000D01*
X123653733Y-89910000D02*
X123946267Y-89910000D01*
%TO.C,BAT1*%
X130870000Y-111380000D02*
X130870000Y-110000000D01*
X132250000Y-111380000D02*
X130870000Y-111380000D01*
X133520000Y-108620000D02*
X136170000Y-108620000D01*
X133520000Y-111380000D02*
X133520000Y-108620000D01*
X133520000Y-111380000D02*
X136170000Y-111380000D01*
X136170000Y-111380000D02*
X136170000Y-108620000D01*
%TO.C,U2*%
X111300000Y-63075000D02*
X136700000Y-63075000D01*
X111300000Y-101995000D02*
X111300000Y-63075000D01*
X136700000Y-63075000D02*
X136700000Y-101995000D01*
X136700000Y-101995000D02*
X111300000Y-101995000D01*
%TO.C,R21*%
X117995276Y-74977500D02*
X118504724Y-74977500D01*
X117995276Y-76022500D02*
X118504724Y-76022500D01*
%TO.C,Q3*%
X116690000Y-71250000D02*
X116690000Y-70600000D01*
X116690000Y-71250000D02*
X116690000Y-71900000D01*
X119810000Y-71250000D02*
X119810000Y-70600000D01*
X119810000Y-71250000D02*
X119810000Y-71900000D01*
X116740000Y-72412500D02*
X116410000Y-72652500D01*
X116410000Y-72172500D01*
X116740000Y-72412500D01*
G36*
X116740000Y-72412500D02*
G01*
X116410000Y-72652500D01*
X116410000Y-72172500D01*
X116740000Y-72412500D01*
G37*
%TO.C,U7*%
X124325000Y-71140000D02*
X121825000Y-71140000D01*
X124325000Y-73860000D02*
X121825000Y-73860000D01*
X124725000Y-73830000D02*
X124725000Y-73550000D01*
X125005000Y-73550000D01*
X124725000Y-73830000D01*
G36*
X124725000Y-73830000D02*
G01*
X124725000Y-73550000D01*
X125005000Y-73550000D01*
X124725000Y-73830000D01*
G37*
%TO.C,C15*%
X127853733Y-76490000D02*
X128146267Y-76490000D01*
X127853733Y-77510000D02*
X128146267Y-77510000D01*
%TO.C,R15*%
X119977500Y-83345276D02*
X119977500Y-83854724D01*
X121022500Y-83345276D02*
X121022500Y-83854724D01*
%TO.C,C13*%
X126533075Y-99546391D02*
X126240541Y-99546391D01*
X126533075Y-100566391D02*
X126240541Y-100566391D01*
%TO.C,DMS1*%
X131405000Y-114670000D02*
X131405000Y-117330000D01*
X134005000Y-114670000D02*
X131405000Y-114670000D01*
X134005000Y-114670000D02*
X134005000Y-117330000D01*
X134005000Y-117330000D02*
X131405000Y-117330000D01*
X135275000Y-114670000D02*
X136605000Y-114670000D01*
X136605000Y-114670000D02*
X136605000Y-116000000D01*
%TD*%
M02*
