%TF.GenerationSoftware,KiCad,Pcbnew,9.0.0*%
%TF.CreationDate,2026-05-18T10:55:36+02:00*%
%TF.ProjectId,ESP32_Shield 2,45535033-325f-4536-9869-656c6420322e,rev?*%
%TF.SameCoordinates,Original*%
%TF.FileFunction,Soldermask,Bot*%
%TF.FilePolarity,Negative*%
%FSLAX46Y46*%
G04 Gerber Fmt 4.6, Leading zero omitted, Abs format (unit mm)*
G04 Created by KiCad (PCBNEW 9.0.0) date 2026-05-18 10:55:36*
%MOMM*%
%LPD*%
G01*
G04 APERTURE LIST*
%ADD10O,1.700000X1.700000*%
%ADD11R,1.700000X1.700000*%
%ADD12C,1.700000*%
%ADD13R,1.500000X1.500000*%
%ADD14C,1.500000*%
%ADD15C,1.600000*%
G04 APERTURE END LIST*
D10*
%TO.C,ESP3.3V1*%
X132785000Y-131225000D03*
D11*
X135325000Y-131225000D03*
%TD*%
%TO.C,ESP5V1*%
X122960000Y-119675000D03*
D10*
X125500000Y-119675000D03*
%TD*%
D11*
%TO.C,6V_IN1*%
X112710000Y-125675000D03*
D12*
X115250000Y-125675000D03*
%TD*%
D11*
%TO.C,ADC1*%
X128800000Y-86700000D03*
D10*
X126260000Y-86700000D03*
%TD*%
D11*
%TO.C,THRM1*%
X124475000Y-66700000D03*
D10*
X121935000Y-66700000D03*
%TD*%
D11*
%TO.C,PWR1*%
X112700000Y-119675000D03*
D12*
X115240000Y-119675000D03*
%TD*%
D11*
%TO.C,BAT1*%
X132250000Y-119675000D03*
D12*
X134790000Y-119675000D03*
%TD*%
D13*
%TO.C,U2*%
X112570000Y-64755000D03*
D14*
X112570000Y-67295000D03*
X112570000Y-69835000D03*
X112570000Y-72375000D03*
X112570000Y-74915000D03*
X112570000Y-77455000D03*
X112570000Y-79995000D03*
X112570000Y-82535000D03*
X112570000Y-85075000D03*
X112570000Y-87615000D03*
X112570000Y-90155000D03*
X112570000Y-92695000D03*
X112570000Y-95235000D03*
X112570000Y-97775000D03*
X112570000Y-100315000D03*
X138570000Y-100315000D03*
X138570000Y-97775000D03*
X138570000Y-95235000D03*
X138570000Y-92695000D03*
X138570000Y-90155000D03*
X138570000Y-87615000D03*
X138570000Y-85075000D03*
X138570000Y-82535000D03*
X138570000Y-79995000D03*
X138570000Y-77455000D03*
X138570000Y-74915000D03*
X138570000Y-72375000D03*
X138570000Y-69835000D03*
X138570000Y-67295000D03*
X138570000Y-64755000D03*
%TD*%
D11*
%TO.C,DMS1*%
X135275000Y-125675000D03*
D10*
X132735000Y-125675000D03*
%TD*%
D11*
%TO.C,J1*%
X112570000Y-115000000D03*
D15*
X115110000Y-115000000D03*
X117650000Y-115000000D03*
X120190000Y-115000000D03*
X122730000Y-115000000D03*
X125270000Y-115000000D03*
X127810000Y-115000000D03*
X130350000Y-115000000D03*
X132890000Y-115000000D03*
X135430000Y-115000000D03*
%TD*%
M02*
