M48
; DRILL file {KiCad 9.0.0} date 2026-05-18T10:55:55+0200
; FORMAT={-:-/ absolute / metric / decimal}
; #@! TF.CreationDate,2026-05-18T10:55:55+02:00
; #@! TF.GenerationSoftware,Kicad,Pcbnew,9.0.0
; #@! TF.FileFunction,Plated,1,2,PTH
FMAT,2
METRIC
; #@! TA.AperFunction,Plated,PTH,ViaDrill
T1C0.300
; #@! TA.AperFunction,Plated,PTH,ComponentDrill
T2C0.900
; #@! TA.AperFunction,Plated,PTH,ComponentDrill
T3C1.000
%
G90
G05
T1
X111.125Y-66.04
X111.125Y-68.58
X111.125Y-71.12
X111.125Y-73.66
X111.125Y-76.2
X111.125Y-78.74
X111.125Y-81.28
X111.125Y-120.25
X111.125Y-125.33
X111.125Y-131.045
X111.125Y-133.585
X111.2Y-96.4
X111.2Y-99.2
X111.3Y-135.7
X112.6Y-102.3
X112.6Y-104.4
X112.6Y-106.4
X112.6Y-108.5
X112.6Y-110.6
X112.6Y-112.7
X113.665Y-66.04
X113.665Y-68.58
X113.665Y-71.12
X113.665Y-73.66
X113.665Y-76.2
X113.665Y-78.74
X113.665Y-81.28
X114.1Y-93.5
X114.2Y-87.9
X114.25Y-132.175
X114.3Y-122.705
X114.35Y-129.275
X114.4Y-83.2
X115.3Y-86.5
X115.6Y-76.8
X115.6Y-79.2
X115.656Y-80.194
X115.7Y-73.7
X115.7Y-100.6
X115.8Y-104.4
X115.8Y-108.5
X115.8Y-112.7
X116.1Y-98.2
X116.205Y-63.5
X116.205Y-66.04
X116.205Y-68.58
X116.753Y-93.432
X116.84Y-122.705
X117.475Y-119.53
X117.475Y-121.435
X117.5Y-104.5
X117.601Y-92.584
X118.1Y-90.4
X118.11Y-87.63
X118.745Y-63.5
X118.745Y-66.04
X118.745Y-68.58
X118.9Y-109.6
X118.9Y-112.9
X118.918Y-100.105
X118.918Y-102.391
X119.2Y-94.091
X119.3Y-70.1
X119.3Y-121.925
X119.45Y-135.025
X119.701Y-99.077
X119.806Y-97.146
X119.983Y-94.813
X120.015Y-119.53
X120.4Y-135.9
X120.6Y-76.5
X120.85Y-72.787
X120.85Y-73.5
X121.1Y-70.1
X121.139Y-90.474
X121.2Y-104.5
X121.285Y-63.5
X121.4Y-87.0
X121.6Y-109.5
X121.6Y-112.9
X121.775Y-90.96
X121.92Y-74.93
X121.92Y-78.105
X121.92Y-79.375
X122.456Y-90.484
X122.681Y-103.529
X123.066Y-70.493
X123.069Y-91.031
X123.1Y-104.5
X123.8Y-100.7
X123.825Y-63.5
X124.1Y-124.375
X124.3Y-99.3
X124.308Y-101.356
X125.05Y-129.675
X125.095Y-128.42
X125.2Y-134.8
X125.27Y-104.5
X125.5Y-70.8
X125.5Y-72.75
X125.73Y-75.565
X125.73Y-78.105
X125.73Y-79.375
X125.73Y-81.915
X125.73Y-83.82
X125.73Y-123.975
X126.365Y-63.5
X126.365Y-122.07
X126.5Y-90.9
X126.7Y-104.5
X127.0Y-90.5
X127.05Y-89.5
X128.133Y-91.061
X128.27Y-122.07
X128.299Y-125.595
X128.4Y-99.3
X128.5Y-104.5
X128.905Y-63.5
X128.905Y-65.405
X128.905Y-67.945
X128.905Y-118.26
X128.949Y-91.045
X129.0Y-100.5
X129.1Y-96.6
X129.54Y-78.105
X129.54Y-79.375
X129.54Y-81.915
X129.54Y-83.82
X129.54Y-93.98
X129.54Y-95.885
X129.54Y-123.975
X129.54Y-126.515
X129.75Y-128.525
X130.175Y-119.53
X130.35Y-81.249
X130.75Y-75.55
X130.81Y-67.945
X130.81Y-116.355
X130.81Y-135.405
X131.0Y-72.1
X131.074Y-86.091
X131.074Y-88.277
X131.1Y-90.8
X131.2Y-99.5
X131.445Y-63.5
X131.445Y-65.405
X131.6Y-109.6
X131.6Y-112.6
X131.637Y-121.974
X131.657Y-100.783
X132.1Y-104.5
X132.25Y-67.8
X132.25Y-70.2
X132.25Y-73.1
X132.25Y-87.25
X133.35Y-117.625
X133.5Y-73.0
X133.5Y-74.9
X133.6Y-78.3
X133.6Y-104.8
X133.661Y-98.405
X133.985Y-66.04
X133.985Y-83.82
X133.985Y-86.36
X133.985Y-88.9
X133.985Y-91.44
X134.0Y-94.0
X134.1Y-117.2
X134.343Y-96.74
X134.62Y-135.405
X134.764Y-102.986
X135.255Y-116.355
X135.255Y-122.07
X136.25Y-102.0
X136.525Y-66.04
X136.525Y-68.58
X136.525Y-71.12
X136.525Y-73.66
X136.525Y-76.2
X136.525Y-78.74
X136.525Y-81.28
X136.525Y-83.82
X136.525Y-86.36
X136.525Y-88.9
X136.525Y-91.44
X136.525Y-93.98
X136.525Y-96.52
X136.525Y-99.06
X137.2Y-110.5
X137.2Y-112.5
X137.589Y-104.611
X138.43Y-102.87
X138.43Y-116.355
X138.43Y-120.165
X138.43Y-123.975
X138.43Y-127.785
X138.43Y-131.595
X138.43Y-135.405
T2
X112.57Y-64.755
X112.57Y-67.295
X112.57Y-69.835
X112.57Y-72.375
X112.57Y-74.915
X112.57Y-77.455
X112.57Y-79.995
X112.57Y-82.535
X112.57Y-85.075
X112.57Y-87.615
X112.57Y-90.155
X112.57Y-92.695
X112.57Y-95.235
X112.57Y-97.775
X112.57Y-100.315
X138.57Y-64.755
X138.57Y-67.295
X138.57Y-69.835
X138.57Y-72.375
X138.57Y-74.915
X138.57Y-77.455
X138.57Y-79.995
X138.57Y-82.535
X138.57Y-85.075
X138.57Y-87.615
X138.57Y-90.155
X138.57Y-92.695
X138.57Y-95.235
X138.57Y-97.775
X138.57Y-100.315
T3
X112.57Y-115.0
X112.7Y-119.675
X112.71Y-125.675
X115.11Y-115.0
X115.24Y-119.675
X115.25Y-125.675
X117.65Y-115.0
X120.19Y-115.0
X121.935Y-66.7
X122.73Y-115.0
X122.96Y-119.675
X124.475Y-66.7
X125.27Y-115.0
X125.5Y-119.675
X126.26Y-86.7
X127.81Y-115.0
X128.8Y-86.7
X130.35Y-115.0
X132.25Y-119.675
X132.735Y-125.675
X132.785Y-131.225
X132.89Y-115.0
X134.79Y-119.675
X135.275Y-125.675
X135.325Y-131.225
X135.43Y-115.0
M30
